<svg width="32" height="32" viewBox="0 0 32 32" fill="none" xmlns="http://www.w3.org/2000/svg">
<path d="M13.9998 2C15.6104 2.00011 17.2046 2.32447 18.6872 2.95372C20.1698 3.58298 21.5106 4.50427 22.6296 5.66268C23.7487 6.8211 24.6231 8.19293 25.2007 9.69643C25.7783 11.1999 26.0474 12.8043 25.9918 14.414C25.3006 14.1137 24.5505 13.9735 23.7976 14.0039C23.0446 14.0343 22.3082 14.2345 21.6435 14.5895C20.9788 14.9446 20.403 15.4453 19.959 16.0542C19.5151 16.6632 19.2145 17.3646 19.0798 18.106C18.2028 18.3133 17.4216 18.8106 16.8625 19.5173C16.3035 20.2241 15.9995 21.0989 15.9998 22V25.834C14.3632 26.1091 12.6874 26.0417 11.0782 25.6362C9.46902 25.2306 7.96143 24.4957 6.65071 23.4779C5.33999 22.46 4.25463 21.1814 3.46322 19.7227C2.6718 18.2641 2.19154 16.6571 2.05277 15.0034C1.914 13.3497 2.11975 11.6852 2.657 10.1151C3.19426 8.54494 4.05135 7.1033 5.17411 5.88126C6.29687 4.65921 7.6609 3.68333 9.18001 3.01528C10.6991 2.34722 12.3403 2.00151 13.9998 2ZM18.2398 10.328L12.4998 16.084L9.70779 13.292C9.61482 13.199 9.50444 13.1253 9.38296 13.075C9.26148 13.0246 9.13128 12.9987 8.99979 12.9987C8.86831 12.9987 8.73811 13.0246 8.61663 13.075C8.49515 13.1253 8.38477 13.199 8.29179 13.292C8.19882 13.385 8.12507 13.4954 8.07475 13.6168C8.02443 13.7383 7.99853 13.8685 7.99853 14C7.99853 14.1315 8.02443 14.2617 8.07475 14.3832C8.12507 14.5046 8.19882 14.615 8.29179 14.708L11.7918 18.208C11.8847 18.3011 11.995 18.375 12.1165 18.4254C12.238 18.4758 12.3683 18.5018 12.4998 18.5018C12.6313 18.5018 12.7616 18.4758 12.8831 18.4254C13.0046 18.375 13.1149 18.3011 13.2078 18.208L19.6558 11.74C19.8377 11.5511 19.9382 11.2984 19.9355 11.0362C19.9329 10.774 19.8273 10.5233 19.6417 10.3382C19.456 10.153 19.205 10.0482 18.9428 10.0463C18.6806 10.0444 18.4281 10.1456 18.2398 10.328ZM20.8598 20C20.9071 19.9976 20.9544 19.9962 21.0018 19.996V19.008C21.0018 18.2124 21.3179 17.4493 21.8805 16.8867C22.4431 16.3241 23.2061 16.008 24.0018 16.008C24.7974 16.008 25.5605 16.3241 26.1231 16.8867C26.6857 17.4493 27.0018 18.2124 27.0018 19.008V19.996H27.0078C27.0578 19.996 27.1078 19.996 27.1578 20H27.9998C28.5302 20 29.0389 20.2107 29.414 20.5858C29.7891 20.9609 29.9998 21.4696 29.9998 22V22.78C30.0058 22.85 30.0078 22.922 30.0078 22.996V27C30.0078 27.074 30.0058 27.146 29.9998 27.218V28C29.9998 28.5304 29.7891 29.0391 29.414 29.4142C29.0389 29.7893 28.5302 30 27.9998 30H19.9998C19.4694 30 18.9607 29.7893 18.5856 29.4142C18.2105 29.0391 17.9998 28.5304 17.9998 28V22C17.9998 21.4696 18.2105 20.9609 18.5856 20.5858C18.9607 20.2107 19.4694 20 19.9998 20H20.8598ZM23.9998 18.008C23.7346 18.008 23.4802 18.1134 23.2927 18.3009C23.1052 18.4884 22.9998 18.7428 22.9998 19.008V19.996H24.9998V19.008C24.9998 18.7428 24.8944 18.4884 24.7069 18.3009C24.5194 18.1134 24.265 18.008 23.9998 18.008ZM24.9998 25C24.9998 24.7348 24.8944 24.4804 24.7069 24.2929C24.5194 24.1054 24.265 24 23.9998 24C23.7346 24 23.4802 24.1054 23.2927 24.2929C23.1052 24.4804 22.9998 24.7348 22.9998 25C22.9998 25.2652 23.1052 25.5196 23.2927 25.7071C23.4802 25.8946 23.7346 26 23.9998 26C24.265 26 24.5194 25.8946 24.7069 25.7071C24.8944 25.5196 24.9998 25.2652 24.9998 25Z" fill="currentColor"/>
</svg>
