<svg width="32" height="32" viewBox="0 0 32 32" fill="none" xmlns="http://www.w3.org/2000/svg">
<path d="M2.6665 8.3803C2.6665 6.86478 3.26854 5.41133 4.34018 4.33969C5.41182 3.26805 6.86527 2.66602 8.38079 2.66602H23.6189C25.1344 2.66602 26.5879 3.26805 27.6595 4.33969C28.7311 5.41133 29.3332 6.86478 29.3332 8.3803V23.6184C29.3332 25.1339 28.7311 26.5874 27.6595 27.659C26.5879 28.7306 25.1344 29.3327 23.6189 29.3327H8.38079C6.86527 29.3327 5.41182 28.7306 4.34018 27.659C3.26854 26.5874 2.6665 25.1339 2.6665 23.6184V8.3803ZM9.33317 8.3803C9.08058 8.3803 8.83834 8.48064 8.65974 8.65925C8.48113 8.83785 8.38079 9.0801 8.38079 9.33268C8.38079 9.58527 8.48113 9.82751 8.65974 10.0061C8.83834 10.1847 9.08058 10.2851 9.33317 10.2851H22.6665C22.9191 10.2851 23.1613 10.1847 23.3399 10.0061C23.5185 9.82751 23.6189 9.58527 23.6189 9.33268C23.6189 9.0801 23.5185 8.83785 23.3399 8.65925C23.1613 8.48064 22.9191 8.3803 22.6665 8.3803H9.33317Z" fill="url(#paint0_linear_2223_19410)"/>
<defs>
<linearGradient id="paint0_linear_2223_19410" x1="2.6665" y1="15.9993" x2="26.6174" y2="24.0644" gradientUnits="userSpaceOnUse">
<stop stop-color="#D52274"/>
<stop offset="0.5625" stop-color="#F44D29"/>
<stop offset="1" stop-color="#FD7E14"/>
</linearGradient>
</defs>
</svg>
