<svg width="32" height="32" viewBox="0 0 32 32" fill="none" xmlns="http://www.w3.org/2000/svg">
<path d="M2 9.5C2 8.30653 2.47411 7.16193 3.31802 6.31802C4.16193 5.47411 5.30653 5 6.5 5H25.5C26.6935 5 27.8381 5.47411 28.682 6.31802C29.5259 7.16193 30 8.30653 30 9.5V22.5C30 23.6935 29.5259 24.8381 28.682 25.682C27.8381 26.5259 26.6935 27 25.5 27H6.5C5.30653 27 4.16193 26.5259 3.31802 25.682C2.47411 24.8381 2 23.6935 2 22.5V9.5ZM6.5 7C5.83696 7 5.20107 7.26339 4.73223 7.73223C4.26339 8.20107 4 8.83696 4 9.5V11H28V9.5C28 8.83696 27.7366 8.20107 27.2678 7.73223C26.7989 7.26339 26.163 7 25.5 7H6.5ZM4 22.5C4 23.163 4.26339 23.7989 4.73223 24.2678C5.20107 24.7366 5.83696 25 6.5 25H25.5C26.163 25 26.7989 24.7366 27.2678 24.2678C27.7366 23.7989 28 23.163 28 22.5V13H4V22.5ZM21 19H24C24.2652 19 24.5196 19.1054 24.7071 19.2929C24.8946 19.4804 25 19.7348 25 20C25 20.2652 24.8946 20.5196 24.7071 20.7071C24.5196 20.8946 24.2652 21 24 21H21C20.7348 21 20.4804 20.8946 20.2929 20.7071C20.1054 20.5196 20 20.2652 20 20C20 19.7348 20.1054 19.4804 20.2929 19.2929C20.4804 19.1054 20.7348 19 21 19Z" fill="url(#paint0_linear_2209_10162)"/>
<defs>
<linearGradient id="paint0_linear_2209_10162" x1="2" y1="16" x2="25.6552" y2="26.1379" gradientUnits="userSpaceOnUse">
<stop stop-color="#D52274"/>
<stop offset="0.5625" stop-color="#F44D29"/>
<stop offset="1" stop-color="#FD7E14"/>
</linearGradient>
</defs>
</svg>
