<svg width="32" height="32" viewBox="0 0 32 32" fill="none" xmlns="http://www.w3.org/2000/svg">
<path d="M22.509 12.6892L16.509 9.13922C16.3549 9.04792 16.179 8.99982 15.9999 9C15.8207 9.00018 15.6449 9.04861 15.491 9.14022L9.491 12.6902C9.3414 12.7785 9.21742 12.9042 9.13131 13.055C9.0452 13.2059 8.99993 13.3765 9 13.5502V20.4502C9 20.8042 9.187 21.1312 9.491 21.3102L15.491 24.8602C15.6447 24.9525 15.8207 25.0013 16 25.0013C16.1793 25.0013 16.3553 24.9525 16.509 24.8602L22.509 21.3102C22.6586 21.222 22.7826 21.0962 22.8687 20.9454C22.9548 20.7946 23.0001 20.6239 23 20.4502V13.5502C23 13.3764 22.9548 13.2056 22.8687 13.0546C22.7826 12.9036 22.6586 12.7777 22.509 12.6892ZM21 19.8802L16 22.8382L11 19.8802V14.1202L16 11.1622L21 14.1202V19.8802Z" fill="url(#paint0_linear_2209_10158)"/>
<path d="M6 20.184V11.07L12.2 7.406L11.183 5.684L4.491 9.639C4.34139 9.72747 4.21742 9.8534 4.13132 10.0044C4.04522 10.1554 3.99996 10.3262 4 10.5V20.184C3.41677 20.3896 2.91144 20.7706 2.55336 21.2748C2.19528 21.779 2.00198 22.3816 2 23C2 24.654 3.346 26 5 26C6.654 26 8 24.654 8 23C7.99802 22.3816 7.80472 21.779 7.44664 21.2748C7.08856 20.7706 6.58323 20.3896 6 20.184ZM5 24C4.74252 23.9885 4.49941 23.8781 4.32128 23.6918C4.14315 23.5055 4.04373 23.2577 4.04373 23C4.04373 22.7423 4.14315 22.4945 4.32128 22.3082C4.49941 22.1219 4.74252 22.0115 5 22C5.25748 22.0115 5.50059 22.1219 5.67872 22.3082C5.85685 22.4945 5.95627 22.7423 5.95627 23C5.95627 23.2577 5.85685 23.5055 5.67872 23.6918C5.50059 23.8781 5.25748 23.9885 5 24ZM27 20C25.346 20 24 21.346 24 23C24 23.353 24.072 23.687 24.185 24.002L16 28.838L9.596 25.054L8.579 26.776L15.491 30.86C15.6449 30.9516 15.8207 31 15.9999 31.0002C16.179 31.0004 16.3549 30.9523 16.509 30.861L25.469 25.566C25.919 25.835 26.439 26 27 26C28.654 26 30 24.654 30 23C30 21.346 28.654 20 27 20ZM27 24C26.7425 23.9885 26.4994 23.8781 26.3213 23.6918C26.1431 23.5055 26.0437 23.2577 26.0437 23C26.0437 22.7423 26.1431 22.4945 26.3213 22.3082C26.4994 22.1219 26.7425 22.0115 27 22C27.2575 22.0115 27.5006 22.1219 27.6787 22.3082C27.8569 22.4945 27.9563 22.7423 27.9563 23C27.9563 23.2577 27.8569 23.5055 27.6787 23.6918C27.5006 23.8781 27.2575 23.9885 27 24ZM16 7C16.731 7 17.392 6.727 17.913 6.292L26 11.071V18H28V10.5C28 10.3262 27.9548 10.1554 27.8687 10.0044C27.7826 9.8534 27.6586 9.72747 27.509 9.639L18.942 4.577C18.978 4.39 19 4.198 19 4C19 2.346 17.654 1 16 1C14.346 1 13 2.346 13 4C13 5.654 14.346 7 16 7ZM16 3C16.1981 2.9998 16.3917 3.05837 16.5565 3.16828C16.7213 3.2782 16.8497 3.43452 16.9256 3.61747C17.0015 3.80042 17.0214 4.00177 16.9828 4.19604C16.9442 4.39031 16.8489 4.56876 16.7088 4.70881C16.5688 4.84887 16.3903 4.94422 16.196 4.98281C16.0018 5.02141 15.8004 5.0015 15.6175 4.92561C15.4345 4.84972 15.2782 4.72127 15.1683 4.5565C15.0584 4.39174 14.9998 4.19806 15 4C15 3.448 15.449 3 16 3Z" fill="url(#paint1_linear_2209_10158)"/>
<defs>
<linearGradient id="paint0_linear_2209_10158" x1="9" y1="17.0006" x2="21.8818" y2="20.7959" gradientUnits="userSpaceOnUse">
<stop stop-color="#D52274"/>
<stop offset="0.5625" stop-color="#F44D29"/>
<stop offset="1" stop-color="#FD7E14"/>
</linearGradient>
<linearGradient id="paint1_linear_2209_10158" x1="2" y1="16.0001" x2="27.4829" y2="24.009" gradientUnits="userSpaceOnUse">
<stop stop-color="#D52274"/>
<stop offset="0.5625" stop-color="#F44D29"/>
<stop offset="1" stop-color="#FD7E14"/>
</linearGradient>
</defs>
</svg>
