<svg width="80" height="80" viewBox="0 0 80 80" fill="none" xmlns="http://www.w3.org/2000/svg">
<path d="M63.3334 6.6665H30C27.3479 6.6665 24.8043 7.72007 22.929 9.59544C21.0536 11.4708 20 14.0143 20 16.6665V19.9998H16.6667C14.0145 19.9998 11.471 21.0534 9.59562 22.9288C7.72026 24.8041 6.66669 27.3477 6.66669 29.9998V63.3332C6.66669 65.9853 7.72026 68.5289 9.59562 70.4042C11.471 72.2796 14.0145 73.3332 16.6667 73.3332H50C52.6522 73.3332 55.1957 72.2796 57.0711 70.4042C58.9465 68.5289 60 65.9853 60 63.3332V59.9998H63.3334C65.9855 59.9998 68.5291 58.9463 70.4044 57.0709C72.2798 55.1955 73.3334 52.652 73.3334 49.9998V16.6665C73.3334 14.0143 72.2798 11.4708 70.4044 9.59544C68.5291 7.72007 65.9855 6.6665 63.3334 6.6665ZM53.3334 63.3332C53.3334 64.2172 52.9822 65.0651 52.357 65.6902C51.7319 66.3153 50.8841 66.6665 50 66.6665H16.6667C15.7826 66.6665 14.9348 66.3153 14.3097 65.6902C13.6845 65.0651 13.3334 64.2172 13.3334 63.3332V39.9998H53.3334V63.3332ZM53.3334 33.3332H13.3334V29.9998C13.3334 29.1158 13.6845 28.2679 14.3097 27.6428C14.9348 27.0177 15.7826 26.6665 16.6667 26.6665H50C50.8841 26.6665 51.7319 27.0177 52.357 27.6428C52.9822 28.2679 53.3334 29.1158 53.3334 29.9998V33.3332ZM66.6667 49.9998C66.6667 50.8839 66.3155 51.7317 65.6904 52.3569C65.0653 52.982 64.2174 53.3332 63.3334 53.3332H60V29.9998C59.991 28.8627 59.7881 27.7354 59.4 26.6665H66.6667V49.9998ZM66.6667 19.9998H26.6667V16.6665C26.6667 15.7824 27.0179 14.9346 27.643 14.3095C28.2681 13.6844 29.116 13.3332 30 13.3332H63.3334C64.2174 13.3332 65.0653 13.6844 65.6904 14.3095C66.3155 14.9346 66.6667 15.7824 66.6667 16.6665V19.9998Z" fill="url(#paint0_linear_2172_6364)"/>
<defs>
<linearGradient id="paint0_linear_2172_6364" x1="6.66669" y1="39.9998" x2="66.5439" y2="60.1626" gradientUnits="userSpaceOnUse">
<stop stop-color="#D52274"/>
<stop offset="0.5625" stop-color="#F44D29"/>
<stop offset="1" stop-color="#FD7E14"/>
</linearGradient>
</defs>
</svg>
