<svg width="80" height="80" viewBox="0 0 80 80" fill="none" xmlns="http://www.w3.org/2000/svg">
<path d="M66.6916 22.8919H47.1692L51.8005 4.35609C51.8923 3.98754 51.899 3.60292 51.8201 3.23139C51.7411 2.85986 51.5786 2.51119 51.3449 2.21183C51.1111 1.91247 50.8122 1.67027 50.4709 1.50362C50.1296 1.33697 49.7548 1.25024 49.375 1.25H16.9155C16.2906 1.24999 15.6883 1.48402 15.2274 1.90597C14.7664 2.32793 14.4802 2.90721 14.4252 3.52969L10.8183 44.2883C10.7878 44.6338 10.8296 44.9818 10.9409 45.3103C11.0522 45.6388 11.2306 45.9405 11.4648 46.1964C11.699 46.4522 11.9838 46.6565 12.3012 46.7964C12.6186 46.9362 12.9616 47.0085 13.3084 47.0086H32.903L29.9383 75.9956C29.6737 78.5831 33.0586 79.7844 34.4987 77.6469L68.7656 26.7887C69.0185 26.4124 69.1643 25.9745 69.1875 25.5217C69.2107 25.069 69.1105 24.6184 68.8975 24.2182C68.6845 23.818 68.3667 23.4832 67.9782 23.2496C67.5896 23.016 67.1449 22.8923 66.6916 22.8919ZM35.9277 66.5781L38.1586 44.7633C38.1941 44.4154 38.1562 44.0639 38.0475 43.7315C37.9387 43.3991 37.7614 43.0932 37.527 42.8336C37.2927 42.574 37.0065 42.3665 36.687 42.2244C36.3674 42.0823 36.0216 42.0088 35.6719 42.0086H16.0395L19.2039 6.25H46.1734L41.5422 24.7859C41.4504 25.1545 41.4437 25.5391 41.5226 25.9106C41.6016 26.2821 41.7641 26.6307 41.9979 26.9301C42.2316 27.2294 42.5305 27.4716 42.8718 27.6383C43.2131 27.8049 43.5878 27.8916 43.9677 27.8919H61.9927L35.9277 66.5781ZM27.1769 20.3861L26.63 26.3162C26.569 26.9765 26.2483 27.5855 25.7383 28.0092C25.2284 28.433 24.5709 28.6368 23.9107 28.5759C23.2505 28.5149 22.6415 28.1942 22.2177 27.6842C21.794 27.1742 21.5901 26.5168 21.6511 25.8566L22.198 19.9264C22.2265 19.5982 22.3196 19.2789 22.4719 18.9867C22.6242 18.6946 22.8328 18.4355 23.0856 18.2243C23.3384 18.013 23.6305 17.8539 23.945 17.7559C24.2596 17.6579 24.5904 17.623 24.9184 17.6533C25.2465 17.6836 25.5653 17.7784 25.8566 17.9324C26.1479 18.0863 26.4059 18.2963 26.6157 18.5502C26.8256 18.8042 26.9832 19.0971 27.0795 19.4122C27.1757 19.7272 27.2088 20.0582 27.1767 20.3861H27.1769Z" fill="url(#paint0_linear_2172_6358)"/>
<defs>
<linearGradient id="paint0_linear_2172_6358" x1="10.8086" y1="39.9992" x2="65.661" y2="53.9138" gradientUnits="userSpaceOnUse">
<stop stop-color="#D52274"/>
<stop offset="0.5625" stop-color="#F44D29"/>
<stop offset="1" stop-color="#FD7E14"/>
</linearGradient>
</defs>
</svg>
