<svg width="58" height="52" viewBox="0 0 58 52" fill="none" xmlns="http://www.w3.org/2000/svg">
<path d="M23.4331 42.3095H2.43066" stroke="url(#paint0_linear_2874_437)" stroke-width="4" stroke-linecap="round" stroke-linejoin="round"/>
<path d="M32.8018 10.0009H53.8041" stroke="url(#paint1_linear_2874_437)" stroke-width="4" stroke-linecap="round" stroke-linejoin="round"/>
<path fill-rule="evenodd" clip-rule="evenodd" d="M18.0873 9.82085C18.0873 5.50199 14.5601 2 10.2102 2C5.86021 2 2.33301 5.50199 2.33301 9.82085C2.33301 14.1397 5.86021 17.6417 10.2102 17.6417C14.5601 17.6417 18.0873 14.1397 18.0873 9.82085Z" stroke="url(#paint2_linear_2874_437)" stroke-width="4" stroke-linecap="round" stroke-linejoin="round"/>
<path fill-rule="evenodd" clip-rule="evenodd" d="M55.6664 42.1792C55.6664 37.8604 52.1419 34.3584 47.792 34.3584C43.4393 34.3584 39.9121 37.8604 39.9121 42.1792C39.9121 46.4981 43.4393 50.0001 47.792 50.0001C52.1419 50.0001 55.6664 46.4981 55.6664 42.1792Z" stroke="url(#paint3_linear_2874_437)" stroke-width="4" stroke-linecap="round" stroke-linejoin="round"/>
<defs>
<linearGradient id="paint0_linear_2874_437" x1="2.43066" y1="42.3095" x2="5.19913" y2="49.4144" gradientUnits="userSpaceOnUse">
<stop stop-color="#D52274"/>
<stop offset="0.5625" stop-color="#F44D29"/>
<stop offset="1" stop-color="#FD7E14"/>
</linearGradient>
<linearGradient id="paint1_linear_2874_437" x1="32.8018" y1="10.0009" x2="35.5702" y2="17.1058" gradientUnits="userSpaceOnUse">
<stop stop-color="#D52274"/>
<stop offset="0.5625" stop-color="#F44D29"/>
<stop offset="1" stop-color="#FD7E14"/>
</linearGradient>
<linearGradient id="paint2_linear_2874_437" x1="2.33301" y1="9.82084" x2="16.4621" y2="14.6128" gradientUnits="userSpaceOnUse">
<stop stop-color="#D52274"/>
<stop offset="0.5625" stop-color="#F44D29"/>
<stop offset="1" stop-color="#FD7E14"/>
</linearGradient>
<linearGradient id="paint3_linear_2874_437" x1="39.9121" y1="42.1792" x2="54.0412" y2="46.9712" gradientUnits="userSpaceOnUse">
<stop stop-color="#D52274"/>
<stop offset="0.5625" stop-color="#F44D29"/>
<stop offset="1" stop-color="#FD7E14"/>
</linearGradient>
</defs>
</svg>
