<svg width="80" height="80" viewBox="0 0 80 80" fill="none" xmlns="http://www.w3.org/2000/svg">
<g clip-path="url(#clip0_2172_6361)">
<path d="M78.275 43.2499C73.025 43.0624 69.1375 40.5749 66.8 38.5249C66.125 37.9374 65.1125 37.9249 64.4375 38.5249C63.4875 39.3624 62.2625 40.2624 60.8 41.0624V10.6249C60.8 9.6374 60 8.8374 59.0125 8.8374H1.8375C0.85 8.8374 0.05 9.6374 0.05 10.6249L0 59.7124C0 60.6999 0.8 61.4999 1.7875 61.4999L53.0625 61.5124C53.5 62.2874 54.0125 63.0124 54.5875 63.6874C57.1375 66.6374 60.6 69.1124 64.875 71.0249C65.1125 71.1249 65.3625 71.1874 65.6125 71.1874C65.8625 71.1874 66.1125 71.1374 66.35 71.0249C70.625 69.1124 74.075 66.6374 76.6375 63.6874C78.8125 61.1749 80.0125 57.9249 80.0125 54.5124V45.0249C80.0063 44.5625 79.8225 44.1202 79.499 43.7897C79.1755 43.4592 78.7372 43.2659 78.275 43.2499ZM50.2375 12.4124H57.2125V19.4874H50.2375V12.4124ZM57.2125 23.0749V28.6374H41.2125V23.0749H57.2125ZM57.2125 32.2124V38.1249H50.825V32.2124H57.2125ZM47.2375 32.2124V38.1249H32.1875V32.2124H47.2375ZM32.1875 12.3999H46.65V19.4749H32.1875V12.3999ZM37.6375 23.0624V28.6249H23.175V23.0624H37.6375ZM28.6 32.2124V38.1249H14.0125V32.2124H28.6ZM14.025 12.3999H28.6125V19.4749H14.025V12.3999ZM3.5875 12.3999H10.4375V19.4749H3.5875V12.3999ZM3.5875 23.0624H19.5875V28.6249H3.5875V23.0624ZM3.5875 32.1999H10.4375V38.1124H3.5875V32.1999ZM10.4375 57.9249H3.5875V51.3124H10.4375V57.9249ZM12.225 47.7249H3.575V41.6999H19.575V47.7249H12.225ZM28.6 57.9249H14.0125V51.3124H28.6V57.9249ZM30.3875 47.7249H23.15V41.6999H37.6125V47.7249H30.3875C30.4 47.7249 30.4 47.7249 30.3875 47.7249ZM43.975 57.9249H32.175V51.3124H43.975V57.9249ZM47.5625 57.9249V51.3124H51.225V54.5124C51.225 55.6749 51.375 56.8249 51.65 57.9374L47.5625 57.9249ZM52.95 43.2374C51.9875 43.2749 51.225 44.0624 51.225 45.0249V47.7249H41.2125V41.6999H57.2125V42.5249C55.9 42.9124 54.4875 43.1874 52.95 43.2374ZM76.4125 54.5124C76.4125 57.0624 75.525 59.4874 73.9125 61.3374C71.85 63.7249 69.05 65.7624 65.6 67.4124C62.15 65.7624 59.3625 63.7249 57.2875 61.3374C56.7 60.6499 56.2 59.8874 55.8125 59.0749C55.8 59.0249 55.775 58.9874 55.75 58.9374C55.125 57.5749 54.7875 56.0624 54.7875 54.4999V46.6749C59.4375 46.1249 63.0625 44.1124 65.6 42.1624C68.125 44.1124 71.7625 46.1249 76.4125 46.6749V54.5124Z" fill="url(#paint0_linear_2172_6361)"/>
<path d="M62.7125 53.0376C62.3666 52.7304 61.9156 52.5685 61.4533 52.5856C60.991 52.6027 60.5532 52.7975 60.2309 53.1294C59.9087 53.4613 59.7269 53.9047 59.7235 54.3673C59.7201 54.8299 59.8952 55.2759 60.2125 55.6126L63.3 58.6126C63.6375 58.9376 64.0875 59.1251 64.55 59.1251H64.575C65.05 59.1126 65.5 58.9251 65.8375 58.5751L71.3 52.9001C71.6066 52.5528 71.7671 52.1006 71.7482 51.6378C71.7292 51.175 71.5322 50.7374 71.1983 50.4164C70.8644 50.0954 70.4193 49.9157 69.9562 49.915C69.493 49.9143 69.0474 50.0926 68.7125 50.4126L64.5 54.7876L62.7125 53.0376Z" fill="url(#paint1_linear_2172_6361)"/>
</g>
<defs>
<linearGradient id="paint0_linear_2172_6361" x1="1.21062e-06" y1="40.0124" x2="67.4226" y2="69.1474" gradientUnits="userSpaceOnUse">
<stop stop-color="#D52274"/>
<stop offset="0.5625" stop-color="#F44D29"/>
<stop offset="1" stop-color="#FD7E14"/>
</linearGradient>
<linearGradient id="paint1_linear_2172_6361" x1="59.7234" y1="54.5201" x2="69.8013" y2="58.9513" gradientUnits="userSpaceOnUse">
<stop stop-color="#D52274"/>
<stop offset="0.5625" stop-color="#F44D29"/>
<stop offset="1" stop-color="#FD7E14"/>
</linearGradient>
<clipPath id="clip0_2172_6361">
<rect width="80" height="80" fill="white"/>
</clipPath>
</defs>
</svg>
