<svg width="80" height="80" viewBox="0 0 80 80" fill="none" xmlns="http://www.w3.org/2000/svg">
<path d="M47.6333 47.3001L36.6667 58.2668L32.3667 53.9668C32.0568 53.6544 31.6881 53.4064 31.2819 53.2372C30.8757 53.0679 30.44 52.9808 30 52.9808C29.56 52.9808 29.1243 53.0679 28.7181 53.2372C28.3119 53.4064 27.9432 53.6544 27.6333 53.9668C27.0125 54.5914 26.664 55.4362 26.664 56.3168C26.664 57.1974 27.0125 58.0423 27.6333 58.6668L34.3 65.3335C34.6099 65.6459 34.9785 65.8939 35.3847 66.0631C35.7909 66.2323 36.2266 66.3195 36.6667 66.3195C37.1067 66.3195 37.5424 66.2323 37.9486 66.0631C38.3548 65.8939 38.7235 65.6459 39.0333 65.3335L52.3667 52.0001C52.9875 51.3756 53.336 50.5308 53.336 49.6501C53.336 48.7695 52.9875 47.9247 52.3667 47.3001C52.0568 46.9877 51.6881 46.7397 51.2819 46.5705C50.8757 46.4013 50.44 46.3141 50 46.3141C49.56 46.3141 49.1243 46.4013 48.7181 46.5705C48.3119 46.7397 47.9432 46.9877 47.6333 47.3001V47.3001ZM61.4 27.7335C59.361 23.0528 55.8432 19.1701 51.3858 16.6807C46.9284 14.1912 41.7775 13.2324 36.7229 13.9512C31.6683 14.6701 26.989 17.0269 23.4024 20.6603C19.8158 24.2938 17.5199 29.0033 16.8667 34.0668C14.0866 34.7566 11.6026 36.3233 9.78246 38.5349C7.96229 40.7465 6.9027 43.4855 6.7606 46.3463C6.61849 49.2071 7.40142 52.0376 8.99346 54.4187C10.5855 56.7998 12.902 58.6049 15.6 59.5668C16.0258 59.7902 16.4948 59.9189 16.975 59.944C17.4552 59.969 17.9351 59.8899 18.3818 59.7121C18.8286 59.5342 19.2315 59.2618 19.5631 58.9135C19.8946 58.5653 20.1469 58.1494 20.3026 57.6945C20.4583 57.2396 20.5137 56.7564 20.4651 56.278C20.4164 55.7996 20.2649 55.3375 20.0208 54.9232C19.7768 54.5089 19.4459 54.1523 19.0511 53.8779C18.6563 53.6035 18.2067 53.4178 17.7333 53.3335C16.4341 52.8638 15.3129 52.0022 14.5246 50.8676C13.7364 49.733 13.3201 48.3816 13.3333 47.0001C13.3333 45.232 14.0357 43.5363 15.286 42.2861C16.5362 41.0359 18.2319 40.3335 20 40.3335C20.8841 40.3335 21.7319 39.9823 22.357 39.3572C22.9821 38.732 23.3333 37.8842 23.3333 37.0001C23.3496 33.0606 24.761 29.2541 27.3169 26.2562C29.8728 23.2582 33.4081 21.2626 37.2955 20.6234C41.1829 19.9841 45.1711 20.7426 48.5524 22.7642C51.9338 24.7858 54.4897 27.9399 55.7667 31.6668C55.9622 32.2334 56.3069 32.7368 56.7645 33.1239C57.222 33.5111 57.7755 33.7677 58.3667 33.8668C60.5869 34.2864 62.5996 35.4455 64.0768 37.1553C65.5539 38.865 66.4085 41.0247 66.5013 43.2823C66.5941 45.5399 65.9196 47.7624 64.5877 49.5876C63.2558 51.4128 61.345 52.7331 59.1667 53.3335C58.2826 53.444 57.4787 53.9011 56.9317 54.6044C56.3847 55.3077 56.1395 56.1994 56.25 57.0835C56.3605 57.9675 56.8177 58.7715 57.5209 59.3185C58.2242 59.8654 59.1159 60.1106 60 60.0001H60.8333C64.3413 59.0732 67.4509 57.0268 69.69 54.1717C71.9291 51.3166 73.1753 47.8088 73.2394 44.181C73.3036 40.5532 72.182 37.0036 70.0452 34.0712C67.9084 31.1388 64.873 28.9838 61.4 27.9335V27.7335Z" fill="url(#paint0_linear_2172_6366)"/>
<defs>
<linearGradient id="paint0_linear_2172_6366" x1="6.74417" y1="40.0191" x2="63.0401" y2="63.9843" gradientUnits="userSpaceOnUse">
<stop stop-color="#D52274"/>
<stop offset="0.5625" stop-color="#F44D29"/>
<stop offset="1" stop-color="#FD7E14"/>
</linearGradient>
</defs>
</svg>
