<svg width="80" height="80" viewBox="0 0 80 80" fill="none" xmlns="http://www.w3.org/2000/svg">
<path d="M50 56.6665C49.3407 56.6665 48.6963 56.862 48.1481 57.2283C47.5999 57.5945 47.1727 58.1151 46.9204 58.7242C46.6681 59.3333 46.6021 60.0035 46.7307 60.6501C46.8593 61.2967 47.1768 61.8907 47.643 62.3569C48.1091 62.823 48.7031 63.1405 49.3497 63.2691C49.9963 63.3977 50.6665 63.3317 51.2756 63.0794C51.8847 62.8271 52.4053 62.3999 52.7716 61.8517C53.1378 61.3036 53.3333 60.6591 53.3333 59.9998C53.3333 59.1158 52.9821 58.2679 52.357 57.6428C51.7319 57.0177 50.8841 56.6665 50 56.6665ZM30 56.6665H20C19.1159 56.6665 18.2681 57.0177 17.643 57.6428C17.0179 58.2679 16.6667 59.1158 16.6667 59.9998C16.6667 60.8839 17.0179 61.7317 17.643 62.3569C18.2681 62.982 19.1159 63.3332 20 63.3332H30C30.8841 63.3332 31.7319 62.982 32.357 62.3569C32.9821 61.7317 33.3333 60.8839 33.3333 59.9998C33.3333 59.1158 32.9821 58.2679 32.357 57.6428C31.7319 57.0177 30.8841 56.6665 30 56.6665ZM60 56.6665C59.3407 56.6665 58.6963 56.862 58.1481 57.2283C57.5999 57.5945 57.1727 58.1151 56.9204 58.7242C56.6681 59.3333 56.6021 60.0035 56.7307 60.6501C56.8593 61.2967 57.1768 61.8907 57.643 62.3569C58.1091 62.823 58.7031 63.1405 59.3497 63.2691C59.9963 63.3977 60.6665 63.3317 61.2756 63.0794C61.8847 62.8271 62.4053 62.3999 62.7716 61.8517C63.1378 61.3036 63.3333 60.6591 63.3333 59.9998C63.3333 59.1158 62.9821 58.2679 62.357 57.6428C61.7319 57.0177 60.8841 56.6665 60 56.6665ZM50 36.6665C49.3407 36.6665 48.6963 36.862 48.1481 37.2283C47.5999 37.5945 47.1727 38.1151 46.9204 38.7242C46.6681 39.3333 46.6021 40.0035 46.7307 40.6501C46.8593 41.2967 47.1768 41.8907 47.643 42.3569C48.1091 42.823 48.7031 43.1405 49.3497 43.2691C49.9963 43.3977 50.6665 43.3317 51.2756 43.0794C51.8847 42.8271 52.4053 42.3999 52.7716 41.8517C53.1378 41.3036 53.3333 40.6591 53.3333 39.9998C53.3333 39.1158 52.9821 38.2679 52.357 37.6428C51.7319 37.0177 50.8841 36.6665 50 36.6665ZM30 36.6665H20C19.1159 36.6665 18.2681 37.0177 17.643 37.6428C17.0179 38.2679 16.6667 39.1158 16.6667 39.9998C16.6667 40.8839 17.0179 41.7317 17.643 42.3569C18.2681 42.982 19.1159 43.3332 20 43.3332H30C30.8841 43.3332 31.7319 42.982 32.357 42.3569C32.9821 41.7317 33.3333 40.8839 33.3333 39.9998C33.3333 39.1158 32.9821 38.2679 32.357 37.6428C31.7319 37.0177 30.8841 36.6665 30 36.6665ZM60 16.6665C59.3407 16.6665 58.6963 16.862 58.1481 17.2283C57.5999 17.5945 57.1727 18.1151 56.9204 18.7242C56.6681 19.3333 56.6021 20.0035 56.7307 20.6501C56.8593 21.2967 57.1768 21.8907 57.643 22.3569C58.1091 22.823 58.7031 23.1405 59.3497 23.2691C59.9963 23.3977 60.6665 23.3317 61.2756 23.0794C61.8847 22.8271 62.4053 22.3999 62.7716 21.8517C63.1378 21.3036 63.3333 20.6591 63.3333 19.9998C63.3333 19.1158 62.9821 18.2679 62.357 17.6428C61.7319 17.0177 60.8841 16.6665 60 16.6665ZM60 36.6665C59.3407 36.6665 58.6963 36.862 58.1481 37.2283C57.5999 37.5945 57.1727 38.1151 56.9204 38.7242C56.6681 39.3333 56.6021 40.0035 56.7307 40.6501C56.8593 41.2967 57.1768 41.8907 57.643 42.3569C58.1091 42.823 58.7031 43.1405 59.3497 43.2691C59.9963 43.3977 60.6665 43.3317 61.2756 43.0794C61.8847 42.8271 62.4053 42.3999 62.7716 41.8517C63.1378 41.3036 63.3333 40.6591 63.3333 39.9998C63.3333 39.1158 62.9821 38.2679 62.357 37.6428C61.7319 37.0177 60.8841 36.6665 60 36.6665ZM73.3333 16.6665C73.3333 14.0143 72.2798 11.4708 70.4044 9.59544C68.529 7.72007 65.9855 6.6665 63.3333 6.6665H16.6667C14.0145 6.6665 11.471 7.72007 9.5956 9.59544C7.72023 11.4708 6.66666 14.0143 6.66666 16.6665V23.3332C6.68137 25.8 7.60737 28.1744 9.26666 29.9998C7.60737 31.8253 6.68137 34.1997 6.66666 36.6665V43.3332C6.68137 45.8 7.60737 48.1744 9.26666 49.9998C7.60737 51.8253 6.68137 54.1997 6.66666 56.6665V63.3332C6.66666 65.9853 7.72023 68.5289 9.5956 70.4042C11.471 72.2796 14.0145 73.3332 16.6667 73.3332H63.3333C65.9855 73.3332 68.529 72.2796 70.4044 70.4042C72.2798 68.5289 73.3333 65.9853 73.3333 63.3332V56.6665C73.3186 54.1997 72.3926 51.8253 70.7333 49.9998C72.3926 48.1744 73.3186 45.8 73.3333 43.3332V36.6665C73.3186 34.1997 72.3926 31.8253 70.7333 29.9998C72.3926 28.1744 73.3186 25.8 73.3333 23.3332V16.6665ZM66.6667 63.3332C66.6667 64.2172 66.3155 65.0651 65.6904 65.6902C65.0652 66.3153 64.2174 66.6665 63.3333 66.6665H16.6667C15.7826 66.6665 14.9348 66.3153 14.3096 65.6902C13.6845 65.0651 13.3333 64.2172 13.3333 63.3332V56.6665C13.3333 55.7824 13.6845 54.9346 14.3096 54.3095C14.9348 53.6844 15.7826 53.3332 16.6667 53.3332H63.3333C64.2174 53.3332 65.0652 53.6844 65.6904 54.3095C66.3155 54.9346 66.6667 55.7824 66.6667 56.6665V63.3332ZM66.6667 43.3332C66.6667 44.2172 66.3155 45.0651 65.6904 45.6902C65.0652 46.3153 64.2174 46.6665 63.3333 46.6665H16.6667C15.7826 46.6665 14.9348 46.3153 14.3096 45.6902C13.6845 45.0651 13.3333 44.2172 13.3333 43.3332V36.6665C13.3333 35.7824 13.6845 34.9346 14.3096 34.3095C14.9348 33.6844 15.7826 33.3332 16.6667 33.3332H63.3333C64.2174 33.3332 65.0652 33.6844 65.6904 34.3095C66.3155 34.9346 66.6667 35.7824 66.6667 36.6665V43.3332ZM66.6667 23.3332C66.6667 24.2172 66.3155 25.0651 65.6904 25.6902C65.0652 26.3153 64.2174 26.6665 63.3333 26.6665H16.6667C15.7826 26.6665 14.9348 26.3153 14.3096 25.6902C13.6845 25.0651 13.3333 24.2172 13.3333 23.3332V16.6665C13.3333 15.7824 13.6845 14.9346 14.3096 14.3095C14.9348 13.6844 15.7826 13.3332 16.6667 13.3332H63.3333C64.2174 13.3332 65.0652 13.6844 65.6904 14.3095C66.3155 14.9346 66.6667 15.7824 66.6667 16.6665V23.3332ZM50 16.6665C49.3407 16.6665 48.6963 16.862 48.1481 17.2283C47.5999 17.5945 47.1727 18.1151 46.9204 18.7242C46.6681 19.3333 46.6021 20.0035 46.7307 20.6501C46.8593 21.2967 47.1768 21.8907 47.643 22.3569C48.1091 22.823 48.7031 23.1405 49.3497 23.2691C49.9963 23.3977 50.6665 23.3317 51.2756 23.0794C51.8847 22.8271 52.4053 22.3999 52.7716 21.8517C53.1378 21.3036 53.3333 20.6591 53.3333 19.9998C53.3333 19.1158 52.9821 18.2679 52.357 17.6428C51.7319 17.0177 50.8841 16.6665 50 16.6665ZM30 16.6665H20C19.1159 16.6665 18.2681 17.0177 17.643 17.6428C17.0179 18.2679 16.6667 19.1158 16.6667 19.9998C16.6667 20.8839 17.0179 21.7317 17.643 22.3569C18.2681 22.982 19.1159 23.3332 20 23.3332H30C30.8841 23.3332 31.7319 22.982 32.357 22.3569C32.9821 21.7317 33.3333 20.8839 33.3333 19.9998C33.3333 19.1158 32.9821 18.2679 32.357 17.6428C31.7319 17.0177 30.8841 16.6665 30 16.6665Z" fill="url(#paint0_linear_2172_6352)"/>
<defs>
<linearGradient id="paint0_linear_2172_6352" x1="6.66667" y1="39.9998" x2="66.5438" y2="60.1626" gradientUnits="userSpaceOnUse">
<stop stop-color="#D52274"/>
<stop offset="0.5625" stop-color="#F44D29"/>
<stop offset="1" stop-color="#FD7E14"/>
</linearGradient>
</defs>
</svg>
