<svg width="56" height="68" viewBox="0 0 56 68" fill="none" xmlns="http://www.w3.org/2000/svg">
<path d="M22.1061 67.1277H13.0436C11.2267 67.1282 9.46626 66.4964 8.06426 65.3408C6.66227 64.1851 5.70613 62.5776 5.35987 60.7939L1.99987 48.6627C-0.987627 40.1877 0.312373 35.6764 1.93237 33.3839C2.56086 32.47 3.40503 31.7252 4.39012 31.2154C5.3752 30.7056 6.4708 30.4467 7.57987 30.4614H15.0049C14.6236 27.3992 14.7282 24.296 15.3149 21.2664C17.1199 14.0452 21.0736 13.7289 22.6849 13.9289C25.2061 14.2389 27.5011 16.4352 27.5011 18.5352C27.3819 20.4215 27.6483 22.3122 28.284 24.0921C28.9197 25.872 29.9114 27.5037 31.1986 28.8877C34.9611 32.6489 41.7486 33.6552 41.8161 33.6652C42.0599 33.7 42.2944 33.7825 42.5063 33.9079C42.7182 34.0333 42.9033 34.1993 43.0511 34.3963C43.1988 34.5932 43.3064 34.8174 43.3675 35.0559C43.4286 35.2944 43.4422 35.5427 43.4074 35.7864C43.3726 36.0302 43.2901 36.2647 43.1647 36.4766C43.0392 36.6885 42.8733 36.8736 42.6763 37.0214C42.4793 37.1692 42.2552 37.2767 42.0166 37.3378C41.7781 37.3989 41.5299 37.4125 41.2861 37.3777C40.9574 37.3314 33.1824 36.1752 28.5474 31.5402C26.9189 29.8243 25.6545 27.7966 24.8303 25.5793C24.006 23.3619 23.6389 21.0007 23.7511 18.6377C23.5576 18.3415 23.2956 18.0963 22.9873 17.9227C22.679 17.749 22.3335 17.6522 21.9799 17.6402C20.7824 17.6889 19.6511 19.3852 18.9524 22.1764C17.9961 26.0014 18.9736 31.9702 18.9836 32.0289C19.0285 32.2976 19.0143 32.5729 18.9419 32.8355C18.8696 33.0981 18.7409 33.3418 18.5649 33.5497C18.3888 33.7575 18.1695 33.9245 17.9223 34.039C17.6752 34.1535 17.406 34.2128 17.1336 34.2127H7.57987C7.07134 34.1987 6.56757 34.314 6.1157 34.5477C5.66383 34.7814 5.27863 35.1259 4.99612 35.5489C4.26237 36.5864 2.84862 39.8264 5.55737 47.4739C5.57237 47.5152 5.58487 47.5577 5.59737 47.5989L8.99362 59.8677C9.00862 59.9227 9.02112 59.9764 9.03112 60.0314C9.20238 60.9706 9.69784 61.8199 10.4311 62.4312C11.1644 63.0425 12.089 63.377 13.0436 63.3764H22.1061C29.0061 63.3764 38.2124 61.8414 40.2049 59.7852C40.552 59.4326 41.0244 59.2315 41.5191 59.2258C42.0138 59.22 42.4908 59.41 42.8461 59.7543C43.2013 60.0987 43.406 60.5695 43.4157 61.0642C43.4253 61.5589 43.239 62.0373 42.8974 62.3952C39.1524 66.2577 26.3099 67.1264 22.1049 67.1264L22.1061 67.1277Z" fill="url(#paint0_linear_23_168)"/>
<path d="M53.9089 66.8838H41.5527C41.0554 66.8838 40.5785 66.6863 40.2269 66.3346C39.8752 65.983 39.6777 65.5061 39.6777 65.0088V33.0913C39.6777 32.594 39.8752 32.1171 40.2269 31.7655C40.5785 31.4139 41.0554 31.2163 41.5527 31.2163H53.9089C54.4062 31.2163 54.8831 31.4139 55.2348 31.7655C55.5864 32.1171 55.7839 32.594 55.7839 33.0913V65.0088C55.7839 65.5061 55.5864 65.983 55.2348 66.3346C54.8831 66.6863 54.4062 66.8838 53.9089 66.8838V66.8838ZM43.4277 63.1338H52.0339V34.9663H43.4277V63.1338ZM21.8227 9.92506C21.3254 9.92506 20.8485 9.72751 20.4969 9.37588C20.1452 9.02425 19.9477 8.54734 19.9477 8.05006V2.74756C19.9477 2.25028 20.1452 1.77336 20.4969 1.42173C20.8485 1.0701 21.3254 0.872559 21.8227 0.872559C22.32 0.872559 22.7969 1.0701 23.1485 1.42173C23.5002 1.77336 23.6977 2.25028 23.6977 2.74756V8.05006C23.6977 8.54734 23.5002 9.02425 23.1485 9.37588C22.7969 9.72751 22.32 9.92506 21.8227 9.92506V9.92506ZM31.4852 15.4076C31.0753 15.4079 30.6765 15.2739 30.35 15.026C30.0235 14.7782 29.7872 14.4301 29.6773 14.0352C29.5674 13.6403 29.59 13.2203 29.7415 12.8394C29.8931 12.4585 30.1653 12.1378 30.5164 11.9263L35.0589 9.19256C35.27 9.06132 35.505 8.97335 35.7503 8.93375C35.9957 8.89415 36.2465 8.90372 36.4881 8.9619C36.7297 9.02008 36.9573 9.12571 37.1577 9.27264C37.3581 9.41958 37.5274 9.6049 37.6555 9.81782C37.7837 10.0307 37.8682 10.267 37.9043 10.5129C37.9403 10.7588 37.9271 11.0094 37.8654 11.2501C37.8038 11.4909 37.6949 11.7169 37.545 11.9152C37.3952 12.1135 37.2075 12.28 36.9927 12.4051L32.4502 15.1376C32.159 15.3133 31.8253 15.4062 31.4852 15.4063V15.4076ZM12.1602 15.4076C11.8201 15.4075 11.4864 15.3146 11.1952 15.1388L6.65145 12.4051C6.23316 12.1449 5.93403 11.7307 5.81871 11.2518C5.7034 10.7729 5.78116 10.2679 6.03519 9.84585C6.28922 9.42383 6.69911 9.11873 7.17628 8.99648C7.65344 8.87424 8.15954 8.94467 8.5852 9.19256L13.1289 11.9263C13.4801 12.1378 13.7523 12.4585 13.9039 12.8394C14.0554 13.2203 14.078 13.6403 13.9681 14.0352C13.8582 14.4301 13.6219 14.7782 13.2954 15.026C12.9689 15.2739 12.5701 15.4079 12.1602 15.4076V15.4076Z" fill="url(#paint1_linear_23_168)"/>
<defs>
<linearGradient id="paint0_linear_23_168" x1="0.208497" y1="40.5089" x2="40.4213" y2="51.5014" gradientUnits="userSpaceOnUse">
<stop stop-color="#D52274"/>
<stop offset="0.5625" stop-color="#F44D29"/>
<stop offset="1" stop-color="#FD7E14"/>
</linearGradient>
<linearGradient id="paint1_linear_23_168" x1="5.7666" y1="33.8782" x2="52.7268" y2="45.8599" gradientUnits="userSpaceOnUse">
<stop stop-color="#D52274"/>
<stop offset="0.5625" stop-color="#F44D29"/>
<stop offset="1" stop-color="#FD7E14"/>
</linearGradient>
</defs>
</svg>
