<svg width="64" height="64" viewBox="0 0 64 64" fill="none" xmlns="http://www.w3.org/2000/svg">
<path d="M32 0C14.352 0 0 14.352 0 32C0 49.652 14.352 64 32 64C49.648 64 64 49.652 64 32C64 14.352 49.648 0 32 0ZM30 4.4082V15H10.296C15.016 8.98 21.896 5.0082 30 4.4082ZM34 4.4082C42.1 5.0082 48.988 8.98 53.704 15H34V4.4082ZM7.608 19H30V30H4.408C4.68635 26.1486 5.77693 22.3997 7.608 19V19ZM34 19H56.392C58.184 22.352 59.296 26.004 59.592 30H34V19ZM4.4 34H30V45H7.6C5.7696 41.6 4.67907 37.8513 4.4 34V34ZM34 34H59.6C59.3209 37.8513 58.2304 41.6 56.4 45H34V34ZM10.296 49H30V59.5962C21.9 58.9962 15.012 55.024 10.296 49ZM34 49H53.704C48.984 55.024 42.104 58.9922 34 59.5962V49Z" fill="url(#paint0_linear_0_1)"/>
<path fill-rule="evenodd" clip-rule="evenodd" d="M19.4078 3C11.6344 22.0479 10.3429 40.23 18.8222 60L22.5123 58.4317C14.4341 39.5953 15.6134 22.8895 23.122 4.50401L19.4078 3V3ZM43.5942 3L39.88 4.50401C47.3806 22.8895 48.5679 39.5913 40.4897 58.4317L44.1798 60C52.6551 40.23 51.3676 22.0479 43.5902 3H43.5942Z" fill="url(#paint1_linear_0_1)"/>
<defs>
<linearGradient id="paint0_linear_0_1" x1="9.68346e-07" y1="32" x2="57.4821" y2="51.3562" gradientUnits="userSpaceOnUse">
<stop stop-color="#D52274"/>
<stop offset="0.5625" stop-color="#F44D29"/>
<stop offset="1" stop-color="#FD7E14"/>
</linearGradient>
<linearGradient id="paint1_linear_0_1" x1="13" y1="31.5" x2="48.3128" y2="39.2188" gradientUnits="userSpaceOnUse">
<stop stop-color="#D52274"/>
<stop offset="0.5625" stop-color="#F44D29"/>
<stop offset="1" stop-color="#FD7E14"/>
</linearGradient>
</defs>
</svg>
