<svg width="66" height="80" viewBox="0 0 66 80" fill="none" xmlns="http://www.w3.org/2000/svg">
<path d="M32.9999 79.403C33.1193 79.403 33.2387 79.403 33.3581 79.2836C52.8208 72.7164 65.8357 54.5671 65.8357 34.0298V13.1343C65.8357 12.4179 65.3581 11.9403 64.6417 11.9403C45.8954 11.9403 34.5521 1.31341 33.7163 0.835795C33.2387 0.477586 32.7611 0.477586 32.2835 0.835795C31.4476 1.31341 19.985 11.9403 1.35809 11.9403C0.641674 11.9403 0.164062 12.4179 0.164062 13.1343V34.0298C0.164062 54.5671 13.179 72.7164 32.6417 79.403C32.7611 79.403 32.8805 79.403 32.9999 79.403ZM2.55212 34.0298V14.3283C20.9402 13.8507 32.4029 3.58206 32.9999 3.22386C33.7163 3.58206 44.9402 13.8507 63.4476 14.3283V34.0298C63.4476 53.3731 51.2685 70.5671 32.9999 77.0149C14.7312 70.5671 2.55212 53.3731 2.55212 34.0298Z" fill="url(#paint0_linear_0_1)"/>
<path d="M33.5439 77.987C52.0674 70.6715 64.0938 53.0039 64.0938 32.9898V15.4603C64.0938 14.7701 63.5408 14.218 62.8496 14.08C52.3438 12.9758 42.2527 9.24902 33.6822 3.17579C33.2675 2.89974 32.5763 2.89974 32.1616 3.17579C23.5911 9.111 13.4999 12.8378 2.99411 14.08C2.30294 14.218 1.75 14.7701 1.75 15.4603V32.9898C1.75 53.0039 13.7764 70.6715 32.4381 77.987C32.5763 77.987 32.7145 78.125 32.991 78.125C33.2675 78.125 33.2675 78.125 33.5439 77.987ZM4.65292 32.9898V16.5645C14.744 15.3223 24.5587 11.5955 32.991 5.93635C41.4233 11.5955 51.2379 15.3223 61.3291 16.5645V32.8518C61.3291 51.6236 50.2703 68.187 32.991 75.2264C15.7117 68.187 4.65292 51.6236 4.65292 32.9898Z" fill="url(#paint1_linear_0_1)"/>
<path d="M17.0779 39.836L25.1014 47.8594L26.242 49C27.4373 50.1954 29.4686 50.1954 30.6639 49L36.8592 42.8047L46.6639 33L48.9217 30.7422C50.0779 29.586 50.1639 27.461 48.9217 26.3204C47.6717 25.1719 45.7342 25.086 44.4998 26.3204L38.3045 32.5157L28.4998 42.3204L26.242 44.5782H30.6639L22.6404 36.5547L21.4998 35.4141C20.3436 34.2579 18.2186 34.1719 17.0779 35.4141C15.9295 36.6641 15.8436 38.5938 17.0779 39.836Z" fill="url(#paint2_linear_0_1)"/>
<defs>
<linearGradient id="paint0_linear_0_1" x1="0.164063" y1="39.985" x2="61.0453" y2="57.0626" gradientUnits="userSpaceOnUse">
<stop stop-color="#D52274"/>
<stop offset="0.5625" stop-color="#F44D29"/>
<stop offset="1" stop-color="#FD7E14"/>
</linearGradient>
<linearGradient id="paint1_linear_0_1" x1="1.75" y1="40.5469" x2="59.5815" y2="56.7009" gradientUnits="userSpaceOnUse">
<stop stop-color="#D52274"/>
<stop offset="0.5625" stop-color="#F44D29"/>
<stop offset="1" stop-color="#FD7E14"/>
</linearGradient>
<linearGradient id="paint2_linear_0_1" x1="16.1841" y1="37.6615" x2="43.8859" y2="50.4843" gradientUnits="userSpaceOnUse">
<stop stop-color="#D52274"/>
<stop offset="0.5625" stop-color="#F44D29"/>
<stop offset="1" stop-color="#FD7E14"/>
</linearGradient>
</defs>
</svg>
