<svg width="80" height="80" viewBox="0 0 80 80" fill="none" xmlns="http://www.w3.org/2000/svg">
<g clip-path="url(#clip0_2842_14580)">
<path d="M38.7055 72.6346C38.776 71.8636 38.8034 70.9884 38.7376 70.0629C38.5344 67.206 37.4337 63.8323 33.9429 61.6089C36.8351 60.3474 41.3187 57.9355 46.1697 53.6292L46.9408 57.8541L38.7055 72.6346ZM7.44435 41.3732L22.2251 33.1379L26.45 33.9091C22.1434 38.7601 19.7316 43.2436 18.4702 46.1359C16.2468 42.6451 12.8731 41.5444 10.0161 41.3411C9.09056 41.2753 8.2154 41.3028 7.44435 41.3732Z" fill="url(#paint0_linear_2842_14580)" stroke="url(#paint1_linear_2842_14580)"/>
<path d="M37.6768 42.3477C37.6851 42.36 37.6917 42.372 37.6973 42.3815C37.7066 42.3868 37.7186 42.3935 37.7312 42.4021" stroke="url(#paint2_linear_2842_14580)" stroke-width="10" stroke-miterlimit="10" stroke-linecap="round" stroke-linejoin="round"/>
<path d="M1.56222 57.7446C1.37468 57.557 1.26932 57.3027 1.26932 57.0375C1.26932 56.7723 1.37468 56.5179 1.56222 56.3304L2.55655 55.336C2.64941 55.2432 2.75965 55.1695 2.88097 55.1193C3.0023 55.069 3.13233 55.0431 3.26365 55.0431C3.39498 55.0431 3.52501 55.069 3.64634 55.1193C3.76766 55.1695 3.8779 55.2432 3.97076 55.336C4.06362 55.4289 4.13728 55.5391 4.18753 55.6605C4.23779 55.7818 4.26366 55.9118 4.26365 56.0431C4.26366 56.1745 4.23779 56.3045 4.18754 56.4258C4.13728 56.5471 4.06362 56.6574 3.97076 56.7502L2.97643 57.7446C2.78889 57.9321 2.53454 58.0375 2.26932 58.0375C2.00411 58.0375 1.74975 57.9321 1.56222 57.7446ZM12.5002 68.6825C12.3126 68.495 12.2073 68.2406 12.2073 67.9754C12.2073 67.7102 12.3126 67.4559 12.5002 67.2683L13.4945 66.274C13.8851 65.8834 14.5181 65.8834 14.9087 66.274C15.2993 66.6646 15.2993 67.2976 14.9087 67.6882L13.9144 68.6825C13.7268 68.8701 13.4725 68.9754 13.2073 68.9754C12.9421 68.9754 12.6877 68.8701 12.5002 68.6825ZM23.4383 65.6994C23.2507 65.5119 23.1454 65.2575 23.1454 64.9923C23.1454 64.7271 23.2507 64.4727 23.4383 64.2852L25.4271 62.2964C25.8177 61.9058 26.4507 61.9058 26.8413 62.2964C27.2319 62.687 27.2319 63.32 26.8413 63.7106L24.8525 65.6994C24.6649 65.8869 24.4106 65.9923 24.1454 65.9923C23.8801 65.9923 23.6258 65.8869 23.4383 65.6994Z" fill="url(#paint3_linear_2842_14580)"/>
<path d="M13.9147 45.3931C13.7271 45.2056 13.4728 45.1002 13.2076 45.1002C12.9423 45.1002 12.688 45.2056 12.5005 45.3931L4.5455 53.3481C4.45264 53.4409 4.37898 53.5511 4.32873 53.6725C4.27847 53.7938 4.25261 53.9238 4.25261 54.0552C4.25261 54.1865 4.27848 54.3165 4.32873 54.4378C4.37898 54.5592 4.45265 54.6694 4.5455 54.7623C4.63836 54.8551 4.7486 54.9288 4.86992 54.979C4.99125 55.0293 5.12129 55.0552 5.25261 55.0552C5.38393 55.0552 5.51397 55.0293 5.63529 54.979C5.75662 54.9288 5.86686 54.8551 5.95972 54.7623L13.9147 46.8073C14.1022 46.6198 14.2076 46.3654 14.2076 46.1002C14.2076 45.835 14.1022 45.5806 13.9147 45.3931ZM11.9257 53.3481C11.7382 53.1605 11.4838 53.0552 11.2186 53.0552C10.9534 53.0552 10.699 53.1605 10.5115 53.3481L5.5397 58.3199C5.35216 58.5074 5.2468 58.7618 5.2468 59.027C5.2468 59.2922 5.35216 59.5465 5.5397 59.7341C5.72723 59.9216 5.98158 60.027 6.2468 60.027C6.51201 60.027 6.76637 59.9216 6.95391 59.7341L11.9257 54.7623C12.1133 54.5747 12.2186 54.3204 12.2186 54.0552C12.2186 53.7899 12.1133 53.5356 11.9257 53.3481ZM21.8695 59.3142C21.6819 59.1267 21.4276 59.0213 21.1624 59.0213C20.8972 59.0213 20.6428 59.1267 20.4553 59.3142L15.4835 64.286C15.0928 64.6766 15.0929 65.3096 15.4835 65.7002C15.8741 66.0908 16.5071 66.0908 16.8977 65.7002L21.8695 60.7284C22.057 60.5409 22.1624 60.2865 22.1624 60.0213C22.1624 59.7561 22.057 59.5017 21.8695 59.3142ZM30.8189 68.2636C30.6314 68.0761 30.377 67.9707 30.1118 67.9707C29.8466 67.9707 29.5922 68.0761 29.4047 68.2636L22.4441 75.2242C22.0535 75.6148 22.0535 76.2478 22.4441 76.6384C22.8347 77.0291 23.4677 77.0291 23.8583 76.6384L30.8189 69.6778C31.0064 69.4903 31.1118 69.2359 31.1118 68.9707C31.1118 68.7055 31.0064 68.4512 30.8189 68.2636ZM34.7962 68.2636C34.6087 68.0761 34.3544 67.9707 34.0891 67.9707C33.8239 67.9707 33.5696 68.0761 33.382 68.2636L30.3989 71.2468C30.0083 71.6374 30.0083 72.2704 30.3989 72.661C30.7895 73.0516 31.4225 73.0516 31.8131 72.661L34.7962 69.6778C34.9838 69.4903 35.0891 69.2359 35.0891 68.9707C35.0891 68.7055 34.9838 68.4512 34.7962 68.2636ZM63.1747 29.7848C63.242 29.6222 63.3078 29.4575 63.3744 29.2938C63.4326 29.1501 63.4916 29.0075 63.5495 28.8633C63.6229 28.6791 63.695 28.4932 63.7675 28.3081C63.822 28.1691 63.877 28.0309 63.931 27.8912C64.0095 27.688 64.0862 27.4826 64.1631 27.2779C64.2098 27.1543 64.2569 27.0317 64.3031 26.9076C64.405 26.6325 64.5054 26.3569 64.6045 26.0807C64.6245 26.0247 64.6452 25.9696 64.6653 25.9136C64.7854 25.5775 64.9035 25.2407 65.0195 24.9031L65.0642 24.7708C65.1655 24.4754 65.2652 24.1795 65.3635 23.8832C65.3901 23.8031 65.4157 23.7218 65.442 23.6415C65.5285 23.3789 65.6137 23.1158 65.6977 22.8524C65.7272 22.7592 65.7558 22.6653 65.7851 22.5718C65.8651 22.3185 65.944 22.0649 66.0218 21.8109C66.0523 21.7108 66.0819 21.6097 66.1123 21.5092C66.1875 21.2594 66.2628 21.0099 66.3365 20.7586C66.3669 20.6544 66.3964 20.5496 66.4265 20.4451C66.4984 20.1965 66.5704 19.9477 66.6405 19.6974C66.6713 19.5879 66.701 19.4776 66.7313 19.3676C66.7995 19.121 66.8678 18.8742 66.9345 18.6261C66.9654 18.5119 66.9949 18.3966 67.0253 18.2819C67.0904 18.0373 67.1546 17.7925 67.2179 17.5474C67.2492 17.4256 67.2796 17.303 67.3104 17.1808C67.3714 16.9406 67.4316 16.7003 67.491 16.4597C67.5231 16.3289 67.5542 16.1971 67.5859 16.0656C67.6421 15.8332 67.6982 15.6009 67.7528 15.3672C67.7867 15.2224 67.8195 15.0767 67.8529 14.9314C67.9035 14.7105 67.9543 14.49 68.0038 14.268C68.0397 14.107 68.0745 13.9447 68.1099 13.7832C68.1451 13.6218 68.1812 13.461 68.2157 13.2992C68.3205 13.1352 68.3751 12.9442 68.3729 12.7495C68.3707 12.5549 68.3118 12.3652 68.2033 12.2036C68.0948 12.0419 67.9416 11.9155 67.7623 11.8397C67.583 11.7639 67.3855 11.7421 67.194 11.777C67.1515 11.7847 67.1127 11.7927 67.0721 11.8024L67.0762 11.8014L67.0844 11.7994L67.0839 11.7994L67.0843 11.7993L67.0284 11.8099C61.0107 13.0785 55.3534 14.8037 50.2136 16.9371C40.6603 20.9001 32.7165 26.3014 26.6026 32.9912C21.2991 38.7952 18.694 44.1895 17.6135 46.8878C17.2962 47.6792 17.0876 48.2888 16.9688 48.6591C16.834 49.0776 16.7752 49.3123 16.7688 49.3376C16.7304 49.4929 16.7298 49.6551 16.767 49.8106C16.8043 49.9661 16.8783 50.1104 16.9829 50.2314C17.0871 50.353 17.2191 50.4475 17.3677 50.507C17.5163 50.5665 17.677 50.5892 17.8363 50.5731C19.202 50.4406 20.9847 51.1267 22.9146 52.5127C21.5019 54.9424 21.1126 56.6524 21.6967 57.8454C21.7223 57.901 21.7521 57.9551 21.7863 58.0072C21.8612 58.1205 21.9581 58.2174 22.0714 58.2923C22.1238 58.3268 22.1782 58.3569 22.2342 58.3824C23.4277 58.9663 25.1373 58.5767 27.5661 57.1642C28.952 59.094 29.638 60.8766 29.5057 62.2425C29.4902 62.402 29.5134 62.563 29.5732 62.7117C29.633 62.8605 29.7277 62.9927 29.8493 63.0972C29.9708 63.2017 30.1158 63.2755 30.2718 63.3122C30.4279 63.349 30.5905 63.3477 30.7459 63.3085C30.7837 63.299 31.6857 63.0685 33.1908 62.4651C35.8896 61.3845 41.2837 58.7792 47.0879 53.4759C53.7616 47.3767 59.1527 39.4558 63.1129 29.9338C63.1373 29.8858 63.158 29.836 63.1747 29.7848ZM52.4801 18.1812C52.9414 18.0006 53.4042 17.8241 53.8686 17.6517L54.1114 17.5622C54.589 17.3865 55.068 17.2149 55.5486 17.0475L55.7306 16.9851C56.243 16.8078 56.757 16.6353 57.2725 16.4673C57.7925 16.2988 58.314 16.1349 58.8369 15.9755C58.9005 15.956 58.9639 15.9362 59.0277 15.9168C59.5306 15.7647 60.0347 15.6167 60.54 15.4727L60.799 15.399C61.3024 15.257 61.807 15.1191 62.3127 14.9852C62.4004 14.9621 62.4882 14.9393 62.5761 14.9162C63.0944 14.7802 63.6138 14.6484 64.1342 14.5208C64.2006 14.5046 64.2675 14.4889 64.3339 14.4727C64.887 14.338 65.4411 14.208 65.9963 14.0826C65.8711 14.637 65.7411 15.1903 65.6066 15.7426L65.5574 15.947C65.4302 16.4652 65.2989 16.9823 65.1636 17.4984C65.1397 17.5897 65.1161 17.6809 65.0919 17.7718C64.9587 18.2749 64.8215 18.7768 64.6801 19.2777C64.655 19.367 64.6294 19.456 64.6042 19.5451C64.4609 20.0482 64.3135 20.5502 64.1621 21.0509C64.1423 21.1166 64.1218 21.1815 64.1019 21.247C63.9419 21.7717 63.7772 22.2949 63.608 22.8167C63.441 23.3293 63.2694 23.8405 63.0932 24.35C63.0725 24.4101 63.0521 24.4707 63.0312 24.5306C62.8359 25.0919 62.6349 25.6512 62.428 26.2083C62.2419 26.7093 62.0511 27.2084 61.8557 27.7058L52.3732 18.2234L52.4801 18.1812ZM23.4337 56.6395C23.4275 56.1434 23.6655 55.039 25.0814 52.7933L25.0833 52.7909C26.5699 50.4325 28.7611 47.7602 30.6645 45.6045C32.0826 43.9985 33.3416 42.6785 34.0285 41.9916C34.4178 41.6023 34.7193 41.4892 34.917 41.4612C34.9539 41.4559 34.9911 41.4531 35.0283 41.4528C35.0451 41.4527 35.0621 41.4535 35.0791 41.4541C35.0992 41.4554 35.1192 41.4573 35.1392 41.4599C35.4097 41.4911 35.6808 41.6412 35.9292 41.8406C35.9704 41.8738 36.0107 41.908 36.0501 41.9434C36.0999 41.9881 36.1501 42.0349 36.2017 42.0865C36.2096 42.0944 36.2167 42.1024 36.2245 42.1104C36.2649 42.1517 36.3045 42.1936 36.3428 42.2356L36.3915 42.2907C36.4233 42.3274 36.4544 42.3639 36.4845 42.4005C36.4971 42.4162 36.5108 42.4322 36.523 42.4471C36.5606 42.4944 36.5963 42.5408 36.6301 42.5864L36.6623 42.6306C36.6958 42.6768 36.7282 42.7228 36.7569 42.7659L36.7586 42.7685C36.8135 42.8861 36.8901 42.9923 36.9843 43.0816C37.046 43.1444 37.1157 43.1994 37.1923 43.2443L37.2025 43.2506L37.2046 43.2521C37.2402 43.2743 37.2754 43.297 37.3101 43.3203C37.3251 43.3302 37.3408 43.3414 37.3561 43.3518C37.5352 43.4748 37.7056 43.61 37.8661 43.7566L37.8678 43.758C37.9082 43.795 37.9489 43.8341 37.9894 43.8745L37.9962 43.8813C38.0479 43.9331 38.0953 43.9838 38.1401 44.0338C38.1474 44.0418 38.1549 44.0496 38.1619 44.0578C38.1933 44.0934 38.2208 44.1279 38.2489 44.1626C38.4432 44.4075 38.5886 44.674 38.6194 44.9401C38.6213 44.9561 38.6237 44.9763 38.6251 45.0001C38.6258 45.0172 38.6266 45.0339 38.6265 45.0507C38.6263 45.0878 38.6236 45.1249 38.6183 45.1616C38.5906 45.3593 38.4774 45.6611 38.0877 46.0508C37.1827 46.9558 35.1805 48.8525 32.8702 50.8002C31.1736 52.2304 29.3109 53.6872 27.5931 54.8006C27.4911 54.8666 27.3894 54.9324 27.2886 54.9959C25.0418 56.4131 23.926 56.6427 23.4337 56.6395ZM45.7383 51.9999C40.1677 57.0902 35.0198 59.5785 32.4464 60.609C32.1179 60.741 31.7869 60.8666 31.4535 60.9856C31.1964 59.2235 30.2495 57.4907 29.2603 56.0945C29.3077 56.0624 29.3553 56.0288 29.403 55.9965C29.4764 55.946 29.5495 55.8963 29.623 55.8451C29.6734 55.8103 29.7236 55.7746 29.7738 55.7393C29.8578 55.6805 29.9414 55.6221 30.0257 55.5621L30.094 55.5128C30.4549 55.2548 30.8176 54.9877 31.1808 54.7133L31.1992 54.6998C31.3074 54.6179 31.4156 54.5351 31.5235 54.4521C31.5488 54.4328 31.5742 54.4135 31.5995 54.3939C31.7005 54.3161 31.8012 54.2377 31.9018 54.1592L31.9998 54.083C32.0955 54.0079 32.1911 53.9327 32.2866 53.857L32.3999 53.7672C32.4923 53.6937 32.5845 53.6201 32.6765 53.546L32.7963 53.4497C32.8871 53.3768 32.9774 53.3034 33.0675 53.23C33.1081 53.197 33.1485 53.1642 33.1886 53.1313C33.2778 53.0584 33.3666 52.9854 33.4551 52.9125L33.5792 52.8099C33.666 52.7381 33.7521 52.6664 33.8384 52.5946L33.9645 52.4888C34.0497 52.4175 34.1345 52.3465 34.2188 52.2752L34.3434 52.1696C34.4271 52.0986 34.5108 52.0276 34.5937 51.9569L34.7182 51.8503C34.7991 51.781 34.8801 51.7115 34.9603 51.6424L35.0905 51.5297C35.1683 51.4623 35.246 51.3952 35.3225 51.3283L35.4558 51.2119L35.6749 51.02C35.7894 50.9193 35.9027 50.8193 36.0143 50.7202C36.0502 50.6885 36.085 50.6571 36.1207 50.6254C36.2004 50.5544 36.2803 50.4836 36.3585 50.4133C36.394 50.3817 36.4284 50.3505 36.4635 50.3191C36.5411 50.2491 36.619 50.1794 36.695 50.1105L36.7887 50.0255C36.8661 49.9552 36.9433 49.8853 37.0187 49.8165C37.1245 49.7202 37.23 49.6235 37.3352 49.5266L37.4048 49.4626C37.4841 49.3895 37.5624 49.3174 37.639 49.2463L37.6952 49.1939C37.7753 49.1198 37.8536 49.0469 37.9303 48.9753L37.972 48.9361C38.0546 48.8592 38.1349 48.7834 38.2135 48.7096L38.2332 48.691C38.3183 48.6107 38.4009 48.5324 38.4811 48.4561L38.4822 48.455C38.8969 48.0604 39.2438 47.7226 39.5016 47.4648C39.5054 47.461 39.5087 47.4569 39.5125 47.453C39.6833 47.2804 39.841 47.0953 39.9844 46.8994C39.9993 46.8786 40.0133 46.8581 40.0277 46.8374C40.0756 46.7683 40.1211 46.6975 40.1642 46.6252C40.227 46.5218 40.2841 46.4152 40.3354 46.3057C40.3574 46.2594 40.3763 46.2128 40.3957 46.1662C40.4456 46.0449 40.488 45.9205 40.5225 45.7939C40.5259 45.7814 40.5295 45.7691 40.5326 45.7567C40.6095 45.461 40.6384 45.1549 40.6181 44.85L40.616 44.8236C40.5988 44.6046 40.5574 44.3881 40.4927 44.1781C40.4883 44.1636 40.4839 44.1487 40.4793 44.1342C40.4555 44.0601 40.4289 43.9865 40.3992 43.913C40.3909 43.8922 40.3821 43.8721 40.3735 43.8516C40.3435 43.7799 40.3112 43.7093 40.2765 43.6398C40.277 43.6392 40.2769 43.639 40.2767 43.6389C40.2062 43.5009 40.1278 43.367 40.0417 43.2381C40.0225 43.209 40.0037 43.1797 39.984 43.1513C39.9173 43.0556 39.8469 42.9626 39.7729 42.8725C39.6741 42.7508 39.5699 42.6335 39.4606 42.521C39.4419 42.5017 39.4258 42.4819 39.4067 42.4628C39.2159 42.2721 39.0233 42.1066 38.8487 41.9687L38.8084 41.9375C38.7751 41.9116 38.7425 41.8866 38.7109 41.8629L38.6559 41.8221C38.6292 41.8024 38.6036 41.7842 38.5786 41.7662C38.5621 41.7546 38.5462 41.7429 38.5305 41.732C38.4919 41.705 38.4548 41.6795 38.4214 41.6572C38.3991 41.6238 38.3738 41.5869 38.3468 41.5483L38.312 41.4993C38.2942 41.4742 38.2761 41.4493 38.2578 41.4245C38.2438 41.4052 38.2295 41.3861 38.2145 41.366C38.1799 41.3197 38.1446 41.2739 38.1088 41.2285C38.0226 41.1196 37.9331 41.0134 37.8403 40.91L37.8386 40.9081C37.7665 40.8274 37.6921 40.7486 37.6158 40.6719C37.5977 40.6538 37.5788 40.6384 37.5607 40.6208C37.5045 40.5662 37.4462 40.5122 37.3859 40.4585C37.3292 40.4077 37.2721 40.3596 37.2147 40.3127C37.1711 40.2769 37.1269 40.2419 37.0822 40.2076C37.0318 40.1694 36.9813 40.1325 36.9307 40.0971C36.8988 40.0748 36.8657 40.0536 36.8327 40.032C36.7123 39.952 36.5877 39.8788 36.4592 39.8126C36.4519 39.8089 36.4451 39.8044 36.4376 39.8009C36.3691 39.7664 36.3004 39.7361 36.2314 39.7067C36.2089 39.6972 36.1867 39.6875 36.1639 39.6783C36.0925 39.6495 36.02 39.6233 35.9467 39.5996C35.9307 39.5944 35.9146 39.5899 35.8983 39.5849C35.6893 39.5205 35.4738 39.4795 35.2557 39.4624L35.2287 39.4603C34.9115 39.4393 34.593 39.4714 34.2864 39.5555C34.1939 39.5807 34.102 39.6104 34.0105 39.6447C33.9783 39.6566 33.9459 39.6692 33.9132 39.6826C33.8664 39.702 33.8194 39.7213 33.7728 39.743C33.6634 39.7947 33.5567 39.8519 33.4532 39.9144C33.3813 39.9575 33.3108 40.0028 33.2417 40.0503C33.2207 40.0649 33.1996 40.0792 33.1787 40.0945C33.0726 40.1725 32.9695 40.2545 32.8697 40.3404C32.7857 40.4128 32.7043 40.488 32.6254 40.566C32.6216 40.5698 32.6175 40.573 32.6137 40.5768C32.1936 40.9995 31.7794 41.428 31.3713 41.8622C31.2958 41.9423 31.2188 42.0243 31.1399 42.1086L31.1054 42.1454L30.8787 42.3887L30.8357 42.4351C30.742 42.5363 30.6484 42.6376 30.555 42.739L30.3285 42.9862L30.2669 43.0537C30.168 43.1621 30.0694 43.2709 29.9711 43.3798C29.8956 43.4633 29.8193 43.5483 29.7424 43.6337L29.668 43.7165C29.585 43.8092 29.5007 43.9036 29.4163 43.9988L29.3609 44.0608C29.2606 44.1738 29.1595 44.2882 29.0576 44.4041C29.0028 44.4664 28.9473 44.53 28.892 44.5932L28.7471 44.7588C28.6854 44.8295 28.6233 44.9015 28.5613 44.9732C28.4533 45.0978 28.3457 45.2227 28.2385 45.348L28.118 45.4886L27.9126 45.7302C27.7683 45.8998 27.625 46.0701 27.4825 46.2412C27.4109 46.3269 27.3395 46.413 27.2677 46.4996L27.1664 46.622C27.0926 46.7117 27.0186 46.8015 26.945 46.8919C26.9136 46.9301 26.8826 46.9684 26.8513 47.0067C26.7754 47.1002 26.6996 47.1935 26.6236 47.2876L26.5396 47.392C26.4616 47.4892 26.3836 47.5867 26.3059 47.6846L26.2318 47.7782C26.1513 47.8798 26.0711 47.9815 25.9912 48.0835L25.9319 48.1597C25.8472 48.2682 25.7629 48.3765 25.6792 48.4854C25.67 48.4974 25.661 48.5096 25.6515 48.5216C25.1841 49.1282 24.7305 49.7454 24.291 50.3725L24.2403 50.4448C24.1753 50.5383 24.1119 50.6312 24.0485 50.724L23.9834 50.8184C22.5872 49.8292 20.8541 48.8821 19.0917 48.6253C19.2112 48.2919 19.337 47.9607 19.4691 47.6321C20.4994 45.0592 22.9878 39.9115 28.078 34.3407C33.8617 28.0123 41.3578 22.8686 50.3645 19.0439L61.034 29.7134C57.2103 38.72 52.0668 46.2162 45.7383 51.9999Z" fill="url(#paint4_linear_2842_14580)"/>
<path d="M50.9372 39.2485C48.1754 42.0104 43.6973 42.0113 40.9346 39.2487L40.9093 39.2234L40.9102 39.2225L40.8923 39.2047C40.8887 39.2027 40.8858 39.1982 40.883 39.1954L40.8559 39.1682L40.855 39.1691L40.8297 39.1437C38.067 36.3811 38.0679 31.9028 40.8297 29.141C43.5915 26.3792 48.0698 26.3783 50.8324 29.141L50.8577 29.1663L50.8569 29.1672L50.9112 29.2215L50.912 29.2206L50.9374 29.2459C53.6999 32.0085 53.699 36.4867 50.9372 39.2485Z" fill="url(#paint5_linear_2842_14580)"/>
</g>
<defs>
<linearGradient id="paint0_linear_2842_14580" x1="12.4626" y1="34.4993" x2="19.007" y2="72.2257" gradientUnits="userSpaceOnUse">
<stop stop-color="#D52274"/>
<stop offset="0.5625" stop-color="#F44D29"/>
<stop offset="1" stop-color="#FD7E14"/>
</linearGradient>
<linearGradient id="paint1_linear_2842_14580" x1="12.4626" y1="34.4993" x2="19.007" y2="72.2257" gradientUnits="userSpaceOnUse">
<stop stop-color="#D52274"/>
<stop offset="0.5625" stop-color="#F44D29"/>
<stop offset="1" stop-color="#FD7E14"/>
</linearGradient>
<linearGradient id="paint2_linear_2842_14580" x1="37.6734" y1="42.351" x2="37.6623" y2="42.3747" gradientUnits="userSpaceOnUse">
<stop stop-color="#D52274"/>
<stop offset="0.5625" stop-color="#F44D29"/>
<stop offset="1" stop-color="#FD7E14"/>
</linearGradient>
<linearGradient id="paint3_linear_2842_14580" x1="6.03693" y1="51.8556" x2="12.0185" y2="71.359" gradientUnits="userSpaceOnUse">
<stop stop-color="#D52274"/>
<stop offset="0.5625" stop-color="#F44D29"/>
<stop offset="1" stop-color="#FD7E14"/>
</linearGradient>
<linearGradient id="paint4_linear_2842_14580" x1="29.4048" y1="28.4888" x2="48.9841" y2="54.5653" gradientUnits="userSpaceOnUse">
<stop stop-color="#D52274"/>
<stop offset="0.5625" stop-color="#F44D29"/>
<stop offset="1" stop-color="#FD7E14"/>
</linearGradient>
<linearGradient id="paint5_linear_2842_14580" x1="40.8297" y1="29.141" x2="46.8061" y2="41.2821" gradientUnits="userSpaceOnUse">
<stop stop-color="#D52274"/>
<stop offset="0.5625" stop-color="#F44D29"/>
<stop offset="1" stop-color="#FD7E14"/>
</linearGradient>
<clipPath id="clip0_2842_14580">
<rect width="80" height="80" fill="white"/>
</clipPath>
</defs>
</svg>
