<svg width="80" height="80" viewBox="0 0 80 80" fill="none" xmlns="http://www.w3.org/2000/svg">
<path d="M40 3.3335C22.3408 3.3335 3.33334 7.506 3.33334 16.6668V63.3335C3.33334 72.4943 22.3408 76.6668 40 76.6668C57.6592 76.6668 76.6667 72.4943 76.6667 63.3335V16.6668C76.6667 7.506 57.6592 3.3335 40 3.3335ZM40 10.0002C59.3242 10.0002 69.3167 14.7802 69.9883 16.6668C69.3167 18.5535 59.3242 23.3335 40 23.3335C20.6758 23.3335 10.6833 18.5535 10.0108 16.6668C10.6833 14.7802 20.6758 10.0002 40 10.0002ZM10 24.7693C17.0942 28.3243 28.8142 30.0002 40 30.0002C51.1867 30.0002 62.9067 28.3227 70.0008 24.7677L70.0025 39.9585C69.4742 41.811 59.4783 46.6677 40 46.6677C20.5 46.6677 10.5033 41.8002 10 40.001V24.7693ZM40 70.0002C20.5 70.0002 10.5033 65.1327 10 63.3335V48.1027C17.0942 51.6577 28.8142 53.3335 40 53.3335C51.1883 53.3335 62.91 51.656 70.0033 48.0993L70.005 63.2852C69.4967 65.1327 59.5 70.0002 40 70.0002Z" fill="url(#paint0_linear_2172_6354)"/>
<defs>
<linearGradient id="paint0_linear_2172_6354" x1="3.33334" y1="40.0002" x2="69.1982" y2="62.1792" gradientUnits="userSpaceOnUse">
<stop stop-color="#D52274"/>
<stop offset="0.5625" stop-color="#F44D29"/>
<stop offset="1" stop-color="#FD7E14"/>
</linearGradient>
</defs>
</svg>
