<svg width="80" height="80" viewBox="0 0 80 80" fill="none" xmlns="http://www.w3.org/2000/svg">
<path d="M30.524 69.2383V59.0159C30.524 56.4158 32.6437 54.3031 35.27 54.2856H44.8903C47.5291 54.2856 49.6683 56.4034 49.6683 59.0159V59.0159V69.2701C49.6677 71.4777 51.4475 73.2819 53.6768 73.3337H60.0903C66.4837 73.3337 71.6666 68.2026 71.6666 61.8731V61.8731V32.7931C71.6325 30.3031 70.4516 27.9648 68.4599 26.4438L46.5257 8.95133C42.6831 5.90555 37.2207 5.90555 33.378 8.95133L11.5401 26.4755C9.54084 27.9904 8.35794 30.3325 8.33331 32.8249V61.8731C8.33331 68.2026 13.5162 73.3337 19.9097 73.3337H26.3232C28.6078 73.3337 30.4599 71.5001 30.4599 69.2383V69.2383" stroke="currentColor" stroke-width="6" stroke-linecap="round" stroke-linejoin="round"/>
</svg>
