<svg width="32" height="32" viewBox="0 0 32 32" fill="none" xmlns="http://www.w3.org/2000/svg">
<path d="M12 3.19922C10.9391 3.19922 9.92173 3.62065 9.17159 4.37079C8.42144 5.12094 8.00001 6.13835 8.00001 7.19922V24.7992C8.00001 25.8601 8.42144 26.8775 9.17159 27.6276C9.92173 28.3778 10.9391 28.7992 12 28.7992H20C21.0609 28.7992 22.0783 28.3778 22.8284 27.6276C23.5786 26.8775 24 25.8601 24 24.7992V7.19922C24 6.13835 23.5786 5.12094 22.8284 4.37079C22.0783 3.62065 21.0609 3.19922 20 3.19922H12ZM12 7.99922H20C20.2122 7.99922 20.4157 8.0835 20.5657 8.23353C20.7157 8.38356 20.8 8.58705 20.8 8.79922C20.8 9.01139 20.7157 9.21488 20.5657 9.3649C20.4157 9.51493 20.2122 9.59922 20 9.59922H12C11.7878 9.59922 11.5844 9.51493 11.4343 9.3649C11.2843 9.21488 11.2 9.01139 11.2 8.79922C11.2 8.58705 11.2843 8.38356 11.4343 8.23353C11.5844 8.0835 11.7878 7.99922 12 7.99922ZM11.2 19.9992C11.2 19.787 11.2843 19.5836 11.4343 19.4335C11.5844 19.2835 11.7878 19.1992 12 19.1992H20C20.2122 19.1992 20.4157 19.2835 20.5657 19.4335C20.7157 19.5836 20.8 19.787 20.8 19.9992C20.8 20.2114 20.7157 20.4149 20.5657 20.5649C20.4157 20.7149 20.2122 20.7992 20 20.7992H12C11.7878 20.7992 11.5844 20.7149 11.4343 20.5649C11.2843 20.4149 11.2 20.2114 11.2 19.9992ZM11.2 23.1992C11.2 22.987 11.2843 22.7836 11.4343 22.6335C11.5844 22.4835 11.7878 22.3992 12 22.3992H20C20.2122 22.3992 20.4157 22.4835 20.5657 22.6335C20.7157 22.7836 20.8 22.987 20.8 23.1992C20.8 23.4114 20.7157 23.6149 20.5657 23.7649C20.4157 23.9149 20.2122 23.9992 20 23.9992H12C11.7878 23.9992 11.5844 23.9149 11.4343 23.7649C11.2843 23.6149 11.2 23.4114 11.2 23.1992ZM3.20001 11.1992C3.20001 10.3505 3.53715 9.53659 4.13727 8.93648C4.73739 8.33636 5.55132 7.99922 6.40001 7.99922V24.7992C6.40001 25.0712 6.41921 25.3384 6.45601 25.5992H6.40001C5.55132 25.5992 4.73739 25.2621 4.13727 24.662C3.53715 24.0618 3.20001 23.2479 3.20001 22.3992V11.1992ZM25.6 24.7992C25.6 25.0712 25.5808 25.3384 25.544 25.5992H25.6C26.4487 25.5992 27.2626 25.2621 27.8628 24.662C28.4629 24.0618 28.8 23.2479 28.8 22.3992V11.1992C28.8 10.3505 28.4629 9.53659 27.8628 8.93648C27.2626 8.33636 26.4487 7.99922 25.6 7.99922V24.7992Z" fill="url(#paint0_linear_2244_12287)"/>
<defs>
<linearGradient id="paint0_linear_2244_12287" x1="3.20001" y1="15.9992" x2="26.1928" y2="23.7417" gradientUnits="userSpaceOnUse">
<stop stop-color="#D52274"/>
<stop offset="0.5625" stop-color="#F44D29"/>
<stop offset="1" stop-color="#FD7E14"/>
</linearGradient>
</defs>
</svg>
