<svg width="24" height="24" viewBox="0 0 24 24" fill="none" xmlns="http://www.w3.org/2000/svg">
<path d="M20.25 15.2969V17.5469C19.5 17.5469 18.75 16.4219 18.75 14.5469V12.2969C15.75 16.0469 15 17.5469 15 19.0469C14.9999 19.783 15.2165 20.5029 15.6227 21.1168C16.029 21.7307 16.6069 22.2114 17.2845 22.4991C17.5137 21.4802 18.021 20.5447 18.75 19.7969C19.479 20.5447 19.9863 21.4802 20.2155 22.4991C20.8931 22.2114 21.471 21.7307 21.8773 21.1168C22.2835 20.5029 22.5001 19.783 22.5 19.0469C22.5 17.5469 21.6562 16.3686 20.25 15.2969ZM12.75 20.9991H3V17.9991H12.75V16.4991H3C2.6023 16.4995 2.221 16.6577 1.93978 16.9389C1.65856 17.2201 1.5004 17.6014 1.5 17.9991V20.9991C1.5004 21.3968 1.65856 21.7781 1.93978 22.0593C2.221 22.3406 2.6023 22.4987 3 22.4991H12.75V20.9991Z" fill="currentColor"/>
<path d="M21 9H5.25C4.8523 9.0004 4.471 9.15856 4.18978 9.43978C3.90856 9.721 3.7504 10.1023 3.75 10.5V13.5C3.7504 13.8977 3.90856 14.279 4.18978 14.5602C4.471 14.8414 4.8523 14.9996 5.25 15H12.75V13.5H5.25V10.5H21L21.0007 12H22.5V10.5C22.4996 10.1023 22.3414 9.721 22.0602 9.43978C21.779 9.15856 21.3977 9.0004 21 9V9ZM18.75 7.5H3C2.6023 7.4996 2.221 7.34144 1.93978 7.06022C1.65856 6.779 1.5004 6.3977 1.5 6V3C1.5004 2.6023 1.65856 2.221 1.93978 1.93978C2.221 1.65856 2.6023 1.5004 3 1.5H18.75C19.1477 1.5004 19.529 1.65856 19.8102 1.93978C20.0914 2.221 20.2496 2.6023 20.25 3V6C20.2496 6.3977 20.0914 6.779 19.8102 7.06022C19.529 7.34144 19.1477 7.4996 18.75 7.5V7.5ZM3 3V6H18.75V3H3Z" fill="currentColor"/>
</svg>
