<svg width="24" height="24" viewBox="0 0 24 24" fill="none" xmlns="http://www.w3.org/2000/svg">
<path d="M20.25 15.3113L19.1895 14.25L17.25 16.1902L15.3105 14.25L14.25 15.3113L16.1895 17.25L14.25 19.1895L15.3105 20.25L17.25 18.3105L19.1895 20.25L20.25 19.1895L18.3105 17.25L20.25 15.3113ZM18 3C17.2047 3.00099 16.4422 3.31738 15.8798 3.87978C15.3174 4.44217 15.001 5.20466 15 6C15.0028 6.53384 15.1497 7.05702 15.4253 7.51425L7.51425 15.4252C7.05701 15.1497 6.53384 15.0028 6 15C5.40666 15 4.82664 15.1759 4.33329 15.5056C3.83994 15.8352 3.45543 16.3038 3.22836 16.852C3.0013 17.4001 2.94189 18.0033 3.05765 18.5853C3.1734 19.1672 3.45912 19.7018 3.87868 20.1213C4.29824 20.5409 4.83279 20.8266 5.41473 20.9424C5.99667 21.0581 6.59987 20.9987 7.14805 20.7716C7.69623 20.5446 8.16477 20.1601 8.49441 19.6667C8.82405 19.1734 9 18.5933 9 18C8.99724 17.4662 8.85031 16.943 8.57475 16.4858L16.4858 8.57475C16.943 8.85028 17.4662 8.9972 18 9C18.7957 9 19.5587 8.68393 20.1213 8.12132C20.6839 7.55871 21 6.79565 21 6C21 5.20435 20.6839 4.44129 20.1213 3.87868C19.5587 3.31607 18.7957 3 18 3ZM6 19.5C5.70333 19.5 5.41332 19.412 5.16665 19.2472C4.91997 19.0824 4.72771 18.8481 4.61418 18.574C4.50065 18.2999 4.47095 17.9983 4.52882 17.7074C4.5867 17.4164 4.72956 17.1491 4.93934 16.9393C5.14912 16.7296 5.41639 16.5867 5.70737 16.5288C5.99834 16.4709 6.29994 16.5006 6.57403 16.6142C6.84812 16.7277 7.08238 16.92 7.24721 17.1666C7.41203 17.4133 7.5 17.7033 7.5 18C7.4996 18.3977 7.34144 18.779 7.06022 19.0602C6.779 19.3414 6.3977 19.4996 6 19.5V19.5ZM18 7.5C17.7033 7.5 17.4133 7.41203 17.1666 7.2472C16.92 7.08238 16.7277 6.84811 16.6142 6.57402C16.5007 6.29994 16.4709 5.99834 16.5288 5.70736C16.5867 5.41639 16.7296 5.14912 16.9393 4.93934C17.1491 4.72956 17.4164 4.5867 17.7074 4.52882C17.9983 4.47094 18.2999 4.50065 18.574 4.61418C18.8481 4.72771 19.0824 4.91997 19.2472 5.16664C19.412 5.41332 19.5 5.70333 19.5 6C19.4996 6.3977 19.3414 6.779 19.0602 7.06022C18.779 7.34144 18.3977 7.4996 18 7.5V7.5ZM6 8.385L4.0575 6.4425L3 7.5L6 10.5L11.25 5.25L10.1925 4.1925L6 8.385Z" fill="currentColor"/>
</svg>
