<svg width="32" height="32" viewBox="0 0 32 32" fill="none" xmlns="http://www.w3.org/2000/svg">
<path d="M8.00001 10.3998C8.00001 10.1876 8.0843 9.98415 8.23433 9.83412C8.38436 9.68409 8.58784 9.5998 8.80001 9.5998H20C20.2122 9.5998 20.4157 9.68409 20.5657 9.83412C20.7157 9.98415 20.8 10.1876 20.8 10.3998C20.8 10.612 20.7157 10.8155 20.5657 10.9655C20.4157 11.1155 20.2122 11.1998 20 11.1998H8.80001C8.58784 11.1998 8.38436 11.1155 8.23433 10.9655C8.0843 10.8155 8.00001 10.612 8.00001 10.3998ZM16.8 14.3998C16.5878 14.3998 16.3844 14.4841 16.2343 14.6341C16.0843 14.7841 16 14.9876 16 15.1998C16 15.412 16.0843 15.6155 16.2343 15.7655C16.3844 15.9155 16.5878 15.9998 16.8 15.9998H20C20.2122 15.9998 20.4157 15.9155 20.5657 15.7655C20.7157 15.6155 20.8 15.412 20.8 15.1998C20.8 14.9876 20.7157 14.7841 20.5657 14.6341C20.4157 14.4841 20.2122 14.3998 20 14.3998H16.8ZM16 19.9998C16 19.7876 16.0843 19.5841 16.2343 19.4341C16.3844 19.2841 16.5878 19.1998 16.8 19.1998H20C20.2122 19.1998 20.4157 19.2841 20.5657 19.4341C20.7157 19.5841 20.8 19.7876 20.8 19.9998C20.8 20.212 20.7157 20.4155 20.5657 20.5655C20.4157 20.7155 20.2122 20.7998 20 20.7998H16.8C16.5878 20.7998 16.3844 20.7155 16.2343 20.5655C16.0843 20.4155 16 20.212 16 19.9998ZM8.80001 14.3998C8.58784 14.3998 8.38436 14.4841 8.23433 14.6341C8.0843 14.7841 8.00001 14.9876 8.00001 15.1998V19.9998C8.00001 20.212 8.0843 20.4155 8.23433 20.5655C8.38436 20.7155 8.58784 20.7998 8.80001 20.7998H13.6C13.8122 20.7998 14.0157 20.7155 14.1657 20.5655C14.3157 20.4155 14.4 20.212 14.4 19.9998V15.1998C14.4 14.9876 14.3157 14.7841 14.1657 14.6341C14.0157 14.4841 13.8122 14.3998 13.6 14.3998H8.80001ZM9.60001 19.1998V15.9998H12.8V19.1998H9.60001ZM3.20001 7.9998C3.20001 7.15111 3.53715 6.33718 4.13727 5.73706C4.73739 5.13695 5.55132 4.7998 6.40001 4.7998H22.4C23.2487 4.7998 24.0626 5.13695 24.6628 5.73706C25.2629 6.33718 25.6 7.15111 25.6 7.9998V9.5998C26.4487 9.5998 27.2626 9.93695 27.8628 10.5371C28.4629 11.1372 28.8 11.9511 28.8 12.7998V21.5998C28.8 22.6607 28.3786 23.6781 27.6284 24.4282C26.8783 25.1784 25.8609 25.5998 24.8 25.5998H7.20001C6.13915 25.5998 5.12173 25.1784 4.37159 24.4282C3.62144 23.6781 3.20001 22.6607 3.20001 21.5998V7.9998ZM24 7.9998C24 7.57546 23.8314 7.16849 23.5314 6.86843C23.2313 6.56838 22.8244 6.3998 22.4 6.3998H6.40001C5.97567 6.3998 5.5687 6.56838 5.26864 6.86843C4.96858 7.16849 4.80001 7.57546 4.80001 7.9998V21.5998C4.80001 22.2363 5.05287 22.8468 5.50296 23.2969C5.95304 23.7469 6.56349 23.9998 7.20001 23.9998H24.8C25.4365 23.9998 26.047 23.7469 26.4971 23.2969C26.9472 22.8468 27.2 22.2363 27.2 21.5998V12.7998C27.2 12.3755 27.0314 11.9685 26.7314 11.6684C26.4313 11.3684 26.0244 11.1998 25.6 11.1998V21.5998C25.6 21.812 25.5157 22.0155 25.3657 22.1655C25.2157 22.3155 25.0122 22.3998 24.8 22.3998C24.5878 22.3998 24.3844 22.3155 24.2343 22.1655C24.0843 22.0155 24 21.812 24 21.5998V7.9998Z" fill="url(#paint0_linear_2209_10225)"/>
<defs>
<linearGradient id="paint0_linear_2209_10225" x1="3.20001" y1="15.1998" x2="25.0474" y2="24.2543" gradientUnits="userSpaceOnUse">
<stop stop-color="#D52274"/>
<stop offset="0.5625" stop-color="#F44D29"/>
<stop offset="1" stop-color="#FD7E14"/>
</linearGradient>
</defs>
</svg>
