<svg width="32" height="32" viewBox="0 0 32 32" fill="none" xmlns="http://www.w3.org/2000/svg">
<path d="M24 20V24M24 28V24M24 24H20M24 24H28" stroke="#F44D29" stroke-width="2" stroke-linecap="round" stroke-linejoin="round"/>
<path fill-rule="evenodd" clip-rule="evenodd" d="M6.66675 6.66675C5.60588 6.66675 4.58847 7.08818 3.83832 7.83832C3.08818 8.58847 2.66675 9.60588 2.66675 10.6667V21.3334C2.66675 22.3943 3.08818 23.4117 3.83832 24.1618C4.58847 24.912 5.60588 25.3334 6.66675 25.3334H16.1107C16.0369 24.8928 15.9999 24.4468 16.0001 24.0001C16.0001 22.4694 16.4294 21.0401 17.1747 19.8254C16.5764 20.0089 15.9434 20.0495 15.3265 19.944C14.7096 19.8384 14.1261 19.5896 13.6228 19.2176C13.1196 18.8455 12.7106 18.3606 12.4287 17.8018C12.1469 17.243 12.0001 16.6259 12.0001 16.0001C12.0009 15.4251 12.1256 14.857 12.3659 14.3346C12.6061 13.8121 12.9561 13.3476 13.3921 12.9727C13.8281 12.5978 14.3398 12.3213 14.8923 12.1621C15.4449 12.0029 16.0252 11.9646 16.5939 12.05C17.1625 12.1353 17.7061 12.3423 18.1875 12.6567C18.6689 12.9712 19.0769 13.3857 19.3836 13.8721C19.6903 14.3585 19.8885 14.9053 19.9648 15.4752C20.041 16.0452 19.9935 16.6248 19.8254 17.1747C21.0815 16.4045 22.5266 15.9978 24.0001 16.0001C26.0494 16.0001 27.9187 16.7707 29.3334 18.0374V10.6667C29.3334 9.60588 28.912 8.58847 28.1618 7.83832C27.4117 7.08818 26.3943 6.66675 25.3334 6.66675H6.66675ZM16.0001 14.6667C15.6465 14.6667 15.3073 14.8072 15.0573 15.0573C14.8072 15.3073 14.6667 15.6465 14.6667 16.0001C14.6667 16.3537 14.8072 16.6928 15.0573 16.9429C15.3073 17.1929 15.6465 17.3334 16.0001 17.3334C16.3537 17.3334 16.6928 17.1929 16.9429 16.9429C17.1929 16.6928 17.3334 16.3537 17.3334 16.0001C17.3334 15.6465 17.1929 15.3073 16.9429 15.0573C16.6928 14.8072 16.3537 14.6667 16.0001 14.6667Z" fill="#F44D29"/>
</svg>
