<svg width="54" height="54" fill="none" xmlns="http://www.w3.org/2000/svg"><path d="M32.153 31.927 24.75 39.33l-2.902-2.903a2.254 2.254 0 0 0-2.463-.492 2.252 2.252 0 0 0-.732 3.665l4.5 4.5a2.25 2.25 0 0 0 3.195 0l9-9a2.25 2.25 0 0 0-2.463-3.665 2.252 2.252 0 0 0-.732.492Zm9.292-13.207a15.75 15.75 0 0 0-30.06 4.275 9 9 0 0 0-.855 17.212 2.248 2.248 0 0 0 3.174-1.263A2.25 2.25 0 0 0 11.97 36 4.5 4.5 0 0 1 9 31.725a4.5 4.5 0 0 1 4.5-4.5 2.25 2.25 0 0 0 2.25-2.25 11.25 11.25 0 0 1 21.893-3.6 2.248 2.248 0 0 0 1.755 1.485 6.75 6.75 0 0 1 .54 13.14 2.268 2.268 0 1 0 .562 4.5h.563a11.25 11.25 0 0 0 .382-21.645v-.135Z" fill="url(#a)"/><defs><linearGradient id="a" x1="4.552" y1="27.013" x2="42.552" y2="43.189" gradientUnits="userSpaceOnUse"><stop stop-color="#D52274"/><stop offset=".563" stop-color="#F44D29"/><stop offset="1" stop-color="#FD7E14"/></linearGradient></defs></svg>