<svg width="68" height="57" viewBox="0 0 68 57" fill="none" xmlns="http://www.w3.org/2000/svg">
<path d="M55.4 14.7335C53.361 10.0528 49.8431 6.17014 45.3858 3.68067C40.9284 1.1912 35.7775 0.23238 30.7229 0.951224C25.6683 1.67007 20.989 4.02689 17.4024 7.66034C13.8158 11.2938 11.5198 16.0033 10.8666 21.0668C8.08661 21.7566 5.60261 23.3233 3.78243 25.5349C1.96226 27.7465 0.902671 30.4855 0.760566 33.3463C0.618462 36.2071 1.40139 39.0376 2.99343 41.4187C4.58548 43.7998 6.90199 45.6049 9.59997 46.5668C10.0257 46.7902 10.4948 46.9189 10.975 46.944C11.4552 46.969 11.9351 46.8899 12.3818 46.7121C12.8285 46.5342 13.2315 46.2618 13.563 45.9136C13.8946 45.5653 14.1469 45.1494 14.3026 44.6945C14.4582 44.2396 14.5137 43.7564 14.465 43.278C14.4164 42.7996 14.2649 42.3375 14.0208 41.9232C13.7767 41.5089 13.4459 41.1523 13.0511 40.8779C12.6562 40.6035 12.2067 40.4178 11.7333 40.3335C10.4341 39.8638 9.31284 39.0022 8.52461 37.8676C7.73639 36.733 7.3201 35.3816 7.3333 34.0001C7.3333 32.232 8.03568 30.5363 9.28592 29.2861C10.5362 28.0359 12.2319 27.3335 14 27.3335C14.884 27.3335 15.7319 26.9823 16.357 26.3572C16.9821 25.732 17.3333 24.8842 17.3333 24.0001C17.3496 20.0606 18.7609 16.2541 21.3169 13.2562C23.8728 10.2582 27.4081 8.26261 31.2955 7.62337C35.1829 6.98413 39.171 7.7426 42.5524 9.76423C45.9337 11.7858 48.4896 14.9399 49.7666 18.6668C49.9622 19.2334 50.3069 19.7368 50.7644 20.1239C51.222 20.5111 51.7755 20.7677 52.3666 20.8668C54.5868 21.2864 56.5995 22.4455 58.0767 24.1553C59.5539 25.865 60.4085 28.0247 60.5013 30.2823C60.5941 32.5399 59.9196 34.7624 58.5876 36.5876C57.2557 38.4128 55.3449 39.7331 53.1666 40.3335C52.2826 40.444 51.4786 40.9011 50.9316 41.6044C50.3847 42.3077 50.1395 43.1994 50.25 44.0835C50.3605 44.9675 50.8176 45.7715 51.5209 46.3185C52.2242 46.8654 53.1159 47.1106 54 47.0001H54.8333C58.3413 46.0732 61.4509 44.0268 63.69 41.1717C65.9291 38.3166 67.1753 34.8088 67.2394 31.181C67.3035 27.5532 66.182 24.0036 64.0452 21.0712C61.9084 18.1388 58.873 15.9838 55.4 14.9335V14.7335Z" fill="url(#paint0_linear_2172_6940)"/>
<path d="M40.3651 15.4743C39.7068 15.2009 38.947 15.4121 38.5241 15.986L22.4059 37.8607C22 38.4115 21.9387 39.1438 22.2473 39.7544C22.5558 40.365 23.1818 40.75 23.8659 40.75H28.7929L26.6987 54.3606C26.5903 55.0649 26.9767 55.7523 27.6348 56.0257C28.2928 56.2991 29.0525 56.0881 29.4752 55.5144L45.5942 33.6386C45.9997 33.0883 46.0612 32.3565 45.7532 31.7462C45.4448 31.1353 44.8188 30.75 44.1345 30.75H39.2079L41.302 17.1403C41.4104 16.4355 41.0237 15.7478 40.3651 15.4743Z" fill="url(#paint1_linear_2172_6940)"/>
<defs>
<linearGradient id="paint0_linear_2172_6940" x1="0.744142" y1="28.605" x2="58.0109" y2="51.5971" gradientUnits="userSpaceOnUse">
<stop stop-color="#D52274"/>
<stop offset="0.5625" stop-color="#F44D29"/>
<stop offset="1" stop-color="#FD7E14"/>
</linearGradient>
<linearGradient id="paint1_linear_2172_6940" x1="0.744142" y1="28.605" x2="58.0109" y2="51.5971" gradientUnits="userSpaceOnUse">
<stop stop-color="#D52274"/>
<stop offset="0.5625" stop-color="#F44D29"/>
<stop offset="1" stop-color="#FD7E14"/>
</linearGradient>
</defs>
</svg>
