<svg width="68" height="60" viewBox="0 0 68 60" fill="none" xmlns="http://www.w3.org/2000/svg">
<path d="M55.4 14.7335C53.361 10.0528 49.8431 6.17014 45.3858 3.68067C40.9284 1.1912 35.7775 0.23238 30.7229 0.951224C25.6683 1.67007 20.989 4.02689 17.4024 7.66034C13.8158 11.2938 11.5198 16.0033 10.8666 21.0668C8.08661 21.7566 5.60261 23.3233 3.78243 25.5349C1.96226 27.7465 0.902671 30.4855 0.760566 33.3463C0.618462 36.2071 1.40139 39.0376 2.99343 41.4187C4.58548 43.7998 6.90199 45.6049 9.59997 46.5668C10.0257 46.7902 10.4948 46.9189 10.975 46.944C11.4552 46.969 11.9351 46.8899 12.3818 46.7121C12.8285 46.5342 13.2315 46.2618 13.563 45.9136C13.8946 45.5653 14.1469 45.1494 14.3026 44.6945C14.4582 44.2396 14.5137 43.7564 14.465 43.278C14.4164 42.7996 14.2649 42.3375 14.0208 41.9232C13.7767 41.5089 13.4459 41.1523 13.0511 40.8779C12.6562 40.6035 12.2067 40.4178 11.7333 40.3335C10.4341 39.8638 9.31284 39.0022 8.52461 37.8676C7.73639 36.733 7.3201 35.3816 7.3333 34.0001C7.3333 32.232 8.03568 30.5363 9.28592 29.2861C10.5362 28.0359 12.2319 27.3335 14 27.3335C14.884 27.3335 15.7319 26.9823 16.357 26.3572C16.9821 25.732 17.3333 24.8842 17.3333 24.0001C17.3496 20.0606 18.7609 16.2541 21.3169 13.2562C23.8728 10.2582 27.4081 8.26261 31.2955 7.62337C35.1829 6.98413 39.171 7.7426 42.5524 9.76423C45.9337 11.7858 48.4896 14.9399 49.7666 18.6668C49.9622 19.2334 50.3069 19.7368 50.7644 20.1239C51.222 20.5111 51.7755 20.7677 52.3666 20.8668C54.5868 21.2864 56.5995 22.4455 58.0767 24.1553C59.5539 25.865 60.4085 28.0247 60.5013 30.2823C60.5941 32.5399 59.9196 34.7624 58.5876 36.5876C57.2557 38.4128 55.3449 39.7331 53.1666 40.3335C52.2826 40.444 51.4786 40.9011 50.9316 41.6044C50.3847 42.3077 50.1395 43.1994 50.25 44.0835C50.3605 44.9675 50.8176 45.7715 51.5209 46.3185C52.2242 46.8654 53.1159 47.1106 54 47.0001H54.8333C58.3413 46.0732 61.4509 44.0268 63.69 41.1717C65.9291 38.3166 67.1753 34.8088 67.2394 31.181C67.3035 27.5532 66.182 24.0036 64.0452 21.0712C61.9084 18.1388 58.873 15.9838 55.4 14.9335V14.7335Z" fill="url(#paint0_linear_2172_6976)"/>
<path fill-rule="evenodd" clip-rule="evenodd" d="M37.9333 31.7323C37.8983 31.3902 37.7585 31.0673 37.533 30.8077C37.3074 30.5482 37.0072 30.3647 36.6733 30.2823C34.3227 29.7053 31.8673 29.7053 29.5167 30.2823C28.8333 30.4489 28.3283 31.0323 28.2567 31.7323L28.005 34.2039C27.455 34.4656 26.925 34.7706 26.4217 35.1189L24.155 34.1006C23.8411 33.96 23.4913 33.9197 23.1536 33.9853C22.8159 34.051 22.5068 34.2193 22.2683 34.4673C20.5935 36.2149 19.3659 38.3414 18.69 40.6656C18.5944 40.9957 18.6031 41.3472 18.715 41.6721C18.8268 41.997 19.0364 42.2794 19.315 42.4806L21.3317 43.9356C21.2857 44.5436 21.2857 45.1543 21.3317 45.7623L19.315 47.2173C19.0361 47.4186 18.8263 47.7012 18.7144 48.0265C18.6025 48.3517 18.594 48.7037 18.69 49.0339C19.3659 51.3582 20.5935 53.4847 22.2683 55.2323C22.755 55.7389 23.5117 55.8873 24.155 55.5989L26.4217 54.5806C26.925 54.9273 27.455 55.2306 28.005 55.4939L28.255 57.9673C28.3283 58.6673 28.8333 59.2506 29.5167 59.4173C31.8673 59.9943 34.3227 59.9943 36.6733 59.4173C37.3567 59.2506 37.8617 58.6673 37.9333 57.9673L38.1867 55.4939C38.7367 55.2323 39.265 54.9273 39.77 54.5806L42.0367 55.5973C42.6783 55.8873 43.435 55.7389 43.9217 55.2306C45.5962 53.4835 46.8238 51.3576 47.5 49.0339C47.596 48.7037 47.5875 48.3517 47.4756 48.0265C47.3637 47.7012 47.1539 47.4186 46.875 47.2173L44.86 45.7623C44.906 45.1543 44.906 44.5436 44.86 43.9356L46.875 42.4806C47.1539 42.2793 47.3637 41.9966 47.4756 41.6714C47.5875 41.3461 47.596 40.9942 47.5 40.6639C46.8241 38.3397 45.5965 36.2132 43.9217 34.4656C43.6834 34.218 43.3745 34.0499 43.0371 33.9842C42.6998 33.9186 42.3504 33.9587 42.0367 34.0989L39.77 35.1189C39.2672 34.7726 38.7378 34.4666 38.1867 34.2039L37.9333 31.7323ZM34.7433 33.2989L34.9683 35.5206C35.035 36.1506 35.4517 36.6923 36.045 36.9139C36.935 37.2439 37.7617 37.7223 38.4917 38.3256C38.9817 38.7306 39.6583 38.8223 40.2367 38.5606L42.2733 37.6473C42.955 38.5173 43.51 39.4773 43.9233 40.5006L42.1117 41.8073C41.8594 41.99 41.6633 42.2397 41.5455 42.528C41.4277 42.8163 41.3929 43.1319 41.445 43.4389C41.6017 44.3723 41.6017 45.3273 41.445 46.2606C41.3383 46.8873 41.5967 47.5189 42.1117 47.8923L43.9217 49.1956C43.5095 50.2207 42.9546 51.1825 42.2733 52.0523L40.2367 51.1373C39.9529 51.0093 39.639 50.9634 39.3305 51.0049C39.022 51.0465 38.7314 51.1738 38.4917 51.3723C37.7612 51.977 36.9341 52.4542 36.045 52.7839C35.7539 52.8933 35.499 53.0816 35.3088 53.3277C35.1186 53.5738 35.0008 53.868 34.9683 54.1773L34.7433 56.3989C33.6501 56.5565 32.5399 56.5565 31.4467 56.3989L31.2217 54.1773C31.1892 53.868 31.0714 53.5738 30.8812 53.3277C30.691 53.0816 30.4361 52.8933 30.145 52.7839C29.2559 52.4542 28.4288 51.977 27.6983 51.3723C27.4584 51.174 27.1677 51.0471 26.8592 51.0058C26.5508 50.9646 26.2369 51.0107 25.9533 51.1389L23.9167 52.0523C23.236 51.1833 22.6811 50.2227 22.2683 49.1989C22.2683 49.1956 24.08 47.8923 24.08 47.8923C24.5933 47.5189 24.8533 46.8873 24.7467 46.2589C24.5893 45.3255 24.5893 44.3724 24.7467 43.4389C24.7991 43.1316 24.7644 42.8157 24.6466 42.5271C24.5288 42.2384 24.3325 41.9885 24.08 41.8056L22.2683 40.5023C22.68 39.4773 23.235 38.5173 23.9183 37.6473L25.9533 38.5606C26.2371 38.6886 26.551 38.7345 26.8595 38.6929C27.168 38.6514 27.4586 38.5241 27.6983 38.3256C28.4288 37.7209 29.2559 37.2437 30.145 36.9139C30.7383 36.6923 31.155 36.1506 31.2217 35.5206L31.4467 33.3006C32.5399 33.1431 33.6501 33.1431 34.7433 33.3006V33.2989ZM33.095 38.6489C31.4509 38.6498 29.8744 39.3033 28.7119 40.4659C27.5494 41.6284 26.8959 43.2049 26.895 44.8489C26.8959 46.4927 27.5492 48.069 28.7113 49.2314C29.8735 50.3939 31.4496 51.0476 33.0933 51.0489C34.7374 51.0481 36.3139 50.3946 37.4764 49.232C38.639 48.0695 39.2924 46.493 39.2933 44.8489C39.2924 43.2049 38.639 41.6284 37.4764 40.4659C36.3139 39.3033 34.7374 38.6498 33.0933 38.6489H33.095ZM33.095 41.9823C33.4774 41.9732 33.8577 42.0406 34.2137 42.1807C34.5696 42.3208 34.8939 42.5306 35.1675 42.7979C35.4411 43.0651 35.6586 43.3844 35.807 43.737C35.9554 44.0895 36.0317 44.4681 36.0316 44.8506C36.0315 45.2331 35.9549 45.6117 35.8063 45.9642C35.6577 46.3166 35.4401 46.6358 35.1663 46.9029C34.8925 47.17 34.5681 47.3796 34.2121 47.5195C33.8561 47.6594 33.4757 47.7266 33.0933 47.7173C32.3448 47.6992 31.633 47.3892 31.11 46.8534C30.5869 46.3176 30.2941 45.5985 30.2941 44.8498C30.2941 44.101 30.5869 43.3819 31.11 42.8462C31.633 42.3104 32.3448 42.0003 33.0933 41.9823H33.095Z" fill="url(#paint1_linear_2172_6976)"/>
<defs>
<linearGradient id="paint0_linear_2172_6976" x1="0.744142" y1="30.2844" x2="58.902" y2="52.3079" gradientUnits="userSpaceOnUse">
<stop stop-color="#D52274"/>
<stop offset="0.5625" stop-color="#F44D29"/>
<stop offset="1" stop-color="#FD7E14"/>
</linearGradient>
<linearGradient id="paint1_linear_2172_6976" x1="0.744142" y1="30.2844" x2="58.902" y2="52.3079" gradientUnits="userSpaceOnUse">
<stop stop-color="#D52274"/>
<stop offset="0.5625" stop-color="#F44D29"/>
<stop offset="1" stop-color="#FD7E14"/>
</linearGradient>
</defs>
</svg>
