<svg width="54" height="54" fill="none" xmlns="http://www.w3.org/2000/svg"><path d="M41.445 15.12a15.75 15.75 0 0 0-30.06 4.252 9 9 0 0 0-.855 17.235c.233.072.476.11.72.113a2.278 2.278 0 1 0 .72-4.5A4.5 4.5 0 0 1 9 28.125a4.5 4.5 0 0 1 4.5-4.5 2.25 2.25 0 0 0 2.25-2.25 11.25 11.25 0 0 1 21.893-3.623 2.25 2.25 0 0 0 1.755 1.508 6.75 6.75 0 0 1 2.25 12.442 2.258 2.258 0 1 0 2.25 3.915 11.25 11.25 0 0 0 5.602-9.742 11.25 11.25 0 0 0-8.055-10.755ZM33.75 35.37v-2.745a6.75 6.75 0 0 0-13.5 0v2.655a6.75 6.75 0 0 0 2.25 13.095h9a6.75 6.75 0 0 0 2.25-13.095v.09Zm-9-2.745a2.25 2.25 0 1 1 4.5 0v2.25h-4.5v-2.25Zm6.75 11.25h-9a2.25 2.25 0 0 1 0-4.5h9a2.25 2.25 0 1 1 0 4.5Z" fill="url(#a)"/><defs><linearGradient id="a" x1="4.515" y1="27.015" x2="44.476" y2="41.184" gradientUnits="userSpaceOnUse"><stop stop-color="#D52274"/><stop offset=".563" stop-color="#F44D29"/><stop offset="1" stop-color="#FD7E14"/></linearGradient></defs></svg>