<svg width="54" height="54" fill="none" xmlns="http://www.w3.org/2000/svg"><path d="M33.75 38.25a2.25 2.25 0 1 0 0 4.5 2.25 2.25 0 0 0 0-4.5Zm-13.5 0H13.5a2.25 2.25 0 0 0 0 4.5h6.75a2.25 2.25 0 0 0 0-4.5Zm20.25 0a2.25 2.25 0 1 0 0 4.5 2.25 2.25 0 0 0 0-4.5Zm-6.75-13.5a2.25 2.25 0 1 0 0 4.5 2.25 2.25 0 0 0 0-4.5Zm-13.5 0H13.5a2.25 2.25 0 0 0 0 4.5h6.75a2.25 2.25 0 0 0 0-4.5Zm20.25-13.5a2.25 2.25 0 1 0 0 4.5 2.25 2.25 0 0 0 0-4.5Zm0 13.5a2.25 2.25 0 1 0 0 4.5 2.25 2.25 0 0 0 0-4.5Zm9-13.5a6.75 6.75 0 0 0-6.75-6.75h-31.5a6.75 6.75 0 0 0-6.75 6.75v4.5a6.75 6.75 0 0 0 1.755 4.5 6.75 6.75 0 0 0-1.755 4.5v4.5a6.75 6.75 0 0 0 1.755 4.5 6.75 6.75 0 0 0-1.755 4.5v4.5a6.75 6.75 0 0 0 6.75 6.75h31.5a6.75 6.75 0 0 0 6.75-6.75v-4.5a6.75 6.75 0 0 0-1.755-4.5 6.75 6.75 0 0 0 1.755-4.5v-4.5a6.75 6.75 0 0 0-1.755-4.5 6.75 6.75 0 0 0 1.755-4.5v-4.5ZM45 42.75A2.25 2.25 0 0 1 42.75 45h-31.5A2.25 2.25 0 0 1 9 42.75v-4.5A2.25 2.25 0 0 1 11.25 36h31.5A2.25 2.25 0 0 1 45 38.25v4.5Zm0-13.5a2.25 2.25 0 0 1-2.25 2.25h-31.5A2.25 2.25 0 0 1 9 29.25v-4.5a2.25 2.25 0 0 1 2.25-2.25h31.5A2.25 2.25 0 0 1 45 24.75v4.5Zm0-13.5A2.25 2.25 0 0 1 42.75 18h-31.5A2.25 2.25 0 0 1 9 15.75v-4.5A2.25 2.25 0 0 1 11.25 9h31.5A2.25 2.25 0 0 1 45 11.25v4.5Zm-11.25-4.5a2.25 2.25 0 1 0 0 4.5 2.25 2.25 0 0 0 0-4.5Zm-13.5 0H13.5a2.25 2.25 0 0 0 0 4.5h6.75a2.25 2.25 0 0 0 0-4.5Z" fill="url(#a)"/><defs><linearGradient id="a" x1="4.5" y1="27" x2="44.917" y2="40.61" gradientUnits="userSpaceOnUse"><stop stop-color="#D52274"/><stop offset=".563" stop-color="#F44D29"/><stop offset="1" stop-color="#FD7E14"/></linearGradient></defs></svg>