<svg width="32" height="32" viewBox="0 0 32 32" fill="none" xmlns="http://www.w3.org/2000/svg">
<g clip-path="url(#clip0_129_723)">
<mask id="mask0_129_723" style="mask-type:alpha" maskUnits="userSpaceOnUse" x="0" y="3" width="32" height="26">
<path d="M30.15 8.89996C29.795 8.89997 29.4474 9.00215 29.1489 9.1943C28.8503 9.38645 28.6134 9.66045 28.4663 9.98359C28.3192 10.3067 28.2682 10.6654 28.3194 11.0167C28.3706 11.368 28.5218 11.6972 28.755 11.965C27.23 13.735 25.97 14.84 25.02 15.245C23.62 15.845 22.325 15.67 21.17 14.715C19.025 12.94 17.63 9.91496 16.95 8.11996C17.75 7.75996 18.31 6.94996 18.31 6.01496C18.31 4.73996 17.275 3.70496 16 3.70496C15.3882 3.70628 14.8019 3.95024 14.3698 4.3833C13.9377 4.81637 13.695 5.40317 13.695 6.01496C13.6944 6.45836 13.822 6.89248 14.0624 7.26506C14.3028 7.63763 14.6458 7.93278 15.05 8.11496C14.37 9.90496 12.975 12.93 10.835 14.71C9.675 15.67 8.38 15.845 6.985 15.245C6.035 14.84 4.78 13.735 3.245 11.965C3.52251 11.6463 3.68258 11.2423 3.69858 10.82C3.71459 10.3978 3.58557 9.9828 3.33298 9.64407C3.0804 9.30533 2.71946 9.06327 2.31021 8.95813C1.90095 8.853 1.46804 8.89113 1.08347 9.06619C0.698891 9.24125 0.385831 9.54268 0.19635 9.92036C0.00686757 10.298 -0.047617 10.7292 0.0419567 11.1421C0.13153 11.5551 0.359764 11.9249 0.688702 12.1901C1.01764 12.4554 1.42746 12.6 1.85 12.6C1.9 12.6 1.955 12.6 2.005 12.59L5.16 25.96H26.845L29.995 12.59C30.045 12.6 30.1 12.6 30.15 12.6C31.17 12.6 32 11.77 32 10.75C32 9.72996 31.17 8.89996 30.15 8.89996ZM16 23.685C14.125 23.685 12.595 22.16 12.595 20.285C12.595 18.405 14.125 16.88 16 16.88C17.88 16.88 19.405 18.405 19.405 20.285C19.405 22.155 17.88 23.685 16 23.685Z" fill="url(#paint0_linear_129_723)"/>
<path d="M4.59 26.45H27.415V28.2999H4.59V26.45Z" fill="url(#paint1_linear_129_723)"/>
</mask>
<g mask="url(#mask0_129_723)">
<rect y="3" width="32" height="26" fill="url(#paint2_linear_129_723)"/>
</g>
</g>
<defs>
<linearGradient id="paint0_linear_129_723" x1="16" y1="3.70496" x2="16" y2="25.96" gradientUnits="userSpaceOnUse">
<stop stop-color="#D52274"/>
<stop offset="0.5" stop-color="#F44D29"/>
<stop offset="1" stop-color="#FD7E14"/>
</linearGradient>
<linearGradient id="paint1_linear_129_723" x1="16.0025" y1="26.45" x2="16.0025" y2="28.2999" gradientUnits="userSpaceOnUse">
<stop stop-color="#D52274"/>
<stop offset="0.5" stop-color="#F44D29"/>
<stop offset="1" stop-color="#FD7E14"/>
</linearGradient>
<linearGradient id="paint2_linear_129_723" x1="0" y1="3" x2="32" y2="29" gradientUnits="userSpaceOnUse">
<stop stop-color="#D52274"/>
<stop offset="0.5" stop-color="#F44D29"/>
<stop offset="1" stop-color="#FD7E14"/>
</linearGradient>
<clipPath id="clip0_129_723">
<rect width="32" height="32" fill="white"/>
</clipPath>
</defs>
</svg>
