<svg width="32" height="32" viewBox="0 0 32 32" fill="none" xmlns="http://www.w3.org/2000/svg">
<path d="M2.66653 8.3803C2.66653 6.86478 3.26857 5.41133 4.34021 4.33969C5.41185 3.26805 6.8653 2.66602 8.38082 2.66602H23.6189C25.1344 2.66602 26.5879 3.26805 27.6595 4.33969C28.7312 5.41133 29.3332 6.86478 29.3332 8.3803V23.6184C29.3332 25.1339 28.7312 26.5874 27.6595 27.659C26.5879 28.7306 25.1344 29.3327 23.6189 29.3327H8.38082C6.8653 29.3327 5.41185 28.7306 4.34021 27.659C3.26857 26.5874 2.66653 25.1339 2.66653 23.6184V8.3803ZM9.3332 8.3803C9.08061 8.3803 8.83837 8.48064 8.65977 8.65925C8.48116 8.83785 8.38082 9.0801 8.38082 9.33268C8.38082 9.58527 8.48116 9.82751 8.65977 10.0061C8.83837 10.1847 9.08061 10.2851 9.3332 10.2851H22.6665C22.9191 10.2851 23.1614 10.1847 23.34 10.0061C23.5186 9.82751 23.6189 9.58527 23.6189 9.33268C23.6189 9.0801 23.5186 8.83785 23.34 8.65925C23.1614 8.48064 22.9191 8.3803 22.6665 8.3803H9.3332Z" fill="url(#paint0_linear_2246_11888)"/>
<defs>
<linearGradient id="paint0_linear_2246_11888" x1="2.66653" y1="15.9993" x2="26.6174" y2="24.0644" gradientUnits="userSpaceOnUse">
<stop stop-color="#D52274"/>
<stop offset="0.5625" stop-color="#F44D29"/>
<stop offset="1" stop-color="#FD7E14"/>
</linearGradient>
</defs>
</svg>
