<svg width="64" height="64" viewBox="0 0 64 64" fill="none" xmlns="http://www.w3.org/2000/svg">
<path d="M42.6667 5.3335H21.3333C12.5093 5.3335 5.33333 12.5095 5.33333 21.3335V56.0002C5.33333 56.7074 5.61429 57.3857 6.11438 57.8858C6.61448 58.3859 7.29276 58.6668 8 58.6668H42.6667C51.4907 58.6668 58.6667 51.4908 58.6667 42.6668V21.3335C58.6667 12.5095 51.4907 5.3335 42.6667 5.3335ZM53.3333 42.6668C53.3333 48.5495 48.5493 53.3335 42.6667 53.3335H10.6667V21.3335C10.6667 15.4508 15.4507 10.6668 21.3333 10.6668H42.6667C48.5493 10.6668 53.3333 15.4508 53.3333 21.3335V42.6668Z" fill="url(#paint0_linear_2209_10032)"/>
<path d="M18.6667 24H45.3333V29.3333H18.6667V24ZM18.6667 34.6667H37.3333V40H18.6667V34.6667Z" fill="url(#paint1_linear_2209_10032)"/>
<defs>
<linearGradient id="paint0_linear_2209_10032" x1="5.33333" y1="32.0002" x2="53.2351" y2="48.1303" gradientUnits="userSpaceOnUse">
<stop stop-color="#D52274"/>
<stop offset="0.5625" stop-color="#F44D29"/>
<stop offset="1" stop-color="#FD7E14"/>
</linearGradient>
<linearGradient id="paint1_linear_2209_10032" x1="18.6667" y1="32" x2="38.9459" y2="43.3812" gradientUnits="userSpaceOnUse">
<stop stop-color="#D52274"/>
<stop offset="0.5625" stop-color="#F44D29"/>
<stop offset="1" stop-color="#FD7E14"/>
</linearGradient>
</defs>
</svg>
