<svg width="64" height="64" viewBox="0 0 64 64" fill="none" xmlns="http://www.w3.org/2000/svg">
<path d="M18.6667 5.3335H8C7.29276 5.3335 6.61448 5.61445 6.11438 6.11454C5.61429 6.61464 5.33333 7.29292 5.33333 8.00016V56.0002C5.33333 56.7074 5.61429 57.3857 6.11438 57.8858C6.61448 58.3859 7.29276 58.6668 8 58.6668H18.6667C19.3739 58.6668 20.0522 58.3859 20.5523 57.8858C21.0524 57.3857 21.3333 56.7074 21.3333 56.0002V8.00016C21.3333 7.29292 21.0524 6.61464 20.5523 6.11454C20.0522 5.61445 19.3739 5.3335 18.6667 5.3335ZM13.3333 56.0002C12.2785 56.0002 11.2474 55.6874 10.3703 55.1013C9.49323 54.5153 8.80964 53.6823 8.40598 52.7078C8.00231 51.7333 7.89669 50.6609 8.10248 49.6263C8.30827 48.5918 8.81622 47.6415 9.5621 46.8956C10.308 46.1497 11.2583 45.6418 12.2929 45.436C13.3274 45.2302 14.3998 45.3358 15.3743 45.7395C16.3489 46.1431 17.1818 46.8267 17.7678 47.7038C18.3539 48.5808 18.6667 49.612 18.6667 50.6668C18.6667 52.0813 18.1048 53.4379 17.1046 54.4381C16.1044 55.4383 14.7478 56.0002 13.3333 56.0002ZM18.6667 32.0002H8V8.00016H18.6667V32.0002ZM16 50.6668C16 51.1942 15.8436 51.7098 15.5506 52.1483C15.2576 52.5869 14.8411 52.9287 14.3538 53.1305C13.8666 53.3323 13.3304 53.3851 12.8131 53.2823C12.2958 53.1794 11.8207 52.9254 11.4477 52.5524C11.0748 52.1795 10.8208 51.7044 10.7179 51.1871C10.615 50.6698 10.6678 50.1336 10.8697 49.6463C11.0715 49.1591 11.4133 48.7426 11.8518 48.4496C12.2903 48.1566 12.8059 48.0002 13.3333 48.0002C14.0406 48.0002 14.7189 48.2811 15.219 48.7812C15.719 49.2813 16 49.9596 16 50.6668ZM37.3333 5.3335H26.6667C25.9594 5.3335 25.2811 5.61445 24.781 6.11454C24.281 6.61464 24 7.29292 24 8.00016V56.0002C24 56.7074 24.281 57.3857 24.781 57.8858C25.2811 58.3859 25.9594 58.6668 26.6667 58.6668H37.3333C38.0406 58.6668 38.7189 58.3859 39.219 57.8858C39.719 57.3857 40 56.7074 40 56.0002V8.00016C40 7.29292 39.719 6.61464 39.219 6.11454C38.7189 5.61445 38.0406 5.3335 37.3333 5.3335ZM32 56.0002C30.9452 56.0002 29.914 55.6874 29.037 55.1013C28.1599 54.5153 27.4763 53.6823 27.0726 52.7078C26.669 51.7333 26.5634 50.6609 26.7691 49.6263C26.9749 48.5918 27.4829 47.6415 28.2288 46.8956C28.9746 46.1497 29.925 45.6418 30.9595 45.436C31.9941 45.2302 33.0664 45.3358 34.041 45.7395C35.0155 46.1431 35.8485 46.8267 36.4345 47.7038C37.0205 48.5808 37.3333 49.612 37.3333 50.6668C37.3333 52.0813 36.7714 53.4379 35.7712 54.4381C34.771 55.4383 33.4145 56.0002 32 56.0002ZM37.3333 32.0002H26.6667V8.00016H37.3333V32.0002ZM34.6667 50.6668C34.6667 51.1942 34.5103 51.7098 34.2173 52.1483C33.9242 52.5869 33.5078 52.9287 33.0205 53.1305C32.5332 53.3323 31.997 53.3851 31.4798 53.2823C30.9625 53.1794 30.4873 52.9254 30.1144 52.5524C29.7414 52.1795 29.4875 51.7044 29.3846 51.1871C29.2817 50.6698 29.3345 50.1336 29.5363 49.6463C29.7382 49.1591 30.0799 48.7426 30.5185 48.4496C30.957 48.1566 31.4726 48.0002 32 48.0002C32.7072 48.0002 33.3855 48.2811 33.8856 48.7812C34.3857 49.2813 34.6667 49.9596 34.6667 50.6668ZM56 5.3335H45.3333C44.6261 5.3335 43.9478 5.61445 43.4477 6.11454C42.9476 6.61464 42.6667 7.29292 42.6667 8.00016V56.0002C42.6667 56.7074 42.9476 57.3857 43.4477 57.8858C43.9478 58.3859 44.6261 58.6668 45.3333 58.6668H56C56.7072 58.6668 57.3855 58.3859 57.8856 57.8858C58.3857 57.3857 58.6667 56.7074 58.6667 56.0002V8.00016C58.6667 7.29292 58.3857 6.61464 57.8856 6.11454C57.3855 5.61445 56.7072 5.3335 56 5.3335ZM50.6667 56.0002C49.6118 56.0002 48.5807 55.6874 47.7036 55.1013C46.8266 54.5153 46.143 53.6823 45.7393 52.7078C45.3356 51.7333 45.23 50.6609 45.4358 49.6263C45.6416 48.5918 46.1495 47.6415 46.8954 46.8956C47.6413 46.1497 48.5916 45.6418 49.6262 45.436C50.6607 45.2302 51.7331 45.3358 52.7076 45.7395C53.6822 46.1431 54.5151 46.8267 55.1012 47.7038C55.6872 48.5808 56 49.612 56 50.6668C56 52.0813 55.4381 53.4379 54.4379 54.4381C53.4377 55.4383 52.0812 56.0002 50.6667 56.0002ZM56 32.0002H45.3333V8.00016H56V32.0002ZM53.3333 50.6668C53.3333 51.1942 53.1769 51.7098 52.8839 52.1483C52.5909 52.5869 52.1744 52.9287 51.6872 53.1305C51.1999 53.3323 50.6637 53.3851 50.1464 53.2823C49.6291 53.1794 49.154 52.9254 48.781 52.5524C48.4081 52.1795 48.1541 51.7044 48.0512 51.1871C47.9483 50.6698 48.0012 50.1336 48.203 49.6463C48.4048 49.1591 48.7466 48.7426 49.1851 48.4496C49.6237 48.1566 50.1392 48.0002 50.6667 48.0002C51.3739 48.0002 52.0522 48.2811 52.5523 48.7812C53.0524 49.2813 53.3333 49.9596 53.3333 50.6668Z" fill="url(#paint0_linear_2209_10013)"/>
<defs>
<linearGradient id="paint0_linear_2209_10013" x1="5.33333" y1="32.0002" x2="53.2351" y2="48.1303" gradientUnits="userSpaceOnUse">
<stop stop-color="#D52274"/>
<stop offset="0.5625" stop-color="#F44D29"/>
<stop offset="1" stop-color="#FD7E14"/>
</linearGradient>
</defs>
</svg>
