<svg width="64" height="64" viewBox="0 0 64 64" fill="none" xmlns="http://www.w3.org/2000/svg">
<path d="M44.5333 47.8669C42.4 47.8669 40.6666 49.6002 40.6666 51.8669C40.6666 54.1336 42.4 55.8669 44.5333 55.8669H55.3333V47.8669H44.5333ZM44.6666 53.2002C44 53.2002 43.3333 52.6669 43.3333 51.8669C43.3333 51.0669 43.8666 50.5336 44.6666 50.5336C45.3333 50.5336 46 51.0669 46 51.8669C45.8666 52.5336 45.3333 53.2002 44.6666 53.2002ZM42.6666 15.7336L34.8 13.0669C33.7333 14.6669 31.8666 15.6002 30 15.4669L25.3333 29.2002H42.1333L44.9333 20.6669C43.4666 19.4669 42.5333 17.6002 42.6666 15.7336ZM39.6 20.2669C39.2 21.6002 37.6 22.4002 36.2666 22.0002C34.9333 21.6002 34 20.0002 34.5333 18.6669C35.0666 17.3336 36.5333 16.5336 37.8666 16.9336C39.2 17.3336 40 18.9336 39.6 20.2669Z" fill="url(#paint0_linear_2209_10015)"/>
<path d="M28.9333 5.60014L51.7333 13.2001C52.1333 13.3335 52.4 13.6001 52.5333 13.8668C52.6666 14.1335 52.6666 14.5335 52.6666 14.9335L47.8666 29.3335H45.0666L48 20.5335C48.1333 20.1335 48.1333 19.8668 47.8666 19.4668C47.7333 19.2001 47.4666 18.9335 47.0666 18.8001C45.7333 18.4001 44.9333 16.8001 45.3333 15.4668C45.6 14.8001 45.2 14.0001 44.5333 13.7335L34.4 10.4001C34 10.2668 33.7333 10.2668 33.3333 10.5335C33.0666 10.6668 32.8 10.9335 32.6666 11.3335C32.2666 12.6668 30.6666 13.4668 29.3333 13.0668C28.6666 12.8001 27.8666 13.2001 27.6 13.8668L22.4 29.4668H19.6L27.2 6.66681C27.4666 5.73348 28.2666 5.33348 28.9333 5.60014ZM15.3333 29.2001V17.0668C17.2 16.5335 18.6666 15.0668 19.2 13.2001H22.2666L16.9333 29.2001H15.3333Z" fill="url(#paint1_linear_2209_10015)"/>
<path d="M10.4 8.2667C10.6667 8.00003 10.9333 7.8667 11.3333 7.8667H24L23.0667 10.5334H18C17.6 10.5334 17.3333 10.6667 17.0667 10.9334C16.8 11.2 16.6667 11.4667 16.6667 11.8667C16.6667 13.3334 15.4667 14.5334 14 14.5334C13.2 14.5334 12.6667 15.0667 12.6667 15.8667V29.3334C11.7333 29.4667 10.8 30 10 30.5334V9.20003C10 8.80003 10.1333 8.53337 10.4 8.2667ZM55.3333 59.8667C55.3333 62.1334 53.6 63.8667 51.3333 63.8667H14C11.7333 63.8667 10 62.1334 10 59.8667V35.8667C10 33.6 11.7333 31.8667 14 31.8667H51.2C53.4667 31.8667 55.2 33.6 55.2 35.8667V45.2H44.4C40.8 45.2 37.8667 48.1334 37.8667 51.8667C37.8667 55.6 40.8 58.5334 44.4 58.5334H55.2V59.8667H55.3333Z" fill="url(#paint2_linear_2209_10015)"/>
<defs>
<linearGradient id="paint0_linear_2209_10015" x1="25.3333" y1="34.4669" x2="53.7502" y2="41.1741" gradientUnits="userSpaceOnUse">
<stop stop-color="#D52274"/>
<stop offset="0.5625" stop-color="#F44D29"/>
<stop offset="1" stop-color="#FD7E14"/>
</linearGradient>
<linearGradient id="paint1_linear_2209_10015" x1="15.3333" y1="17.4929" x2="44.6012" y2="32.8571" gradientUnits="userSpaceOnUse">
<stop stop-color="#D52274"/>
<stop offset="0.5625" stop-color="#F44D29"/>
<stop offset="1" stop-color="#FD7E14"/>
</linearGradient>
<linearGradient id="paint2_linear_2209_10015" x1="10" y1="35.8667" x2="52.1977" y2="47.3696" gradientUnits="userSpaceOnUse">
<stop stop-color="#D52274"/>
<stop offset="0.5625" stop-color="#F44D29"/>
<stop offset="1" stop-color="#FD7E14"/>
</linearGradient>
</defs>
</svg>
