<svg width="32" height="32" viewBox="0 0 32 32" fill="none" xmlns="http://www.w3.org/2000/svg">
<path d="M20 14.6667C19.2667 14.6667 18.6391 14.4053 18.1173 13.8827C17.5947 13.3609 17.3333 12.7333 17.3333 12V6.66667C17.3333 5.93333 17.5947 5.30533 18.1173 4.78267C18.6391 4.26089 19.2667 4 20 4H25.3333C26.0667 4 26.6947 4.26089 27.2173 4.78267C27.7391 5.30533 28 5.93333 28 6.66667V12C28 12.7333 27.7391 13.3609 27.2173 13.8827C26.6947 14.4053 26.0667 14.6667 25.3333 14.6667H20ZM14.6667 12C14.6667 12.7333 14.4058 13.3609 13.884 13.8827C13.3613 14.4053 12.7333 14.6667 12 14.6667H6.66667C5.93333 14.6667 5.30533 14.4053 4.78267 13.8827C4.26089 13.3609 4 12.7333 4 12V6.66667C4 5.93333 4.26089 5.30533 4.78267 4.78267C5.30533 4.26089 5.93333 4 6.66667 4H12C12.7333 4 13.3613 4.26089 13.884 4.78267C14.4058 5.30533 14.6667 5.93333 14.6667 6.66667V12ZM17.3333 20C17.3333 19.2667 17.5947 18.6387 18.1173 18.116C18.6391 17.5942 19.2667 17.3333 20 17.3333H25.3333C26.0667 17.3333 26.6947 17.5942 27.2173 18.116C27.7391 18.6387 28 19.2667 28 20V25.3333C28 26.0667 27.7391 26.6947 27.2173 27.2173C26.6947 27.7391 26.0667 28 25.3333 28H20C19.2667 28 18.6391 27.7391 18.1173 27.2173C17.5947 26.6947 17.3333 26.0667 17.3333 25.3333V20ZM12 17.3333C12.7333 17.3333 13.3613 17.5942 13.884 18.116C14.4058 18.6387 14.6667 19.2667 14.6667 20V25.3333C14.6667 26.0667 14.4058 26.6947 13.884 27.2173C13.3613 27.7391 12.7333 28 12 28H6.66667C5.93333 28 5.30533 27.7391 4.78267 27.2173C4.26089 26.6947 4 26.0667 4 25.3333V20C4 19.2667 4.26089 18.6387 4.78267 18.116C5.30533 17.5942 5.93333 17.3333 6.66667 17.3333H12Z" fill="url(#paint0_linear_2248_14226)"/>
<defs>
<linearGradient id="paint0_linear_2248_14226" x1="4" y1="16" x2="25.5558" y2="23.2586" gradientUnits="userSpaceOnUse">
<stop stop-color="#D52274"/>
<stop offset="0.5625" stop-color="#F44D29"/>
<stop offset="1" stop-color="#FD7E14"/>
</linearGradient>
</defs>
</svg>
