<svg width="64" height="64" viewBox="0 0 64 64" fill="none" xmlns="http://www.w3.org/2000/svg">
<path d="M44.5335 47.8664C42.4002 47.8664 40.6668 49.5997 40.6668 51.8664C40.6668 54.1331 42.4002 55.8664 44.5335 55.8664H55.3335V47.8664H44.5335ZM44.6668 53.1997C44.0002 53.1997 43.3335 52.6664 43.3335 51.8664C43.3335 51.0664 43.8668 50.5331 44.6668 50.5331C45.3335 50.5331 46.0002 51.0664 46.0002 51.8664C45.8668 52.5331 45.3335 53.1997 44.6668 53.1997ZM42.6668 15.7331L34.8002 13.0664C33.7335 14.6664 31.8668 15.5997 30.0002 15.4664L25.3335 29.1997H42.1335L44.9335 20.6664C43.4668 19.4664 42.5335 17.5997 42.6668 15.7331ZM39.6002 20.2664C39.2002 21.5997 37.6002 22.3997 36.2668 21.9997C34.9335 21.5997 34.0002 19.9997 34.5335 18.6664C35.0668 17.3331 36.5335 16.5331 37.8668 16.9331C39.2002 17.3331 40.0002 18.9331 39.6002 20.2664Z" fill="url(#paint0_linear_2248_13915)"/>
<path d="M28.9335 5.60063L51.7335 13.2006C52.1335 13.334 52.4002 13.6006 52.5335 13.8673C52.6668 14.134 52.6668 14.534 52.6668 14.934L47.8668 29.334H45.0668L48.0002 20.534C48.1335 20.134 48.1335 19.8673 47.8668 19.4673C47.7335 19.2006 47.4668 18.934 47.0668 18.8006C45.7335 18.4006 44.9335 16.8006 45.3335 15.4673C45.6002 14.8006 45.2002 14.0006 44.5335 13.734L34.4002 10.4006C34.0002 10.2673 33.7335 10.2673 33.3335 10.534C33.0668 10.6673 32.8002 10.934 32.6668 11.334C32.2668 12.6673 30.6668 13.4673 29.3335 13.0673C28.6668 12.8006 27.8668 13.2006 27.6002 13.8673L22.4002 29.4673H19.6002L27.2002 6.6673C27.4668 5.73396 28.2668 5.33396 28.9335 5.60063ZM15.3335 29.2006V17.0673C17.2002 16.534 18.6668 15.0673 19.2002 13.2006H22.2668L16.9335 29.2006H15.3335Z" fill="url(#paint1_linear_2248_13915)"/>
<path d="M10.4 8.26719C10.6667 8.00052 10.9333 7.86719 11.3333 7.86719H24L23.0667 10.5339H18C17.6 10.5339 17.3333 10.6672 17.0667 10.9339C16.8 11.2005 16.6667 11.4672 16.6667 11.8672C16.6667 13.3339 15.4667 14.5339 14 14.5339C13.2 14.5339 12.6667 15.0672 12.6667 15.8672V29.3339C11.7333 29.4672 10.8 30.0005 10 30.5339V9.20052C10 8.80052 10.1333 8.53385 10.4 8.26719ZM55.3333 59.8672C55.3333 62.1339 53.6 63.8672 51.3333 63.8672H14C11.7333 63.8672 10 62.1339 10 59.8672V35.8672C10 33.6005 11.7333 31.8672 14 31.8672H51.2C53.4667 31.8672 55.2 33.6005 55.2 35.8672V45.2005H44.4C40.8 45.2005 37.8667 48.1339 37.8667 51.8672C37.8667 55.6005 40.8 58.5339 44.4 58.5339H55.2V59.8672H55.3333Z" fill="url(#paint2_linear_2248_13915)"/>
<defs>
<linearGradient id="paint0_linear_2248_13915" x1="25.3335" y1="34.4664" x2="53.7504" y2="41.1736" gradientUnits="userSpaceOnUse">
<stop stop-color="#D52274"/>
<stop offset="0.5625" stop-color="#F44D29"/>
<stop offset="1" stop-color="#FD7E14"/>
</linearGradient>
<linearGradient id="paint1_linear_2248_13915" x1="15.3335" y1="17.4934" x2="44.6013" y2="32.8576" gradientUnits="userSpaceOnUse">
<stop stop-color="#D52274"/>
<stop offset="0.5625" stop-color="#F44D29"/>
<stop offset="1" stop-color="#FD7E14"/>
</linearGradient>
<linearGradient id="paint2_linear_2248_13915" x1="10" y1="35.8672" x2="52.1977" y2="47.3701" gradientUnits="userSpaceOnUse">
<stop stop-color="#D52274"/>
<stop offset="0.5625" stop-color="#F44D29"/>
<stop offset="1" stop-color="#FD7E14"/>
</linearGradient>
</defs>
</svg>
