<svg width="32" height="32" viewBox="0 0 32 32" fill="none" xmlns="http://www.w3.org/2000/svg">
<path d="M18.6667 2.66797H8.00004C6.53337 2.66797 5.33337 3.86797 5.33337 5.33464V26.668C5.33337 28.1346 6.53337 29.3346 8.00004 29.3346H24C25.4667 29.3346 26.6667 28.1346 26.6667 26.668V10.668L18.6667 2.66797ZM16 13.3346C17.4667 13.3346 18.6667 14.5346 18.6667 16.0013C18.6667 17.468 17.4667 18.668 16 18.668C14.5334 18.668 13.3334 17.468 13.3334 16.0013C13.3334 14.5346 14.5334 13.3346 16 13.3346ZM21.3334 24.0013H10.6667V23.2413C10.6667 22.1613 11.3067 21.2013 12.2934 20.7746C13.4625 20.2644 14.7244 20.001 16 20.001C17.2757 20.001 18.5376 20.2644 19.7067 20.7746C20.1898 20.9811 20.6015 21.325 20.8907 21.7635C21.1799 22.2021 21.3338 22.716 21.3334 23.2413V24.0013Z" fill="url(#paint0_linear_2225_11379)"/>
<defs>
<linearGradient id="paint0_linear_2225_11379" x1="5.33337" y1="16.0013" x2="25.2233" y2="21.3594" gradientUnits="userSpaceOnUse">
<stop stop-color="#D52274"/>
<stop offset="0.5625" stop-color="#F44D29"/>
<stop offset="1" stop-color="#FD7E14"/>
</linearGradient>
</defs>
</svg>
