<svg width="32" height="32" viewBox="0 0 32 32" fill="none" xmlns="http://www.w3.org/2000/svg">
<path d="M20 12H17.3333V9.33333H20V12ZM29.3333 26.6667V29.3333H20C20 29.687 19.8595 30.0261 19.6094 30.2761C19.3594 30.5262 19.0202 30.6667 18.6666 30.6667H13.3333C12.9797 30.6667 12.6405 30.5262 12.3905 30.2761C12.1404 30.0261 12 29.687 12 29.3333H2.66663V26.6667H12C12 26.313 12.1404 25.9739 12.3905 25.7239C12.6405 25.4738 12.9797 25.3333 13.3333 25.3333H14.6666V22.6667H9.33329C8.62605 22.6667 7.94777 22.3857 7.44767 21.8856C6.94758 21.3855 6.66663 20.7072 6.66663 20V6.66667C6.66663 5.95942 6.94758 5.28115 7.44767 4.78105C7.94777 4.28095 8.62605 4 9.33329 4H22.6666C23.3739 4 24.0521 4.28095 24.5522 4.78105C25.0523 5.28115 25.3333 5.95942 25.3333 6.66667V20C25.3333 20.7072 25.0523 21.3855 24.5522 21.8856C24.0521 22.3857 23.3739 22.6667 22.6666 22.6667H17.3333V25.3333H18.6666C19.0202 25.3333 19.3594 25.4738 19.6094 25.7239C19.8595 25.9739 20 26.313 20 26.6667H29.3333ZM12 6.66667H9.33329V20H12V6.66667ZM14.6666 20H17.3333V14.6667H20C20.7072 14.6667 21.3855 14.3857 21.8856 13.8856C22.3857 13.3855 22.6666 12.7072 22.6666 12V9.33333C22.6666 8.62609 22.3857 7.94781 21.8856 7.44771C21.3855 6.94762 20.7072 6.66667 20 6.66667H14.6666V20Z" fill="url(#paint0_linear_2225_11126)"/>
<defs>
<linearGradient id="paint0_linear_2225_11126" x1="2.66663" y1="17.3333" x2="26.6175" y2="25.3984" gradientUnits="userSpaceOnUse">
<stop stop-color="#D52274"/>
<stop offset="0.5625" stop-color="#F44D29"/>
<stop offset="1" stop-color="#FD7E14"/>
</linearGradient>
</defs>
</svg>
