<svg width="32" height="32" viewBox="0 0 32 32" fill="none" xmlns="http://www.w3.org/2000/svg">
<path d="M12 3.19922C10.9391 3.19922 9.92167 3.62065 9.17152 4.37079C8.42138 5.12094 7.99995 6.13835 7.99995 7.19922V24.7992C7.99995 25.8601 8.42138 26.8775 9.17152 27.6276C9.92167 28.3778 10.9391 28.7992 12 28.7992H20C21.0608 28.7992 22.0782 28.3778 22.8284 27.6276C23.5785 26.8775 24 25.8601 24 24.7992V7.19922C24 6.13835 23.5785 5.12094 22.8284 4.37079C22.0782 3.62065 21.0608 3.19922 20 3.19922H12ZM12 7.99922H20C20.2121 7.99922 20.4156 8.0835 20.5656 8.23353C20.7157 8.38356 20.8 8.58705 20.8 8.79922C20.8 9.01139 20.7157 9.21488 20.5656 9.3649C20.4156 9.51493 20.2121 9.59922 20 9.59922H12C11.7878 9.59922 11.5843 9.51493 11.4343 9.3649C11.2842 9.21488 11.2 9.01139 11.2 8.79922C11.2 8.58705 11.2842 8.38356 11.4343 8.23353C11.5843 8.0835 11.7878 7.99922 12 7.99922V7.99922ZM11.2 19.9992C11.2 19.787 11.2842 19.5836 11.4343 19.4335C11.5843 19.2835 11.7878 19.1992 12 19.1992H20C20.2121 19.1992 20.4156 19.2835 20.5656 19.4335C20.7157 19.5836 20.8 19.787 20.8 19.9992C20.8 20.2114 20.7157 20.4149 20.5656 20.5649C20.4156 20.7149 20.2121 20.7992 20 20.7992H12C11.7878 20.7992 11.5843 20.7149 11.4343 20.5649C11.2842 20.4149 11.2 20.2114 11.2 19.9992ZM11.2 23.1992C11.2 22.987 11.2842 22.7836 11.4343 22.6335C11.5843 22.4835 11.7878 22.3992 12 22.3992H20C20.2121 22.3992 20.4156 22.4835 20.5656 22.6335C20.7157 22.7836 20.8 22.987 20.8 23.1992C20.8 23.4114 20.7157 23.6149 20.5656 23.7649C20.4156 23.9149 20.2121 23.9992 20 23.9992H12C11.7878 23.9992 11.5843 23.9149 11.4343 23.7649C11.2842 23.6149 11.2 23.4114 11.2 23.1992ZM3.19995 11.1992C3.19995 10.3505 3.53709 9.53659 4.13721 8.93648C4.73733 8.33636 5.55126 7.99922 6.39995 7.99922V24.7992C6.39995 25.0712 6.41915 25.3384 6.45595 25.5992H6.39995C5.55126 25.5992 4.73733 25.2621 4.13721 24.662C3.53709 24.0618 3.19995 23.2479 3.19995 22.3992V11.1992ZM25.6 24.7992C25.6 25.0712 25.5808 25.3384 25.544 25.5992H25.6C26.4486 25.5992 27.2626 25.2621 27.8627 24.662C28.4628 24.0618 28.8 23.2479 28.8 22.3992V11.1992C28.8 10.3505 28.4628 9.53659 27.8627 8.93648C27.2626 8.33636 26.4486 7.99922 25.6 7.99922V24.7992Z" fill="url(#paint0_linear_2223_13505)"/>
<defs>
<linearGradient id="paint0_linear_2223_13505" x1="3.19995" y1="15.9992" x2="26.1928" y2="23.7417" gradientUnits="userSpaceOnUse">
<stop stop-color="#D52274"/>
<stop offset="0.5625" stop-color="#F44D29"/>
<stop offset="1" stop-color="#FD7E14"/>
</linearGradient>
</defs>
</svg>
