<svg width="32" height="32" viewBox="0 0 32 32" fill="none" xmlns="http://www.w3.org/2000/svg">
<path d="M26.6667 9.33464H19.5556V2.66797L26.6667 9.33464ZM19.5556 11.0013H26.6667V26.8346C26.6667 28.2154 25.4728 29.3346 24 29.3346H8.00004C6.52726 29.3346 5.33337 28.2148 5.33337 26.8346V5.16797C5.33337 3.78724 6.52726 2.66797 8.00004 2.66797H17.7778L17.778 9.33464C17.7778 10.2565 18.5723 11.0013 19.5556 11.0013ZM8.88893 7.2513C8.88893 7.47943 9.0906 7.66797 9.33337 7.66797H13.7778C14.0223 7.66797 14.2223 7.47943 14.2223 7.2513V6.41797C14.2223 6.19036 14.0223 6.0013 13.7778 6.0013H9.33337C9.0906 6.0013 8.88893 6.19036 8.88893 6.41797V7.2513ZM9.33337 11.0013H13.7778C14.0223 11.0013 14.2223 10.8138 14.2223 10.5846V9.7513C14.2223 9.52214 14.0223 9.33464 13.7778 9.33464H9.33337C9.0906 9.33464 8.88893 9.52214 8.88893 9.7513V10.5846C8.88893 10.8138 9.0906 11.0013 9.33337 11.0013ZM16.3056 19.168L15.95 19.0846C14.6834 18.7201 14.7112 18.5065 14.7556 18.319C14.832 17.9121 15.6773 17.8128 16.4373 17.9219C16.748 17.9658 17.0889 18.0683 17.4145 18.1742C17.9917 18.3614 18.6273 18.0732 18.8284 17.5315C19.0298 16.9877 18.7233 16.394 18.1434 16.2049C17.7423 16.0755 17.415 15.9925 17.1123 15.9303V15.5846C17.1123 15.0102 16.6149 14.543 16.0012 14.543C15.3874 14.543 14.89 15.0101 14.89 15.5846V15.8967C13.6445 16.1471 12.7667 16.8763 12.5667 17.9648C12.1553 20.1961 14.4106 20.8164 15.3734 21.0815L15.6963 21.1694C17.3229 21.6056 17.2963 21.7522 17.2474 22.0173C17.171 22.4242 16.3257 22.5252 15.5635 22.4145C15.178 22.3608 14.6852 22.1947 14.249 22.0483L14.0008 21.9636C13.4224 21.7765 12.788 22.058 12.583 22.6001C12.379 23.1423 12.6819 23.7376 13.2608 23.9298L13.4978 24.0079C13.9288 24.1532 14.4078 24.2991 14.89 24.3992V24.7513C14.89 25.3258 15.3874 25.793 16.0011 25.793C16.6148 25.793 17.1122 25.3258 17.1122 24.7513V24.4256C18.3544 24.1759 19.235 23.4605 19.4361 22.3719C19.85 20.1159 17.5445 19.4961 16.3056 19.168Z" fill="url(#paint0_linear_2225_10533)"/>
<defs>
<linearGradient id="paint0_linear_2225_10533" x1="5.33337" y1="16.0013" x2="25.2233" y2="21.3594" gradientUnits="userSpaceOnUse">
<stop stop-color="#D52274"/>
<stop offset="0.5625" stop-color="#F44D29"/>
<stop offset="1" stop-color="#FD7E14"/>
</linearGradient>
</defs>
</svg>
