<svg width="32" height="32" viewBox="0 0 32 32" fill="none" xmlns="http://www.w3.org/2000/svg">
<path d="M5.44 6.96933C5.66712 6.11767 6.16917 5.36488 6.86816 4.82792C7.56715 4.29096 8.42392 3.99991 9.30534 4H22.6933C23.575 3.99962 24.4321 4.29053 25.1313 4.82751C25.8306 5.36449 26.3328 6.11745 26.56 6.96933L29.3773 17.5373C28.1366 16.5401 26.5919 15.9976 25 16H7C5.4077 15.9973 3.86247 16.5398 2.62134 17.5373L5.44 6.96933Z" fill="url(#paint0_linear_2218_9815)"/>
<path fill-rule="evenodd" clip-rule="evenodd" d="M7 18C6.34339 18 5.69321 18.1293 5.08658 18.3806C4.47995 18.6319 3.92876 19.0002 3.46447 19.4645C3.00017 19.9288 2.63188 20.48 2.3806 21.0866C2.12933 21.6932 2 22.3434 2 23C2 23.6566 2.12933 24.3068 2.3806 24.9134C2.63188 25.52 3.00017 26.0712 3.46447 26.5355C3.92876 26.9998 4.47995 27.3681 5.08658 27.6194C5.69321 27.8707 6.34339 28 7 28H25C25.6566 28 26.3068 27.8707 26.9134 27.6194C27.52 27.3681 28.0712 26.9998 28.5355 26.5355C28.9998 26.0712 29.3681 25.52 29.6194 24.9134C29.8707 24.3068 30 23.6566 30 23C30 22.3434 29.8707 21.6932 29.6194 21.0866C29.3681 20.48 28.9998 19.9288 28.5355 19.4645C28.0712 19.0002 27.52 18.6319 26.9134 18.3806C26.3068 18.1293 25.6566 18 25 18H7ZM21 24C21.2652 24 21.5196 23.8946 21.7071 23.7071C21.8946 23.5196 22 23.2652 22 23C22 22.7348 21.8946 22.4804 21.7071 22.2929C21.5196 22.1054 21.2652 22 21 22C20.7348 22 20.4804 22.1054 20.2929 22.2929C20.1054 22.4804 20 22.7348 20 23C20 23.2652 20.1054 23.5196 20.2929 23.7071C20.4804 23.8946 20.7348 24 21 24ZM26 23C26 23.2652 25.8946 23.5196 25.7071 23.7071C25.5196 23.8946 25.2652 24 25 24C24.7348 24 24.4804 23.8946 24.2929 23.7071C24.1054 23.5196 24 23.2652 24 23C24 22.7348 24.1054 22.4804 24.2929 22.2929C24.4804 22.1054 24.7348 22 25 22C25.2652 22 25.5196 22.1054 25.7071 22.2929C25.8946 22.4804 26 22.7348 26 23Z" fill="url(#paint1_linear_2218_9815)"/>
<defs>
<linearGradient id="paint0_linear_2218_9815" x1="2.62134" y1="10.7687" x2="21.1639" y2="23.1096" gradientUnits="userSpaceOnUse">
<stop stop-color="#D52274"/>
<stop offset="0.5625" stop-color="#F44D29"/>
<stop offset="1" stop-color="#FD7E14"/>
</linearGradient>
<linearGradient id="paint1_linear_2218_9815" x1="2" y1="23" x2="16.8228" y2="36.9758" gradientUnits="userSpaceOnUse">
<stop stop-color="#D52274"/>
<stop offset="0.5625" stop-color="#F44D29"/>
<stop offset="1" stop-color="#FD7E14"/>
</linearGradient>
</defs>
</svg>
