<svg width="48" height="48" viewBox="0 0 48 48" fill="none" xmlns="http://www.w3.org/2000/svg">
<g clip-path="url(#clip0_2218_8923)">
<path d="M23.986 11.5894C24.088 11.5894 24.246 11.5554 24.26 11.4574C24.28 11.3214 24.084 11.1874 23.956 11.1874C23.794 11.1254 23.58 11.0934 23.43 11.1794C23.398 11.1954 23.36 11.2414 23.372 11.2794V11.3234C23.406 11.4374 23.596 11.4174 23.702 11.4534C23.8 11.5034 23.874 11.5894 23.986 11.5894Z" fill="url(#paint0_linear_2218_8923)"/>
<path d="M4.22199 43.992C4.57399 44.66 5.30399 44.93 6.12199 45.194C7.76199 45.594 9.98599 45.464 11.736 46.392C13.61 47.326 15.512 47.734 17.028 47.332C18.092 47.102 18.99 46.406 19.472 45.442C20.66 45.436 21.96 44.904 24.044 44.774C25.458 44.658 27.228 45.308 29.26 45.172C29.31 45.442 29.388 45.57 29.49 45.84L29.496 45.846C30.288 47.402 31.748 48.11 33.308 47.988C34.868 47.868 36.528 46.916 37.874 45.376C39.15 43.846 41.278 43.208 42.684 42.37C43.388 41.972 43.956 41.432 43.998 40.664C44.044 39.864 43.596 39.04 42.554 37.91V37.716L42.548 37.71C42.204 37.31 42.042 36.64 41.864 35.858C41.692 35.056 41.496 34.286 40.868 33.766H40.862C40.742 33.658 40.614 33.632 40.482 33.496C40.368 33.42 40.238 33.372 40.098 33.368C40.97 30.812 40.632 28.268 39.748 25.98C38.67 23.16 36.784 20.704 35.348 19.014C33.738 17.004 32.16 15.1 32.19 12.276C32.244 7.972 32.67 0.01 25.02 0C24.706 0 24.382 0.016 24.05 0.042C15.498 0.708 17.766 9.656 17.636 12.638C17.482 14.822 17.03 16.544 15.51 18.678C13.72 20.78 11.206 24.178 10.016 27.72C9.45399 29.384 9.18599 31.088 9.43599 32.698C9.35799 32.766 9.28199 32.834 9.21199 32.968C8.68599 33.504 8.30399 34.17 7.87199 34.646C7.46999 35.044 6.89199 35.18 6.25999 35.446C5.62599 35.718 4.92799 35.984 4.51199 36.808C4.32999 37.184 4.23599 37.594 4.24399 38.01C4.24399 38.408 4.29799 38.812 4.35599 39.082C4.47399 39.88 4.58999 40.54 4.43599 41.022C3.93199 42.38 3.86999 43.312 4.22199 43.992ZM40.504 34.28L40.51 34.286C40.93 34.684 41.126 35.348 41.3 36.038C41.472 36.84 41.612 37.598 42.128 38.17C43.112 39.224 43.432 39.982 43.414 40.45L43.42 40.438V40.474L43.414 40.45C43.384 40.974 43.04 41.242 42.406 41.64C41.132 42.442 38.874 43.064 37.436 44.78C36.186 46.254 34.662 47.058 33.318 47.162C31.972 47.266 30.816 46.762 30.134 45.366L30.124 45.36C29.7 44.558 29.882 43.31 30.238 41.98C30.594 40.644 31.104 39.29 31.174 38.184C31.248 36.756 31.328 35.514 31.568 34.556C31.81 33.626 32.19 32.962 32.864 32.588L32.956 32.544V32.54C33.03 33.742 33.65 35.03 34.74 35.294C35.93 35.562 37.642 34.628 38.364 33.764L38.79 33.746C39.426 33.73 39.956 33.766 40.504 34.28ZM23.714 9.812C23.698 9.284 23.8 8.76 24.018 8.274C24.184 7.836 24.488 7.462 24.888 7.208C25.234 6.95 25.654 6.81 26.09 6.81H26.116C26.546 6.81 26.918 6.934 27.298 7.206C27.684 7.476 27.966 7.87 28.186 8.272C28.398 8.79 28.506 9.19 28.522 9.72C28.522 9.68 28.534 9.64 28.534 9.602V9.81C28.53 9.796 28.526 9.78 28.526 9.768L28.516 9.72C28.512 10.206 28.408 10.686 28.212 11.132C28.116 11.382 27.972 11.612 27.782 11.802C27.724 11.77 27.666 11.742 27.604 11.718C27.392 11.628 27.202 11.59 27.028 11.452C26.884 11.396 26.734 11.35 26.584 11.32C26.684 11.202 26.878 11.054 26.952 10.924C27.06 10.668 27.118 10.396 27.13 10.12V10.082C27.134 9.812 27.094 9.54 27.006 9.282C26.916 9.012 26.802 8.88 26.636 8.614C26.466 8.482 26.298 8.35 26.096 8.35H26.064C25.876 8.35 25.708 8.41 25.534 8.614C25.342 8.802 25.198 9.028 25.12 9.282C25.012 9.536 24.95 9.81 24.938 10.082V10.12C24.942 10.298 24.954 10.478 24.978 10.654C24.588 10.52 24.092 10.384 23.75 10.25C23.73 10.12 23.718 9.986 23.714 9.852V9.812ZM18.678 8.398C18.79 8.004 18.986 7.64 19.252 7.328C19.512 7.062 19.778 6.928 20.098 6.928H20.172C20.46 6.928 20.718 7.024 20.98 7.198C21.276 7.456 21.514 7.774 21.676 8.128C21.858 8.526 21.962 8.93 21.986 9.462V9.47C22 9.738 21.998 9.872 21.982 10.002V10.162C21.922 10.176 21.868 10.198 21.814 10.21C21.506 10.32 21.26 10.48 21.018 10.61C21.042 10.432 21.044 10.252 21.024 10.076V10.046C21 9.78 20.946 9.648 20.858 9.38C20.796 9.176 20.68 8.994 20.522 8.846C20.422 8.756 20.29 8.71 20.152 8.718H20.11C19.964 8.73 19.844 8.8 19.73 8.982C19.6 9.136 19.518 9.324 19.488 9.522C19.434 9.738 19.418 9.96 19.442 10.184V10.212C19.466 10.482 19.516 10.614 19.606 10.88C19.696 11.148 19.802 11.28 19.94 11.416C19.962 11.434 19.982 11.452 20.008 11.464C19.866 11.578 19.772 11.604 19.652 11.736C19.578 11.792 19.49 11.856 19.388 11.872C19.178 11.622 18.992 11.352 18.832 11.068C18.638 10.648 18.536 10.192 18.518 9.734C18.482 9.282 18.54 8.83 18.678 8.398ZM18.894 12.61C19.346 12.34 19.662 12.068 19.87 11.94C20.08 11.792 20.16 11.736 20.226 11.678H20.23V11.672C20.572 11.268 21.112 10.734 21.928 10.47C22.21 10.398 22.522 10.34 22.87 10.34C23.54 10.34 24.35 10.47 25.328 11.138C25.92 11.538 26.386 11.676 27.458 12.074H27.464C27.98 12.346 28.284 12.606 28.432 12.872V12.608C28.58 12.902 28.59 13.244 28.464 13.548C28.216 14.17 27.42 14.836 26.312 15.234V15.238C25.77 15.508 25.298 15.904 24.744 16.168C24.186 16.438 23.554 16.752 22.696 16.702C22.388 16.718 22.078 16.672 21.79 16.568C21.568 16.448 21.348 16.316 21.138 16.172C20.744 15.902 20.404 15.508 19.9 15.242V15.232H19.89C19.082 14.74 18.644 14.208 18.502 13.812C18.364 13.274 18.492 12.874 18.894 12.61ZM12.594 27.502C13.09 25.362 14.36 23.282 15.172 21.976C15.388 21.846 15.246 22.246 14.346 23.924C13.544 25.426 12.038 28.918 14.1 31.632C14.176 29.654 14.622 27.702 15.408 25.88C16.548 23.324 18.934 18.872 19.122 15.344C19.22 15.416 19.56 15.614 19.706 15.748C20.148 16.014 20.474 16.414 20.9 16.678C21.326 17.08 21.864 17.348 22.672 17.348C22.75 17.354 22.824 17.36 22.896 17.36C23.728 17.36 24.37 17.092 24.912 16.824C25.498 16.556 25.966 16.156 26.41 16.024H26.42C27.364 15.754 28.112 15.22 28.534 14.624C29.26 17.458 30.956 21.574 32.046 23.57C32.624 24.638 33.776 26.888 34.276 29.618C34.592 29.608 34.942 29.654 35.314 29.746C36.62 26.404 34.21 22.812 33.112 21.814C32.664 21.412 32.642 21.144 32.864 21.144C34.056 22.212 35.626 24.288 36.194 26.658C36.456 27.728 36.516 28.866 36.236 29.998C36.372 30.054 36.51 30.12 36.65 30.132C38.738 31.2 39.508 32.008 39.138 33.206V33.12C39.014 33.114 38.896 33.12 38.772 33.12H38.742C39.048 32.186 38.374 31.47 36.588 30.672C34.736 29.872 33.258 30 33.006 31.602C32.992 31.688 32.982 31.734 32.972 31.872C32.834 31.918 32.69 31.978 32.55 32C31.68 32.536 31.21 33.338 30.946 34.374C30.682 35.44 30.602 36.686 30.532 38.112V38.118C30.49 38.786 30.186 39.794 29.886 40.82C26.852 42.964 22.644 43.896 19.064 41.488C18.84 41.102 18.566 40.74 18.25 40.422C18.1 40.172 17.91 39.948 17.694 39.754C18.062 39.754 18.378 39.696 18.634 39.62C18.928 39.486 19.154 39.244 19.27 38.952C19.488 38.418 19.27 37.558 18.572 36.626C17.874 35.692 16.688 34.636 14.954 33.584C13.68 32.786 12.96 31.844 12.628 30.792C12.29 29.724 12.334 28.622 12.594 27.502ZM5.09599 41.126V41.12L5.09999 41.114C5.33599 40.446 5.15999 39.608 5.04599 38.876C4.93399 38.074 4.87799 37.458 5.13199 36.996C5.45599 36.328 5.93399 36.198 6.52599 35.93C7.12399 35.66 7.82199 35.526 8.37999 34.992H8.38399V34.986C8.90199 34.45 9.28399 33.784 9.73599 33.31C10.12 32.908 10.504 32.638 11.078 32.638H11.098C11.206 32.638 11.31 32.648 11.416 32.666C12.176 32.776 12.844 33.332 13.486 34.17L15.328 37.498L15.334 37.504C15.826 38.57 16.86 39.632 17.74 40.78C18.618 41.976 19.298 43.042 19.214 43.92V43.932C19.098 45.42 18.244 46.228 16.938 46.52C15.634 46.79 13.862 46.524 12.092 45.592C10.134 44.52 7.80799 44.654 6.31199 44.388C5.56599 44.256 5.07599 43.986 4.84999 43.586C4.62199 43.186 4.61799 42.382 5.09599 41.126Z" fill="url(#paint1_linear_2218_8923)"/>
<path d="M21.638 11.5898C21.746 11.5898 21.824 11.5038 21.92 11.4538C22.028 11.4198 22.216 11.4378 22.256 11.3218H22.25V11.2798C22.262 11.2398 22.228 11.1978 22.19 11.1798C22.038 11.0958 21.83 11.1278 21.666 11.1898C21.54 11.1898 21.344 11.3238 21.362 11.4558C21.374 11.5538 21.536 11.5898 21.638 11.5898ZM19.962 14.6278C20.588 15.0258 21.454 15.5598 22.55 15.5598C23.648 15.5598 24.678 14.8938 25.558 14.4898V14.4918C26.022 14.2258 26.588 13.8258 26.954 13.5558C27.32 13.1578 27.512 12.9218 27.252 12.8898C26.988 12.8898 27.004 13.1518 26.688 13.4258C26.278 13.6918 25.772 14.0898 25.378 14.3598C24.68 14.7578 23.53 15.2918 22.55 15.2918C21.566 15.2918 20.78 14.7578 20.192 14.3578C19.892 14.0898 19.652 13.8238 19.458 13.6918C19.316 13.5618 19.276 13.3238 19.056 13.2918C18.914 13.2918 18.874 13.6918 19.206 13.9598C19.394 14.0918 19.648 14.3598 19.962 14.6278Z" fill="url(#paint2_linear_2218_8923)"/>
</g>
<defs>
<linearGradient id="paint0_linear_2218_8923" x1="23.3697" y1="11.3582" x2="23.997" y2="11.7655" gradientUnits="userSpaceOnUse">
<stop stop-color="#D52274"/>
<stop offset="0.5625" stop-color="#F44D29"/>
<stop offset="1" stop-color="#FD7E14"/>
</linearGradient>
<linearGradient id="paint1_linear_2218_8923" x1="3.99963" y1="24.0007" x2="41.0812" y2="34.4064" gradientUnits="userSpaceOnUse">
<stop stop-color="#D52274"/>
<stop offset="0.5625" stop-color="#F44D29"/>
<stop offset="1" stop-color="#FD7E14"/>
</linearGradient>
<linearGradient id="paint2_linear_2218_8923" x1="18.9508" y1="13.3443" x2="24.925" y2="17.1677" gradientUnits="userSpaceOnUse">
<stop stop-color="#D52274"/>
<stop offset="0.5625" stop-color="#F44D29"/>
<stop offset="1" stop-color="#FD7E14"/>
</linearGradient>
<clipPath id="clip0_2218_8923">
<rect width="48" height="48" fill="white"/>
</clipPath>
</defs>
</svg>
