<svg width="32" height="32" viewBox="0 0 32 32" fill="none" xmlns="http://www.w3.org/2000/svg">
<path d="M6.23101 8L8.43801 9.27905L4.20801 16.639L2.00101 15.359L6.23101 8ZM25.407 8L29.637 15.359L27.433 16.639L23.203 9.27905L25.407 8ZM8.91301 10.457L9.76101 10.947L10.304 11.2631C9.99815 11.5542 9.73549 11.8876 9.52401 12.2531L8.31101 14.365C8.10579 14.7343 7.95426 15.1309 7.86101 15.543L7.30601 15.223L6.45801 14.73L8.91301 10.457ZM22.726 10.457L25.183 14.73L24.845 14.925L24.333 15.222L23.821 15.519L23.796 15.535C23.7 15.1519 23.5541 14.7831 23.362 14.438C23.3522 14.4131 23.3405 14.389 23.327 14.366L22.114 12.254C21.9021 11.8882 21.6395 11.5542 21.334 11.262L21.366 11.244L21.88 10.947L22.392 10.65L22.726 10.457ZM18.503 11.009C19.163 11.056 19.801 11.298 20.337 11.709C20.694 11.982 21.006 12.332 21.247 12.752L22.46 14.8621C22.9 15.6301 23.015 16.4841 22.858 17.2791C22.768 17.1891 22.668 17.1051 22.554 17.0391L18.462 14.666C18.488 14.36 18.432 14.046 18.282 13.759C18.2742 13.7378 18.2652 13.7171 18.255 13.697C18.251 13.687 18.247 13.683 18.243 13.675C18.241 13.675 18.239 13.675 18.237 13.665C18.2252 13.6475 18.2121 13.6308 18.198 13.615C18.0919 13.4433 17.9549 13.2928 17.794 13.171H17.792C17.5172 12.9741 17.1912 12.861 16.8535 12.8453C16.5158 12.8297 16.1808 12.9123 15.889 13.083C15.882 13.083 15.876 13.093 15.869 13.095L13.61 14.405C13.5859 14.4197 13.5632 14.4364 13.542 14.455L13.482 14.49C12.978 14.781 12.382 14.587 11.909 14.16L13.241 13.384L16.092 11.7321H16.094L16.538 11.472C17.1319 11.1247 17.8167 10.9643 18.503 11.012V11.009ZM13.128 11.031C13.6955 10.9998 14.2624 11.1036 14.782 11.334L14.142 11.705L14.099 11.7321L12.739 12.522L10.821 13.636C10.7064 13.7023 10.6228 13.8114 10.5885 13.9392C10.5542 14.0671 10.572 14.2032 10.638 14.318C11.331 15.525 12.826 16.026 13.983 15.355L16.222 14.057C16.229 14.057 16.235 14.047 16.242 14.045L16.392 13.949C16.75 13.741 17.145 13.8411 17.345 14.1381C17.2416 14.1517 17.145 14.1973 17.0687 14.2686C16.9925 14.3398 16.9405 14.4332 16.92 14.5355C16.8995 14.6378 16.9115 14.744 16.9544 14.8391C16.9972 14.9343 17.0688 15.0136 17.159 15.066L17.614 15.329H17.616C17.6438 15.3482 17.6732 15.365 17.704 15.379L22.054 17.902C22.1163 17.9367 22.1709 17.9836 22.2146 18.0399C22.2583 18.0962 22.2902 18.1607 22.3084 18.2296C22.3266 18.2985 22.3307 18.3703 22.3205 18.4408C22.3103 18.5113 22.286 18.5791 22.249 18.64C22.2155 18.7022 22.1696 18.757 22.1142 18.8009C22.0589 18.8448 21.9951 18.8769 21.9269 18.8954C21.8587 18.9138 21.7874 18.9181 21.7174 18.9081C21.6475 18.8981 21.5803 18.8739 21.52 18.837L16.657 16.017L16.145 15.72C15.568 15.382 15.063 16.252 15.643 16.585L16.155 16.882L16.452 17.054L21.018 19.702H21.022L21.53 19.998C21.5923 20.0327 21.647 20.0794 21.6908 20.1356C21.7346 20.1919 21.7667 20.2564 21.785 20.3253C21.8033 20.3942 21.8075 20.4661 21.7973 20.5366C21.7872 20.6072 21.7629 20.675 21.726 20.736C21.6926 20.7983 21.6468 20.8531 21.5914 20.8971C21.536 20.9411 21.4723 20.9734 21.404 20.9918C21.3357 21.0103 21.2644 21.0145 21.1944 21.0044C21.1245 20.9943 21.0573 20.97 20.997 20.933L20.485 20.636L15.622 17.816L15.112 17.519C14.536 17.184 14.034 18.049 14.61 18.384L15.122 18.681L19.985 21.501C20.0471 21.5354 20.1017 21.582 20.1454 21.6379C20.1891 21.6939 20.221 21.7582 20.2393 21.8268C20.2576 21.8954 20.2619 21.967 20.2519 22.0374C20.2418 22.1077 20.2177 22.1752 20.181 22.236C20.1476 22.2983 20.1018 22.3531 20.0464 22.3971C19.991 22.4411 19.9273 22.4734 19.859 22.4918C19.7907 22.5103 19.7194 22.5145 19.6494 22.5044C19.5794 22.4943 19.5123 22.47 19.452 22.433L18.427 21.839L17.48 21.2891L13.054 18.722C12.477 18.387 11.974 19.252 12.552 19.587L13.575 20.181L17.927 22.705C17.9892 22.7396 18.0439 22.7866 18.0876 22.8429C18.1313 22.8992 18.1632 22.9637 18.1814 23.0326C18.1996 23.1015 18.2037 23.1733 18.1935 23.2438C18.1833 23.3143 18.159 23.3821 18.122 23.443C18.0885 23.5051 18.0427 23.5597 17.9873 23.6035C17.932 23.6473 17.8682 23.6792 17.8001 23.6975C17.7319 23.7158 17.6607 23.72 17.5909 23.7097C17.5211 23.6995 17.4541 23.6751 17.394 23.6381L12.331 20.705H12.325L10.429 19.6071C10.326 19.5471 10.241 19.4711 10.147 19.4041C10.08 19.293 9.97241 19.2122 9.84701 19.179C9.2573 18.6459 8.86901 17.9261 8.74737 17.1405C8.62572 16.3549 8.77814 15.5515 9.17901 14.865L10.391 12.7531C10.6686 12.2617 11.0641 11.847 11.5419 11.5468C12.0198 11.2465 12.5649 11.0699 13.128 11.033V11.031ZM3.75501 14.295C3.62408 14.2937 3.49637 14.3357 3.39169 14.4143C3.28701 14.493 3.21119 14.6039 3.17598 14.73C3.14078 14.8561 3.14816 14.9903 3.19698 15.1118C3.2458 15.2333 3.33333 15.3353 3.44601 15.402C3.51315 15.4409 3.58732 15.4661 3.66424 15.4763C3.74117 15.4865 3.81936 15.4815 3.89432 15.4614C3.96928 15.4414 4.03955 15.4068 4.1011 15.3595C4.16265 15.3122 4.21427 15.2533 4.25301 15.186C4.30395 15.0969 4.33098 14.9961 4.33145 14.8934C4.33192 14.7908 4.30582 14.6898 4.25569 14.6002C4.20557 14.5106 4.13311 14.4355 4.04538 14.3822C3.95764 14.3289 3.85761 14.2982 3.75501 14.295ZM27.884 14.295C27.7814 14.2982 27.6814 14.3279 27.5936 14.3812C27.5059 14.4345 27.4335 14.5095 27.3833 14.5991C27.3332 14.6887 27.3071 14.7898 27.3076 14.8925C27.308 14.9951 27.3351 15.0959 27.386 15.1851C27.4247 15.2523 27.4762 15.3111 27.5376 15.3584C27.599 15.4057 27.6692 15.4404 27.744 15.4606C27.8189 15.4807 27.897 15.4859 27.9738 15.4758C28.0507 15.4658 28.1248 15.4407 28.192 15.402C28.3046 15.3353 28.3921 15.2335 28.4409 15.1121C28.4898 14.9907 28.4972 14.8565 28.4622 14.7305C28.4271 14.6044 28.3514 14.4934 28.2469 14.4147C28.1424 14.3359 28.0148 14.294 27.884 14.295ZM9.84401 20.412C9.87401 20.43 9.89701 20.453 9.92701 20.472L10.687 20.911L10.64 20.936C10.5797 20.9731 10.5125 20.9975 10.4424 21.0076C10.3724 21.0177 10.301 21.0133 10.2326 20.9948C10.1643 20.9762 10.1005 20.9438 10.0452 20.8997C9.98991 20.8555 9.94423 20.8005 9.91101 20.738C9.85506 20.6391 9.83095 20.5249 9.84401 20.412ZM11.679 21.486L12.753 22.109L12.186 22.438C12.1258 22.4749 12.0588 22.4991 11.989 22.5092C11.9191 22.5192 11.848 22.515 11.7798 22.4967C11.7117 22.4784 11.648 22.4463 11.5927 22.4025C11.5373 22.3587 11.4915 22.3042 11.458 22.2421C11.4212 22.1813 11.397 22.1137 11.3869 22.0433C11.3768 21.973 11.381 21.9013 11.3992 21.8326C11.4174 21.7639 11.4493 21.6995 11.4929 21.6434C11.5365 21.5873 11.5909 21.5406 11.653 21.506C11.663 21.496 11.67 21.495 11.679 21.488V21.486ZM13.747 22.686L14.821 23.309L14.243 23.6429C14.1828 23.6798 14.1158 23.7041 14.046 23.7142C13.9761 23.7243 13.905 23.72 13.8368 23.7017C13.7687 23.6833 13.705 23.6513 13.6497 23.6075C13.5943 23.5638 13.5485 23.5091 13.515 23.447C13.4782 23.386 13.4542 23.3181 13.4442 23.2476C13.4342 23.177 13.4385 23.1051 13.4569 23.0363C13.4753 22.9674 13.5073 22.9029 13.5512 22.8467C13.595 22.7905 13.6497 22.7436 13.712 22.709C13.724 22.699 13.736 22.694 13.747 22.686Z" fill="url(#paint0_linear_2586_13980)"/>
<defs>
<linearGradient id="paint0_linear_2586_13980" x1="2.00101" y1="15.8598" x2="22.4651" y2="27.9745" gradientUnits="userSpaceOnUse">
<stop stop-color="#D52274"/>
<stop offset="0.5625" stop-color="#F44D29"/>
<stop offset="1" stop-color="#FD7E14"/>
</linearGradient>
</defs>
</svg>
