<svg width="24" height="24" viewBox="0 0 24 24" fill="none" xmlns="http://www.w3.org/2000/svg">
<path d="M1.99988 6.28571C1.99988 5.14907 2.45141 4.05898 3.25513 3.25526C4.05886 2.45153 5.14895 2 6.28559 2H17.7142C18.8508 2 19.9409 2.45153 20.7446 3.25526C21.5483 4.05898 21.9999 5.14907 21.9999 6.28571V17.7143C21.9999 18.8509 21.5483 19.941 20.7446 20.7447C19.9409 21.5485 18.8508 22 17.7142 22H6.28559C5.14895 22 4.05886 21.5485 3.25513 20.7447C2.45141 19.941 1.99988 18.8509 1.99988 17.7143V6.28571ZM6.99988 6.28571C6.81044 6.28571 6.62876 6.36097 6.4948 6.49492C6.36085 6.62888 6.28559 6.81056 6.28559 7C6.28559 7.18944 6.36085 7.37112 6.4948 7.50508C6.62876 7.63903 6.81044 7.71429 6.99988 7.71429H16.9999C17.1893 7.71429 17.371 7.63903 17.505 7.50508C17.6389 7.37112 17.7142 7.18944 17.7142 7C17.7142 6.81056 17.6389 6.62888 17.505 6.49492C17.371 6.36097 17.1893 6.28571 16.9999 6.28571H6.99988Z" fill="currentColor"/>
</svg>
