<svg width="24" height="24" viewBox="0 0 24 24" fill="none" xmlns="http://www.w3.org/2000/svg">
<path d="M20 7H14.6667V2L20 7ZM14.6667 8.25H20V20.125C20 21.1605 19.1046 22 18 22H6C4.89542 22 4 21.1602 4 20.125V3.875C4 2.83945 4.89542 2 6 2H13.3333L13.3335 7C13.3333 7.69141 13.9292 8.25 14.6667 8.25ZM6.66667 5.4375C6.66667 5.60859 6.81792 5.75 7 5.75H10.3333C10.5167 5.75 10.6667 5.60859 10.6667 5.4375V4.8125C10.6667 4.6418 10.5167 4.5 10.3333 4.5H7C6.81792 4.5 6.66667 4.6418 6.66667 4.8125V5.4375ZM7 8.25H10.3333C10.5167 8.25 10.6667 8.10938 10.6667 7.9375V7.3125C10.6667 7.14062 10.5167 7 10.3333 7H7C6.81792 7 6.66667 7.14062 6.66667 7.3125V7.9375C6.66667 8.10938 6.81792 8.25 7 8.25ZM12.2292 14.375L11.9625 14.3125C11.0125 14.0391 11.0333 13.8789 11.0667 13.7383C11.124 13.4331 11.7579 13.3586 12.3279 13.4404C12.561 13.4734 12.8167 13.5503 13.0608 13.6296C13.4938 13.77 13.9704 13.5539 14.1213 13.1476C14.2723 12.7398 14.0425 12.2945 13.6075 12.1527C13.3067 12.0557 13.0613 11.9934 12.8342 11.9467V11.6875C12.8342 11.2566 12.4611 10.9062 12.0008 10.9062C11.5405 10.9062 11.1675 11.2566 11.1675 11.6875V11.9216C10.2333 12.1094 9.575 12.6563 9.425 13.4727C9.11642 15.1461 10.8079 15.6113 11.53 15.8102L11.7722 15.8761C12.9922 16.2032 12.9722 16.3132 12.9355 16.512C12.8782 16.8172 12.2443 16.8929 11.6726 16.8099C11.3835 16.7696 11.0138 16.6451 10.6867 16.5352L10.5005 16.4718C10.0668 16.3314 9.59096 16.5425 9.43721 16.9491C9.28421 17.3557 9.51142 17.8022 9.94554 17.9464L10.1233 18.005C10.4465 18.1139 10.8058 18.2233 11.1675 18.2984V18.5625C11.1675 18.9934 11.5405 19.3438 12.0008 19.3438C12.4611 19.3438 12.8341 18.9934 12.8341 18.5625V18.3182C13.7658 18.131 14.4262 17.5944 14.577 16.778C14.8875 15.0859 13.1583 14.6211 12.2292 14.375Z" fill="currentColor"/>
</svg>
