<svg width="24" height="24" viewBox="0 0 24 24" fill="none" xmlns="http://www.w3.org/2000/svg">
<path d="M21.2292 5.67061C20.6256 2.09821 17.3652 -0.289793 13.9464 0.341407C10.5264 0.971407 7.63923 3.72061 8.24283 7.29541C8.37123 8.06461 8.73243 9.26821 9.15843 10.1334L2.94844 19.401C2.71924 19.743 2.58964 20.3598 2.65804 20.7702L3.05764 23.1354C3.07198 23.2312 3.10513 23.3232 3.15518 23.4061C3.20524 23.4891 3.2712 23.5613 3.34928 23.6186C3.42735 23.6759 3.516 23.7173 3.61011 23.7402C3.70422 23.7631 3.80194 23.7672 3.89764 23.7522L5.71684 23.415C6.11044 23.3442 6.60964 22.9974 6.82564 22.6482L9.28203 18.675L9.30363 18.6486L10.9668 18.3414L13.8348 13.6866C14.7768 13.8534 16.1292 13.797 16.9284 13.6494C20.346 13.0182 21.8328 9.24541 21.2292 5.67061ZM18.1992 7.50301C17.2584 8.90701 16.2984 7.91821 14.9556 6.93301C13.6128 5.95141 12.3936 5.34661 13.3332 3.94261C14.274 2.53861 16.1244 2.19661 17.4696 3.18061C18.8136 4.16341 19.1388 6.09901 18.1992 7.50301Z" fill="currentColor"/>
</svg>
