<svg width="24" height="24" viewBox="0 0 24 24" fill="none" xmlns="http://www.w3.org/2000/svg">
<path d="M5 21.9995H19C19.5304 21.9995 20.0391 21.7888 20.4142 21.4138C20.7893 21.0387 21 20.53 21 19.9995V8.99954C21 8.73432 20.8946 8.47997 20.7071 8.29243C20.5196 8.1049 20.2652 7.99954 20 7.99954H17V7.22254C17 4.61354 15.097 2.27754 12.5 2.02454C11.8049 1.95545 11.103 2.03264 10.4395 2.25114C9.77599 2.46964 9.16557 2.82461 8.64752 3.29321C8.12946 3.76182 7.71524 4.33368 7.43149 4.97201C7.14774 5.61033 7.00076 6.30099 7 6.99954V7.99954H4C3.73478 7.99954 3.48043 8.1049 3.29289 8.29243C3.10536 8.47997 3 8.73432 3 8.99954V19.9995C3 20.53 3.21071 21.0387 3.58579 21.4138C3.96086 21.7888 4.46957 21.9995 5 21.9995ZM17 9.99954V11.9995H15V9.99954H17ZM9 6.99954C9 5.34554 10.346 3.99954 12 3.99954C13.654 3.99954 15 5.34554 15 6.99954V7.99954H9V6.99954ZM7 9.99954H9V11.9995H7V9.99954Z" fill="currentColor"/>
</svg>
