<svg width="24" height="24" viewBox="0 0 24 24" fill="none" xmlns="http://www.w3.org/2000/svg">
<path fill-rule="evenodd" clip-rule="evenodd" d="M11.7656 4.6875H10.1016C10.0083 4.6875 9.9189 4.65046 9.85297 4.58453C9.78704 4.5186 9.75 4.42918 9.75 4.33594C9.75 4.2427 9.78704 4.15328 9.85297 4.08735C9.9189 4.02141 10.0083 3.98438 10.1016 3.98438H11.7656V2.36719C11.7656 2.27395 11.8027 2.18453 11.8686 2.1186C11.9345 2.05266 12.0239 2.01562 12.1172 2.01562C12.2104 2.01562 12.2998 2.05266 12.3658 2.1186C12.4317 2.18453 12.4688 2.27395 12.4688 2.36719V3.98438H14.0859C14.1792 3.98438 14.2686 4.02141 14.3345 4.08735C14.4005 4.15328 14.4375 4.2427 14.4375 4.33594C14.4375 4.42918 14.4005 4.5186 14.3345 4.58453C14.2686 4.65046 14.1792 4.6875 14.0859 4.6875H12.4688V6.35156C12.4688 6.4448 12.4317 6.53422 12.3658 6.60015C12.2998 6.66609 12.2104 6.70312 12.1172 6.70312C12.0239 6.70312 11.9345 6.66609 11.8686 6.60015C11.8027 6.53422 11.7656 6.4448 11.7656 6.35156V4.6875ZM13.8076 1.12228C13.2864 0.847744 12.7063 0.703905 12.1172 0.703125C11.5281 0.703905 10.948 0.847744 10.4268 1.12228C9.90557 1.39681 9.45882 1.79382 9.12496 2.27917C8.79109 2.76453 8.5801 3.3237 8.51012 3.90863C8.44014 4.49355 8.51326 5.08672 8.7232 5.63714C8.73188 5.65512 8.739 5.67382 8.74448 5.69302C9.06468 6.49016 9.65812 7.14734 10.4186 7.54692H13.8158C14.5763 7.14734 15.1697 6.49016 15.4899 5.69302C15.4954 5.67382 15.5025 5.65512 15.5112 5.63714C15.7211 5.08672 15.7942 4.49355 15.7243 3.90863C15.6543 3.3237 15.4433 2.76453 15.1094 2.27917C14.7756 1.79382 14.3288 1.39681 13.8076 1.12228ZM3.28789 6.27355C3.07454 6.36193 2.88084 6.49175 2.718 6.6555C2.47218 6.90133 2.30477 7.21454 2.23695 7.55552C2.16912 7.89649 2.20393 8.24992 2.33698 8.57112C2.47002 8.89231 2.69531 9.16684 2.98437 9.35999C3.27344 9.55314 3.61328 9.65624 3.96094 9.65625H18.8438V7.19531C18.8434 6.91569 18.7322 6.6476 18.5345 6.44988C18.3368 6.25215 18.0687 6.14093 17.7891 6.14062H16.0629C15.8194 6.67474 15.4691 7.15333 15.0336 7.54688H17.4141C17.5073 7.54688 17.5967 7.58391 17.6627 7.64985C17.7286 7.71578 17.7656 7.8052 17.7656 7.89844C17.7656 7.99168 17.7286 8.0811 17.6627 8.14703C17.5967 8.21296 17.5073 8.25 17.4141 8.25H13.9037L13.9024 8.25009L13.9015 8.25H6.77344C6.6802 8.25 6.59078 8.21296 6.52485 8.14703C6.45891 8.0811 6.42188 7.99168 6.42188 7.89844C6.42188 7.8052 6.45891 7.71578 6.52485 7.64985C6.59078 7.58391 6.6802 7.54688 6.77344 7.54688H9.20077C8.76524 7.15333 8.41493 6.67474 8.17144 6.14062H3.96094C3.73001 6.13999 3.50124 6.18517 3.28789 6.27355ZM17.8125 18.5625H21.6562V15.0938H17.8125C17.3525 15.0938 16.9114 15.2765 16.5861 15.6017C16.2609 15.927 16.0781 16.3681 16.0781 16.8281C16.0781 17.2881 16.2609 17.7293 16.5861 18.0545C16.9114 18.3798 17.3525 18.5625 17.8125 18.5625ZM17.8125 14.3906H21.6562V11.4141C21.6559 11.1344 21.5447 10.8664 21.347 10.6686C21.1493 10.4709 20.8812 10.3597 20.6016 10.3594H3.96094C3.63331 10.3595 3.30897 10.294 3.00706 10.1668C2.70516 10.0395 2.4318 9.85305 2.20312 9.61842V20.8359C2.20387 21.4884 2.46338 22.1139 2.92474 22.5753C3.38609 23.0366 4.01161 23.2961 4.66406 23.2969H20.6016C20.8812 23.2966 21.1493 23.1853 21.347 22.9876C21.5447 22.7899 21.6559 22.5218 21.6562 22.2422V19.2656H17.8125C17.166 19.2656 16.546 19.0088 16.0889 18.5517C15.6318 18.0946 15.375 17.4746 15.375 16.8281C15.375 16.1817 15.6318 15.5617 16.0889 15.1046C16.546 14.6474 17.166 14.3906 17.8125 14.3906ZM17.5436 17.0234C17.505 16.9656 17.4844 16.8977 17.4844 16.8281C17.4844 16.7349 17.5214 16.6455 17.5873 16.5795C17.6533 16.5136 17.7427 16.4766 17.8359 16.4766C17.9055 16.4766 17.9734 16.4972 18.0313 16.5358C18.0891 16.5744 18.1341 16.6293 18.1607 16.6936C18.1873 16.7578 18.1943 16.8285 18.1807 16.8967C18.1672 16.9649 18.1337 17.0275 18.0845 17.0767C18.0354 17.1259 17.9727 17.1594 17.9045 17.1729C17.8363 17.1865 17.7656 17.1795 17.7014 17.1529C17.6372 17.1263 17.5823 17.0813 17.5436 17.0234Z" fill="currentColor"/>
</svg>
