<svg width="32" height="32" viewBox="0 0 32 32" fill="none" xmlns="http://www.w3.org/2000/svg">
<path d="M12.514 28H9C7.67392 28 6.40215 27.4732 5.46447 26.5355C4.52678 25.5979 4 24.3261 4 23V12H14.674C13.2291 13.0143 12.05 14.3618 11.2364 15.9284C10.4228 17.4951 9.99867 19.2347 10 21C10 23.66 10.944 26.1 12.514 28ZM4 10H28V9C28 7.67392 27.4732 6.40215 26.5355 5.46447C25.5979 4.52678 24.3261 4 23 4H9C7.67392 4 6.40215 4.52678 5.46447 5.46447C4.52678 6.40215 4 7.67392 4 9V10ZM30 21C30 22.1819 29.7672 23.3522 29.3149 24.4442C28.8626 25.5361 28.1997 26.5282 27.364 27.364C26.5282 28.1997 25.5361 28.8626 24.4442 29.3149C23.3522 29.7672 22.1819 30 21 30C19.8181 30 18.6478 29.7672 17.5558 29.3149C16.4639 28.8626 15.4718 28.1997 14.636 27.364C13.8003 26.5282 13.1374 25.5361 12.6851 24.4442C12.2328 23.3522 12 22.1819 12 21C12 18.6131 12.9482 16.3239 14.636 14.636C16.3239 12.9482 18.6131 12 21 12C23.3869 12 25.6761 12.9482 27.364 14.636C29.0518 16.3239 30 18.6131 30 21V21ZM22 17C22 16.7348 21.8946 16.4804 21.7071 16.2929C21.5196 16.1054 21.2652 16 21 16C20.7348 16 20.4804 16.1054 20.2929 16.2929C20.1054 16.4804 20 16.7348 20 17V20H17C16.7348 20 16.4804 20.1054 16.2929 20.2929C16.1054 20.4804 16 20.7348 16 21C16 21.2652 16.1054 21.5196 16.2929 21.7071C16.4804 21.8946 16.7348 22 17 22H20V25C20 25.2652 20.1054 25.5196 20.2929 25.7071C20.4804 25.8946 20.7348 26 21 26C21.2652 26 21.5196 25.8946 21.7071 25.7071C21.8946 25.5196 22 25.2652 22 25V22H25C25.2652 22 25.5196 21.8946 25.7071 21.7071C25.8946 21.5196 26 21.2652 26 21C26 20.7348 25.8946 20.4804 25.7071 20.2929C25.5196 20.1054 25.2652 20 25 20H22V17Z" fill="currentColor"/>
</svg>
