<svg width="32" height="32" viewBox="0 0 32 32" fill="none" xmlns="http://www.w3.org/2000/svg">
<path d="M22.6667 14.6667C23.12 14.6667 23.56 14.72 24 14.7867V8.36L14 4L4 8.36V14.9067C4 20.96 8.26667 26.6267 14 28C14.7333 27.8267 15.44 27.5733 16.1333 27.2667C15.2133 25.96 14.6667 24.3733 14.6667 22.6667C14.6667 18.2533 18.2533 14.6667 22.6667 14.6667Z" fill="currentColor"/>
<path d="M22.6667 17.333C19.72 17.333 17.3333 19.7197 17.3333 22.6663C17.3333 25.613 19.72 27.9997 22.6667 27.9997C25.6133 27.9997 28 25.613 28 22.6663C28 19.7197 25.6133 17.333 22.6667 17.333ZM22.6667 19.173C23.4933 19.173 24.16 19.853 24.16 20.6663C24.16 21.4797 23.48 22.1597 22.6667 22.1597C21.8533 22.1597 21.1733 21.4797 21.1733 20.6663C21.1733 19.853 21.84 19.173 22.6667 19.173ZM22.6667 26.333C21.4267 26.333 20.3467 25.7197 19.68 24.773C19.7467 23.813 21.6933 23.333 22.6667 23.333C23.64 23.333 25.5867 23.813 25.6533 24.773C24.9867 25.7197 23.9067 26.333 22.6667 26.333Z" fill="currentColor"/>
</svg>
