<svg width="24" height="24" viewBox="0 0 24 24" fill="none" xmlns="http://www.w3.org/2000/svg">
<path d="M9.00002 2.40039C8.20438 2.40039 7.44131 2.71646 6.8787 3.27907C6.3161 3.84168 6.00002 4.60474 6.00002 5.40039V18.6004C6.00002 19.396 6.3161 20.1591 6.8787 20.7217C7.44131 21.2843 8.20438 21.6004 9.00002 21.6004H15C15.7957 21.6004 16.5587 21.2843 17.1213 20.7217C17.684 20.1591 18 19.396 18 18.6004V5.40039C18 4.60474 17.684 3.84168 17.1213 3.27907C16.5587 2.71646 15.7957 2.40039 15 2.40039H9.00002ZM9.00002 6.00039H15C15.1592 6.00039 15.3118 6.0636 15.4243 6.17613C15.5368 6.28865 15.6 6.44126 15.6 6.60039C15.6 6.75952 15.5368 6.91213 15.4243 7.02465C15.3118 7.13718 15.1592 7.20039 15 7.20039H9.00002C8.84089 7.20039 8.68828 7.13718 8.57576 7.02465C8.46324 6.91213 8.40002 6.75952 8.40002 6.60039C8.40002 6.44126 8.46324 6.28865 8.57576 6.17613C8.68828 6.0636 8.84089 6.00039 9.00002 6.00039V6.00039ZM8.40002 15.0004C8.40002 14.8413 8.46324 14.6886 8.57576 14.5761C8.68828 14.4636 8.84089 14.4004 9.00002 14.4004H15C15.1592 14.4004 15.3118 14.4636 15.4243 14.5761C15.5368 14.6886 15.6 14.8413 15.6 15.0004C15.6 15.1595 15.5368 15.3121 15.4243 15.4247C15.3118 15.5372 15.1592 15.6004 15 15.6004H9.00002C8.84089 15.6004 8.68828 15.5372 8.57576 15.4247C8.46324 15.3121 8.40002 15.1595 8.40002 15.0004ZM8.40002 17.4004C8.40002 17.2413 8.46324 17.0886 8.57576 16.9761C8.68828 16.8636 8.84089 16.8004 9.00002 16.8004H15C15.1592 16.8004 15.3118 16.8636 15.4243 16.9761C15.5368 17.0886 15.6 17.2413 15.6 17.4004C15.6 17.5595 15.5368 17.7121 15.4243 17.8247C15.3118 17.9372 15.1592 18.0004 15 18.0004H9.00002C8.84089 18.0004 8.68828 17.9372 8.57576 17.8247C8.46324 17.7121 8.40002 17.5595 8.40002 17.4004ZM2.40002 8.40039C2.40002 7.76387 2.65288 7.15342 3.10297 6.70333C3.55306 6.25325 4.1635 6.00039 4.80002 6.00039V18.6004C4.80002 18.8044 4.81442 19.0048 4.84202 19.2004H4.80002C4.1635 19.2004 3.55306 18.9475 3.10297 18.4974C2.65288 18.0474 2.40002 17.4369 2.40002 16.8004V8.40039ZM19.2 18.6004C19.2 18.8044 19.1856 19.0048 19.158 19.2004H19.2C19.8365 19.2004 20.447 18.9475 20.8971 18.4974C21.3472 18.0474 21.6 17.4369 21.6 16.8004V8.40039C21.6 7.76387 21.3472 7.15342 20.8971 6.70333C20.447 6.25325 19.8365 6.00039 19.2 6.00039V18.6004Z" fill="currentColor"/>
</svg>
