<svg width="32" height="32" viewBox="0 0 32 32" fill="none" xmlns="http://www.w3.org/2000/svg">
<g clip-path="url(#clip0_2242_10251)">
<path fill-rule="evenodd" clip-rule="evenodd" d="M18 4C21.0058 4 23.8885 5.19404 26.0139 7.31946C28.1393 9.44487 29.3333 12.3275 29.3333 15.3333C29.3333 18.3391 28.1393 21.2218 26.0139 23.3472C23.8885 25.4726 21.0058 26.6667 18 26.6667H17.3333V27.9867C17.3333 28.1636 17.2984 28.3389 17.2307 28.5023C17.1629 28.6658 17.0636 28.8143 16.9384 28.9394C16.8132 29.0644 16.6646 29.1636 16.5011 29.2312C16.3375 29.2988 16.1623 29.3335 15.9853 29.3333C12.7053 29.3307 9.38266 28.236 6.86132 25.9947C4.31732 23.7307 2.66932 20.3667 2.66666 16.012V15.3333C2.66666 12.3275 3.8607 9.44487 5.98611 7.31946C8.11153 5.19404 10.9942 4 14 4H18ZM11.3333 13.3333C10.8029 13.3333 10.2942 13.544 9.91911 13.9191C9.54404 14.2942 9.33332 14.8029 9.33332 15.3333C9.33332 15.8638 9.54404 16.3725 9.91911 16.7475C10.2942 17.1226 10.8029 17.3333 11.3333 17.3333C11.8638 17.3333 12.3725 17.1226 12.7475 16.7475C13.1226 16.3725 13.3333 15.8638 13.3333 15.3333C13.3333 14.8029 13.1226 14.2942 12.7475 13.9191C12.3725 13.544 11.8638 13.3333 11.3333 13.3333ZM20.6667 13.3333C20.1362 13.3333 19.6275 13.544 19.2524 13.9191C18.8774 14.2942 18.6667 14.8029 18.6667 15.3333C18.6667 15.8638 18.8774 16.3725 19.2524 16.7475C19.6275 17.1226 20.1362 17.3333 20.6667 17.3333C21.1971 17.3333 21.7058 17.1226 22.0809 16.7475C22.4559 16.3725 22.6667 15.8638 22.6667 15.3333C22.6667 14.8029 22.4559 14.2942 22.0809 13.9191C21.7058 13.544 21.1971 13.3333 20.6667 13.3333Z" fill="currentColor"/>
</g>
</svg>
