<svg width="32" height="32" viewBox="0 0 32 32" fill="none" xmlns="http://www.w3.org/2000/svg">
<path d="M29.25 30H28V1.5C28 0.671562 27.3284 0 26.5 0H5.5C4.67156 0 4 0.671562 4 1.5V30H2.75C2.33581 30 2 30.3358 2 30.75V32H30V30.75C30 30.3358 29.6642 30 29.25 30ZM10 4.75C10 4.33581 10.3358 4 10.75 4H13.25C13.6642 4 14 4.33581 14 4.75V7.25C14 7.66419 13.6642 8 13.25 8H10.75C10.3358 8 10 7.66419 10 7.25V4.75ZM10 10.75C10 10.3358 10.3358 10 10.75 10H13.25C13.6642 10 14 10.3358 14 10.75V13.25C14 13.6642 13.6642 14 13.25 14H10.75C10.3358 14 10 13.6642 10 13.25V10.75ZM13.25 20H10.75C10.3358 20 10 19.6642 10 19.25V16.75C10 16.3358 10.3358 16 10.75 16H13.25C13.6642 16 14 16.3358 14 16.75V19.25C14 19.6642 13.6642 20 13.25 20ZM18 30H14V24.75C14 24.3358 14.3358 24 14.75 24H17.25C17.6642 24 18 24.3358 18 24.75V30ZM22 19.25C22 19.6642 21.6642 20 21.25 20H18.75C18.3358 20 18 19.6642 18 19.25V16.75C18 16.3358 18.3358 16 18.75 16H21.25C21.6642 16 22 16.3358 22 16.75V19.25ZM22 13.25C22 13.6642 21.6642 14 21.25 14H18.75C18.3358 14 18 13.6642 18 13.25V10.75C18 10.3358 18.3358 10 18.75 10H21.25C21.6642 10 22 10.3358 22 10.75V13.25ZM22 7.25C22 7.66419 21.6642 8 21.25 8H18.75C18.3358 8 18 7.66419 18 7.25V4.75C18 4.33581 18.3358 4 18.75 4H21.25C21.6642 4 22 4.33581 22 4.75V7.25Z" fill="currentColor"/>
</svg>
