<svg width="24" height="24" viewBox="0 0 24 24" fill="none" xmlns="http://www.w3.org/2000/svg">
<path d="M21.625 7.5H2.375C1.61561 7.5 1 6.88439 1 6.125V3.375C1 2.61561 1.61561 2 2.375 2H21.625C22.3844 2 23 2.61561 23 3.375V6.125C23 6.88439 22.3844 7.5 21.625 7.5ZM19.5625 3.71875C18.9929 3.71875 18.5312 4.18045 18.5312 4.75C18.5312 5.31955 18.9929 5.78125 19.5625 5.78125C20.1321 5.78125 20.5938 5.31955 20.5938 4.75C20.5938 4.18045 20.1321 3.71875 19.5625 3.71875ZM16.8125 3.71875C16.2429 3.71875 15.7812 4.18045 15.7812 4.75C15.7812 5.31955 16.2429 5.78125 16.8125 5.78125C17.3821 5.78125 17.8438 5.31955 17.8438 4.75C17.8438 4.18045 17.3821 3.71875 16.8125 3.71875ZM21.625 14.375H2.375C1.61561 14.375 1 13.7594 1 13V10.25C1 9.49061 1.61561 8.875 2.375 8.875H21.625C22.3844 8.875 23 9.49061 23 10.25V13C23 13.7594 22.3844 14.375 21.625 14.375ZM19.5625 10.5938C18.9929 10.5938 18.5312 11.0554 18.5312 11.625C18.5312 12.1946 18.9929 12.6562 19.5625 12.6562C20.1321 12.6562 20.5938 12.1946 20.5938 11.625C20.5938 11.0554 20.1321 10.5938 19.5625 10.5938ZM16.8125 10.5938C16.2429 10.5938 15.7812 11.0554 15.7812 11.625C15.7812 12.1946 16.2429 12.6562 16.8125 12.6562C17.3821 12.6562 17.8438 12.1946 17.8438 11.625C17.8438 11.0554 17.3821 10.5938 16.8125 10.5938ZM21.625 21.25H2.375C1.61561 21.25 1 20.6344 1 19.875V17.125C1 16.3656 1.61561 15.75 2.375 15.75H21.625C22.3844 15.75 23 16.3656 23 17.125V19.875C23 20.6344 22.3844 21.25 21.625 21.25ZM19.5625 17.4688C18.9929 17.4688 18.5312 17.9304 18.5312 18.5C18.5312 19.0696 18.9929 19.5312 19.5625 19.5312C20.1321 19.5312 20.5938 19.0696 20.5938 18.5C20.5938 17.9304 20.1321 17.4688 19.5625 17.4688ZM16.8125 17.4688C16.2429 17.4688 15.7812 17.9304 15.7812 18.5C15.7812 19.0696 16.2429 19.5312 16.8125 19.5312C17.3821 19.5312 17.8438 19.0696 17.8438 18.5C17.8438 17.9304 17.3821 17.4688 16.8125 17.4688Z" fill="currentColor"/>
</svg>
