<svg width="24" height="24" viewBox="0 0 24 24" fill="none" xmlns="http://www.w3.org/2000/svg">
<path d="M3 4.60027C3 2.61182 7.02955 1 12 1C16.9705 1 21 2.61182 21 4.60027V6.39973C21 8.38818 16.9705 10 12 10C7.02955 10 3 8.38818 3 6.39973V4.60027Z" fill="currentColor"/>
<path d="M3 9.55078V13.6006C3 15.5863 7.02955 17.1995 12 17.1995C16.9705 17.1995 21 15.5877 21 13.5992V9.55078C20.3921 9.98871 19.7306 10.3471 19.0318 10.6172C17.1432 11.3732 14.6553 11.7998 12 11.7998C9.34603 11.7998 6.85811 11.3718 4.96955 10.6172C4.27069 10.3471 3.60926 9.98874 3.00135 9.55078H3Z" fill="currentColor"/>
<path d="M21 16.7514C20.392 17.1888 19.7306 17.5467 19.0318 17.8164C17.1419 18.5724 14.6553 18.999 11.9987 18.999C9.34468 18.999 6.85676 18.5724 4.9682 17.8164C4.26936 17.5463 3.60792 17.1879 3 16.75V18.999C3 20.9874 7.02955 22.5993 12 22.5993C16.9705 22.5993 21 20.9874 21 18.999V16.7514Z" fill="currentColor"/>
</svg>
