<svg width="24" height="24" viewBox="0 0 24 24" fill="none" xmlns="http://www.w3.org/2000/svg">
<path d="M21.2291 5.66963C20.6255 2.09723 17.3651 -0.29077 13.9463 0.34043C10.5263 0.97043 7.63911 3.71963 8.24271 7.29443C8.37111 8.06363 8.73231 9.26723 9.15831 10.1324L2.94831 19.4C2.71911 19.742 2.58951 20.3588 2.65791 20.7692L3.05751 23.1344C3.07186 23.2302 3.10501 23.3222 3.15506 23.4052C3.20511 23.4881 3.27108 23.5603 3.34915 23.6176C3.42723 23.675 3.51588 23.7163 3.60999 23.7392C3.7041 23.7621 3.80182 23.7662 3.89751 23.7512L5.71671 23.414C6.11031 23.3432 6.60951 22.9964 6.82551 22.6472L9.28191 18.674L9.30351 18.6476L10.9667 18.3404L13.8347 13.6856C14.7767 13.8524 16.1291 13.796 16.9283 13.6484C20.3459 13.0172 21.8327 9.24443 21.2291 5.66963V5.66963ZM18.1991 7.50203C17.2583 8.90603 16.2983 7.91723 14.9555 6.93203C13.6127 5.95043 12.3935 5.34563 13.3331 3.94163C14.2739 2.53763 16.1243 2.19563 17.4695 3.17963C18.8135 4.16243 19.1387 6.09803 18.1991 7.50203V7.50203Z" fill="currentColor"/>
</svg>
