<svg width="32" height="32" viewBox="0 0 32 32" fill="none" xmlns="http://www.w3.org/2000/svg">
<g clip-path="url(#clip0_3856_15125)">
<path d="M4 4C2.93913 4 1.92172 4.42143 1.17157 5.17157C0.421427 5.92172 0 6.93913 0 8L0 10C0 11.0609 0.421427 12.0783 1.17157 12.8284C1.92172 13.5786 2.93913 14 4 14H15V20C14.2044 20 13.4413 20.3161 12.8787 20.8787C12.3161 21.4413 12 22.2044 12 23H1C0.734784 23 0.48043 23.1054 0.292893 23.2929C0.105357 23.4804 0 23.7348 0 24C0 24.2652 0.105357 24.5196 0.292893 24.7071C0.48043 24.8946 0.734784 25 1 25H12C12 25.7956 12.3161 26.5587 12.8787 27.1213C13.4413 27.6839 14.2044 28 15 28H17C17.7956 28 18.5587 27.6839 19.1213 27.1213C19.6839 26.5587 20 25.7956 20 25H31C31.2652 25 31.5196 24.8946 31.7071 24.7071C31.8946 24.5196 32 24.2652 32 24C32 23.7348 31.8946 23.4804 31.7071 23.2929C31.5196 23.1054 31.2652 23 31 23H20C20 22.2044 19.6839 21.4413 19.1213 20.8787C18.5587 20.3161 17.7956 20 17 20V14H28C29.0609 14 30.0783 13.5786 30.8284 12.8284C31.5786 12.0783 32 11.0609 32 10V8C32 6.93913 31.5786 5.92172 30.8284 5.17157C30.0783 4.42143 29.0609 4 28 4H4ZM5 10C4.73478 10 4.48043 9.89464 4.29289 9.70711C4.10536 9.51957 4 9.26522 4 9C4 8.73478 4.10536 8.48043 4.29289 8.29289C4.48043 8.10536 4.73478 8 5 8C5.26522 8 5.51957 8.10536 5.70711 8.29289C5.89464 8.48043 6 8.73478 6 9C6 9.26522 5.89464 9.51957 5.70711 9.70711C5.51957 9.89464 5.26522 10 5 10ZM9 10C8.73478 10 8.48043 9.89464 8.29289 9.70711C8.10536 9.51957 8 9.26522 8 9C8 8.73478 8.10536 8.48043 8.29289 8.29289C8.48043 8.10536 8.73478 8 9 8C9.26522 8 9.51957 8.10536 9.70711 8.29289C9.89464 8.48043 10 8.73478 10 9C10 9.26522 9.89464 9.51957 9.70711 9.70711C9.51957 9.89464 9.26522 10 9 10Z" fill="currentColor"/>
</g>
<defs>
<clipPath id="clip0_3856_15125">
<rect width="32" height="32" fill="white"/>
</clipPath>
</defs>
</svg>
