<svg width="32" height="32" viewBox="0 0 32 32" fill="none" xmlns="http://www.w3.org/2000/svg">
<g clip-path="url(#clip0_2574_13777)">
<path d="M30.15 8.89813C29.7949 8.89814 29.4474 9.00032 29.1488 9.19247C28.8503 9.38462 28.6133 9.65862 28.4663 9.98176C28.3192 10.3049 28.2682 10.6635 28.3194 11.0149C28.3706 11.3662 28.5218 11.6954 28.755 11.9631C27.23 13.7331 25.97 14.8381 25.02 15.2431C23.62 15.8431 22.325 15.6681 21.17 14.7131C19.025 12.9381 17.63 9.91313 16.95 8.11813C17.75 7.75813 18.31 6.94813 18.31 6.01313C18.31 4.73813 17.275 3.70312 16 3.70312C15.3882 3.70445 14.8019 3.94841 14.3698 4.38147C13.9377 4.81454 13.695 5.40134 13.695 6.01313C13.6944 6.45653 13.822 6.89065 14.0624 7.26322C14.3028 7.6358 14.6457 7.93095 15.05 8.11313C14.37 9.90313 12.975 12.9281 10.835 14.7081C9.67497 15.6681 8.37997 15.8431 6.98497 15.2431C6.03497 14.8381 4.77997 13.7331 3.24497 11.9631C3.52248 11.6445 3.68255 11.2404 3.69855 10.8182C3.71456 10.396 3.58554 9.98097 3.33295 9.64224C3.08037 9.3035 2.71943 9.06144 2.31018 8.9563C1.90092 8.85117 1.46801 8.8893 1.08344 9.06436C0.698861 9.23942 0.385801 9.54085 0.196319 9.91853C0.00683706 10.2962 -0.0476476 10.7274 0.0419262 11.1403C0.1315 11.5532 0.359734 11.9231 0.688671 12.1883C1.01761 12.4535 1.42743 12.5981 1.84997 12.5981C1.89997 12.5981 1.95497 12.5981 2.00497 12.5881L5.15997 25.9581H26.845L29.995 12.5881C30.045 12.5981 30.1 12.5981 30.15 12.5981C31.17 12.5981 32 11.7681 32 10.7481C32 9.72813 31.17 8.89813 30.15 8.89813ZM16 23.6831C14.125 23.6831 12.595 22.1581 12.595 20.2831C12.595 18.4031 14.125 16.8781 16 16.8781C17.88 16.8781 19.405 18.4031 19.405 20.2831C19.405 22.1531 17.88 23.6831 16 23.6831Z" fill="currentColor"/>
<path d="M4.58997 26.4492H27.415V28.2992H4.58997V26.4492Z" fill="currentColor"/>
</g>
<defs>
<clipPath id="clip0_2574_13777">
<rect width="32" height="32" fill="currentColor"/>
</clipPath>
</defs>
</svg>
