<svg width="32" height="32" viewBox="0 0 32 32" fill="none" xmlns="http://www.w3.org/2000/svg">
<path d="M7.90477 19.3333V17.1429H10.0952V19.3333H7.90477ZM1.33334 8.38095C1.33334 7.21905 1.79491 6.10474 2.61649 5.28315C3.43808 4.46156 4.5524 4 5.7143 4H21.0476C22.2095 4 23.3238 4.46156 24.1454 5.28315C24.967 6.10474 25.4286 7.21905 25.4286 8.38095V22.619C25.4286 22.9095 25.544 23.1881 25.7494 23.3935C25.9548 23.5989 26.2333 23.7143 26.5238 23.7143C26.8143 23.7143 27.0929 23.5989 27.2983 23.3935C27.5037 23.1881 27.6191 22.9095 27.6191 22.619V8.38095C28.781 8.38095 29.8953 8.84252 30.7169 9.6641C31.5384 10.4857 32 11.6 32 12.7619V22.619C32 24.0714 31.4231 25.4643 30.3961 26.4913C29.3691 27.5183 27.9762 28.0952 26.5238 28.0952H6.80953C5.35716 28.0952 3.96427 27.5183 2.93728 26.4913C1.9103 25.4643 1.33334 24.0714 1.33334 22.619V8.38095ZM6.80953 10.5714C6.51906 10.5714 6.24048 10.6868 6.03508 10.8922C5.82969 11.0976 5.7143 11.3762 5.7143 11.6667C5.7143 11.9571 5.82969 12.2357 6.03508 12.4411C6.24048 12.6465 6.51906 12.7619 6.80953 12.7619H19.9524C20.2429 12.7619 20.5214 12.6465 20.7268 12.4411C20.9322 12.2357 21.0476 11.9571 21.0476 11.6667C21.0476 11.3762 20.9322 11.0976 20.7268 10.8922C20.5214 10.6868 20.2429 10.5714 19.9524 10.5714H6.80953ZM6.80953 14.9524C6.51906 14.9524 6.24048 15.0678 6.03508 15.2732C5.82969 15.4786 5.7143 15.7571 5.7143 16.0476V20.4286C5.7143 20.719 5.82969 20.9976 6.03508 21.203C6.24048 21.4084 6.51906 21.5238 6.80953 21.5238H11.1905C11.481 21.5238 11.7595 21.4084 11.9649 21.203C12.1703 20.9976 12.2857 20.719 12.2857 20.4286V16.0476C12.2857 15.7571 12.1703 15.4786 11.9649 15.2732C11.7595 15.0678 11.481 14.9524 11.1905 14.9524H6.80953ZM15.5714 14.9524C15.281 14.9524 15.0024 15.0678 14.797 15.2732C14.5916 15.4786 14.4762 15.7571 14.4762 16.0476C14.4762 16.3381 14.5916 16.6167 14.797 16.8221C15.0024 17.0275 15.281 17.1429 15.5714 17.1429H19.9524C20.2429 17.1429 20.5214 17.0275 20.7268 16.8221C20.9322 16.6167 21.0476 16.3381 21.0476 16.0476C21.0476 15.7571 20.9322 15.4786 20.7268 15.2732C20.5214 15.0678 20.2429 14.9524 19.9524 14.9524H15.5714ZM15.5714 19.3333C15.281 19.3333 15.0024 19.4487 14.797 19.6541C14.5916 19.8595 14.4762 20.1381 14.4762 20.4286C14.4762 20.719 14.5916 20.9976 14.797 21.203C15.0024 21.4084 15.281 21.5238 15.5714 21.5238H19.9524C20.2429 21.5238 20.5214 21.4084 20.7268 21.203C20.9322 20.9976 21.0476 20.719 21.0476 20.4286C21.0476 20.1381 20.9322 19.8595 20.7268 19.6541C20.5214 19.4487 20.2429 19.3333 19.9524 19.3333H15.5714Z" fill="currentColor" />
</svg>
