<svg width="32" height="32" viewBox="0 0 32 32" fill="none" xmlns="http://www.w3.org/2000/svg">
<path d="M24 20V24M24 28V24M24 24H20M24 24H28" stroke="currentColor" stroke-width="2" stroke-linecap="round" stroke-linejoin="round"/>
<path fill-rule="evenodd" clip-rule="evenodd" d="M6.66666 6.66797C5.60579 6.66797 4.58837 7.0894 3.83823 7.83954C3.08808 8.58969 2.66666 9.6071 2.66666 10.668V21.3346C2.66666 22.3955 3.08808 23.4129 3.83823 24.1631C4.58837 24.9132 5.60579 25.3346 6.66666 25.3346H16.1107C16.0368 24.894 15.9998 24.448 16 24.0013C16 22.4706 16.4293 21.0413 17.1747 19.8266C16.5763 20.0102 15.9433 20.0508 15.3264 19.9452C14.7095 19.8396 14.126 19.5908 13.6227 19.2188C13.1195 18.8468 12.7105 18.3619 12.4287 17.8031C12.1468 17.2443 12 16.6271 12 16.0013C12.0008 15.4263 12.1256 14.8582 12.3658 14.3358C12.606 13.8133 12.956 13.3489 13.392 12.974C13.828 12.599 14.3397 12.3226 14.8922 12.1633C15.4448 12.0041 16.0251 11.9658 16.5938 12.0512C17.1624 12.1365 17.706 12.3435 18.1874 12.6579C18.6688 12.9724 19.0768 13.3869 19.3835 13.8733C19.6902 14.3597 19.8884 14.9065 19.9647 15.4765C20.0409 16.0464 19.9934 16.6261 19.8253 17.176C21.0814 16.4057 22.5266 15.9991 24 16.0013C26.0493 16.0013 27.9187 16.772 29.3333 18.0386V10.668C29.3333 9.6071 28.9119 8.58969 28.1617 7.83954C27.4116 7.0894 26.3942 6.66797 25.3333 6.66797H6.66666ZM16 14.668C15.6464 14.668 15.3072 14.8084 15.0572 15.0585C14.8071 15.3085 14.6667 15.6477 14.6667 16.0013C14.6667 16.3549 14.8071 16.6941 15.0572 16.9441C15.3072 17.1942 15.6464 17.3346 16 17.3346C16.3536 17.3346 16.6927 17.1942 16.9428 16.9441C17.1928 16.6941 17.3333 16.3549 17.3333 16.0013C17.3333 15.6477 17.1928 15.3085 16.9428 15.0585C16.6927 14.8084 16.3536 14.668 16 14.668Z" fill="currentColor"/>
</svg>
