<svg width="32" height="32" viewBox="0 0 32 32" fill="none" xmlns="http://www.w3.org/2000/svg">
<path d="M30 10H2C0.895437 10 0 9.10456 0 8V4C0 2.89544 0.895437 2 2 2H30C31.1046 2 32 2.89544 32 4V8C32 9.10456 31.1046 10 30 10ZM27 4.5C26.1716 4.5 25.5 5.17156 25.5 6C25.5 6.82844 26.1716 7.5 27 7.5C27.8284 7.5 28.5 6.82844 28.5 6C28.5 5.17156 27.8284 4.5 27 4.5ZM23 4.5C22.1716 4.5 21.5 5.17156 21.5 6C21.5 6.82844 22.1716 7.5 23 7.5C23.8284 7.5 24.5 6.82844 24.5 6C24.5 5.17156 23.8284 4.5 23 4.5ZM30 20H2C0.895437 20 0 19.1046 0 18V14C0 12.8954 0.895437 12 2 12H30C31.1046 12 32 12.8954 32 14V18C32 19.1046 31.1046 20 30 20ZM27 14.5C26.1716 14.5 25.5 15.1716 25.5 16C25.5 16.8284 26.1716 17.5 27 17.5C27.8284 17.5 28.5 16.8284 28.5 16C28.5 15.1716 27.8284 14.5 27 14.5ZM23 14.5C22.1716 14.5 21.5 15.1716 21.5 16C21.5 16.8284 22.1716 17.5 23 17.5C23.8284 17.5 24.5 16.8284 24.5 16C24.5 15.1716 23.8284 14.5 23 14.5ZM30 30H2C0.895437 30 0 29.1046 0 28V24C0 22.8954 0.895437 22 2 22H30C31.1046 22 32 22.8954 32 24V28C32 29.1046 31.1046 30 30 30ZM27 24.5C26.1716 24.5 25.5 25.1716 25.5 26C25.5 26.8284 26.1716 27.5 27 27.5C27.8284 27.5 28.5 26.8284 28.5 26C28.5 25.1716 27.8284 24.5 27 24.5ZM23 24.5C22.1716 24.5 21.5 25.1716 21.5 26C21.5 26.8284 22.1716 27.5 23 27.5C23.8284 27.5 24.5 26.8284 24.5 26C24.5 25.1716 23.8284 24.5 23 24.5Z" fill="currentColor"/>
</svg>
