<svg width="32" height="32" viewBox="0 0 32 32" fill="none" xmlns="http://www.w3.org/2000/svg">
<path d="M4.79999 6.40078C4.79999 5.97643 4.96856 5.56947 5.26862 5.26941C5.56868 4.96935 5.97564 4.80078 6.39999 4.80078H25.6C26.0243 4.80078 26.4313 4.96935 26.7314 5.26941C27.0314 5.56947 27.2 5.97643 27.2 6.40078V9.60078C27.2 10.0251 27.0314 10.4321 26.7314 10.7322C26.4313 11.0322 26.0243 11.2008 25.6 11.2008H6.39999C5.97564 11.2008 5.56868 11.0322 5.26862 10.7322C4.96856 10.4321 4.79999 10.0251 4.79999 9.60078V6.40078ZM4.79999 16.0008C4.79999 15.5764 4.96856 15.1695 5.26862 14.8694C5.56868 14.5694 5.97564 14.4008 6.39999 14.4008H16C16.4243 14.4008 16.8313 14.5694 17.1314 14.8694C17.4314 15.1695 17.6 15.5764 17.6 16.0008V25.6008C17.6 26.0251 17.4314 26.4321 17.1314 26.7322C16.8313 27.0322 16.4243 27.2008 16 27.2008H6.39999C5.97564 27.2008 5.56868 27.0322 5.26862 26.7322C4.96856 26.4321 4.79999 26.0251 4.79999 25.6008V16.0008ZM22.4 14.4008C21.9756 14.4008 21.5687 14.5694 21.2686 14.8694C20.9686 15.1695 20.8 15.5764 20.8 16.0008V25.6008C20.8 26.0251 20.9686 26.4321 21.2686 26.7322C21.5687 27.0322 21.9756 27.2008 22.4 27.2008H25.6C26.0243 27.2008 26.4313 27.0322 26.7314 26.7322C27.0314 26.4321 27.2 26.0251 27.2 25.6008V16.0008C27.2 15.5764 27.0314 15.1695 26.7314 14.8694C26.4313 14.5694 26.0243 14.4008 25.6 14.4008H22.4Z" fill="currentColor"/>
</svg>
