<svg width="734" height="318" fill="none" xmlns="http://www.w3.org/2000/svg"><path style="mix-blend-mode:multiply" opacity=".37" d="M332.393 115.217c16.46-24.212 8.072-58.614-18.734-76.838-26.807-18.225-61.882-13.372-78.343 10.84-16.46 24.211-8.073 58.613 18.734 76.838 26.807 18.225 61.882 13.371 78.343-10.84Z" fill="url(#a)"/><path d="M242.126 125.194c8.103-33.414-12.417-67.07-45.831-75.172-33.414-8.102-67.07 12.417-75.172 45.831-8.102 33.415 12.417 67.07 45.831 75.173 33.414 8.102 67.07-12.417 75.172-45.832Z" fill="#fff"/><path d="M157.755 155.425c7.075-29.331-10.968-58.843-40.299-65.917-29.33-7.074-58.843 10.968-65.917 40.299-7.074 29.331 10.968 58.843 40.3 65.917 29.33 7.074 58.842-10.968 65.916-40.299Z" fill="#fff"/><path style="mix-blend-mode:multiply" opacity=".37" d="M287.158 122.687c14.371-21.138 3.874-53.33-23.444-71.902-27.319-18.572-61.114-16.493-75.484 4.645-14.371 21.137-3.875 53.329 23.444 71.901 27.318 18.573 61.114 16.493 75.484-4.644Z" fill="url(#b)"/><path d="M255.387 145.664c22.467 0 40.681-18.214 40.681-40.682 0-22.468-18.214-40.681-40.681-40.681-22.468 0-40.682 18.213-40.682 40.681 0 22.468 18.214 40.682 40.682 40.682Z" fill="#fff"/><path style="mix-blend-mode:multiply" opacity=".37" d="M541.297 113.148c13.438-19.767-1.14-53.108-32.56-74.47-31.421-21.36-67.786-22.654-81.225-2.887-13.438 19.766 1.139 53.107 32.56 74.469 31.421 21.361 67.786 22.654 81.225 2.888Z" fill="url(#c)"/><path d="M442.235 115.096c22.468 0 40.681-18.214 40.681-40.681 0-22.468-18.213-40.682-40.681-40.682-22.468 0-40.681 18.214-40.681 40.682 0 22.467 18.213 40.681 40.681 40.681Z" fill="#fff"/><path d="M492.244 127.008c17.316 0 31.354-14.037 31.354-31.353 0-17.317-14.038-31.354-31.354-31.354S460.89 78.338 460.89 95.655c0 17.316 14.038 31.353 31.354 31.353Z" fill="#fff"/><path d="M551.449 208.444c30.435 0 55.108-24.673 55.108-55.108s-24.673-55.107-55.108-55.107-55.107 24.672-55.107 55.107 24.672 55.108 55.107 55.108ZM60.122 165.399c10.9-10.9 10.9-28.573 0-39.472-10.9-10.9-28.572-10.9-39.472 0-10.9 10.899-10.9 28.572 0 39.472 10.9 10.9 28.572 10.9 39.472 0Z" fill="#fff"/><path d="M485.799 158.4c15.953-6.735 23.425-25.128 16.69-41.08-6.736-15.953-25.128-23.425-41.081-16.69-15.952 6.736-23.424 25.128-16.689 41.081 6.735 15.952 25.128 23.424 41.08 16.689ZM363.845 136.686c3.933-16.864-6.549-33.723-23.412-37.657-16.864-3.933-33.723 6.549-37.657 23.412-3.933 16.864 6.548 33.723 23.412 37.657 16.864 3.933 33.723-6.549 37.657-23.412Z" fill="#fff"/><path d="M333.33 129.582c27.33 0 49.485-22.155 49.485-49.484 0-27.33-22.155-49.485-49.485-49.485-27.329 0-49.484 22.155-49.484 49.485 0 27.329 22.155 49.484 49.484 49.484Z" fill="#fff"/><path style="mix-blend-mode:multiply" opacity=".26" d="M331.513 151.47c18.074-18.074 16.893-48.557-2.636-68.087-19.53-19.53-50.014-20.71-68.087-2.636-18.074 18.073-16.893 48.557 2.636 68.086 19.53 19.53 50.013 20.711 68.087 2.637Z" fill="url(#d)"/><path style="mix-blend-mode:multiply" opacity=".26" d="M461.545 127.442c18.074-18.074 16.893-48.557-2.636-68.087-19.53-19.53-50.013-20.71-68.087-2.636-18.074 18.073-16.893 48.557 2.636 68.086 19.53 19.53 50.014 20.71 68.087 2.637Z" fill="url(#e)"/><path d="M446.739 123.902c6.238-25.946-9.737-52.036-35.683-58.274-25.945-6.239-52.036 9.737-58.274 35.682-6.239 25.946 9.737 52.036 35.682 58.274 25.946 6.239 52.036-9.737 58.275-35.682ZM269.086 180.032c25.133 0 45.506-20.374 45.506-45.506S294.219 89.02 269.086 89.02c-25.132 0-45.506 20.374-45.506 45.506s20.374 45.506 45.506 45.506Z" fill="#fff"/><path style="mix-blend-mode:multiply" opacity=".37" d="M330.687 174.166c14.882-21.89 7.299-52.992-16.937-69.469-24.236-16.477-55.947-12.089-70.829 9.801-14.882 21.889-7.299 52.992 16.937 69.468 24.236 16.477 55.947 12.09 70.829-9.8Z" fill="url(#f)"/><path d="M249.079 183.187c7.325-30.209-11.227-60.637-41.436-67.962-30.21-7.325-60.638 11.226-67.963 41.436-7.325 30.209 11.226 60.637 41.436 67.962 30.209 7.325 60.637-11.226 67.963-41.436Z" fill="#fff"/><path d="M172.799 210.518c6.396-26.517-9.916-53.199-36.434-59.595-26.517-6.395-53.2 9.917-59.595 36.434-6.395 26.518 9.917 53.2 36.434 59.596 26.518 6.395 53.2-9.917 59.595-36.435Z" fill="#fff"/><path style="mix-blend-mode:multiply" opacity=".37" d="M289.791 180.92c12.992-19.11 3.503-48.214-21.196-65.006-24.698-16.79-55.252-14.911-68.244 4.2-12.993 19.11-3.503 48.214 21.195 65.005 24.699 16.791 55.253 14.911 68.245-4.199Z" fill="url(#g)"/><path d="M261.067 201.693c20.313 0 36.78-16.466 36.78-36.779 0-20.313-16.467-36.78-36.78-36.78-20.313 0-36.78 16.467-36.78 36.78 0 20.313 16.467 36.779 36.78 36.779Z" fill="#fff"/><path style="mix-blend-mode:multiply" opacity=".37" d="M519.556 172.296c12.149-17.871-1.03-48.014-29.437-67.327-28.408-19.313-61.285-20.482-73.435-2.611-12.149 17.871 1.03 48.014 29.437 67.327 28.408 19.312 61.285 20.481 73.435 2.611Z" fill="url(#h)"/><path d="M429.995 174.057c20.313 0 36.78-16.467 36.78-36.78 0-20.313-16.467-36.779-36.78-36.779-20.313 0-36.78 16.466-36.78 36.779 0 20.313 16.467 36.78 36.78 36.78Z" fill="#fff"/><path d="M475.208 184.828c15.655 0 28.346-12.692 28.346-28.347 0-15.656-12.691-28.347-28.346-28.347-15.656 0-28.347 12.691-28.347 28.347 0 15.655 12.691 28.347 28.347 28.347Z" fill="#fff"/><path d="M528.735 258.452c27.516 0 49.822-22.306 49.822-49.822 0-27.516-22.306-49.823-49.822-49.823-27.516 0-49.823 22.307-49.823 49.823 0 27.516 22.307 49.822 49.823 49.822ZM84.53 219.535c9.854-9.854 9.854-25.832 0-35.686-9.855-9.855-25.832-9.855-35.687 0-9.854 9.854-9.854 25.832 0 35.686 9.855 9.855 25.832 9.855 35.687 0Z" fill="#fff"/><path d="M469.381 213.208c14.423-6.089 21.178-22.718 15.089-37.14-6.089-14.423-22.718-21.178-37.14-15.089-14.423 6.089-21.179 22.718-15.089 37.14 6.089 14.423 22.718 21.178 37.14 15.089ZM359.123 193.576c3.556-15.246-5.92-30.488-21.166-34.045-15.247-3.556-30.489 5.92-34.045 21.167-3.557 15.246 5.92 30.488 21.166 34.045 15.246 3.556 30.489-5.921 34.045-21.167Z" fill="#fff"/><path d="M331.535 187.154c24.709 0 44.739-20.03 44.739-44.739 0-24.708-20.03-44.739-44.739-44.739-24.708 0-44.739 20.031-44.739 44.739 0 24.709 20.031 44.739 44.739 44.739Z" fill="#fff"/><path style="mix-blend-mode:multiply" opacity=".26" d="M329.892 206.943c16.34-16.34 15.273-43.9-2.383-61.557-17.657-17.656-45.217-18.724-61.557-2.383-16.34 16.34-15.273 43.9 2.384 61.556 17.656 17.657 45.216 18.724 61.556 2.384Z" fill="url(#i)"/><path style="mix-blend-mode:multiply" opacity=".26" d="M447.453 185.22c16.34-16.341 15.273-43.9-2.384-61.557-17.656-17.657-45.216-18.724-61.556-2.384-16.34 16.34-15.273 43.9 2.383 61.557 17.657 17.657 45.217 18.724 61.557 2.384Z" fill="url(#j)"/><path d="M434.067 182.019c5.64-23.457-8.803-47.045-32.261-52.685-23.457-5.641-47.045 8.803-52.685 32.26-5.64 23.457 8.803 47.045 32.26 52.685 23.458 5.64 47.046-8.803 52.686-32.26ZM273.452 232.765c22.722 0 41.142-18.42 41.142-41.142 0-22.721-18.42-41.141-41.142-41.141s-41.141 18.42-41.141 41.141c0 22.722 18.419 41.142 41.141 41.142Z" fill="#fff"/><path style="mix-blend-mode:multiply" opacity=".37" d="M485.687 233.166c14.882-21.89 7.299-52.992-16.937-69.469-24.236-16.477-55.947-12.089-70.829 9.801-14.882 21.889-7.298 52.992 16.937 69.468 24.236 16.477 55.948 12.09 70.829-9.8Z" fill="url(#k)"/><path d="M404.079 242.187c7.325-30.209-11.227-60.637-41.436-67.962-30.21-7.325-60.638 11.226-67.963 41.436-7.325 30.209 11.226 60.637 41.436 67.962 30.209 7.325 60.637-11.226 67.963-41.436Z" fill="#fff"/><path d="M327.799 269.518c6.396-26.517-9.916-53.199-36.434-59.595-26.517-6.395-53.199 9.917-59.595 36.434-6.396 26.518 9.917 53.2 36.434 59.596 26.518 6.395 53.2-9.917 59.595-36.435Z" fill="#fff"/><path style="mix-blend-mode:multiply" opacity=".37" d="M444.791 239.92c12.992-19.11 3.503-48.214-21.196-65.006-24.698-16.791-55.252-14.911-68.244 4.2-12.993 19.11-3.503 48.214 21.195 65.005 24.699 16.791 55.253 14.911 68.245-4.199Z" fill="url(#l)"/><path d="M416.067 260.693c20.313 0 36.78-16.466 36.78-36.779 0-20.313-16.467-36.78-36.78-36.78-20.313 0-36.78 16.467-36.78 36.78 0 20.313 16.467 36.779 36.78 36.779Z" fill="#fff"/><path style="mix-blend-mode:multiply" opacity=".37" d="M674.556 231.296c12.149-17.871-1.03-48.014-29.437-67.327-28.408-19.313-61.285-20.482-73.435-2.611-12.149 17.871 1.03 48.014 29.437 67.327 28.408 19.312 61.285 20.481 73.435 2.611Z" fill="url(#m)"/><path d="M584.995 233.057c20.313 0 36.78-16.467 36.78-36.78 0-20.313-16.467-36.779-36.78-36.779-20.313 0-36.78 16.466-36.78 36.779 0 20.313 16.467 36.78 36.78 36.78Z" fill="#fff"/><path d="M630.208 243.828c15.655 0 28.346-12.692 28.346-28.347 0-15.656-12.691-28.347-28.346-28.347-15.656 0-28.347 12.691-28.347 28.347 0 15.655 12.691 28.347 28.347 28.347Z" fill="#fff"/><path d="M683.735 317.452c27.516 0 49.822-22.306 49.822-49.822 0-27.516-22.306-49.823-49.822-49.823-27.516 0-49.823 22.307-49.823 49.823 0 27.516 22.307 49.822 49.823 49.822ZM239.53 278.535c9.854-9.854 9.854-25.832 0-35.686-9.855-9.855-25.832-9.855-35.687 0-9.854 9.854-9.854 25.832 0 35.686 9.855 9.855 25.832 9.855 35.687 0Z" fill="#fff"/><path d="M624.381 272.208c14.423-6.089 21.178-22.718 15.089-37.14-6.089-14.423-22.718-21.178-37.14-15.089-14.423 6.089-21.179 22.718-15.089 37.14 6.089 14.423 22.718 21.178 37.14 15.089ZM514.123 252.576c3.556-15.246-5.92-30.488-21.166-34.045-15.247-3.556-30.489 5.92-34.045 21.167-3.557 15.246 5.92 30.488 21.166 34.045 15.246 3.556 30.489-5.921 34.045-21.167Z" fill="#fff"/><path d="M486.535 246.154c24.709 0 44.739-20.03 44.739-44.739 0-24.708-20.03-44.739-44.739-44.739-24.708 0-44.739 20.031-44.739 44.739 0 24.709 20.031 44.739 44.739 44.739Z" fill="#fff"/><path style="mix-blend-mode:multiply" opacity=".26" d="M484.892 265.943c16.34-16.34 15.273-43.9-2.383-61.557-17.657-17.656-45.217-18.724-61.557-2.383-16.34 16.34-15.273 43.9 2.384 61.556 17.656 17.657 45.216 18.724 61.556 2.384Z" fill="url(#n)"/><path style="mix-blend-mode:multiply" opacity=".26" d="M602.453 244.22c16.34-16.341 15.273-43.9-2.384-61.557-17.656-17.657-45.216-18.724-61.556-2.384-16.34 16.34-15.273 43.9 2.383 61.557 17.657 17.657 45.217 18.724 61.557 2.384Z" fill="url(#o)"/><path d="M589.067 241.019c5.64-23.457-8.803-47.045-32.261-52.685-23.457-5.641-47.045 8.803-52.685 32.26-5.64 23.457 8.803 47.045 32.26 52.685 23.458 5.64 47.046-8.803 52.686-32.26ZM428.452 291.765c22.722 0 41.142-18.42 41.142-41.142 0-22.721-18.42-41.141-41.142-41.141s-41.141 18.42-41.141 41.141c0 22.722 18.419 41.142 41.141 41.142Z" fill="#fff"/><defs><radialGradient id="a" cx="0" cy="0" r="1" gradientUnits="userSpaceOnUse" gradientTransform="matrix(47.30067 32.15757 -24.67904 36.30048 285.24 83.116)"><stop offset="0" stop-opacity=".3"/><stop offset="1" stop-opacity="0"/></radialGradient><radialGradient id="b" cx="0" cy="0" r="1" gradientUnits="userSpaceOnUse" gradientTransform="rotate(34.21 -24.135 438.77) scale(58.209 38.1635)"><stop offset="0" stop-opacity=".3"/><stop offset="1" stop-opacity="0"/></radialGradient><radialGradient id="c" cx="0" cy="0" r="1" gradientUnits="userSpaceOnUse" gradientTransform="rotate(34.21 118.77 830.017) scale(66.9512 35.9142)"><stop offset="0" stop-opacity=".3"/><stop offset="1" stop-opacity="0"/></radialGradient><radialGradient id="d" cx="0" cy="0" r="1" gradientUnits="userSpaceOnUse" gradientTransform="matrix(34.61804 34.61804 -26.98567 26.98567 294.677 112.128)"><stop offset="0" stop-opacity=".3"/><stop offset="1" stop-opacity="0"/></radialGradient><radialGradient id="e" cx="0" cy="0" r="1" gradientUnits="userSpaceOnUse" gradientTransform="matrix(34.61804 34.61804 -26.98567 26.98567 424.732 88.412)"><stop offset="0" stop-opacity=".3"/><stop offset="1" stop-opacity="0"/></radialGradient><radialGradient id="f" cx="0" cy="0" r="1" gradientUnits="userSpaceOnUse" gradientTransform="matrix(42.76417 29.07341 -22.31212 32.81896 288.057 145.144)"><stop offset="0" stop-opacity=".3"/><stop offset="1" stop-opacity="0"/></radialGradient><radialGradient id="g" cx="0" cy="0" r="1" gradientUnits="userSpaceOnUse" gradientTransform="rotate(34.21 -120.467 480.714) scale(52.6263 34.5034)"><stop offset="0" stop-opacity=".3"/><stop offset="1" stop-opacity="0"/></radialGradient><radialGradient id="h" cx="0" cy="0" r="1" gradientUnits="userSpaceOnUse" gradientTransform="rotate(34.21 8.732 834.438) scale(60.53 32.4698)"><stop offset="0" stop-opacity=".3"/><stop offset="1" stop-opacity="0"/></radialGradient><radialGradient id="i" cx="0" cy="0" r="1" gradientUnits="userSpaceOnUse" gradientTransform="matrix(31.29789 31.29789 -24.39759 24.39759 296.589 171.374)"><stop offset="0" stop-opacity=".3"/><stop offset="1" stop-opacity="0"/></radialGradient><radialGradient id="j" cx="0" cy="0" r="1" gradientUnits="userSpaceOnUse" gradientTransform="matrix(31.29789 31.29789 -24.39759 24.39759 414.171 149.933)"><stop offset="0" stop-opacity=".3"/><stop offset="1" stop-opacity="0"/></radialGradient><radialGradient id="k" cx="0" cy="0" r="1" gradientUnits="userSpaceOnUse" gradientTransform="matrix(42.76417 29.07341 -22.31212 32.81896 443.057 204.144)"><stop offset="0" stop-opacity=".3"/><stop offset="1" stop-opacity="0"/></radialGradient><radialGradient id="l" cx="0" cy="0" r="1" gradientUnits="userSpaceOnUse" gradientTransform="rotate(34.21 -138.829 762.054) scale(52.6263 34.5034)"><stop offset="0" stop-opacity=".3"/><stop offset="1" stop-opacity="0"/></radialGradient><radialGradient id="m" cx="0" cy="0" r="1" gradientUnits="userSpaceOnUse" gradientTransform="rotate(34.21 -9.63 1115.778) scale(60.53 32.4698)"><stop offset="0" stop-opacity=".3"/><stop offset="1" stop-opacity="0"/></radialGradient><radialGradient id="n" cx="0" cy="0" r="1" gradientUnits="userSpaceOnUse" gradientTransform="matrix(31.29789 31.29789 -24.39759 24.39759 451.589 230.374)"><stop offset="0" stop-opacity=".3"/><stop offset="1" stop-opacity="0"/></radialGradient><radialGradient id="o" cx="0" cy="0" r="1" gradientUnits="userSpaceOnUse" gradientTransform="matrix(31.29789 31.29789 -24.39759 24.39759 569.171 208.933)"><stop offset="0" stop-opacity=".3"/><stop offset="1" stop-opacity="0"/></radialGradient></defs></svg>