<svg width="131" height="85" fill="none" xmlns="http://www.w3.org/2000/svg"><path style="mix-blend-mode:multiply" opacity=".73" d="M75.99 75.596c21.992 0 39.82-16.555 39.82-36.977 0-20.422-17.828-36.978-39.82-36.978C54 1.641 36.171 18.197 36.171 38.62s17.828 36.977 39.82 36.977Z" fill="url(#a)"/><path d="M103.607 33.203a13.991 13.991 0 0 0-6.687 1.672 20.379 20.379 0 0 0-18.706-12.287c-1.12 0-2.238.09-3.344.267a23.604 23.604 0 0 0-45.904 3.962 20.395 20.395 0 1 0 2.942 35.34 23.086 23.086 0 0 0 37.496-.753 20.428 20.428 0 0 0 24.072-4.898 13.875 13.875 0 1 0 10.131-23.403v.1Z" fill="#fff"/><path d="M103.607 33.203a13.993 13.993 0 0 0-6.687 1.671 20.378 20.378 0 0 0-18.706-12.287c-1.12 0-2.238.09-3.344.268A23.587 23.587 0 0 0 57.385 6.924v63.39a23.136 23.136 0 0 0 12.07-8.893 20.428 20.428 0 0 0 24.021-4.915 13.874 13.874 0 1 0 10.131-23.404v.1Z" fill="#96CCCA" style="mix-blend-mode:multiply" opacity=".22"/><path style="mix-blend-mode:multiply" opacity=".73" d="M116.659 59.019c7.386-14.255-.973-33.245-18.672-42.415-17.698-9.17-38.033-5.048-45.419 9.207-7.386 14.256.974 33.246 18.672 42.416 17.698 9.17 38.033 5.047 45.419-9.208Z" fill="url(#b)"/><path style="mix-blend-mode:multiply" opacity=".73" d="M36.22 58.997c15.992 0 28.954-10.448 28.954-23.336 0-12.889-12.963-23.337-28.953-23.337S7.267 22.772 7.267 35.661c0 12.888 12.963 23.336 28.954 23.336Z" fill="url(#c)"/><path style="mix-blend-mode:multiply" opacity=".73" d="M34.733 79.558c14.31 0 25.911-9.348 25.911-20.879s-11.6-20.88-25.91-20.88c-14.311 0-25.912 9.349-25.912 20.88 0 11.531 11.601 20.88 25.911 20.88Z" fill="url(#d)"/><path d="M89.314 33.203a8.24 8.24 0 0 0-4.898 1.672c-2.307-7.222-7.606-12.287-13.775-12.287-.804.004-1.605.094-2.39.267-2.224-9.562-8.793-16.5-16.567-16.5-8.81 0-16.081 8.91-17.218 20.462a11.786 11.786 0 0 0-6.302-1.889c-8.359 0-15.045 9.127-15.045 20.395 0 11.267 6.686 20.394 15.045 20.394a12.388 12.388 0 0 0 8.459-3.56c3.109 5.6 8.024 9.244 13.59 9.244 5.818 0 10.95-3.962 14.009-10.03a11.818 11.818 0 0 0 6.42 1.956 13.658 13.658 0 0 0 11.2-6.82 9.227 9.227 0 0 0 7.472 4.412c5.633 0 10.214-6.218 10.214-13.875 0-7.656-4.58-13.841-10.214-13.841Z" fill="#fff"/><path d="M89.314 33.203a8.241 8.241 0 0 0-4.898 1.672c-2.307-7.222-7.607-12.287-13.775-12.287-.804.004-1.606.094-2.39.267-1.856-8.024-6.788-14.159-12.906-15.948v63.39a18.539 18.539 0 0 0 8.877-8.893 11.818 11.818 0 0 0 6.419 1.956 13.658 13.658 0 0 0 11.2-6.82 9.227 9.227 0 0 0 7.473 4.413c5.633 0 10.213-6.219 10.213-13.875s-4.58-13.875-10.213-13.875Z" fill="#96CCCA" style="mix-blend-mode:multiply" opacity=".22"/><defs><radialGradient id="a" cx="0" cy="0" r="1" gradientUnits="userSpaceOnUse" gradientTransform="matrix(38.9994 0 0 30.6695 78.09 40.62)"><stop offset="0" stop-opacity=".3"/><stop offset="1" stop-opacity="0"/></radialGradient><radialGradient id="b" cx="0" cy="0" r="1" gradientUnits="userSpaceOnUse" gradientTransform="rotate(27.39 -46.485 199.302) scale(35.1514 24.1293)"><stop offset="0" stop-opacity=".3"/><stop offset="1" stop-opacity="0"/></radialGradient><radialGradient id="c" cx="0" cy="0" r="1" gradientUnits="userSpaceOnUse" gradientTransform="matrix(28.1882 0 0 19.3495 35.763 37.662)"><stop offset="0" stop-opacity=".3"/><stop offset="1" stop-opacity="0"/></radialGradient><radialGradient id="d" cx="0" cy="0" r="1" gradientUnits="userSpaceOnUse" gradientTransform="matrix(25.2293 0 0 17.3184 34.283 60.708)"><stop offset="0" stop-opacity=".3"/><stop offset="1" stop-opacity="0"/></radialGradient></defs></svg>