<svg width="623" height="229" fill="none" xmlns="http://www.w3.org/2000/svg"><path style="mix-blend-mode:multiply" opacity=".37" d="M299.688 104.166c14.881-21.89 7.298-52.992-16.938-69.469-24.236-16.477-55.947-12.089-70.828 9.8-14.882 21.89-7.299 52.993 16.937 69.469 24.236 16.477 55.947 12.089 70.829-9.8Z" fill="url(#a)"/><path d="M218.079 113.187c7.325-30.21-11.226-60.637-41.436-67.962-30.209-7.325-60.637 11.226-67.962 41.435-7.326 30.21 11.226 60.638 41.435 67.963 30.21 7.325 60.638-11.226 67.963-41.436Z" fill="#fff"/><path d="M141.8 140.518c6.396-26.517-9.917-53.199-36.434-59.595-26.518-6.395-53.2 9.917-59.596 36.434-6.395 26.518 9.917 53.2 36.435 59.596 26.517 6.395 53.199-9.917 59.595-36.435Z" fill="#fff"/><path style="mix-blend-mode:multiply" opacity=".37" d="M258.792 110.92c12.992-19.11 3.502-48.214-21.196-65.006-24.698-16.79-55.253-14.91-68.245 4.2-12.992 19.11-3.502 48.214 21.196 65.005 24.698 16.791 55.252 14.911 68.245-4.199Z" fill="url(#b)"/><path d="M230.067 131.693c20.313 0 36.78-16.466 36.78-36.78 0-20.312-16.467-36.779-36.78-36.779-20.312 0-36.779 16.467-36.779 36.78 0 20.313 16.467 36.779 36.779 36.779Z" fill="#fff"/><path style="mix-blend-mode:multiply" opacity=".37" d="M488.556 102.296c12.15-17.871-1.03-48.014-29.437-67.327-28.407-19.313-61.285-20.482-73.434-2.611-12.15 17.87 1.03 48.014 29.437 67.327 28.407 19.312 61.285 20.481 73.434 2.611Z" fill="url(#c)"/><path d="M398.995 104.057c20.313 0 36.78-16.467 36.78-36.78 0-20.313-16.467-36.78-36.78-36.78-20.312 0-36.779 16.467-36.779 36.78 0 20.313 16.467 36.78 36.779 36.78Z" fill="#fff"/><path d="M444.208 114.828c15.656 0 28.347-12.692 28.347-28.347 0-15.656-12.691-28.347-28.347-28.347-15.655 0-28.347 12.691-28.347 28.347 0 15.655 12.692 28.347 28.347 28.347Z" fill="#fff"/><path d="M497.735 188.452c27.516 0 49.822-22.306 49.822-49.822 0-27.516-22.306-49.822-49.822-49.822-27.516 0-49.822 22.306-49.822 49.822 0 27.516 22.306 49.822 49.822 49.822ZM53.53 149.535c9.855-9.854 9.855-25.832 0-35.686-9.854-9.855-25.832-9.855-35.686 0-9.855 9.854-9.855 25.832 0 35.686 9.854 9.855 25.832 9.855 35.686 0Z" fill="#fff"/><path d="M438.382 143.208c14.422-6.089 21.178-22.718 15.088-37.14-6.089-14.423-22.717-21.178-37.14-15.089-14.423 6.09-21.178 22.718-15.089 37.14 6.09 14.423 22.718 21.179 37.141 15.089ZM328.123 123.576c3.557-15.246-5.92-30.488-21.166-34.045-15.246-3.556-30.489 5.92-34.045 21.167-3.556 15.246 5.92 30.488 21.166 34.045 15.247 3.556 30.489-5.92 34.045-21.167Z" fill="#fff"/><path d="M300.536 117.154c24.708 0 44.739-20.03 44.739-44.739 0-24.709-20.031-44.739-44.739-44.739-24.709 0-44.739 20.03-44.739 44.74 0 24.708 20.03 44.738 44.739 44.738Z" fill="#fff"/><path style="mix-blend-mode:multiply" opacity=".26" d="M298.893 136.943c16.34-16.34 15.273-43.9-2.384-61.557-17.657-17.656-45.216-18.724-61.557-2.383-16.34 16.34-15.273 43.9 2.384 61.556 17.657 17.657 45.217 18.724 61.557 2.384Z" fill="url(#d)"/><path style="mix-blend-mode:multiply" opacity=".26" d="M416.454 115.22c16.34-16.34 15.273-43.9-2.384-61.557-17.657-17.657-45.216-18.724-61.557-2.384-16.34 16.34-15.273 43.9 2.384 61.557 17.657 17.657 45.217 18.724 61.557 2.384Z" fill="url(#e)"/><path d="M403.067 112.019c5.64-23.457-8.803-47.045-32.26-52.685-23.457-5.64-47.045 8.803-52.685 32.26-5.641 23.457 8.803 47.045 32.26 52.685 23.457 5.64 47.045-8.803 52.685-32.26ZM242.453 162.765c22.722 0 41.141-18.42 41.141-41.142 0-22.721-18.419-41.141-41.141-41.141-22.722 0-41.142 18.42-41.142 41.141 0 22.722 18.42 41.142 41.142 41.142Z" fill="#fff"/><path style="mix-blend-mode:multiply" opacity=".37" d="M374.688 144.166c14.881-21.89 7.298-52.992-16.938-69.469-24.236-16.477-55.947-12.089-70.828 9.8-14.882 21.89-7.299 52.993 16.937 69.469 24.236 16.477 55.947 12.089 70.829-9.8Z" fill="url(#f)"/><path d="M293.079 153.187c7.325-30.209-11.226-60.637-41.436-67.962-30.209-7.325-60.637 11.226-67.962 41.435-7.326 30.21 11.226 60.638 41.435 67.963 30.21 7.325 60.638-11.226 67.963-41.436Z" fill="#fff"/><path d="M216.8 180.518c6.396-26.517-9.917-53.199-36.434-59.595-26.518-6.395-53.2 9.917-59.595 36.434-6.396 26.518 9.916 53.2 36.434 59.596 26.517 6.395 53.199-9.917 59.595-36.435Z" fill="#fff"/><path style="mix-blend-mode:multiply" opacity=".37" d="M333.792 150.92c12.992-19.11 3.502-48.214-21.196-65.005-24.698-16.792-55.253-14.912-68.245 4.198-12.992 19.111-3.502 48.215 21.196 65.006 24.698 16.791 55.252 14.911 68.245-4.199Z" fill="url(#g)"/><path d="M305.067 171.693c20.313 0 36.78-16.466 36.78-36.779 0-20.313-16.467-36.78-36.78-36.78-20.312 0-36.779 16.467-36.779 36.78 0 20.313 16.467 36.779 36.779 36.779Z" fill="#fff"/><path style="mix-blend-mode:multiply" opacity=".37" d="M563.556 142.296c12.15-17.871-1.03-48.014-29.437-67.327-28.407-19.313-61.285-20.482-73.434-2.611-12.15 17.87 1.03 48.014 29.437 67.327 28.407 19.312 61.285 20.481 73.434 2.611Z" fill="url(#h)"/><path d="M473.995 144.057c20.313 0 36.78-16.467 36.78-36.78 0-20.313-16.467-36.78-36.78-36.78-20.312 0-36.779 16.467-36.779 36.78 0 20.313 16.467 36.78 36.779 36.78Z" fill="#fff"/><path d="M519.208 154.828c15.656 0 28.347-12.692 28.347-28.347 0-15.656-12.691-28.347-28.347-28.347-15.655 0-28.347 12.691-28.347 28.347 0 15.655 12.692 28.347 28.347 28.347Z" fill="#fff"/><path d="M572.735 228.452c27.516 0 49.822-22.306 49.822-49.822 0-27.516-22.306-49.823-49.822-49.823-27.516 0-49.822 22.307-49.822 49.823 0 27.516 22.306 49.822 49.822 49.822ZM128.53 189.535c9.855-9.854 9.855-25.832 0-35.686-9.854-9.855-25.832-9.855-35.686 0-9.855 9.854-9.855 25.832 0 35.686 9.854 9.855 25.832 9.855 35.686 0Z" fill="#fff"/><path d="M513.382 183.208c14.422-6.089 21.178-22.718 15.088-37.14-6.089-14.423-22.717-21.178-37.14-15.089-14.423 6.089-21.178 22.718-15.089 37.14 6.09 14.423 22.718 21.179 37.141 15.089ZM403.123 163.576c3.557-15.246-5.92-30.488-21.166-34.045-15.246-3.556-30.489 5.921-34.045 21.167-3.556 15.246 5.92 30.488 21.166 34.045 15.247 3.556 30.489-5.92 34.045-21.167Z" fill="#fff"/><path d="M375.536 157.154c24.708 0 44.739-20.03 44.739-44.739 0-24.709-20.031-44.739-44.739-44.739-24.709 0-44.739 20.03-44.739 44.739 0 24.709 20.03 44.739 44.739 44.739Z" fill="#fff"/><path style="mix-blend-mode:multiply" opacity=".26" d="M373.893 176.943c16.34-16.34 15.273-43.9-2.384-61.557-17.657-17.656-45.216-18.724-61.557-2.383-16.34 16.34-15.273 43.9 2.384 61.556 17.657 17.657 45.217 18.724 61.557 2.384Z" fill="url(#i)"/><path style="mix-blend-mode:multiply" opacity=".26" d="M491.454 155.22c16.34-16.341 15.273-43.9-2.384-61.557-17.657-17.657-45.216-18.724-61.557-2.384-16.34 16.34-15.273 43.9 2.384 61.557 17.657 17.657 45.217 18.724 61.557 2.384Z" fill="url(#j)"/><path d="M478.067 152.019c5.64-23.457-8.803-47.045-32.26-52.685-23.457-5.64-47.045 8.803-52.685 32.26-5.641 23.457 8.803 47.045 32.26 52.685 23.457 5.64 47.045-8.803 52.685-32.26ZM317.453 202.765c22.722 0 41.141-18.42 41.141-41.142 0-22.721-18.419-41.141-41.141-41.141-22.722 0-41.142 18.42-41.142 41.141 0 22.722 18.42 41.142 41.142 41.142Z" fill="#fff"/><defs><radialGradient id="a" cx="0" cy="0" r="1" gradientUnits="userSpaceOnUse" gradientTransform="matrix(42.76417 29.07341 -22.31212 32.81896 257.057 75.144)"><stop offset="0" stop-opacity=".3"/><stop offset="1" stop-opacity="0"/></radialGradient><radialGradient id="b" cx="0" cy="0" r="1" gradientUnits="userSpaceOnUse" gradientTransform="rotate(34.21 -22.234 395.347) scale(52.6263 34.5034)"><stop offset="0" stop-opacity=".3"/><stop offset="1" stop-opacity="0"/></radialGradient><radialGradient id="c" cx="0" cy="0" r="1" gradientUnits="userSpaceOnUse" gradientTransform="rotate(34.21 106.966 749.07) scale(60.53 32.4698)"><stop offset="0" stop-opacity=".3"/><stop offset="1" stop-opacity="0"/></radialGradient><radialGradient id="d" cx="0" cy="0" r="1" gradientUnits="userSpaceOnUse" gradientTransform="matrix(31.29789 31.29789 -24.39759 24.39759 265.589 101.374)"><stop offset="0" stop-opacity=".3"/><stop offset="1" stop-opacity="0"/></radialGradient><radialGradient id="e" cx="0" cy="0" r="1" gradientUnits="userSpaceOnUse" gradientTransform="matrix(31.29789 31.29789 -24.39759 24.39759 383.171 79.933)"><stop offset="0" stop-opacity=".3"/><stop offset="1" stop-opacity="0"/></radialGradient><radialGradient id="f" cx="0" cy="0" r="1" gradientUnits="userSpaceOnUse" gradientTransform="matrix(42.76417 29.07341 -22.31212 32.81896 332.057 115.144)"><stop offset="0" stop-opacity=".3"/><stop offset="1" stop-opacity="0"/></radialGradient><radialGradient id="g" cx="0" cy="0" r="1" gradientUnits="userSpaceOnUse" gradientTransform="rotate(34.21 -49.724 537.204) scale(52.6263 34.5034)"><stop offset="0" stop-opacity=".3"/><stop offset="1" stop-opacity="0"/></radialGradient><radialGradient id="h" cx="0" cy="0" r="1" gradientUnits="userSpaceOnUse" gradientTransform="rotate(34.21 79.475 890.928) scale(60.53 32.4698)"><stop offset="0" stop-opacity=".3"/><stop offset="1" stop-opacity="0"/></radialGradient><radialGradient id="i" cx="0" cy="0" r="1" gradientUnits="userSpaceOnUse" gradientTransform="matrix(31.29789 31.29789 -24.39759 24.39759 340.589 141.374)"><stop offset="0" stop-opacity=".3"/><stop offset="1" stop-opacity="0"/></radialGradient><radialGradient id="j" cx="0" cy="0" r="1" gradientUnits="userSpaceOnUse" gradientTransform="matrix(31.29789 31.29789 -24.39759 24.39759 458.171 119.933)"><stop offset="0" stop-opacity=".3"/><stop offset="1" stop-opacity="0"/></radialGradient></defs></svg>