<svg width="618" height="405" viewBox="0 0 618 405" fill="none" xmlns="http://www.w3.org/2000/svg">
<path style="mix-blend-mode:multiply" opacity="0.73" d="M524.58 194.209C532.649 163.755 519.299 133.796 494.761 127.295C470.224 120.793 443.791 140.211 435.722 170.665C427.653 201.119 441.003 231.077 465.54 237.579C490.078 244.08 516.511 224.663 524.58 194.209Z" fill="url(#paint0_radial_10_676)"/>
<path style="mix-blend-mode:multiply" opacity="0.73" d="M488.044 203.379C513.248 200.36 530.642 172.554 526.896 141.273C523.149 109.991 499.68 87.0802 474.476 90.0989C449.272 93.1177 431.877 120.923 435.624 152.205C439.371 183.486 462.84 206.397 488.044 203.379Z" fill="url(#paint1_radial_10_676)"/>
<path style="mix-blend-mode:multiply" opacity="0.37" d="M411.348 334.567C423.738 316.343 417.424 290.449 397.247 276.731C377.07 263.014 350.669 266.667 338.28 284.891C325.89 303.115 332.203 329.008 352.38 342.726C372.558 356.444 398.958 352.791 411.348 334.567Z" fill="url(#paint2_radial_10_676)"/>
<path d="M463.01 198.589L472.084 304.429H432.775L442.065 198.589H463.01Z" fill="white"/>
<path d="M465.889 210.12H438.972L441.204 200.983H463.656L465.889 210.12Z" fill="url(#paint3_linear_10_676)"/>
<path d="M483.759 150.314L501.011 160.563L512.766 214.568L490.762 186.511L475.008 183.562L483.759 150.314Z" fill="url(#paint4_linear_10_676)"/>
<g style="mix-blend-mode:multiply" opacity="0.21">
<path d="M479.061 168.148L496.222 175.312L512.766 214.567L490.762 186.511L475.008 183.561L479.061 168.148Z" fill="#032D86"/>
</g>
<path d="M416.869 150.314L399.618 160.563L387.863 214.568L409.866 186.511L425.621 183.562L416.869 150.314Z" fill="url(#paint5_linear_10_676)"/>
<g style="mix-blend-mode:multiply" opacity="0.21">
<path d="M421.559 168.148L404.406 175.312L387.863 214.567L409.866 186.511L425.621 183.561L421.559 168.148Z" fill="#032D86"/>
</g>
<path d="M477.922 102.191L451.175 69.2661L424.419 102.191L415.13 133.403V172.416L428.875 196.94L438.685 200.984H451.175H463.656L473.466 196.94L487.211 172.416V133.403L477.922 102.191Z" fill="white"/>
<path d="M487.211 133.403L477.922 102.191L477.617 101.823H424.724L424.419 102.191L415.13 133.403V172.416H487.211V133.403Z" fill="url(#paint6_linear_10_676)"/>
<g style="mix-blend-mode:multiply" opacity="0.47">
<path d="M443.697 196.939L431.063 172.416L429.951 133.403L433.664 102.191L451.552 69.3107L424.419 102.191L415.13 133.403V172.416L428.875 196.939L438.685 200.983H451.175L443.697 196.939Z" fill="#96CCCA"/>
</g>
<g style="mix-blend-mode:multiply" opacity="0.13">
<path d="M487.211 133.233H415.13L423.953 101.823H477.617L487.211 133.233Z" fill="#96CCCA"/>
</g>
<g style="mix-blend-mode:multiply" opacity="0.47">
<path d="M458.787 196.94L471.421 172.416L472.533 133.403L466.588 102.191L451.82 70.1985L478.065 102.191L487.355 133.403V172.416L473.609 196.94L463.8 200.983H451.318L458.787 196.94Z" fill="#96CCCA"/>
</g>
<g style="mix-blend-mode:multiply" opacity="0.66">
<path d="M428.463 196.195L428.875 196.94L438.685 200.983H451.175H463.656L473.466 196.94L473.878 196.195H428.463Z" fill="#96CCCA"/>
</g>
<g style="mix-blend-mode:multiply" opacity="0.47">
<path d="M463.656 200.983H456.913L458.034 210.12H465.889L463.656 200.983Z" fill="#96CCCA"/>
</g>
<g style="mix-blend-mode:multiply" opacity="0.47">
<path d="M441.142 200.983H447.885L446.764 210.12H438.909L441.142 200.983Z" fill="#96CCCA"/>
</g>
<path d="M451.319 169.296C460.406 169.296 467.772 161.93 467.772 152.843C467.772 143.756 460.406 136.389 451.319 136.389C442.232 136.389 434.865 143.756 434.865 152.843C434.865 161.93 442.232 169.296 451.319 169.296Z" fill="#191B20"/>
<path d="M451.318 166.4C458.806 166.4 464.875 160.33 464.875 152.843C464.875 145.355 458.806 139.285 451.318 139.285C443.831 139.285 437.761 145.355 437.761 152.843C437.761 160.33 443.831 166.4 451.318 166.4Z" fill="#46484B"/>
<path d="M451.318 126.481C456.265 126.481 460.275 122.471 460.275 117.523C460.275 112.576 456.265 108.566 451.318 108.566C446.371 108.566 442.36 112.576 442.36 117.523C442.36 122.471 446.371 126.481 451.318 126.481Z" fill="#191B20"/>
<path d="M451.318 124.912C455.399 124.912 458.706 121.604 458.706 117.524C458.706 113.443 455.399 110.135 451.318 110.135C447.238 110.135 443.93 113.443 443.93 117.524C443.93 121.604 447.238 124.912 451.318 124.912Z" fill="#46484B"/>
<path d="M343.406 342.077C349.504 316.927 334.059 291.595 308.909 285.496C283.758 279.398 258.426 294.842 252.327 319.993C246.229 345.143 261.674 370.476 286.824 376.574C311.975 382.673 337.307 367.228 343.406 342.077Z" fill="white"/>
<path d="M279.901 364.831C285.225 342.754 271.645 320.541 249.568 315.216C227.491 309.891 205.277 323.472 199.953 345.549C194.628 367.626 208.208 389.839 230.286 395.164C252.363 400.489 274.576 386.908 279.901 364.831Z" fill="white"/>
<path style="mix-blend-mode:multiply" opacity="0.37" d="M377.301 340.19C388.117 324.279 380.217 300.049 359.654 286.07C339.092 272.091 313.655 273.656 302.838 289.566C292.021 305.476 299.922 329.706 320.484 343.685C341.046 357.665 366.484 356.1 377.301 340.19Z" fill="url(#paint7_radial_10_676)"/>
<path d="M353.387 357.484C370.298 357.484 384.007 343.775 384.007 326.864C384.007 309.953 370.298 296.243 353.387 296.243C336.475 296.243 322.766 309.953 322.766 326.864C322.766 343.775 336.475 357.484 353.387 357.484Z" fill="white"/>
<path style="mix-blend-mode:multiply" opacity="0.37" d="M568.588 333.009C578.703 318.131 567.731 293.036 544.081 276.957C520.43 260.879 493.059 259.905 482.944 274.784C472.829 289.662 483.801 314.757 507.451 330.836C531.101 346.914 558.473 347.887 568.588 333.009Z" fill="url(#paint8_radial_10_676)"/>
<path d="M494.026 334.476C510.937 334.476 524.646 320.767 524.646 303.856C524.646 286.944 510.937 273.235 494.026 273.235C477.115 273.235 463.405 286.944 463.405 303.856C463.405 320.767 477.115 334.476 494.026 334.476Z" fill="white"/>
<path d="M531.667 343.443C544.701 343.443 555.267 332.877 555.267 319.843C555.267 306.809 544.701 296.243 531.667 296.243C518.633 296.243 508.067 306.809 508.067 319.843C508.067 332.877 518.633 343.443 531.667 343.443Z" fill="white"/>
<path d="M576.23 404.738C599.138 404.738 617.709 386.167 617.709 363.259C617.709 340.351 599.138 321.78 576.23 321.78C553.322 321.78 534.751 340.351 534.751 363.259C534.751 386.167 553.322 404.738 576.23 404.738Z" fill="white"/>
<path d="M206.413 372.338C214.617 364.134 214.617 350.832 206.413 342.628C198.208 334.424 184.907 334.424 176.702 342.628C168.498 350.832 168.498 364.134 176.702 372.338C184.907 380.543 198.208 380.543 206.413 372.338Z" fill="white"/>
<path d="M526.816 367.07C538.823 362.001 544.448 348.157 539.378 336.15C534.308 324.142 520.465 318.518 508.457 323.588C496.45 328.657 490.826 342.501 495.895 354.509C500.965 366.516 514.809 372.14 526.816 367.07Z" fill="white"/>
<path d="M435.022 350.727C437.983 338.034 430.093 325.344 417.4 322.383C404.707 319.422 392.017 327.312 389.056 340.005C386.095 352.698 393.985 365.388 406.678 368.348C419.371 371.309 432.061 363.42 435.022 350.727Z" fill="white"/>
<path d="M412.054 345.379C432.625 345.379 449.301 328.704 449.301 308.133C449.301 287.562 432.625 270.886 412.054 270.886C391.484 270.886 374.808 287.562 374.808 308.133C374.808 328.704 391.484 345.379 412.054 345.379Z" fill="white"/>
<path style="mix-blend-mode:multiply" opacity="0.26" d="M410.686 361.854C424.29 348.25 423.402 325.306 408.702 310.606C394.002 295.906 371.057 295.018 357.454 308.621C343.85 322.225 344.738 345.17 359.438 359.87C374.138 374.569 397.083 375.458 410.686 361.854Z" fill="url(#paint9_radial_10_676)"/>
<path style="mix-blend-mode:multiply" opacity="0.73" d="M356.301 132.399C378.223 132.399 395.995 115.899 395.995 95.5465C395.995 75.1936 378.223 58.6943 356.301 58.6943C334.378 58.6943 316.606 75.1936 316.606 95.5465C316.606 115.899 334.378 132.399 356.301 132.399Z" fill="url(#paint10_radial_10_676)"/>
<path d="M301.022 81.9266C303.971 81.9223 306.885 82.565 309.558 83.8095C310.28 78.5191 312.78 73.6316 316.648 69.95C320.515 66.2684 325.519 64.0117 330.839 63.5507C336.158 63.0896 341.477 64.4517 345.92 67.4131C350.362 70.3745 353.666 74.759 355.287 79.8463C359.751 79.125 364.327 79.9121 368.293 82.0833C372.258 84.2545 375.387 87.6858 377.184 91.8345C379.455 90.5879 382.031 90.0037 384.618 90.1484C387.205 90.2932 389.699 91.1609 391.817 92.6531C393.935 94.1452 395.592 96.2019 396.6 98.5891C397.607 100.976 397.924 103.598 397.515 106.157C397.106 108.715 395.987 111.108 394.286 113.062C392.584 115.016 390.369 116.453 387.891 117.211C385.413 117.968 382.772 118.015 380.269 117.346C377.766 116.677 375.501 115.318 373.731 113.426C371.538 115.891 368.777 117.784 365.688 118.942C362.598 120.101 359.273 120.488 355.999 120.073C352.726 119.657 349.603 118.45 346.902 116.556C344.2 114.662 342 112.138 340.493 109.203C337.25 110.308 333.805 110.693 330.398 110.33C326.991 109.968 323.704 108.867 320.767 107.104C319.855 110.804 317.922 114.172 315.188 116.825C312.454 119.479 309.029 121.31 305.304 122.11C301.579 122.91 297.704 122.646 294.122 121.349C290.54 120.052 287.394 117.774 285.044 114.775C282.695 111.776 281.236 108.177 280.834 104.388C280.432 100.6 281.103 96.7746 282.771 93.3492C284.439 89.9239 287.036 87.0366 290.267 85.0168C293.497 82.997 297.23 81.9262 301.04 81.9266H301.022Z" fill="white"/>
<g style="mix-blend-mode:multiply" opacity="0.22">
<path d="M335.247 63.5365C339.818 64.0006 344.154 65.7921 347.72 68.6902C351.286 71.5883 353.925 75.4664 355.314 79.8465C359.777 79.1251 364.353 79.9123 368.319 82.0835C372.285 84.2547 375.413 87.686 377.21 91.8347C379.483 90.5915 382.059 90.0111 384.646 90.1595C387.232 90.3078 389.725 91.1789 391.841 92.6737C393.957 94.1685 395.611 96.2271 396.615 98.6153C397.619 101.004 397.933 103.626 397.521 106.183C397.109 108.741 395.987 111.132 394.284 113.084C392.581 115.036 390.364 116.471 387.885 117.225C385.407 117.98 382.766 118.024 380.264 117.352C377.762 116.68 375.499 115.32 373.731 113.426C371.538 115.891 368.777 117.784 365.687 118.943C362.598 120.101 359.272 120.489 355.999 120.073C352.726 119.657 349.603 118.45 346.901 116.556C344.199 114.662 342 112.138 340.492 109.203C338.794 109.783 337.034 110.165 335.247 110.341V63.5365Z" fill="#96CCCA"/>
</g>
<path style="mix-blend-mode:multiply" opacity="0.73" d="M364.048 127.745C383.915 127.745 400.021 114.771 400.021 98.7658C400.021 82.7608 383.915 69.7861 364.048 69.7861C344.18 69.7861 328.074 82.7608 328.074 98.7658C328.074 114.771 344.18 127.745 364.048 127.745Z" fill="url(#paint11_radial_10_676)"/>
<path style="mix-blend-mode:multiply" opacity="0.73" d="M312.428 124.948C329.225 124.948 342.842 113.073 342.842 98.4248C342.842 83.7766 329.225 71.902 312.428 71.902C295.631 71.902 282.014 83.7766 282.014 98.4248C282.014 113.073 295.631 124.948 312.428 124.948Z" fill="url(#paint12_radial_10_676)"/>
<path d="M310.168 81.9265C312.513 81.9352 314.811 82.5864 316.812 83.8095C318.014 72.2965 325.68 63.4108 334.978 63.4108C343.174 63.4108 350.114 70.315 352.454 79.8463C353.286 79.6737 354.133 79.5866 354.983 79.5863C361.492 79.5863 367.078 84.6344 369.508 91.8345C371.014 90.752 372.818 90.1631 374.673 90.1488C380.627 90.1488 385.433 96.3446 385.433 103.993C385.433 111.641 380.609 117.828 374.673 117.828C373.105 117.773 371.573 117.345 370.204 116.58C368.835 115.814 367.668 114.733 366.8 113.426C363.904 117.595 359.681 120.231 354.983 120.231C348.849 120.231 343.541 115.748 340.905 109.203C339.039 110.032 337.02 110.463 334.978 110.467C331.549 110.448 328.224 109.28 325.537 107.149C323.842 116.026 317.601 122.616 310.168 122.616C301.426 122.616 294.342 113.515 294.342 102.289C294.342 91.0634 301.426 81.9265 310.168 81.9265Z" fill="white"/>
<g style="mix-blend-mode:multiply" opacity="0.18">
<path d="M336.826 63.5365C344.205 64.4869 350.275 71.0414 352.454 79.8465C353.286 79.6739 354.133 79.5868 354.983 79.5865C361.492 79.5865 367.079 84.6346 369.508 91.8347C371.014 90.7522 372.819 90.1633 374.673 90.149C380.627 90.149 385.433 96.3448 385.433 103.993C385.433 111.642 380.609 117.828 374.673 117.828C373.105 117.774 371.573 117.346 370.204 116.58C368.835 115.814 367.668 114.733 366.801 113.426C363.904 117.595 359.681 120.231 354.983 120.231C348.85 120.231 343.542 115.748 340.905 109.203C339.608 109.778 338.234 110.162 336.826 110.341V63.5365Z" fill="#96CCCA"/>
</g>
<path style="mix-blend-mode:multiply" opacity="0.73" d="M562.915 152.932C580.807 152.932 595.311 139.468 595.311 122.858C595.311 106.249 580.807 92.7849 562.915 92.7849C545.024 92.7849 530.52 106.249 530.52 122.858C530.52 139.468 545.024 152.932 562.915 152.932Z" fill="url(#paint13_radial_10_676)"/>
<path d="M517.796 111.74C520.203 111.738 522.581 112.265 524.762 113.282C525.344 108.956 527.382 104.957 530.541 101.945C533.699 98.9318 537.79 97.0848 542.139 96.7079C546.488 96.3309 550.835 97.4466 554.465 99.8711C558.095 102.295 560.79 105.884 562.108 110.046C562.983 109.909 563.867 109.84 564.753 109.839C567.993 109.834 571.163 110.778 573.872 112.555C576.581 114.332 578.71 116.863 579.996 119.837C581.851 118.821 583.954 118.347 586.065 118.468C588.177 118.588 590.212 119.299 591.939 120.519C593.666 121.739 595.017 123.42 595.836 125.369C596.655 127.319 596.911 129.459 596.574 131.547C596.237 133.635 595.321 135.586 593.93 137.179C592.539 138.772 590.728 139.942 588.705 140.557C586.681 141.172 584.526 141.206 582.484 140.656C580.442 140.107 578.595 138.995 577.154 137.447C575.368 139.465 573.117 141.017 570.596 141.968C568.075 142.92 565.36 143.242 562.686 142.907C560.013 142.572 557.461 141.591 555.253 140.047C553.044 138.504 551.245 136.445 550.012 134.049C547.36 134.957 544.541 135.274 541.753 134.978C538.965 134.683 536.275 133.781 533.872 132.336C533.128 135.352 531.551 138.099 529.322 140.262C527.093 142.425 524.3 143.919 521.263 144.572C518.226 145.226 515.066 145.012 512.145 143.957C509.223 142.902 506.656 141.047 504.738 138.604C502.819 136.161 501.625 133.228 501.293 130.139C500.96 127.05 501.502 123.93 502.857 121.135C504.211 118.339 506.324 115.98 508.954 114.327C511.584 112.674 514.626 111.793 517.733 111.785L517.796 111.74Z" fill="white"/>
<g style="mix-blend-mode:multiply" opacity="0.22">
<path d="M545.727 96.739C549.458 97.1164 552.997 98.5773 555.908 100.942C558.819 103.306 560.974 106.471 562.108 110.045C562.983 109.908 563.868 109.839 564.753 109.839C567.993 109.834 571.163 110.778 573.872 112.555C576.581 114.332 578.71 116.863 579.996 119.837C581.851 118.821 583.954 118.347 586.066 118.467C588.177 118.588 590.212 119.299 591.939 120.519C593.667 121.739 595.017 123.419 595.836 125.369C596.656 127.319 596.912 129.459 596.575 131.547C596.238 133.635 595.322 135.586 593.93 137.179C592.539 138.772 590.729 139.942 588.705 140.557C586.682 141.171 584.526 141.206 582.484 140.656C580.442 140.106 578.595 138.994 577.154 137.447C575.368 139.465 573.117 141.016 570.596 141.968C568.075 142.919 565.361 143.242 562.687 142.907C560.013 142.572 557.462 141.59 555.253 140.047C553.044 138.503 551.246 136.444 550.013 134.048C548.622 134.508 547.184 134.809 545.727 134.945V96.739Z" fill="#96CCCA"/>
</g>
<path style="mix-blend-mode:multiply" opacity="0.73" d="M569.227 149.148C585.44 149.148 598.584 138.558 598.584 125.495C598.584 112.431 585.44 101.841 569.227 101.841C553.014 101.841 539.871 112.431 539.871 125.495C539.871 138.558 553.014 149.148 569.227 149.148Z" fill="url(#paint14_radial_10_676)"/>
<path style="mix-blend-mode:multiply" opacity="0.73" d="M527.112 146.853C540.819 146.853 551.931 137.162 551.931 125.208C551.931 113.253 540.819 103.563 527.112 103.563C513.405 103.563 502.293 113.253 502.293 125.208C502.293 137.162 513.405 146.853 527.112 146.853Z" fill="url(#paint15_radial_10_676)"/>
<path d="M525.265 111.749C527.179 111.757 529.055 112.287 530.69 113.282C531.667 103.885 537.926 96.6316 545.512 96.6316C552.2 96.6316 557.867 102.272 559.777 110.081C560.455 109.937 561.146 109.865 561.839 109.866C567.148 109.866 571.703 113.982 573.693 119.864C574.92 118.977 576.393 118.494 577.907 118.483C582.767 118.483 586.703 123.54 586.703 129.781C586.703 136.021 582.767 141.043 577.925 141.043C576.646 140.997 575.396 140.649 574.278 140.025C573.16 139.401 572.207 138.521 571.496 137.456C569.129 140.863 565.686 143.015 561.857 143.015C556.854 143.015 552.514 139.357 550.371 134.049C548.846 134.724 547.197 135.075 545.529 135.08C542.728 135.05 540.017 134.085 537.827 132.336C536.437 139.581 531.353 144.952 525.274 144.952C518.101 144.952 512.354 137.528 512.354 128.373C512.354 119.218 518.128 111.749 525.265 111.749Z" fill="white"/>
<g style="mix-blend-mode:multiply" opacity="0.22">
<path d="M547.018 96.739C553.043 97.5101 558.01 102.863 559.777 110.054C560.455 109.91 561.146 109.838 561.839 109.839C567.147 109.839 571.702 113.955 573.693 119.837C574.92 118.95 576.393 118.467 577.907 118.456C582.767 118.456 586.703 123.513 586.703 129.754C586.703 135.994 582.767 141.042 577.925 141.042C576.646 140.997 575.396 140.648 574.278 140.025C573.16 139.401 572.206 138.521 571.496 137.456C569.129 140.863 565.686 143.015 561.857 143.015C556.854 143.015 552.514 139.357 550.371 134.048C549.307 134.503 548.184 134.804 547.035 134.945L547.018 96.739Z" fill="#96CCCA"/>
</g>
<path style="mix-blend-mode:multiply" opacity="0.73" d="M317.117 240.23C328.913 240.23 338.476 231.35 338.476 220.396C338.476 209.442 328.913 200.562 317.117 200.562C305.322 200.562 295.759 209.442 295.759 220.396C295.759 231.35 305.322 240.23 317.117 240.23Z" fill="url(#paint16_radial_10_676)"/>
<path d="M331.93 217.491C330.678 217.486 329.445 217.794 328.343 218.387C327.496 216.43 326.095 214.763 324.312 213.592C322.529 212.42 320.443 211.797 318.31 211.797C317.709 211.797 317.11 211.845 316.517 211.941C315.65 209.195 313.874 206.827 311.482 205.227C309.089 203.626 306.222 202.889 303.354 203.137C300.486 203.384 297.788 204.602 295.705 206.588C293.622 208.575 292.278 211.212 291.895 214.066C290.158 213.261 288.241 212.926 286.334 213.095C284.428 213.263 282.599 213.929 281.03 215.026C279.461 216.122 278.208 217.611 277.394 219.344C276.581 221.076 276.237 222.992 276.396 224.899C276.554 226.807 277.211 228.639 278.299 230.213C279.388 231.787 280.87 233.048 282.599 233.87C284.327 234.692 286.241 235.047 288.149 234.897C290.057 234.748 291.893 234.101 293.473 233.021C294.651 234.594 296.187 235.864 297.954 236.726C299.72 237.588 301.667 238.017 303.632 237.978C305.597 237.938 307.525 237.432 309.256 236.499C310.986 235.567 312.47 234.237 313.585 232.617C315.73 233.639 318.15 233.935 320.479 233.461C322.808 232.987 324.92 231.769 326.496 229.99C327.342 230.885 328.397 231.557 329.566 231.944C330.736 232.331 331.983 232.422 333.196 232.209C334.409 231.995 335.55 231.484 336.517 230.72C337.484 229.957 338.246 228.966 338.736 227.835C339.225 226.705 339.426 225.471 339.321 224.243C339.216 223.016 338.807 221.834 338.133 220.804C337.458 219.773 336.538 218.926 335.456 218.338C334.373 217.751 333.162 217.441 331.93 217.437V217.491Z" fill="white"/>
<g style="mix-blend-mode:multiply" opacity="0.22">
<path d="M331.93 217.491C330.678 217.486 329.445 217.794 328.343 218.387C327.496 216.43 326.095 214.763 324.312 213.592C322.53 212.421 320.443 211.797 318.31 211.797C317.709 211.797 317.11 211.845 316.517 211.941C315.844 209.817 314.623 207.908 312.976 206.407C311.329 204.907 309.315 203.868 307.138 203.396V237.396C309.765 236.569 312.043 234.891 313.611 232.626C315.755 233.64 318.17 233.932 320.493 233.456C322.817 232.981 324.923 231.765 326.496 229.99C327.342 230.885 328.397 231.557 329.567 231.944C330.736 232.331 331.983 232.422 333.196 232.209C334.409 231.995 335.551 231.484 336.517 230.72C337.484 229.957 338.246 228.966 338.736 227.835C339.225 226.705 339.426 225.471 339.321 224.244C339.216 223.016 338.808 221.834 338.133 220.804C337.458 219.773 336.539 218.926 335.456 218.338C334.373 217.751 333.162 217.441 331.93 217.437V217.491Z" fill="#96CCCA"/>
</g>
<path style="mix-blend-mode:multiply" opacity="0.73" d="M338.931 231.338C342.893 223.692 338.409 213.506 328.916 208.587C319.423 203.669 308.516 205.88 304.554 213.526C300.592 221.172 305.076 231.358 314.569 236.277C324.062 241.195 334.969 238.984 338.931 231.338Z" fill="url(#paint17_radial_10_676)"/>
<path style="mix-blend-mode:multiply" opacity="0.73" d="M295.786 231.326C304.363 231.326 311.316 225.722 311.316 218.809C311.316 211.896 304.363 206.292 295.786 206.292C287.209 206.292 280.256 211.896 280.256 218.809C280.256 225.722 287.209 231.326 295.786 231.326Z" fill="url(#paint18_radial_10_676)"/>
<path style="mix-blend-mode:multiply" opacity="0.73" d="M294.988 242.355C302.664 242.355 308.886 237.341 308.886 231.156C308.886 224.971 302.664 219.957 294.988 219.957C287.312 219.957 281.09 224.971 281.09 231.156C281.09 237.341 287.312 242.355 294.988 242.355Z" fill="url(#paint19_radial_10_676)"/>
<path d="M324.263 217.491C323.314 217.5 322.393 217.814 321.636 218.387C320.399 214.514 317.556 211.797 314.248 211.797C313.816 211.8 313.387 211.848 312.965 211.941C311.773 206.812 308.249 203.091 304.08 203.091C299.354 203.091 295.454 207.87 294.844 214.066C293.836 213.414 292.664 213.062 291.464 213.052C286.981 213.052 283.394 217.948 283.394 223.992C283.394 230.035 286.981 234.931 291.464 234.931C293.165 234.898 294.789 234.215 296.001 233.021C297.669 236.025 300.305 237.979 303.291 237.979C306.411 237.979 309.164 235.854 310.805 232.599C311.827 233.274 313.023 233.639 314.248 233.648C315.476 233.592 316.669 233.227 317.719 232.587C318.769 231.948 319.641 231.055 320.255 229.99C320.678 230.683 321.265 231.261 321.964 231.674C322.663 232.087 323.452 232.322 324.263 232.357C327.285 232.357 329.742 229.022 329.742 224.915C329.742 220.808 327.285 217.491 324.263 217.491Z" fill="white"/>
<g style="mix-blend-mode:multiply" opacity="0.22">
<path d="M324.263 217.491C323.314 217.5 322.393 217.814 321.636 218.387C320.399 214.514 317.556 211.797 314.248 211.797C313.817 211.799 313.387 211.848 312.966 211.94C311.97 207.637 309.325 204.346 306.043 203.386V237.387C308.137 236.4 309.821 234.713 310.805 232.617C311.827 233.292 313.023 233.657 314.248 233.666C315.476 233.609 316.669 233.245 317.719 232.605C318.769 231.966 319.641 231.073 320.255 230.008C320.678 230.701 321.265 231.279 321.964 231.692C322.663 232.105 323.452 232.339 324.263 232.375C327.285 232.375 329.742 229.04 329.742 224.933C329.742 220.826 327.285 217.491 324.263 217.491Z" fill="#96CCCA"/>
</g>
<path style="mix-blend-mode:multiply" opacity="0.26" d="M508.56 343.769C522.164 330.165 521.275 307.22 506.575 292.521C491.876 277.821 468.931 276.932 455.327 290.536C441.723 304.14 442.612 327.085 457.312 341.784C472.011 356.484 494.956 357.373 508.56 343.769Z" fill="url(#paint20_radial_10_676)"/>
<path d="M497.415 341.105C502.111 321.576 490.086 301.938 470.557 297.242C451.028 292.546 431.39 304.571 426.695 324.1C421.999 343.629 434.024 363.267 453.553 367.962C473.081 372.658 492.719 360.633 497.415 341.105Z" fill="white"/>
<path d="M363.698 383.353C382.615 383.353 397.95 368.017 397.95 349.101C397.95 330.184 382.615 314.849 363.698 314.849C344.781 314.849 329.446 330.184 329.446 349.101C329.446 368.017 344.781 383.353 363.698 383.353Z" fill="white"/>
<defs>
<radialGradient id="paint0_radial_10_676" cx="0" cy="0" r="1" gradientUnits="userSpaceOnUse" gradientTransform="translate(477.892 188.627) rotate(104.84) scale(55.5473 38.1299)">
<stop offset="0" stop-opacity=".3"/><stop offset="1" stop-opacity="0"/>
</radialGradient>
<radialGradient id="paint1_radial_10_676" cx="0" cy="0" r="1" gradientUnits="userSpaceOnUse" gradientTransform="translate(481.738 151.884) rotate(83.17) scale(55.5473 38.1299)">
<stop offset="0" stop-opacity=".3"/><stop offset="1" stop-opacity="0"/>
</radialGradient>
<radialGradient id="paint2_radial_10_676" cx="0" cy="0" r="1" gradientUnits="userSpaceOnUse" gradientTransform="translate(375.857 310.404) rotate(34.21) scale(43.0514 33.0395)">
<stop offset="0" stop-opacity=".3"/><stop offset="1" stop-opacity="0"/>
</radialGradient>
<linearGradient id="paint3_linear_10_676" x1="438.972" y1="205.552" x2="452.538" y2="219.01" gradientUnits="userSpaceOnUse">
<stop stop-color="#D52274"/>
<stop offset="0.5625" stop-color="#F44D29"/>
<stop offset="1" stop-color="#FD7E14"/>
</linearGradient>
<linearGradient id="paint4_linear_10_676" x1="475.008" y1="182.441" x2="511.343" y2="189.631" gradientUnits="userSpaceOnUse">
<stop stop-color="#D52274"/>
<stop offset="0.5625" stop-color="#F44D29"/>
<stop offset="1" stop-color="#FD7E14"/>
</linearGradient>
<linearGradient id="paint5_linear_10_676" x1="387.863" y1="182.441" x2="424.198" y2="189.631" gradientUnits="userSpaceOnUse">
<stop stop-color="#D52274"/>
<stop offset="0.5625" stop-color="#F44D29"/>
<stop offset="1" stop-color="#FD7E14"/>
</linearGradient>
<linearGradient id="paint6_linear_10_676" x1="415.13" y1="137.12" x2="479.591" y2="159.284" gradientUnits="userSpaceOnUse">
<stop stop-color="#D52274"/>
<stop offset="0.5625" stop-color="#F44D29"/>
<stop offset="1" stop-color="#FD7E14"/>
</linearGradient>
<radialGradient id="paint7_radial_10_676" cx="0" cy="0" r="1" gradientUnits="userSpaceOnUse" gradientTransform="translate(343.697 315.199) rotate(34.21) scale(43.8134 28.7253)">
<stop offset="0" stop-opacity=".3"/><stop offset="1" stop-opacity="0"/>
</radialGradient>
<radialGradient id="paint8_radial_10_676" cx="0" cy="0" r="1" gradientUnits="userSpaceOnUse" gradientTransform="translate(527.876 305.675) rotate(34.21) scale(50.3935 27.0323)">
<stop offset="0" stop-opacity=".3"/><stop offset="1" stop-opacity="0"/>
</radialGradient>
<radialGradient id="paint9_radial_10_676" cx="0" cy="0" r="1" gradientUnits="userSpaceOnUse" gradientTransform="translate(382.96 332.242) rotate(45) scale(36.8497 28.7253)">
<stop offset="0" stop-opacity=".3"/><stop offset="1" stop-opacity="0"/>
</radialGradient>
<radialGradient id="paint10_radial_10_676" cx="0" cy="0" r="1" gradientUnits="userSpaceOnUse" gradientTransform="translate(357.568 96.4968) scale(38.8813 30.5766)">
<stop offset="0" stop-opacity=".3"/><stop offset="1" stop-opacity="0"/>
</radialGradient>
<radialGradient id="paint11_radial_10_676" cx="0" cy="0" r="1" gradientUnits="userSpaceOnUse" gradientTransform="translate(363.636 99.7182) scale(35.0318 24.0473)">
<stop offset="0" stop-opacity=".3"/><stop offset="1" stop-opacity="0"/>
</radialGradient>
<radialGradient id="paint12_radial_10_676" cx="0" cy="0" r="1" gradientUnits="userSpaceOnUse" gradientTransform="translate(312.428 98.5817) scale(29.688 21.9691)">
<stop offset="0" stop-opacity=".3"/><stop offset="1" stop-opacity="0"/>
</radialGradient>
<radialGradient id="paint13_radial_10_676" cx="0" cy="0" r="1" gradientUnits="userSpaceOnUse" gradientTransform="translate(564.886 123.842) scale(31.7331 24.9551)">
<stop offset="0" stop-opacity=".3"/><stop offset="1" stop-opacity="0"/>
</radialGradient>
<radialGradient id="paint14_radial_10_676" cx="0" cy="0" r="1" gradientUnits="userSpaceOnUse" gradientTransform="translate(568.335 126.473) scale(28.5884 19.6242)">
<stop offset="0" stop-opacity=".3"/><stop offset="1" stop-opacity="0"/>
</radialGradient>
<radialGradient id="paint15_radial_10_676" cx="0" cy="0" r="1" gradientUnits="userSpaceOnUse" gradientTransform="translate(527.112 125.371) scale(24.2274 17.9283)">
<stop offset="0" stop-opacity=".3"/><stop offset="1" stop-opacity="0"/>
</radialGradient>
<radialGradient id="paint16_radial_10_676" cx="0" cy="0" r="1" gradientUnits="userSpaceOnUse" gradientTransform="translate(318.243 221.469) scale(20.9183 16.4503)">
<stop offset="0" stop-opacity=".3"/><stop offset="1" stop-opacity="0"/>
</radialGradient>
<radialGradient id="paint17_radial_10_676" cx="0" cy="0" r="1" gradientUnits="userSpaceOnUse" gradientTransform="translate(322.742 223.136) rotate(27.39) scale(18.8543 12.9424)">
<stop offset="0" stop-opacity=".3"/><stop offset="1" stop-opacity="0"/>
</radialGradient>
<radialGradient id="paint18_radial_10_676" cx="0" cy="0" r="1" gradientUnits="userSpaceOnUse" gradientTransform="translate(295.54 219.883) scale(15.1194 10.3786)">
<stop offset="0" stop-opacity=".3"/><stop offset="1" stop-opacity="0"/>
</radialGradient>
<radialGradient id="paint19_radial_10_676" cx="0" cy="0" r="1" gradientUnits="userSpaceOnUse" gradientTransform="translate(294.746 232.244) scale(13.5324 9.28918)">
<stop offset="0" stop-opacity=".3"/><stop offset="1" stop-opacity="0"/>
</radialGradient>
<radialGradient id="paint20_radial_10_676" cx="0" cy="0" r="1" gradientUnits="userSpaceOnUse" gradientTransform="translate(480.851 314.392) rotate(45) scale(36.8497 28.7253)">
<stop offset="0" stop-opacity=".3"/><stop offset="1" stop-opacity="0"/>
</radialGradient>
</defs>
</svg>
