<svg width="657" height="227" fill="none" xmlns="http://www.w3.org/2000/svg"><path style="mix-blend-mode:multiply" opacity=".37" d="M359.624 125.696c17.854-26.262 8.756-63.576-20.321-83.344-29.076-19.768-67.121-14.504-84.975 11.758-17.854 26.261-8.756 63.576 20.32 83.343 29.077 19.768 67.121 14.504 84.976-11.757Z" fill="url(#a)"/><path d="M261.715 136.519c8.788-36.243-13.468-72.749-49.712-81.537-36.243-8.788-72.748 13.469-81.536 49.712-8.789 36.243 13.468 72.748 49.711 81.537 36.244 8.788 72.749-13.469 81.537-49.712Z" fill="#fff"/><path d="M170.201 169.309c7.673-31.815-11.897-63.825-43.711-71.498-31.814-7.674-63.825 11.897-71.498 43.711-7.673 31.814 11.897 63.825 43.71 71.498 31.815 7.673 63.826-11.897 71.499-43.711Z" fill="#fff"/><path style="mix-blend-mode:multiply" opacity=".37" d="M310.559 133.799c15.587-22.928 4.202-57.845-25.429-77.99-29.631-20.145-66.288-17.889-81.875 5.038-15.587 22.927-4.202 57.844 25.429 77.989 29.631 20.145 66.288 17.89 81.875-5.037Z" fill="url(#b)"/><path d="M276.098 158.721c24.37 0 44.126-19.755 44.126-44.125S300.468 70.47 276.098 70.47c-24.37 0-44.126 19.756-44.126 44.126 0 24.37 19.756 44.125 44.126 44.125Z" fill="#fff"/><path style="mix-blend-mode:multiply" opacity=".37" d="M586.215 123.452c14.576-21.44-1.236-57.604-35.317-80.774s-73.525-24.573-88.101-3.133c-14.577 21.44 1.235 57.604 35.316 80.774s73.526 24.573 88.102 3.133Z" fill="url(#c)"/><path d="M478.766 125.565c24.37 0 44.126-19.756 44.126-44.126 0-24.37-19.756-44.125-44.126-44.125-24.37 0-44.126 19.755-44.126 44.125s19.756 44.126 44.126 44.126Z" fill="#fff"/><path d="M533.009 138.487c18.782 0 34.008-15.226 34.008-34.009 0-18.782-15.226-34.008-34.008-34.008-18.783 0-34.009 15.226-34.009 34.008 0 18.783 15.226 34.009 34.009 34.009Z" fill="#fff"/><path d="M597.227 226.816c33.012 0 59.773-26.761 59.773-59.773s-26.761-59.773-59.773-59.773-59.773 26.761-59.773 59.773 26.761 59.773 59.773 59.773ZM64.301 180.126c11.823-11.822 11.823-30.991 0-42.814-11.822-11.823-30.991-11.823-42.814 0s-11.823 30.992 0 42.814c11.823 11.823 30.992 11.823 42.814 0Z" fill="#fff"/><path d="M526.019 172.536c17.303-7.306 25.408-27.256 18.102-44.559-7.306-17.303-27.255-25.408-44.558-18.102-17.304 7.305-25.408 27.255-18.103 44.558 7.306 17.303 27.255 25.408 44.559 18.103ZM393.739 148.982c4.266-18.291-7.103-36.578-25.394-40.844-18.292-4.267-36.578 7.102-40.845 25.394-4.267 18.291 7.103 36.578 25.394 40.844 18.291 4.267 36.578-7.102 40.845-25.394Z" fill="#fff"/><path d="M360.641 141.278c29.643 0 53.674-24.031 53.674-53.675 0-29.643-24.031-53.674-53.674-53.674-29.644 0-53.675 24.03-53.675 53.674s24.031 53.675 53.675 53.675Z" fill="#fff"/><path style="mix-blend-mode:multiply" opacity=".26" d="M358.67 165.019c19.604-19.604 18.323-52.668-2.86-73.852-21.183-21.183-54.248-22.463-73.851-2.86-19.604 19.604-18.324 52.669 2.859 73.852 21.184 21.183 54.248 22.464 73.852 2.86Z" fill="url(#d)"/><path style="mix-blend-mode:multiply" opacity=".26" d="M499.711 138.957c19.604-19.604 18.323-52.668-2.86-73.852-21.183-21.183-54.247-22.463-73.851-2.86-19.604 19.604-18.324 52.669 2.86 73.852 21.183 21.183 54.247 22.464 73.851 2.86Z" fill="url(#e)"/><path d="M483.651 135.117c6.767-28.143-10.562-56.442-38.704-63.208-28.142-6.767-56.441 10.56-63.208 38.703-6.766 28.142 10.562 56.441 38.704 63.208 28.142 6.767 56.441-10.561 63.208-38.703ZM290.957 195.998c27.26 0 49.359-22.098 49.359-49.358 0-27.26-22.099-49.359-49.359-49.359s-49.358 22.099-49.358 49.359 22.098 49.358 49.358 49.358Z" fill="#fff"/><defs><radialGradient id="a" cx="0" cy="0" r="1" gradientUnits="userSpaceOnUse" gradientTransform="rotate(34.21 6.586 546.646) scale(62.0393 47.6115)"><stop offset="0" stop-opacity=".3"/><stop offset="1" stop-opacity="0"/></radialGradient><radialGradient id="b" cx="0" cy="0" r="1" gradientUnits="userSpaceOnUse" gradientTransform="rotate(34.21 -27.812 474.8) scale(63.1373 41.3947)"><stop offset="0" stop-opacity=".3"/><stop offset="1" stop-opacity="0"/></radialGradient><radialGradient id="c" cx="0" cy="0" r="1" gradientUnits="userSpaceOnUse" gradientTransform="rotate(34.21 127.193 899.174) scale(72.6196 38.9549)"><stop offset="0" stop-opacity=".3"/><stop offset="1" stop-opacity="0"/></radialGradient><radialGradient id="d" cx="0" cy="0" r="1" gradientUnits="userSpaceOnUse" gradientTransform="matrix(37.54893 37.54893 -29.27047 29.27047 318.715 122.346)"><stop offset="0" stop-opacity=".3"/><stop offset="1" stop-opacity="0"/></radialGradient><radialGradient id="e" cx="0" cy="0" r="1" gradientUnits="userSpaceOnUse" gradientTransform="matrix(37.54893 37.54893 -29.27047 29.27047 459.781 96.623)"><stop offset="0" stop-opacity=".3"/><stop offset="1" stop-opacity="0"/></radialGradient></defs></svg>