<svg width="195" height="99" fill="none" xmlns="http://www.w3.org/2000/svg"><path style="mix-blend-mode:multiply" opacity=".37" d="M106.727 37.096c5.3-7.795 2.599-18.871-6.032-24.74-8.631-5.867-19.924-4.304-25.224 3.491-5.3 7.795-2.6 18.872 6.032 24.74 8.63 5.867 19.924 4.305 25.224-3.49Z" fill="url(#a)"/><path d="M77.664 40.31c2.608-10.759-3.998-21.595-14.757-24.204-10.758-2.608-21.594 3.998-24.203 14.757-2.609 10.758 3.998 21.595 14.756 24.203 10.759 2.609 21.595-3.998 24.204-14.756Z" fill="#fff"/><path d="M50.499 50.042c2.277-9.443-3.532-18.945-12.976-21.223-9.443-2.278-18.945 3.532-21.223 12.975-2.278 9.444 3.532 18.946 12.975 21.224 9.444 2.277 18.946-3.532 21.224-12.976Z" fill="#fff"/><path style="mix-blend-mode:multiply" opacity=".37" d="M92.163 39.501c4.627-6.806 1.247-17.17-7.549-23.15-8.795-5.98-19.677-5.31-24.304 1.495-4.626 6.806-1.247 17.17 7.549 23.15 8.796 5.98 19.677 5.31 24.304-1.495Z" fill="url(#b)"/><path d="M81.933 46.898c7.234 0 13.098-5.865 13.098-13.099 0-7.233-5.864-13.098-13.098-13.098-7.234 0-13.098 5.864-13.098 13.098 0 7.234 5.864 13.099 13.098 13.099Z" fill="#fff"/><path style="mix-blend-mode:multiply" opacity=".37" d="M173.988 36.43c4.327-6.364-.367-17.099-10.483-23.977-10.117-6.878-21.826-7.294-26.152-.93-4.327 6.365.367 17.1 10.483 23.977 10.117 6.878 21.825 7.294 26.152.93Z" fill="url(#c)"/><path d="M142.093 37.058c7.234 0 13.098-5.864 13.098-13.098 0-7.234-5.864-13.099-13.098-13.099-7.234 0-13.098 5.865-13.098 13.099 0 7.233 5.864 13.098 13.098 13.098Z" fill="#fff"/><path d="M158.195 40.891c5.575 0 10.095-4.52 10.095-10.095 0-5.575-4.52-10.095-10.095-10.095-5.576 0-10.096 4.52-10.096 10.095 0 5.576 4.52 10.095 10.096 10.095Z" fill="#fff"/><path d="M177.257 67.113c9.799 0 17.743-7.944 17.743-17.743 0-9.8-7.944-17.743-17.743-17.743s-17.743 7.944-17.743 17.743c0 9.8 7.944 17.743 17.743 17.743ZM19.064 53.253a8.986 8.986 0 1 0-12.71-12.709 8.987 8.987 0 1 0 12.71 12.709Z" fill="#fff"/><path d="M156.12 51c5.136-2.169 7.542-8.09 5.373-13.227-2.169-5.136-8.09-7.542-13.227-5.373-5.136 2.168-7.542 8.09-5.373 13.226 2.168 5.137 8.09 7.542 13.227 5.374ZM116.854 44.008c1.266-5.43-2.109-10.858-7.538-12.124-5.43-1.267-10.858 2.108-12.125 7.538-1.266 5.43 2.109 10.858 7.538 12.124 5.43 1.267 10.858-2.108 12.125-7.538Z" fill="#fff"/><path d="M107.029 41.72c8.799 0 15.933-7.133 15.933-15.932 0-8.8-7.134-15.933-15.933-15.933-8.8 0-15.933 7.134-15.933 15.933 0 8.8 7.133 15.933 15.933 15.933Z" fill="#fff"/><path style="mix-blend-mode:multiply" opacity=".26" d="M106.444 48.769c5.819-5.82 5.439-15.634-.849-21.922-6.288-6.289-16.103-6.669-21.922-.85-5.82 5.82-5.44 15.635.849 21.923 6.288 6.288 16.103 6.668 21.922.849Z" fill="url(#d)"/><path style="mix-blend-mode:multiply" opacity=".26" d="M148.31 41.032c5.82-5.819 5.439-15.634-.849-21.922s-16.102-6.668-21.922-.849c-5.819 5.82-5.439 15.634.849 21.922s16.103 6.668 21.922.85Z" fill="url(#e)"/><path d="M143.543 39.893c2.009-8.353-3.135-16.754-11.489-18.762-8.353-2.009-16.754 3.135-18.762 11.488-2.009 8.354 3.135 16.754 11.489 18.763 8.353 2.009 16.754-3.135 18.762-11.489ZM86.344 57.963c8.092 0 14.652-6.56 14.652-14.651 0-8.092-6.56-14.652-14.652-14.652-8.092 0-14.651 6.56-14.651 14.652 0 8.092 6.56 14.651 14.651 14.651Z" fill="#fff"/><path style="mix-blend-mode:multiply" opacity=".37" d="M88.273 61.64c-5.3 7.796-2.6 18.873 6.032 24.74 8.631 5.868 19.924 4.306 25.224-3.49 5.3-7.795 2.599-18.871-6.032-24.74-8.631-5.867-19.924-4.305-25.224 3.49Z" fill="url(#f)"/><path d="M117.336 58.428c-2.608 10.759 3.998 21.595 14.757 24.204 10.758 2.608 21.594-3.998 24.203-14.757 2.609-10.758-3.998-21.594-14.756-24.203-10.759-2.609-21.595 3.998-24.204 14.756Z" fill="#fff"/><path d="M144.501 48.696c-2.277 9.444 3.532 18.945 12.976 21.223 9.443 2.278 18.945-3.531 21.223-12.975 2.278-9.444-3.532-18.946-12.975-21.223-9.444-2.278-18.946 3.531-21.224 12.975Z" fill="#fff"/><path style="mix-blend-mode:multiply" opacity=".37" d="M102.837 59.237c-4.627 6.806-1.247 17.17 7.549 23.15 8.795 5.98 19.677 5.31 24.304-1.495 4.626-6.805 1.247-17.17-7.549-23.15-8.796-5.98-19.677-5.31-24.304 1.495Z" fill="url(#g)"/><path d="M113.067 51.84c-7.234 0-13.098 5.865-13.098 13.099s5.864 13.098 13.098 13.098c7.234 0 13.098-5.864 13.098-13.098 0-7.234-5.864-13.098-13.098-13.098Z" fill="#fff"/><path style="mix-blend-mode:multiply" opacity=".37" d="M21.012 62.308c-4.327 6.364.367 17.1 10.483 23.977 10.117 6.878 21.826 7.294 26.152.93 4.327-6.364-.366-17.1-10.483-23.977-10.117-6.878-21.825-7.294-26.152-.93Z" fill="url(#h)"/><path d="M52.907 61.68c-7.234 0-13.098 5.865-13.098 13.099s5.864 13.098 13.098 13.098c7.234 0 13.098-5.864 13.098-13.098 0-7.234-5.864-13.098-13.098-13.098Z" fill="#fff"/><path d="M36.806 57.847c-5.576 0-10.095 4.52-10.095 10.095 0 5.575 4.52 10.095 10.095 10.095 5.575 0 10.095-4.52 10.095-10.095 0-5.575-4.52-10.095-10.096-10.095Z" fill="#fff"/><path d="M17.743 31.625C7.943 31.625 0 39.57 0 49.368c0 9.8 7.944 17.743 17.743 17.743 9.8 0 17.743-7.944 17.743-17.743s-7.944-17.743-17.743-17.743ZM175.936 45.485a8.987 8.987 0 1 0 12.711 12.71 8.987 8.987 0 0 0-12.711-12.71Z" fill="#fff"/><path d="M38.88 47.739c-5.136 2.168-7.542 8.09-5.373 13.226 2.169 5.136 8.09 7.542 13.227 5.374 5.136-2.169 7.542-8.09 5.373-13.227-2.168-5.136-8.09-7.542-13.227-5.373ZM78.147 54.73c-1.267 5.43 2.108 10.858 7.537 12.124 5.43 1.267 10.858-2.108 12.125-7.538 1.266-5.43-2.109-10.857-7.538-12.124-5.43-1.266-10.858 2.108-12.124 7.538Z" fill="#fff"/><path d="M87.971 57.017c-8.8 0-15.933 7.134-15.933 15.933 0 8.8 7.134 15.933 15.933 15.933 8.8 0 15.933-7.133 15.933-15.933s-7.133-15.933-15.933-15.933Z" fill="#fff"/><path style="mix-blend-mode:multiply" opacity=".26" d="M88.556 49.969c-5.819 5.819-5.439 15.634.85 21.922 6.287 6.288 16.102 6.668 21.921.849 5.819-5.82 5.439-15.634-.849-21.922s-16.102-6.668-21.922-.85Z" fill="url(#i)"/><path style="mix-blend-mode:multiply" opacity=".26" d="M46.69 57.706c-5.82 5.82-5.44 15.634.849 21.922 6.288 6.288 16.102 6.668 21.921.849 5.82-5.82 5.44-15.634-.848-21.922s-16.103-6.668-21.922-.849Z" fill="url(#j)"/><path d="M51.457 58.845c-2.009 8.354 3.135 16.754 11.489 18.763 8.353 2.008 16.754-3.135 18.762-11.49 2.009-8.353-3.135-16.753-11.489-18.762-8.353-2.008-16.753 3.135-18.762 11.489ZM108.656 40.775c-8.092 0-14.652 6.56-14.652 14.651 0 8.092 6.56 14.652 14.652 14.652 8.092 0 14.652-6.56 14.652-14.652 0-8.091-6.56-14.651-14.652-14.651Z" fill="#fff"/><defs><radialGradient id="a" cx="0" cy="0" r="1" gradientUnits="userSpaceOnUse" gradientTransform="matrix(15.22946 10.35382 -7.94596 11.68774 91.545 26.76)"><stop offset="0" stop-opacity=".3"/><stop offset="1" stop-opacity="0"/></radialGradient><radialGradient id="b" cx="0" cy="0" r="1" gradientUnits="userSpaceOnUse" gradientTransform="rotate(34.21 -7.917 140.793) scale(18.7417 12.2876)"><stop offset="0" stop-opacity=".3"/><stop offset="1" stop-opacity="0"/></radialGradient><radialGradient id="c" cx="0" cy="0" r="1" gradientUnits="userSpaceOnUse" gradientTransform="rotate(34.21 38.094 266.764) scale(21.5564 11.5634)"><stop offset="0" stop-opacity=".3"/><stop offset="1" stop-opacity="0"/></radialGradient><radialGradient id="d" cx="0" cy="0" r="1" gradientUnits="userSpaceOnUse" gradientTransform="matrix(11.14605 11.14605 -8.68865 8.68865 94.584 36.102)"><stop offset="0" stop-opacity=".3"/><stop offset="1" stop-opacity="0"/></radialGradient><radialGradient id="e" cx="0" cy="0" r="1" gradientUnits="userSpaceOnUse" gradientTransform="matrix(11.14605 11.14605 -8.68865 8.68865 136.458 28.466)"><stop offset="0" stop-opacity=".3"/><stop offset="1" stop-opacity="0"/></radialGradient><radialGradient id="f" cx="0" cy="0" r="1" gradientUnits="userSpaceOnUse" gradientTransform="matrix(-15.22946 -10.35382 7.94596 -11.68774 103.455 71.977)"><stop offset="0" stop-opacity=".3"/><stop offset="1" stop-opacity="0"/></radialGradient><radialGradient id="g" cx="0" cy="0" r="1" gradientUnits="userSpaceOnUse" gradientTransform="rotate(-145.79 69.366 16.929) scale(18.7417 12.2876)"><stop offset="0" stop-opacity=".3"/><stop offset="1" stop-opacity="0"/></radialGradient><radialGradient id="h" cx="0" cy="0" r="1" gradientUnits="userSpaceOnUse" gradientTransform="matrix(-17.82676 -12.1196 6.50126 -9.56273 38.427 74)"><stop offset="0" stop-opacity=".3"/><stop offset="1" stop-opacity="0"/></radialGradient><radialGradient id="i" cx="0" cy="0" r="1" gradientUnits="userSpaceOnUse" gradientTransform="matrix(-11.14605 -11.14605 8.68865 -8.68865 100.417 62.636)"><stop offset="0" stop-opacity=".3"/><stop offset="1" stop-opacity="0"/></radialGradient><radialGradient id="j" cx="0" cy="0" r="1" gradientUnits="userSpaceOnUse" gradientTransform="matrix(-11.14605 -11.14605 8.68865 -8.68865 58.542 70.273)"><stop offset="0" stop-opacity=".3"/><stop offset="1" stop-opacity="0"/></radialGradient></defs></svg>