<svg width="353" height="81" fill="none" xmlns="http://www.w3.org/2000/svg"><path d="M140.591-25.03c4.723-19.475-7.237-39.091-26.713-43.814-19.475-4.722-39.091 7.238-43.814 26.713-4.722 19.476 7.238 39.092 26.713 43.815 19.476 4.722 39.092-7.238 43.814-26.713Z" fill="#fff"/><path d="M91.416-7.41c4.123-17.096-6.393-34.297-23.489-38.42-17.095-4.123-34.297 6.393-38.42 23.488-4.123 17.096 6.393 34.297 23.489 38.42C70.09 20.201 87.292 9.685 91.416-7.41ZM320.881 23.49C338.62 23.49 353 9.11 353-8.628c0-17.739-14.38-32.119-32.119-32.119-17.739 0-32.12 14.38-32.12 32.12 0 17.739 14.381 32.119 32.12 32.119Z" fill="#fff"/><path d="M34.51-1.6c6.353-6.352 6.353-16.653 0-23.006-6.353-6.353-16.653-6.353-23.006 0-6.354 6.353-6.354 16.654 0 23.007 6.353 6.353 16.653 6.353 23.006 0ZM282.616-5.677c9.298-3.926 13.654-14.646 9.728-23.944-3.926-9.298-14.646-13.653-23.944-9.727-9.298 3.925-13.653 14.645-9.727 23.943 3.925 9.298 14.645 13.653 23.943 9.728Z" fill="#fff"/><path style="mix-blend-mode:multiply" opacity=".26" d="M192.69-9.716c10.535-10.534 9.847-28.302-1.536-39.684-11.383-11.383-29.151-12.071-39.685-1.537-10.534 10.534-9.846 28.301 1.537 39.684S182.156.818 192.69-9.716Z" fill="url(#a)"/><path d="M259.85-25.783c3.636-15.123-5.675-30.33-20.798-33.965-15.122-3.637-30.329 5.675-33.965 20.797-3.636 15.123 5.675 30.33 20.798 33.965 15.122 3.637 30.329-5.675 33.965-20.797ZM156.305 6.93c14.648 0 26.523-11.876 26.523-26.524 0-14.648-11.875-26.523-26.523-26.523s-26.523 11.875-26.523 26.523 11.875 26.523 26.523 26.523Z" fill="#fff"/><path style="mix-blend-mode:multiply" opacity=".37" d="M159.797 13.585c-9.594 14.111-4.705 34.163 10.919 44.785 15.625 10.622 36.068 7.793 45.662-6.318 9.594-14.112 4.705-34.163-10.919-44.785-15.625-10.623-36.068-7.794-45.662 6.318Z" fill="url(#b)"/><path d="M212.409 7.77c-4.723 19.475 7.237 39.091 26.713 43.814 19.475 4.722 39.091-7.238 43.814-26.713 4.722-19.476-7.238-39.092-26.713-43.814-19.476-4.723-39.092 7.237-43.814 26.713Z" fill="#fff"/><path d="M261.584-9.85c-4.123 17.096 6.393 34.297 23.489 38.42 17.095 4.124 34.297-6.392 38.42-23.488 4.123-17.095-6.393-34.297-23.489-38.42-17.095-4.123-34.296 6.393-38.42 23.489Z" fill="#fff"/><path style="mix-blend-mode:multiply" opacity=".37" d="M186.162 9.234c-8.376 12.32-2.258 31.082 13.664 41.907 15.923 10.826 35.621 9.614 43.997-2.707 8.375-12.32 2.258-31.082-13.665-41.907-15.922-10.825-35.62-9.613-43.996 2.707Z" fill="url(#c)"/><path d="M204.68-4.157c-13.095 0-23.711 10.616-23.711 23.711 0 13.096 10.616 23.712 23.711 23.712 13.095 0 23.711-10.616 23.711-23.712 0-13.095-10.616-23.71-23.711-23.71Z" fill="#fff"/><path style="mix-blend-mode:multiply" opacity=".37" d="M38.037 14.792c-7.833 11.521.664 30.954 18.978 43.405 18.313 12.45 39.509 13.204 47.341 1.683 7.833-11.52-.664-30.954-18.977-43.404-18.314-12.45-39.51-13.204-47.342-1.684Z" fill="url(#d)"/><path d="M95.775 13.657c-13.095 0-23.711 10.616-23.711 23.71 0 13.096 10.616 23.712 23.711 23.712 13.095 0 23.711-10.616 23.711-23.711 0-13.095-10.616-23.711-23.71-23.711Z" fill="#fff"/><path d="M66.627 6.716c-10.092 0-18.274 8.182-18.274 18.275 0 10.093 8.182 18.275 18.274 18.275 10.093 0 18.275-8.182 18.275-18.275 0-10.093-8.182-18.275-18.275-18.275Z" fill="#fff"/><path d="M32.12-40.75C14.38-40.75 0-26.37 0-8.632c0 17.739 14.38 32.12 32.12 32.12 17.739 0 32.119-14.381 32.119-32.12 0-17.74-14.38-32.12-32.12-32.12ZM318.49-15.661c-6.353 6.353-6.353 16.653 0 23.006 6.353 6.353 16.653 6.353 23.007 0 6.353-6.353 6.353-16.653 0-23.006-6.354-6.354-16.654-6.354-23.007 0Z" fill="#fff"/><path d="M70.384-11.584C61.086-7.658 56.73 3.063 60.656 12.36c3.926 9.298 14.646 13.653 23.944 9.728 9.298-3.926 13.653-14.646 9.727-23.944-3.925-9.298-14.645-13.653-23.943-9.728ZM141.465 1.073c-2.293 9.83 3.817 19.656 13.646 21.949 9.829 2.292 19.655-3.817 21.948-13.646 2.293-9.829-3.817-19.655-13.646-21.948-9.829-2.293-19.655 3.816-21.948 13.645Z" fill="#fff"/><path d="M159.25 5.214c-15.929 0-28.842 12.913-28.842 28.842 0 15.93 12.913 28.842 28.842 28.842 15.929 0 28.843-12.913 28.843-28.842 0-15.929-12.914-28.842-28.843-28.842Z" fill="#fff"/><path style="mix-blend-mode:multiply" opacity=".26" d="M160.31-7.545c-10.535 10.534-9.847 28.302 1.536 39.685 11.383 11.383 29.151 12.07 39.685 1.536 10.534-10.534 9.846-28.301-1.537-39.684s-29.15-12.071-39.684-1.537Z" fill="url(#e)"/><path style="mix-blend-mode:multiply" opacity=".26" d="M84.52 6.461c-10.534 10.534-9.846 28.302 1.537 39.685 11.383 11.383 29.15 12.07 39.684 1.536 10.535-10.534 9.847-28.301-1.536-39.684S95.055-4.073 84.52 6.46Z" fill="url(#f)"/><path d="M93.15 8.523c-3.636 15.123 5.675 30.33 20.798 33.966 15.122 3.636 30.329-5.676 33.965-20.798 3.636-15.122-5.675-30.33-20.798-33.965C111.993-15.91 96.786-6.6 93.15 8.523ZM196.695-24.189c-14.648 0-26.523 11.875-26.523 26.523 0 14.649 11.875 26.523 26.523 26.523s26.523-11.874 26.523-26.523c0-14.648-11.875-26.523-26.523-26.523Z" fill="#fff"/><defs><radialGradient id="a" cx="0" cy="0" r="1" gradientUnits="userSpaceOnUse" gradientTransform="rotate(45 125.018 190.358) scale(28.5348 22.2437)"><stop offset="0" stop-opacity=".3"/><stop offset="1" stop-opacity="0"/></radialGradient><radialGradient id="b" cx="0" cy="0" r="1" gradientUnits="userSpaceOnUse" gradientTransform="rotate(-145.79 98.61 -12.669) scale(33.3372 25.5843)"><stop offset="0" stop-opacity=".3"/><stop offset="1" stop-opacity="0"/></radialGradient><radialGradient id="c" cx="0" cy="0" r="1" gradientUnits="userSpaceOnUse" gradientTransform="rotate(-145.79 110.49 -18.355) scale(33.9272 22.2437)"><stop offset="0" stop-opacity=".3"/><stop offset="1" stop-opacity="0"/></radialGradient><radialGradient id="d" cx="0" cy="0" r="1" gradientUnits="userSpaceOnUse" gradientTransform="rotate(-145.79 40.314 7.276) scale(39.0226 20.9326)"><stop offset="0" stop-opacity=".3"/><stop offset="1" stop-opacity="0"/></radialGradient><radialGradient id="e" cx="0" cy="0" r="1" gradientUnits="userSpaceOnUse" gradientTransform="rotate(-135 94.076 -29.955) scale(28.5348 22.2437)"><stop offset="0" stop-opacity=".3"/><stop offset="1" stop-opacity="0"/></radialGradient><radialGradient id="f" cx="0" cy="0" r="1" gradientUnits="userSpaceOnUse" gradientTransform="rotate(-135 59.038 -7.344) scale(28.5348 22.2437)"><stop offset="0" stop-opacity=".3"/><stop offset="1" stop-opacity="0"/></radialGradient></defs></svg>