<svg width="791" height="375" viewBox="0 0 791 375" fill="none" xmlns="http://www.w3.org/2000/svg">
<path style="mix-blend-mode:multiply" opacity="0.37" d="M542.687 104.166C557.569 82.2764 549.986 51.1742 525.75 34.6973C501.514 18.2204 469.803 22.6082 454.921 44.4978C440.04 66.3873 447.623 97.4895 471.859 113.966C496.095 130.443 527.806 126.055 542.687 104.166Z" fill="url(#paint0_radial_13_945)"/>
<path d="M461.078 113.187C468.403 82.9778 449.852 52.5499 419.643 45.2247C389.433 37.8995 359.005 56.4509 351.68 86.6604C344.355 116.87 362.906 147.298 393.116 154.623C423.325 161.948 453.753 143.397 461.078 113.187Z" fill="white"/>
<path d="M384.799 140.518C391.195 114.001 374.883 87.319 348.365 80.9233C321.847 74.5275 295.166 90.8397 288.77 117.357C282.374 143.875 298.686 170.557 325.204 176.953C351.722 183.348 378.403 167.036 384.799 140.518Z" fill="white"/>
<path style="mix-blend-mode:multiply" opacity="0.37" d="M501.791 110.92C514.783 91.8097 505.294 62.7057 480.595 45.9145C455.897 29.1232 425.343 31.0032 412.351 50.1135C399.358 69.2238 408.848 98.3278 433.546 115.119C458.245 131.91 488.799 130.03 501.791 110.92Z" fill="url(#paint1_radial_13_945)"/>
<path d="M473.067 131.693C493.38 131.693 509.847 115.227 509.847 94.9137C509.847 74.6009 493.38 58.134 473.067 58.134C452.754 58.134 436.287 74.6009 436.287 94.9137C436.287 115.227 452.754 131.693 473.067 131.693Z" fill="white"/>
<path style="mix-blend-mode:multiply" opacity="0.37" d="M731.556 102.296C743.705 84.4248 730.526 54.2816 702.119 34.9688C673.711 15.656 640.834 14.487 628.684 32.3577C616.535 50.2285 629.714 80.3717 658.121 99.6845C686.529 118.997 719.406 120.166 731.556 102.296Z" fill="url(#paint2_radial_13_945)"/>
<path d="M641.995 104.057C662.308 104.057 678.775 87.5901 678.775 67.2773C678.775 46.9644 662.308 30.4976 641.995 30.4976C621.682 30.4976 605.215 46.9644 605.215 67.2773C605.215 87.5901 621.682 104.057 641.995 104.057Z" fill="white"/>
<path d="M687.208 114.828C702.863 114.828 715.554 102.136 715.554 86.4808C715.554 70.8253 702.863 58.134 687.208 58.134C671.552 58.134 658.861 70.8253 658.861 86.4808C658.861 102.136 671.552 114.828 687.208 114.828Z" fill="white"/>
<path d="M740.735 188.452C768.251 188.452 790.557 166.146 790.557 138.63C790.557 111.114 768.251 88.8074 740.735 88.8074C713.219 88.8074 690.913 111.114 690.913 138.63C690.913 166.146 713.219 188.452 740.735 188.452Z" fill="white"/>
<path d="M296.53 149.535C306.384 139.681 306.384 123.703 296.53 113.849C286.675 103.994 270.698 103.994 260.843 113.849C250.989 123.703 250.989 139.681 260.843 149.535C270.698 159.39 286.675 159.39 296.53 149.535Z" fill="white"/>
<path d="M681.381 143.208C695.804 137.119 702.559 120.49 696.47 106.068C690.38 91.6451 673.752 84.8896 659.329 90.979C644.907 97.0684 638.151 113.697 644.241 128.119C650.33 142.542 666.958 149.298 681.381 143.208Z" fill="white"/>
<path d="M571.123 123.576C574.679 108.33 565.203 93.0877 549.956 89.5313C534.71 85.975 519.468 95.4516 515.911 110.698C512.355 125.944 521.832 141.186 537.078 144.743C552.324 148.299 567.567 138.823 571.123 123.576Z" fill="white"/>
<path d="M543.535 117.154C568.244 117.154 588.274 97.1236 588.274 72.4151C588.274 47.7065 568.244 27.6763 543.535 27.6763C518.827 27.6763 498.796 47.7065 498.796 72.4151C498.796 97.1236 518.827 117.154 543.535 117.154Z" fill="white"/>
<path style="mix-blend-mode:multiply" opacity="0.26" d="M541.892 136.943C558.232 120.603 557.165 93.0427 539.508 75.386C521.852 57.7294 494.292 56.6622 477.952 73.0024C461.612 89.3426 462.679 116.902 480.335 134.559C497.992 152.216 525.552 153.283 541.892 136.943Z" fill="url(#paint3_radial_13_945)"/>
<path style="mix-blend-mode:multiply" opacity="0.26" d="M659.453 115.22C675.793 98.8794 674.726 71.3195 657.069 53.6629C639.413 36.0062 611.853 34.939 595.513 51.2792C579.173 67.6194 580.24 95.1792 597.896 112.836C615.553 130.493 643.113 131.56 659.453 115.22Z" fill="url(#paint4_radial_13_945)"/>
<path d="M646.067 112.019C651.707 88.5618 637.264 64.9738 613.806 59.3336C590.349 53.6934 566.761 68.1368 561.121 91.5939C555.481 115.051 569.924 138.639 593.381 144.279C616.839 149.919 640.427 135.476 646.067 112.019Z" fill="white"/>
<path d="M485.453 162.765C508.174 162.765 526.594 144.345 526.594 121.623C526.594 98.9016 508.174 80.4819 485.453 80.4819C462.731 80.4819 444.311 98.9016 444.311 121.623C444.311 144.345 462.731 162.765 485.453 162.765Z" fill="white"/>
<path style="mix-blend-mode:multiply" opacity="0.37" d="M448.687 183.166C463.569 161.276 455.986 130.174 431.75 113.697C407.514 97.2204 375.803 101.608 360.921 123.498C346.04 145.387 353.623 176.49 377.859 192.966C402.095 209.443 433.806 205.055 448.687 183.166Z" fill="url(#paint5_radial_13_945)"/>
<path d="M367.078 192.187C374.403 161.978 355.852 131.55 325.643 124.225C295.433 116.9 265.005 135.451 257.68 165.66C250.355 195.87 268.906 226.298 299.116 233.623C329.325 240.948 359.753 222.397 367.078 192.187Z" fill="white"/>
<path d="M290.799 219.518C297.195 193.001 280.883 166.319 254.365 159.923C227.847 153.528 201.166 169.84 194.77 196.357C188.374 222.875 204.686 249.557 231.204 255.953C257.722 262.348 284.403 246.036 290.799 219.518Z" fill="white"/>
<path style="mix-blend-mode:multiply" opacity="0.37" d="M407.791 189.92C420.783 170.81 411.294 141.706 386.595 124.914C361.897 108.123 331.343 110.003 318.351 129.114C305.358 148.224 314.848 177.328 339.546 194.119C364.245 210.91 394.799 209.03 407.791 189.92Z" fill="url(#paint6_radial_13_945)"/>
<path d="M379.067 210.693C399.38 210.693 415.847 194.227 415.847 173.914C415.847 153.601 399.38 137.134 379.067 137.134C358.754 137.134 342.287 153.601 342.287 173.914C342.287 194.227 358.754 210.693 379.067 210.693Z" fill="white"/>
<path style="mix-blend-mode:multiply" opacity="0.37" d="M637.556 181.296C649.705 163.425 636.526 133.282 608.119 113.969C579.711 94.656 546.834 93.487 534.684 111.358C522.535 129.228 535.714 159.372 564.121 178.684C592.529 197.997 625.406 199.166 637.556 181.296Z" fill="url(#paint7_radial_13_945)"/>
<path d="M547.995 183.057C568.308 183.057 584.775 166.59 584.775 146.277C584.775 125.964 568.308 109.498 547.995 109.498C527.682 109.498 511.215 125.964 511.215 146.277C511.215 166.59 527.682 183.057 547.995 183.057Z" fill="white"/>
<path d="M593.208 193.828C608.863 193.828 621.554 181.136 621.554 165.481C621.554 149.825 608.863 137.134 593.208 137.134C577.552 137.134 564.861 149.825 564.861 165.481C564.861 181.136 577.552 193.828 593.208 193.828Z" fill="white"/>
<path d="M646.735 267.452C674.251 267.452 696.557 245.146 696.557 217.63C696.557 190.114 674.251 167.807 646.735 167.807C619.219 167.807 596.913 190.114 596.913 217.63C596.913 245.146 619.219 267.452 646.735 267.452Z" fill="white"/>
<path d="M202.53 228.535C212.384 218.681 212.384 202.703 202.53 192.849C192.675 182.994 176.698 182.994 166.843 192.849C156.989 202.703 156.989 218.681 166.843 228.535C176.698 238.39 192.675 238.39 202.53 228.535Z" fill="white"/>
<path d="M587.381 222.208C601.804 216.119 608.559 199.49 602.47 185.068C596.38 170.645 579.752 163.89 565.329 169.979C550.907 176.068 544.151 192.697 550.241 207.119C556.33 221.542 572.958 228.298 587.381 222.208Z" fill="white"/>
<path d="M477.123 202.576C480.679 187.33 471.203 172.088 455.956 168.531C440.71 164.975 425.468 174.452 421.911 189.698C418.355 204.944 427.832 220.186 443.078 223.743C458.324 227.299 473.567 217.823 477.123 202.576Z" fill="white"/>
<path d="M449.535 196.154C474.244 196.154 494.274 176.124 494.274 151.415C494.274 126.707 474.244 106.676 449.535 106.676C424.827 106.676 404.796 126.707 404.796 151.415C404.796 176.124 424.827 196.154 449.535 196.154Z" fill="white"/>
<path style="mix-blend-mode:multiply" opacity="0.26" d="M447.892 215.943C464.232 199.603 463.165 172.043 445.508 154.386C427.852 136.729 400.292 135.662 383.952 152.002C367.612 168.343 368.679 195.902 386.335 213.559C403.992 231.216 431.552 232.283 447.892 215.943Z" fill="url(#paint8_radial_13_945)"/>
<path style="mix-blend-mode:multiply" opacity="0.26" d="M565.453 194.22C581.793 177.879 580.726 150.32 563.069 132.663C545.413 115.006 517.853 113.939 501.513 130.279C485.173 146.619 486.24 174.179 503.896 191.836C521.553 209.493 549.113 210.56 565.453 194.22Z" fill="url(#paint9_radial_13_945)"/>
<path d="M552.067 191.019C557.707 167.562 543.264 143.974 519.806 138.334C496.349 132.693 472.761 147.137 467.121 170.594C461.481 194.051 475.924 217.639 499.381 223.279C522.839 228.919 546.427 214.476 552.067 191.019Z" fill="white"/>
<path d="M391.453 241.765C414.174 241.765 432.594 223.345 432.594 200.623C432.594 177.902 414.174 159.482 391.453 159.482C368.731 159.482 350.311 177.902 350.311 200.623C350.311 223.345 368.731 241.765 391.453 241.765Z" fill="white"/>
<path style="mix-blend-mode:multiply" opacity="0.37" d="M401.42 261.527C421.354 232.207 411.196 190.546 378.733 168.476C346.27 146.406 303.794 152.283 283.861 181.604C263.927 210.924 274.085 252.584 306.548 274.654C339.011 296.724 381.487 290.847 401.42 261.527Z" fill="url(#paint10_radial_13_945)"/>
<path d="M292.108 273.61C301.919 233.145 277.07 192.388 236.606 182.576C196.141 172.764 155.384 197.613 145.573 238.078C135.761 278.542 160.61 319.3 201.074 329.111C241.539 338.923 282.296 314.074 292.108 273.61Z" fill="white"/>
<path d="M189.935 310.219C198.502 274.699 176.652 238.96 141.132 230.393C105.613 221.827 69.8739 243.676 61.307 279.196C52.7402 314.715 74.5897 350.454 110.109 359.021C145.629 367.588 181.368 345.739 189.935 310.219Z" fill="white"/>
<path style="mix-blend-mode:multiply" opacity="0.37" d="M346.641 270.573C364.044 244.975 351.333 205.992 318.25 183.5C285.168 161.009 244.241 163.527 226.839 189.125C209.436 214.722 222.147 253.706 255.23 276.197C288.312 298.689 329.238 296.171 346.641 270.573Z" fill="url(#paint11_radial_13_945)"/>
<path d="M308.166 298.398C335.374 298.398 357.431 276.341 357.431 249.133C357.431 221.925 335.374 199.868 308.166 199.868C280.958 199.868 258.901 221.925 258.901 249.133C258.901 276.341 280.958 298.398 308.166 298.398Z" fill="white"/>
<path style="mix-blend-mode:multiply" opacity="0.37" d="M654.403 259.021C670.677 235.084 653.023 194.708 614.973 168.84C576.922 142.971 532.884 141.405 516.61 165.342C500.336 189.279 517.99 229.655 556.04 255.524C594.09 281.393 638.129 282.958 654.403 259.021Z" fill="url(#paint12_radial_13_945)"/>
<path d="M534.439 261.381C561.647 261.381 583.704 239.324 583.704 212.116C583.704 184.908 561.647 162.851 534.439 162.851C507.23 162.851 485.174 184.908 485.174 212.116C485.174 239.324 507.23 261.381 534.439 261.381Z" fill="white"/>
<path d="M595 275.807C615.97 275.807 632.969 258.807 632.969 237.837C632.969 216.867 615.97 199.868 595 199.868C574.03 199.868 557.03 216.867 557.03 237.837C557.03 258.807 574.03 275.807 595 275.807Z" fill="white"/>
<path d="M666.697 374.424C703.554 374.424 733.432 344.546 733.432 307.689C733.432 270.833 703.554 240.954 666.697 240.954C629.841 240.954 599.962 270.833 599.962 307.689C599.962 344.546 629.841 374.424 666.697 374.424Z" fill="white"/>
<path d="M71.7013 322.297C84.9011 309.098 84.9011 287.696 71.7013 274.497C58.5014 261.297 37.1003 261.297 23.9004 274.497C10.7006 287.696 10.7006 309.098 23.9004 322.297C37.1003 335.497 58.5014 335.497 71.7013 322.297Z" fill="white"/>
<path d="M587.195 313.822C606.514 305.665 615.562 283.392 607.406 264.074C599.249 244.755 576.976 235.706 557.658 243.863C538.339 252.019 529.29 274.292 537.447 293.611C545.603 312.93 567.877 321.978 587.195 313.822Z" fill="white"/>
<path d="M439.509 287.526C444.272 267.104 431.579 246.688 411.157 241.924C390.735 237.16 370.318 249.854 365.555 270.276C360.791 290.697 373.485 311.114 393.907 315.878C414.328 320.641 434.745 307.948 439.509 287.526Z" fill="white"/>
<path d="M402.556 278.924C435.652 278.924 462.482 252.094 462.482 218.998C462.482 185.902 435.652 159.072 402.556 159.072C369.46 159.072 342.63 185.902 342.63 218.998C342.63 252.094 369.46 278.924 402.556 278.924Z" fill="white"/>
<path style="mix-blend-mode:multiply" opacity="0.26" d="M400.355 305.43C422.242 283.542 420.812 246.627 397.162 222.977C373.512 199.326 336.596 197.897 314.709 219.784C292.822 241.671 294.252 278.586 317.902 302.237C341.552 325.887 378.468 327.317 400.355 305.43Z" fill="url(#paint13_radial_13_945)"/>
<path style="mix-blend-mode:multiply" opacity="0.26" d="M557.824 276.331C579.711 254.444 578.281 217.529 554.631 193.878C530.98 170.228 494.065 168.799 472.178 190.686C450.291 212.573 451.72 249.488 475.371 273.139C499.021 296.789 535.937 298.218 557.824 276.331Z" fill="url(#paint14_radial_13_945)"/>
<path d="M539.893 272.044C547.448 240.625 528.101 209.029 496.681 201.474C465.261 193.92 433.666 213.266 426.111 244.686C418.557 276.106 437.903 307.701 469.323 315.256C500.743 322.811 532.338 303.464 539.893 272.044Z" fill="white"/>
<path d="M324.756 340.018C355.191 340.018 379.864 315.346 379.864 284.911C379.864 254.475 355.191 229.803 324.756 229.803C294.321 229.803 269.648 254.475 269.648 284.911C269.648 315.346 294.321 340.018 324.756 340.018Z" fill="white"/>
<defs>
<radialGradient id="paint0_radial_13_945" cx="0" cy="0" r="1" gradientUnits="userSpaceOnUse" gradientTransform="translate(500.057 75.1436) rotate(34.21) scale(51.7111 39.6852)">
<stop/>
<stop offset="1" stop-color="white" stop-opacity="0"/>
</radialGradient>
<radialGradient id="paint1_radial_13_945" cx="0" cy="0" r="1" gradientUnits="userSpaceOnUse" gradientTransform="translate(461.428 80.9022) rotate(34.21) scale(52.6263 34.5034)">
<stop/>
<stop offset="1" stop-color="white" stop-opacity="0"/>
</radialGradient>
<radialGradient id="paint2_radial_13_945" cx="0" cy="0" r="1" gradientUnits="userSpaceOnUse" gradientTransform="translate(682.655 69.4629) rotate(34.21) scale(60.53 32.4698)">
<stop/>
<stop offset="1" stop-color="white" stop-opacity="0"/>
</radialGradient>
<radialGradient id="paint3_radial_13_945" cx="0" cy="0" r="1" gradientUnits="userSpaceOnUse" gradientTransform="translate(508.589 101.374) rotate(45) scale(44.2619 34.5034)">
<stop/>
<stop offset="1" stop-color="white" stop-opacity="0"/>
</radialGradient>
<radialGradient id="paint4_radial_13_945" cx="0" cy="0" r="1" gradientUnits="userSpaceOnUse" gradientTransform="translate(626.171 79.9331) rotate(45) scale(44.2619 34.5034)">
<stop/>
<stop offset="1" stop-color="white" stop-opacity="0"/>
</radialGradient>
<radialGradient id="paint5_radial_13_945" cx="0" cy="0" r="1" gradientUnits="userSpaceOnUse" gradientTransform="translate(406.057 154.144) rotate(34.21) scale(51.7111 39.6852)">
<stop/>
<stop offset="1" stop-color="white" stop-opacity="0"/>
</radialGradient>
<radialGradient id="paint6_radial_13_945" cx="0" cy="0" r="1" gradientUnits="userSpaceOnUse" gradientTransform="translate(367.428 159.902) rotate(34.21) scale(52.6263 34.5034)">
<stop/>
<stop offset="1" stop-color="white" stop-opacity="0"/>
</radialGradient>
<radialGradient id="paint7_radial_13_945" cx="0" cy="0" r="1" gradientUnits="userSpaceOnUse" gradientTransform="translate(588.655 148.463) rotate(34.21) scale(60.53 32.4698)">
<stop/>
<stop offset="1" stop-color="white" stop-opacity="0"/>
</radialGradient>
<radialGradient id="paint8_radial_13_945" cx="0" cy="0" r="1" gradientUnits="userSpaceOnUse" gradientTransform="translate(414.589 180.374) rotate(45) scale(44.2619 34.5034)">
<stop/>
<stop offset="1" stop-color="white" stop-opacity="0"/>
</radialGradient>
<radialGradient id="paint9_radial_13_945" cx="0" cy="0" r="1" gradientUnits="userSpaceOnUse" gradientTransform="translate(532.171 158.933) rotate(45) scale(44.2619 34.5034)">
<stop/>
<stop offset="1" stop-color="white" stop-opacity="0"/>
</radialGradient>
<radialGradient id="paint10_radial_13_945" cx="0" cy="0" r="1" gradientUnits="userSpaceOnUse" gradientTransform="translate(344.319 222.653) rotate(34.21) scale(69.2651 53.1569)">
<stop/>
<stop offset="1" stop-color="white" stop-opacity="0"/>
</radialGradient>
<radialGradient id="paint11_radial_13_945" cx="0" cy="0" r="1" gradientUnits="userSpaceOnUse" gradientTransform="translate(292.576 230.365) rotate(34.21) scale(70.491 46.216)">
<stop/>
<stop offset="1" stop-color="white" stop-opacity="0"/>
</radialGradient>
<radialGradient id="paint12_radial_13_945" cx="0" cy="0" r="1" gradientUnits="userSpaceOnUse" gradientTransform="translate(588.902 215.043) rotate(34.21) scale(81.0777 43.492)">
<stop/>
<stop offset="1" stop-color="white" stop-opacity="0"/>
</radialGradient>
<radialGradient id="paint13_radial_13_945" cx="0" cy="0" r="1" gradientUnits="userSpaceOnUse" gradientTransform="translate(355.746 257.787) rotate(45) scale(59.2871 46.216)">
<stop/>
<stop offset="1" stop-color="white" stop-opacity="0"/>
</radialGradient>
<radialGradient id="paint14_radial_13_945" cx="0" cy="0" r="1" gradientUnits="userSpaceOnUse" gradientTransform="translate(513.243 229.066) rotate(45) scale(59.2871 46.216)">
<stop/>
<stop offset="1" stop-color="white" stop-opacity="0"/>
</radialGradient>
</defs>
</svg>
