<svg width="830" height="555" fill="none" xmlns="http://www.w3.org/2000/svg"><path style="mix-blend-mode:multiply" opacity=".73" d="M581.707 167.895c10.84-40.911-7.095-81.156-40.058-89.89-32.963-8.734-68.472 17.351-79.312 58.262-10.84 40.911 7.095 81.157 40.058 89.891 32.963 8.733 68.472-17.352 79.312-58.263Z" fill="url(#a)"/><path style="mix-blend-mode:multiply" opacity=".73" d="M532.626 180.214c33.859-4.056 57.226-41.409 52.193-83.432-5.033-42.022-36.561-72.8-70.42-68.745-33.858 4.055-57.226 41.408-52.193 83.431 5.034 42.023 36.562 72.801 70.42 68.746Z" fill="url(#b)"/><path style="mix-blend-mode:multiply" opacity=".37" d="M429.595 356.448c16.643-24.481 8.162-59.266-18.943-77.694-27.106-18.428-62.572-13.521-79.216 10.961-16.644 24.481-8.163 59.266 18.943 77.694 27.106 18.428 62.572 13.521 79.216-10.961Z" fill="url(#c)"/><path d="m498.997 173.78 12.19 142.183h-52.806L470.86 173.78h28.137Z" fill="#fff"/><path d="M502.864 189.27h-36.16l2.999-12.274h30.162l2.999 12.274Z" fill="url(#d)"/><path d="m526.87 108.928 23.175 13.768 15.792 72.549-29.56-37.69-21.163-3.963 11.756-44.664Z" fill="url(#e)"/><path d="m520.558 132.886 23.055 9.624 22.224 52.734-29.56-37.689-21.163-3.963 5.444-20.706Z" fill="#032D86" style="mix-blend-mode:multiply" opacity=".21"/><path d="m437.012 108.928-23.176 13.768-15.791 72.549 29.559-37.69 21.164-3.963-11.756-44.664Z" fill="url(#f)"/><path d="m443.311 132.886-23.042 9.624-22.224 52.734 29.559-37.689 21.164-3.963-5.457-20.706Z" fill="#032D86" style="mix-blend-mode:multiply" opacity=".21"/><path d="M519.028 44.28 483.097.05l-35.944 44.23-12.479 41.93v52.41l18.466 32.944 13.177 5.432h33.547l13.177-5.432 18.466-32.944V86.21l-12.479-41.93Z" fill="#fff"/><path d="m531.507 86.21-12.479-41.93-.41-.493h-71.055l-.41.494-12.479 41.93v52.409h96.833V86.21Z" fill="url(#g)"/><path d="m473.051 171.563-16.972-32.944-1.494-52.409 4.987-41.93L483.602.11l-36.449 44.17-12.479 41.93v52.409l18.466 32.944 13.177 5.433h16.78l-10.046-5.433Z" fill="#96CCCA" style="mix-blend-mode:multiply" opacity=".47"/><path d="M531.507 85.982h-96.833l11.853-42.195h72.091l12.889 42.195Z" fill="#96CCCA" style="mix-blend-mode:multiply" opacity=".13"/><path d="m493.324 171.563 16.972-32.944 1.493-52.409-7.986-41.93-19.838-42.977 35.256 42.978L531.7 86.21v52.408l-18.465 32.944-13.178 5.433H483.29l10.034-5.433Z" fill="#96CCCA" style="mix-blend-mode:multiply" opacity=".47"/><path d="m452.586 170.564.555 1 13.177 5.432h33.546l13.178-5.432.554-1h-61.01Z" fill="#96CCCA" style="mix-blend-mode:multiply" opacity=".66"/><path d="M499.864 176.996h-9.058l1.506 12.274h10.552l-3-12.274ZM469.618 176.996h9.059l-1.506 12.274h-10.552l2.999-12.274Z" fill="#96CCCA" style="mix-blend-mode:multiply" opacity=".47"/><path d="M483.29 134.428c12.207 0 22.103-9.896 22.103-22.103s-9.896-22.103-22.103-22.103-22.103 9.896-22.103 22.103 9.896 22.103 22.103 22.103Z" fill="#191B20"/><path d="M483.289 130.537c10.059 0 18.213-8.154 18.213-18.212 0-10.059-8.154-18.213-18.213-18.213-10.058 0-18.212 8.154-18.212 18.213 0 10.058 8.154 18.212 18.212 18.212Z" fill="#46484B"/><path d="M483.29 76.911c6.645 0 12.033-5.387 12.033-12.033s-5.388-12.033-12.033-12.033c-6.646 0-12.034 5.387-12.034 12.033s5.388 12.033 12.034 12.033Z" fill="#191B20"/><path d="M483.29 74.803c5.481 0 9.925-4.443 9.925-9.925 0-5.482-4.444-9.925-9.925-9.925-5.482 0-9.926 4.443-9.926 9.925 0 5.482 4.444 9.925 9.926 9.925Z" fill="#46484B"/><path d="M338.322 366.538c8.193-33.786-12.555-67.817-46.342-76.01-33.786-8.192-67.817 12.556-76.01 46.342-8.192 33.787 12.556 67.818 46.342 76.01 33.787 8.193 67.818-12.555 76.01-46.342Z" fill="#fff"/><path d="M253.012 397.105c7.153-29.657-11.091-59.499-40.749-66.652-29.658-7.153-59.499 11.091-66.652 40.749-7.153 29.658 11.091 59.499 40.749 66.652 29.657 7.153 59.498-11.091 66.652-40.749Z" fill="#fff"/><path style="mix-blend-mode:multiply" opacity=".37" d="M383.856 364.002c14.531-21.373 3.917-53.923-23.706-72.703-27.622-18.779-61.795-16.677-76.325 4.696-14.531 21.374-3.918 53.924 23.705 72.703 27.623 18.78 61.795 16.677 76.326-4.696Z" fill="url(#h)"/><path d="M351.73 387.236c22.719 0 41.135-18.417 41.135-41.135 0-22.718-18.416-41.135-41.135-41.135-22.718 0-41.134 18.417-41.134 41.135 0 22.718 18.416 41.135 41.134 41.135Z" fill="#fff"/><path style="mix-blend-mode:multiply" opacity=".37" d="M640.827 354.356c13.589-19.986-1.152-53.699-32.923-75.298-31.77-21.6-68.541-22.907-82.129-2.921-13.588 19.987 1.152 53.7 32.923 75.299 31.77 21.6 68.541 22.907 82.129 2.92Z" fill="url(#i)"/><path d="M540.662 356.327c22.718 0 41.134-18.417 41.134-41.135 0-22.718-18.416-41.135-41.134-41.135-22.719 0-41.135 18.417-41.135 41.135 0 22.718 18.416 41.135 41.135 41.135Z" fill="#fff"/><path d="M591.228 368.373c17.509 0 31.703-14.195 31.703-31.704s-14.194-31.703-31.703-31.703-31.703 14.194-31.703 31.703 14.194 31.704 31.703 31.704Z" fill="#fff"/><path d="M651.093 450.714c30.775 0 55.722-24.947 55.722-55.721 0-30.775-24.947-55.722-55.722-55.722-30.774 0-55.721 24.947-55.721 55.722 0 30.774 24.947 55.721 55.721 55.721ZM154.29 407.19c11.021-11.021 11.021-28.891 0-39.912-11.022-11.022-28.891-11.022-39.912 0-11.022 11.021-11.022 28.891-.001 39.912 11.022 11.021 28.891 11.021 39.913 0Z" fill="#fff"/><path d="M584.711 400.113c16.131-6.81 23.686-25.407 16.876-41.538-6.811-16.13-25.408-23.686-41.538-16.875-16.131 6.81-23.686 25.407-16.876 41.538 6.811 16.13 25.408 23.686 41.538 16.875ZM461.398 378.157c3.977-17.051-6.622-34.099-23.673-38.076-17.052-3.977-34.099 6.621-38.076 23.673-3.978 17.051 6.621 34.099 23.672 38.076 17.052 3.977 34.099-6.621 38.077-23.673Z" fill="#fff"/><path d="M430.544 370.974c27.634 0 50.036-22.402 50.036-50.036s-22.402-50.036-50.036-50.036c-27.635 0-50.037 22.402-50.037 50.036s22.402 50.036 50.037 50.036Z" fill="#fff"/><path style="mix-blend-mode:multiply" opacity=".26" d="M428.706 393.106c18.275-18.275 17.082-49.098-2.666-68.846-19.747-19.747-50.57-20.941-68.845-2.666s-17.082 49.098 2.666 68.846c19.747 19.747 50.57 20.941 68.845 2.666Z" fill="url(#j)"/><path style="mix-blend-mode:multiply" opacity=".26" d="M560.187 368.81c18.275-18.275 17.082-49.098-2.666-68.845-19.747-19.748-50.57-20.941-68.845-2.666s-17.082 49.098 2.666 68.845c19.747 19.748 50.57 20.941 68.845 2.666Z" fill="url(#k)"/><path d="M545.216 365.231c6.308-26.234-9.846-52.615-36.08-58.923-26.235-6.309-52.616 9.845-58.924 36.08-6.308 26.234 9.845 52.615 36.08 58.924 26.235 6.308 52.616-9.846 58.924-36.081ZM365.583 421.986c25.412 0 46.013-20.601 46.013-46.013s-20.601-46.013-46.013-46.013-46.013 20.601-46.013 46.013 20.601 46.013 46.013 46.013Z" fill="#fff"/><path style="mix-blend-mode:multiply" opacity=".37" d="M299.687 455.166c14.882-21.89 7.299-52.992-16.937-69.469-24.236-16.477-55.947-12.089-70.829 9.801-14.881 21.889-7.298 52.992 16.938 69.468 24.236 16.477 55.947 12.089 70.828-9.8Z" fill="url(#l)"/><path d="M218.078 464.187c7.325-30.209-11.226-60.637-41.435-67.962-30.21-7.325-60.638 11.226-67.963 41.435-7.325 30.21 11.226 60.638 41.436 67.963 30.209 7.325 60.637-11.226 67.962-41.436Z" fill="#fff"/><path d="M141.799 491.518c6.396-26.517-9.916-53.199-36.434-59.595-26.518-6.395-53.2 9.917-59.595 36.434-6.396 26.518 9.916 53.2 36.434 59.596 26.518 6.395 53.199-9.917 59.595-36.435Z" fill="#fff"/><path style="mix-blend-mode:multiply" opacity=".37" d="M258.791 461.92c12.993-19.11 3.503-48.214-21.195-65.006-24.699-16.791-55.253-14.911-68.245 4.2-12.992 19.11-3.503 48.214 21.196 65.005 24.698 16.791 55.252 14.911 68.244-4.199Z" fill="url(#m)"/><path d="M230.067 482.693c20.313 0 36.78-16.466 36.78-36.779 0-20.313-16.467-36.78-36.78-36.78-20.313 0-36.78 16.467-36.78 36.78 0 20.313 16.467 36.779 36.78 36.779Z" fill="#fff"/><path style="mix-blend-mode:multiply" opacity=".37" d="M488.556 453.296c12.149-17.871-1.03-48.014-29.437-67.327-28.408-19.313-61.285-20.482-73.435-2.611-12.149 17.871 1.03 48.014 29.437 67.327 28.408 19.312 61.285 20.481 73.435 2.611Z" fill="url(#n)"/><path d="M398.995 455.057c20.313 0 36.78-16.467 36.78-36.78 0-20.313-16.467-36.779-36.78-36.779-20.313 0-36.779 16.466-36.779 36.779 0 20.313 16.466 36.78 36.779 36.78Z" fill="#fff"/><path d="M444.208 465.828c15.655 0 28.346-12.692 28.346-28.347 0-15.656-12.691-28.347-28.346-28.347-15.656 0-28.347 12.691-28.347 28.347 0 15.655 12.691 28.347 28.347 28.347Z" fill="#fff"/><path d="M497.735 539.452c27.516 0 49.822-22.306 49.822-49.822 0-27.516-22.306-49.823-49.822-49.823-27.516 0-49.822 22.307-49.822 49.823 0 27.516 22.306 49.822 49.822 49.822ZM53.53 500.535c9.854-9.854 9.854-25.832 0-35.686-9.855-9.855-25.832-9.855-35.687 0-9.854 9.854-9.854 25.832 0 35.686 9.855 9.855 25.832 9.855 35.687 0Z" fill="#fff"/><path d="M438.381 494.208c14.423-6.089 21.178-22.718 15.089-37.14-6.09-14.423-22.718-21.178-37.141-15.089-14.422 6.089-21.178 22.718-15.088 37.14 6.089 14.423 22.717 21.179 37.14 15.089ZM328.123 474.576c3.556-15.246-5.92-30.488-21.167-34.045-15.246-3.556-30.488 5.921-34.045 21.167-3.556 15.246 5.921 30.488 21.167 34.045 15.246 3.556 30.489-5.92 34.045-21.167Z" fill="#fff"/><path d="M300.535 468.154c24.709 0 44.739-20.03 44.739-44.739 0-24.708-20.03-44.739-44.739-44.739-24.708 0-44.739 20.031-44.739 44.739 0 24.709 20.031 44.739 44.739 44.739Z" fill="#fff"/><path style="mix-blend-mode:multiply" opacity=".26" d="M298.892 487.943c16.34-16.34 15.273-43.9-2.384-61.557-17.656-17.656-45.216-18.724-61.556-2.383-16.34 16.34-15.273 43.9 2.383 61.556 17.657 17.657 45.217 18.724 61.557 2.384Z" fill="url(#o)"/><path style="mix-blend-mode:multiply" opacity=".26" d="M416.453 466.22c16.34-16.341 15.273-43.9-2.384-61.557-17.656-17.657-45.216-18.724-61.556-2.384-16.34 16.34-15.273 43.9 2.383 61.557 17.657 17.657 45.217 18.724 61.557 2.384Z" fill="url(#p)"/><path d="M403.067 463.019c5.64-23.457-8.803-47.045-32.26-52.685-23.457-5.641-47.045 8.803-52.686 32.26-5.64 23.457 8.804 47.045 32.261 52.685 23.457 5.64 47.045-8.803 52.685-32.26ZM242.453 513.765c22.721 0 41.141-18.42 41.141-41.142 0-22.721-18.42-41.141-41.141-41.141-22.722 0-41.142 18.42-41.142 41.141 0 22.722 18.42 41.142 41.142 41.142Z" fill="#fff"/><path style="mix-blend-mode:multiply" opacity=".37" d="M581.687 470.166c14.882-21.89 7.299-52.992-16.937-69.469-24.236-16.477-55.947-12.089-70.829 9.801-14.881 21.889-7.298 52.992 16.938 69.468 24.236 16.477 55.947 12.089 70.828-9.8Z" fill="url(#q)"/><path d="M500.078 479.187c7.325-30.209-11.226-60.637-41.435-67.962-30.21-7.325-60.638 11.226-67.963 41.435-7.325 30.21 11.226 60.638 41.436 67.963 30.209 7.325 60.637-11.226 67.962-41.436Z" fill="#fff"/><path d="M423.799 506.518c6.396-26.517-9.916-53.199-36.434-59.595-26.518-6.395-53.199 9.917-59.595 36.434-6.396 26.518 9.916 53.2 36.434 59.596 26.518 6.395 53.199-9.917 59.595-36.435Z" fill="#fff"/><path style="mix-blend-mode:multiply" opacity=".37" d="M540.791 476.92c12.993-19.11 3.503-48.214-21.195-65.006-24.699-16.791-55.253-14.911-68.245 4.2-12.992 19.11-3.503 48.214 21.196 65.005 24.698 16.791 55.252 14.911 68.244-4.199Z" fill="url(#r)"/><path d="M512.067 497.693c20.313 0 36.78-16.466 36.78-36.779 0-20.313-16.467-36.78-36.78-36.78-20.313 0-36.78 16.467-36.78 36.78 0 20.313 16.467 36.779 36.78 36.779Z" fill="#fff"/><path style="mix-blend-mode:multiply" opacity=".37" d="M770.556 468.296c12.149-17.871-1.03-48.014-29.437-67.327-28.408-19.313-61.285-20.482-73.435-2.611-12.149 17.871 1.03 48.014 29.437 67.327 28.408 19.312 61.285 20.481 73.435 2.611Z" fill="url(#s)"/><path d="M680.995 470.057c20.313 0 36.78-16.467 36.78-36.78 0-20.313-16.467-36.779-36.78-36.779-20.313 0-36.779 16.466-36.779 36.779 0 20.313 16.466 36.78 36.779 36.78Z" fill="#fff"/><path d="M726.208 480.828c15.655 0 28.346-12.692 28.346-28.347 0-15.656-12.691-28.347-28.346-28.347-15.656 0-28.347 12.691-28.347 28.347 0 15.655 12.691 28.347 28.347 28.347Z" fill="#fff"/><path d="M779.735 554.452c27.516 0 49.822-22.306 49.822-49.822 0-27.516-22.306-49.823-49.822-49.823-27.516 0-49.822 22.307-49.822 49.823 0 27.516 22.306 49.822 49.822 49.822ZM335.53 515.535c9.854-9.854 9.854-25.832 0-35.686-9.855-9.855-25.832-9.855-35.687 0-9.854 9.854-9.854 25.832 0 35.686 9.855 9.855 25.832 9.855 35.687 0Z" fill="#fff"/><path d="M720.381 509.208c14.423-6.089 21.178-22.718 15.089-37.14-6.09-14.423-22.718-21.178-37.141-15.089-14.422 6.089-21.178 22.718-15.088 37.14 6.089 14.423 22.717 21.179 37.14 15.089ZM610.123 489.576c3.556-15.246-5.92-30.488-21.167-34.045-15.246-3.556-30.488 5.921-34.045 21.167-3.556 15.246 5.921 30.488 21.167 34.045 15.246 3.556 30.489-5.92 34.045-21.167Z" fill="#fff"/><path d="M582.535 483.154c24.709 0 44.739-20.03 44.739-44.739 0-24.708-20.03-44.739-44.739-44.739-24.708 0-44.739 20.031-44.739 44.739 0 24.709 20.031 44.739 44.739 44.739Z" fill="#fff"/><path style="mix-blend-mode:multiply" opacity=".26" d="M580.892 502.943c16.34-16.34 15.273-43.9-2.384-61.557-17.656-17.656-45.216-18.724-61.556-2.383-16.34 16.34-15.273 43.9 2.383 61.556 17.657 17.657 45.217 18.724 61.557 2.384Z" fill="url(#t)"/><path style="mix-blend-mode:multiply" opacity=".26" d="M698.453 481.22c16.34-16.341 15.273-43.9-2.384-61.557-17.656-17.657-45.216-18.724-61.556-2.384-16.34 16.34-15.273 43.9 2.383 61.557 17.657 17.657 45.217 18.724 61.557 2.384Z" fill="url(#u)"/><path d="M685.067 478.019c5.64-23.457-8.803-47.045-32.26-52.685-23.457-5.641-47.045 8.803-52.686 32.26-5.64 23.457 8.804 47.045 32.261 52.685 23.457 5.64 47.045-8.803 52.685-32.26ZM524.453 528.765c22.721 0 41.141-18.42 41.141-41.142 0-22.721-18.42-41.141-41.141-41.141-22.722 0-41.142 18.42-41.142 41.141 0 22.722 18.42 41.142 41.142 41.142Z" fill="#fff"/><path style="mix-blend-mode:multiply" opacity=".37" d="M436.687 423.166c14.882-21.89 7.299-52.992-16.937-69.469-24.236-16.477-55.947-12.089-70.829 9.801-14.881 21.889-7.298 52.992 16.938 69.468 24.236 16.477 55.947 12.089 70.828-9.8Z" fill="url(#v)"/><path d="M355.078 432.187c7.325-30.209-11.226-60.637-41.435-67.962-30.21-7.325-60.638 11.226-67.963 41.435-7.325 30.21 11.226 60.638 41.436 67.963 30.209 7.325 60.637-11.226 67.962-41.436Z" fill="#fff"/><path d="M278.799 459.518c6.396-26.517-9.916-53.199-36.434-59.595-26.518-6.395-53.199 9.917-59.595 36.434-6.396 26.518 9.916 53.2 36.434 59.596 26.518 6.395 53.199-9.917 59.595-36.435Z" fill="#fff"/><path style="mix-blend-mode:multiply" opacity=".37" d="M395.791 429.92c12.993-19.11 3.503-48.214-21.195-65.006-24.699-16.791-55.253-14.911-68.245 4.2-12.992 19.11-3.503 48.214 21.196 65.005 24.698 16.791 55.252 14.911 68.244-4.199Z" fill="url(#w)"/><path d="M367.067 450.693c20.313 0 36.78-16.466 36.78-36.779 0-20.313-16.467-36.78-36.78-36.78-20.313 0-36.78 16.467-36.78 36.78 0 20.313 16.467 36.779 36.78 36.779Z" fill="#fff"/><path style="mix-blend-mode:multiply" opacity=".37" d="M625.556 421.296c12.149-17.871-1.03-48.014-29.437-67.327-28.408-19.313-61.285-20.482-73.435-2.611-12.149 17.871 1.03 48.014 29.437 67.327 28.408 19.312 61.285 20.481 73.435 2.611Z" fill="url(#x)"/><path d="M535.995 423.057c20.313 0 36.78-16.467 36.78-36.78 0-20.313-16.467-36.779-36.78-36.779-20.313 0-36.779 16.466-36.779 36.779 0 20.313 16.466 36.78 36.779 36.78Z" fill="#fff"/><path d="M581.208 433.828c15.655 0 28.346-12.692 28.346-28.347 0-15.656-12.691-28.347-28.346-28.347-15.656 0-28.347 12.691-28.347 28.347 0 15.655 12.691 28.347 28.347 28.347Z" fill="#fff"/><path d="M634.735 507.452c27.516 0 49.822-22.306 49.822-49.822 0-27.516-22.306-49.823-49.822-49.823-27.516 0-49.822 22.307-49.822 49.823 0 27.516 22.306 49.822 49.822 49.822ZM190.53 468.535c9.854-9.854 9.854-25.832 0-35.686-9.855-9.855-25.832-9.855-35.687 0-9.854 9.854-9.854 25.832 0 35.686 9.855 9.855 25.832 9.855 35.687 0Z" fill="#fff"/><path d="M575.381 462.208c14.423-6.089 21.178-22.718 15.089-37.14-6.09-14.423-22.718-21.178-37.141-15.089-14.422 6.089-21.178 22.718-15.088 37.14 6.089 14.423 22.717 21.178 37.14 15.089ZM465.123 442.576c3.556-15.246-5.92-30.488-21.167-34.045-15.246-3.556-30.488 5.921-34.045 21.167-3.556 15.246 5.921 30.488 21.167 34.045 15.246 3.556 30.489-5.92 34.045-21.167Z" fill="#fff"/><path d="M437.535 436.154c24.709 0 44.739-20.03 44.739-44.739 0-24.708-20.03-44.739-44.739-44.739-24.708 0-44.739 20.031-44.739 44.739 0 24.709 20.031 44.739 44.739 44.739Z" fill="#fff"/><path style="mix-blend-mode:multiply" opacity=".26" d="M435.892 455.943c16.34-16.34 15.273-43.9-2.384-61.557-17.656-17.656-45.216-18.724-61.556-2.383-16.34 16.34-15.273 43.9 2.383 61.556 17.657 17.657 45.217 18.724 61.557 2.384Z" fill="url(#y)"/><path style="mix-blend-mode:multiply" opacity=".26" d="M553.453 434.22c16.34-16.341 15.273-43.9-2.384-61.557-17.656-17.657-45.216-18.724-61.556-2.384-16.34 16.34-15.273 43.9 2.383 61.557 17.657 17.657 45.217 18.724 61.557 2.384Z" fill="url(#z)"/><path d="M540.067 431.019c5.64-23.457-8.803-47.045-32.26-52.685-23.457-5.641-47.045 8.803-52.686 32.26-5.64 23.457 8.804 47.045 32.261 52.685 23.457 5.64 47.045-8.803 52.685-32.26ZM379.453 481.765c22.721 0 41.141-18.42 41.141-41.142 0-22.721-18.42-41.141-41.141-41.141-22.722 0-41.142 18.42-41.142 41.141 0 22.722 18.42 41.142 41.142 41.142Z" fill="#fff"/><defs><radialGradient id="a" cx="0" cy="0" r="1" gradientUnits="userSpaceOnUse" gradientTransform="matrix(-19.11193 72.13181 -49.51425 -13.11922 518.988 160.396)"><stop offset="0" stop-opacity=".3"/><stop offset="1" stop-opacity="0"/></radialGradient><radialGradient id="b" cx="0" cy="0" r="1" gradientUnits="userSpaceOnUse" gradientTransform="matrix(8.8742 74.09124 -50.8593 6.09161 524.156 111.037)"><stop offset="0" stop-opacity=".3"/><stop offset="1" stop-opacity="0"/></radialGradient><radialGradient id="c" cx="0" cy="0" r="1" gradientUnits="userSpaceOnUse" gradientTransform="matrix(47.82787 32.516 -24.95414 36.70512 381.917 323.99)"><stop offset="0" stop-opacity=".3"/><stop offset="1" stop-opacity="0"/></radialGradient><radialGradient id="h" cx="0" cy="0" r="1" gradientUnits="userSpaceOnUse" gradientTransform="rotate(34.21 -367.517 715.546) scale(58.8578 38.5889)"><stop offset="0" stop-opacity=".3"/><stop offset="1" stop-opacity="0"/></radialGradient><radialGradient id="i" cx="0" cy="0" r="1" gradientUnits="userSpaceOnUse" gradientTransform="matrix(55.98456 38.06135 -20.41702 30.03145 586.136 317.636)"><stop offset="0" stop-opacity=".3"/><stop offset="1" stop-opacity="0"/></radialGradient><radialGradient id="j" cx="0" cy="0" r="1" gradientUnits="userSpaceOnUse" gradientTransform="matrix(35.00384 35.00384 -27.28647 27.28647 391.459 353.325)"><stop offset="0" stop-opacity=".3"/><stop offset="1" stop-opacity="0"/></radialGradient><radialGradient id="k" cx="0" cy="0" r="1" gradientUnits="userSpaceOnUse" gradientTransform="matrix(35.00384 35.00384 -27.28647 27.28647 522.964 329.346)"><stop offset="0" stop-opacity=".3"/><stop offset="1" stop-opacity="0"/></radialGradient><radialGradient id="l" cx="0" cy="0" r="1" gradientUnits="userSpaceOnUse" gradientTransform="matrix(42.76417 29.07341 -22.31212 32.81896 257.057 426.144)"><stop offset="0" stop-opacity=".3"/><stop offset="1" stop-opacity="0"/></radialGradient><radialGradient id="m" cx="0" cy="0" r="1" gradientUnits="userSpaceOnUse" gradientTransform="rotate(34.21 -592.528 570.846) scale(52.6263 34.5034)"><stop offset="0" stop-opacity=".3"/><stop offset="1" stop-opacity="0"/></radialGradient><radialGradient id="n" cx="0" cy="0" r="1" gradientUnits="userSpaceOnUse" gradientTransform="rotate(34.21 -463.329 924.57) scale(60.53 32.4698)"><stop offset="0" stop-opacity=".3"/><stop offset="1" stop-opacity="0"/></radialGradient><radialGradient id="o" cx="0" cy="0" r="1" gradientUnits="userSpaceOnUse" gradientTransform="matrix(31.29789 31.29789 -24.39759 24.39759 265.589 452.374)"><stop offset="0" stop-opacity=".3"/><stop offset="1" stop-opacity="0"/></radialGradient><radialGradient id="p" cx="0" cy="0" r="1" gradientUnits="userSpaceOnUse" gradientTransform="matrix(31.29789 31.29789 -24.39759 24.39759 383.171 430.933)"><stop offset="0" stop-opacity=".3"/><stop offset="1" stop-opacity="0"/></radialGradient><radialGradient id="q" cx="0" cy="0" r="1" gradientUnits="userSpaceOnUse" gradientTransform="matrix(42.76417 29.07341 -22.31212 32.81896 539.057 441.144)"><stop offset="0" stop-opacity=".3"/><stop offset="1" stop-opacity="0"/></radialGradient><radialGradient id="r" cx="0" cy="0" r="1" gradientUnits="userSpaceOnUse" gradientTransform="rotate(34.21 -475.9 1036.532) scale(52.6263 34.5034)"><stop offset="0" stop-opacity=".3"/><stop offset="1" stop-opacity="0"/></radialGradient><radialGradient id="s" cx="0" cy="0" r="1" gradientUnits="userSpaceOnUse" gradientTransform="rotate(34.21 -346.7 1390.256) scale(60.53 32.4698)"><stop offset="0" stop-opacity=".3"/><stop offset="1" stop-opacity="0"/></radialGradient><radialGradient id="t" cx="0" cy="0" r="1" gradientUnits="userSpaceOnUse" gradientTransform="matrix(31.29789 31.29789 -24.39759 24.39759 547.589 467.374)"><stop offset="0" stop-opacity=".3"/><stop offset="1" stop-opacity="0"/></radialGradient><radialGradient id="u" cx="0" cy="0" r="1" gradientUnits="userSpaceOnUse" gradientTransform="matrix(31.29789 31.29789 -24.39759 24.39759 665.171 445.933)"><stop offset="0" stop-opacity=".3"/><stop offset="1" stop-opacity="0"/></radialGradient><radialGradient id="v" cx="0" cy="0" r="1" gradientUnits="userSpaceOnUse" gradientTransform="matrix(42.76417 29.07341 -22.31212 32.81896 394.057 394.144)"><stop offset="0" stop-opacity=".3"/><stop offset="1" stop-opacity="0"/></radialGradient><radialGradient id="w" cx="0" cy="0" r="1" gradientUnits="userSpaceOnUse" gradientTransform="rotate(34.21 -472.035 777.44) scale(52.6263 34.5034)"><stop offset="0" stop-opacity=".3"/><stop offset="1" stop-opacity="0"/></radialGradient><radialGradient id="x" cx="0" cy="0" r="1" gradientUnits="userSpaceOnUse" gradientTransform="rotate(34.21 -342.836 1131.164) scale(60.53 32.4698)"><stop offset="0" stop-opacity=".3"/><stop offset="1" stop-opacity="0"/></radialGradient><radialGradient id="y" cx="0" cy="0" r="1" gradientUnits="userSpaceOnUse" gradientTransform="matrix(31.29789 31.29789 -24.39759 24.39759 402.589 420.374)"><stop offset="0" stop-opacity=".3"/><stop offset="1" stop-opacity="0"/></radialGradient><radialGradient id="z" cx="0" cy="0" r="1" gradientUnits="userSpaceOnUse" gradientTransform="matrix(31.29789 31.29789 -24.39759 24.39759 520.171 398.933)"><stop offset="0" stop-opacity=".3"/><stop offset="1" stop-opacity="0"/></radialGradient><linearGradient id="d" x1="466.704" y1="183.133" x2="484.929" y2="201.213" gradientUnits="userSpaceOnUse"><stop stop-color="#D52274"/><stop offset=".563" stop-color="#F44D29"/><stop offset="1" stop-color="#FD7E14"/></linearGradient><linearGradient id="e" x1="515.114" y1="152.086" x2="563.925" y2="161.745" gradientUnits="userSpaceOnUse"><stop stop-color="#D52274"/><stop offset=".563" stop-color="#F44D29"/><stop offset="1" stop-color="#FD7E14"/></linearGradient><linearGradient id="f" x1="398.045" y1="152.086" x2="446.857" y2="161.745" gradientUnits="userSpaceOnUse"><stop stop-color="#D52274"/><stop offset=".563" stop-color="#F44D29"/><stop offset="1" stop-color="#FD7E14"/></linearGradient><linearGradient id="g" x1="434.674" y1="91.203" x2="521.269" y2="120.978" gradientUnits="userSpaceOnUse"><stop stop-color="#D52274"/><stop offset=".563" stop-color="#F44D29"/><stop offset="1" stop-color="#FD7E14"/></linearGradient></defs></svg>