<svg width="822" height="327" fill="none" xmlns="http://www.w3.org/2000/svg"><path style="mix-blend-mode:multiply" opacity=".37" d="M573.687 185.166c14.882-21.889 7.299-52.991-16.937-69.468-24.236-16.477-55.947-12.089-70.829 9.8-14.882 21.89-7.299 52.992 16.937 69.469 24.236 16.477 55.947 12.089 70.829-9.801Z" fill="url(#a)"/><path d="M492.079 194.187c7.325-30.209-11.227-60.637-41.436-67.963-30.21-7.325-60.638 11.227-67.963 41.436-7.325 30.21 11.226 60.638 41.436 67.963 30.209 7.325 60.637-11.226 67.963-41.436Z" fill="#fff"/><path d="M415.799 221.518c6.396-26.517-9.916-53.199-36.434-59.595-26.517-6.395-53.199 9.917-59.595 36.434-6.396 26.518 9.917 53.2 36.434 59.596 26.518 6.395 53.2-9.917 59.595-36.435Z" fill="#fff"/><path style="mix-blend-mode:multiply" opacity=".37" d="M532.791 191.92c12.992-19.11 3.503-48.214-21.196-65.006-24.698-16.791-55.252-14.911-68.244 4.2-12.993 19.11-3.503 48.214 21.195 65.005 24.699 16.791 55.253 14.911 68.245-4.199Z" fill="url(#b)"/><path d="M504.067 212.693c20.313 0 36.78-16.467 36.78-36.78 0-20.312-16.467-36.779-36.78-36.779-20.313 0-36.78 16.467-36.78 36.779 0 20.313 16.467 36.78 36.78 36.78Z" fill="#fff"/><path style="mix-blend-mode:multiply" opacity=".37" d="M762.556 183.296c12.149-17.871-1.03-48.014-29.437-67.327-28.408-19.313-61.285-20.482-73.435-2.611-12.149 17.871 1.03 48.014 29.437 67.327 28.408 19.312 61.285 20.481 73.435 2.611Z" fill="url(#c)"/><path d="M672.995 185.057c20.313 0 36.78-16.466 36.78-36.779 0-20.313-16.467-36.78-36.78-36.78-20.313 0-36.78 16.467-36.78 36.78 0 20.313 16.467 36.779 36.78 36.779Z" fill="#fff"/><path d="M718.208 195.827c15.655 0 28.346-12.691 28.346-28.346 0-15.656-12.691-28.347-28.346-28.347-15.656 0-28.347 12.691-28.347 28.347 0 15.655 12.691 28.346 28.347 28.346Z" fill="#fff"/><path d="M771.735 269.452c27.516 0 49.822-22.306 49.822-49.822 0-27.516-22.306-49.822-49.822-49.822-27.516 0-49.822 22.306-49.822 49.822 0 27.516 22.306 49.822 49.822 49.822ZM327.53 230.536c9.854-9.855 9.854-25.832 0-35.687-9.855-9.854-25.832-9.854-35.687 0-9.854 9.855-9.854 25.832 0 35.687 9.855 9.854 25.832 9.854 35.687 0Z" fill="#fff"/><path d="M712.381 224.208c14.423-6.089 21.178-22.718 15.089-37.14-6.09-14.423-22.718-21.178-37.141-15.089-14.422 6.089-21.178 22.718-15.088 37.14 6.089 14.423 22.717 21.179 37.14 15.089ZM602.123 204.577c3.556-15.247-5.92-30.489-21.166-34.045-15.247-3.557-30.489 5.92-34.045 21.166-3.557 15.246 5.92 30.489 21.166 34.045 15.246 3.556 30.489-5.92 34.045-21.166Z" fill="#fff"/><path d="M574.535 198.154c24.709 0 44.739-20.03 44.739-44.738 0-24.709-20.03-44.739-44.739-44.739-24.708 0-44.739 20.03-44.739 44.739 0 24.708 20.031 44.738 44.739 44.738Z" fill="#fff"/><path style="mix-blend-mode:multiply" opacity=".26" d="M572.892 217.943c16.34-16.34 15.273-43.9-2.383-61.557-17.657-17.657-45.217-18.724-61.557-2.384-16.34 16.341-15.273 43.9 2.384 61.557 17.656 17.657 45.216 18.724 61.556 2.384Z" fill="url(#d)"/><path style="mix-blend-mode:multiply" opacity=".26" d="M690.453 196.219c16.34-16.34 15.273-43.9-2.384-61.557-17.656-17.656-45.216-18.723-61.556-2.383-16.34 16.34-15.273 43.9 2.383 61.556 17.657 17.657 45.217 18.724 61.557 2.384Z" fill="url(#e)"/><path d="M677.067 193.019c5.64-23.457-8.803-47.045-32.261-52.686-23.457-5.64-47.045 8.804-52.685 32.261-5.64 23.457 8.803 47.045 32.26 52.685 23.458 5.64 47.046-8.803 52.686-32.26ZM516.452 243.766c22.722 0 41.142-18.42 41.142-41.142s-18.42-41.142-41.142-41.142-41.141 18.42-41.141 41.142 18.419 41.142 41.141 41.142Z" fill="#fff"/><path style="mix-blend-mode:multiply" opacity=".37" d="M473.687 242.166c14.882-21.889 7.299-52.991-16.937-69.468-24.236-16.477-55.947-12.089-70.829 9.8-14.882 21.89-7.299 52.992 16.937 69.469 24.236 16.477 55.947 12.089 70.829-9.801Z" fill="url(#f)"/><path d="M392.079 251.187c7.325-30.209-11.227-60.637-41.436-67.963-30.21-7.325-60.638 11.227-67.963 41.436-7.325 30.21 11.226 60.638 41.436 67.963 30.209 7.325 60.637-11.226 67.963-41.436Z" fill="#fff"/><path d="M315.799 278.518c6.396-26.517-9.916-53.199-36.434-59.595-26.517-6.395-53.199 9.917-59.595 36.434-6.396 26.518 9.917 53.2 36.434 59.596 26.518 6.395 53.2-9.917 59.595-36.435Z" fill="#fff"/><path style="mix-blend-mode:multiply" opacity=".37" d="M432.791 248.92c12.992-19.11 3.503-48.214-21.196-65.006-24.698-16.791-55.252-14.911-68.244 4.2-12.993 19.11-3.503 48.214 21.195 65.005 24.699 16.791 55.253 14.911 68.245-4.199Z" fill="url(#g)"/><path d="M404.067 269.693c20.313 0 36.78-16.467 36.78-36.78 0-20.312-16.467-36.779-36.78-36.779-20.313 0-36.78 16.467-36.78 36.779 0 20.313 16.467 36.78 36.78 36.78Z" fill="#fff"/><path style="mix-blend-mode:multiply" opacity=".37" d="M662.556 240.296c12.149-17.871-1.03-48.014-29.437-67.327-28.408-19.313-61.285-20.482-73.435-2.611-12.149 17.871 1.03 48.014 29.437 67.327 28.408 19.312 61.285 20.481 73.435 2.611Z" fill="url(#h)"/><path d="M572.995 242.057c20.313 0 36.78-16.466 36.78-36.779 0-20.313-16.467-36.78-36.78-36.78-20.313 0-36.78 16.467-36.78 36.78 0 20.313 16.467 36.779 36.78 36.779Z" fill="#fff"/><path d="M618.208 252.827c15.655 0 28.346-12.691 28.346-28.346 0-15.656-12.691-28.347-28.346-28.347-15.656 0-28.347 12.691-28.347 28.347 0 15.655 12.691 28.346 28.347 28.346Z" fill="#fff"/><path d="M671.735 326.452c27.516 0 49.822-22.306 49.822-49.822 0-27.516-22.306-49.822-49.822-49.822-27.516 0-49.822 22.306-49.822 49.822 0 27.516 22.306 49.822 49.822 49.822ZM227.53 287.536c9.854-9.855 9.854-25.832 0-35.687-9.855-9.854-25.832-9.854-35.687 0-9.854 9.855-9.854 25.832 0 35.687 9.855 9.854 25.832 9.854 35.687 0Z" fill="#fff"/><path d="M612.381 281.208c14.423-6.089 21.178-22.718 15.089-37.14-6.09-14.423-22.718-21.178-37.141-15.089-14.422 6.089-21.178 22.718-15.088 37.14 6.089 14.423 22.717 21.179 37.14 15.089ZM502.123 261.577c3.556-15.247-5.92-30.489-21.166-34.045-15.247-3.557-30.489 5.92-34.045 21.166-3.557 15.246 5.92 30.489 21.166 34.045 15.246 3.556 30.489-5.92 34.045-21.166Z" fill="#fff"/><path d="M474.535 255.154c24.709 0 44.739-20.03 44.739-44.738 0-24.709-20.03-44.739-44.739-44.739-24.708 0-44.739 20.03-44.739 44.739 0 24.708 20.031 44.738 44.739 44.738Z" fill="#fff"/><path style="mix-blend-mode:multiply" opacity=".26" d="M472.892 274.943c16.34-16.34 15.273-43.9-2.383-61.557-17.657-17.657-45.217-18.724-61.557-2.384-16.34 16.341-15.273 43.9 2.384 61.557 17.656 17.657 45.216 18.724 61.556 2.384Z" fill="url(#i)"/><path style="mix-blend-mode:multiply" opacity=".26" d="M590.453 253.219c16.34-16.34 15.273-43.9-2.384-61.557-17.656-17.656-45.216-18.723-61.556-2.383-16.34 16.34-15.273 43.9 2.383 61.556 17.657 17.657 45.217 18.724 61.557 2.384Z" fill="url(#j)"/><path d="M577.067 250.019c5.64-23.457-8.803-47.045-32.261-52.686-23.457-5.64-47.045 8.804-52.685 32.261-5.64 23.457 8.803 47.045 32.26 52.685 23.458 5.64 47.046-8.803 52.686-32.26ZM416.452 300.766c22.722 0 41.142-18.42 41.142-41.142s-18.42-41.142-41.142-41.142-41.141 18.42-41.141 41.142 18.419 41.142 41.141 41.142Z" fill="#fff"/><path style="mix-blend-mode:multiply" opacity=".37" d="M393.687 104.166c14.882-21.89 7.299-52.991-16.937-69.468-24.236-16.477-55.947-12.09-70.829 9.8-14.882 21.89-7.299 52.992 16.937 69.469 24.236 16.477 55.947 12.089 70.829-9.801Z" fill="url(#k)"/><path d="M312.079 113.187c7.325-30.21-11.227-60.637-41.436-67.963-30.21-7.325-60.638 11.227-67.963 41.436-7.325 30.21 11.226 60.638 41.436 67.963 30.209 7.325 60.637-11.226 67.963-41.436Z" fill="#fff"/><path d="M235.799 140.518c6.396-26.517-9.916-53.199-36.434-59.595-26.518-6.395-53.199 9.917-59.595 36.434-6.396 26.518 9.916 53.2 36.434 59.596 26.518 6.395 53.2-9.917 59.595-36.435Z" fill="#fff"/><path style="mix-blend-mode:multiply" opacity=".37" d="M352.791 110.92c12.992-19.11 3.503-48.214-21.196-65.006-24.698-16.79-55.252-14.91-68.244 4.2-12.993 19.11-3.503 48.214 21.195 65.005 24.699 16.791 55.253 14.911 68.245-4.199Z" fill="url(#l)"/><path d="M324.067 131.693c20.313 0 36.78-16.467 36.78-36.78 0-20.312-16.467-36.78-36.78-36.78-20.313 0-36.78 16.468-36.78 36.78 0 20.313 16.467 36.78 36.78 36.78Z" fill="#fff"/><path style="mix-blend-mode:multiply" opacity=".37" d="M582.556 102.296c12.149-17.871-1.03-48.014-29.437-67.327-28.408-19.313-61.285-20.482-73.435-2.611-12.149 17.87 1.03 48.014 29.437 67.327 28.408 19.312 61.285 20.481 73.435 2.611Z" fill="url(#m)"/><path d="M492.995 104.057c20.313 0 36.78-16.466 36.78-36.78 0-20.312-16.467-36.779-36.78-36.779-20.313 0-36.78 16.467-36.78 36.78 0 20.313 16.467 36.779 36.78 36.779Z" fill="#fff"/><path d="M538.208 114.827c15.655 0 28.346-12.691 28.346-28.346 0-15.656-12.691-28.347-28.346-28.347-15.656 0-28.347 12.691-28.347 28.347 0 15.655 12.691 28.346 28.347 28.346Z" fill="#fff"/><path d="M591.735 188.452c27.516 0 49.822-22.306 49.822-49.822 0-27.516-22.306-49.822-49.822-49.822-27.516 0-49.822 22.306-49.822 49.822 0 27.516 22.306 49.822 49.822 49.822ZM147.53 149.536c9.854-9.855 9.854-25.832 0-35.687-9.855-9.854-25.832-9.854-35.687 0-9.854 9.855-9.854 25.832 0 35.687 9.855 9.854 25.832 9.854 35.687 0Z" fill="#fff"/><path d="M532.381 143.208c14.423-6.089 21.178-22.718 15.089-37.14-6.09-14.423-22.718-21.178-37.141-15.089-14.422 6.09-21.178 22.718-15.088 37.14 6.089 14.423 22.717 21.179 37.14 15.089ZM422.123 123.577c3.556-15.247-5.92-30.49-21.166-34.045-15.247-3.557-30.489 5.92-34.045 21.166-3.557 15.246 5.92 30.489 21.166 34.045 15.246 3.556 30.489-5.92 34.045-21.166Z" fill="#fff"/><path d="M394.535 117.154c24.709 0 44.739-20.03 44.739-44.739 0-24.708-20.03-44.738-44.739-44.738-24.708 0-44.739 20.03-44.739 44.738 0 24.71 20.031 44.739 44.739 44.739Z" fill="#fff"/><path style="mix-blend-mode:multiply" opacity=".26" d="M392.892 136.943c16.34-16.34 15.273-43.9-2.383-61.557-17.657-17.657-45.217-18.724-61.557-2.384-16.34 16.34-15.273 43.9 2.384 61.557 17.656 17.657 45.216 18.724 61.556 2.384Z" fill="url(#n)"/><path style="mix-blend-mode:multiply" opacity=".26" d="M510.453 115.219c16.34-16.34 15.273-43.9-2.384-61.557-17.656-17.656-45.216-18.724-61.556-2.383-16.34 16.34-15.273 43.9 2.383 61.556 17.657 17.657 45.217 18.724 61.557 2.384Z" fill="url(#o)"/><path d="M497.067 112.019c5.64-23.457-8.803-47.045-32.261-52.686-23.457-5.64-47.045 8.804-52.685 32.26-5.64 23.458 8.803 47.046 32.26 52.686 23.458 5.64 47.046-8.803 52.686-32.26ZM336.452 162.766c22.722 0 41.142-18.42 41.142-41.142s-18.42-41.142-41.142-41.142-41.141 18.42-41.141 41.142 18.419 41.142 41.141 41.142Z" fill="#fff"/><path style="mix-blend-mode:multiply" opacity=".37" d="M393.687 185.166c14.882-21.889 7.299-52.991-16.937-69.468-24.236-16.477-55.947-12.089-70.829 9.8-14.882 21.89-7.299 52.992 16.937 69.469 24.236 16.477 55.947 12.089 70.829-9.801Z" fill="url(#p)"/><path d="M312.079 194.187c7.325-30.209-11.227-60.637-41.436-67.963-30.21-7.325-60.638 11.227-67.963 41.436-7.325 30.21 11.226 60.638 41.436 67.963 30.209 7.325 60.637-11.226 67.963-41.436Z" fill="#fff"/><path d="M235.799 221.518c6.396-26.517-9.916-53.199-36.434-59.595-26.518-6.395-53.199 9.917-59.595 36.434-6.396 26.518 9.916 53.2 36.434 59.596 26.518 6.395 53.2-9.917 59.595-36.435Z" fill="#fff"/><path style="mix-blend-mode:multiply" opacity=".37" d="M352.791 191.92c12.992-19.11 3.503-48.214-21.196-65.006-24.698-16.791-55.252-14.911-68.244 4.2-12.993 19.11-3.503 48.214 21.195 65.005 24.699 16.791 55.253 14.911 68.245-4.199Z" fill="url(#q)"/><path d="M324.067 212.693c20.313 0 36.78-16.467 36.78-36.78 0-20.312-16.467-36.779-36.78-36.779-20.313 0-36.78 16.467-36.78 36.779 0 20.313 16.467 36.78 36.78 36.78Z" fill="#fff"/><path style="mix-blend-mode:multiply" opacity=".37" d="M582.556 183.296c12.149-17.871-1.03-48.014-29.437-67.327-28.408-19.313-61.285-20.482-73.435-2.611-12.149 17.871 1.03 48.014 29.437 67.327 28.408 19.312 61.285 20.481 73.435 2.611Z" fill="url(#r)"/><path d="M492.995 185.057c20.313 0 36.78-16.466 36.78-36.779 0-20.313-16.467-36.78-36.78-36.78-20.313 0-36.78 16.467-36.78 36.78 0 20.313 16.467 36.779 36.78 36.779Z" fill="#fff"/><path d="M538.208 195.827c15.655 0 28.346-12.691 28.346-28.346 0-15.656-12.691-28.347-28.346-28.347-15.656 0-28.347 12.691-28.347 28.347 0 15.655 12.691 28.346 28.347 28.346Z" fill="#fff"/><path d="M591.735 269.452c27.516 0 49.822-22.306 49.822-49.822 0-27.516-22.306-49.822-49.822-49.822-27.516 0-49.822 22.306-49.822 49.822 0 27.516 22.306 49.822 49.822 49.822ZM147.53 230.536c9.854-9.855 9.854-25.832 0-35.687-9.855-9.854-25.832-9.854-35.687 0-9.854 9.855-9.854 25.832 0 35.687 9.855 9.854 25.832 9.854 35.687 0Z" fill="#fff"/><path d="M532.381 224.208c14.423-6.089 21.178-22.718 15.089-37.14-6.09-14.423-22.718-21.178-37.141-15.089-14.422 6.089-21.178 22.718-15.088 37.14 6.089 14.423 22.717 21.179 37.14 15.089ZM422.123 204.577c3.556-15.247-5.92-30.489-21.166-34.045-15.247-3.557-30.489 5.92-34.045 21.166-3.557 15.246 5.92 30.489 21.166 34.045 15.246 3.556 30.489-5.92 34.045-21.166Z" fill="#fff"/><path d="M394.535 198.154c24.709 0 44.739-20.03 44.739-44.738 0-24.709-20.03-44.739-44.739-44.739-24.708 0-44.739 20.03-44.739 44.739 0 24.708 20.031 44.738 44.739 44.738Z" fill="#fff"/><path style="mix-blend-mode:multiply" opacity=".26" d="M392.892 217.943c16.34-16.34 15.273-43.9-2.383-61.557-17.657-17.657-45.217-18.724-61.557-2.384-16.34 16.341-15.273 43.9 2.384 61.557 17.656 17.657 45.216 18.724 61.556 2.384Z" fill="url(#s)"/><path style="mix-blend-mode:multiply" opacity=".26" d="M510.453 196.219c16.34-16.34 15.273-43.9-2.384-61.557-17.656-17.656-45.216-18.723-61.556-2.383-16.34 16.34-15.273 43.9 2.383 61.556 17.657 17.657 45.217 18.724 61.557 2.384Z" fill="url(#t)"/><path d="M497.067 193.019c5.64-23.457-8.803-47.045-32.261-52.686-23.457-5.64-47.045 8.804-52.685 32.261-5.64 23.457 8.803 47.045 32.26 52.685 23.458 5.64 47.046-8.803 52.686-32.26ZM336.452 243.766c22.722 0 41.142-18.42 41.142-41.142s-18.42-41.142-41.142-41.142-41.141 18.42-41.141 41.142 18.419 41.142 41.141 41.142Z" fill="#fff"/><path style="mix-blend-mode:multiply" opacity=".37" d="M299.687 183.166c14.882-21.889 7.299-52.991-16.937-69.468-24.236-16.477-55.947-12.089-70.829 9.8-14.882 21.89-7.299 52.992 16.937 69.469 24.236 16.477 55.947 12.089 70.829-9.801Z" fill="url(#u)"/><path d="M218.078 192.187c7.326-30.209-11.226-60.637-41.435-67.963-30.21-7.325-60.638 11.227-67.963 41.436-7.325 30.21 11.226 60.638 41.436 67.963 30.209 7.325 60.637-11.226 67.962-41.436Z" fill="#fff"/><path d="M141.799 219.518c6.396-26.517-9.916-53.199-36.434-59.595-26.518-6.395-53.2 9.917-59.595 36.434-6.396 26.518 9.916 53.2 36.434 59.596 26.518 6.395 53.2-9.917 59.595-36.435Z" fill="#fff"/><path style="mix-blend-mode:multiply" opacity=".37" d="M258.791 189.92c12.992-19.11 3.503-48.214-21.196-65.006-24.698-16.791-55.252-14.911-68.244 4.2-12.993 19.11-3.503 48.214 21.195 65.005 24.699 16.791 55.253 14.911 68.245-4.199Z" fill="url(#v)"/><path d="M230.067 210.693c20.313 0 36.78-16.467 36.78-36.78 0-20.312-16.467-36.779-36.78-36.779-20.313 0-36.78 16.467-36.78 36.779 0 20.313 16.467 36.78 36.78 36.78Z" fill="#fff"/><path style="mix-blend-mode:multiply" opacity=".37" d="M488.556 181.296c12.149-17.871-1.03-48.014-29.437-67.327-28.408-19.313-61.285-20.482-73.435-2.611-12.149 17.871 1.03 48.014 29.437 67.327 28.408 19.312 61.285 20.481 73.435 2.611Z" fill="url(#w)"/><path d="M398.995 183.057c20.313 0 36.78-16.466 36.78-36.779 0-20.313-16.467-36.78-36.78-36.78-20.313 0-36.78 16.467-36.78 36.78 0 20.313 16.467 36.779 36.78 36.779Z" fill="#fff"/><path d="M444.208 193.827c15.655 0 28.346-12.691 28.346-28.346 0-15.656-12.691-28.347-28.346-28.347-15.656 0-28.347 12.691-28.347 28.347 0 15.655 12.691 28.346 28.347 28.346Z" fill="#fff"/><path d="M497.735 267.452c27.516 0 49.822-22.306 49.822-49.822 0-27.516-22.306-49.822-49.822-49.822-27.516 0-49.822 22.306-49.822 49.822 0 27.516 22.306 49.822 49.822 49.822ZM53.53 228.536c9.854-9.855 9.854-25.832 0-35.687-9.855-9.854-25.832-9.854-35.687 0-9.854 9.855-9.854 25.832 0 35.687 9.855 9.854 25.832 9.854 35.687 0Z" fill="#fff"/><path d="M438.381 222.208c14.423-6.089 21.178-22.718 15.089-37.14-6.09-14.423-22.718-21.178-37.141-15.089-14.422 6.089-21.178 22.718-15.088 37.14 6.089 14.423 22.717 21.179 37.14 15.089ZM328.123 202.577c3.556-15.247-5.92-30.489-21.166-34.045-15.247-3.557-30.489 5.92-34.045 21.166-3.557 15.246 5.92 30.489 21.166 34.045 15.246 3.556 30.489-5.92 34.045-21.166Z" fill="#fff"/><path d="M300.535 196.154c24.709 0 44.739-20.03 44.739-44.738 0-24.709-20.03-44.739-44.739-44.739-24.708 0-44.739 20.03-44.739 44.739 0 24.708 20.031 44.738 44.739 44.738Z" fill="#fff"/><path style="mix-blend-mode:multiply" opacity=".26" d="M298.892 215.943c16.34-16.34 15.273-43.9-2.383-61.557-17.657-17.657-45.217-18.724-61.557-2.384-16.34 16.341-15.273 43.9 2.384 61.557 17.656 17.657 45.216 18.724 61.556 2.384Z" fill="url(#x)"/><path style="mix-blend-mode:multiply" opacity=".26" d="M416.453 194.219c16.34-16.34 15.273-43.9-2.384-61.557-17.656-17.656-45.216-18.723-61.556-2.383-16.34 16.34-15.273 43.9 2.383 61.556 17.657 17.657 45.217 18.724 61.557 2.384Z" fill="url(#y)"/><path d="M403.067 191.019c5.64-23.457-8.803-47.045-32.261-52.686-23.457-5.64-47.045 8.804-52.685 32.261-5.64 23.457 8.803 47.045 32.26 52.685 23.458 5.64 47.046-8.803 52.686-32.26ZM242.452 241.766c22.722 0 41.142-18.42 41.142-41.142s-18.42-41.142-41.142-41.142-41.141 18.42-41.141 41.142 18.419 41.142 41.141 41.142Z" fill="#fff"/><defs><radialGradient id="a" cx="0" cy="0" r="1" gradientUnits="userSpaceOnUse" gradientTransform="matrix(42.76417 29.07341 -22.31212 32.81896 531.057 156.144)"><stop/><stop offset="1" stop-color="#fff" stop-opacity="0"/></radialGradient><radialGradient id="b" cx="0" cy="0" r="1" gradientUnits="userSpaceOnUse" gradientTransform="rotate(34.21 -16.84 881.034) scale(52.6263 34.5034)"><stop/><stop offset="1" stop-color="#fff" stop-opacity="0"/></radialGradient><radialGradient id="c" cx="0" cy="0" r="1" gradientUnits="userSpaceOnUse" gradientTransform="rotate(34.21 112.36 1234.757) scale(60.53 32.4698)"><stop/><stop offset="1" stop-color="#fff" stop-opacity="0"/></radialGradient><radialGradient id="d" cx="0" cy="0" r="1" gradientUnits="userSpaceOnUse" gradientTransform="matrix(31.29789 31.29789 -24.39759 24.39759 539.589 182.374)"><stop/><stop offset="1" stop-color="#fff" stop-opacity="0"/></radialGradient><radialGradient id="e" cx="0" cy="0" r="1" gradientUnits="userSpaceOnUse" gradientTransform="matrix(31.29789 31.29789 -24.39759 24.39759 657.171 160.933)"><stop/><stop offset="1" stop-color="#fff" stop-opacity="0"/></radialGradient><radialGradient id="f" cx="0" cy="0" r="1" gradientUnits="userSpaceOnUse" gradientTransform="matrix(42.76417 29.07341 -22.31212 32.81896 431.057 213.144)"><stop/><stop offset="1" stop-color="#fff" stop-opacity="0"/></radialGradient><radialGradient id="g" cx="0" cy="0" r="1" gradientUnits="userSpaceOnUse" gradientTransform="rotate(34.21 -159.452 747.057) scale(52.6263 34.5034)"><stop/><stop offset="1" stop-color="#fff" stop-opacity="0"/></radialGradient><radialGradient id="h" cx="0" cy="0" r="1" gradientUnits="userSpaceOnUse" gradientTransform="rotate(34.21 -30.252 1100.78) scale(60.53 32.4698)"><stop/><stop offset="1" stop-color="#fff" stop-opacity="0"/></radialGradient><radialGradient id="i" cx="0" cy="0" r="1" gradientUnits="userSpaceOnUse" gradientTransform="matrix(31.29789 31.29789 -24.39759 24.39759 439.589 239.374)"><stop/><stop offset="1" stop-color="#fff" stop-opacity="0"/></radialGradient><radialGradient id="j" cx="0" cy="0" r="1" gradientUnits="userSpaceOnUse" gradientTransform="matrix(31.29789 31.29789 -24.39759 24.39759 557.171 217.933)"><stop/><stop offset="1" stop-color="#fff" stop-opacity="0"/></radialGradient><radialGradient id="k" cx="0" cy="0" r="1" gradientUnits="userSpaceOnUse" gradientTransform="matrix(42.76417 29.07341 -22.31212 32.81896 351.057 75.144)"><stop/><stop offset="1" stop-color="#fff" stop-opacity="0"/></radialGradient><radialGradient id="l" cx="0" cy="0" r="1" gradientUnits="userSpaceOnUse" gradientTransform="rotate(34.21 24.766 548.075) scale(52.6263 34.5034)"><stop/><stop offset="1" stop-color="#fff" stop-opacity="0"/></radialGradient><radialGradient id="m" cx="0" cy="0" r="1" gradientUnits="userSpaceOnUse" gradientTransform="rotate(34.21 153.966 901.799) scale(60.53 32.4698)"><stop/><stop offset="1" stop-color="#fff" stop-opacity="0"/></radialGradient><radialGradient id="n" cx="0" cy="0" r="1" gradientUnits="userSpaceOnUse" gradientTransform="matrix(31.29789 31.29789 -24.39759 24.39759 359.589 101.374)"><stop/><stop offset="1" stop-color="#fff" stop-opacity="0"/></radialGradient><radialGradient id="o" cx="0" cy="0" r="1" gradientUnits="userSpaceOnUse" gradientTransform="matrix(31.29789 31.29789 -24.39759 24.39759 477.171 79.933)"><stop/><stop offset="1" stop-color="#fff" stop-opacity="0"/></radialGradient><radialGradient id="p" cx="0" cy="0" r="1" gradientUnits="userSpaceOnUse" gradientTransform="matrix(42.76417 29.07341 -22.31212 32.81896 351.057 156.144)"><stop/><stop offset="1" stop-color="#fff" stop-opacity="0"/></radialGradient><radialGradient id="q" cx="0" cy="0" r="1" gradientUnits="userSpaceOnUse" gradientTransform="rotate(34.21 -106.84 588.575) scale(52.6263 34.5034)"><stop/><stop offset="1" stop-color="#fff" stop-opacity="0"/></radialGradient><radialGradient id="r" cx="0" cy="0" r="1" gradientUnits="userSpaceOnUse" gradientTransform="rotate(34.21 22.36 942.299) scale(60.53 32.4698)"><stop/><stop offset="1" stop-color="#fff" stop-opacity="0"/></radialGradient><radialGradient id="s" cx="0" cy="0" r="1" gradientUnits="userSpaceOnUse" gradientTransform="matrix(31.29789 31.29789 -24.39759 24.39759 359.589 182.374)"><stop/><stop offset="1" stop-color="#fff" stop-opacity="0"/></radialGradient><radialGradient id="t" cx="0" cy="0" r="1" gradientUnits="userSpaceOnUse" gradientTransform="matrix(31.29789 31.29789 -24.39759 24.39759 477.171 160.933)"><stop/><stop offset="1" stop-color="#fff" stop-opacity="0"/></radialGradient><radialGradient id="u" cx="0" cy="0" r="1" gradientUnits="userSpaceOnUse" gradientTransform="matrix(42.76417 29.07341 -22.31212 32.81896 257.057 154.144)"><stop/><stop offset="1" stop-color="#fff" stop-opacity="0"/></radialGradient><radialGradient id="v" cx="0" cy="0" r="1" gradientUnits="userSpaceOnUse" gradientTransform="rotate(34.21 -150.59 434.846) scale(52.6263 34.5034)"><stop/><stop offset="1" stop-color="#fff" stop-opacity="0"/></radialGradient><radialGradient id="w" cx="0" cy="0" r="1" gradientUnits="userSpaceOnUse" gradientTransform="rotate(34.21 -21.39 788.57) scale(60.53 32.4698)"><stop/><stop offset="1" stop-color="#fff" stop-opacity="0"/></radialGradient><radialGradient id="x" cx="0" cy="0" r="1" gradientUnits="userSpaceOnUse" gradientTransform="matrix(31.29789 31.29789 -24.39759 24.39759 265.589 180.374)"><stop/><stop offset="1" stop-color="#fff" stop-opacity="0"/></radialGradient><radialGradient id="y" cx="0" cy="0" r="1" gradientUnits="userSpaceOnUse" gradientTransform="matrix(31.29789 31.29789 -24.39759 24.39759 383.171 158.933)"><stop/><stop offset="1" stop-color="#fff" stop-opacity="0"/></radialGradient></defs></svg>