<svg width="548" height="268" fill="none" xmlns="http://www.w3.org/2000/svg"><path style="mix-blend-mode:multiply" opacity=".37" d="M247.869 163.367c-14.882 21.89-7.298 52.992 16.937 69.469 24.236 16.477 55.948 12.089 70.829-9.801 14.882-21.889 7.299-52.991-16.937-69.468-24.236-16.477-55.947-12.089-70.829 9.8Z" fill="url(#a)"/><path d="M329.478 154.346c-7.325 30.209 11.226 60.637 41.436 67.962 30.209 7.326 60.637-11.226 67.962-41.435 7.325-30.21-11.226-60.638-41.436-67.963-30.209-7.325-60.637 11.226-67.962 41.436Z" fill="#fff"/><path d="M405.757 127.015c-6.396 26.518 9.916 53.199 36.434 59.595 26.518 6.396 53.2-9.916 59.595-36.434 6.396-26.518-9.916-53.2-36.434-59.595-26.518-6.396-53.199 9.916-59.595 36.434Z" fill="#fff"/><path style="mix-blend-mode:multiply" opacity=".37" d="M288.765 156.613c-12.992 19.111-3.502 48.214 21.196 65.006 24.698 16.791 55.252 14.911 68.245-4.199 12.992-19.111 3.502-48.215-21.196-65.006-24.698-16.791-55.253-14.911-68.245 4.199Z" fill="url(#b)"/><path d="M317.489 135.84c-20.312 0-36.779 16.467-36.779 36.779 0 20.313 16.467 36.78 36.779 36.78 20.313 0 36.78-16.467 36.78-36.78 0-20.312-16.467-36.779-36.78-36.779Z" fill="#fff"/><path style="mix-blend-mode:multiply" opacity=".37" d="M59 165.238c-12.149 17.87 1.03 48.014 29.438 67.326 28.407 19.313 61.285 20.482 73.434 2.611 12.15-17.87-1.03-48.013-29.437-67.326-28.407-19.313-61.285-20.482-73.434-2.611Z" fill="url(#c)"/><path d="M148.561 163.476c-20.312 0-36.779 16.467-36.779 36.78 0 20.313 16.467 36.78 36.779 36.78 20.313 0 36.78-16.467 36.78-36.78 0-20.313-16.467-36.78-36.78-36.78Z" fill="#fff"/><path d="M103.349 152.706c-15.656 0-28.347 12.691-28.347 28.346 0 15.656 12.691 28.347 28.347 28.347 15.655 0 28.347-12.691 28.347-28.347 0-15.655-12.692-28.346-28.347-28.346Z" fill="#fff"/><path d="M49.822 79.081c-27.517 0-49.823 22.306-49.823 49.822 0 27.517 22.306 49.823 49.823 49.823 27.516 0 49.822-22.306 49.822-49.823 0-27.516-22.306-49.822-49.823-49.822ZM494.027 117.998c-9.855 9.854-9.855 25.832 0 35.686 9.854 9.855 25.832 9.855 35.686 0 9.855-9.854 9.855-25.832 0-35.686-9.854-9.855-25.832-9.855-35.686 0Z" fill="#fff"/><path d="M109.175 124.325c-14.423 6.09-21.178 22.718-15.089 37.141 6.09 14.422 22.718 21.178 37.141 15.088 14.422-6.089 21.178-22.717 15.088-37.14-6.089-14.423-22.717-21.178-37.14-15.089ZM219.433 143.957c-3.556 15.246 5.921 30.489 21.167 34.045 15.246 3.556 30.489-5.92 34.045-21.166 3.556-15.247-5.92-30.489-21.167-34.045-15.246-3.557-30.488 5.92-34.045 21.166Z" fill="#fff"/><path d="M247.021 150.379c-24.708 0-44.739 20.031-44.739 44.739 0 24.709 20.031 44.739 44.739 44.739 24.709 0 44.739-20.03 44.739-44.739 0-24.708-20.03-44.739-44.739-44.739Z" fill="#fff"/><path style="mix-blend-mode:multiply" opacity=".26" d="M248.664 130.59c-16.34 16.341-15.273 43.9 2.384 61.557 17.656 17.657 45.216 18.724 61.556 2.384 16.341-16.34 15.273-43.9-2.383-61.557-17.657-17.657-45.217-18.724-61.557-2.384Z" fill="url(#d)"/><path style="mix-blend-mode:multiply" opacity=".26" d="M131.103 152.314c-16.34 16.34-15.273 43.9 2.384 61.556 17.656 17.657 45.216 18.724 61.556 2.384 16.341-16.34 15.273-43.9-2.383-61.557-17.657-17.656-45.217-18.724-61.557-2.383Z" fill="url(#e)"/><path d="M144.49 155.514c-5.641 23.457 8.803 47.045 32.26 52.686 23.457 5.64 47.045-8.804 52.685-32.261 5.64-23.457-8.803-47.045-32.26-52.685-23.457-5.64-47.045 8.803-52.685 32.26ZM305.104 104.768c-22.722 0-41.142 18.42-41.142 41.142s18.42 41.141 41.142 41.141 41.141-18.419 41.141-41.141c0-22.722-18.419-41.142-41.141-41.142Z" fill="#fff"/><path style="mix-blend-mode:multiply" opacity=".37" d="M256.215 70.634c10.091-14.843 4.949-35.933-11.485-47.106-16.434-11.173-37.937-8.197-48.028 6.646-10.091 14.843-4.949 35.933 11.485 47.105 16.434 11.173 37.937 8.198 48.028-6.645Z" fill="url(#f)"/><path d="M200.878 76.751c4.967-20.485-7.613-41.117-28.097-46.085-20.485-4.967-41.118 7.613-46.085 28.098-4.967 20.484 7.612 41.117 28.097 46.084 20.485 4.967 41.117-7.612 46.085-28.097Z" fill="#fff"/><path d="M149.152 95.284c4.337-17.981-6.724-36.074-24.705-40.41-17.982-4.338-36.074 6.724-40.411 24.705-4.337 17.981 6.724 36.074 24.705 40.411 17.982 4.337 36.074-6.725 40.411-24.706Z" fill="#fff"/><path style="mix-blend-mode:multiply" opacity=".37" d="M228.484 75.214c8.81-12.959 2.375-32.694-14.373-44.08-16.747-11.386-37.466-10.11-46.276 2.848-8.809 12.958-2.375 32.693 14.373 44.08 16.748 11.385 37.466 10.11 46.276-2.848Z" fill="url(#g)"/><path d="M209.006 89.3c13.774 0 24.94-11.166 24.94-24.94 0-13.773-11.166-24.94-24.94-24.94-13.774 0-24.94 11.167-24.94 24.94 0 13.774 11.166 24.94 24.94 24.94Z" fill="#fff"/><path style="mix-blend-mode:multiply" opacity=".37" d="M384.285 69.365c8.238-12.117-.699-32.557-19.961-45.653-19.263-13.096-41.557-13.888-49.795-1.77-8.239 12.117.698 32.557 19.961 45.653 19.262 13.096 41.556 13.888 49.795 1.77Z" fill="url(#h)"/><path d="M323.554 70.56c13.774 0 24.94-11.166 24.94-24.94 0-13.774-11.166-24.94-24.94-24.94-13.774 0-24.939 11.166-24.939 24.94 0 13.774 11.165 24.94 24.939 24.94Z" fill="#fff"/><path d="M354.213 77.864c10.616 0 19.221-8.606 19.221-19.222 0-10.616-8.605-19.221-19.221-19.221s-19.222 8.605-19.222 19.221 8.606 19.222 19.222 19.222Z" fill="#fff"/><path d="M390.508 127.788c18.658 0 33.784-15.126 33.784-33.784 0-18.659-15.126-33.784-33.784-33.784-18.659 0-33.784 15.125-33.784 33.784 0 18.658 15.125 33.784 33.784 33.784ZM89.298 101.399c6.683-6.683 6.683-17.517 0-24.199-6.682-6.682-17.516-6.682-24.198 0-6.682 6.682-6.682 17.516 0 24.199 6.682 6.682 17.516 6.682 24.198 0Z" fill="#fff"/><path d="M350.262 97.108c9.779-4.13 14.36-15.405 10.231-25.185s-15.405-14.36-25.184-10.231c-9.78 4.129-14.361 15.404-10.232 25.184 4.129 9.78 15.405 14.361 25.185 10.232ZM275.496 83.796c2.412-10.338-4.014-20.674-14.352-23.086-10.338-2.411-20.674 4.015-23.086 14.353-2.411 10.338 4.015 20.674 14.353 23.085 10.338 2.412 20.674-4.014 23.085-14.352Z" fill="#fff"/><path d="M256.79 79.44c16.755 0 30.337-13.582 30.337-30.336 0-16.755-13.582-30.337-30.337-30.337-16.754 0-30.336 13.582-30.336 30.337 0 16.754 13.582 30.337 30.336 30.337Z" fill="#fff"/><path style="mix-blend-mode:multiply" opacity=".26" d="M255.675 92.86c11.08-11.08 10.356-29.768-1.616-41.741-11.973-11.973-30.661-12.697-41.741-1.617-11.08 11.08-10.357 29.768 1.616 41.741 11.973 11.973 30.661 12.697 41.741 1.617Z" fill="url(#i)"/><path style="mix-blend-mode:multiply" opacity=".26" d="M335.392 78.13c11.08-11.08 10.357-29.769-1.616-41.742-11.973-11.972-30.661-12.696-41.741-1.616-11.08 11.08-10.356 29.768 1.616 41.74 11.973 11.974 30.661 12.697 41.741 1.617Z" fill="url(#j)"/><path d="M326.315 75.959c3.824-15.906-5.97-31.9-21.876-35.725-15.906-3.825-31.9 5.97-35.725 21.875-3.825 15.906 5.969 31.9 21.875 35.725 15.906 3.825 31.901-5.97 35.726-21.875ZM217.404 110.37c15.407 0 27.897-12.49 27.897-27.898 0-15.407-12.49-27.898-27.897-27.898-15.408 0-27.898 12.49-27.898 27.898 0 15.407 12.49 27.898 27.898 27.898Z" fill="#fff"/><path style="mix-blend-mode:multiply" opacity=".37" d="M256.215 119.804c10.091-14.843 4.949-35.933-11.485-47.106-16.434-11.173-37.937-8.197-48.028 6.646-10.091 14.843-4.949 35.933 11.485 47.105 16.434 11.173 37.937 8.198 48.028-6.645Z" fill="url(#k)"/><path d="M200.878 125.921c4.967-20.485-7.613-41.118-28.097-46.085-20.485-4.967-41.118 7.613-46.085 28.097-4.967 20.485 7.612 41.118 28.097 46.085 20.485 4.967 41.117-7.612 46.085-28.097Z" fill="#fff"/><path d="M149.152 144.454c4.337-17.981-6.724-36.074-24.705-40.411-17.982-4.337-36.074 6.725-40.411 24.706-4.337 17.981 6.724 36.074 24.705 40.411 17.982 4.336 36.074-6.725 40.411-24.706Z" fill="#fff"/><path style="mix-blend-mode:multiply" opacity=".37" d="M228.484 124.384c8.81-12.959 2.375-32.694-14.373-44.08-16.747-11.386-37.466-10.11-46.276 2.848-8.809 12.958-2.375 32.693 14.373 44.079 16.748 11.386 37.466 10.111 46.276-2.847Z" fill="url(#l)"/><path d="M209.006 138.47c13.774 0 24.94-11.166 24.94-24.94 0-13.773-11.166-24.94-24.94-24.94-13.774 0-24.94 11.166-24.94 24.94 0 13.774 11.166 24.94 24.94 24.94Z" fill="#fff"/><path style="mix-blend-mode:multiply" opacity=".37" d="M384.285 118.535c8.238-12.118-.699-32.557-19.961-45.653-19.263-13.096-41.557-13.889-49.795-1.77-8.239 12.117.698 32.557 19.961 45.653 19.262 13.096 41.556 13.888 49.795 1.77Z" fill="url(#m)"/><path d="M323.554 119.73c13.774 0 24.94-11.166 24.94-24.94 0-13.774-11.166-24.94-24.94-24.94-13.774 0-24.939 11.166-24.939 24.94 0 13.774 11.165 24.94 24.939 24.94Z" fill="#fff"/><path d="M354.213 127.034c10.616 0 19.221-8.606 19.221-19.222 0-10.616-8.605-19.221-19.221-19.221s-19.222 8.605-19.222 19.221 8.606 19.222 19.222 19.222Z" fill="#fff"/><path d="M390.508 176.957c18.658 0 33.784-15.125 33.784-33.783 0-18.659-15.126-33.784-33.784-33.784-18.659 0-33.784 15.125-33.784 33.784 0 18.658 15.125 33.783 33.784 33.783ZM89.298 150.569c6.683-6.683 6.683-17.517 0-24.199-6.682-6.682-17.516-6.682-24.198 0-6.682 6.682-6.682 17.516 0 24.199 6.682 6.682 17.516 6.682 24.198 0Z" fill="#fff"/><path d="M350.262 146.278c9.779-4.13 14.36-15.405 10.231-25.185s-15.405-14.361-25.184-10.231c-9.78 4.129-14.361 15.404-10.232 25.184 4.129 9.78 15.405 14.361 25.185 10.232ZM275.496 132.966c2.412-10.339-4.014-20.674-14.352-23.086-10.338-2.411-20.674 4.015-23.086 14.353-2.411 10.338 4.015 20.674 14.353 23.085 10.338 2.412 20.674-4.014 23.085-14.352Z" fill="#fff"/><path d="M256.79 128.611c16.755 0 30.337-13.583 30.337-30.337 0-16.755-13.582-30.337-30.337-30.337-16.754 0-30.336 13.582-30.336 30.337 0 16.754 13.582 30.337 30.336 30.337Z" fill="#fff"/><path style="mix-blend-mode:multiply" opacity=".26" d="M255.675 142.03c11.08-11.081 10.356-29.769-1.616-41.741-11.973-11.973-30.661-12.697-41.741-1.617-11.08 11.08-10.357 29.768 1.616 41.741 11.973 11.973 30.661 12.697 41.741 1.617Z" fill="url(#n)"/><path style="mix-blend-mode:multiply" opacity=".26" d="M335.392 127.299c11.08-11.08 10.357-29.768-1.616-41.74-11.973-11.973-30.661-12.697-41.741-1.617-11.08 11.08-10.356 29.768 1.616 41.741 11.973 11.973 30.661 12.696 41.741 1.616Z" fill="url(#o)"/><path d="M326.315 125.129c3.824-15.906-5.97-31.9-21.876-35.725-15.906-3.825-31.9 5.969-35.725 21.875-3.825 15.906 5.969 31.901 21.875 35.725 15.906 3.825 31.901-5.969 35.726-21.875ZM217.404 159.539c15.407 0 27.897-12.49 27.897-27.897 0-15.408-12.49-27.898-27.897-27.898-15.408 0-27.898 12.49-27.898 27.898 0 15.407 12.49 27.897 27.898 27.897Z" fill="#fff"/><defs><radialGradient id="a" cx="0" cy="0" r="1" gradientUnits="userSpaceOnUse" gradientTransform="rotate(-145.79 174.852 51.497) scale(51.7111 39.6852)"><stop offset="0" stop-opacity=".3"/><stop offset="1" stop-opacity="0"/></radialGradient><radialGradient id="b" cx="0" cy="0" r="1" gradientUnits="userSpaceOnUse" gradientTransform="rotate(-145.79 193.281 42.673) scale(52.6263 34.5034)"><stop offset="0" stop-opacity=".3"/><stop offset="1" stop-opacity="0"/></radialGradient><radialGradient id="c" cx="0" cy="0" r="1" gradientUnits="userSpaceOnUse" gradientTransform="matrix(-50.05725 -34.03164 18.25542 -26.85196 107.902 198.07)"><stop offset="0" stop-opacity=".3"/><stop offset="1" stop-opacity="0"/></radialGradient><radialGradient id="d" cx="0" cy="0" r="1" gradientUnits="userSpaceOnUse" gradientTransform="matrix(-31.29789 -31.29789 24.39759 -24.39759 281.967 166.159)"><stop offset="0" stop-opacity=".3"/><stop offset="1" stop-opacity="0"/></radialGradient><radialGradient id="e" cx="0" cy="0" r="1" gradientUnits="userSpaceOnUse" gradientTransform="matrix(-31.29789 -31.29789 24.39759 -24.39759 164.386 187.6)"><stop offset="0" stop-opacity=".3"/><stop offset="1" stop-opacity="0"/></radialGradient><radialGradient id="f" cx="0" cy="0" r="1" gradientUnits="userSpaceOnUse" gradientTransform="rotate(34.21 30.865 394.8) scale(35.0647 26.9101)"><stop offset="0" stop-opacity=".3"/><stop offset="1" stop-opacity="0"/></radialGradient><radialGradient id="g" cx="0" cy="0" r="1" gradientUnits="userSpaceOnUse" gradientTransform="rotate(34.21 11.424 354.194) scale(35.6853 23.3963)"><stop offset="0" stop-opacity=".3"/><stop offset="1" stop-opacity="0"/></radialGradient><radialGradient id="h" cx="0" cy="0" r="1" gradientUnits="userSpaceOnUse" gradientTransform="matrix(33.94325 23.07647 -12.3788 18.208 351.126 47.102)"><stop offset="0" stop-opacity=".3"/><stop offset="1" stop-opacity="0"/></radialGradient><radialGradient id="i" cx="0" cy="0" r="1" gradientUnits="userSpaceOnUse" gradientTransform="rotate(45 33.568 315.737) scale(30.0134 23.3963)"><stop offset="0" stop-opacity=".3"/><stop offset="1" stop-opacity="0"/></radialGradient><radialGradient id="j" cx="0" cy="0" r="1" gradientUnits="userSpaceOnUse" gradientTransform="rotate(45 90.984 404.713) scale(30.0134 23.3963)"><stop offset="0" stop-opacity=".3"/><stop offset="1" stop-opacity="0"/></radialGradient><radialGradient id="k" cx="0" cy="0" r="1" gradientUnits="userSpaceOnUse" gradientTransform="rotate(34.21 -49.025 419.385) scale(35.0647 26.9101)"><stop offset="0" stop-opacity=".3"/><stop offset="1" stop-opacity="0"/></radialGradient><radialGradient id="l" cx="0" cy="0" r="1" gradientUnits="userSpaceOnUse" gradientTransform="rotate(34.21 -68.466 378.779) scale(35.6853 23.3963)"><stop offset="0" stop-opacity=".3"/><stop offset="1" stop-opacity="0"/></radialGradient><radialGradient id="m" cx="0" cy="0" r="1" gradientUnits="userSpaceOnUse" gradientTransform="matrix(33.94325 23.07647 -12.3788 18.208 351.126 96.272)"><stop offset="0" stop-opacity=".3"/><stop offset="1" stop-opacity="0"/></radialGradient><radialGradient id="n" cx="0" cy="0" r="1" gradientUnits="userSpaceOnUse" gradientTransform="rotate(45 -25.785 340.322) scale(30.0134 23.3963)"><stop offset="0" stop-opacity=".3"/><stop offset="1" stop-opacity="0"/></radialGradient><radialGradient id="o" cx="0" cy="0" r="1" gradientUnits="userSpaceOnUse" gradientTransform="rotate(45 31.631 429.298) scale(30.0134 23.3963)"><stop offset="0" stop-opacity=".3"/><stop offset="1" stop-opacity="0"/></radialGradient></defs></svg>