<svg width="457" height="336" fill="none" xmlns="http://www.w3.org/2000/svg"><path style="mix-blend-mode:multiply" opacity=".73" d="M363.579 125.209c8.069-30.454-5.281-60.413-29.818-66.914-24.538-6.501-50.971 12.916-59.04 43.37-8.069 30.454 5.281 60.413 29.819 66.914 24.537 6.501 50.97-12.916 59.039-43.37Z" fill="url(#a)"/><path style="mix-blend-mode:multiply" opacity=".73" d="M327.044 134.379c25.204-3.019 42.598-30.825 38.852-62.106-3.747-31.281-27.216-54.193-52.42-51.174-25.204 3.019-42.599 30.824-38.852 62.106 3.747 31.281 27.216 54.192 52.42 51.174Z" fill="url(#b)"/><path style="mix-blend-mode:multiply" opacity=".37" d="M250.348 265.567c12.39-18.224 6.076-44.118-14.101-57.836-20.177-13.717-46.578-10.064-58.967 8.16-12.39 18.224-6.077 44.117 14.1 57.835 20.178 13.718 46.578 10.065 58.968-8.159Z" fill="url(#c)"/><path d="m302.011 129.589 9.074 105.841h-39.309l9.289-105.841h20.946Z" fill="#fff"/><path d="M304.889 141.12h-26.917l2.232-9.137h22.452l2.233 9.137Z" fill="url(#d)"/><path d="m322.759 81.314 17.252 10.249 11.755 54.005-22.004-28.056-15.754-2.95 8.751-33.248Z" fill="url(#e)"/><path d="m318.061 99.148 17.161 7.164 16.544 39.256-22.004-28.056-15.754-2.95 4.053-15.414Z" fill="#032D86" style="mix-blend-mode:multiply" opacity=".21"/><path d="m255.869 81.314-17.251 10.249-11.755 54.005 22.003-28.056 15.755-2.95-8.752-33.248Z" fill="url(#f)"/><path d="m260.559 99.148-17.153 7.164-16.543 39.256 22.003-28.056 15.755-2.95-4.062-15.414Z" fill="#032D86" style="mix-blend-mode:multiply" opacity=".21"/><path d="M316.922 33.191 290.175.266l-26.756 32.925-9.29 31.212v39.013l13.746 24.524 9.809 4.044h24.972l9.809-4.044 13.746-24.524V64.403l-9.289-31.212Z" fill="#fff"/><path d="m326.211 64.403-9.289-31.212-.305-.367h-52.893l-.305.367-9.29 31.212v39.014h72.082V64.403Z" fill="url(#g)"/><path d="m282.697 127.94-12.634-24.524-1.112-39.013 3.712-31.212L290.551.31l-27.132 32.88-9.29 31.212v39.013l13.746 24.524 9.809 4.043h12.491l-7.478-4.043Z" fill="#96CCCA" style="mix-blend-mode:multiply" opacity=".47"/><path d="M326.211 64.233h-72.082l8.823-31.41h53.665l9.594 31.41Z" fill="#96CCCA" style="mix-blend-mode:multiply" opacity=".13"/><path d="m297.787 127.94 12.634-24.524 1.112-39.013-5.945-31.212L290.82 1.198l26.245 31.993 9.29 31.212v39.013l-13.746 24.524-9.809 4.043h-12.482l7.469-4.043Z" fill="#96CCCA" style="mix-blend-mode:multiply" opacity=".47"/><path d="m267.463 127.195.412.745 9.81 4.043h24.971l9.81-4.043.412-.745h-45.415Z" fill="#96CCCA" style="mix-blend-mode:multiply" opacity=".66"/><path d="M302.656 131.983h-6.742l1.12 9.137h7.855l-2.233-9.137ZM280.141 131.983h6.743l-1.121 9.137h-7.854l2.232-9.137Z" fill="#96CCCA" style="mix-blend-mode:multiply" opacity=".47"/><path d="M290.318 100.296c9.087 0 16.454-7.366 16.454-16.453s-7.367-16.454-16.454-16.454-16.453 7.367-16.453 16.454 7.366 16.453 16.453 16.453Z" fill="#191B20"/><path d="M290.319 97.4c7.487 0 13.557-6.07 13.557-13.557 0-7.488-6.07-13.558-13.557-13.558-7.488 0-13.558 6.07-13.558 13.558 0 7.487 6.07 13.557 13.558 13.557Z" fill="#46484B"/><path d="M290.318 57.48a8.958 8.958 0 1 0 0-17.915 8.958 8.958 0 0 0 0 17.916Z" fill="#191B20"/><path d="M290.318 55.912a7.388 7.388 0 0 0 7.388-7.388 7.388 7.388 0 1 0-14.776 0 7.388 7.388 0 0 0 7.388 7.388Z" fill="#46484B"/><path d="M182.406 273.077c6.098-25.15-9.347-50.482-34.497-56.581-25.151-6.098-50.483 9.346-56.581 34.497-6.099 25.15 9.346 50.483 34.496 56.581 25.151 6.099 50.483-9.346 56.582-34.497Z" fill="#fff"/><path d="M118.901 295.831c5.324-22.077-8.256-44.29-30.333-49.615-22.077-5.325-44.29 8.256-49.615 30.333-5.325 22.077 8.255 44.29 30.332 49.615 22.078 5.325 44.291-8.256 49.616-30.333Z" fill="#fff"/><path style="mix-blend-mode:multiply" opacity=".37" d="M216.301 271.19c10.816-15.911 2.916-40.141-17.647-54.12-20.562-13.979-45.999-12.414-56.816 3.496s-2.916 40.14 17.646 54.119c20.562 13.98 46 12.415 56.817-3.495Z" fill="url(#h)"/><path d="M192.387 288.484c16.911 0 30.62-13.709 30.62-30.62s-13.709-30.621-30.62-30.621c-16.912 0-30.621 13.71-30.621 30.621 0 16.911 13.709 30.62 30.621 30.62Z" fill="#fff"/><path style="mix-blend-mode:multiply" opacity=".37" d="M407.589 264.009c10.115-14.878-.858-39.973-24.508-56.052-23.65-16.078-51.022-17.052-61.137-2.173-10.115 14.878.858 39.973 24.508 56.052 23.65 16.078 51.022 17.051 61.137 2.173Z" fill="url(#i)"/><path d="M333.026 265.476c16.911 0 30.62-13.709 30.62-30.62 0-16.912-13.709-30.621-30.62-30.621s-30.621 13.709-30.621 30.621c0 16.911 13.71 30.62 30.621 30.62Z" fill="#fff"/><path d="M370.667 274.443c13.034 0 23.6-10.566 23.6-23.6s-10.566-23.6-23.6-23.6-23.6 10.566-23.6 23.6 10.566 23.6 23.6 23.6Z" fill="#fff"/><path d="M415.23 335.738c22.909 0 41.479-18.571 41.479-41.479 0-22.908-18.57-41.479-41.479-41.479-22.908 0-41.479 18.571-41.479 41.479 0 22.908 18.571 41.479 41.479 41.479ZM45.413 303.338c8.204-8.204 8.204-21.506 0-29.71s-21.506-8.204-29.71 0c-8.205 8.204-8.205 21.506 0 29.71 8.204 8.205 21.506 8.205 29.71 0Z" fill="#fff"/><path d="M365.816 298.071c12.007-5.07 17.632-18.914 12.562-30.921-5.07-12.008-18.913-17.632-30.921-12.562-12.007 5.07-17.631 18.913-12.562 30.921 5.07 12.007 18.914 17.631 30.921 12.562ZM274.022 281.727c2.961-12.693-4.929-25.383-17.622-28.344-12.693-2.961-25.383 4.929-28.344 17.622-2.961 12.693 4.929 25.383 17.622 28.343 12.693 2.961 25.383-4.928 28.344-17.621Z" fill="#fff"/><path d="M251.054 276.38c20.571 0 37.247-16.676 37.247-37.247s-16.676-37.247-37.247-37.247c-20.57 0-37.246 16.676-37.246 37.247s16.676 37.247 37.246 37.247Z" fill="#fff"/><path style="mix-blend-mode:multiply" opacity=".26" d="M249.686 292.854c13.604-13.604 12.716-36.548-1.984-51.248-14.7-14.7-37.645-15.588-51.248-1.984-13.604 13.603-12.716 36.548 1.984 51.248 14.7 14.7 37.645 15.588 51.248 1.984Z" fill="url(#j)"/><path style="mix-blend-mode:multiply" opacity=".26" d="M347.56 274.769c13.604-13.604 12.716-36.549-1.984-51.248-14.7-14.7-37.644-15.589-51.248-1.985-13.604 13.604-12.716 36.549 1.984 51.248 14.7 14.7 37.645 15.589 51.248 1.985Z" fill="url(#k)"/><path d="M336.416 272.105c4.695-19.529-7.329-39.167-26.858-43.863-19.529-4.696-39.167 7.329-43.863 26.858-4.696 19.529 7.329 39.167 26.858 43.862 19.529 4.696 39.167-7.329 43.863-26.857ZM202.698 314.353c18.917 0 34.252-15.335 34.252-34.252s-15.335-34.252-34.252-34.252-34.252 15.335-34.252 34.252 15.335 34.252 34.252 34.252Z" fill="#fff"/><defs><radialGradient id="a" cx="0" cy="0" r="1" gradientUnits="userSpaceOnUse" gradientTransform="matrix(-14.22681 53.69451 -36.85807 -9.76586 316.892 119.627)"><stop offset="0" stop-opacity=".3"/><stop offset="1" stop-opacity="0"/></radialGradient><radialGradient id="b" cx="0" cy="0" r="1" gradientUnits="userSpaceOnUse" gradientTransform="rotate(83.17 113.667 222.165) scale(55.5473 38.1299)"><stop offset="0" stop-opacity=".3"/><stop offset="1" stop-opacity="0"/></radialGradient><radialGradient id="c" cx="0" cy="0" r="1" gradientUnits="userSpaceOnUse" gradientTransform="rotate(34.21 -284.798 469.795) scale(43.0514 33.0395)"><stop offset="0" stop-opacity=".3"/><stop offset="1" stop-opacity="0"/></radialGradient><radialGradient id="h" cx="0" cy="0" r="1" gradientUnits="userSpaceOnUse" gradientTransform="rotate(34.21 -308.668 419.94) scale(43.8134 28.7253)"><stop offset="0" stop-opacity=".3"/><stop offset="1" stop-opacity="0"/></radialGradient><radialGradient id="i" cx="0" cy="0" r="1" gradientUnits="userSpaceOnUse" gradientTransform="matrix(41.67454 28.33262 -15.1983 22.35524 366.877 236.675)"><stop offset="0" stop-opacity=".3"/><stop offset="1" stop-opacity="0"/></radialGradient><radialGradient id="j" cx="0" cy="0" r="1" gradientUnits="userSpaceOnUse" gradientTransform="matrix(26.05667 26.05667 -20.31185 20.31185 221.96 263.242)"><stop offset="0" stop-opacity=".3"/><stop offset="1" stop-opacity="0"/></radialGradient><radialGradient id="k" cx="0" cy="0" r="1" gradientUnits="userSpaceOnUse" gradientTransform="matrix(26.05667 26.05667 -20.31185 20.31185 319.852 245.392)"><stop offset="0" stop-opacity=".3"/><stop offset="1" stop-opacity="0"/></radialGradient><linearGradient id="d" x1="277.972" y1="136.552" x2="291.538" y2="150.01" gradientUnits="userSpaceOnUse"><stop stop-color="#D52274"/><stop offset=".563" stop-color="#F44D29"/><stop offset="1" stop-color="#FD7E14"/></linearGradient><linearGradient id="e" x1="314.008" y1="113.441" x2="350.343" y2="120.631" gradientUnits="userSpaceOnUse"><stop stop-color="#D52274"/><stop offset=".563" stop-color="#F44D29"/><stop offset="1" stop-color="#FD7E14"/></linearGradient><linearGradient id="f" x1="226.863" y1="113.441" x2="263.198" y2="120.631" gradientUnits="userSpaceOnUse"><stop stop-color="#D52274"/><stop offset=".563" stop-color="#F44D29"/><stop offset="1" stop-color="#FD7E14"/></linearGradient><linearGradient id="g" x1="254.129" y1="68.12" x2="318.59" y2="90.284" gradientUnits="userSpaceOnUse"><stop stop-color="#D52274"/><stop offset=".563" stop-color="#F44D29"/><stop offset="1" stop-color="#FD7E14"/></linearGradient></defs></svg>