<svg width="223" height="138" fill="none" xmlns="http://www.w3.org/2000/svg"><path style="mix-blend-mode:multiply" opacity=".73" d="M140.909 137.412c40.872 0 74.006-30.761 74.006-68.706C214.915 30.761 181.781 0 140.909 0S66.904 30.76 66.904 68.706c0 37.945 33.133 68.706 74.005 68.706Z" fill="url(#a)"/><path d="M37.85 43.314a37.578 37.578 0 0 1 15.915 3.51 43.865 43.865 0 0 1 85.256-7.389 37.896 37.896 0 0 1 40.822 22.35 25.812 25.812 0 0 1 37.905 26.703 25.803 25.803 0 0 1-17.943 20.608 25.812 25.812 0 0 1-26.398-7.056 37.87 37.87 0 0 1-33.059 12.392 37.865 37.865 0 0 1-28.91-20.266 43.933 43.933 0 0 1-36.777-3.912 37.882 37.882 0 0 1-74.45-5.063 37.88 37.88 0 0 1 37.673-41.877h-.033Z" fill="#fff"/><path d="M101.659 9.027a43.902 43.902 0 0 1 37.412 30.408 37.896 37.896 0 0 1 40.822 22.35 25.813 25.813 0 0 1 36.179 12.642 25.805 25.805 0 0 1-16.277 34.695 25.808 25.808 0 0 1-26.388-7.083 37.859 37.859 0 0 1-33.059 12.392 37.859 37.859 0 0 1-28.91-20.266 43.469 43.469 0 0 1-9.779 2.123V9.028Z" fill="#96CCCA" style="mix-blend-mode:multiply" opacity=".22"/><path style="mix-blend-mode:multiply" opacity=".73" d="M155.353 128.737c37.041 0 67.068-24.19 67.068-54.03 0-29.838-30.027-54.028-67.068-54.028-37.04 0-67.068 24.19-67.068 54.029 0 29.839 30.028 54.029 67.068 54.029Z" fill="url(#b)"/><path style="mix-blend-mode:multiply" opacity=".73" d="M59.114 123.52c31.317 0 56.704-22.138 56.704-49.448S90.431 24.624 59.114 24.624c-31.316 0-56.703 22.139-56.703 49.448 0 27.31 25.387 49.448 56.703 49.448Z" fill="url(#c)"/><path d="M54.902 43.313a23.922 23.922 0 0 1 12.387 3.51c2.24-21.464 16.533-38.03 33.868-38.03 15.279 0 28.218 12.872 32.581 30.642a23.258 23.258 0 0 1 4.714-.485c12.136 0 22.551 9.412 27.081 22.835a16.72 16.72 0 0 1 9.629-3.143c11.1 0 20.06 11.552 20.06 25.811 0 14.26-8.993 25.794-20.06 25.794a18.38 18.38 0 0 1-14.677-8.208c-5.4 7.774-13.273 12.688-22.033 12.688-11.434 0-21.33-8.358-26.245-20.561a27.317 27.317 0 0 1-11.05 2.357 28.586 28.586 0 0 1-17.603-6.185c-3.16 16.549-14.794 28.836-28.652 28.836-16.3 0-29.506-16.968-29.506-37.897 0-20.93 13.207-37.964 29.506-37.964Z" fill="#fff"/><path d="M104.601 9.027c13.758 1.772 25.075 13.992 29.137 30.408a23.25 23.25 0 0 1 4.714-.485c12.137 0 22.551 9.411 27.081 22.835a16.72 16.72 0 0 1 9.629-3.143c11.1 0 20.06 11.552 20.06 25.811 0 14.26-8.993 25.794-20.06 25.794a18.38 18.38 0 0 1-14.677-8.208c-5.4 7.773-13.273 12.688-22.033 12.688-11.434 0-21.33-8.358-26.245-20.562a27.252 27.252 0 0 1-7.606 2.123V9.028Z" fill="#96CCCA" style="mix-blend-mode:multiply" opacity=".18"/><defs><radialGradient id="a" cx="0" cy="0" r="1" gradientUnits="userSpaceOnUse" gradientTransform="matrix(72.489 0 0 57.0059 143.272 70.478)"><stop offset="0" stop-opacity=".3"/><stop offset="1" stop-opacity="0"/></radialGradient><radialGradient id="b" cx="0" cy="0" r="1" gradientUnits="userSpaceOnUse" gradientTransform="matrix(65.3122 0 0 44.8329 154.585 76.484)"><stop offset="0" stop-opacity=".3"/><stop offset="1" stop-opacity="0"/></radialGradient><radialGradient id="c" cx="0" cy="0" r="1" gradientUnits="userSpaceOnUse" gradientTransform="matrix(55.3493 0 0 40.9585 59.114 74.365)"><stop offset="0" stop-opacity=".3"/><stop offset="1" stop-opacity="0"/></radialGradient></defs></svg>