<svg width="60" height="60" viewBox="0 0 60 60" fill="none" xmlns="http://www.w3.org/2000/svg">
<path d="M12.5 54.9998H47.5C48.8261 54.9998 50.0979 54.473 51.0355 53.5354C51.9732 52.5977 52.5 51.3259 52.5 49.9998V22.4998C52.5 21.8368 52.2366 21.2009 51.7678 20.7321C51.2989 20.2632 50.663 19.9998 50 19.9998H42.5V18.0573C42.5 11.5348 37.7425 5.69482 31.25 5.06232C29.5122 4.8896 27.7575 5.08258 26.0987 5.62882C24.44 6.17507 22.9139 7.0625 21.6188 8.23401C20.3237 9.40552 19.2881 10.8352 18.5787 12.431C17.8694 14.0268 17.5019 15.7534 17.5 17.4998V19.9998H10C9.33696 19.9998 8.70107 20.2632 8.23223 20.7321C7.76339 21.2009 7.5 21.8368 7.5 22.4998V49.9998C7.5 51.3259 8.02678 52.5977 8.96447 53.5354C9.90215 54.473 11.1739 54.9998 12.5 54.9998ZM42.5 24.9998V29.9998H37.5V24.9998H42.5ZM22.5 17.4998C22.5 13.3648 25.865 9.99982 30 9.99982C34.135 9.99982 37.5 13.3648 37.5 17.4998V19.9998H22.5V17.4998ZM17.5 24.9998H22.5V29.9998H17.5V24.9998Z" fill="url(#paint0_linear_2209_10482)"/>
<defs>
<linearGradient id="paint0_linear_2209_10482" x1="7.5" y1="30.0004" x2="48.7144" y2="42.4912" gradientUnits="userSpaceOnUse">
<stop stop-color="#D52274"/>
<stop offset="0.5625" stop-color="#F44D29"/>
<stop offset="1" stop-color="#FD7E14"/>
</linearGradient>
</defs>
</svg>
