<svg width="16" height="16" viewBox="0 0 16 16" fill="none" xmlns="http://www.w3.org/2000/svg">
<path d="M6.66667 12.6665C6.5109 12.6669 6.35994 12.6126 6.24 12.5132C6.17249 12.4572 6.11669 12.3885 6.07579 12.3109C6.03489 12.2334 6.00969 12.1485 6.00164 12.0612C5.99359 11.9739 6.00284 11.8858 6.02887 11.8021C6.0549 11.7184 6.0972 11.6406 6.15333 11.5732L9.14 7.99988L6.26 4.41988C6.20462 4.35169 6.16327 4.27322 6.13831 4.189C6.11336 4.10477 6.1053 4.01644 6.11459 3.92909C6.12388 3.84174 6.15035 3.75708 6.19246 3.67999C6.23458 3.6029 6.29151 3.53489 6.36 3.47988C6.42898 3.41919 6.50975 3.37341 6.59726 3.34542C6.68477 3.31742 6.77712 3.30782 6.86851 3.31721C6.95991 3.3266 7.04838 3.35478 7.12837 3.39998C7.20835 3.44518 7.27814 3.50643 7.33333 3.57988L10.5533 7.57988C10.6514 7.69917 10.705 7.8488 10.705 8.00321C10.705 8.15763 10.6514 8.30726 10.5533 8.42655L7.22 12.4265C7.15312 12.5072 7.06816 12.571 6.97202 12.6127C6.87588 12.6544 6.77127 12.6728 6.66667 12.6665Z" fill="currentColor"/>
</svg>
