<svg width="64" height="64" viewBox="0 0 64 64" fill="none" xmlns="http://www.w3.org/2000/svg">
<path d="M32 58.6668C28.3555 58.6668 24.9111 57.9664 21.6666 56.5655C18.4222 55.1664 15.5893 53.2553 13.168 50.8322C10.7449 48.4108 8.83376 45.5779 7.43465 42.3335C6.03376 39.0891 5.33331 35.6446 5.33331 32.0002C5.33331 28.3113 6.03376 24.8562 7.43465 21.6348C8.83376 18.4117 10.7449 15.5895 13.168 13.1682C15.5893 10.7451 18.4222 8.83305 21.6666 7.43216C24.9111 6.03305 28.3555 5.3335 32 5.3335C32.8444 5.3335 33.6666 5.37794 34.4666 5.46683C35.2666 5.55572 36.0666 5.66683 36.8666 5.80016V20.6668C36.3333 18.8446 35.6551 17.1219 34.832 15.4988C34.0106 13.8775 33.0666 12.3113 32 10.8002C30.8444 12.4002 29.8444 14.0668 29 15.8002C28.1555 17.5335 27.4666 19.3779 26.9333 21.3335H36.8666V26.6668H25.7333C25.6 27.5557 25.5004 28.4339 25.4346 29.3015C25.3671 30.1673 25.3333 31.0668 25.3333 32.0002C25.3333 32.9335 25.3671 33.833 25.4346 34.6988C25.5004 35.5664 25.6 36.4446 25.7333 37.3335H38.2666C38.4 36.4446 38.5004 35.5664 38.568 34.6988C38.6338 33.833 38.6666 32.9335 38.6666 32.0002C38.6666 31.0668 38.6338 30.1673 38.568 29.3015C38.5004 28.4339 38.4 27.5557 38.2666 26.6668H43.6C43.7333 27.5557 43.8329 28.4339 43.8986 29.3015C43.9662 30.1673 44 31.0668 44 32.0002C44 32.9335 43.9662 33.833 43.8986 34.6988C43.8329 35.5664 43.7333 36.4446 43.6 37.3335H52.6666C52.8889 36.4446 53.056 35.5664 53.168 34.6988C53.2782 33.833 53.3333 32.9335 53.3333 32.0002C53.3333 31.0668 53.2782 30.1673 53.168 29.3015C53.056 28.4339 52.8889 27.5557 52.6666 26.6668H58.1333C58.3111 27.5557 58.4444 28.4446 58.5333 29.3335C58.6222 30.2224 58.6666 31.1113 58.6666 32.0002C58.6666 35.6446 57.9662 39.0891 56.5653 42.3335C55.1662 45.5779 53.2551 48.4108 50.832 50.8322C48.4106 53.2553 45.5884 55.1664 42.3653 56.5655C39.144 57.9664 35.6889 58.6668 32 58.6668ZM11.3333 37.3335H20.4C20.2666 36.4446 20.1662 35.5664 20.0986 34.6988C20.0329 33.833 20 32.9335 20 32.0002C20 31.0668 20.0329 30.1673 20.0986 29.3015C20.1662 28.4339 20.2666 27.5557 20.4 26.6668H11.3333C11.1111 27.5557 10.944 28.4339 10.832 29.3015C10.7218 30.1673 10.6666 31.0668 10.6666 32.0002C10.6666 32.9335 10.7218 33.833 10.832 34.6988C10.944 35.5664 11.1111 36.4446 11.3333 37.3335ZM25.0666 52.1335C24.2666 50.6668 23.5671 49.1442 22.968 47.5655C22.3671 45.9886 21.8666 44.3557 21.4666 42.6668H13.6C14.8889 44.889 16.4995 46.8224 18.432 48.4668C20.3662 50.1113 22.5778 51.3335 25.0666 52.1335ZM13.6 21.3335H21.4666C21.8666 19.6446 22.3671 18.0108 22.968 16.4322C23.5671 14.8553 24.2666 13.3335 25.0666 11.8668C22.5778 12.6668 20.3662 13.8891 18.432 15.5335C16.4995 17.1779 14.8889 19.1113 13.6 21.3335ZM32 53.2002C33.1555 51.6002 34.1555 49.9335 35 48.2002C35.8444 46.4668 36.5333 44.6224 37.0666 42.6668H26.9333C27.4666 44.6224 28.1555 46.4668 29 48.2002C29.8444 49.9335 30.8444 51.6002 32 53.2002ZM38.9333 52.1335C41.4222 51.3335 43.6329 50.1113 45.5653 48.4668C47.4995 46.8224 49.1111 44.889 50.4 42.6668H42.5333C42.1333 44.3557 41.6338 45.9886 41.0346 47.5655C40.4338 49.1442 39.7333 50.6668 38.9333 52.1335ZM42.6666 21.3335V5.3335H58.6666V21.3335H42.6666ZM50.6666 13.3335H56V8.00016H50.6666V13.3335Z" fill="url(#paint0_linear_2209_10028)"/>
<defs>
<linearGradient id="paint0_linear_2209_10028" x1="5.33331" y1="32.0002" x2="53.2351" y2="48.1303" gradientUnits="userSpaceOnUse">
<stop stop-color="#D52274"/>
<stop offset="0.5625" stop-color="#F44D29"/>
<stop offset="1" stop-color="#FD7E14"/>
</linearGradient>
</defs>
</svg>
