<svg width="80" height="80" viewBox="0 0 80 80" fill="none" xmlns="http://www.w3.org/2000/svg">
<path d="M13.3333 66.6666C11.5 66.6666 9.9311 66.0144 8.62666 64.7099C7.31999 63.4033 6.66666 61.8333 6.66666 59.9999V19.9999C6.66666 18.1666 7.31999 16.5977 8.62666 15.2933C9.9311 13.9866 11.5 13.3333 13.3333 13.3333H66.6667C68.5 13.3333 70.07 13.9866 71.3767 15.2933C72.6811 16.5977 73.3333 18.1666 73.3333 19.9999V45.9999C71.8333 45.111 70.2355 44.4444 68.54 43.9999C66.8467 43.5555 65.1111 43.3333 63.3333 43.3333C57.7778 43.3333 53.0555 45.2777 49.1667 49.1666C45.2778 53.0555 43.3333 57.7777 43.3333 63.3333V66.6666H13.3333ZM40 36.6666L17.6667 22.6666C16.6111 22.0555 15.6244 22.041 14.7067 22.6233C13.7911 23.2077 13.3333 24.0277 13.3333 25.0833C13.3333 25.6388 13.4444 26.111 13.6667 26.4999C13.8889 26.8888 14.2222 27.2221 14.6667 27.4999L38.25 42.2499C38.8055 42.5833 39.3889 42.7499 40 42.7499C40.6111 42.7499 41.1944 42.5833 41.75 42.2499L65.3333 27.4999C65.7778 27.2221 66.1111 26.8888 66.3333 26.4999C66.5555 26.111 66.6667 25.6388 66.6667 25.0833C66.6667 24.0833 66.2222 23.2777 65.3333 22.6666C64.4444 22.0555 63.4444 22.0555 62.3333 22.6666L40 36.6666ZM63.9167 66.6666H53.3333C52.3889 66.6666 51.5978 66.3466 50.96 65.7066C50.32 65.0688 50 64.2777 50 63.3333C50 62.3888 50.32 61.5977 50.96 60.9599C51.5978 60.3199 52.3889 59.9999 53.3333 59.9999H63.9167L60.9167 56.9999C60.25 56.3333 59.9311 55.5555 59.96 54.6666C59.9867 53.7777 60.3333 52.9999 61 52.3333C61.6667 51.7221 62.4444 51.4021 63.3333 51.3732C64.2222 51.3466 65 51.6666 65.6667 52.3333L74.3333 60.9999C75 61.6666 75.3333 62.4444 75.3333 63.3333C75.3333 64.2221 75 64.9999 74.3333 65.6666L65.6667 74.3332C65.0555 74.9444 64.2922 75.2632 63.3767 75.2899C62.4589 75.3188 61.6667 74.9999 61 74.3332C60.3889 73.7221 60.0833 72.9444 60.0833 71.9999C60.0833 71.0555 60.3889 70.2777 61 69.6666L63.9167 66.6666Z" fill="url(#paint0_linear_2237_10664)"/>
<defs>
<linearGradient id="paint0_linear_2237_10664" x1="6.66666" y1="44.3125" x2="66.939" y2="66.8057" gradientUnits="userSpaceOnUse">
<stop stop-color="#D52274"/>
<stop offset="0.5625" stop-color="#F44D29"/>
<stop offset="1" stop-color="#FD7E14"/>
</linearGradient>
</defs>
</svg>
