<svg width="64" height="64" viewBox="0 0 64 64" fill="none" xmlns="http://www.w3.org/2000/svg">
<path d="M53.3333 58.6668H10.6667C9.95942 58.6668 9.28115 58.3859 8.78105 57.8858C8.28095 57.3857 8 56.7074 8 56.0002V8.00016C8 7.29292 8.28095 6.61464 8.78105 6.11454C9.28115 5.61445 9.95942 5.3335 10.6667 5.3335H53.3333C54.0406 5.3335 54.7189 5.61445 55.219 6.11454C55.7191 6.61464 56 7.29292 56 8.00016V56.0002C56 56.7074 55.7191 57.3857 55.219 57.8858C54.7189 58.3859 54.0406 58.6668 53.3333 58.6668ZM50.6667 53.3335V10.6668H13.3333V53.3335H50.6667ZM21.3333 24.0002H42.6667V29.3335H21.3333V24.0002ZM21.3333 34.6668H42.6667V40.0002H21.3333V34.6668Z" fill="url(#paint0_linear_2209_10030)"/>
<defs>
<linearGradient id="paint0_linear_2209_10030" x1="8" y1="32.0002" x2="51.9622" y2="45.3234" gradientUnits="userSpaceOnUse">
<stop stop-color="#D52274"/>
<stop offset="0.5625" stop-color="#F44D29"/>
<stop offset="1" stop-color="#FD7E14"/>
</linearGradient>
</defs>
</svg>
