<svg width="25" height="24" viewBox="0 0 25 24" fill="none" xmlns="http://www.w3.org/2000/svg">
<path d="M3.25 3.25L5.33 3.61L6.293 15.083C6.37 16.02 7.153 16.739 8.093 16.736H19.002C19.899 16.738 20.66 16.078 20.787 15.19L21.736 8.632C21.842 7.899 21.333 7.219 20.601 7.113C20.537 7.104 5.664 7.099 5.664 7.099" stroke="currentColor" stroke-width="1.5" stroke-linecap="round" stroke-linejoin="round"/>
<path d="M14.625 10.7949H17.398" stroke="currentColor" stroke-width="1.5" stroke-linecap="round" stroke-linejoin="round"/>
<path fill-rule="evenodd" clip-rule="evenodd" d="M7.65435 20.2026C7.95535 20.2026 8.19835 20.4466 8.19835 20.7466C8.19835 21.0476 7.95535 21.2916 7.65435 21.2916C7.35335 21.2916 7.11035 21.0476 7.11035 20.7466C7.11035 20.4466 7.35335 20.2026 7.65435 20.2026Z" fill="currentColor" stroke="currentColor" stroke-width="1.5" stroke-linecap="round" stroke-linejoin="round"/>
<path fill-rule="evenodd" clip-rule="evenodd" d="M18.9346 20.2026C19.2356 20.2026 19.4796 20.4466 19.4796 20.7466C19.4796 21.0476 19.2356 21.2916 18.9346 21.2916C18.6336 21.2916 18.3906 21.0476 18.3906 20.7466C18.3906 20.4466 18.6336 20.2026 18.9346 20.2026Z" fill="currentColor" stroke="currentColor" stroke-width="1.5" stroke-linecap="round" stroke-linejoin="round"/>
</svg>
