<svg width="32" height="32" viewBox="0 0 32 32" fill="none" xmlns="http://www.w3.org/2000/svg">
<path fill-rule="evenodd" clip-rule="evenodd" d="M16.0001 29.3327C23.3641 29.3327 29.3334 23.3633 29.3334 15.9993C29.3334 8.63535 23.3641 2.66602 16.0001 2.66602C8.63608 2.66602 2.66675 8.63535 2.66675 15.9993C2.66675 23.3633 8.63608 29.3327 16.0001 29.3327ZM20.7147 11.2847C20.9651 11.0347 21.3045 10.8944 21.6584 10.8946C22.0122 10.8949 22.3514 11.0357 22.6014 11.286C22.8514 11.5364 22.9917 11.8758 22.9915 12.2296C22.9912 12.5834 22.8504 12.9227 22.6001 13.1727L15.0627 20.71L15.0574 20.7153C14.9339 20.8396 14.787 20.9382 14.6252 21.0055C14.4634 21.0728 14.29 21.1074 14.1147 21.1074C13.9395 21.1074 13.7661 21.0728 13.6043 21.0055C13.4425 20.9382 13.2956 20.8396 13.1721 20.7153L13.1667 20.71L9.40008 16.9433C9.27273 16.8204 9.17116 16.6732 9.10128 16.5106C9.0314 16.3479 8.99462 16.1729 8.99308 15.9959C8.99154 15.8188 9.02528 15.6433 9.09232 15.4794C9.15936 15.3155 9.25836 15.1667 9.38355 15.0415C9.50874 14.9163 9.65761 14.8173 9.82148 14.7503C9.98534 14.6832 10.1609 14.6495 10.3379 14.651C10.515 14.6526 10.6899 14.6893 10.8526 14.7592C11.0153 14.8291 11.1624 14.9307 11.2854 15.058L14.1147 17.886L20.7147 11.286V11.2847Z" fill="currentColor"/>
</svg>
