<svg width="120" height="120" viewBox="0 0 120 120" fill="none" xmlns="http://www.w3.org/2000/svg">
<path d="M112.5 52.5C111.93 52.1708 111.283 51.9976 110.625 51.9976C109.967 51.9976 109.32 52.1708 108.75 52.5L60 80.0625L11.25 52.5C10.6788 52.1702 10.0308 51.9969 9.37126 51.9976C8.71173 51.9982 8.06404 52.1728 7.49353 52.5037C6.92301 52.8346 6.44986 53.3101 6.1218 53.8823C5.79374 54.4544 5.62237 55.103 5.625 55.7625V88.125C5.625 91.1087 6.81026 93.9702 8.92005 96.0799C11.0298 98.1897 13.8913 99.375 16.875 99.375H103.125C106.109 99.375 108.97 98.1897 111.08 96.0799C113.19 93.9702 114.375 91.1087 114.375 88.125V55.7812C114.381 55.1173 114.21 54.4636 113.881 53.8871C113.552 53.3106 113.075 52.8319 112.5 52.5Z" fill="url(#paint0_linear_2504_13554)"/>
<path d="M103.125 20.625H16.875C13.8913 20.625 11.0298 21.8103 8.92005 23.92C6.81026 26.0298 5.625 28.8913 5.625 31.875V38.9063C5.62238 39.567 5.7944 40.2168 6.12367 40.7897C6.45293 41.3626 6.92773 41.8384 7.5 42.1688L58.125 70.7625C58.6951 71.0916 59.3417 71.2649 60 71.2649C60.6583 71.2649 61.3049 71.0916 61.875 70.7625L112.5 42.1688C113.072 41.8384 113.547 41.3626 113.876 40.7897C114.206 40.2168 114.378 39.567 114.375 38.9063V31.875C114.375 28.8913 113.19 26.0298 111.08 23.92C108.97 21.8103 106.109 20.625 103.125 20.625Z" fill="url(#paint1_linear_2504_13554)"/>
<defs>
<linearGradient id="paint0_linear_2504_13554" x1="5.62497" y1="75.6863" x2="73.7028" y2="128.306" gradientUnits="userSpaceOnUse">
<stop stop-color="#D52274"/>
<stop offset="0.5625" stop-color="#F44D29"/>
<stop offset="1" stop-color="#FD7E14"/>
</linearGradient>
<linearGradient id="paint1_linear_2504_13554" x1="5.62497" y1="45.945" x2="77.0331" y2="97.5833" gradientUnits="userSpaceOnUse">
<stop stop-color="#D52274"/>
<stop offset="0.5625" stop-color="#F44D29"/>
<stop offset="1" stop-color="#FD7E14"/>
</linearGradient>
</defs>
</svg>
