<svg width="24" height="24" viewBox="0 0 24 24" fill="none" xmlns="http://www.w3.org/2000/svg">
<path d="M7.25024 16.75L17.2502 16.75C18.5763 16.75 19.8481 16.2232 20.7858 15.2855C21.7235 14.3479 22.2502 13.0761 22.2502 11.75C22.2502 10.4239 21.7235 9.15215 20.7858 8.21447C19.8481 7.27678 18.5763 6.75 17.2502 6.75L7.25025 6.75C5.92416 6.75 4.65239 7.27678 3.71471 8.21446C2.77703 9.15215 2.25024 10.4239 2.25024 11.75C2.25024 13.0761 2.77703 14.3479 3.71471 15.2855C4.65239 16.2232 5.92416 16.75 7.25024 16.75ZM7.25024 8.75C8.04589 8.75 8.80896 9.06607 9.37157 9.62868C9.93417 10.1913 10.2502 10.9543 10.2502 11.75C10.2502 12.5456 9.93417 13.3087 9.37157 13.8713C8.80896 14.4339 8.04589 14.75 7.25024 14.75C6.45459 14.75 5.69153 14.4339 5.12892 13.8713C4.56631 13.3087 4.25024 12.5456 4.25024 11.75C4.25024 10.9543 4.56632 10.1913 5.12892 9.62868C5.69153 9.06607 6.4546 8.75 7.25024 8.75Z" fill="currentColor"/>
</svg>
