<svg width="32" height="32" viewBox="0 0 32 32" fill="none" xmlns="http://www.w3.org/2000/svg">
<path d="M16 2.66602C19.6814 2.66602 23.0151 4.15865 25.4279 6.57151C27.8408 8.98422 29.3334 12.3181 29.3334 15.9993C29.3334 19.6811 27.8409 23.0143 25.4279 25.4272C23.0151 27.84 19.6814 29.3327 16 29.3327C12.3183 29.3327 8.98496 27.8402 6.57224 25.4272C4.15908 23.0143 2.66675 19.6811 2.66675 15.9993C2.66675 12.3181 4.15938 8.98422 6.57224 6.57151C8.98496 4.15835 12.3183 2.66602 16 2.66602ZM23.8548 8.14465C21.8448 6.13479 19.0676 4.89147 16 4.89147C12.9323 4.89147 10.1551 6.13479 8.14539 8.14465C6.13552 10.1545 4.89221 12.9318 4.89221 15.9993C4.89221 19.0672 6.13552 21.8443 8.14539 23.854C10.1551 25.8639 12.9323 27.1071 16 27.1071C19.0676 27.1071 21.8448 25.8639 23.8548 23.854C25.8646 21.8443 27.1078 19.0672 27.1078 15.9993C27.1078 12.9318 25.8646 10.1545 23.8548 8.14465Z" fill="currentColor"/>
</svg>
