<svg width="32" height="32" viewBox="0 0 32 32" fill="none" xmlns="http://www.w3.org/2000/svg">
<path d="M24 22.1412L22.2147 20.4252C21.7907 19.9642 21.2645 19.6092 20.6782 19.3888C20.092 19.1684 19.4623 19.0887 18.8396 19.1561C18.217 19.2236 17.6189 19.4363 17.0935 19.7771C16.5681 20.118 16.13 20.5774 15.8147 21.1185L10.5867 29.3332H5.33332C4.62608 29.3332 3.9478 29.0522 3.44771 28.5521C2.94761 28.052 2.66666 27.3737 2.66666 26.6665V13.3332C2.66666 12.6259 2.94761 11.9476 3.44771 11.4476C3.9478 10.9475 4.62608 10.6665 5.33332 10.6665H21.3333C22.0406 10.6665 22.7188 10.9475 23.2189 11.4476C23.719 11.9476 24 12.6259 24 13.3332V22.1412ZM24 25.8105V26.6665C24 27.3737 23.719 28.052 23.2189 28.5521C22.7188 29.0522 22.0406 29.3332 21.3333 29.3332H14.016L18.1187 22.4612C18.2237 22.2808 18.3697 22.1275 18.5448 22.0138C18.7198 21.9001 18.9192 21.8291 19.1267 21.8066C19.3343 21.784 19.5442 21.8105 19.7397 21.8839C19.9351 21.9573 20.1106 22.0755 20.252 22.2292L24 25.8105ZM10.6667 22.6665C11.7275 22.6665 12.7449 22.2451 13.4951 21.4949C14.2452 20.7448 14.6667 19.7274 14.6667 18.6665C14.6667 17.6056 14.2452 16.5882 13.4951 15.8381C12.7449 15.0879 11.7275 14.6665 10.6667 14.6665C9.60579 14.6665 8.58837 15.0879 7.83823 15.8381C7.08808 16.5882 6.66666 17.6056 6.66666 18.6665C6.66666 19.7274 7.08808 20.7448 7.83823 21.4949C8.58837 22.2451 9.60579 22.6665 10.6667 22.6665V22.6665ZM7.99999 9.33317V5.33317C7.99999 4.62593 8.28094 3.94765 8.78104 3.44755C9.28113 2.94746 9.95941 2.6665 10.6667 2.6665H26.6667C27.3739 2.6665 28.0522 2.94746 28.5523 3.44755C29.0524 3.94765 29.3333 4.62593 29.3333 5.33317V14.3465L27.548 12.4252C26.8913 11.7104 25.9971 11.2588 25.032 11.1545C24.544 10.0758 23.52 9.33317 22.3333 9.33317H19.7733C19.4979 8.55246 18.987 7.87642 18.3112 7.39822C17.6354 6.92003 16.8279 6.66324 16 6.66324C15.1721 6.66324 14.3646 6.92003 13.6888 7.39822C13.013 7.87642 12.5021 8.55246 12.2267 9.33317H7.99999ZM25.3333 21.3332V14.0158C25.4258 14.0762 25.5105 14.1479 25.5853 14.2292L29.3333 18.2145V18.6665C29.3333 19.3737 29.0524 20.052 28.5523 20.5521C28.0522 21.0522 27.3739 21.3332 26.6667 21.3332H25.3333Z" fill="url(#paint0_linear_2242_9724)"/>
<defs>
<linearGradient id="paint0_linear_2242_9724" x1="2.66666" y1="15.9998" x2="26.6175" y2="24.0649" gradientUnits="userSpaceOnUse">
<stop stop-color="#D52274"/>
<stop offset="0.5625" stop-color="#F44D29"/>
<stop offset="1" stop-color="#FD7E14"/>
</linearGradient>
</defs>
</svg>
