<svg width="24" height="24" viewBox="0 0 24 24" fill="none" xmlns="http://www.w3.org/2000/svg">
<path fill-rule="evenodd" clip-rule="evenodd" d="M16.5 4.5H15.75V3C15.75 2.80109 15.671 2.61032 15.5303 2.46967C15.3897 2.32902 15.1989 2.25 15 2.25C14.8011 2.25 14.6103 2.32902 14.4697 2.46967C14.329 2.61032 14.25 2.80109 14.25 3V4.5H13.5V3C13.5 2.80109 13.421 2.61032 13.2803 2.46967C13.1397 2.32902 12.9489 2.25 12.75 2.25C12.5511 2.25 12.3603 2.32902 12.2197 2.46967C12.079 2.61032 12 2.80109 12 3V4.5H11.25V3C11.25 2.80109 11.171 2.61032 11.0303 2.46967C10.8897 2.32902 10.6989 2.25 10.5 2.25C10.3011 2.25 10.1103 2.32902 9.96967 2.46967C9.82902 2.61032 9.75 2.80109 9.75 3V4.5H9V3C9 2.80109 8.92098 2.61032 8.78033 2.46967C8.63968 2.32902 8.44891 2.25 8.25 2.25C8.05109 2.25 7.86032 2.32902 7.71967 2.46967C7.57902 2.61032 7.5 2.80109 7.5 3V4.5H6.75V3C6.75 2.80109 6.67098 2.61032 6.53033 2.46967C6.38968 2.32902 6.19891 2.25 6 2.25C5.80109 2.25 5.61032 2.32902 5.46967 2.46967C5.32902 2.61032 5.25 2.80109 5.25 3V4.701C5.02164 4.83219 4.83219 5.02164 4.701 5.25H3C2.80109 5.25 2.61032 5.32902 2.46967 5.46967C2.32902 5.61032 2.25 5.80109 2.25 6C2.25 6.19891 2.32902 6.38968 2.46967 6.53033C2.61032 6.67098 2.80109 6.75 3 6.75H4.5V7.5H3C2.80109 7.5 2.61032 7.57902 2.46967 7.71967C2.32902 7.86032 2.25 8.05109 2.25 8.25C2.25 8.44891 2.32902 8.63968 2.46967 8.78033C2.61032 8.92098 2.80109 9 3 9H4.5V9.75H3C2.80109 9.75 2.61032 9.82902 2.46967 9.96967C2.32902 10.1103 2.25 10.3011 2.25 10.5C2.25 10.6989 2.32902 10.8897 2.46967 11.0303C2.61032 11.171 2.80109 11.25 3 11.25H4.5V12H3C2.80109 12 2.61032 12.079 2.46967 12.2197C2.32902 12.3603 2.25 12.5511 2.25 12.75C2.25 12.9489 2.32902 13.1397 2.46967 13.2803C2.61032 13.421 2.80109 13.5 3 13.5H4.5V14.25H3C2.80109 14.25 2.61032 14.329 2.46967 14.4697C2.32902 14.6103 2.25 14.8011 2.25 15C2.25 15.1989 2.32902 15.3897 2.46967 15.5303C2.61032 15.671 2.80109 15.75 3 15.75H4.5V16.5H3C2.80109 16.5 2.61032 16.579 2.46967 16.7197C2.32902 16.8603 2.25 17.0511 2.25 17.25C2.25 17.4489 2.32902 17.6397 2.46967 17.7803C2.61032 17.921 2.80109 18 3 18H4.5C4.50001 18.2633 4.56932 18.522 4.70097 18.75C4.83262 18.978 5.02198 19.1674 5.25 19.299V21C5.25 21.1989 5.32902 21.3897 5.46967 21.5303C5.61032 21.671 5.80109 21.75 6 21.75C6.19891 21.75 6.38968 21.671 6.53033 21.5303C6.67098 21.3897 6.75 21.1989 6.75 21V19.5H7.5V21C7.5 21.1989 7.57902 21.3897 7.71967 21.5303C7.86032 21.671 8.05109 21.75 8.25 21.75C8.44891 21.75 8.63968 21.671 8.78033 21.5303C8.92098 21.3897 9 21.1989 9 21V19.5H9.75V21C9.75 21.1989 9.82902 21.3897 9.96967 21.5303C10.1103 21.671 10.3011 21.75 10.5 21.75C10.6989 21.75 10.8897 21.671 11.0303 21.5303C11.171 21.3897 11.25 21.1989 11.25 21V19.5H12V21C12 21.1989 12.079 21.3897 12.2197 21.5303C12.3603 21.671 12.5511 21.75 12.75 21.75C12.9489 21.75 13.1397 21.671 13.2803 21.5303C13.421 21.3897 13.5 21.1989 13.5 21V19.5H14.25V21C14.25 21.1989 14.329 21.3897 14.4697 21.5303C14.6103 21.671 14.8011 21.75 15 21.75C15.1989 21.75 15.3897 21.671 15.5303 21.5303C15.671 21.3897 15.75 21.1989 15.75 21V19.5H16.5V21C16.5 21.1989 16.579 21.3897 16.7197 21.5303C16.8603 21.671 17.0511 21.75 17.25 21.75C17.4489 21.75 17.6397 21.671 17.7803 21.5303C17.921 21.3897 18 21.1989 18 21V19.5C18.3325 19.4999 18.6555 19.3894 18.9183 19.1857C19.1812 18.9821 19.3689 18.6969 19.452 18.375H21C21.1989 18.375 21.3897 18.296 21.5303 18.1553C21.671 18.0147 21.75 17.8239 21.75 17.625C21.75 17.4261 21.671 17.2353 21.5303 17.0947C21.3897 16.954 21.1989 16.875 21 16.875H19.5V16.125H21C21.1989 16.125 21.3897 16.046 21.5303 15.9053C21.671 15.7647 21.75 15.5739 21.75 15.375C21.75 15.1761 21.671 14.9853 21.5303 14.8447C21.3897 14.704 21.1989 14.625 21 14.625H19.5V13.875H21C21.1989 13.875 21.3897 13.796 21.5303 13.6553C21.671 13.5147 21.75 13.3239 21.75 13.125C21.75 12.9261 21.671 12.7353 21.5303 12.5947C21.3897 12.454 21.1989 12.375 21 12.375H19.5V11.625H21C21.1989 11.625 21.3897 11.546 21.5303 11.4053C21.671 11.2647 21.75 11.0739 21.75 10.875C21.75 10.6761 21.671 10.4853 21.5303 10.3447C21.3897 10.204 21.1989 10.125 21 10.125H19.5V9.375H21C21.1989 9.375 21.3897 9.29598 21.5303 9.15533C21.671 9.01468 21.75 8.82391 21.75 8.625C21.75 8.42609 21.671 8.23532 21.5303 8.09467C21.3897 7.95402 21.1989 7.875 21 7.875H19.5V7.125H21C21.1989 7.125 21.3897 7.04598 21.5303 6.90533C21.671 6.76468 21.75 6.57391 21.75 6.375C21.75 6.17609 21.671 5.98532 21.5303 5.84467C21.3897 5.70402 21.1989 5.625 21 5.625H19.452C19.3689 5.30308 19.1812 5.01789 18.9183 4.81426C18.6555 4.61062 18.3325 4.50008 18 4.5V3C18 2.80109 17.921 2.61032 17.7803 2.46967C17.6397 2.32902 17.4489 2.25 17.25 2.25C17.0511 2.25 16.8603 2.32902 16.7197 2.46967C16.579 2.61032 16.5 2.80109 16.5 3V4.5ZM18 6H6V18H18V6Z" fill="currentColor"/>
<path fill-rule="evenodd" clip-rule="evenodd" d="M16.5 15V9C16.5 8.60218 16.342 8.22064 16.0607 7.93934C15.7794 7.65804 15.3978 7.5 15 7.5H9C8.60218 7.5 8.22064 7.65804 7.93934 7.93934C7.65804 8.22064 7.5 8.60218 7.5 9V15C7.5 15.3978 7.65804 15.7794 7.93934 16.0607C8.22064 16.342 8.60218 16.5 9 16.5H15C15.3978 16.5 15.7794 16.342 16.0607 16.0607C16.342 15.7794 16.5 15.3978 16.5 15ZM15 15H9V9H15V15Z" fill="currentColor"/>
</svg>
