<svg width="22" height="22" viewBox="0 0 22 22" fill="none" xmlns="http://www.w3.org/2000/svg">
<path d="M19.25 0.5H2.75C2.15326 0.5 1.58097 0.737053 1.15901 1.15901C0.737053 1.58097 0.5 2.15326 0.5 2.75V19.25C0.5 19.8467 0.737053 20.419 1.15901 20.841C1.58097 21.2629 2.15326 21.5 2.75 21.5H19.25C19.8467 21.5 20.419 21.2629 20.841 20.841C21.2629 20.419 21.5 19.8467 21.5 19.25V2.75C21.5 2.15326 21.2629 1.58097 20.841 1.15901C20.419 0.737053 19.8467 0.5 19.25 0.5ZM2.75 2H19.25C19.4489 2 19.6397 2.07902 19.7803 2.21967C19.921 2.36032 20 2.55109 20 2.75V6.5H2V2.75C2 2.55109 2.07902 2.36032 2.21967 2.21967C2.36032 2.07902 2.55109 2 2.75 2ZM19.25 20H2.75C2.55109 20 2.36032 19.921 2.21967 19.7803C2.07902 19.6397 2 19.4489 2 19.25V8H20V19.25C20 19.4489 19.921 19.6397 19.7803 19.7803C19.6397 19.921 19.4489 20 19.25 20Z" fill="currentColor"/>
<path d="M13.25 5H14C14.1989 5 14.3897 4.92098 14.5303 4.78033C14.671 4.63968 14.75 4.44891 14.75 4.25C14.75 4.05109 14.671 3.86032 14.5303 3.71967C14.3897 3.57902 14.1989 3.5 14 3.5H13.25C13.0511 3.5 12.8603 3.57902 12.7197 3.71967C12.579 3.86032 12.5 4.05109 12.5 4.25C12.5 4.44891 12.579 4.63968 12.7197 4.78033C12.8603 4.92098 13.0511 5 13.25 5ZM17 5H17.75C17.9489 5 18.1397 4.92098 18.2803 4.78033C18.421 4.63968 18.5 4.44891 18.5 4.25C18.5 4.05109 18.421 3.86032 18.2803 3.71967C18.1397 3.57902 17.9489 3.5 17.75 3.5H17C16.8011 3.5 16.6103 3.57902 16.4697 3.71967C16.329 3.86032 16.25 4.05109 16.25 4.25C16.25 4.44891 16.329 4.63968 16.4697 4.78033C16.6103 4.92098 16.8011 5 17 5Z" fill="currentColor"/>
<path d="M11.0002 10.25C9.40941 10.2518 7.88432 10.8845 6.75949 12.0093C5.63466 13.1342 5.00195 14.6592 5.00016 16.25C4.99774 16.5479 5.02285 16.8454 5.07516 17.1387C5.10585 17.3002 5.18836 17.4472 5.31017 17.5575C5.43199 17.6679 5.58647 17.7354 5.75016 17.75H16.2502C16.4139 17.7354 16.5683 17.6679 16.6901 17.5575C16.812 17.4472 16.8945 17.3002 16.9252 17.1387C16.9775 16.8454 17.0026 16.5479 17.0002 16.25C16.9984 14.6592 16.3657 13.1342 15.2408 12.0093C14.116 10.8845 12.5909 10.2518 11.0002 10.25ZM12.5002 16.25C12.4986 16.0209 12.4442 15.7953 12.3412 15.5908L13.1242 14.4163C13.2346 14.2508 13.2747 14.0482 13.2357 13.8531C13.1968 13.658 13.0819 13.4864 12.9164 13.376C12.7509 13.2656 12.5483 13.2255 12.3533 13.2644C12.1582 13.3034 11.9866 13.4183 11.8762 13.5837L11.0924 14.759C11.0617 14.759 11.0317 14.75 11.0002 14.75C10.6023 14.75 10.2208 14.908 9.9395 15.1893C9.65819 15.4706 9.50016 15.8522 9.50016 16.25H6.50016C6.50016 15.0565 6.97427 13.9119 7.81818 13.068C8.66209 12.2241 9.80669 11.75 11.0002 11.75C12.1936 11.75 13.3382 12.2241 14.1821 13.068C15.0261 13.9119 15.5002 15.0565 15.5002 16.25H12.5002Z" fill="currentColor"/>
</svg>
