<svg width="24" height="24" viewBox="0 0 24 24" fill="none" xmlns="http://www.w3.org/2000/svg">
<path d="M22.875 9H1.125C1.02554 9 0.930161 9.03951 0.859835 9.10983C0.789509 9.18016 0.75 9.27554 0.75 9.375V10.5C0.75 10.5995 0.789509 10.6948 0.859835 10.7652C0.930161 10.8355 1.02554 10.875 1.125 10.875C1.22446 10.875 1.31984 10.9145 1.39017 10.9848C1.46049 11.0552 1.5 11.1505 1.5 11.25C1.5 11.3495 1.46049 11.4448 1.39017 11.5152C1.31984 11.5855 1.22446 11.625 1.125 11.625C1.02554 11.625 0.930161 11.6645 0.859835 11.7348C0.789509 11.8052 0.75 11.9005 0.75 12V15.375C0.75 15.4745 0.789509 15.5698 0.859835 15.6402C0.930161 15.7105 1.02554 15.75 1.125 15.75H1.5V16.875C1.5 16.9745 1.53951 17.0698 1.60984 17.1402C1.68016 17.2105 1.77554 17.25 1.875 17.25H8.625C8.72446 17.25 8.81984 17.2105 8.89017 17.1402C8.96049 17.0698 9 16.9745 9 16.875V15.75H9.75V16.875C9.75 16.9745 9.78951 17.0698 9.85983 17.1402C9.93016 17.2105 10.0255 17.25 10.125 17.25H22.125C22.2245 17.25 22.3198 17.2105 22.3902 17.1402C22.4605 17.0698 22.5 16.9745 22.5 16.875V15.75H22.875C22.9745 15.75 23.0698 15.7105 23.1402 15.6402C23.2105 15.5698 23.25 15.4745 23.25 15.375V12C23.25 11.9005 23.2105 11.8052 23.1402 11.7348C23.0698 11.6645 22.9745 11.625 22.875 11.625C22.7755 11.625 22.6802 11.5855 22.6098 11.5152C22.5395 11.4448 22.5 11.3495 22.5 11.25C22.5 11.1505 22.5395 11.0552 22.6098 10.9848C22.6802 10.9145 22.7755 10.875 22.875 10.875C22.9745 10.875 23.0698 10.8355 23.1402 10.7652C23.2105 10.6948 23.25 10.5995 23.25 10.5V9.375C23.25 9.27554 23.2105 9.18016 23.1402 9.10983C23.0698 9.03951 22.9745 9 22.875 9ZM8.25 16.5H2.25V15.75H8.25V16.5ZM21.75 16.5H10.5V15.75H21.75V16.5ZM22.5 10.1891C22.2805 10.2666 22.0905 10.4102 21.956 10.6002C21.8216 10.7902 21.7494 11.0172 21.7494 11.25C21.7494 11.4828 21.8216 11.7098 21.956 11.8998C22.0905 12.0898 22.2805 12.2334 22.5 12.3109V15H1.5V12.3109C1.71949 12.2334 1.90955 12.0898 2.04398 11.8998C2.17842 11.7098 2.25061 11.4828 2.25061 11.25C2.25061 11.0172 2.17842 10.7902 2.04398 10.6002C1.90955 10.4102 1.71949 10.2666 1.5 10.1891V9.75H22.5V10.1891Z" fill="currentColor"/>
<path d="M6 13.875H7.5C7.59946 13.875 7.69484 13.8355 7.76517 13.7652C7.83549 13.6948 7.875 13.5995 7.875 13.5V11.25C7.875 11.1505 7.83549 11.0552 7.76517 10.9848C7.69484 10.9145 7.59946 10.875 7.5 10.875H6C5.90054 10.875 5.80516 10.9145 5.73484 10.9848C5.66451 11.0552 5.625 11.1505 5.625 11.25V13.5C5.625 13.5995 5.66451 13.6948 5.73484 13.7652C5.80516 13.8355 5.90054 13.875 6 13.875ZM6.375 11.625H7.125V13.125H6.375V11.625ZM3 13.875H4.5C4.59946 13.875 4.69484 13.8355 4.76516 13.7652C4.83549 13.6948 4.875 13.5995 4.875 13.5V11.25C4.875 11.1505 4.83549 11.0552 4.76516 10.9848C4.69484 10.9145 4.59946 10.875 4.5 10.875H3C2.90054 10.875 2.80516 10.9145 2.73484 10.9848C2.66451 11.0552 2.625 11.1505 2.625 11.25V13.5C2.625 13.5995 2.66451 13.6948 2.73484 13.7652C2.80516 13.8355 2.90054 13.875 3 13.875ZM3.375 11.625H4.125V13.125H3.375V11.625ZM9 13.875H10.5C10.5995 13.875 10.6948 13.8355 10.7652 13.7652C10.8355 13.6948 10.875 13.5995 10.875 13.5V11.25C10.875 11.1505 10.8355 11.0552 10.7652 10.9848C10.6948 10.9145 10.5995 10.875 10.5 10.875H9C8.90054 10.875 8.80516 10.9145 8.73483 10.9848C8.66451 11.0552 8.625 11.1505 8.625 11.25V13.5C8.625 13.5995 8.66451 13.6948 8.73483 13.7652C8.80516 13.8355 8.90054 13.875 9 13.875ZM9.375 11.625H10.125V13.125H9.375V11.625Z" fill="currentColor"/>
<path d="M12.375 11.625H11.625V12.375H12.375V11.625Z" fill="currentColor"/>
<path d="M13.5 13.875H15C15.0995 13.875 15.1948 13.8355 15.2652 13.7652C15.3355 13.6948 15.375 13.5995 15.375 13.5V11.25C15.375 11.1505 15.3355 11.0552 15.2652 10.9848C15.1948 10.9145 15.0995 10.875 15 10.875H13.5C13.4005 10.875 13.3052 10.9145 13.2348 10.9848C13.1645 11.0552 13.125 11.1505 13.125 11.25V13.5C13.125 13.5995 13.1645 13.6948 13.2348 13.7652C13.3052 13.8355 13.4005 13.875 13.5 13.875ZM13.875 11.625H14.625V13.125H13.875V11.625ZM16.5 13.875H18C18.0995 13.875 18.1948 13.8355 18.2652 13.7652C18.3355 13.6948 18.375 13.5995 18.375 13.5V11.25C18.375 11.1505 18.3355 11.0552 18.2652 10.9848C18.1948 10.9145 18.0995 10.875 18 10.875H16.5C16.4005 10.875 16.3052 10.9145 16.2348 10.9848C16.1645 11.0552 16.125 11.1505 16.125 11.25V13.5C16.125 13.5995 16.1645 13.6948 16.2348 13.7652C16.3052 13.8355 16.4005 13.875 16.5 13.875ZM16.875 11.625H17.625V13.125H16.875V11.625ZM19.5 13.875H21C21.0995 13.875 21.1948 13.8355 21.2652 13.7652C21.3355 13.6948 21.375 13.5995 21.375 13.5V11.25C21.375 11.1505 21.3355 11.0552 21.2652 10.9848C21.1948 10.9145 21.0995 10.875 21 10.875H19.5C19.4005 10.875 19.3052 10.9145 19.2348 10.9848C19.1645 11.0552 19.125 11.1505 19.125 11.25V13.5C19.125 13.5995 19.1645 13.6948 19.2348 13.7652C19.3052 13.8355 19.4005 13.875 19.5 13.875ZM19.875 11.625H20.625V13.125H19.875V11.625Z" fill="currentColor"/>
</svg>
