<svg width="16" height="24" viewBox="0 0 16 24" fill="none" xmlns="http://www.w3.org/2000/svg">
<path d="M1.86024 3.32999C2.05907 3.32999 2.22024 3.16881 2.22024 2.96999C2.22024 2.77116 2.05907 2.60999 1.86024 2.60999C1.66142 2.60999 1.50024 2.77116 1.50024 2.96999C1.50024 3.16881 1.66142 3.32999 1.86024 3.32999Z" fill="currentColor"/>
<path d="M1.86024 19.352C2.05907 19.352 2.22024 19.1908 2.22024 18.992C2.22024 18.7931 2.05907 18.632 1.86024 18.632C1.66142 18.632 1.50024 18.7931 1.50024 18.992C1.50024 19.1908 1.66142 19.352 1.86024 19.352Z" fill="currentColor"/>
<path d="M14.2091 3.32999C14.4079 3.32999 14.5691 3.16881 14.5691 2.96999C14.5691 2.77116 14.4079 2.60999 14.2091 2.60999C14.0103 2.60999 13.8491 2.77116 13.8491 2.96999C13.8491 3.16881 14.0103 3.32999 14.2091 3.32999Z" fill="currentColor"/>
<path d="M14.2091 19.352C14.4079 19.352 14.5691 19.1908 14.5691 18.992C14.5691 18.7931 14.4079 18.632 14.2091 18.632C14.0103 18.632 13.8491 18.7931 13.8491 18.992C13.8491 19.1908 14.0103 19.352 14.2091 19.352Z" fill="currentColor"/>
<path d="M1.45672 23.16H14.5432C15.2709 23.16 15.8632 22.5679 15.8632 21.84V2.15997C15.8632 1.43205 15.2709 0.839966 14.5432 0.839966H1.45672C1.10675 0.840347 0.771224 0.97954 0.523759 1.22701C0.276293 1.47447 0.1371 1.81 0.136719 2.15997V21.84C0.136719 22.5679 0.729039 23.16 1.45672 23.16ZM12.6837 22.4364H12.0554V21.4548C12.0554 21.3593 12.0174 21.2677 11.9499 21.2002C11.8824 21.1327 11.7908 21.0948 11.6954 21.0948C11.5999 21.0948 11.5083 21.1327 11.4408 21.2002C11.3733 21.2677 11.3354 21.3593 11.3354 21.4548V22.4364H10.7843V21.4548C10.7843 21.3593 10.7464 21.2677 10.6789 21.2002C10.6114 21.1327 10.5198 21.0948 10.4243 21.0948C10.3288 21.0948 10.2373 21.1327 10.1698 21.2002C10.1022 21.2677 10.0643 21.3593 10.0643 21.4548V22.4364H9.51304V21.4548C9.51304 21.3593 9.47511 21.2677 9.4076 21.2002C9.34008 21.1327 9.24852 21.0948 9.15304 21.0948C9.05756 21.0948 8.96599 21.1327 8.89848 21.2002C8.83097 21.2677 8.79304 21.3593 8.79304 21.4548V22.4364H8.242V21.4548C8.242 21.3593 8.20407 21.2677 8.13656 21.2002C8.06904 21.1327 7.97748 21.0948 7.882 21.0948C7.78652 21.0948 7.69495 21.1327 7.62744 21.2002C7.55993 21.2677 7.522 21.3593 7.522 21.4548V22.4364H6.97096V21.4548C6.97096 21.3593 6.93303 21.2677 6.86552 21.2002C6.798 21.1327 6.70644 21.0948 6.61096 21.0948C6.51548 21.0948 6.42391 21.1327 6.3564 21.2002C6.28889 21.2677 6.25096 21.3593 6.25096 21.4548V22.4364H5.69992V21.4548C5.69992 21.3593 5.66199 21.2677 5.59448 21.2002C5.52696 21.1327 5.4354 21.0948 5.33992 21.0948C5.24444 21.0948 5.15287 21.1327 5.08536 21.2002C5.01785 21.2677 4.97992 21.3593 4.97992 21.4548V22.4364H4.3516V20.7602H12.6837V22.4364V22.4364ZM0.856719 2.15997C0.856719 1.82925 1.12576 1.55997 1.45672 1.55997H14.5432C14.8742 1.55997 15.1432 1.82925 15.1432 2.15997V21.84C15.1432 22.1707 14.8742 22.44 14.5432 22.44H13.4034V20.4002C13.4034 20.3047 13.3655 20.2132 13.298 20.1456C13.2305 20.0781 13.1389 20.0402 13.0434 20.0402H3.9916C3.89612 20.0402 3.80455 20.0781 3.73704 20.1456C3.66953 20.2132 3.6316 20.3047 3.6316 20.4002V22.44H1.45672C1.29765 22.4398 1.14515 22.3765 1.03267 22.264C0.920185 22.1515 0.856909 21.999 0.856719 21.84V2.15997V2.15997Z" fill="currentColor"/>
<path d="M3.13662 18.12H12.8631C13.1941 18.12 13.4631 17.8507 13.4631 17.52V4.31997C13.4631 3.98925 13.1941 3.71997 12.8631 3.71997H3.13662C2.97755 3.72016 2.82505 3.78344 2.71257 3.89592C2.60009 4.0084 2.53681 4.1609 2.53662 4.31997V17.52C2.53662 17.8507 2.80566 18.12 3.13662 18.12ZM3.25662 4.43997H12.7431V17.4H3.25662V4.43997Z" fill="currentColor"/>
</svg>
