<svg width="32" height="32" fill="none" xmlns="http://www.w3.org/2000/svg"><path d="m28.3 12.704-3.009 1.672-.003-.021-.022-.116-.016-.085-.025-.12-.017-.08-.03-.132-.016-.066-.046-.18-.005-.018a8.62 8.62 0 0 0-.054-.196l-.022-.071-.037-.124-.027-.084-.036-.11-.032-.089a7.74 7.74 0 0 0-.036-.102l-.007-.02 3.44-.058Zm-3.296-5.708-1.77 2.952-.014-.016c-.058-.068-.117-.135-.177-.202-.031-.035-.06-.07-.092-.105a9.577 9.577 0 0 0-.279-.29l-.006-.007a9.217 9.217 0 0 0-.291-.279l-.102-.09-.205-.18c-.006-.003-.01-.008-.016-.013l2.952-1.77ZM19.296 3.7l-.057 3.44-.02-.007-.11-.038-.082-.029-.12-.04-.073-.023-.143-.044-.051-.015a9.4 9.4 0 0 0-.396-.106l-.053-.013a9.663 9.663 0 0 0-.146-.034l-.07-.014c-.044-.01-.087-.02-.13-.027l-.077-.015-.125-.023-.019-.003L19.296 3.7Zm-4.92 3.009c-.007 0-.014.002-.02.003l-.118.022-.084.016-.121.025-.079.017a7.1 7.1 0 0 0-.134.031l-.064.015a9.63 9.63 0 0 0-.19.048l-.008.003a9.252 9.252 0 0 0-.197.054l-.062.02c-.044.012-.088.026-.133.04l-.078.025-.115.038-.086.03-.106.037-.02.007-.057-3.44 1.672 3.009ZM9.948 8.766l-.016.014c-.07.059-.137.12-.206.18-.033.03-.068.059-.1.09-.1.09-.197.182-.292.277l-.006.007a9.277 9.277 0 0 0-.279.291l-.093.106-.176.2-.014.017-1.77-2.952 2.952 1.77ZM7.14 12.761l-.007.02-.038.106-.03.086-.038.116-.025.077-.04.135-.019.06a9.16 9.16 0 0 0-.105.396l-.013.055a10.01 10.01 0 0 0-.033.143l-.015.072c-.01.043-.019.085-.027.128l-.015.08-.023.121c0 .007-.002.013-.003.02L3.7 12.704l3.44.057ZM3.7 19.296l3.009-1.672.004.021.02.115.017.086.025.12.017.08.03.133.016.066.046.178.005.02.054.195.021.07.038.125.027.083.036.11.031.09.036.102.008.02-3.44.058Zm3.296 5.708 1.77-2.952.014.016c.058.069.118.135.177.202.031.035.06.07.092.105.091.099.184.195.279.29l.006.007c.095.095.192.188.292.279.032.03.067.059.1.089.068.06.136.121.207.18l.015.014-2.952 1.77Zm5.708 3.296.057-3.44.018.006.116.04.077.028a8.3 8.3 0 0 0 .125.04l.068.023.147.044.048.015c.132.038.264.074.397.106l.05.012.149.034.068.015.132.027.076.014.125.024.019.003-1.672 3.009Zm2.511-3.906a8.464 8.464 0 0 1-1.227-.205 8.43 8.43 0 0 1-4.866-3.312 8.497 8.497 0 0 1-.786-1.358v-.001a8.358 8.358 0 0 1-.73-2.733v-.001a8.485 8.485 0 0 1 0-1.566v-.002a8.35 8.35 0 0 1 .73-2.731l.004-.012a8.44 8.44 0 0 1 1.678-2.414l.02-.02.048-.047c.285-.28.589-.539.91-.775l.127-.095a8.48 8.48 0 0 1 1.522-.858A8.353 8.353 0 0 1 16 7.569a8.356 8.356 0 0 1 3.518.767 8.43 8.43 0 0 1 3.36 2.787 8.508 8.508 0 0 1 .858 1.522 8.352 8.352 0 0 1 .65 2.48l.009.09a8.474 8.474 0 0 1 0 1.567v.002a8.35 8.35 0 0 1-.73 2.731l-.005.012a8.44 8.44 0 0 1-1.678 2.414l-.02.02-.048.047c-.285.28-.589.539-.91.775l-.127.095a8.473 8.473 0 0 1-1.685.928 8.356 8.356 0 0 1-2.408.588 8.544 8.544 0 0 1-1.569 0Zm2.41.897.02-.004.117-.021.084-.016.123-.026.076-.016c.046-.01.092-.02.137-.032l.062-.014.195-.05h.003l.197-.056.058-.017.137-.042.074-.024.12-.04c.027-.008.053-.018.08-.027l.112-.04.019-.006.057 3.44-1.672-3.009Zm4.427-2.058.015-.013.207-.18.1-.09c.1-.09.196-.183.291-.277l.007-.007c.095-.095.188-.192.279-.291.03-.035.06-.07.092-.105.06-.067.119-.133.176-.202l.014-.016 1.771 2.952-2.952-1.77Zm2.808-3.994.007-.02.037-.107.03-.086.038-.115.025-.078c.015-.044.028-.09.041-.134l.018-.06c.038-.131.074-.263.106-.396l.013-.056.033-.142.015-.073c.01-.042.018-.085.027-.127l.015-.08.022-.121.004-.02 3.009 1.672-3.44-.057Z" fill="#fff"/></svg>