<svg width="32" height="32" viewBox="0 0 32 32" fill="none" xmlns="http://www.w3.org/2000/svg">
<path d="M17.3333 25.3333H18.6666C19.0202 25.3333 19.3594 25.4738 19.6094 25.7239C19.8595 25.9739 20 26.313 20 26.6667H29.3333V29.3333H20C20 29.687 19.8595 30.0261 19.6094 30.2761C19.3594 30.5262 19.0202 30.6667 18.6666 30.6667H13.3333C12.9797 30.6667 12.6405 30.5262 12.3905 30.2761C12.1404 30.0261 12 29.687 12 29.3333H2.66663V26.6667H12C12 26.313 12.1404 25.9739 12.3905 25.7239C12.6405 25.4738 12.9797 25.3333 13.3333 25.3333H14.6666V22.6667H5.33329C4.97967 22.6667 4.64053 22.5262 4.39048 22.2761C4.14043 22.0261 3.99996 21.687 3.99996 21.3333V16C3.99996 15.6464 4.14043 15.3072 4.39048 15.0572C4.64053 14.8071 4.97967 14.6667 5.33329 14.6667H26.6666C27.0202 14.6667 27.3594 14.8071 27.6094 15.0572C27.8595 15.3072 28 15.6464 28 16V21.3333C28 21.687 27.8595 22.0261 27.6094 22.2761C27.3594 22.5262 27.0202 22.6667 26.6666 22.6667H17.3333V25.3333ZM5.33329 4H26.6666C27.0202 4 27.3594 4.14048 27.6094 4.39052C27.8595 4.64057 28 4.97971 28 5.33333V10.6667C28 11.0203 27.8595 11.3594 27.6094 11.6095C27.3594 11.8595 27.0202 12 26.6666 12H5.33329C4.97967 12 4.64053 11.8595 4.39048 11.6095C4.14043 11.3594 3.99996 11.0203 3.99996 10.6667V5.33333C3.99996 4.97971 4.14043 4.64057 4.39048 4.39052C4.64053 4.14048 4.97967 4 5.33329 4M12 9.33333H13.3333V6.66667H12V9.33333ZM12 20H13.3333V17.3333H12V20ZM6.66663 6.66667V9.33333H9.33329V6.66667H6.66663ZM6.66663 17.3333V20H9.33329V17.3333H6.66663Z" fill="url(#paint0_linear_2223_11845)"/>
<defs>
<linearGradient id="paint0_linear_2223_11845" x1="2.66663" y1="17.3333" x2="26.6175" y2="25.3984" gradientUnits="userSpaceOnUse">
<stop stop-color="#D52274"/>
<stop offset="0.5625" stop-color="#F44D29"/>
<stop offset="1" stop-color="#FD7E14"/>
</linearGradient>
</defs>
</svg>
