<svg width="24" height="24" viewBox="0 0 24 24" fill="none" xmlns="http://www.w3.org/2000/svg">
<path d="M12.75 12.75H16.6065C16.7891 13.457 17.2232 14.0732 17.8275 14.483C18.4318 14.8928 19.1649 15.0681 19.8893 14.9761C20.6136 14.8841 21.2796 14.5311 21.7622 13.9832C22.2449 13.4353 22.5112 12.7302 22.5112 12C22.5112 11.2698 22.2449 10.5647 21.7622 10.0168C21.2796 9.46895 20.6136 9.11592 19.8893 9.02392C19.1649 8.93191 18.4318 9.10725 17.8275 9.51706C17.2232 9.92687 16.7891 10.543 16.6065 11.25H12.75V5.25001H16.6065C16.7891 5.957 17.2232 6.57315 17.8275 6.98296C18.4318 7.39277 19.1649 7.5681 19.8893 7.4761C20.6136 7.38409 21.2796 7.03106 21.7622 6.48318C22.2449 5.9353 22.5112 5.23019 22.5112 4.50001C22.5112 3.76983 22.2449 3.06471 21.7622 2.51683C21.2796 1.96895 20.6136 1.61592 19.8893 1.52392C19.1649 1.43191 18.4318 1.60725 17.8275 2.01706C17.2232 2.42687 16.7891 3.04301 16.6065 3.75001H12.75C12.3523 3.7504 11.971 3.90857 11.6898 4.18979C11.4086 4.471 11.2504 4.8523 11.25 5.25001V11.25H7.39351C7.21096 10.543 6.77683 9.92687 6.1725 9.51706C5.56817 9.10725 4.83512 8.93191 4.11076 9.02392C3.3864 9.11592 2.72046 9.46895 2.23777 10.0168C1.75507 10.5647 1.48877 11.2698 1.48877 12C1.48877 12.7302 1.75507 13.4353 2.23777 13.9832C2.72046 14.5311 3.3864 14.8841 4.11076 14.9761C4.83512 15.0681 5.56817 14.8928 6.1725 14.483C6.77683 14.0732 7.21096 13.457 7.39351 12.75H11.25V18.75C11.2504 19.1477 11.4086 19.529 11.6898 19.8102C11.971 20.0914 12.3523 20.2496 12.75 20.25H16.6065C16.7891 20.957 17.2232 21.5732 17.8275 21.983C18.4318 22.3928 19.1649 22.5681 19.8893 22.4761C20.6136 22.3841 21.2796 22.0311 21.7622 21.4832C22.2449 20.9353 22.5112 20.2302 22.5112 19.5C22.5112 18.7698 22.2449 18.0647 21.7622 17.5168C21.2796 16.969 20.6136 16.6159 19.8893 16.5239C19.1649 16.4319 18.4318 16.6072 17.8275 17.0171C17.2232 17.4269 16.7891 18.043 16.6065 18.75H12.75V12.75ZM19.5 10.5C19.7967 10.5 20.0867 10.588 20.3334 10.7528C20.58 10.9176 20.7723 11.1519 20.8858 11.426C20.9994 11.7001 21.0291 12.0017 20.9712 12.2926C20.9133 12.5836 20.7704 12.8509 20.5607 13.0607C20.3509 13.2704 20.0836 13.4133 19.7926 13.4712C19.5017 13.5291 19.2001 13.4994 18.926 13.3858C18.6519 13.2723 18.4176 13.08 18.2528 12.8334C18.088 12.5867 18 12.2967 18 12C18.0004 11.6023 18.1586 11.221 18.4398 10.9398C18.721 10.6586 19.1023 10.5004 19.5 10.5ZM19.5 3.00001C19.7967 3.00001 20.0867 3.08798 20.3334 3.2528C20.58 3.41763 20.7723 3.65189 20.8858 3.92598C20.9994 4.20007 21.0291 4.50167 20.9712 4.79264C20.9133 5.08361 20.7704 5.35089 20.5607 5.56067C20.3509 5.77045 20.0836 5.91331 19.7926 5.97119C19.5017 6.02906 19.2001 5.99936 18.926 5.88583C18.6519 5.7723 18.4176 5.58004 18.2528 5.33336C18.088 5.08669 18 4.79668 18 4.50001C18.0004 4.1023 18.1586 3.721 18.4398 3.43979C18.721 3.15857 19.1023 3.0004 19.5 3.00001ZM4.50001 13.5C4.20334 13.5 3.91333 13.412 3.66665 13.2472C3.41998 13.0824 3.22772 12.8481 3.11419 12.574C3.00066 12.2999 2.97095 11.9983 3.02883 11.7074C3.08671 11.4164 3.22957 11.1491 3.43935 10.9393C3.64913 10.7296 3.9164 10.5867 4.20737 10.5288C4.49834 10.471 4.79994 10.5007 5.07403 10.6142C5.34812 10.7277 5.58239 10.92 5.74721 11.1667C5.91203 11.4133 6.00001 11.7033 6.00001 12C5.99961 12.3977 5.84145 12.779 5.56023 13.0602C5.27901 13.3414 4.89771 13.4996 4.50001 13.5ZM19.5 18C19.7967 18 20.0867 18.088 20.3334 18.2528C20.58 18.4176 20.7723 18.6519 20.8858 18.926C20.9994 19.2001 21.0291 19.5017 20.9712 19.7926C20.9133 20.0836 20.7704 20.3509 20.5607 20.5607C20.3509 20.7704 20.0836 20.9133 19.7926 20.9712C19.5017 21.0291 19.2001 20.9994 18.926 20.8858C18.6519 20.7723 18.4176 20.58 18.2528 20.3334C18.088 20.0867 18 19.7967 18 19.5C18.0004 19.1023 18.1586 18.721 18.4398 18.4398C18.721 18.1586 19.1023 18.0004 19.5 18Z" fill="url(#paint0_linear_2223_10790)"/>
<defs>
<linearGradient id="paint0_linear_2223_10790" x1="1.48877" y1="12" x2="20.3662" y2="18.3635" gradientUnits="userSpaceOnUse">
<stop stop-color="#D52274"/>
<stop offset="0.5625" stop-color="#F44D29"/>
<stop offset="1" stop-color="#FD7E14"/>
</linearGradient>
</defs>
</svg>
