<svg width="62" height="23" viewBox="0 0 62 23" fill="none" xmlns="http://www.w3.org/2000/svg">
<path d="M9.20384 18.36C7.52384 18.36 6.00384 18 4.64384 17.28C3.29984 16.544 2.23584 15.512 1.45184 14.184C0.683844 12.856 0.299844 11.336 0.299844 9.624C0.299844 7.912 0.683844 6.392 1.45184 5.064C2.23584 3.736 3.29984 2.704 4.64384 1.968C6.00384 1.232 7.52384 0.863999 9.20384 0.863999C10.8678 0.863999 12.3718 1.232 13.7158 1.968C15.0758 2.704 16.1398 3.736 16.9078 5.064C17.6918 6.392 18.0838 7.912 18.0838 9.624C18.0838 11.336 17.6918 12.856 16.9078 14.184C16.1398 15.496 15.0758 16.52 13.7158 17.256C12.3718 17.992 10.8678 18.36 9.20384 18.36ZM9.20384 15.6C10.2758 15.6 11.2518 15.36 12.1318 14.88C13.0118 14.384 13.7078 13.688 14.2198 12.792C14.7478 11.88 15.0118 10.824 15.0118 9.624C15.0118 8.44 14.7558 7.4 14.2438 6.504C13.7318 5.592 13.0358 4.888 12.1558 4.392C11.2758 3.896 10.2918 3.648 9.20384 3.648C8.11584 3.648 7.12384 3.896 6.22784 4.392C5.34784 4.888 4.65184 5.592 4.13984 6.504C3.62784 7.4 3.37184 8.44 3.37184 9.624C3.37184 10.824 3.62784 11.88 4.13984 12.792C4.66784 13.688 5.37184 14.384 6.25184 14.88C7.14784 15.36 8.13184 15.6 9.20384 15.6ZM20.4908 0.263999H23.5148V18H20.4908V0.263999ZM30.909 18.36C29.357 18.36 28.197 17.944 27.429 17.112C26.661 16.264 26.277 15.144 26.277 13.752V6.48H29.301V13.464C29.301 15.144 30.085 15.984 31.653 15.984C32.341 15.984 32.989 15.824 33.597 15.504C34.205 15.168 34.717 14.672 35.133 14.016V6.48H38.157V18H35.229V16.44C34.685 17.096 34.037 17.584 33.285 17.904C32.533 18.208 31.741 18.36 30.909 18.36ZM41.7895 8.784H40.0855V6.48H41.7895V4.488C41.7895 3.08 42.2055 2.008 43.0375 1.272C43.8695 0.52 44.9655 0.144 46.3255 0.144C47.0935 0.144 47.7655 0.256 48.3415 0.48V2.928C47.9095 2.736 47.4375 2.64 46.9255 2.64C46.2055 2.64 45.6695 2.8 45.3175 3.12C44.9815 3.44 44.8135 3.968 44.8135 4.704V6.48H47.6215V8.784H44.8135V18H41.7895V8.784ZM51.4695 22.752C51.0535 22.752 50.6135 22.72 50.1495 22.656C49.7015 22.608 49.3495 22.536 49.0935 22.44V20.136C49.4935 20.296 49.9895 20.376 50.5815 20.376C51.1895 20.376 51.6455 20.24 51.9495 19.968C52.2535 19.696 52.5175 19.264 52.7415 18.672L53.1975 17.472L48.2295 6.48H51.2775L54.8295 14.88L58.1655 6.48H61.1895L56.1495 19.032C55.6375 20.296 55.0135 21.232 54.2775 21.84C53.5575 22.448 52.6215 22.752 51.4695 22.752Z" fill="url(#paint0_linear_2012_4647)"/>
<defs>
<linearGradient id="paint0_linear_2012_4647" x1="-0.999999" y1="10" x2="45.7617" y2="37.556" gradientUnits="userSpaceOnUse">
<stop stop-color="#D52274"/>
<stop offset="0.5625" stop-color="#F44D29"/>
<stop offset="1" stop-color="#FD7E14"/>
</linearGradient>
</defs>
</svg>
