<svg width="32" height="32" viewBox="0 0 32 32" fill="none" xmlns="http://www.w3.org/2000/svg">
<path d="M28.3056 7.56081C27.5008 2.79761 23.1536 -0.386391 18.5952 0.455209C14.0352 1.29521 10.1856 4.96081 10.9904 9.72721C11.1616 10.7528 11.6432 12.3576 12.2112 13.5112L3.93121 25.868C3.62561 26.324 3.45281 27.1464 3.54401 27.6936L4.07681 30.8472C4.09593 30.9749 4.14013 31.0976 4.20687 31.2082C4.27361 31.3188 4.36156 31.415 4.46566 31.4915C4.56976 31.5679 4.68796 31.623 4.81344 31.6536C4.93892 31.6842 5.06921 31.6896 5.19681 31.6696L7.62241 31.22C8.14721 31.1256 8.81281 30.6632 9.10081 30.1976L12.376 24.9L12.4048 24.8648L14.6224 24.4552L18.4464 18.2488C19.7024 18.4712 21.5056 18.396 22.5712 18.1992C27.128 17.3576 29.1104 12.3272 28.3056 7.56081V7.56081ZM24.2656 10.004C23.0112 11.876 21.7312 10.5576 19.9408 9.24401C18.1504 7.93521 16.5248 7.12881 17.7776 5.25681C19.032 3.38481 21.4992 2.92881 23.2928 4.24081C25.0848 5.55121 25.5184 8.13201 24.2656 10.004V10.004Z" fill="url(#paint0_linear_2248_12495)"/>
<defs>
<linearGradient id="paint0_linear_2248_12495" x1="3.51965" y1="16.0009" x2="26.8077" y2="22.2424" gradientUnits="userSpaceOnUse">
<stop stop-color="#D52274"/>
<stop offset="0.5625" stop-color="#F44D29"/>
<stop offset="1" stop-color="#FD7E14"/>
</linearGradient>
</defs>
</svg>
