<svg width="32" height="32" viewBox="0 0 32 32" fill="none" xmlns="http://www.w3.org/2000/svg">
<path d="M18.6667 2.66699H8.00001C6.53334 2.66699 5.33334 3.86699 5.33334 5.33366V26.667C5.33334 28.1337 6.53334 29.3337 8.00001 29.3337H24C25.4667 29.3337 26.6667 28.1337 26.6667 26.667V10.667L18.6667 2.66699ZM16 13.3337C17.4667 13.3337 18.6667 14.5337 18.6667 16.0003C18.6667 17.467 17.4667 18.667 16 18.667C14.5333 18.667 13.3333 17.467 13.3333 16.0003C13.3333 14.5337 14.5333 13.3337 16 13.3337ZM21.3333 24.0003H10.6667V23.2403C10.6667 22.1603 11.3067 21.2003 12.2933 20.7737C13.4625 20.2634 14.7244 20 16 20C17.2756 20 18.5375 20.2634 19.7067 20.7737C20.1897 20.9801 20.6014 21.324 20.8907 21.7626C21.1799 22.2011 21.3338 22.715 21.3333 23.2403V24.0003Z" fill="url(#paint0_linear_2242_10519)"/>
<defs>
<linearGradient id="paint0_linear_2242_10519" x1="5.33334" y1="16.0003" x2="25.2233" y2="21.3584" gradientUnits="userSpaceOnUse">
<stop stop-color="#D52274"/>
<stop offset="0.5625" stop-color="#F44D29"/>
<stop offset="1" stop-color="#FD7E14"/>
</linearGradient>
</defs>
</svg>
