<svg width="120" height="120" viewBox="0 0 120 120" fill="none" xmlns="http://www.w3.org/2000/svg">
<circle cx="60" cy="60" r="60" fill="url(#paint0_linear_2550_13553)"/>
<mask id="mask0_2550_13553" style="mask-type:alpha" maskUnits="userSpaceOnUse" x="8" y="16" width="104" height="104">
<path d="M103.631 101.312C97.9334 91.4881 89.0877 83.8733 78.525 79.7C83.7091 75.8119 87.5385 70.3913 89.4706 64.2059C91.4028 58.0206 91.3398 51.384 89.2906 45.2365C87.2414 39.0889 83.3099 33.7419 78.053 29.9529C72.796 26.1639 66.4802 24.125 60 24.125C53.5199 24.125 47.2041 26.1639 41.9471 29.9529C36.6902 33.7419 32.7586 39.0889 30.7094 45.2365C28.6602 51.384 28.5973 58.0206 30.5294 64.2059C32.4616 70.3913 36.2909 75.8119 41.475 79.7C30.9124 83.8733 22.0667 91.4881 16.3688 101.312C15.7223 102.433 15.5475 103.764 15.8827 105.014C16.2179 106.263 17.0357 107.329 18.1563 107.975C19.2768 108.621 20.6083 108.796 21.8577 108.461C23.1072 108.126 24.1723 107.308 24.8188 106.187C28.3845 100.012 33.5129 94.8842 39.6884 91.319C45.864 87.7537 52.8692 85.8768 60 85.8768C67.1309 85.8768 74.1361 87.7537 80.3116 91.319C86.4872 94.8842 91.6156 100.012 95.1813 106.187C95.6125 106.926 96.2291 107.54 96.9701 107.967C97.7111 108.395 98.5508 108.621 99.4063 108.625C100.262 108.632 101.105 108.407 101.844 107.975C102.399 107.655 102.885 107.229 103.276 106.721C103.666 106.213 103.952 105.633 104.118 105.014C104.284 104.395 104.327 103.75 104.243 103.115C104.16 102.48 103.952 101.867 103.631 101.312ZM38.875 55C38.875 50.8219 40.114 46.7376 42.4352 43.2636C44.7565 39.7896 48.0558 37.0819 51.9158 35.483C55.7759 33.8841 60.0235 33.4658 64.1213 34.2809C68.2192 35.096 71.9833 37.108 74.9377 40.0624C77.892 43.0168 79.904 46.7809 80.7191 50.8787C81.5342 54.9766 81.1159 59.2241 79.517 63.0842C77.9181 66.9443 75.2104 70.2435 71.7365 72.5648C68.2625 74.886 64.1782 76.125 60 76.125C54.3973 76.125 49.0241 73.8993 45.0624 69.9376C41.1007 65.9759 38.875 60.6027 38.875 55Z" fill="white"/>
</mask>
<g mask="url(#mask0_2550_13553)">
<circle cx="60" cy="60" r="60" fill="white"/>
</g>
<defs>
<linearGradient id="paint0_linear_2550_13553" x1="1.81565e-06" y1="60" x2="107.779" y2="96.2929" gradientUnits="userSpaceOnUse">
<stop stop-color="#D52274"/>
<stop offset="0.5625" stop-color="#F44D29"/>
<stop offset="1" stop-color="#FD7E14"/>
</linearGradient>
</defs>
</svg>
