<svg width="32" height="32" viewBox="0 0 32 32" fill="none" xmlns="http://www.w3.org/2000/svg">
<path d="M18.6667 19.0033V29.334H5.33337C5.33296 27.7058 5.70527 26.0992 6.42177 24.6372C7.13828 23.1752 8.17996 21.8966 9.467 20.8994C10.754 19.9022 12.2523 19.2128 13.8469 18.8842C15.4415 18.5555 17.0903 18.5963 18.6667 19.0033ZM16 17.334C11.58 17.334 8.00004 13.754 8.00004 9.33398C8.00004 4.91398 11.58 1.33398 16 1.33398C20.42 1.33398 24 4.91398 24 9.33398C24 13.754 20.42 17.334 16 17.334ZM24 22.6673V18.6673H26.6667V22.6673H30.6667V25.334H26.6667V29.334H24V25.334H20V22.6673H24Z" fill="currentColor"/>
</svg>
