<svg width="32" height="32" viewBox="0 0 32 32" fill="none" xmlns="http://www.w3.org/2000/svg">
<g clip-path="url(#clip0_2248_13398)">
<path d="M16 17.3327C19.1947 17.3327 22.1 18.258 24.2373 19.5607C25.304 20.214 26.216 20.9807 26.8747 21.814C27.5227 22.6353 28 23.6167 28 24.666C28 25.7927 27.452 26.6807 26.6627 27.314C25.916 27.914 24.9307 28.3113 23.884 28.5887C21.78 29.1447 18.972 29.3327 16 29.3327C13.028 29.3327 10.22 29.146 8.116 28.5887C7.06933 28.3113 6.084 27.914 5.33733 27.314C4.54667 26.6793 4 25.7927 4 24.666C4 23.6167 4.47733 22.6353 5.12533 21.814C5.784 20.9807 6.69467 20.214 7.76267 19.5607C9.9 18.258 12.8067 17.3327 16 17.3327ZM16 2.66602C17.7681 2.66602 19.4638 3.36839 20.714 4.61864C21.9643 5.86888 22.6667 7.56457 22.6667 9.33268C22.6667 11.1008 21.9643 12.7965 20.714 14.0467C19.4638 15.297 17.7681 15.9993 16 15.9993C14.2319 15.9993 12.5362 15.297 11.286 14.0467C10.0357 12.7965 9.33333 11.1008 9.33333 9.33268C9.33333 7.56457 10.0357 5.86888 11.286 4.61864C12.5362 3.36839 14.2319 2.66602 16 2.66602Z" fill="url(#paint0_linear_2248_13398)"/>
</g>
<defs>
<linearGradient id="paint0_linear_2248_13398" x1="4" y1="15.9993" x2="25.9811" y2="22.661" gradientUnits="userSpaceOnUse">
<stop stop-color="#D52274"/>
<stop offset="0.5625" stop-color="#F44D29"/>
<stop offset="1" stop-color="#FD7E14"/>
</linearGradient>
<clipPath id="clip0_2248_13398">
<rect width="32" height="32" fill="white"/>
</clipPath>
</defs>
</svg>
