<svg width="32" height="32" viewBox="0 0 32 32" fill="none" xmlns="http://www.w3.org/2000/svg">
<path d="M16 18.6673V29.334H5.33337C5.33337 26.505 6.45718 23.7919 8.45757 21.7915C10.458 19.7911 13.1711 18.6673 16 18.6673ZM16 17.334C11.58 17.334 8.00004 13.754 8.00004 9.33398C8.00004 4.91398 11.58 1.33398 16 1.33398C20.42 1.33398 24 4.91398 24 9.33398C24 13.754 20.42 17.334 16 17.334ZM27.7707 27.7713L24 31.5433L20.2294 27.7713C19.4833 27.0255 18.9752 26.0752 18.7693 25.0406C18.5634 24.006 18.6689 22.9335 19.0725 21.9589C19.4761 20.9843 20.1597 20.1512 21.0368 19.5651C21.9139 18.979 22.9451 18.6662 24 18.6662C25.0549 18.6662 26.0862 18.979 26.9632 19.5651C27.8403 20.1512 28.5239 20.9843 28.9276 21.9589C29.3312 22.9335 29.4367 24.006 29.2308 25.0406C29.0249 26.0752 28.5167 27.0255 27.7707 27.7713ZM24 22.6673C23.6464 22.6673 23.3073 22.8078 23.0572 23.0578C22.8072 23.3079 22.6667 23.647 22.6667 24.0007C22.6667 24.3543 22.8072 24.6934 23.0572 24.9435C23.3073 25.1935 23.6464 25.334 24 25.334C24.3537 25.334 24.6928 25.1935 24.9429 24.9435C25.1929 24.6934 25.3334 24.3543 25.3334 24.0007C25.3334 23.647 25.1929 23.3079 24.9429 23.0578C24.6928 22.8078 24.3537 22.6673 24 22.6673Z" fill="currentColor"/>
</svg>
