<svg width="32" height="32" viewBox="0 0 32 32" fill="none" xmlns="http://www.w3.org/2000/svg">
<path d="M16 18.6673V29.334H5.33337C5.33337 26.505 6.45718 23.7919 8.45757 21.7915C10.458 19.7911 13.1711 18.6673 16 18.6673ZM16 17.334C11.58 17.334 8.00004 13.754 8.00004 9.33398C8.00004 4.91398 11.58 1.33398 16 1.33398C20.42 1.33398 24 4.91398 24 9.33398C24 13.754 20.42 17.334 16 17.334ZM19.46 25.0833C19.291 24.3719 19.291 23.6307 19.46 22.9193L18.1374 22.1553L19.4707 19.846L20.7934 20.61C21.3243 20.1072 21.966 19.7363 22.6667 19.5273V18.0007H25.3334V19.5273C26.0427 19.738 26.6827 20.114 27.2067 20.61L28.5294 19.846L29.8627 22.1553L28.54 22.9193C28.7089 23.6303 28.7089 24.371 28.54 25.082L29.8627 25.846L28.5294 28.1553L27.2067 27.3913C26.6758 27.8941 26.0341 28.265 25.3334 28.474V30.0006H22.6667V28.474C21.966 28.265 21.3243 27.8941 20.7934 27.3913L19.4707 28.1553L18.1374 25.846L19.46 25.0833ZM24 22.6673C23.6464 22.6673 23.3073 22.8078 23.0572 23.0578C22.8072 23.3079 22.6667 23.647 22.6667 24.0007C22.6667 24.3543 22.8072 24.6934 23.0572 24.9435C23.3073 25.1935 23.6464 25.334 24 25.334C24.3537 25.334 24.6928 25.1935 24.9429 24.9435C25.1929 24.6934 25.3334 24.3543 25.3334 24.0007C25.3334 23.647 25.1929 23.3079 24.9429 23.0578C24.6928 22.8078 24.3537 22.6673 24 22.6673Z" fill="currentColor"/>
</svg>
