<svg width="80" height="80" viewBox="0 0 80 80" fill="none" xmlns="http://www.w3.org/2000/svg">
<path d="M50 36.6667C48.1667 36.6667 46.5978 36.0133 45.2933 34.7067C43.9867 33.4022 43.3333 31.8333 43.3333 30V16.6667C43.3333 14.8333 43.9867 13.2633 45.2933 11.9567C46.5978 10.6522 48.1667 10 50 10H63.3333C65.1667 10 66.7367 10.6522 68.0433 11.9567C69.3478 13.2633 70 14.8333 70 16.6667V30C70 31.8333 69.3478 33.4022 68.0433 34.7067C66.7367 36.0133 65.1667 36.6667 63.3333 36.6667H50ZM36.6667 30C36.6667 31.8333 36.0144 33.4022 34.71 34.7067C33.4033 36.0133 31.8333 36.6667 30 36.6667H16.6667C14.8333 36.6667 13.2633 36.0133 11.9567 34.7067C10.6522 33.4022 10 31.8333 10 30V16.6667C10 14.8333 10.6522 13.2633 11.9567 11.9567C13.2633 10.6522 14.8333 10 16.6667 10H30C31.8333 10 33.4033 10.6522 34.71 11.9567C36.0144 13.2633 36.6667 14.8333 36.6667 16.6667V30ZM43.3333 50C43.3333 48.1667 43.9867 46.5967 45.2933 45.29C46.5978 43.9856 48.1667 43.3333 50 43.3333H63.3333C65.1667 43.3333 66.7367 43.9856 68.0433 45.29C69.3478 46.5967 70 48.1667 70 50V63.3333C70 65.1667 69.3478 66.7367 68.0433 68.0433C66.7367 69.3478 65.1667 70 63.3333 70H50C48.1667 70 46.5978 69.3478 45.2933 68.0433C43.9867 66.7367 43.3333 65.1667 43.3333 63.3333V50ZM30 43.3333C31.8333 43.3333 33.4033 43.9856 34.71 45.29C36.0144 46.5967 36.6667 48.1667 36.6667 50V63.3333C36.6667 65.1667 36.0144 66.7367 34.71 68.0433C33.4033 69.3478 31.8333 70 30 70H16.6667C14.8333 70 13.2633 69.3478 11.9567 68.0433C10.6522 66.7367 10 65.1667 10 63.3333V50C10 48.1667 10.6522 46.5967 11.9567 45.29C13.2633 43.9856 14.8333 43.3333 16.6667 43.3333H30Z" fill="url(#paint0_linear_2237_10470)"/>
<defs>
<linearGradient id="paint0_linear_2237_10470" x1="10" y1="40" x2="63.8895" y2="58.1465" gradientUnits="userSpaceOnUse">
<stop stop-color="#D52274"/>
<stop offset="0.5625" stop-color="#F44D29"/>
<stop offset="1" stop-color="#FD7E14"/>
</linearGradient>
</defs>
</svg>
