<svg width="80" height="80" viewBox="0 0 80 80" fill="none" xmlns="http://www.w3.org/2000/svg">
<g clip-path="url(#clip0_2237_10472)">
<path d="M56.6667 6.66663C59.2174 6.66648 61.6717 7.64104 63.5275 9.3909C65.3834 11.1408 66.5004 13.5336 66.65 16.08L66.6667 16.6666V56.6666C67.4153 56.6651 68.1427 56.9157 68.7317 57.3779C69.3206 57.8402 69.7367 58.4873 69.913 59.2149C70.0894 59.9425 70.0156 60.7083 69.7036 61.3889C69.3917 62.0695 68.8597 62.6253 68.1933 62.9666L67.8367 63.12L41.17 73.12C40.5695 73.3454 39.9168 73.3929 39.29 73.2566L38.83 73.1233L12.1633 63.1233C11.4629 62.8624 10.8705 62.3737 10.4812 61.7357C10.092 61.0977 9.92842 60.3473 10.0169 59.6051C10.1053 58.863 10.4406 58.1721 10.9689 57.6434C11.4972 57.1147 12.1879 56.7789 12.93 56.69L13.3333 56.6666V16.6666C13.3332 14.1159 14.3077 11.6616 16.0576 9.80576C17.8075 7.94994 20.2004 6.83293 22.7467 6.68329L23.3333 6.66663H56.6667ZM40 16.6666C39.1836 16.6667 38.3955 16.9665 37.7854 17.509C37.1753 18.0515 36.7855 18.7991 36.69 19.61L36.6667 20V23.3333H33.3333C31.167 23.328 29.0838 24.1665 27.5253 25.6711C25.9667 27.1757 25.0553 29.228 24.9842 31.3931C24.9131 33.5583 25.688 35.666 27.1445 37.2695C28.601 38.8731 30.6247 39.8465 32.7867 39.9833L33.3333 40H36.6667V43.3333H30C29.1504 43.3342 28.3332 43.6596 27.7154 44.2428C27.0977 44.826 26.7259 45.6231 26.6761 46.4713C26.6263 47.3194 26.9022 48.1546 27.4475 48.8061C27.9928 49.4576 28.7663 49.8763 29.61 49.9766L30 50H36.6667V53.3333C36.6676 54.1829 36.9929 55.0001 37.5762 55.6179C38.1594 56.2356 38.9565 56.6074 39.8046 56.6572C40.6528 56.707 41.4879 56.431 42.1394 55.8857C42.791 55.3404 43.2097 54.5669 43.31 53.7233L43.3333 53.3333V50H46.6667C48.833 50.0052 50.9162 49.1667 52.4747 47.6622C54.0333 46.1576 54.9447 44.1052 55.0158 41.9401C55.0869 39.775 54.312 37.6673 52.8555 36.0637C51.399 34.4602 49.3753 33.4868 47.2133 33.35L46.6667 33.3333H43.3333V30H50C50.8496 29.999 51.6668 29.6737 52.2846 29.0905C52.9023 28.5072 53.2741 27.7101 53.3239 26.862C53.3737 26.0138 53.0978 25.1787 52.5525 24.5272C52.0072 23.8757 51.2337 23.457 50.39 23.3566L50 23.3333H43.3333V20C43.3333 19.1159 42.9821 18.2681 42.357 17.6429C41.7319 17.0178 40.8841 16.6666 40 16.6666ZM46.6667 40C47.1087 40 47.5326 40.1756 47.8452 40.4881C48.1577 40.8007 48.3333 41.2246 48.3333 41.6666C48.3333 42.1087 48.1577 42.5326 47.8452 42.8451C47.5326 43.1577 47.1087 43.3333 46.6667 43.3333H43.3333V40H46.6667ZM36.6667 30V33.3333H33.3333C32.8913 33.3333 32.4674 33.1577 32.1548 32.8451C31.8423 32.5326 31.6667 32.1087 31.6667 31.6666C31.6667 31.2246 31.8423 30.8007 32.1548 30.4881C32.4674 30.1756 32.8913 30 33.3333 30H36.6667Z" fill="url(#paint0_linear_2237_10472)"/>
</g>
<defs>
<linearGradient id="paint0_linear_2237_10472" x1="9.99344" y1="39.9997" x2="64.9563" y2="56.6607" gradientUnits="userSpaceOnUse">
<stop stop-color="#D52274"/>
<stop offset="0.5625" stop-color="#F44D29"/>
<stop offset="1" stop-color="#FD7E14"/>
</linearGradient>
<clipPath id="clip0_2237_10472">
<rect width="80" height="80" fill="white"/>
</clipPath>
</defs>
</svg>
