<svg width="80" height="80" viewBox="0 0 80 80" fill="none" xmlns="http://www.w3.org/2000/svg">
<path fill-rule="evenodd" clip-rule="evenodd" d="M27.5 22.5C27.5 19.1848 28.817 16.0054 31.1612 13.6612C33.5054 11.317 36.6848 10 40 10C43.3152 10 46.4946 11.317 48.8388 13.6612C51.183 16.0054 52.5 19.1848 52.5 22.5C52.5 25.8152 51.183 28.9946 48.8388 31.3388C46.4946 33.683 43.3152 35 40 35C36.6848 35 33.5054 33.683 31.1612 31.3388C28.817 28.9946 27.5 25.8152 27.5 22.5ZM52.5 32.5C52.5 29.8478 53.5536 27.3043 55.4289 25.4289C57.3043 23.5536 59.8478 22.5 62.5 22.5C65.1522 22.5 67.6957 23.5536 69.5711 25.4289C71.4464 27.3043 72.5 29.8478 72.5 32.5C72.5 35.1522 71.4464 37.6957 69.5711 39.5711C67.6957 41.4464 65.1522 42.5 62.5 42.5C59.8478 42.5 57.3043 41.4464 55.4289 39.5711C53.5536 37.6957 52.5 35.1522 52.5 32.5ZM7.5 32.5C7.5 29.8478 8.55357 27.3043 10.4289 25.4289C12.3043 23.5536 14.8478 22.5 17.5 22.5C20.1522 22.5 22.6957 23.5536 24.5711 25.4289C26.4464 27.3043 27.5 29.8478 27.5 32.5C27.5 35.1522 26.4464 37.6957 24.5711 39.5711C22.6957 41.4464 20.1522 42.5 17.5 42.5C14.8478 42.5 12.3043 41.4464 10.4289 39.5711C8.55357 37.6957 7.5 35.1522 7.5 32.5ZM21.0333 50.39C23.0665 47.2034 25.8703 44.5809 29.1854 42.7648C32.5005 40.9488 36.22 39.9979 40 40C43.1661 39.9971 46.2971 40.6629 49.188 41.9539C52.0789 43.2448 54.6646 45.1318 56.7758 47.4912C58.8869 49.8507 60.476 52.6294 61.4389 55.6455C62.4018 58.6616 62.7168 61.847 62.3633 64.9933C62.3201 65.3842 62.1853 65.7594 61.9699 66.0884C61.7544 66.4173 61.4644 66.6908 61.1233 66.8867C54.6952 70.5751 47.4112 72.5107 40 72.5C32.5887 72.5117 25.3044 70.576 18.8767 66.8867C18.5356 66.6908 18.2456 66.4173 18.0301 66.0884C17.8147 65.7594 17.6799 65.3842 17.6367 64.9933C17.0768 59.8821 18.2749 54.7326 21.0333 50.3933V50.39Z" fill="url(#paint0_linear_2237_10455)"/>
<path d="M16.94 47.5133C13.6525 52.5879 12.1208 58.601 12.58 64.63C10.5784 64.3265 8.60968 63.8354 6.69999 63.1633L6.31666 63.03C5.97465 62.9086 5.67516 62.6906 5.45449 62.4025C5.23382 62.1144 5.10142 61.7685 5.07333 61.4066L5.03999 61.0033C4.90534 59.3299 5.10918 57.6464 5.63934 56.0535C6.1695 54.4605 7.01512 52.9907 8.12574 51.7316C9.23636 50.4726 10.5892 49.4502 12.1036 48.7255C13.618 48.0007 15.2628 47.5885 16.94 47.5133ZM67.42 64.63C67.8791 58.601 66.3475 52.5879 63.06 47.5133C64.7372 47.5885 66.382 48.0007 67.8964 48.7255C69.4108 49.4502 70.7636 50.4726 71.8743 51.7316C72.9849 52.9907 73.8305 54.4605 74.3606 56.0535C74.8908 57.6464 75.0947 59.3299 74.96 61.0033L74.9267 61.4066C74.898 61.7679 74.7653 62.1131 74.5446 62.4006C74.324 62.688 74.0249 62.9055 73.6833 63.0266L73.3 63.16C71.41 63.8266 69.4467 64.3233 67.42 64.63Z" fill="url(#paint1_linear_2237_10455)"/>
<defs>
<linearGradient id="paint0_linear_2237_10455" x1="7.5" y1="41.25" x2="65.3991" y2="61.5265" gradientUnits="userSpaceOnUse">
<stop stop-color="#D52274"/>
<stop offset="0.5625" stop-color="#F44D29"/>
<stop offset="1" stop-color="#FD7E14"/>
</linearGradient>
<linearGradient id="paint1_linear_2237_10455" x1="4.99973" y1="56.0716" x2="29.1675" y2="89.3534" gradientUnits="userSpaceOnUse">
<stop stop-color="#D52274"/>
<stop offset="0.5625" stop-color="#F44D29"/>
<stop offset="1" stop-color="#FD7E14"/>
</linearGradient>
</defs>
</svg>
