<svg width="32" height="32" viewBox="0 0 32 32" fill="none" xmlns="http://www.w3.org/2000/svg">
<path d="M6.99996 6.66797C5.85069 6.66797 4.74849 7.12451 3.93583 7.93717C3.12317 8.74983 2.66663 9.85203 2.66663 11.0013V12.668H29.3333V11.0013C29.3333 10.4322 29.2212 9.86875 29.0034 9.34301C28.7857 8.81726 28.4665 8.33956 28.0641 7.93717C27.6617 7.53479 27.184 7.21559 26.6583 6.99782C26.1325 6.78005 25.569 6.66797 25 6.66797H6.99996ZM29.3333 14.668H2.66663V21.0013C2.66663 22.1506 3.12317 23.2528 3.93583 24.0654C4.74849 24.8781 5.85069 25.3346 6.99996 25.3346H25C25.569 25.3346 26.1325 25.2225 26.6583 25.0048C27.184 24.787 27.6617 24.4678 28.0641 24.0654C28.4665 23.663 28.7857 23.1853 29.0034 22.6596C29.2212 22.1339 29.3333 21.5704 29.3333 21.0013V14.668ZM21 19.3346H24.3333C24.5985 19.3346 24.8529 19.44 25.0404 19.6275C25.2279 19.8151 25.3333 20.0694 25.3333 20.3346C25.3333 20.5999 25.2279 20.8542 25.0404 21.0417C24.8529 21.2293 24.5985 21.3346 24.3333 21.3346H21C20.7347 21.3346 20.4804 21.2293 20.2929 21.0417C20.1053 20.8542 20 20.5999 20 20.3346C20 20.0694 20.1053 19.8151 20.2929 19.6275C20.4804 19.44 20.7347 19.3346 21 19.3346Z" fill="url(#paint0_linear_2225_10861)"/>
<defs>
<linearGradient id="paint0_linear_2225_10861" x1="2.66663" y1="16.0013" x2="24.322" y2="26.4186" gradientUnits="userSpaceOnUse">
<stop stop-color="#D52274"/>
<stop offset="0.5625" stop-color="#F44D29"/>
<stop offset="1" stop-color="#FD7E14"/>
</linearGradient>
</defs>
</svg>
