<svg width="177" height="40" viewBox="0 0 177 40" fill="none" xmlns="http://www.w3.org/2000/svg">
<g clip-path="url(#clip0_3135_14175)">
<path d="M176.643 0H0.35682C0.159754 0 0 0.159538 0 0.356338V39.6437C0 39.8405 0.159754 40 0.35682 40H176.643C176.84 40 177 39.8405 177 39.6437V0.356338C177 0.159538 176.84 0 176.643 0Z" fill="#08BF5B"/>
<path d="M75.3923 3.33984H3.34473V36.6639H75.3923V3.33984Z" fill="white"/>
<path d="M22.785 25.8929C22.1832 25.8921 21.5952 25.7131 21.0952 25.3785C20.5952 25.044 20.2058 24.569 19.976 24.0135C19.7463 23.458 19.6867 22.847 19.8046 22.2577C19.9225 21.6683 20.2127 21.1271 20.6386 20.7025C21.0644 20.2778 21.6068 19.9887 22.1971 19.8718C22.7874 19.7548 23.3992 19.8153 23.9551 20.0455C24.511 20.2757 24.9861 20.6653 25.3204 21.165C25.6546 21.6648 25.833 22.2523 25.833 22.8533C25.833 23.2528 25.7542 23.6484 25.6009 24.0175C25.4477 24.3866 25.2231 24.7218 24.94 25.0041C24.6569 25.2864 24.3209 25.5103 23.9511 25.6628C23.5813 25.8153 23.1851 25.8935 22.785 25.8929ZM22.8237 16.744C22.0065 16.7303 21.1949 16.8798 20.4363 17.1836C19.6778 17.4875 18.9877 17.9397 18.4066 18.5136C17.8255 19.0875 17.3651 19.7716 17.0524 20.5257C16.7397 21.2798 16.5811 22.0886 16.5858 22.9048C16.5858 26.2535 19.1652 28.9797 22.3465 28.9797C23.307 29.0244 24.2511 28.7193 25.0033 28.1211L25.7943 27.5415V28.6406H28.9713V23.1581C28.9713 19.4445 26.3919 16.7569 22.8366 16.7569" fill="#08BF5B"/>
<path d="M36.8987 25.9014C36.295 25.9022 35.7046 25.7243 35.2022 25.39C34.6998 25.0558 34.3079 24.5803 34.0761 24.0236C33.8443 23.467 33.783 22.8542 33.8999 22.2627C34.0168 21.6713 34.3068 21.1277 34.7331 20.7008C35.1593 20.2739 35.7028 19.9829 36.2947 19.8644C36.8866 19.746 37.5004 19.8055 38.0585 20.0354C38.6166 20.2653 39.0938 20.6553 39.4299 21.1561C39.766 21.6569 39.9459 22.246 39.9467 22.8489C39.9473 23.2492 39.8689 23.6457 39.716 24.0157C39.5632 24.3858 39.3388 24.7221 39.0558 25.0055C38.7727 25.289 38.4366 25.514 38.0665 25.6677C37.6963 25.8214 37.2995 25.9008 36.8987 25.9014ZM37.3028 16.7439C36.3679 16.7435 35.4538 17.0199 34.6761 17.5382L33.8808 18.0319V12.1201H30.7339V22.4668C30.7339 26.2062 33.3133 28.9066 36.8557 28.9066C37.6707 28.9181 38.4798 28.7672 39.2358 28.4628C39.9917 28.1584 40.6794 27.7066 41.2585 27.1339C41.8377 26.5611 42.2967 25.8788 42.6088 25.1269C42.921 24.3749 43.0799 23.5684 43.0764 22.7544C43.0764 19.4959 40.411 16.7439 37.3028 16.7439Z" fill="#08BF5B"/>
<path d="M50.7718 25.9014C50.1681 25.9022 49.5777 25.7243 49.0753 25.39C48.5728 25.0558 48.1809 24.5803 47.9491 24.0236C47.7173 23.467 47.656 22.8542 47.773 22.2627C47.8899 21.6713 48.1798 21.1277 48.6061 20.7008C49.0324 20.2739 49.5758 19.9829 50.1678 19.8644C50.7597 19.746 51.3735 19.8055 51.9316 20.0354C52.4896 20.2653 52.9669 20.6553 53.303 21.1561C53.6391 21.6569 53.8189 22.246 53.8198 22.8489C53.8203 23.2492 53.7419 23.6457 53.5891 24.0157C53.4362 24.3858 53.2118 24.7221 52.9288 25.0055C52.6458 25.289 52.3096 25.514 51.9395 25.6677C51.5694 25.8214 51.1726 25.9008 50.7718 25.9014ZM51.1587 16.7439C50.2237 16.7435 49.3097 17.0199 48.532 17.5382L47.7538 18.0319V12.1201H44.6069V22.4668C44.6069 26.2062 47.1864 28.9066 50.7245 28.9066C51.5398 28.9186 52.3494 28.7682 53.1059 28.464C53.8623 28.1599 54.5505 27.7082 55.1301 27.1354C55.7097 26.5626 56.1691 25.8801 56.4815 25.1279C56.7939 24.3757 56.953 23.5688 56.9495 22.7544C56.9495 19.4959 54.3013 16.7439 51.1587 16.7439Z" fill="#08BF5B"/>
<path d="M61.8031 17.0957H58.6863V28.6359H61.8031V17.0957Z" fill="#08BF5B"/>
<path d="M70.1646 19.951V17.2162H67.0005V12.1201H63.8923V24.1412C63.8923 26.0731 64.2535 27.0305 65.2852 27.8162C66.1794 28.4601 66.9103 28.6276 68.8534 28.6276H70.1646V25.8885H69.1802C67.4906 25.8885 67.0005 25.4205 67.0005 23.832V19.9681L70.1646 19.951Z" fill="#08BF5B"/>
<path d="M15.5626 16.6965C11.96 16.6965 9.43213 19.4184 9.43213 23.1792V28.6402H12.5575V23.557C12.5575 21.243 13.6839 19.8606 15.5669 19.8606C15.6026 19.8563 15.6386 19.8563 15.6743 19.8606H15.7603V16.6836H15.5626" fill="#08BF5B"/>
<path d="M143.885 18.2549C143.883 18.9818 143.736 19.7011 143.454 20.3708C143.171 21.0405 142.757 21.6473 142.237 22.1556C141.716 22.664 141.1 23.0638 140.423 23.3316C139.747 23.5995 139.024 23.7302 138.296 23.7159H135.906V28.1036C135.906 28.2459 135.849 28.3824 135.748 28.4831C135.647 28.5837 135.511 28.6402 135.368 28.6402H132.948C132.805 28.6402 132.669 28.5837 132.568 28.4831C132.467 28.3824 132.41 28.2459 132.41 28.1036V13.3306C132.41 13.1883 132.467 13.0518 132.568 12.9511C132.669 12.8505 132.805 12.7939 132.948 12.7939H138.3C139.028 12.7803 139.751 12.9113 140.427 13.1794C141.103 13.4475 141.72 13.8473 142.24 14.3555C142.76 14.8638 143.174 15.4703 143.457 16.1397C143.74 16.8092 143.887 17.5282 143.889 18.2549M140.269 18.2979C140.282 18.0494 140.244 17.801 140.158 17.5676C140.072 17.3343 139.939 17.1208 139.768 16.9402C139.596 16.7595 139.39 16.6155 139.162 16.5168C138.933 16.4181 138.687 16.3667 138.438 16.3659H136.039V20.2298H138.429C138.678 20.229 138.924 20.1776 139.153 20.0789C139.382 19.9802 139.588 19.8362 139.759 19.6556C139.93 19.4749 140.063 19.2614 140.149 19.0281C140.235 18.7947 140.273 18.5463 140.26 18.2979" fill="white"/>
<path d="M156.726 17.6025V28.3355C156.726 28.4095 156.696 28.4805 156.644 28.5329C156.592 28.5852 156.521 28.6146 156.446 28.6146H153.6C153.526 28.6146 153.455 28.5852 153.403 28.5329C153.35 28.4805 153.321 28.4095 153.321 28.3355V27.6014C152.894 28.068 152.369 28.434 151.783 28.6731C151.197 28.9122 150.565 29.0183 149.933 28.9838C146.958 28.9838 144.504 26.3778 144.504 22.9733C144.504 19.5688 146.958 16.9628 149.933 16.9628C150.565 16.9301 151.196 17.0371 151.782 17.276C152.367 17.515 152.893 17.8801 153.321 18.3452V17.6025C153.32 17.5655 153.327 17.5287 153.341 17.4944C153.355 17.46 153.375 17.4287 153.401 17.4024C153.427 17.376 153.458 17.3551 153.492 17.3408C153.527 17.3265 153.563 17.3191 153.6 17.3191H156.446C156.483 17.3191 156.52 17.3265 156.554 17.3408C156.589 17.3551 156.62 17.376 156.646 17.4024C156.672 17.4287 156.692 17.46 156.706 17.4944C156.72 17.5287 156.726 17.5655 156.726 17.6025ZM153.183 22.9905C153.216 22.6339 153.174 22.2744 153.06 21.935C152.946 21.5955 152.762 21.2836 152.52 21.0191C152.278 20.7546 151.984 20.5434 151.656 20.3988C151.328 20.2543 150.973 20.1796 150.615 20.1796C150.256 20.1796 149.902 20.2543 149.573 20.3988C149.245 20.5434 148.951 20.7546 148.709 21.0191C148.468 21.2836 148.284 21.5955 148.17 21.935C148.055 22.2744 148.013 22.6339 148.046 22.9905C148.013 23.3471 148.055 23.7065 148.17 24.046C148.284 24.3854 148.468 24.6973 148.709 24.9618C148.951 25.2263 149.245 25.4376 149.573 25.5821C149.902 25.7267 150.256 25.8013 150.615 25.8013C150.973 25.8013 151.328 25.7267 151.656 25.5821C151.984 25.4376 152.278 25.2263 152.52 24.9618C152.762 24.6973 152.946 24.3854 153.06 24.046C153.174 23.7065 153.216 23.3471 153.183 22.9905Z" fill="white"/>
<path d="M167.078 17.6023L164.61 23.9391L162.001 17.6023C161.966 17.5168 161.907 17.4437 161.83 17.3924C161.753 17.3411 161.663 17.314 161.571 17.3146H158.51C158.464 17.3146 158.419 17.326 158.378 17.3477C158.337 17.3693 158.303 17.4007 158.277 17.4389C158.252 17.4771 158.236 17.5211 158.232 17.5668C158.227 17.6125 158.234 17.6586 158.252 17.701L162.766 28.6874L161.107 32.8561C161.09 32.8983 161.084 32.944 161.088 32.9891C161.093 33.0342 161.109 33.0775 161.135 33.1152C161.16 33.1528 161.194 33.1837 161.234 33.2051C161.274 33.2266 161.319 33.2379 161.364 33.2382H164.275C164.368 33.2385 164.458 33.2108 164.535 33.1587C164.612 33.1066 164.671 33.0326 164.705 32.9463L170.758 17.6839C170.775 17.6417 170.781 17.596 170.776 17.5509C170.771 17.5057 170.755 17.4625 170.73 17.4248C170.704 17.3872 170.67 17.3563 170.63 17.3348C170.59 17.3134 170.545 17.302 170.5 17.3018H167.491C167.398 17.3026 167.308 17.3308 167.231 17.3827C167.155 17.4347 167.095 17.5081 167.061 17.5937" fill="white"/>
<path d="M91.5265 28.0944C91.5265 28.1655 91.5125 28.2358 91.4853 28.3014C91.458 28.3671 91.4181 28.4267 91.3678 28.4769C91.3175 28.5272 91.2578 28.567 91.1921 28.5942C91.1264 28.6214 91.0559 28.6354 90.9848 28.6354H81.4109C81.3377 28.6355 81.2652 28.6208 81.1979 28.592C81.1307 28.5632 81.07 28.521 81.0196 28.4679C80.9711 28.4187 80.9329 28.3603 80.907 28.2962C80.8812 28.2321 80.8683 28.1635 80.8692 28.0944V13.33C80.8692 13.1865 80.9262 13.0489 81.0278 12.9475C81.1294 12.8461 81.2672 12.7891 81.4109 12.7891H83.9559C84.0995 12.7891 84.2373 12.8461 84.3389 12.9475C84.4405 13.0489 84.4976 13.1865 84.4976 13.33V25.0248H90.9848C91.1285 25.0248 91.2663 25.0818 91.3678 25.1832C91.4694 25.2846 91.5265 25.4222 91.5265 25.5657V28.0944Z" fill="white"/>
<path d="M97.1927 28.0907C97.1915 28.2346 97.1335 28.3722 97.0312 28.4735C96.929 28.5748 96.7907 28.6317 96.6467 28.6317H94.1188C94.0475 28.6323 93.9769 28.6186 93.9109 28.5917C93.8449 28.5647 93.785 28.5249 93.7345 28.4745C93.6841 28.4242 93.6443 28.3643 93.6172 28.2984C93.5902 28.2325 93.5766 28.1619 93.5772 28.0907V13.3349C93.5772 13.1922 93.6336 13.0552 93.7343 12.9539C93.835 12.8526 93.9716 12.7951 94.1145 12.794H96.651C96.7223 12.7934 96.793 12.807 96.8589 12.834C96.9249 12.861 96.9849 12.9008 97.0353 12.9511C97.0857 13.0015 97.1256 13.0613 97.1526 13.1272C97.1796 13.1931 97.1932 13.2637 97.1927 13.3349V28.0907Z" fill="white"/>
<path d="M113.452 28.0993C113.452 28.2428 113.395 28.3804 113.293 28.4818C113.191 28.5833 113.054 28.6402 112.91 28.6402H110.412C110.364 28.6462 110.315 28.6462 110.266 28.6402H110.21L110.103 28.5801C110.049 28.5449 110.002 28.4997 109.965 28.4471L103.203 19.002V28.0993C103.203 28.2428 103.146 28.3804 103.044 28.4818C102.942 28.5833 102.805 28.6402 102.661 28.6402H100.142C99.9985 28.6391 99.8613 28.5818 99.76 28.4806C99.6587 28.3794 99.6012 28.2424 99.6001 28.0993V13.3349C99.6012 13.1918 99.6587 13.0548 99.76 12.9536C99.8613 12.8524 99.9985 12.7951 100.142 12.7939H102.747H102.846L102.988 12.8626C103.004 12.8681 103.018 12.8769 103.031 12.8884L103.069 12.9227C103.084 12.9325 103.096 12.9458 103.104 12.9614L103.151 13.0172L109.845 22.3507V13.3349C109.846 13.1918 109.903 13.0548 110.005 12.9536C110.106 12.8524 110.243 12.7951 110.386 12.7939H112.906C113.049 12.7939 113.187 12.8509 113.289 12.9524C113.39 13.0538 113.447 13.1914 113.447 13.3349L113.452 28.0993Z" fill="white"/>
<path d="M126.512 15.8593C126.513 15.9312 126.499 16.0026 126.471 16.069C126.444 16.1355 126.403 16.1957 126.352 16.2462C126.3 16.2967 126.24 16.3363 126.173 16.3628C126.106 16.3892 126.034 16.402 125.962 16.4003H119.47V18.8903H125.962C126.106 18.8903 126.243 18.9473 126.345 19.0488C126.447 19.1502 126.504 19.2878 126.504 19.4313V21.96C126.506 22.0325 126.494 22.1047 126.467 22.1723C126.441 22.2399 126.402 22.3016 126.351 22.3536C126.301 22.4057 126.24 22.4471 126.173 22.4754C126.106 22.5036 126.035 22.5181 125.962 22.5181H119.47V25.0211H125.962C126.106 25.0211 126.243 25.0781 126.345 25.1795C126.447 25.2809 126.504 25.4185 126.504 25.562V28.095C126.504 28.1664 126.491 28.2372 126.464 28.3033C126.437 28.3695 126.397 28.4296 126.346 28.4803C126.296 28.531 126.236 28.5712 126.17 28.5987C126.104 28.6261 126.033 28.6403 125.962 28.6402H116.392C116.255 28.6406 116.123 28.5883 116.023 28.4943L116.001 28.4728C115.905 28.3703 115.851 28.2354 115.851 28.095V13.3349C115.851 13.1914 115.908 13.0538 116.009 12.9524C116.111 12.8509 116.249 12.7939 116.392 12.7939H125.962C126.033 12.7939 126.104 12.8081 126.17 12.8355C126.236 12.863 126.296 12.9032 126.346 12.9539C126.397 13.0046 126.437 13.0647 126.464 13.1309C126.491 13.197 126.504 13.2678 126.504 13.3392L126.512 15.8593Z" fill="white"/>
</g>
<defs>
<clipPath id="clip0_3135_14175">
<rect width="177" height="40" fill="white"/>
</clipPath>
</defs>
</svg>
