<svg width="119" height="40" viewBox="0 0 119 40" fill="none" xmlns="http://www.w3.org/2000/svg">
<g clip-path="url(#clip0_3135_14193)">
<path d="M71.8152 10.8525H6.9165V28.9242H71.8152V10.8525Z" fill="#003D69"/>
<path d="M-0.000732422 0.000976562V40.0002H119V0.000976562H-0.000732422ZM117.707 38.7065H1.29293V1.29385H117.707V38.7065Z" fill="#003D69"/>
<path d="M73.2932 10.8633C76.0144 10.8706 78.7356 10.8633 81.4551 10.8633C82.8541 10.8894 84.3045 11.2014 85.4365 12.0655C86.2527 12.6544 86.8102 13.5544 87.0689 14.5198C87.3603 15.6036 87.3734 16.7445 87.2526 17.8545C87.1244 18.9162 86.793 20.0008 86.0479 20.7947C85.2096 21.6678 84.0253 22.1178 82.8516 22.3105C81.8241 22.5 80.7769 22.4273 79.7387 22.4412C78.8809 22.4412 78.0247 22.4412 77.1677 22.4412C77.1677 24.605 77.1677 26.7688 77.1677 28.9325C75.8757 28.9325 74.5828 28.9325 73.2908 28.9325C73.2924 22.91 73.2932 16.8869 73.2932 10.8633ZM77.1693 14.0338C77.1693 15.7958 77.1693 17.5577 77.1693 19.3197C78.2973 19.3197 79.4245 19.3197 80.5524 19.3197C81.3237 19.3376 82.1546 19.1816 82.7398 18.6434C83.2753 18.1534 83.4336 17.3955 83.4483 16.6988C83.4483 16.0495 83.3593 15.3406 82.9161 14.8326C82.415 14.2609 81.6225 14.0616 80.8895 14.0314C79.6497 14.0281 78.4091 14.0265 77.1693 14.0305V14.0338Z" fill="#003D69"/>
<path d="M91.7483 13.3894C92.7106 13.0472 93.7422 12.9328 94.7592 12.9459C95.9002 12.9247 97.0351 13.117 98.1056 13.5127C98.6818 13.7308 99.2621 14.0028 99.68 14.4707C100.347 15.1707 100.543 16.1769 100.551 17.1129C100.551 19.2908 100.551 21.4687 100.551 23.6467C100.561 24.2412 100.523 24.8489 100.667 25.4304C100.739 25.7571 101.028 25.958 101.305 26.1034C101.305 26.2773 101.305 26.4513 101.305 26.6269C99.9991 26.6269 98.6911 26.6269 97.3808 26.6269C97.1694 26.1434 97.1057 25.615 97.0543 25.0939C96.3957 25.7522 95.6325 26.319 94.769 26.6767C93.5279 27.1495 92.1617 27.1783 90.9019 26.7584C89.9551 26.426 89.0956 25.7473 88.6982 24.8081C88.2974 23.8451 88.2835 22.7474 88.5349 21.7453C88.8051 20.6966 89.5894 19.8228 90.5672 19.3768C91.989 18.7136 93.5822 18.6516 95.1118 18.4392C95.6537 18.3494 96.243 18.262 96.6625 17.8798C97.0584 17.5041 97.0111 16.8564 96.7442 16.4211C96.4626 16.0201 95.9517 15.8935 95.4946 15.8232C94.7502 15.731 93.9512 15.7032 93.2574 16.0315C92.6583 16.3149 92.3988 16.9879 92.291 17.6013C91.128 17.6013 89.9657 17.6013 88.8034 17.6013C88.8671 16.6506 89.1128 15.6844 89.6735 14.9003C90.1836 14.1857 90.9361 13.6793 91.7483 13.3894ZM92.9725 21.2724C92.4828 21.4946 92.0747 21.9528 92.0168 22.4975C91.9303 23.075 92.0478 23.7684 92.5579 24.1245C93.1823 24.5826 94.0222 24.5377 94.7388 24.3629C95.4734 24.1498 96.2585 23.7684 96.6046 23.0374C97.06 22.1439 96.9205 21.1164 96.9482 20.1503C95.7386 20.8894 94.2393 20.7065 92.9701 21.2724H92.9725Z" fill="#003D69"/>
<path d="M101.648 12.9658C102.967 12.9658 104.286 12.9658 105.605 12.9658C106.119 14.6183 106.634 16.2703 107.149 17.9217C107.608 16.2719 108.047 14.6172 108.509 12.9666C109.765 12.9666 111.021 12.9666 112.278 12.9666C110.825 18.2811 109.364 23.5931 107.93 28.9124C106.672 28.9124 105.415 28.9124 104.159 28.9124C104.544 27.5036 104.919 26.0931 105.302 24.685C104.085 20.7784 102.867 16.872 101.648 12.9658Z" fill="#003D69"/>
<path d="M19.4434 14.322C18.7089 13.5379 17.6274 13.1639 16.5713 13.1385C14.4492 13.1345 12.3222 13.1385 10.1984 13.1385C10.1846 13.6376 10.1927 14.1366 10.1927 14.6356C12.101 14.6356 14.0087 14.6356 15.9159 14.6356C16.5598 14.6593 17.2552 14.7442 17.7711 15.1689C18.2526 15.552 18.4501 16.1882 18.4436 16.786C18.451 17.3675 18.3253 18.0111 17.8723 18.4195C17.354 18.8605 16.6602 19.0222 15.995 19.0655C14.6793 19.0655 13.3636 19.0655 12.0479 19.0655C12.0414 17.9221 12.0479 16.786 12.0479 15.6467C11.4284 15.6467 10.8089 15.6467 10.1895 15.6467C10.1895 19.0873 10.1895 22.5279 10.1895 25.9685C10.8081 25.9685 11.4268 25.9685 12.0455 25.9685C12.0455 24.1603 12.0455 22.3526 12.0455 20.5454H16.4864C17.3793 20.5144 18.3163 20.3192 19.0166 19.7287C19.9683 18.912 20.4392 17.6052 20.2906 16.3654C20.2327 15.6173 19.9634 14.8708 19.4434 14.322Z" fill="white"/>
<path d="M33.8711 16.8731C32.8451 16.3153 31.62 16.2361 30.488 16.4378C29.4654 16.631 28.5544 17.2055 27.939 18.0451C27.113 19.1485 26.8714 20.5868 26.9522 21.936C27.0142 23.0933 27.3995 24.28 28.2459 25.1041C29.0164 25.9208 30.1566 26.2949 31.2593 26.2908C32.4501 26.3226 33.7258 26.0515 34.6146 25.207C35.55 24.2857 36.0168 22.9732 36.0952 21.6795C36.1548 20.7085 36.0952 19.6998 35.6993 18.7981C35.3484 17.9618 34.6669 17.2937 33.8711 16.8731ZM33.6646 23.9313C33.4988 24.1878 33.2798 24.4055 33.0223 24.5696C32.7648 24.7336 32.475 24.8402 32.1726 24.8819C31.2862 25.0453 30.2602 24.9081 29.5983 24.2473C28.9568 23.5654 28.7005 22.6098 28.6589 21.6951C28.6254 20.639 28.836 19.5348 29.4538 18.6593C29.8203 18.1341 30.4333 17.8246 31.0585 17.7478C31.8657 17.6449 32.761 17.7715 33.3944 18.3195C33.9453 18.799 34.2106 19.5209 34.3134 20.2282C34.4693 21.4811 34.3134 22.8189 33.6646 23.9313Z" fill="white"/>
<path d="M26.1572 16.4305C25.6446 16.3848 25.1076 16.3725 24.6293 16.5938C23.9209 16.9164 23.3683 17.5143 22.9414 18.1522C22.948 17.6392 22.9414 17.1263 22.9414 16.6134H21.3523C21.3523 19.7312 21.3523 22.8481 21.3523 25.9641C21.91 25.9641 22.4672 25.9641 23.0239 25.9641C23.0239 24.1559 23.0239 22.348 23.0239 20.5403C23.0283 20.1516 23.1206 19.769 23.2938 19.4211C23.4669 19.0731 23.7164 18.7689 24.0237 18.5311C24.635 18.0835 25.4382 17.997 26.1695 18.104C26.1613 17.5445 26.1866 16.9891 26.1572 16.4305Z" fill="white"/>
<path d="M68.1006 24.7039C67.7366 24.7422 67.366 24.7676 67.0012 24.6941C66.8579 24.6618 66.7308 24.5795 66.6426 24.4621C66.5544 24.3446 66.5108 24.1996 66.5196 24.0529C66.5196 22.0019 66.5196 19.9508 66.5196 17.8997H68.103C68.103 17.4709 68.103 17.0413 68.103 16.6125H66.5188C66.5188 15.7411 66.5188 14.8697 66.5188 13.999H64.8048C64.8048 14.8697 64.8048 15.7411 64.8048 16.6125H63.4883C63.4883 17.0421 63.4883 17.4709 63.4883 17.9005H64.8048C64.8048 19.8697 64.8048 21.838 64.8048 23.8071C64.8203 24.3788 64.8489 24.9905 65.1835 25.4781C65.4284 25.8734 65.9083 26.0327 66.349 26.089C66.9351 26.1323 67.5333 26.1201 68.103 25.9608C68.0989 25.541 68.1006 25.122 68.1006 24.7039Z" fill="white"/>
<path d="M50.6113 17.0985C49.8514 16.4166 48.7561 16.3357 47.7856 16.4354C47.313 16.495 46.8577 16.6514 46.4481 16.8948C46.0385 17.1381 45.6834 17.4633 45.4048 17.8499C45.151 17.4277 44.8457 17.0144 44.4058 16.7727C43.6639 16.3643 42.7661 16.33 41.9491 16.4803C41.0667 16.6477 40.3632 17.2603 39.8033 17.9283C39.7976 17.4898 39.8033 17.0504 39.8033 16.6118H38.1709C38.1709 19.7284 38.1709 22.845 38.1709 25.9617C38.7251 25.9617 39.2793 25.9617 39.8335 25.9617C39.8335 24.3184 39.8335 22.6749 39.8335 21.0311C39.8335 20.4708 39.88 19.9016 40.0636 19.369C40.4481 18.1734 41.9205 17.5216 43.0836 17.9381C43.2539 17.9966 43.4086 18.0932 43.5359 18.2206C43.6632 18.348 43.7597 18.5028 43.8181 18.6732C43.9814 19.1698 43.9773 19.6998 43.9814 20.216C43.9814 22.132 43.9814 24.0481 43.9814 25.9641C44.5454 25.9641 45.1093 25.9641 45.6742 25.9641C45.6742 24.1031 45.6742 22.2417 45.6742 20.3802C45.6848 19.7758 45.7958 19.1322 46.1884 18.6511C46.9001 17.8214 48.2288 17.578 49.1764 18.1227C49.6482 18.3865 49.7576 18.9729 49.7706 19.4687C49.7804 21.633 49.7706 23.7973 49.7755 25.9625H51.5009C51.5009 23.8009 51.5009 21.6387 51.5009 19.476C51.4699 18.6226 51.2749 17.6948 50.6113 17.0985Z" fill="white"/>
<path d="M62.5497 20.5388C62.4934 19.3709 62.0772 18.1662 61.1761 17.3838C60.262 16.5246 58.9177 16.2069 57.7016 16.4527C56.8038 16.6063 56.021 17.1535 55.453 17.8485C55.4464 17.4491 55.453 17.0498 55.453 16.6504C54.9069 16.6504 54.3609 16.6504 53.8157 16.6504C53.8157 20.373 53.8157 24.0962 53.8157 27.8199C54.3674 27.8199 54.92 27.8199 55.4717 27.8199C55.4717 26.8562 55.4717 25.8925 55.4717 24.9295C55.8039 25.2913 56.15 25.6572 56.5915 25.8884C57.3155 26.2771 58.1676 26.3221 58.9699 26.2404C60.1648 26.0844 61.2822 25.3575 61.8633 24.2941C62.4967 23.1589 62.6199 21.8137 62.5497 20.5388ZM60.5297 23.2013C60.213 24.0181 59.4939 24.7041 58.6165 24.856C57.7905 24.9949 56.856 24.8168 56.2553 24.1977C55.6546 23.5787 55.4472 22.6909 55.4211 21.8529C55.3991 20.8516 55.484 19.7964 55.9965 18.9127C56.1627 18.6233 56.391 18.3744 56.665 18.1841C56.939 17.9937 57.2517 17.8665 57.5808 17.8118C58.3366 17.686 59.1805 17.7954 59.7845 18.3018C60.3762 18.8 60.6652 19.5669 60.7835 20.3134C60.9182 21.2731 60.8757 22.285 60.5297 23.2013Z" fill="white"/>
<path d="M78.4353 5.02331H77.4558C77.4558 5.98378 77.4379 6.94425 77.5154 7.90227C77.3595 6.91158 76.9743 5.98133 76.6862 5.02658C76.4348 5.02167 76.1839 5.02167 75.9336 5.02658C75.6488 5.98215 75.2521 6.90995 75.1101 7.90309C75.1101 7.40488 75.1917 6.90995 75.1713 6.41174C75.1574 6.0287 75.2529 5.55908 74.9265 5.27568C74.4914 4.9106 73.7618 4.92449 73.3463 5.3157C73.2114 5.44561 73.1321 5.62289 73.1252 5.81015C73.1184 5.99741 73.1845 6.18001 73.3096 6.31945C73.5267 6.57591 73.8728 6.65105 74.1935 6.66738C74.1935 7.34608 74.1935 8.02478 74.1935 8.7043C74.1837 8.92971 74.2898 9.18535 74.5282 9.24578C74.7893 9.30377 75.0628 9.2613 75.3305 9.27274C75.6569 8.34711 75.9851 7.42149 76.3148 6.49587C76.5972 7.41958 76.8984 8.33758 77.1694 9.26457C77.4877 9.26457 77.8223 9.32174 78.1308 9.22292C78.3806 9.14778 78.4336 8.85539 78.4353 8.62997C78.4353 7.4253 78.4353 6.22471 78.4353 5.02331ZM74.1094 6.11364C74.0521 6.11364 73.9961 6.09663 73.9485 6.06478C73.9008 6.03292 73.8637 5.98763 73.8418 5.93466C73.8198 5.88168 73.8141 5.82338 73.8253 5.76714C73.8364 5.71089 73.864 5.65923 73.9046 5.61868C73.9451 5.57813 73.9967 5.55052 74.0529 5.53933C74.1091 5.52815 74.1674 5.53389 74.2203 5.55583C74.2733 5.57778 74.3185 5.61494 74.3504 5.66262C74.3822 5.7103 74.3992 5.76636 74.3992 5.8237C74.3992 5.86178 74.3917 5.89948 74.3771 5.93466C74.3626 5.96983 74.3412 6.00179 74.3143 6.02872C74.2874 6.05564 74.2555 6.077 74.2203 6.09157C74.1852 6.10614 74.1475 6.11364 74.1094 6.11364Z" fill="#003D69"/>
<path d="M83.179 5.89751C83.5055 5.85177 83.7797 5.65249 83.9854 5.39849C83.7405 5.23514 83.4957 5.08405 83.2508 4.92969C83.0827 5.09303 82.8476 5.22616 82.615 5.11672C82.038 4.89457 81.3393 4.83168 80.799 5.18287C80.3297 5.45974 80.0758 5.98898 79.9958 6.51169C80.75 6.53864 81.5523 6.43001 82.2608 6.74854C82.6346 6.91188 82.4616 7.37333 82.4999 7.69022C82.0306 7.65837 81.4919 7.94586 81.4389 8.44978C81.3793 8.988 81.9384 9.39718 82.4395 9.35716C82.9007 9.39228 83.4271 9.10153 83.4745 8.60496C83.4916 8.09042 83.4745 7.57506 83.4818 7.05971C83.493 6.91253 83.463 6.76515 83.3953 6.63403C83.3275 6.50292 83.2247 6.39326 83.0982 6.31731C82.5269 5.97673 81.8347 5.97591 81.1908 5.90894C81.3132 5.78317 81.4536 5.66392 81.6372 5.64187C82.1718 5.55448 82.6379 6.02655 83.179 5.89751ZM82.6795 8.50205C82.6795 8.55939 82.6625 8.61545 82.6307 8.66313C82.5988 8.71081 82.5536 8.74797 82.5006 8.76992C82.4477 8.79186 82.3894 8.7976 82.3332 8.78642C82.277 8.77523 82.2254 8.74762 82.1849 8.70707C82.1443 8.66652 82.1167 8.61486 82.1056 8.55861C82.0944 8.50237 82.1001 8.44407 82.1221 8.39109C82.144 8.33812 82.1811 8.29283 82.2288 8.26098C82.2764 8.22912 82.3324 8.21211 82.3897 8.21211C82.4666 8.21211 82.5403 8.24266 82.5946 8.29703C82.649 8.35141 82.6795 8.42515 82.6795 8.50205Z" fill="#003D69"/>
<path d="M89.4742 6.16833C89.4742 5.7371 89.1477 5.38754 88.7886 5.18826C88.223 4.89424 87.5537 4.89505 86.9375 4.98326C86.2152 5.0878 85.523 5.59009 85.3582 6.32759C85.6939 6.32759 86.0302 6.32759 86.367 6.32759C86.6404 5.65951 87.526 5.45941 88.134 5.7665C88.2507 5.82924 88.3479 5.92296 88.4149 6.03736C88.4818 6.15177 88.516 6.28242 88.5136 6.41498C88.5136 6.98669 88.5193 7.5584 88.5136 8.12521C88.5258 8.33511 88.3715 8.54827 88.152 8.55317C87.69 8.59809 87.2248 8.56379 86.7645 8.57441C86.7645 8.38493 86.7645 8.19545 86.7645 8.00678C87.2166 8.04353 87.7643 7.7977 87.841 7.30766C87.9226 6.75719 87.3513 6.33494 86.8444 6.36516C86.3955 6.33576 85.8577 6.59711 85.8087 7.08878C85.7956 7.81485 85.8087 8.54174 85.803 9.26781C86.5049 9.26781 87.2074 9.26781 87.9104 9.26781C88.2989 9.26781 88.7168 9.30864 89.0751 9.12161C89.3551 8.98604 89.4783 8.66016 89.4758 8.36369C89.4758 7.63435 89.4742 6.90093 89.4742 6.16833ZM86.5873 7.21292C86.5873 7.15558 86.6043 7.09952 86.6362 7.05184C86.668 7.00416 86.7133 6.967 86.7662 6.94506C86.8192 6.92311 86.8774 6.91737 86.9336 6.92856C86.9898 6.93974 87.0414 6.96736 87.082 7.00791C87.1225 7.04845 87.1501 7.10012 87.1613 7.15636C87.1724 7.2126 87.1667 7.2709 87.1448 7.32388C87.1228 7.37686 87.0857 7.42214 87.0381 7.454C86.9904 7.48586 86.9344 7.50286 86.8771 7.50286C86.8003 7.50286 86.7265 7.47231 86.6722 7.41794C86.6179 7.36357 86.5873 7.28982 86.5873 7.21292Z" fill="#003D69"/>
<path d="M92.3563 6.11601C92.299 6.11601 92.2429 6.09901 92.1953 6.06715C92.1476 6.03529 92.1104 5.99 92.0885 5.93703C92.0665 5.88405 92.0608 5.82575 92.072 5.76951C92.0832 5.71327 92.1108 5.6616 92.1513 5.62105C92.1919 5.58051 92.2435 5.55289 92.2998 5.5417C92.356 5.53052 92.4143 5.53626 92.4673 5.5582C92.5203 5.58015 92.5656 5.61731 92.5974 5.66499C92.6293 5.71267 92.6463 5.76873 92.6463 5.82607C92.6463 5.90297 92.6157 5.97671 92.5614 6.03109C92.507 6.08546 92.4332 6.11601 92.3563 6.11601Z" fill="#003D69"/>
<path d="M100.044 8.24983C99.8808 7.85208 99.4278 7.67812 99.0246 7.69445C99.0246 6.80476 99.0246 5.91508 99.0246 5.02539C98.6981 5.02539 98.3716 5.02539 98.0452 5.02539C98.0452 6.14349 98.0452 7.26159 98.0452 8.37969C98.0452 8.65084 98.1113 8.9514 98.3374 9.12291C98.5535 9.28173 98.8151 9.36643 99.0832 9.36437C99.3513 9.3623 99.6116 9.2736 99.8253 9.11147C100.06 8.90321 100.184 8.54303 100.044 8.24983ZM99.1258 8.79213C99.0685 8.79213 99.0125 8.77513 98.9648 8.74327C98.9172 8.71141 98.88 8.66613 98.8581 8.61315C98.8362 8.56017 98.8304 8.50187 98.8416 8.44563C98.8528 8.38939 98.8804 8.33773 98.9209 8.29718C98.9614 8.25663 99.0131 8.22902 99.0693 8.21783C99.1255 8.20664 99.1837 8.21238 99.2367 8.23433C99.2896 8.25627 99.3349 8.29343 99.3667 8.34111C99.3986 8.38879 99.4156 8.44485 99.4156 8.50219C99.4154 8.54016 99.4079 8.57774 99.3932 8.61277C99.3786 8.64781 99.3573 8.67962 99.3303 8.7064C99.3034 8.73317 99.2715 8.75437 99.2364 8.7688C99.2013 8.78324 99.1637 8.79061 99.1258 8.7905V8.79213Z" fill="#003D69"/>
<path d="M106.757 5.02387H105.778C105.778 5.98516 105.764 6.94563 105.834 7.90447C105.686 6.91215 105.293 5.98353 105.009 5.02796C104.757 5.02224 104.506 5.02142 104.256 5.02796C103.975 5.98353 103.568 6.90643 103.439 7.90284C103.428 7.40382 103.521 6.90806 103.495 6.40823C103.488 6.00885 103.576 5.50983 103.203 5.23704C102.745 4.91035 102.021 4.93485 101.629 5.35792C101.511 5.49015 101.446 5.66106 101.446 5.83815C101.446 6.01524 101.511 6.18615 101.629 6.31839C101.845 6.57647 102.194 6.65161 102.515 6.66958C102.515 7.35073 102.515 8.03269 102.515 8.71139C102.507 8.93354 102.613 9.18428 102.842 9.2439C103.105 9.3027 103.378 9.26023 103.647 9.27167C103.973 8.34713 104.295 7.41852 104.634 6.4948C104.913 7.41688 105.216 8.33243 105.486 9.2586C105.801 9.2586 106.133 9.31414 106.441 9.22022C106.694 9.14834 106.75 8.85514 106.751 8.62727C106.757 7.42832 106.757 6.2261 106.757 5.02387ZM102.431 6.11421C102.374 6.11421 102.318 6.0972 102.27 6.06534C102.223 6.03348 102.186 5.9882 102.164 5.93522C102.142 5.88224 102.136 5.82394 102.147 5.7677C102.158 5.71146 102.186 5.6598 102.226 5.61925C102.267 5.5787 102.319 5.55109 102.375 5.5399C102.431 5.52871 102.489 5.53445 102.542 5.5564C102.595 5.57834 102.64 5.61551 102.672 5.66319C102.704 5.71087 102.721 5.76692 102.721 5.82427C102.721 5.86234 102.714 5.90004 102.699 5.93522C102.684 5.9704 102.663 6.00236 102.636 6.02928C102.609 6.05621 102.577 6.07756 102.542 6.09213C102.507 6.10671 102.469 6.11421 102.431 6.11421Z" fill="#003D69"/>
<path d="M111.328 5.02415C111.328 6.06221 111.328 7.10027 111.328 8.13833C111.328 8.19032 111.318 8.24184 111.298 8.28985C111.278 8.33785 111.249 8.38135 111.212 8.41777C111.175 8.45419 111.13 8.48278 111.082 8.50184C111.034 8.5209 110.982 8.53004 110.93 8.52873C110.472 8.54751 110.013 8.52873 109.554 8.53526C109.571 8.24206 109.503 7.9268 109.619 7.64993C109.864 7.37469 110.272 7.53885 110.594 7.49475C110.594 7.25627 110.594 7.01778 110.594 6.7793C110.241 6.7401 109.808 6.89527 109.523 6.62167C109.884 6.5939 110.281 6.45097 110.446 6.10223C110.663 5.69387 110.374 5.1532 109.934 5.06009C109.508 4.97842 108.997 4.98903 108.677 5.32226C108.356 5.65548 108.499 6.16104 108.473 6.58083C108.44 6.93121 108.799 7.15254 109.1 7.20645C108.829 7.27097 108.591 7.51517 108.595 7.80347C108.595 8.29351 108.595 8.78355 108.595 9.27358C109.453 9.27358 110.309 9.27358 111.169 9.27358C111.468 9.27358 111.797 9.21968 112.03 9.01305C112.261 8.81948 112.299 8.49606 112.309 8.21429C112.309 7.15091 112.309 6.08916 112.309 5.02905L111.328 5.02415ZM109.253 5.82455C109.253 5.76717 109.27 5.71108 109.302 5.66338C109.334 5.61568 109.379 5.57852 109.432 5.5566C109.485 5.53468 109.543 5.52899 109.6 5.54024C109.656 5.55149 109.707 5.57919 109.748 5.61982C109.788 5.66045 109.816 5.71219 109.827 5.76848C109.838 5.82478 109.832 5.8831 109.81 5.93607C109.788 5.98903 109.751 6.03426 109.703 6.06602C109.655 6.09778 109.599 6.11465 109.542 6.11448C109.504 6.11448 109.466 6.10698 109.431 6.0924C109.396 6.07782 109.364 6.05645 109.337 6.02951C109.31 6.00258 109.289 5.97061 109.275 5.93544C109.26 5.90027 109.253 5.86258 109.253 5.82455Z" fill="#003D69"/>
<path d="M113.015 2.5029C112.753 2.41143 112.491 2.3224 112.228 2.23828C112.168 2.4539 112.036 2.65808 111.815 2.72832C111.465 2.84919 111.061 2.83204 110.754 3.06563C110.588 3.1788 110.471 3.35006 110.426 3.54548C110.381 3.74091 110.41 3.94625 110.509 4.12084C110.849 4.70643 111.902 4.68356 112.149 4.03018C112.25 3.78516 112.13 3.54014 111.965 3.36781C112.425 3.27797 112.947 3.02234 113.015 2.5029ZM111.316 4.06612C111.268 4.06612 111.221 4.05174 111.18 4.02482C111.14 3.9979 111.109 3.95963 111.09 3.91486C111.072 3.87009 111.067 3.82083 111.076 3.7733C111.086 3.72577 111.109 3.68211 111.143 3.64784C111.177 3.61358 111.221 3.59024 111.269 3.58079C111.316 3.57133 111.365 3.57619 111.41 3.59473C111.455 3.61327 111.493 3.64468 111.52 3.68497C111.547 3.72527 111.561 3.77264 111.561 3.8211C111.561 3.85327 111.555 3.88513 111.543 3.91486C111.53 3.94459 111.512 3.9716 111.489 3.99435C111.467 4.0171 111.44 4.03515 111.41 4.04746C111.38 4.05978 111.348 4.06612 111.316 4.06612Z" fill="#003D69"/>
<path d="M83.396 2.65547C83.2768 3.12836 82.8997 3.49098 82.4753 3.70333C82.5847 3.4379 82.6484 3.10957 82.4753 2.85394C82.2305 2.46109 81.6689 2.40719 81.2682 2.56155C80.9107 2.69059 80.6781 3.17328 80.9197 3.50242C81.0462 3.71885 81.2853 3.82911 81.5253 3.86423C81.3836 4.01661 81.2248 4.152 81.0519 4.26769C81.2821 4.36488 81.4967 4.57314 81.7652 4.52822C82.3366 4.44655 82.9079 4.28321 83.3854 3.94998C83.6112 3.80372 83.8058 3.61406 83.9578 3.39198C84.1098 3.16991 84.2162 2.91984 84.2709 2.65629C83.9804 2.65466 83.6887 2.65438 83.396 2.65547ZM81.673 3.42319C81.6246 3.42319 81.5772 3.40882 81.537 3.3819C81.4967 3.35498 81.4653 3.31671 81.4468 3.27194C81.4282 3.22717 81.4234 3.1779 81.4329 3.13038C81.4423 3.08285 81.4656 3.03919 81.4999 3.00492C81.5341 2.97066 81.5777 2.94732 81.6252 2.93787C81.6727 2.92841 81.722 2.93326 81.7667 2.95181C81.8114 2.97035 81.8497 3.00176 81.8766 3.04205C81.9035 3.08235 81.9179 3.12972 81.9179 3.17818C81.9179 3.24316 81.8921 3.30548 81.8461 3.35143C81.8002 3.39738 81.7379 3.42319 81.673 3.42319Z" fill="#003D69"/>
<path d="M94.7388 5.02376C94.7388 6.02425 94.7339 7.02474 94.7388 8.02523C94.3536 7.70692 93.8994 7.48317 93.4125 7.37185C93.3921 6.80014 93.4345 6.22843 93.3921 5.66244C93.1423 4.74444 91.5148 4.81141 91.3687 5.7678C91.3222 6.33951 91.9401 6.69233 92.4477 6.64333C92.4477 6.87528 92.4477 7.10723 92.4477 7.34C91.8837 7.39064 91.2291 7.83004 91.3287 8.46463C91.4438 9.29524 92.6346 9.52638 93.206 9.02C93.4598 8.7954 93.4092 8.43278 93.4084 8.12977C93.9412 8.34745 94.3747 8.75475 94.6253 9.27319C94.924 9.26421 95.2628 9.33363 95.5231 9.14497C95.7011 9.00122 95.7133 8.7562 95.7149 8.54549C95.7149 7.37376 95.7149 6.20148 95.7149 5.02866C95.3901 5.02431 95.0647 5.02267 94.7388 5.02376ZM92.402 8.58796C92.3589 8.6162 92.3075 8.629 92.2563 8.62425C92.205 8.61951 92.1568 8.5975 92.1196 8.56182C92.1119 8.55365 92.1056 8.54427 92.1008 8.53405C91.9376 8.27923 92.1955 8.03177 92.4502 7.98848C92.4502 8.01298 92.4502 8.03667 92.4502 8.06117V8.38378C92.4502 8.38378 92.4567 8.55447 92.402 8.58796Z" fill="#003D69"/>
</g>
<defs>
<clipPath id="clip0_3135_14193">
<rect width="119" height="40" fill="white"/>
</clipPath>
</defs>
</svg>
