<svg width="200" height="40" viewBox="0 0 200 40" fill="none" xmlns="http://www.w3.org/2000/svg">
<path d="M179.193 9.57546C179.193 9.57546 179.618 6.47573 182.352 6.47573C185.015 6.47573 185.471 9.57546 185.471 9.57546H179.193ZM188.56 9.98897C188.188 6.7069 186.251 3.30273 182.054 3.30273C182.054 3.30273 176.401 3.30111 175.95 10.9902C175.94 11.1416 175.95 11.2963 175.955 11.4493C175.973 11.8465 176.013 12.2438 176.072 12.6394C176.156 13.188 176.278 13.7318 176.446 14.2625C176.641 14.8746 176.897 15.4689 177.227 16.0207C177.585 16.6199 178.03 17.1652 178.56 17.6195C179.156 18.129 179.852 18.51 180.595 18.7574C181.057 18.9121 181.547 19.0293 182.034 19.0765C182.701 19.1433 183.374 19.0505 184.022 18.8893C185.063 18.6321 186.03 18.1274 186.835 17.4127C187.169 17.1164 187.497 16.7827 187.744 16.4082C187.744 16.4082 188.268 15.6137 187.976 14.8209C187.792 14.3195 187.417 13.8604 186.853 13.8099C186.21 13.7529 185.844 14.2495 185.443 14.663C185.443 14.663 184.452 15.9052 182.508 15.9052C181.298 15.9052 180.395 15.3402 179.813 14.4139C179.429 13.8034 179.196 13.0057 179.154 12.2877H184.434C185.081 12.2877 185.727 12.2845 186.374 12.2861C186.592 12.2877 186.809 12.2845 187.025 12.2959C187.241 12.3089 187.463 12.3105 187.672 12.2503C187.933 12.177 188.216 11.9637 188.36 11.7391C188.691 11.2197 188.626 10.5783 188.56 9.98897Z" fill="#FF7A00"/>
<path d="M188.529 6.45667C188.576 6.59831 188.628 6.73831 188.678 6.87832C188.678 7.04926 188.834 7.30486 188.892 7.46604C188.968 7.67279 189.043 7.87955 189.118 8.08468C189.269 8.49819 189.419 8.91171 189.569 9.32359C189.862 10.1295 190.159 10.9321 190.458 11.7347C190.797 12.6382 191.139 13.5401 191.486 14.4421C191.662 14.8995 191.84 15.3586 192.019 15.8161C192.106 16.0408 192.194 16.2654 192.281 16.4901C192.327 16.6024 192.371 16.7148 192.415 16.8287C192.436 16.8841 192.569 17.1153 192.548 17.1657C192.285 17.8299 192.002 18.4893 191.631 19.0998C191.17 19.8617 190.531 20.5308 189.848 21.0941C189.7 21.2162 189.2 21.6037 189.038 21.7046C188.691 21.9211 188.329 22.0693 188.055 22.3851C187.784 22.6961 187.635 23.0852 187.635 23.5003C187.635 23.8389 187.713 24.1792 187.898 24.4657C188.05 24.7018 188.256 24.9004 188.504 25.0355C188.761 25.1739 189.093 25.1316 189.363 25.0453C189.621 24.9606 189.858 24.8239 190.088 24.6822C191.097 24.0555 192.036 23.2984 192.831 22.4112C192.909 22.3233 192.984 22.2337 193.057 22.1409C193.143 22.0351 193.229 21.9276 193.305 21.8169C193.305 21.8169 194.58 20.1499 195.337 18.1962C196.091 16.2426 197.014 13.7013 197.014 13.7013C197.655 11.9919 198.289 10.2825 198.94 8.57634C199.17 7.96909 199.402 7.36184 199.633 6.75297C199.878 6.11153 200.126 5.40986 199.928 4.75214C199.659 3.86325 198.439 3.25763 197.722 4.02442C197.454 4.31095 197.309 4.69028 197.172 5.05821C196.547 6.72529 195.924 8.39237 195.302 10.0611C195.036 10.7758 194.772 11.4905 194.506 12.2068C194.452 12.3517 194.108 12.9703 194.165 13.1234C193.841 12.2638 193.515 11.4042 193.188 10.5462C192.586 8.95892 191.983 7.37487 191.389 5.7843C191.245 5.39846 191.1 5.01262 190.946 4.63004C190.81 4.29304 190.568 3.99186 190.249 3.81441C189.773 3.54904 189.129 3.67277 188.748 4.0521C188.396 4.40375 188.269 4.93611 188.303 5.43428C188.326 5.7843 188.417 6.12293 188.529 6.45667Z" fill="#FF7A00"/>
<path d="M129.016 5.0664C128.995 5.26502 128.996 5.46689 128.998 5.66714C129.004 6.24345 129.004 6.81814 129.004 7.39446V14.9273C129.004 15.3457 129.004 15.7641 129.006 16.1825C129.006 16.5683 128.982 16.9606 129.027 17.3449C129.077 17.7567 129.217 18.1637 129.496 18.4779C129.735 18.7482 130.062 18.9061 130.419 18.937C130.47 18.9419 130.52 18.9436 130.57 18.9436C131.039 18.9436 131.446 18.7173 131.714 18.3347C131.939 18.0107 132.058 17.6298 132.11 17.239C132.165 16.8288 132.149 16.4153 132.145 16.0017C132.142 15.6582 132.142 15.3147 132.144 14.9712C132.144 14.6326 132.144 14.294 132.144 13.9553V9.89834C132.144 9.48157 132.133 9.07294 132.227 8.66268C132.35 8.11892 132.597 7.56703 133.017 7.18933C133.406 6.83605 133.914 6.66837 134.433 6.64557C134.477 6.64395 134.522 6.64232 134.568 6.64232C135.089 6.64232 135.603 6.79372 136 7.14049C136.346 7.4433 136.567 7.85518 136.716 8.28335C136.928 8.88897 136.927 9.5418 136.925 10.1751C136.925 11.4368 136.924 12.6985 136.924 13.9602V17.2341C136.924 17.2341 137.06 18.9436 138.467 18.9436C139.873 18.9436 139.997 17.3709 139.997 17.3709V9.82345C139.997 9.82345 140.031 6.63906 142.648 6.63906C145.075 6.63255 144.857 9.75507 144.857 9.75507V17.4116C144.857 17.4116 145.057 18.9436 146.395 18.9436C147.734 18.9436 147.921 17.4409 147.921 17.4409V9.05828C147.921 9.05828 147.745 3.3049 143.357 3.3049C140.167 3.3049 139.08 5.8625 139.049 5.85599C139.039 5.85436 139.025 5.81366 139.02 5.80552C138.995 5.75831 138.971 5.71272 138.945 5.66714C138.908 5.59713 138.867 5.52713 138.825 5.45875C138.772 5.36921 138.715 5.28293 138.655 5.19664C138.585 5.09571 138.51 4.9964 138.434 4.90035C138.347 4.7929 138.256 4.68708 138.158 4.58777C138.054 4.47706 137.944 4.37124 137.829 4.27356C137.704 4.16611 137.576 4.06681 137.44 3.97564C137.297 3.87796 137.148 3.79004 136.992 3.71353C136.529 3.48235 136.018 3.34885 135.502 3.31955C135.369 3.31141 135.235 3.30327 135.102 3.3049C134.774 3.30652 134.454 3.37002 134.148 3.48886C133.969 3.55724 133.799 3.64352 133.635 3.7412C133.474 3.83726 133.32 3.94633 133.174 4.06355C133.005 4.20193 132.845 4.35171 132.696 4.51125C132.522 4.69847 132.36 4.89709 132.21 5.10548C132.191 5.13152 132.171 5.1592 132.154 5.18688C132.154 5.18688 131.97 3.41397 130.604 3.41397C130.053 3.41397 129.6 3.71841 129.322 4.18565C129.22 4.35659 129.131 4.55032 129.077 4.74243C129.048 4.84825 129.029 4.95733 129.016 5.0664Z" fill="#FF7A00"/>
<path d="M155.445 15.7772C153.531 15.7772 151.978 13.7227 151.978 11.1878C151.978 8.65303 153.531 6.60011 155.445 6.60011C157.361 6.60011 158.914 8.65303 158.914 11.1878C158.914 13.7227 157.361 15.7772 155.445 15.7772ZM155.445 3.28223C151.858 3.28223 148.951 6.81664 148.951 11.1764C148.951 15.5379 151.858 19.0723 155.445 19.0723C159.033 19.0723 161.94 15.5379 161.94 11.1764C161.94 6.81664 159.033 3.28223 155.445 3.28223Z" fill="#FF7A00"/>
<path d="M166.042 5.22216C166.042 4.90144 165.965 4.58398 165.81 4.30396C165.584 3.90184 165.166 3.43949 164.423 3.43949C163.971 3.43949 163.585 3.67229 163.329 4.03859C163.225 4.18674 163.142 4.34792 163.076 4.51723C162.98 4.76469 162.944 5.004 162.946 5.271V5.3003C162.946 5.87987 162.948 6.46107 162.948 7.04064V16.6947C162.948 17.0317 162.917 17.3639 163.011 17.6943C163.211 18.3944 163.782 18.9512 164.531 18.9512C165.849 18.9512 166.014 17.4713 166.014 17.4713V10.3406C166.014 9.95641 166.064 9.57383 166.167 9.20264C166.441 8.2177 167.111 6.60434 169.014 6.60434C169.64 6.60434 170.247 6.80784 170.711 7.23601C171.097 7.59254 171.363 8.06141 171.542 8.55144C171.883 9.4794 171.848 10.4497 171.84 11.42C171.837 11.7081 171.834 11.9947 171.834 12.2812V16.2926C171.834 16.7843 171.759 17.289 171.926 17.7643C172.155 18.4188 172.728 18.9512 173.443 18.9512C173.961 18.9512 174.388 18.6744 174.641 18.23C174.902 17.7676 174.923 17.2922 174.923 16.7713C174.926 15.6984 174.92 14.6255 174.92 13.5511V10.4888C174.92 9.29381 174.792 8.12653 174.394 6.98855C174.115 6.1892 173.726 5.41589 173.169 4.77283C172.557 4.06627 171.748 3.56484 170.828 3.38576C170.538 3.32878 170.239 3.30273 169.942 3.30273C167.525 3.30273 166.292 4.95028 166.089 5.23681C166.079 5.24983 166.042 5.23844 166.042 5.22216Z" fill="#FF7A00"/>
<mask id="mask0_3135_14128" style="mask-type:luminance" maskUnits="userSpaceOnUse" x="139" y="22" width="4" height="18">
<path d="M139.406 22.1914H142.314V40.0002H139.406V22.1914Z" fill="white"/>
</mask>
<g mask="url(#mask0_3135_14128)">
<path d="M139.801 38.9944C139.781 38.856 139.796 38.6997 139.796 38.5646V23.4273C139.796 23.1669 139.904 22.9031 140.086 22.7143C140.271 22.5238 140.528 22.4342 140.79 22.4245C140.808 22.4245 140.824 22.4229 140.841 22.4229C141.11 22.4229 141.373 22.5075 141.568 22.6996C141.795 22.9227 141.907 23.2255 141.905 23.5413C141.905 23.8295 141.905 24.1209 141.905 24.409V38.3318C141.905 38.5646 141.931 38.8185 141.877 39.0448C141.757 39.5349 141.35 39.854 140.85 39.854C140.378 39.854 139.95 39.543 139.818 39.0823C139.81 39.0546 139.806 39.0237 139.801 38.9944Z" fill="#808184"/>
</g>
<mask id="mask1_3135_14128" style="mask-type:luminance" maskUnits="userSpaceOnUse" x="144" y="22" width="3" height="18">
<path d="M144.39 22.1914H146.882V40.0002H144.39V22.1914Z" fill="white"/>
</mask>
<g mask="url(#mask1_3135_14128)">
<path d="M144.414 38.9944C144.395 38.856 144.41 38.6997 144.41 38.5646V23.4273C144.41 23.1669 144.518 22.9031 144.7 22.7143C144.885 22.5238 145.141 22.4342 145.404 22.4245C145.422 22.4245 145.438 22.4229 145.454 22.4229C145.724 22.4229 145.987 22.5075 146.181 22.6996C146.409 22.9227 146.52 23.2255 146.519 23.5413C146.517 23.8295 146.517 24.1209 146.517 24.409V38.3318C146.517 38.5646 146.545 38.8185 146.491 39.0448C146.371 39.5349 145.964 39.854 145.464 39.854C144.992 39.854 144.562 39.543 144.432 39.0823C144.423 39.0546 144.418 39.0237 144.414 38.9944Z" fill="#808184"/>
</g>
<mask id="mask2_3135_14128" style="mask-type:luminance" maskUnits="userSpaceOnUse" x="111" y="26" width="17" height="14">
<path d="M111.993 26.7754H127.361V39.9997H111.993V26.7754Z" fill="white"/>
</mask>
<g mask="url(#mask2_3135_14128)">
<path d="M122.851 36.1377C122.825 36.0319 122.8 35.9277 122.774 35.8219C122.726 35.6135 122.675 35.4035 122.627 35.1935C122.528 34.7734 122.429 34.355 122.331 33.935C122.111 32.9761 121.882 31.9977 121.658 31.0306C121.434 30.0669 121.238 29.0884 120.977 28.1344C120.96 28.0758 120.944 28.0188 120.926 27.9618C120.853 27.7176 120.753 27.48 120.557 27.3074C120.269 27.0502 119.792 27.0111 119.411 27.0648C119.135 27.1039 118.853 27.1951 118.661 27.3986C118.464 27.6086 118.394 27.9065 118.33 28.1898C117.725 30.9378 117.119 33.6859 116.512 36.434C115.858 33.7999 115.204 31.1641 114.55 28.53C114.419 27.9977 114.242 27.4051 113.76 27.1495C113.328 26.9167 112.741 27.099 112.473 27.4995C112.097 28.0693 112.274 28.7742 112.447 29.3815C113.332 32.4861 114.216 35.5923 115.102 38.6986C115.201 39.0453 115.314 39.4149 115.597 39.6363C115.829 39.8186 116.135 39.8675 116.429 39.8805C116.778 39.8968 117.159 39.8561 117.415 39.6184C117.646 39.4051 117.725 39.0795 117.795 38.7718L119.578 30.9151C119.583 30.8923 119.614 30.8923 119.62 30.9167C120.204 33.2219 120.74 35.5402 121.285 37.8569C121.361 38.1776 121.436 38.5 121.511 38.8207C121.571 39.0763 121.635 39.3416 121.807 39.537C122.038 39.8007 122.413 39.8838 122.76 39.8903C123.036 39.8968 123.323 39.8626 123.56 39.7193C123.925 39.4996 124.103 39.0665 124.199 38.6497C124.48 37.4352 124.846 36.2403 125.184 35.0372C125.716 33.1357 126.321 31.2521 126.809 29.3391C126.855 29.1601 126.9 28.9826 126.942 28.8035C126.99 28.6065 127.033 28.4014 127.045 28.1995C127.058 27.9146 127.004 27.633 126.788 27.3839C126.587 27.1495 126.281 27.0241 125.972 27.0453C125.13 27.1023 124.937 28.066 124.791 28.7238C124.214 31.3025 123.558 33.9122 122.922 36.4389" fill="#808184"/>
</g>
<mask id="mask3_3135_14128" style="mask-type:luminance" maskUnits="userSpaceOnUse" x="127" y="26" width="12" height="14">
<path d="M127.776 26.7754H138.575V39.9997H127.776V26.7754Z" fill="white"/>
</mask>
<g mask="url(#mask3_3135_14128)">
<path d="M135.196 35.5394C135.121 36.1206 134.831 36.6513 134.41 37.0518C134.209 37.2423 133.979 37.4035 133.729 37.5223C132.997 37.874 132.092 37.9521 131.305 37.7535C130.554 37.5646 130.171 36.9574 130.202 36.1939C130.228 35.5573 130.555 35.0217 131.088 34.6912C131.587 34.3803 132.163 34.2386 132.736 34.1361C133.482 34.0026 134.261 33.913 134.97 33.6314C135.03 33.607 135.11 33.5744 135.205 33.5272C135.205 33.8756 135.205 34.2223 135.207 34.5691C135.209 34.8915 135.236 35.2203 135.196 35.5394ZM138.017 37.8968C137.827 37.8121 137.582 37.8381 137.444 37.6802C137.316 37.537 137.311 37.2928 137.313 37.099C137.324 35.2529 137.337 33.4051 137.35 31.5573C137.355 30.8475 137.358 30.1295 137.198 29.4392C137.035 28.7473 136.69 28.075 136.119 27.6566C135.666 27.3261 135.108 27.1779 134.558 27.077C133.432 26.8719 132.248 26.8491 131.162 27.2154C130.349 27.4921 129.598 28.0066 129.103 28.7164C128.777 29.1836 128.475 29.8495 128.539 30.4502C128.563 30.6749 128.638 30.8914 128.782 31.0835C129.121 31.5377 129.858 31.6778 130.271 31.2919C130.646 30.9435 130.646 30.3542 130.894 29.9049C131.238 29.2813 132.009 29.0257 132.72 28.9867C133.421 28.9492 134.167 29.0892 134.688 29.5597C135.21 30.0302 135.415 30.8914 135.004 31.4612C134.728 31.8422 134.256 32.0229 133.804 32.1417C132.879 32.3859 131.917 32.469 130.992 32.7132C130.067 32.959 129.147 33.4002 128.594 34.1833C128.063 34.9354 127.94 35.9106 128.032 36.8272C128.102 37.5191 128.295 38.2191 128.724 38.7645C129.266 39.4548 130.13 39.8276 130.997 39.9415C132.592 40.1499 134.272 39.5166 135.335 38.3054C135.353 38.797 135.585 39.2757 135.96 39.5931C136.335 39.909 136.846 40.0506 137.331 39.9839C137.814 39.9171 138.322 39.6338 138.46 39.1633C138.593 38.7108 138.463 38.0986 138.017 37.8968Z" fill="#808184"/>
</g>
<mask id="mask4_3135_14128" style="mask-type:luminance" maskUnits="userSpaceOnUse" x="158" y="23" width="8" height="17">
<path d="M158.512 23.0244H165.573V39.9997H158.512V23.0244Z" fill="white"/>
</mask>
<g mask="url(#mask4_3135_14128)">
<path d="M160.639 27.2181C160.639 27.1432 160.639 27.0683 160.639 26.9934L160.637 26.4334C160.637 26.194 160.636 25.9531 160.636 25.7138C160.636 25.4777 160.634 25.2417 160.634 25.0056L160.633 24.483C160.633 24.3609 160.636 24.2486 160.673 24.133C160.699 24.0532 160.733 23.9767 160.775 23.9051C160.892 23.7065 161.077 23.5583 161.296 23.485C161.428 23.4427 161.567 23.4248 161.705 23.4248C161.963 23.4248 162.218 23.5029 162.403 23.6902C162.714 24.0044 162.73 24.4602 162.721 24.8754C162.714 25.1749 162.719 25.4728 162.719 25.7724V27.2246H163.817C163.957 27.2246 164.095 27.2132 164.23 27.2637C164.622 27.4151 164.869 27.7651 164.895 28.1835C164.896 28.2144 164.898 28.2437 164.898 28.2746C164.898 28.6409 164.747 28.9812 164.436 29.1831C164.385 29.2156 164.332 29.2417 164.277 29.2661C164.161 29.3198 164.053 29.3296 163.926 29.3296C163.527 29.3296 163.126 29.3296 162.727 29.3296V36.8982C162.727 36.8982 162.756 37.7936 163.733 37.7936C164.71 37.7936 165.219 37.7252 165.219 38.7997C165.219 39.0993 165.138 39.3712 164.905 39.5714C164.655 39.7847 164.316 39.8612 163.999 39.8531C163.616 39.8433 163.248 39.8677 162.868 39.8042C162.523 39.7472 162.192 39.6154 161.888 39.4444C161.372 39.153 160.951 38.7053 160.759 38.1339C160.672 37.8718 160.633 37.5934 160.633 37.315V29.367C160.443 29.367 160.253 29.3719 160.063 29.3719C159.878 29.3719 159.69 29.3898 159.508 29.3426C159.219 29.2661 158.942 29.0219 158.819 28.7517C158.754 28.6068 158.725 28.4505 158.725 28.2926C158.725 27.9165 158.893 27.573 159.211 27.3662C159.367 27.2653 159.524 27.2295 159.709 27.223C160.016 27.2116 160.332 27.2181 160.639 27.2181Z" fill="#808184"/>
</g>
<mask id="mask5_3135_14128" style="mask-type:luminance" maskUnits="userSpaceOnUse" x="148" y="26" width="11" height="14">
<path d="M148.128 26.7754H158.927V39.9997H148.128V26.7754Z" fill="white"/>
</mask>
<g mask="url(#mask5_3135_14128)">
<path d="M150.486 32.1139C150.486 32.1139 150.786 29.0435 153.479 29.0435C156.353 29.0435 156.309 32.1139 156.309 32.1139H150.486ZM158.494 32.4525C158.194 29.7435 157.107 26.9336 153.237 26.9336C150.04 26.9336 147.684 30.9011 148.458 35.0264C148.831 37.0191 149.715 38.9418 151.982 39.7444C152.355 39.8763 152.83 39.9137 153.223 39.9528C154.414 40.0733 155.713 39.6809 156.648 38.9353C157.357 38.3704 158.395 36.998 158.032 35.987C157.884 35.5718 157.589 35.3651 157.133 35.3244C156.612 35.2771 156.291 35.8421 156.168 36.0911C155.869 36.6968 155.642 37.851 153.479 37.851C152.173 37.851 151.437 36.998 150.964 36.2328C150.655 35.7297 150.515 34.7741 150.481 34.1815H155.167C155.689 34.1815 156.211 34.1782 156.734 34.1799C156.909 34.1815 157.086 34.1782 157.26 34.188C157.433 34.1978 157.615 34.1994 157.784 34.1506C157.993 34.0903 158.222 33.9145 158.338 33.7273C158.606 33.3007 158.548 32.9393 158.494 32.4525Z" fill="#808184"/>
</g>
<path d="M79.9121 0L75.4293 0.0179081L75.4374 3.72489L73.3201 3.74279L73.312 7.77863H75.4472C75.4472 7.77863 75.4374 13.2455 75.4472 13.5027C75.4553 13.7616 75.5169 15.3798 77.2189 16.9704C79.1853 18.9175 81.533 18.8817 81.533 18.8817L84.8996 18.8719V15.033H82.1171C80.2399 15.033 79.9121 12.7571 79.9121 12.7571L79.9203 7.79654C79.9203 7.79654 81.3286 7.7884 82.9591 7.77863C84.5897 7.77049 84.8996 5.9748 84.8996 5.9748V3.73465L79.9121 3.74279" fill="#FF0006"/>
<path d="M91.8051 3.74219C91.114 3.74219 89.8776 3.78289 88.1238 5.26275C86.3699 6.74261 86.0681 8.83623 86.0779 9.34743C86.086 9.85862 86.0827 18.8811 86.0827 18.8811L90.4325 18.8859C90.4325 18.8859 90.4358 11.2506 90.4358 9.97421C90.4358 8.69785 92.3503 7.78779 92.8727 7.78779C93.3951 7.78779 95.4281 7.79105 95.4281 7.79105L95.4053 3.74219" fill="#FF0006"/>
<path d="M110.196 3.74252L105.638 3.75554C105.638 3.75554 105.651 12.1707 105.651 12.9164C105.651 13.6636 104.947 15.1565 103.232 15.1565C101.519 15.1565 100.961 13.3038 100.961 12.9033C100.961 12.5028 100.974 7.19553 100.974 5.67659C100.974 4.15603 99.4728 3.72949 99.1142 3.72949C98.7557 3.72949 96.5086 3.75554 96.5086 3.75554C96.5086 3.75554 96.4956 12.3433 96.4956 13.1166C96.4956 13.8899 96.6027 15.3844 98.0499 17.0238C99.4988 18.6632 101.253 19.1028 103.339 19.0767C105.426 19.0507 106.688 18.6893 108.375 17.3429C110.063 15.9965 110.223 13.3429 110.209 12.5566C110.196 11.7702 110.196 3.74252 110.196 3.74252Z" fill="#FF0006"/>
<path d="M115.293 9.73077C115.531 8.82071 116.378 7.01036 118.526 7.15688C121.078 7.32945 121.345 9.74379 121.345 9.74379L115.293 9.73077ZM125.344 8.75722C124.8 7.01036 124.226 6.21264 123.27 5.23583C121.744 3.6762 119.458 3.31641 118.382 3.31641C117.305 3.31641 115.458 3.5834 113.557 5.15606C111.657 6.73034 110.993 9.39702 110.94 11.5037C110.888 13.6103 111.989 15.9709 113.477 17.3564C114.965 18.7434 116.826 19.1032 118.5 19.0902C120.175 19.0772 121.171 18.7304 122.594 17.8773C124.015 17.0243 125.011 15.1699 125.011 15.1699C125.011 15.1699 121.583 14.3038 120.866 14.1036C120.533 14.5969 119.604 15.3979 118.195 15.3572C116.787 15.3165 115.963 14.2631 115.604 13.7308C115.496 13.568 115.413 13.2245 115.353 12.8093C117.332 12.8077 124.974 12.7963 125.61 12.7963C125.629 10.8964 125.676 10.0775 125.344 8.75722Z" fill="#FF0006"/>
<path d="M65.6088 3.9541H48.1058C46.9636 3.9541 45.9447 4.68019 45.5682 5.76282C44.7359 8.16576 43.7949 10.8715 42.8263 13.6636V13.6652C42.7955 13.7515 42.7663 13.8377 42.7354 13.924C42.7143 13.9843 42.6949 14.0429 42.6738 14.1031C39.6479 22.8179 36.3706 32.2522 35.1245 35.8257C34.9801 36.2701 34.8146 36.778 34.6134 37.299C34.5794 37.3918 34.4058 37.833 34.0894 38.2677C34.0358 38.3426 33.9823 38.4093 33.9271 38.4728C33.8363 38.5819 33.7195 38.7121 33.5491 38.8456C33.5394 38.8538 33.5296 38.8603 33.5199 38.8668C33.4615 38.9124 33.395 38.9596 33.3187 39.0068C33.1321 39.1207 32.9748 39.181 32.9131 39.2021C32.9034 39.2038 32.8953 39.207 32.8855 39.2103L32.8823 39.2119C32.8758 39.2135 32.8709 39.2152 32.8661 39.2168C32.8612 39.2184 32.8579 39.2201 32.8531 39.2217C32.6292 39.2966 32.4231 39.3275 32.2544 39.3373H53.2927C53.429 39.3373 53.5637 39.321 53.6967 39.2884C54.2078 39.1566 55.3013 38.6796 55.7621 36.9848L66.691 5.4828C66.9505 4.73555 66.3973 3.9541 65.6088 3.9541Z" fill="#FF7A00"/>
<path d="M13.8117 33.3579C13.8166 33.3449 13.8198 33.3319 13.8247 33.3189C13.8377 33.2798 13.8523 33.2423 13.8653 33.2049C13.8863 33.143 13.9091 33.0795 13.9302 33.0193C13.9594 32.933 13.9886 32.8484 14.0194 32.7653C14.0551 32.6579 14.0924 32.5521 14.1297 32.4462C14.1735 32.3209 14.2173 32.1955 14.2611 32.0685C14.3131 31.9253 14.3633 31.7788 14.4136 31.6355C14.4704 31.4727 14.5272 31.3099 14.584 31.1487C14.6473 30.9696 14.7089 30.7906 14.7722 30.6131C14.8387 30.4194 14.9069 30.2256 14.9734 30.0319C15.0464 29.8251 15.1194 29.6184 15.1924 29.41C15.2687 29.1918 15.3449 28.9721 15.4212 28.7523L15.6646 28.0604C15.7489 27.8194 15.8333 27.5785 15.916 27.3375C16.0036 27.0885 16.0913 26.8394 16.1789 26.5903C16.2681 26.3331 16.3573 26.0758 16.4482 25.8202C16.5391 25.5565 16.6315 25.2944 16.724 25.0307C16.8165 24.7637 16.9106 24.4967 17.0047 24.2297C17.0988 23.9578 17.1945 23.6859 17.2886 23.4157C17.3844 23.1422 17.4801 22.8687 17.5758 22.5951C17.6715 22.3216 17.7673 22.0465 17.863 21.7714C17.9587 21.4979 18.056 21.2227 18.1518 20.9492L18.4373 20.132C18.5314 19.8617 18.6255 19.5915 18.7213 19.3212C18.8137 19.0559 18.9062 18.7889 18.9987 18.5235C19.0896 18.263 19.182 18.0025 19.2729 17.7421L19.539 16.9801C19.625 16.7343 19.711 16.4885 19.7969 16.2427C19.8797 16.005 19.9641 15.7689 20.0468 15.5328C20.1247 15.3049 20.2042 15.0786 20.2837 14.8523C20.3583 14.6374 20.4346 14.4225 20.5092 14.2076L20.7217 13.602C20.7866 13.4148 20.8515 13.226 20.9181 13.0387C20.9781 12.8662 21.0381 12.6936 21.0981 12.5227C21.1533 12.3664 21.2069 12.2117 21.262 12.0554C21.3107 11.9187 21.3577 11.7819 21.4064 11.6435C21.447 11.5247 21.4892 11.4075 21.5297 11.2886C21.5638 11.1909 21.5979 11.0933 21.6319 10.9956C21.6871 10.8377 21.7374 10.6732 21.812 10.5218L21.8218 10.5121L21.8234 10.5088L21.8266 10.5055C21.8412 10.4762 21.8477 10.4518 21.8639 10.4241C22.0083 10.1034 22.3912 9.75829 22.547 9.70945L20.1766 1.71755C19.8813 0.700044 18.9078 0 17.8954 0H1.17605C0.389161 0 -0.175452 0.760281 0.0500686 1.51731L9.46192 33.2554C9.84968 34.3819 10.6934 34.968 11.5565 35.0104H11.5581C12.4553 35.0494 13.3704 34.5008 13.8117 33.3579Z" fill="#FF000F"/>
<path d="M22.5439 9.71061L22.5456 9.70898L22.5391 9.71387C22.5407 9.71224 22.5423 9.71224 22.5439 9.71061Z" fill="#AA0016"/>
<path d="M29.0743 34.8764L28.9591 34.4824C28.938 34.414 28.9185 34.3473 28.8974 34.2789L24.864 20.6818L22.0442 11.1726C21.9387 10.8177 21.9744 10.4628 22.1237 10.173C22.1594 10.103 22.2016 10.0362 22.2502 9.97435C22.2567 9.96784 22.2616 9.9597 22.2681 9.95156C22.3362 9.87016 22.4173 9.7969 22.5066 9.7334C22.5179 9.72689 22.5277 9.72038 22.539 9.71387L22.5471 9.70898C22.3914 9.75782 22.0085 10.1046 21.8641 10.4237C21.8479 10.4514 21.8333 10.479 21.8187 10.5083C21.8154 10.5132 21.8138 10.5181 21.8122 10.5214C21.7375 10.6744 21.6872 10.8372 21.6321 10.9951C21.598 11.0928 21.5639 11.1905 21.5299 11.2882C21.4893 11.407 21.4471 11.5258 21.4066 11.6431C21.3579 11.7798 21.3108 11.9182 21.2622 12.0549C21.207 12.2112 21.1535 12.3659 21.0983 12.5222C21.0383 12.6931 20.9782 12.8657 20.9182 13.0383C20.8517 13.2271 20.7868 13.4143 20.7219 13.6016L20.5093 14.2072C20.4347 14.4221 20.3584 14.637 20.2838 14.8519C20.2043 15.0782 20.1248 15.3045 20.0469 15.5307C19.9642 15.7684 19.8798 16.0061 19.7971 16.2422C19.7111 16.488 19.6251 16.7338 19.5391 16.9797L19.273 17.7416C19.1822 18.0021 19.0897 18.2625 18.9988 18.523C18.9064 18.7884 18.8139 19.0554 18.7214 19.3208C18.6257 19.591 18.5316 19.8613 18.4375 20.1299L18.1519 20.9488C18.0562 21.2223 17.9588 21.4974 17.8631 21.7709C17.7674 22.046 17.6717 22.3195 17.5759 22.5947C17.4802 22.8682 17.3845 23.1417 17.2888 23.4152C17.1947 23.6854 17.0989 23.9573 17.0048 24.2276C16.9107 24.4962 16.8166 24.7632 16.7242 25.0302C16.6317 25.2939 16.5392 25.556 16.4483 25.8198C16.3575 26.077 16.2682 26.3326 16.179 26.5898C16.0914 26.8389 16.0038 27.088 15.9162 27.3371C15.8334 27.578 15.7491 27.819 15.6647 28.0599L15.4213 28.7518C15.3451 28.9716 15.2688 29.1914 15.1926 29.4112C15.1196 29.6179 15.0465 29.8247 14.9735 30.0314C14.907 30.2252 14.8389 30.4189 14.7707 30.6126C14.7091 30.7901 14.6474 30.9692 14.5841 31.1482C14.5274 31.3094 14.4706 31.4722 14.4138 31.635C14.3635 31.7783 14.3132 31.9232 14.2613 32.0697C14.2175 32.1951 14.1737 32.3204 14.1299 32.4458C14.0925 32.5516 14.0552 32.659 14.0179 32.7649C13.9887 32.8495 13.9595 32.9325 13.9303 33.0172C13.9092 33.0791 13.8865 33.1426 13.8654 33.2044C13.8524 33.2419 13.8378 33.2793 13.8248 33.3184C13.82 33.3314 13.8167 33.3444 13.8119 33.3575C13.3705 34.5003 12.4555 35.049 11.5583 35.0099H11.5566C11.5388 35.0115 11.5226 35.0131 11.5063 35.0131H29.1165C29.1018 34.9676 29.0889 34.922 29.0743 34.8764Z" fill="#AA0016"/>
<path d="M42.826 13.6641C42.6751 13.1187 42.5259 12.5734 42.3815 12.0263C42.263 11.5754 42.1235 11.1407 41.8817 10.7402C41.6449 10.3462 41.322 10.0076 40.9213 9.78295C40.8093 9.72108 40.6925 9.66736 40.5708 9.62503C40.381 9.55665 40.0581 9.50781 39.8569 9.50781H23.2819C22.9931 9.50781 22.7449 9.58433 22.5437 9.71131C22.5421 9.71294 22.5405 9.71457 22.5389 9.71457C22.5275 9.72108 22.5178 9.72759 22.508 9.73411C22.4172 9.7976 22.3361 9.87086 22.2679 9.95389C22.2614 9.9604 22.2566 9.96854 22.2501 9.97505C22.2014 10.0369 22.1592 10.1037 22.1235 10.1737C21.9742 10.4635 21.9386 10.8184 22.044 11.1733L24.8638 20.6825L28.8973 34.2796L29.1001 34.9601L29.8659 37.6382C29.9162 37.7815 30.3218 38.8869 31.4396 39.2369C31.988 39.4078 32.4715 39.3232 32.7181 39.2597C32.7538 39.2516 32.8009 39.2385 32.8528 39.2222C32.8577 39.2206 32.8609 39.219 32.8658 39.2174C32.8723 39.2157 32.8788 39.2125 32.8852 39.2109C32.895 39.2076 32.9031 39.2043 32.9128 39.2027C32.9745 39.1815 33.1319 39.1213 33.3184 39.0074C33.3947 38.9601 33.4612 38.9129 33.5196 38.8673C33.6397 38.7729 33.7289 38.6834 33.7971 38.6166C33.8409 38.571 33.8847 38.5238 33.9269 38.4734C33.982 38.4099 34.0356 38.3431 34.0891 38.2682C34.4055 37.8336 34.5791 37.3924 34.6132 37.2996C34.8143 36.7786 34.9798 36.2707 35.1242 35.8262C35.2037 35.582 35.2767 35.3557 35.3465 35.1571L35.8673 33.6593C36.0863 33.0326 36.3054 32.4041 36.5228 31.7757L37.2788 29.6056C37.5514 28.8209 37.824 28.0362 38.0982 27.2499L38.9483 24.8078C39.229 23.9987 39.5113 23.1896 39.7936 22.3789C40.0614 21.6072 40.3307 20.8355 40.6 20.0638C40.8434 19.3622 41.0867 18.6605 41.3317 17.9604C41.5394 17.363 41.7471 16.7655 41.9548 16.1696C42.1138 15.7105 42.2744 15.2514 42.4334 14.7907L42.6735 14.1037C42.6946 14.0434 42.7141 13.9848 42.7352 13.9246C42.766 13.8383 42.7952 13.752 42.826 13.6658" fill="#FFCD00"/>
</svg>
