<svg width="206" height="40" viewBox="0 0 206 40" fill="none" xmlns="http://www.w3.org/2000/svg">
<path d="M23.2783 23.0621C22.0017 23.0621 21.3017 22.8871 20.2267 22.4454L19.8283 22.2637L19.3767 24.8887C20.1533 25.2087 21.5533 25.4837 23.0017 25.5054C26.4033 25.5054 28.6267 23.9271 28.6533 21.4987C28.68 20.1637 27.8033 19.1504 25.9517 18.3154C24.8283 17.7737 24.1283 17.4104 24.1283 16.8604C24.1283 16.3737 24.7267 15.8554 25.9767 15.8554C26.8073 15.8354 27.6331 15.9881 28.4017 16.3037L28.7017 16.4371L29.1533 13.9004L29.075 13.9171C28.1449 13.5832 27.1632 13.4156 26.175 13.4221C22.975 13.4221 20.7167 15.0121 20.7 17.2904C20.68 18.9654 22.3067 19.9087 23.535 20.4704C24.7967 21.0454 25.2183 21.4071 25.215 21.9237C25.2067 22.7087 24.2067 23.0621 23.2783 23.0621ZM37.38 13.6371H34.88C34.1017 13.6371 33.52 13.8454 33.1783 14.6087L28.37 25.3421H31.7717L32.4517 23.5854L36.6017 23.5887C36.7033 23.9987 37.0017 25.3421 37.0017 25.3421H40L37.38 13.6371ZM33.3833 21.1837L34.6733 17.9121C34.6567 17.9454 34.94 17.2354 35.1033 16.7954L35.325 17.8054L36.0733 21.1837H33.3833ZM14.0733 25.2487H17.3133L19.3383 13.5387H16.1V13.5354L14.0733 25.2487ZM8.205 21.6187L7.86833 19.9921V19.9971L6.73167 14.6204C6.53667 13.8754 5.96667 13.6554 5.26 13.6287H0.0416667L0 13.8754C1.175 14.1504 2.23333 14.5487 3.18 15.0371C3.327 15.123 3.43464 15.2629 3.48 15.4271L6.28 25.3254H9.70333L14.805 13.6371H11.3733L8.205 21.6187Z" fill="#191E6E"/>
<path d="M101.938 6C98.9375 6 96.625 7.9375 96.625 11.3125V20.9375C96.875 22.125 98.125 23 99.5 23C101.062 23 102.188 21.875 102.188 20.5V15.625H106.438V20.4375C106.438 23.125 103 24.5 100.5 24.5C99.0625 24.5 97.6875 24.0625 96.6875 23.3125V33.9375H103.438C105.812 33.9375 108.562 31.6875 108.562 28.8125V6H101.938Z" fill="#1174CE"/>
<path d="M96.625 11.3125V20.9375C96.875 22.125 98.125 23 99.5 23C101.062 23 102.188 21.875 102.188 20.5V15.625H106.438V20.4375C106.438 23.125 103 24.5 100.5 24.5C99.0625 24.5 97.6875 24.0625 96.6875 23.3125V33.9375H103.438C105.812 33.9375 108.562 31.6875 108.562 28.8125V6" fill="#0F549D"/>
<path d="M106.375 15.625V20.4375C106.375 23.125 102.938 24.5 100.438 24.5C99 24.5 97.625 24.0625 96.625 23.3125V33.9375H103.375C105.75 33.9375 108.5 31.6875 108.5 28.8125" fill="#02375E"/>
<path d="M125.562 22.875H128.5C129.25 22.875 129.938 22.1875 129.938 21.4375C129.938 20.6875 129.25 20 128.5 20H125.562V22.875Z" fill="#146643"/>
<path d="M128.875 6C125.812 6 123.562 7.9375 123.562 11.25V15.625H131.438C132.562 15.625 133.5 16.5625 133.5 17.6875C133.5 18.8125 132.562 19.75 131.438 19.75C132.688 19.75 133.688 20.625 133.688 21.75C133.688 22.875 132.75 23.75 131.438 23.75H123.5V33.9375H130.25C132.625 33.9375 135.375 31.6875 135.375 28.8125V6H128.875Z" fill="#1BCC38"/>
<path d="M123.5 11.3125V15.625H131.375C132.5 15.625 133.438 16.5625 133.438 17.6875C133.438 18.8125 132.5 19.75 131.375 19.75C132.625 19.75 133.625 20.625 133.625 21.75C133.625 22.875 132.687 23.75 131.375 23.75H123.5V33.9375H130.25C132.625 33.9375 135.375 31.6875 135.375 28.8125V6" fill="#329947"/>
<path d="M133.438 17.6875C133.438 18.8125 132.5 19.75 131.375 19.75C132.625 19.75 133.625 20.625 133.625 21.75C133.625 22.875 132.687 23.75 131.375 23.75H123.5V33.9375H130.25C132.625 33.9375 135.375 31.6875 135.375 28.8125M129.875 17.9375C129.875 17.1875 129.188 16.5 128.438 16.5H125.562V19.3125H128.5C129.25 19.3125 129.875 18.6875 129.875 17.9375Z" fill="#146643"/>
<path d="M115.312 6C112.25 6 110 7.9375 110 11.25V16.625C110.75 16 111.688 15.5625 112.688 15.5625H119.812V17.0625C118.125 16.6875 116.5 16.5 115.688 16.5C113.938 16.5 112.5 17.9375 112.5 19.6875C112.5 21.4375 113.938 22.875 115.688 22.875C116.5 22.875 118.125 22.75 119.812 22.375V23.75H112.688C111.688 23.75 110.688 23.375 110 22.6875V33.9375H116.75C119.125 33.9375 121.875 31.6875 121.875 28.8125V6H115.312Z" fill="#E20E37"/>
<path d="M110 11.3125V16.6875C110.75 16.0625 111.688 15.625 112.688 15.625H119.812V17.125C118.125 16.75 116.5 16.5625 115.688 16.5625C113.938 16.5625 112.5 18 112.5 19.75C112.5 21.5 113.938 22.9375 115.688 22.9375C116.5 22.9375 118.125 22.8125 119.812 22.4375V23.75H112.688C111.688 23.75 110.688 23.375 110 22.6875V33.9375H116.75C119.125 33.9375 121.875 31.6875 121.875 28.8125V6" fill="#B41F36"/>
<path d="M119.812 15.625V17.125C118.125 16.75 116.5 16.5625 115.688 16.5625C113.938 16.5625 112.5 18 112.5 19.75C112.5 21.5 113.938 22.9375 115.688 22.9375C116.5 22.9375 118.125 22.8125 119.812 22.4375V23.75H112.688C111.688 23.75 110.688 23.375 110 22.6875V33.9375H116.75C119.125 33.9375 121.875 31.6875 121.875 28.8125" fill="#720A1E"/>
<path d="M87.6875 20C87.6875 26.5 82.4375 31.8125 75.875 31.8125C69.375 31.8125 64.0625 26.5 64.0625 20C64.0625 13.5 69.3125 8.1875 75.8125 8.1875C82.4375 8.1875 87.6875 13.5 87.6875 20Z" fill="#FF9800"/>
<path d="M60 8.1875C53.5625 8.25 48.3125 13.5 48.3125 20C48.3125 26.5 53.5625 31.8125 60.125 31.8125C63.1875 31.8125 65.9375 30.625 68.0625 28.75C68.5 28.375 68.875 27.9375 69.25 27.5H66.8125C66.5 27.125 66.1875 26.6875 65.9375 26.3125H70.125C70.375 25.9375 70.625 25.5 70.8125 25.0625H65.25C65.0625 24.6875 64.875 24.25 64.75 23.8125H71.25C71.625 22.625 71.875 21.375 71.875 20.0625C71.875 19.1875 71.75 18.375 71.625 17.5625H64.375C64.4375 17.125 64.5625 16.75 64.6875 16.3125H71.1875C71.0625 15.875 70.875 15.4375 70.6875 15.0625H65.1875C65.375 14.625 65.625 14.25 65.875 13.8125H70.0625C69.8125 13.375 69.5 12.9375 69.125 12.5625H66.8125C67.1875 12.125 67.5625 11.75 68 11.375C65.9375 9.4375 63.125 8.3125 60.0625 8.3125C60.0625 8.1875 60.0625 8.1875 60 8.1875Z" fill="#F44336"/>
<path d="M64.3125 23L64.5 21.9375C64.4375 21.9375 64.3125 22 64.1875 22C63.75 22 63.6875 21.75 63.75 21.625L64.125 19.4375H64.8125L65 18.25H64.375L64.5 17.5H63.25C63.25 17.5 62.5 21.625 62.5 22.125C62.5 22.875 62.9375 23.1875 63.5 23.1875C63.875 23.1875 64.1875 23.0625 64.3125 23ZM64.75 21C64.75 22.75 65.9375 23.1875 66.9375 23.1875C67.875 23.1875 68.25 23 68.25 23L68.5 21.8125C68.5 21.8125 67.8125 22.125 67.1875 22.125C65.8125 22.125 66.0625 21.125 66.0625 21.125H68.625C68.625 21.125 68.8125 20.3125 68.8125 20C68.8125 19.1875 68.375 18.1875 67 18.1875C65.6875 18.0625 64.75 19.4375 64.75 21ZM66.9375 19.1875C67.625 19.1875 67.5 20 67.5 20.0625H66.125C66.125 20 66.25 19.1875 66.9375 19.1875ZM74.875 23L75.125 21.625C75.125 21.625 74.5 21.9375 74.0625 21.9375C73.1875 21.9375 72.8125 21.25 72.8125 20.5C72.8125 19 73.5625 18.1875 74.4375 18.1875C75.0625 18.1875 75.5625 18.5625 75.5625 18.5625L75.75 17.25C75.75 17.25 75 16.9375 74.3125 16.9375C72.875 16.9375 71.4375 18.1875 71.4375 20.5625C71.4375 22.125 72.1875 23.1875 73.6875 23.1875C74.1875 23.1875 74.875 23 74.875 23ZM57.4375 18.0625C56.5625 18.0625 55.9375 18.3125 55.9375 18.3125L55.75 19.375C55.75 19.375 56.3125 19.125 57.125 19.125C57.5625 19.125 57.9375 19.1875 57.9375 19.5625C57.9375 19.8125 57.875 19.875 57.875 19.875H57.3125C56.25 19.875 55.0625 20.3125 55.0625 21.75C55.0625 22.875 55.8125 23.125 56.25 23.125C57.125 23.125 57.5 22.5625 57.5625 22.5625L57.5 23.0625H58.625L59.125 19.625C59.125 18.125 57.875 18.0625 57.4375 18.0625ZM57.6875 20.875C57.6875 21.0625 57.5625 22.0625 56.8125 22.0625C56.4375 22.0625 56.3125 21.75 56.3125 21.5625C56.3125 21.25 56.5 20.8125 57.4375 20.8125C57.625 20.875 57.6875 20.875 57.6875 20.875ZM60.3125 23.125C60.625 23.125 62.1875 23.1875 62.1875 21.5C62.1875 19.9375 60.6875 20.25 60.6875 19.625C60.6875 19.3125 60.9375 19.1875 61.375 19.1875C61.5625 19.1875 62.25 19.25 62.25 19.25L62.4375 18.125C62.4375 18.125 62 18 61.25 18C60.3125 18 59.375 18.375 59.375 19.625C59.375 21.0625 60.9375 20.9375 60.9375 21.5C60.9375 21.875 60.5 21.9375 60.1875 21.9375C59.625 21.9375 59.0625 21.75 59.0625 21.75L58.875 22.875C58.9375 23 59.25 23.125 60.3125 23.125ZM85.25 17.0625L85 18.75C85 18.75 84.5 18.125 83.8125 18.125C82.6875 18.125 81.6875 19.5 81.6875 21.125C81.6875 22.125 82.1875 23.1875 83.25 23.1875C84 23.1875 84.4375 22.6875 84.4375 22.6875L84.375 23.125H85.625L86.5625 17.125L85.25 17.0625ZM84.6875 20.375C84.6875 21.0625 84.375 21.9375 83.6875 21.9375C83.25 21.9375 83 21.5625 83 20.9375C83 19.9375 83.4375 19.3125 84 19.3125C84.4375 19.3125 84.6875 19.625 84.6875 20.375ZM50.625 23.0625L51.375 18.5625L51.5 23.0625H52.375L54 18.5625L53.3125 23.0625H54.625L55.625 17.0625H53.5625L52.3125 20.75L52.25 17.0625H50.4375L49.4375 23.0625H50.625ZM70 23.0625C70.375 21 70.4375 19.3125 71.3125 19.625C71.4375 18.8125 71.625 18.5 71.75 18.1875H71.5C70.9375 18.1875 70.5 18.9375 70.5 18.9375L70.625 18.25H69.4375L68.625 23.125H70V23.0625ZM77.75 18.0625C76.875 18.0625 76.25 18.3125 76.25 18.3125L76.0625 19.375C76.0625 19.375 76.625 19.125 77.4375 19.125C77.875 19.125 78.25 19.1875 78.25 19.5625C78.25 19.8125 78.1875 19.875 78.1875 19.875H77.625C76.5625 19.875 75.375 20.3125 75.375 21.75C75.375 22.875 76.125 23.125 76.5625 23.125C77.4375 23.125 77.8125 22.5625 77.875 22.5625L77.8125 23.0625H78.9375L79.4375 19.625C79.5 18.125 78.1875 18.0625 77.75 18.0625ZM78.0625 20.875C78.0625 21.0625 77.9375 22.0625 77.1875 22.0625C76.8125 22.0625 76.6875 21.75 76.6875 21.5625C76.6875 21.25 76.875 20.8125 77.8125 20.8125C78 20.875 78 20.875 78.0625 20.875ZM80.5 23.0625C80.875 21 80.9375 19.3125 81.8125 19.625C81.9375 18.8125 82.125 18.5 82.25 18.1875H82C81.4375 18.1875 81 18.9375 81 18.9375L81.125 18.25H79.9375L79.125 23.125H80.5V23.0625Z" fill="white"/>
<g clip-path="url(#clip0_3138_15435)">
<path d="M202.94 0.0118386L187.673 0.0078125H187.669C187.657 0.0078125 187.645 0.00993153 187.634 0.00993153C185.537 0.0747737 182.924 1.77381 182.448 3.86868L175.229 36.1336C174.753 38.2482 176.047 39.9686 178.129 40.0002H194.168C196.218 39.8978 198.211 38.2183 198.678 36.1472L205.898 3.88203C206.382 1.74626 205.057 0.0118386 202.94 0.0118386Z" fill="#01798A"/>
<path d="M175.229 36.1335L182.449 3.86858C182.924 1.77372 185.537 0.0746817 187.634 0.00983952L181.564 0.00602527L170.627 0.00390625C168.524 0.0473463 165.878 1.75825 165.402 3.8688L158.18 36.1335C157.703 38.2481 158.999 39.9685 161.079 40.0001H178.129C176.047 39.9685 174.753 38.2481 175.229 36.1335Z" fill="#024381"/>
<path d="M158.18 36.1334L165.402 3.86849C165.878 1.75794 168.524 0.0470424 170.627 0.00360235L156.617 0C154.502 0 151.79 1.73061 151.307 3.86849L144.085 36.1334C144.041 36.3303 144.016 36.5233 144.002 36.7119V37.3103C144.143 38.8517 145.309 39.9741 146.984 39.9998H161.079C158.999 39.9684 157.703 38.248 158.18 36.1334Z" fill="#DD0228"/>
<path d="M170.922 23.5144H171.188C171.431 23.5144 171.595 23.4316 171.672 23.2682L172.361 22.2269H174.206L173.821 22.9118H176.034L175.753 23.9613H173.12C172.817 24.422 172.444 24.6383 171.995 24.6127H170.624L170.922 23.5144ZM170.619 25.0183H175.466L175.157 26.1583H173.208L172.911 27.2585H174.807L174.499 28.3986H172.602L172.161 30.0245C172.052 30.2964 172.196 30.4184 172.589 30.3909H174.135L173.849 31.4504H170.881C170.318 31.4504 170.125 31.1253 170.302 30.4737L170.865 28.3988H169.653L169.961 27.2587H171.173L171.47 26.1585H170.311L170.619 25.0183ZM178.355 22.2188L178.279 22.8863C178.279 22.8863 179.193 22.1932 180.024 22.1932H183.092L181.918 26.483C181.821 26.9733 181.404 27.2172 180.667 27.2172H177.189L176.375 30.2294C176.327 30.3909 176.394 30.4735 176.569 30.4735H177.254L177.002 31.4086H175.263C174.595 31.4086 174.317 31.2058 174.427 30.7983L176.729 22.2188H178.355ZM180.954 23.4316H178.215L177.887 24.5892C177.887 24.5892 178.343 24.2567 179.106 24.2448C179.866 24.2328 180.733 24.2448 180.733 24.2448L180.954 23.4316ZM179.961 26.1168C180.164 26.1445 180.277 26.0638 180.291 25.8727L180.458 25.2626H177.716L177.486 26.1168H179.961ZM178.112 27.5028H179.692L179.663 28.1939H180.084C180.296 28.1939 180.402 28.125 180.402 27.9892L180.527 27.5423H181.841L181.665 28.1939C181.517 28.7372 181.123 29.0207 180.484 29.0485H179.642L179.638 30.2294C179.622 30.4186 179.791 30.515 180.14 30.515H180.932L180.676 31.4504H178.778C178.246 31.4758 177.985 31.2198 177.99 30.6765L178.112 27.5028ZM158.954 16.5038C158.739 17.565 158.242 18.38 157.471 18.9587C156.707 19.5277 155.722 19.8131 154.515 19.8131C153.38 19.8131 152.547 19.5217 152.016 18.9371C151.648 18.5218 151.465 17.9941 151.465 17.3563C151.465 17.0925 151.496 16.809 151.558 16.504L152.844 10.2438H154.785L153.517 16.4328C153.481 16.5883 153.464 16.7476 153.465 16.9073C153.463 17.2243 153.541 17.4841 153.699 17.6869C153.929 17.9882 154.302 18.1376 154.822 18.1376C155.419 18.1376 155.911 17.9901 156.293 17.6926C156.675 17.3972 156.925 16.9781 157.037 16.4326L158.309 10.2432H160.24L158.954 16.5038ZM167.108 14.0409H168.628L167.437 19.6281H165.919L167.108 14.0409ZM167.586 12.0053H169.12L168.834 13.3615H167.3L167.586 12.0053ZM169.974 19.2028C169.576 18.8189 169.376 18.3012 169.374 17.6436C169.374 17.5313 169.38 17.4036 169.395 17.2637C169.41 17.1219 169.428 16.9842 169.455 16.8562C169.635 15.9486 170.019 15.2282 170.61 14.6965C171.201 14.1629 171.914 13.8953 172.748 13.8953C173.431 13.8953 173.973 14.0883 174.37 14.474C174.766 14.862 174.965 15.3854 174.965 16.051C174.965 16.165 174.957 16.297 174.942 16.4388C174.925 16.5785 174.904 16.7177 174.878 16.8562C174.702 17.75 174.319 18.4627 173.728 18.9844C173.136 19.5099 172.425 19.7716 171.597 19.7716C170.911 19.7718 170.371 19.5828 169.974 19.2028ZM172.872 18.0965C173.14 17.8032 173.332 17.3582 173.449 16.7657C173.466 16.6731 173.482 16.5767 173.492 16.4803C173.501 16.3858 173.505 16.2972 173.505 16.2165C173.505 15.8719 173.418 15.6043 173.244 15.4153C173.071 15.2244 172.824 15.1298 172.506 15.1298C172.084 15.1298 171.741 15.2792 171.472 15.5787C171.201 15.8781 171.009 16.3307 170.888 16.9331C170.872 17.0257 170.858 17.1183 170.845 17.2088C170.836 17.3014 170.833 17.3879 170.835 17.4667C170.835 17.8094 170.922 18.0732 171.096 18.2601C171.269 18.4472 171.515 18.5396 171.838 18.5396C172.261 18.5394 172.604 18.3917 172.872 18.0965Z" fill="white"/>
<path d="M187.669 0.0077665L181.563 0.00585938L187.634 0.00988553C187.645 0.00988553 187.657 0.0077665 187.669 0.0077665Z" fill="#E02F41"/>
<path d="M181.563 0.00593327L170.711 0C170.684 0 170.655 0.00190712 170.627 0.00381425L181.563 0.00593327Z" fill="#2E4F7D"/>
<path d="M184.831 23.5608L185.197 22.2575H187.051L186.971 22.736C186.971 22.736 187.918 22.2575 188.6 22.2575H190.893L190.528 23.5608H190.168L188.439 29.7072H188.799L188.456 30.9278H188.096L187.946 31.4573H186.15L186.3 30.9278H182.758L183.104 29.7072H183.458L185.189 23.5608H184.831ZM186.831 23.5608L186.359 25.2242C186.359 25.2242 187.166 24.9112 187.862 24.8226C188.016 24.242 188.216 23.5608 188.216 23.5608H186.831ZM186.141 26.004L185.667 27.7465C185.667 27.7465 186.562 27.3015 187.176 27.2642C187.353 26.5907 187.53 26.0042 187.53 26.0042L186.141 26.004ZM186.487 29.7072L186.842 28.4432H185.458L185.102 29.7072H186.487ZM190.971 22.1768H192.714L192.788 22.8263C192.776 22.9916 192.874 23.0706 193.08 23.0706H193.388L193.077 24.1708H191.796C191.307 24.1962 191.055 24.0074 191.032 23.6L190.971 22.1768ZM190.46 24.5374H196.105L195.774 25.7188H193.976L193.668 26.8171H195.464L195.13 27.9963H193.131L192.678 28.6875H193.657L193.883 30.0715C193.91 30.2092 194.031 30.2762 194.238 30.2762H194.542L194.222 31.4158H193.146C192.589 31.4435 192.301 31.2545 192.277 30.847L192.017 29.583L191.127 30.9278C190.916 31.3077 190.592 31.4848 190.156 31.4573H188.513L188.832 30.3173H189.345C189.556 30.3173 189.731 30.223 189.889 30.0318L191.283 27.9963H189.486L189.819 26.8171H191.768L192.078 25.7188H190.127L190.46 24.5374ZM160.742 14.0383H162.114L161.957 14.8454L162.154 14.6151C162.598 14.1347 163.138 13.8965 163.775 13.8965C164.352 13.8965 164.768 14.0658 165.03 14.4063C165.287 14.7469 165.357 15.2175 165.235 15.8219L164.48 19.6293H163.071L163.753 16.1783C163.823 15.8219 163.803 15.5561 163.695 15.3847C163.588 15.2135 163.383 15.1289 163.088 15.1289C162.725 15.1289 162.42 15.2429 162.172 15.4695C161.922 15.6979 161.758 16.0149 161.677 16.4184L161.048 19.6293H159.636L160.742 14.0383ZM176.468 14.0383H177.841L177.685 14.8454L177.879 14.6151C178.324 14.1347 178.866 13.8965 179.501 13.8965C180.078 13.8965 180.495 14.0658 180.755 14.4063C181.01 14.7469 181.084 15.2175 180.959 15.8219L180.207 19.6293H178.796L179.478 16.1783C179.548 15.8219 179.529 15.5561 179.421 15.3847C179.31 15.2135 179.109 15.1289 178.815 15.1289C178.452 15.1289 178.149 15.2429 177.897 15.4695C177.648 15.6979 177.482 16.0149 177.404 16.4184L176.772 19.6293H175.362L176.468 14.0383ZM183.252 10.5732H187.236C188.002 10.5732 188.595 10.7485 189.002 11.0928C189.407 11.4416 189.61 11.9415 189.61 12.5931V12.6128C189.61 12.7368 189.602 12.8766 189.591 13.0281C189.57 13.182 189.544 13.335 189.513 13.4869C189.337 14.3491 188.93 15.0423 188.3 15.5678C187.668 16.0914 186.92 16.3552 186.059 16.3552H183.922L183.261 19.6291H181.411L183.252 10.5732ZM184.248 14.7806H186.02C186.481 14.7806 186.848 14.6721 187.115 14.4576C187.381 14.2411 187.556 13.9103 187.653 13.4615C187.668 13.3786 187.678 13.3038 187.69 13.235C187.696 13.1701 187.704 13.1048 187.704 13.0421C187.704 12.7211 187.591 12.4888 187.364 12.3431C187.138 12.1951 186.784 12.1246 186.293 12.1246H184.788L184.248 14.7806ZM197.891 20.7102C197.306 21.9662 196.749 22.6983 196.421 23.0388C196.094 23.3758 195.444 24.1592 193.881 24.1L194.016 23.1416C195.331 22.732 196.043 20.8872 196.449 20.0703L195.965 14.054L196.982 14.0402H197.836L197.928 17.8142L199.528 14.0402H201.148L197.891 20.7102ZM193.361 14.4949L192.717 14.9418C192.045 14.4104 191.431 14.0815 190.246 14.6367C188.632 15.3925 187.283 21.1906 191.728 19.281L191.981 19.5842L193.729 19.6295L194.878 14.3612L193.361 14.4949ZM192.366 17.3751C192.086 18.2119 191.458 18.765 190.967 18.6075C190.476 18.4539 190.3 17.6468 190.585 16.8081C190.866 15.9693 191.497 15.4182 191.985 15.5756C192.476 15.7293 192.653 16.5364 192.366 17.3751Z" fill="white"/>
</g>
<defs>
<clipPath id="clip0_3138_15435">
<rect width="62" height="40" fill="white" transform="translate(144)"/>
</clipPath>
</defs>
</svg>
