<svg width="91" height="40" viewBox="0 0 91 40" fill="none" xmlns="http://www.w3.org/2000/svg">
<g clip-path="url(#clip0_3135_14120)">
<path fill-rule="evenodd" clip-rule="evenodd" d="M4.23681 6.41811H33.6606C35.6156 6.41811 37.2151 8.0128 37.2151 9.96186V30.486C37.2151 32.4351 35.6156 34.0298 33.6606 34.0298H3.37779C1.42279 34.0298 -0.176758 32.4351 -0.176758 30.486V5.12858C-0.176758 4.20327 0.583521 3.56343 1.50178 3.45515L28.6348 0C29.563 0 30.3134 0.757967 30.3134 1.67343V4.5478H2.53852C2.53852 5.74874 2.90385 6.40827 4.23681 6.40827V6.41811ZM20.7358 28.911C18.2575 29.3835 15.0782 28.5665 13.3503 26.706C12.5703 25.8693 13.8242 24.6093 14.6141 25.446C15.7792 26.6962 17.8527 27.277 19.5411 27.2376C21.6936 27.1884 23.619 25.2295 22.3946 23.0442C20.6964 20.0222 16.5198 20.8687 14.3673 18.4865C12.6295 16.567 13.449 13.545 15.4929 12.2062C17.6256 10.8084 21.2986 10.8675 23.0463 12.8658C23.7967 13.7222 22.5427 14.9822 21.7825 14.1258C20.3705 12.5114 17.0332 12.7279 15.7595 14.3915C13.9427 16.7639 16.658 18.0436 18.5537 18.6145C21.1604 19.402 24.0534 20.8392 24.5274 23.8218C24.9026 26.2237 23.0463 28.4484 20.7358 28.9012V28.911Z" fill="#EE4E2C"/>
<path fill-rule="evenodd" clip-rule="evenodd" d="M20.7357 28.911C18.2574 29.3835 15.078 28.5664 13.3501 26.706C12.5701 25.8692 13.824 24.6092 14.6139 25.446C15.779 26.6961 17.8525 27.2769 19.5409 27.2375C21.6934 27.1883 23.6188 25.2294 22.3945 23.0441C20.6962 20.0221 16.5196 20.8686 14.3671 18.4864C12.6293 16.5669 13.4488 13.5449 15.4927 12.2061C17.6254 10.8083 21.2985 10.8674 23.0461 12.8657C23.7965 13.7221 22.5426 14.9919 21.7823 14.1257C20.3703 12.5113 17.033 12.7279 15.7593 14.3915C13.9425 16.7638 16.6578 18.0435 18.5536 18.6144C21.1602 19.4019 24.0532 20.8391 24.5272 23.8217C24.9024 26.2236 23.0461 28.4483 20.7357 28.9011V28.911Z" fill="#FEFEFE"/>
<path d="M71.4179 5.15826C70.3614 5.15826 69.4234 5.60123 68.7717 6.30998V5.49295C68.7717 4.75467 67.577 4.75467 67.577 5.49295V15.1792C67.577 15.9175 68.7717 15.9273 68.7717 15.1792V10.8676C69.4234 11.5764 70.3713 12.0193 71.4179 12.0193C73.3729 12.0193 74.9626 10.4837 74.9626 8.59372C74.9626 6.70373 73.3729 5.1681 71.4179 5.1681V5.15826ZM71.4179 10.7692C70.1639 10.7692 69.1568 9.78481 69.1568 8.58388C69.1568 7.50107 69.9763 6.59544 71.0526 6.41826C71.0526 6.41826 71.0624 6.41826 71.0723 6.41826C71.1809 6.39857 71.2994 6.38873 71.4179 6.38873C72.3362 6.38873 73.1359 6.93013 73.4914 7.69794V7.70779C73.6099 7.97357 73.679 8.26888 73.679 8.58388C73.679 9.79466 72.662 10.7692 71.4179 10.7692ZM62.6204 12.0095C60.6654 12.0095 59.0757 10.4739 59.0757 8.58388C59.0757 6.69388 60.6654 5.15826 62.6204 5.15826C64.5754 5.15826 66.1651 6.69388 66.1651 8.58388C66.1651 10.4739 64.5754 12.0095 62.6204 12.0095ZM62.6204 6.39857C61.3763 6.39857 60.3593 7.38294 60.3593 8.58388C60.3593 9.79466 61.3763 10.7692 62.6204 10.7692C63.8645 10.7692 64.8815 9.78481 64.8815 8.58388C64.8815 7.3731 63.8645 6.39857 62.6204 6.39857ZM91.0963 8.51497C91.0667 6.93997 90.2373 5.51263 88.5094 5.19763C87.0184 4.92201 85.2806 5.67998 84.6487 7.02857C83.9872 8.42638 84.2637 10.3459 85.567 11.3204C86.9691 12.3737 89.161 12.0489 90.6026 11.2712C91.274 10.907 90.6717 9.91278 90.0003 10.277C89.0919 10.7692 87.8972 11.0153 86.8703 10.6806C86.1002 10.4345 85.6756 9.79466 85.5472 9.07607H90.5039C90.8198 9.07607 91.1062 8.81028 91.0963 8.49528V8.51497ZM85.5867 7.93419C85.5966 7.89482 85.6065 7.8456 85.6164 7.80622C85.9027 6.87107 86.8802 6.31982 87.8676 6.30013C89.0031 6.2706 89.635 7.02857 89.8324 7.93419H85.5769H85.5867ZM83.1578 8.52482C83.1282 6.94982 82.2988 5.52248 80.5709 5.20748C79.0799 4.93185 77.3422 5.68982 76.7102 7.03841C76.0487 8.43622 76.3252 10.3558 77.6285 11.3303C79.0306 12.3836 81.2225 12.0587 82.6641 11.2811C83.3355 10.9168 82.7332 9.92263 82.0618 10.2868C81.1534 10.779 79.9587 11.0251 78.9318 10.6904C78.1617 10.4443 77.7371 9.8045 77.6087 9.08591H82.5654C82.8813 9.08591 83.1677 8.82013 83.1578 8.50513V8.52482ZM77.6482 7.94404C77.6581 7.90466 77.668 7.85544 77.6779 7.81607C77.9642 6.88091 78.9417 6.32966 79.9291 6.30998C81.0646 6.28045 81.6965 7.03841 81.894 7.94404H77.6384H77.6482ZM57.6835 7.41247V11.4189C57.6835 12.1768 56.4888 12.1768 56.4888 11.4189V7.49122C56.4493 6.71357 55.7878 6.35919 55.7581 6.34935C54.909 5.98513 53.3687 6.15248 52.4504 7.31404V11.4189C52.4504 12.1768 51.2557 12.1768 51.2557 11.4189V1.13217C51.2557 0.374206 52.4504 0.384049 52.4504 1.13217V5.74888C53.9117 4.77435 55.768 4.88264 56.6468 5.4831C56.6468 5.4831 57.6934 6.05404 57.6835 7.41247ZM49.3106 1.60467C48.1455 0.324987 45.6869 0.285612 44.2651 1.18139C42.9025 2.0378 42.3496 3.97701 43.5147 5.20748C44.9563 6.73326 47.7407 6.19185 48.8761 8.13107C49.6957 9.53872 48.4121 10.7889 46.9705 10.8184C45.8449 10.8381 44.4527 10.464 43.6727 9.66669C43.1494 9.12528 42.3101 9.93247 42.8334 10.4739C43.9886 11.665 46.1115 12.1965 47.7604 11.8914C49.3007 11.6059 50.5448 10.1687 50.2881 8.6331C49.9721 6.72341 48.0369 5.7981 46.2991 5.29607C45.0352 4.93185 43.2185 4.10498 44.4329 2.58905C45.2821 1.51608 47.5136 1.37827 48.4614 2.4217C48.965 2.97295 49.8043 2.16576 49.3007 1.61452L49.3106 1.60467Z" fill="#EE4E2C"/>
<path fill-rule="evenodd" clip-rule="evenodd" d="M80.3931 40.005H76.6115L80.6597 32.3761L74.0048 19.845H78.1123L82.7135 28.5075L87.3146 19.845H91.0963L80.3931 40.005ZM42.6655 34.0298H45.8449V28.2516H50.1202C54.5535 28.2516 58.1574 25.1508 58.1574 21.3216C58.1574 17.4924 54.5634 14.3916 50.1202 14.3916H42.6655C42.6655 20.9377 42.6655 27.4838 42.6655 34.0397V34.0298ZM45.8449 25.0819V17.5514H50.1202C52.5294 17.5514 54.4844 19.2347 54.4844 21.3216C54.4844 23.3986 52.5294 25.0917 50.1202 25.0917H45.8449V25.0819ZM70.0454 19.9632H72.8298V33.9117H70.0454V32.3466C68.8013 33.3998 67.1919 34.0397 65.4344 34.0397C61.5046 34.0397 58.3154 30.8602 58.3154 26.9424C58.3154 23.0246 61.5046 19.845 65.4344 19.845C67.1919 19.845 68.8013 20.4849 70.0454 21.5382V19.973V19.9632ZM65.4344 22.8277C67.7054 22.8277 69.5517 24.6685 69.5517 26.9325C69.5517 29.1966 67.7054 31.0374 65.4344 31.0374C63.1634 31.0374 61.317 29.1966 61.317 26.9325C61.317 24.6685 63.1634 22.8277 65.4344 22.8277Z" fill="#EE4E2C"/>
</g>
<defs>
<clipPath id="clip0_3135_14120">
<rect width="91" height="40" fill="white"/>
</clipPath>
</defs>
</svg>
