<svg width="512" height="512" viewBox="0 0 512 512" fill="none" xmlns="http://www.w3.org/2000/svg">
<path d="M156.427 75.875L165.551 99.2324L159.878 99.212L155.331 84.8555L156.427 75.875Z" fill="#E0E0E0"/>
<path d="M125.246 54.3008L122.112 99.0496L154.512 99.7254L158.157 54.3008H125.246Z" fill="#EBEBEB"/>
<path d="M128.492 57.905L125.871 95.1478L149.965 96.2742L153.324 57.6797L128.492 57.905Z" fill="#FAFAFA"/>
<path d="M133.776 63.168L131.82 89.3517H145.101L147.446 63.168H133.776Z" fill="#E0E0E0"/>
<path d="M93.2866 99.327V76.9219H109.701V99.3168L93.2866 99.327Z" fill="#F5F5F5"/>
<path d="M102.616 76.9222C102.616 76.9222 106.578 47.9942 105.462 48.0352C104.356 48.0762 101.571 74.4134 101.571 74.4134C101.571 74.4134 101.458 52.6022 100.414 52.7149C99.3695 52.8275 100.414 75.8061 100.414 75.8061C100.414 75.8061 98.6322 57.1693 97.6696 57.6096C96.7071 58.0602 98.0792 76.9222 98.0792 76.9222H102.616Z" fill="#E0E0E0"/>
<path d="M99.6357 76.9223C99.6357 76.9223 101.008 62.5044 101.458 63.4874C101.909 64.4705 101.458 72.0686 101.458 72.0686C101.458 72.0686 105.258 53.4318 106.251 54.0666C107.244 54.7015 102.36 74.2906 102.36 74.2906C102.36 74.2906 106.066 63.1086 106.886 64.2862C107.695 65.4638 103.814 75.9598 103.814 75.9598C103.814 75.9598 107.797 68.546 108.063 69.5393C108.329 70.5326 106.159 76.9223 106.159 76.9223H99.6357Z" fill="#EBEBEB"/>
<path d="M97.3008 77.0158C97.3008 77.0158 88.5251 59.7921 89.6106 60.3246C90.696 60.8571 96.3075 71.988 96.3075 71.988C96.3075 71.988 92.6006 61.2462 93.4096 60.9185C94.2288 60.5908 98.2941 72.9812 98.2941 72.9812L99.2054 77.0158H97.3008Z" fill="#EBEBEB"/>
<path d="M100.885 76.9623L101.305 99.3674H93.5017L93.3481 76.8906L100.885 76.9623Z" fill="#E0E0E0"/>
<path d="M93.3073 78.898L100.864 79.0311L109.702 78.898L109.978 76.7578H93.0923L93.3073 78.898Z" fill="#EBEBEB"/>
<path d="M191.55 98.7031H76.6772V104.622H191.55V98.7031Z" fill="#E0E0E0"/>
<path d="M466.79 105.062H352.962V304.21H466.79V105.062Z" fill="#FAFAFA"/>
<path d="M388.424 306.115C388.424 306.115 375.962 216.515 369.418 206.674C369.418 206.674 406.712 178.678 407.849 102.789H351.263V306.115H388.424Z" fill="#EBEBEB"/>
<path d="M431.319 305.716C431.319 305.716 443.781 216.116 450.324 206.275C450.324 206.275 413.03 178.279 411.894 102.391H468.48V305.716H431.319Z" fill="#EBEBEB"/>
<path d="M469.791 97.9766H464.517H342.416V101.11V105.564V304.722V308.009V311.296H475.064V308.009V304.722V97.9766H469.791ZM375.839 208.804V259.533H352.963V208.804H375.839ZM352.963 205.138V152.638H375.839V205.138H352.963ZM410.665 205.138V152.638H439.286V205.138H410.665ZM439.286 208.804V259.533H410.665V208.804H439.286ZM376.863 205.138V152.638H406.999V205.138H376.863ZM406.999 208.804V259.533H376.863V208.804H406.999ZM376.863 151.726V105.564H406.999V151.726H376.863ZM406.999 260.434V304.722H376.863V260.434H406.999ZM410.665 260.434H439.286V304.722H410.665V260.434ZM410.665 151.726V105.564H439.286V151.726H410.665ZM440.3 208.804H464.507V259.533H440.3V208.804ZM440.3 205.138V152.638H464.507V205.138H440.3ZM464.507 151.726H440.3V105.564H464.507V151.726ZM375.839 105.564V151.726H352.963V105.564H375.839ZM352.963 260.434H375.839V304.722H352.963V260.434ZM440.3 304.722V260.434H464.507V304.722H440.3Z" fill="#E0E0E0"/>
<path d="M412.938 356.577C407.9 357.386 405.647 363.581 406.088 368.671C406.528 373.76 408.617 378.726 408.064 383.805C407.357 390.246 402.483 395.694 401.92 402.156C401.254 409.774 406.641 416.522 408.248 423.997C409.026 427.633 408.924 431.483 410.276 434.944C412.559 440.781 419.256 444.539 425.431 443.433C431.606 442.327 436.593 436.49 436.705 430.223C436.818 424.376 433.203 418.867 433.643 413.03C433.971 408.719 436.49 404.634 435.958 400.343C435.313 395.243 430.582 391.619 428.913 386.755C427.243 381.891 428.851 376.525 428.267 371.415C427.223 362.24 422.144 355.84 412.938 356.577Z" fill="#F5F5F5"/>
<path d="M387.195 400.988C386.335 409.487 390.093 419.492 394.465 426.824C398.838 434.166 405.617 440.044 413.491 443.341C414.382 443.71 415.488 444.027 416.236 443.423C416.85 442.921 416.922 442.03 416.932 441.242C416.993 432.302 414.085 423.363 408.771 416.164C403.456 408.965 395.766 403.559 387.195 400.988Z" fill="#EBEBEB"/>
<path d="M424.223 461.118C424.213 461.129 424.121 460.965 423.977 460.647C423.813 460.279 423.619 459.818 423.373 459.255C422.861 458.036 422.103 456.295 421.13 454.145C419.185 449.854 416.318 444.018 412.693 437.812C409.068 431.607 405.381 426.241 402.596 422.442C401.203 420.537 400.057 419.022 399.248 417.977C398.879 417.486 398.572 417.086 398.336 416.769C398.131 416.493 398.029 416.339 398.039 416.329C398.05 416.318 398.183 416.452 398.408 416.708C398.664 417.015 398.992 417.394 399.391 417.865C400.241 418.868 401.439 420.363 402.862 422.237C405.719 425.985 409.457 431.351 413.102 437.566C416.738 443.792 419.574 449.67 421.438 454.012C422.37 456.183 423.086 457.944 423.547 459.183C423.762 459.757 423.936 460.238 424.069 460.606C424.192 460.934 424.243 461.108 424.223 461.118Z" fill="#E0E0E0"/>
<path d="M418.755 380.09C418.775 380.09 418.806 380.366 418.847 380.909C418.888 381.483 418.949 382.271 419.021 383.254C419.154 385.333 419.338 388.261 419.574 391.866C420.035 399.136 420.68 409.182 421.458 420.272C422.236 431.362 423.004 441.407 423.567 448.667C423.844 452.261 424.069 455.19 424.223 457.269C424.294 458.252 424.346 459.03 424.387 459.614C424.417 460.146 424.428 460.433 424.407 460.433C424.387 460.433 424.346 460.156 424.284 459.624C424.223 459.05 424.141 458.272 424.038 457.289C423.844 455.211 423.567 452.292 423.229 448.698C422.574 441.438 421.755 431.403 420.977 420.302C420.198 409.212 419.605 399.157 419.236 391.876C419.072 388.272 418.929 385.333 418.837 383.254C418.806 382.271 418.775 381.483 418.755 380.909C418.734 380.377 418.734 380.09 418.755 380.09Z" fill="#E0E0E0"/>
<path d="M410.931 448.992H432.22V464.618C432.22 470.261 427.643 474.838 422.001 474.838C416.573 474.838 412.088 470.588 411.802 465.161L410.931 448.992Z" fill="#E0E0E0"/>
<path d="M468.767 474.399C468.767 474.542 375.808 474.665 261.161 474.665C146.473 474.665 53.5347 474.542 53.5347 474.399C53.5347 474.256 146.473 474.133 261.161 474.133C375.808 474.133 468.767 474.256 468.767 474.399Z" fill="#263238"/>
<path d="M109.179 460.986C109.179 460.986 135.004 378.964 135.547 376.302C136.038 373.895 126.177 314.872 124.928 299.594L159.826 300.894C159.826 300.894 159.826 300.986 159.826 301.15L174.653 301.969L161.382 469.721H145.326L146.913 414.067C137.011 440.65 122.818 467.745 122.818 467.745L109.179 460.986Z" fill="#FFBE9D"/>
<path d="M146.258 434.016C146.247 433.504 146.452 415.369 146.452 415.369C146.657 416.454 152.606 399.619 152.463 398.595C152.391 398.073 146.258 434.016 146.258 434.016Z" fill="#EB996E"/>
<path d="M153.149 390.629C153.19 390.629 153.221 390.987 153.252 391.643C153.282 392.298 153.292 393.25 153.231 394.428C153.211 395.012 153.149 395.657 153.067 396.343C152.975 397.029 152.883 397.766 152.729 398.524C152.443 400.06 151.992 401.709 151.419 403.408C150.251 406.798 148.961 409.767 148.05 411.928C147.62 412.911 147.241 413.751 146.933 414.468C146.657 415.062 146.493 415.389 146.452 415.369C146.411 415.348 146.524 415.01 146.739 414.386C146.954 413.771 147.282 412.88 147.701 411.785C148.521 409.593 149.76 406.603 150.907 403.245C151.47 401.565 151.931 399.937 152.238 398.432C152.412 397.684 152.514 396.957 152.627 396.292C152.719 395.616 152.801 394.981 152.852 394.407C152.965 393.25 153.016 392.308 153.047 391.653C153.077 390.987 153.108 390.629 153.149 390.629Z" fill="#EB996E"/>
<path d="M175.934 332.904C176.548 309.516 173.927 285.288 171.848 277.946C171.653 277.249 171.479 276.532 171.315 275.826L167.342 259.217C167.342 259.217 165.694 257.865 170.107 251.997C172.155 249.274 171.776 238.87 171.776 238.87L169.8 252.622L190.526 242.638C190.526 242.638 181.822 217.847 179.006 214.222C171.704 204.822 158.515 206.46 158.515 206.46L141.251 206.266C141.251 206.266 134.656 206.685 128.369 209.624L127.939 209.737V209.829C122.993 212.246 118.579 216.311 117.299 222.936C115.231 233.74 115.876 238.675 115.876 238.675L129.946 238.429L128.696 268.207C127.631 271.873 124.662 270.993 120.269 287.919C118.456 294.883 117.371 301.487 116.726 307.375C115.886 315.117 116.03 322.94 117.043 330.661L124.938 390.637H172.739L175.934 332.904Z" fill="#455A64"/>
<path d="M136.725 233.565L139.285 244.481H115.108L116.695 226.172L136.725 233.565Z" fill="#455A64"/>
<path d="M115.108 244.48C115.108 244.408 116.326 244.275 118.313 244.163C120.3 244.05 123.034 243.947 126.065 243.958C129.096 243.968 131.84 244.101 133.816 244.265C135.793 244.419 137.011 244.593 137.011 244.654C137.001 244.726 135.782 244.695 133.796 244.634C131.82 244.572 129.086 244.5 126.054 244.49C123.034 244.48 120.3 244.511 118.313 244.531C116.337 244.562 115.108 244.562 115.108 244.48Z" fill="#263238"/>
<path d="M167.342 260.004C167.311 260.004 167.24 259.636 167.199 258.939C167.219 258.591 167.188 258.161 167.291 257.68C167.352 257.188 167.496 256.635 167.711 256.052C167.916 255.468 168.202 254.843 168.561 254.208C168.909 253.563 169.318 252.908 169.748 252.222C170.609 250.86 171.561 249.355 172.134 247.614C172.411 246.743 172.595 245.873 172.646 245.013C172.708 244.153 172.657 243.313 172.575 242.525C172.401 240.937 172.032 239.524 171.704 238.357C171.018 236.022 170.435 234.609 170.527 234.578C170.557 234.568 170.742 234.896 171.018 235.531C171.295 236.155 171.684 237.077 172.063 238.244C172.442 239.412 172.861 240.835 173.066 242.463C173.169 243.272 173.23 244.143 173.179 245.044C173.138 245.945 172.943 246.877 172.657 247.778C172.042 249.6 171.059 251.136 170.179 252.478C169.738 253.154 169.318 253.799 168.96 254.413C168.602 255.028 168.305 255.622 168.079 256.175C167.854 256.727 167.69 257.25 167.598 257.721C167.475 258.182 167.475 258.601 167.424 258.939C167.383 259.615 167.383 260.004 167.342 260.004Z" fill="#263238"/>
<path d="M124.938 390.626C124.928 390.626 124.959 390.503 125.031 390.278C125.113 390.032 125.225 389.694 125.358 389.284C125.665 388.383 126.106 387.103 126.669 385.465C127.232 383.806 127.99 381.799 128.84 379.464C129.69 377.119 130.704 374.477 131.809 371.549C134.073 365.691 136.755 358.738 139.735 351.017C141.22 347.147 142.777 343.092 144.394 338.883C146.012 334.674 147.63 330.302 149.299 325.817C150.928 321.321 152.545 316.939 154 312.679C154.727 310.549 155.454 308.45 156.15 306.402C156.816 304.343 157.471 302.326 158.106 300.35C159.427 296.428 160.451 292.629 161.526 289.106C162.028 287.335 162.458 285.615 162.898 283.956C163.318 282.297 163.799 280.73 164.096 279.194C164.434 277.668 164.752 276.214 165.059 274.832C165.212 274.146 165.356 273.47 165.499 272.825C165.612 272.169 165.714 271.535 165.817 270.92C166.021 269.691 166.206 268.555 166.38 267.5C166.554 266.445 166.738 265.493 166.779 264.612C166.943 262.892 167.066 261.551 167.158 260.598C167.209 260.158 167.24 259.82 167.271 259.554C167.301 259.318 167.322 259.195 167.322 259.195C167.332 259.195 167.332 259.318 167.322 259.554C167.312 259.82 167.291 260.168 167.26 260.598C167.199 261.551 167.097 262.902 166.984 264.633C166.953 265.513 166.789 266.476 166.625 267.531C166.462 268.585 166.288 269.732 166.103 270.961C166.011 271.575 165.909 272.21 165.806 272.876C165.673 273.531 165.53 274.197 165.386 274.893C165.089 276.276 164.782 277.74 164.465 279.266C164.168 280.812 163.707 282.389 163.297 284.048C162.867 285.707 162.448 287.437 161.956 289.209C160.901 292.742 159.888 296.551 158.577 300.483C157.942 302.459 157.297 304.477 156.631 306.545C155.935 308.603 155.218 310.692 154.491 312.832C153.037 317.103 151.429 321.485 149.801 325.981C148.142 330.466 146.514 334.838 144.886 339.047C143.258 343.255 141.691 347.311 140.196 351.171C137.175 358.882 134.451 365.824 132.168 371.661C131.041 374.58 130.017 377.222 129.127 379.546C128.246 381.871 127.457 383.867 126.864 385.516C126.259 387.134 125.788 388.404 125.461 389.295C125.307 389.704 125.174 390.032 125.082 390.278C124.99 390.513 124.949 390.626 124.938 390.626Z" fill="#263238"/>
<path d="M137.769 226.09C137.84 226.09 137.871 227.155 137.851 228.865C137.83 230.575 137.769 232.94 137.666 235.552C137.564 238.163 137.441 240.528 137.328 242.238C137.216 243.948 137.103 245.003 137.032 245.003C136.96 245.003 136.929 243.938 136.95 242.228C136.97 240.518 137.032 238.153 137.134 235.541C137.236 232.93 137.359 230.565 137.472 228.855C137.584 227.134 137.697 226.08 137.769 226.09Z" fill="#263238"/>
<path opacity="0.3" d="M159.58 242.77C159.58 242.77 154.399 275.394 139.295 274.339C139.295 274.339 132.496 274.258 130.304 269.742V267.96L159.58 242.77Z" fill="black"/>
<path d="M167.342 259.216C167.342 259.359 164.066 259.605 160.021 259.758C155.966 259.912 152.679 259.912 152.679 259.769C152.679 259.625 155.955 259.379 160.011 259.226C164.045 259.072 167.332 259.072 167.342 259.216Z" fill="#263238"/>
<path d="M161.803 259.442C161.803 259.473 161.577 259.514 161.28 259.289C160.973 259.074 160.727 258.603 160.471 258.081C160.185 257.476 159.877 256.852 159.56 256.196C159.406 255.838 159.191 255.48 159.079 254.998C158.966 254.537 159.079 253.862 159.652 253.554C159.939 253.401 160.297 253.452 160.543 253.595C160.789 253.739 160.953 253.933 161.096 254.118C161.362 254.517 161.526 254.886 161.69 255.265C161.987 256.022 162.12 256.749 162.161 257.364C162.233 258.593 161.977 259.32 161.925 259.309C161.833 259.299 161.956 258.562 161.792 257.405C161.7 256.831 161.547 256.155 161.239 255.459C161.086 255.121 160.901 254.742 160.676 254.425C160.451 254.107 160.133 253.892 159.888 254.025C159.632 254.159 159.499 254.537 159.591 254.886C159.662 255.244 159.857 255.623 160.011 255.981C160.287 256.657 160.553 257.292 160.819 257.917C161.035 258.48 161.209 258.9 161.424 259.125C161.618 259.361 161.813 259.401 161.803 259.442Z" fill="#263238"/>
<path d="M161.833 259.997C161.772 259.976 161.987 259.147 162.488 257.857C162.734 257.211 163.062 256.454 163.451 255.634C163.645 255.225 163.861 254.795 164.086 254.354C164.198 254.129 164.342 253.883 164.567 253.668C164.772 253.443 165.222 253.279 165.581 253.484C165.919 253.668 166.083 254.027 166.103 254.334C166.124 254.651 166.062 254.918 166.001 255.163C165.878 255.665 165.693 256.126 165.468 256.546C165.018 257.375 164.444 258.02 163.891 258.461C162.775 259.352 161.874 259.495 161.864 259.444C161.823 259.352 162.652 259.085 163.645 258.174C164.137 257.723 164.639 257.099 165.038 256.321C165.233 255.931 165.397 255.501 165.499 255.041C165.632 254.58 165.632 254.109 165.335 253.955C165.1 253.791 164.751 254.18 164.547 254.6C164.321 255.03 164.096 255.45 163.891 255.86C163.482 256.669 163.123 257.396 162.837 258.02C162.253 259.239 161.905 260.017 161.833 259.997Z" fill="#263238"/>
<path opacity="0.3" d="M137.769 228.438L140.656 247.975L138.793 251.396L136.499 244.76L137.011 244.668L137.769 228.438Z" fill="black"/>
<path d="M161.679 470.55L161.69 469.045L145.244 468.328L145.203 474.544L146.217 474.615C150.733 474.882 169.195 475.639 172.216 474.738C175.575 473.725 161.679 470.55 161.679 470.55Z" fill="#FD3257"/>
<g opacity="0.5">
<path d="M151.132 474.429C150.907 473.057 150.149 471.787 149.053 470.937C147.958 470.088 146.616 469.627 145.234 469.739L145.213 474.317L151.132 474.429Z" fill="white"/>
</g>
<path opacity="0.5" d="M168.468 472.344C168.468 472.344 173.332 473.767 172.728 474.566C172.114 475.365 153.436 475.303 145.193 474.545L145.224 474.177L167.014 474.443C167.014 474.443 167.516 472.385 168.468 472.344Z" fill="white"/>
<path d="M144.968 474.165C144.968 474.175 145.06 474.185 145.244 474.195C145.49 474.216 145.756 474.226 146.053 474.247C146.862 474.288 147.855 474.329 149.023 474.39C151.532 474.492 155.003 474.585 158.843 474.595C162.683 474.615 166.154 474.554 168.663 474.472C169.841 474.431 170.834 474.39 171.633 474.359C171.93 474.339 172.196 474.329 172.442 474.318C172.626 474.308 172.718 474.298 172.718 474.288C172.718 474.277 172.616 474.277 172.431 474.277C172.186 474.277 171.919 474.277 171.622 474.288C170.814 474.298 169.82 474.318 168.643 474.339C166.134 474.38 162.662 474.421 158.822 474.4C154.993 474.38 151.521 474.318 149.002 474.247C147.825 474.216 146.831 474.195 146.022 474.175C145.726 474.165 145.459 474.165 145.214 474.165C145.06 474.154 144.968 474.165 144.968 474.165Z" fill="#263238"/>
<path d="M167.014 474.696C167.076 474.706 167.127 473.989 167.578 473.283C168.018 472.556 168.632 472.197 168.591 472.146C168.581 472.095 167.875 472.402 167.403 473.18C166.922 473.948 166.963 474.706 167.014 474.696Z" fill="#263238"/>
<path d="M162.192 472.231C162.232 472.262 162.468 471.986 162.714 471.607C162.949 471.228 163.113 470.9 163.062 470.87C163.021 470.839 162.785 471.115 162.54 471.494C162.304 471.873 162.14 472.201 162.192 472.231Z" fill="#263238"/>
<path d="M160.87 471.523C160.911 471.564 161.167 471.39 161.444 471.144C161.731 470.888 161.925 470.652 161.894 470.611C161.853 470.57 161.597 470.745 161.321 470.99C161.034 471.246 160.829 471.482 160.87 471.523Z" fill="#263238"/>
<path d="M160.041 469.978C160.041 470.029 160.42 470.08 160.891 470.091C161.362 470.101 161.751 470.06 161.751 470.009C161.751 469.958 161.372 469.906 160.901 469.896C160.42 469.886 160.041 469.927 160.041 469.978Z" fill="#263238"/>
<path d="M159.754 468.89C159.734 468.941 160.154 469.126 160.706 469.167C161.259 469.208 161.7 469.095 161.689 469.044C161.679 468.982 161.249 469.013 160.717 468.972C160.194 468.931 159.775 468.829 159.754 468.89Z" fill="#263238"/>
<path d="M162.755 470.808C162.755 470.828 163.154 470.879 163.81 470.808C164.137 470.767 164.516 470.695 164.926 470.562C165.131 470.49 165.346 470.439 165.571 470.296C165.673 470.224 165.786 470.132 165.837 469.968C165.878 469.814 165.796 469.63 165.684 469.548C164.68 469.026 163.676 469.589 163.298 470.101C163.093 470.367 163.001 470.623 162.949 470.797C162.908 470.982 162.908 471.084 162.919 471.084C162.96 471.094 162.99 470.675 163.4 470.193C163.605 469.958 163.912 469.733 164.301 469.61C164.67 469.497 165.202 469.477 165.55 469.702C165.714 469.825 165.653 470.019 165.468 470.132C165.294 470.244 165.069 470.306 164.875 470.378C164.475 470.511 164.107 470.603 163.789 470.654C163.154 470.777 162.755 470.777 162.755 470.808Z" fill="#263238"/>
<path d="M163.021 470.858C163.031 470.869 163.195 470.602 163.144 470.131C163.123 469.896 163.031 469.619 162.857 469.363C162.673 469.128 162.437 468.81 161.987 468.821C161.741 468.851 161.618 469.128 161.659 469.302C161.68 469.486 161.762 469.64 161.833 469.773C161.987 470.039 162.161 470.254 162.325 470.408C162.652 470.735 162.908 470.858 162.929 470.838C162.949 470.817 162.724 470.654 162.427 470.316C162.284 470.152 162.13 469.937 161.987 469.681C161.843 469.455 161.741 469.056 162.007 469.015C162.274 468.995 162.54 469.251 162.693 469.466C162.857 469.691 162.949 469.937 162.99 470.152C163.093 470.582 162.99 470.848 163.021 470.858Z" fill="#263238"/>
<path d="M145.316 469.689C145.316 469.73 145.787 469.648 146.524 469.741C147.262 469.823 148.275 470.13 149.156 470.836C150.037 471.543 150.559 472.475 150.794 473.171C151.04 473.878 151.061 474.349 151.102 474.338C151.112 474.338 151.122 474.215 151.102 474.011C151.081 473.796 151.04 473.488 150.927 473.13C150.712 472.403 150.2 471.42 149.279 470.683C148.357 469.945 147.292 469.648 146.534 469.597C146.156 469.567 145.848 469.587 145.633 469.618C145.429 469.648 145.316 469.679 145.316 469.689Z" fill="#263238"/>
<path d="M153.191 472.863C153.18 472.914 154.255 473.088 155.576 473.088C156.908 473.098 157.973 472.934 157.973 472.883C157.962 472.822 156.897 472.893 155.576 472.883C154.266 472.883 153.201 472.801 153.191 472.863Z" fill="#263238"/>
<path d="M149.986 472.835C149.945 472.876 150.068 473.06 150.18 473.306C150.293 473.552 150.344 473.767 150.405 473.767C150.457 473.767 150.487 473.511 150.364 473.224C150.242 472.937 150.027 472.794 149.986 472.835Z" fill="#263238"/>
<path d="M148.787 471.318C148.746 471.359 148.849 471.523 149.023 471.697C149.187 471.871 149.361 471.973 149.402 471.943C149.443 471.902 149.34 471.738 149.166 471.564C148.992 471.39 148.828 471.287 148.787 471.318Z" fill="#263238"/>
<path d="M147.057 470.63C147.067 470.681 147.282 470.681 147.528 470.774C147.774 470.855 147.937 470.989 147.989 470.948C148.03 470.917 147.896 470.681 147.6 470.579C147.292 470.477 147.036 470.579 147.057 470.63Z" fill="#263238"/>
<path d="M145.828 470.304C145.808 470.355 145.9 470.437 146.033 470.489C146.167 470.54 146.3 470.54 146.321 470.489C146.341 470.437 146.249 470.355 146.115 470.304C145.972 470.253 145.849 470.253 145.828 470.304Z" fill="#263238"/>
<path d="M123.146 469.097L123.771 467.725L109.056 460.332L106.465 465.985L107.366 466.466C111.381 468.555 127.908 476.808 131.031 477.228C134.523 477.689 123.146 469.097 123.146 469.097Z" fill="#FD3257"/>
<g opacity="0.5">
<path d="M111.933 468.318C112.281 466.977 112.118 465.502 111.472 464.283C110.827 463.055 109.783 462.092 108.482 461.621L106.598 465.789L111.933 468.318Z" fill="white"/>
</g>
<path opacity="0.5" d="M128.604 473.512C128.604 473.512 132.465 476.799 131.584 477.28C130.703 477.761 113.685 470.051 106.476 465.985L106.65 465.668L126.423 474.833C126.413 474.843 127.724 473.164 128.604 473.512Z" fill="white"/>
<path d="M106.414 465.556C106.414 465.566 106.496 465.607 106.66 465.7C106.875 465.812 107.11 465.935 107.377 466.078C108.093 466.447 108.984 466.898 110.029 467.42C112.282 468.536 115.405 470.041 118.897 471.629C122.388 473.216 125.583 474.578 127.908 475.54C128.993 475.981 129.915 476.349 130.673 476.656C130.949 476.769 131.205 476.861 131.43 476.943C131.604 477.005 131.697 477.035 131.697 477.035C131.697 477.025 131.615 476.984 131.441 476.912C131.215 476.81 130.97 476.708 130.703 476.585C129.956 476.267 129.044 475.878 127.969 475.407C125.665 474.414 122.481 473.031 118.989 471.444C115.497 469.857 112.364 468.372 110.1 467.287C109.046 466.775 108.145 466.345 107.418 465.997C107.141 465.874 106.906 465.751 106.68 465.648C106.506 465.587 106.414 465.546 106.414 465.556Z" fill="#263238"/>
<path d="M126.311 475.066C126.362 475.097 126.7 474.472 127.406 474.001C128.103 473.52 128.809 473.438 128.799 473.386C128.809 473.335 128.041 473.325 127.294 473.837C126.536 474.339 126.259 475.056 126.311 475.066Z" fill="#263238"/>
<path d="M122.921 470.836C122.952 470.877 123.279 470.724 123.648 470.478C124.016 470.232 124.303 469.997 124.272 469.956C124.242 469.915 123.914 470.068 123.545 470.314C123.167 470.56 122.89 470.795 122.921 470.836Z" fill="#263238"/>
<path d="M122.009 469.66C122.03 469.711 122.337 469.66 122.695 469.547C123.054 469.435 123.341 469.302 123.32 469.25C123.3 469.199 122.992 469.25 122.634 469.363C122.265 469.465 121.989 469.609 122.009 469.66Z" fill="#263238"/>
<path d="M121.876 467.91C121.856 467.961 122.184 468.166 122.614 468.361C123.044 468.565 123.402 468.678 123.433 468.637C123.453 468.586 123.126 468.381 122.696 468.187C122.266 467.982 121.907 467.859 121.876 467.91Z" fill="#263238"/>
<path d="M122.071 466.793C122.03 466.834 122.337 467.172 122.829 467.438C123.32 467.705 123.771 467.776 123.781 467.725C123.791 467.674 123.392 467.52 122.931 467.264C122.45 467.019 122.102 466.752 122.071 466.793Z" fill="#263238"/>
<path d="M124.017 469.772C124.007 469.792 124.355 470.007 124.979 470.202C125.287 470.304 125.676 470.386 126.106 470.437C126.321 470.458 126.536 470.499 126.802 470.458C126.925 470.437 127.068 470.397 127.171 470.263C127.273 470.141 127.273 469.946 127.201 469.813C126.505 468.922 125.348 469.024 124.795 469.342C124.498 469.495 124.304 469.7 124.191 469.844C124.078 469.987 124.037 470.089 124.048 470.089C124.078 470.12 124.283 469.741 124.857 469.475C125.133 469.342 125.512 469.26 125.911 469.311C126.29 469.362 126.792 469.557 127.017 469.905C127.12 470.089 126.976 470.243 126.761 470.263C126.556 470.294 126.321 470.263 126.116 470.253C125.696 470.212 125.328 470.141 125.01 470.059C124.396 469.905 124.027 469.741 124.017 469.772Z" fill="#263238"/>
<path d="M124.242 469.935C124.252 469.956 124.498 469.772 124.652 469.321C124.723 469.096 124.764 468.809 124.703 468.502C124.631 468.215 124.549 467.826 124.129 467.652C123.894 467.58 123.341 468.051 123.31 468.225C123.249 468.399 123.587 468.307 123.607 468.461C123.638 468.768 123.71 469.034 123.802 469.249C123.966 469.679 124.16 469.894 124.17 469.884C124.201 469.864 124.058 469.628 123.935 469.198C123.873 468.983 123.812 468.727 123.791 468.44C123.751 468.174 123.822 467.775 124.088 467.836C124.334 467.918 124.478 468.266 124.539 468.533C124.6 468.809 124.58 469.065 124.529 469.28C124.416 469.7 124.211 469.905 124.242 469.935Z" fill="#263238"/>
<path d="M108.565 461.612C108.554 461.643 109.005 461.765 109.65 462.155C110.285 462.533 111.084 463.23 111.606 464.233C112.118 465.247 112.21 466.302 112.149 467.039C112.087 467.776 111.913 468.217 111.954 468.227C111.964 468.227 112.016 468.125 112.087 467.93C112.159 467.725 112.241 467.428 112.292 467.049C112.394 466.302 112.323 465.196 111.79 464.141C111.248 463.086 110.398 462.39 109.732 462.032C109.394 461.847 109.107 461.735 108.903 461.684C108.688 461.622 108.575 461.602 108.565 461.612Z" fill="#263238"/>
<path d="M114.452 467.734C114.422 467.775 115.333 468.369 116.541 468.922C117.75 469.475 118.794 469.772 118.804 469.721C118.825 469.669 117.821 469.291 116.623 468.748C115.425 468.195 114.483 467.683 114.452 467.734Z" fill="#263238"/>
<path d="M111.544 466.396C111.493 466.416 111.534 466.642 111.524 466.908C111.524 467.174 111.483 467.399 111.544 467.42C111.595 467.44 111.728 467.215 111.728 466.908C111.728 466.59 111.595 466.375 111.544 466.396Z" fill="#263238"/>
<path d="M111.063 464.521C111.012 464.542 111.043 464.736 111.125 464.961C111.206 465.187 111.319 465.361 111.37 465.34C111.422 465.32 111.391 465.125 111.309 464.9C111.227 464.675 111.114 464.501 111.063 464.521Z" fill="#263238"/>
<path d="M109.773 463.178C109.763 463.229 109.957 463.321 110.141 463.495C110.326 463.67 110.428 463.864 110.49 463.844C110.541 463.833 110.51 463.567 110.285 463.352C110.049 463.137 109.783 463.127 109.773 463.178Z" fill="#263238"/>
<path d="M108.79 462.381C108.749 462.422 108.8 462.535 108.902 462.638C109.005 462.74 109.118 462.792 109.159 462.761C109.2 462.72 109.149 462.607 109.046 462.504C108.943 462.391 108.82 462.34 108.79 462.381Z" fill="#263238"/>
<path d="M170.752 213.936C170.885 212.564 171.162 210.721 171.223 209.871C171.418 207.28 171.858 206.707 172.718 207.086C174.121 207.71 172.647 214.336 173.66 214.428C174.203 214.479 174.93 210.598 175.217 208.693C175.524 206.656 175.739 203.881 175.872 202.898C176.016 201.812 177.859 201.566 177.797 203.492C177.726 205.488 177.633 210.967 178.094 211.182C179.374 211.776 179.333 203.942 179.63 201.382C179.702 200.809 179.825 200.409 179.989 200.133C180.429 199.355 181.637 199.652 181.76 200.532C182.098 203.031 181.607 209.779 181.791 210.875C181.852 211.213 182.692 211.376 182.897 210.26C183.173 208.755 183.05 201.566 184.525 202.212C186.153 202.908 184.402 211.417 185.068 212.277C186.307 213.895 186.44 204.649 187.976 205.048C188.754 205.253 188.734 205.54 187.945 210.475C187.587 212.749 186.061 217.664 185.242 221.883C188.805 234.447 195.041 257.979 194.13 265.741C193.608 270.185 183.296 273.257 178.872 269.939C174.449 266.621 171.367 251.855 171.367 251.855L176.681 248.711L171.479 220.244C171.264 219.65 171.162 218.094 170.844 217.357C170.486 216.517 170.66 214.858 170.752 213.936Z" fill="#FFBE9D"/>
<path d="M179.702 263.725C179.559 263.756 178.78 260.428 177.982 256.291C177.173 252.154 176.64 248.785 176.784 248.754C176.927 248.723 177.705 252.051 178.504 256.188C179.313 260.315 179.845 263.694 179.702 263.725Z" fill="#EB996E"/>
<path d="M167.035 195.042C171.541 194.386 176.108 194.202 180.654 194.489C181.361 193.219 181.474 191.632 180.951 190.28C180.429 188.928 179.282 187.822 177.9 187.362C177.337 187.167 176.712 187.065 176.282 186.665C175.586 186.01 175.678 184.884 175.913 183.952C176.149 183.02 176.466 182.006 176.036 181.146C175.371 179.804 173.415 179.774 172.329 178.75C171.08 177.562 171.377 175.555 171.131 173.845C170.701 170.763 168.008 168.141 164.916 167.793" fill="#263238"/>
<path d="M150.497 159.962C145.449 158.743 139.735 161.262 137.237 165.819C135.885 168.287 135.189 171.472 132.67 172.731C131.134 173.499 129.311 173.305 127.601 173.469C125.891 173.632 123.955 174.421 123.546 176.1C123.136 177.79 124.426 179.858 123.28 181.169C122.553 182.009 121.252 181.958 120.218 182.398C118.139 183.278 117.545 185.982 117.77 188.224C117.996 190.477 118.743 192.75 118.211 194.942C120.494 195.638 122.809 196.345 125.194 196.468C127.58 196.59 130.089 196.078 131.943 194.573C131.748 195.556 132.383 196.55 133.233 197.072C134.083 197.594 135.117 197.717 136.121 197.778C139.387 197.983 142.695 197.614 145.838 196.693" fill="#263238"/>
<path d="M161.731 207.681C161.669 203.411 161.608 199.192 161.608 199.192C161.608 199.192 168.509 198.516 169.001 191.502C169.492 184.487 169.247 168.298 169.247 168.298L156.754 161.867L143.442 172.65L143.985 208.131C144.148 213.098 148.347 216.958 153.303 216.713C158.075 216.446 161.812 212.463 161.731 207.681Z" fill="#FFBE9D"/>
<path d="M167.752 180.267C167.742 180.758 167.353 181.158 166.871 181.158C166.39 181.147 166.001 180.748 166.001 180.246C166.011 179.755 166.4 179.355 166.882 179.355C167.373 179.355 167.752 179.765 167.752 180.267Z" fill="#263238"/>
<path d="M168.612 179.295C168.499 179.408 167.854 178.834 166.912 178.773C165.97 178.701 165.253 179.172 165.161 179.039C165.11 178.978 165.233 178.773 165.54 178.558C165.847 178.343 166.359 178.148 166.953 178.189C167.537 178.23 168.028 178.496 168.295 178.752C168.571 179.019 168.663 179.244 168.612 179.295Z" fill="#263238"/>
<path d="M157.604 180.267C157.594 180.758 157.205 181.158 156.723 181.158C156.242 181.158 155.853 180.748 155.853 180.246C155.863 179.755 156.252 179.355 156.734 179.355C157.225 179.366 157.614 179.765 157.604 180.267Z" fill="#263238"/>
<path d="M158.157 179.295C158.044 179.408 157.399 178.834 156.457 178.773C155.515 178.701 154.798 179.172 154.706 179.039C154.655 178.978 154.778 178.773 155.085 178.558C155.392 178.343 155.904 178.148 156.498 178.189C157.082 178.23 157.573 178.496 157.84 178.752C158.126 179.019 158.218 179.244 158.157 179.295Z" fill="#263238"/>
<path d="M161.475 187.188C161.475 187.127 162.058 187.065 163.021 186.994C163.267 186.983 163.492 186.953 163.543 186.778C163.605 186.594 163.523 186.307 163.42 186C163.226 185.365 163.011 184.69 162.796 183.993C161.925 181.136 161.311 178.781 161.423 178.75C161.526 178.72 162.325 181.003 163.185 183.87C163.39 184.577 163.594 185.253 163.779 185.888C163.861 186.185 164.004 186.533 163.861 186.912C163.789 187.096 163.605 187.229 163.451 187.26C163.297 187.301 163.154 187.29 163.041 187.29C162.069 187.28 161.475 187.25 161.475 187.188Z" fill="#263238"/>
<path d="M132.977 179.048C133.048 178.546 132.905 179.591 133.007 178.812C133.141 177.727 133.294 176.59 133.458 175.966C137.339 161.363 149.903 158.763 152.392 158.793C155.054 158.824 162.662 158.599 166.892 163.903C172.483 170.907 169.318 177.84 169.318 177.84L158.229 175.874C159.048 173.109 157.921 169.658 157.276 168.05L157.215 167.989C155.105 178.475 143.811 180.83 143.811 180.83L143.677 196.2C135.434 195.002 132.782 185.131 132.977 179.048Z" fill="#263238"/>
<path d="M143.944 187.209C144.015 186.155 144.497 183.636 144.148 182.642C143.8 181.649 142.694 181.424 141.476 181.434C140.257 181.444 138.803 182.56 138.844 184.055C138.875 185.264 139.284 186.513 140.319 187.138C141.363 187.762 142.705 187.783 143.831 187.332" fill="#FFBE9D"/>
<path d="M142.633 185.827C142.592 185.756 142.285 185.899 141.845 185.756C141.394 185.633 140.954 185.11 140.933 184.383C140.913 184.025 141.005 183.697 141.179 183.544C141.363 183.38 141.65 183.339 141.875 183.359C142.346 183.411 142.674 183.554 142.705 183.472C142.725 183.421 142.5 183.175 141.937 182.991C141.66 182.919 141.251 182.888 140.872 183.165C140.493 183.462 140.38 183.964 140.401 184.404C140.421 184.854 140.575 185.285 140.841 185.602C141.097 185.919 141.466 186.083 141.763 186.124C142.387 186.196 142.684 185.868 142.633 185.827Z" fill="#EB996E"/>
<path d="M161.413 189.216C161.362 189.175 161.587 188.899 162.069 189.011C162.294 189.062 162.581 189.257 162.673 189.595C162.765 189.912 162.683 190.332 162.345 190.588C161.997 190.834 161.567 190.783 161.29 190.598C160.993 190.404 160.901 190.045 160.952 189.82C161.045 189.329 161.413 189.247 161.423 189.318C161.464 189.38 161.301 189.554 161.331 189.841C161.352 189.984 161.413 190.117 161.557 190.189C161.69 190.26 161.905 190.26 162.028 190.168C162.161 190.076 162.222 189.871 162.191 189.718C162.171 189.564 162.069 189.441 161.935 189.37C161.679 189.206 161.454 189.277 161.413 189.216Z" fill="#263238"/>
<path d="M158.71 176.52C158.679 176.673 157.645 176.52 156.437 176.806C155.218 177.073 154.358 177.656 154.266 177.533C154.163 177.441 154.962 176.591 156.324 176.284C157.665 175.967 158.761 176.386 158.71 176.52Z" fill="#263238"/>
<path d="M154.174 158.886C154.164 158.937 153.754 158.875 153.017 158.886C152.279 158.896 151.214 159.029 149.986 159.48C148.767 159.93 147.385 160.729 146.156 161.937C144.927 163.146 143.883 164.784 143.166 166.648C141.722 170.416 141.753 174.164 141.794 176.795C141.835 178.034 141.876 179.089 141.906 179.949C141.937 180.697 141.937 181.106 141.896 181.106C141.855 181.106 141.794 180.697 141.702 179.96C141.609 179.222 141.497 178.147 141.415 176.806C141.333 175.474 141.292 173.877 141.425 172.095C141.558 170.324 141.917 168.368 142.664 166.443C143.412 164.518 144.507 162.818 145.808 161.579C147.108 160.33 148.573 159.541 149.853 159.111C151.143 158.691 152.259 158.619 153.017 158.671C153.396 158.701 153.682 158.732 153.877 158.783C154.071 158.845 154.174 158.875 154.174 158.886Z" fill="#455A64"/>
<path d="M162.365 199.026C162.376 199.087 161.751 199.261 160.717 199.333C159.683 199.394 158.218 199.333 156.682 198.872C155.146 198.421 153.887 197.623 153.119 196.916C152.341 196.21 152.023 195.636 152.064 195.605C152.136 195.554 152.556 196.025 153.354 196.629C154.153 197.234 155.361 197.94 156.826 198.37C159.785 199.251 162.355 198.841 162.365 199.026Z" fill="#EB996E"/>
<path d="M128.399 244.307L136.499 244.757C137.011 247.379 138.793 251.403 138.793 251.403C145.316 240.088 150.374 224.922 151.624 218.819C151.439 218.215 151.224 217.539 150.958 216.782C150.651 215.911 150.917 214.263 151.06 213.351C151.275 211.989 151.654 210.167 151.777 209.327C152.125 206.757 152.535 206.347 153.436 206.634C154.655 207.033 152.934 213.863 153.938 214.017C154.481 214.099 155.136 211.754 155.32 209.829C155.515 207.904 156.385 201.995 157.02 201.606C157.952 201.032 158.761 201.944 158.525 203.859C158.29 205.794 157.983 211.569 159.007 211.651C160.01 211.733 160.85 201.923 160.85 201.923C160.85 201.923 160.696 199.793 161.864 199.845C163.983 199.937 162.324 210.269 162.15 211.252C162.027 211.928 163.123 212.061 163.226 211.324C163.328 210.566 163.84 201.524 166.001 201.596C167.659 201.647 164.721 210.115 165.642 212.071C166.574 214.027 167.219 205.415 168.806 205.528C169.4 205.569 169.83 205.692 168.745 210.566C168.161 213.187 166.451 218.01 164.956 222.004C162.447 235.531 151.439 278.805 134.185 270.88C124.529 266.446 120.023 244.501 120.023 244.501L128.399 244.307Z" fill="#FFBE9D"/>
<path d="M162.662 211.817C162.662 211.817 162.58 211.827 162.437 211.786C162.304 211.745 162.048 211.581 162.089 211.244C162.109 210.66 162.201 209.82 162.334 208.724C162.437 207.619 162.765 206.298 162.765 204.741C162.775 203.953 162.754 203.113 162.713 202.222C162.683 201.772 162.672 201.311 162.58 200.87C162.509 200.451 162.222 199.959 161.894 200.02L161.853 200.031H161.833C161.495 200.02 161.239 200.276 161.136 200.676C161.024 201.055 160.993 201.505 161.014 201.925V201.946V201.956C160.798 204.352 160.563 206.973 160.01 209.769C159.938 210.117 159.856 210.476 159.744 210.824C159.693 210.998 159.631 211.182 159.549 211.356C159.498 211.448 159.467 211.54 159.385 211.633C159.324 211.715 159.232 211.858 158.996 211.878C158.607 211.848 158.494 211.551 158.402 211.387C158.32 211.192 158.269 210.998 158.228 210.813C158.146 210.435 158.105 210.056 158.075 209.667C157.972 208.141 158.023 206.584 158.136 204.987C158.177 204.178 158.372 203.369 158.238 202.642C158.177 202.284 158.023 201.915 157.778 201.772C157.655 201.7 157.522 201.679 157.378 201.72C157.307 201.741 157.225 201.772 157.153 201.812C157.092 201.874 157.102 201.843 157.051 201.946C156.733 202.611 156.58 203.492 156.406 204.301C156.242 205.13 156.098 205.97 155.965 206.83C155.832 207.68 155.709 208.55 155.607 209.421C155.525 210.291 155.392 211.203 155.177 212.083C155.064 212.524 154.941 212.964 154.757 213.404C154.665 213.619 154.562 213.844 154.368 214.07C154.296 214.162 154.081 214.346 153.805 214.275C153.538 214.182 153.467 213.978 153.426 213.855C153.272 213.312 153.323 212.872 153.323 212.401C153.344 211.94 153.385 211.479 153.426 211.018C153.497 210.23 153.569 209.452 153.6 208.684C153.61 208.305 153.61 207.916 153.569 207.557C153.549 207.383 153.518 207.199 153.456 207.066C153.426 207.004 153.395 206.953 153.364 206.922C153.354 206.902 153.344 206.912 153.323 206.902L153.2 206.871C152.576 206.615 152.371 207.475 152.207 208.172C152.064 208.899 151.972 209.646 151.828 210.383C151.582 211.858 151.265 213.322 151.101 214.735C151.03 215.432 150.978 216.159 151.183 216.753C151.408 217.428 151.623 218.094 151.838 218.76L151.859 218.821L151.849 218.883C150.712 223.921 149.125 228.416 147.661 232.42C146.176 236.413 144.701 239.864 143.39 242.691C142.09 245.517 140.912 247.698 140.103 249.183C139.694 249.889 139.366 250.442 139.131 250.852C138.905 251.231 138.782 251.425 138.772 251.415C138.762 251.405 138.854 251.2 139.059 250.811C139.284 250.391 139.581 249.818 139.96 249.101C140.718 247.596 141.844 245.404 143.104 242.557C144.374 239.721 145.807 236.26 147.261 232.266C148.695 228.273 150.251 223.757 151.357 218.78L151.367 218.903C151.152 218.248 150.937 217.592 150.712 216.927C150.456 216.159 150.538 215.421 150.599 214.684C150.763 213.22 151.07 211.796 151.316 210.312C151.46 209.574 151.552 208.827 151.705 208.059C151.798 207.68 151.879 207.291 152.084 206.902C152.187 206.717 152.34 206.502 152.596 206.38C152.862 206.267 153.129 206.298 153.334 206.349L153.487 206.39C153.559 206.42 153.641 206.461 153.702 206.513C153.825 206.615 153.886 206.738 153.938 206.851C154.04 207.076 154.061 207.281 154.091 207.485C154.142 207.895 154.132 208.294 154.122 208.694C154.091 209.492 154.02 210.271 153.948 211.059C153.907 211.52 153.866 211.971 153.856 212.421C153.835 212.861 153.825 213.343 153.927 213.681C153.948 213.783 153.999 213.763 153.948 213.804C153.948 213.773 153.938 213.855 153.938 213.834V213.824C153.938 213.814 153.938 213.804 153.938 213.793C153.938 213.783 153.917 213.752 153.927 213.752C153.938 213.752 153.958 213.742 153.979 213.701C154.081 213.578 154.183 213.384 154.265 213.189C154.429 212.8 154.552 212.37 154.665 211.95C154.88 211.09 155.003 210.24 155.085 209.359C155.187 208.479 155.31 207.608 155.443 206.748C155.576 205.888 155.73 205.038 155.894 204.198C156.088 203.359 156.211 202.54 156.6 201.7C156.621 201.618 156.795 201.423 156.897 201.372C156.999 201.311 157.122 201.26 157.245 201.229C157.501 201.157 157.808 201.188 158.034 201.341C158.494 201.649 158.638 202.14 158.73 202.56C158.802 203 158.791 203.43 158.75 203.84C158.699 204.239 158.669 204.628 158.638 205.028C158.515 206.605 158.464 208.151 158.556 209.636C158.587 210.004 158.617 210.373 158.689 210.721C158.72 210.895 158.771 211.059 158.832 211.203C158.863 211.274 158.904 211.336 158.935 211.377C158.966 211.459 158.996 211.356 158.996 211.489C158.945 211.397 158.996 211.448 159.027 211.366C159.068 211.325 159.099 211.233 159.14 211.172C159.211 211.018 159.262 210.854 159.314 210.691C159.416 210.363 159.498 210.015 159.57 209.677C160.123 206.932 160.389 204.301 160.624 201.925V201.956C160.604 201.475 160.635 201.014 160.778 200.563C160.85 200.338 160.952 200.113 161.147 199.939C161.331 199.754 161.597 199.683 161.843 199.683L161.792 199.693C162.171 199.621 162.447 199.857 162.601 200.082C162.765 200.317 162.836 200.563 162.887 200.809C162.99 201.3 162.99 201.772 163.01 202.212C163.041 203.113 163.051 203.963 163.021 204.751C162.99 206.349 162.631 207.67 162.509 208.755C162.345 209.841 162.222 210.691 162.171 211.254C162.109 211.52 162.324 211.694 162.447 211.745C162.58 211.796 162.662 211.796 162.662 211.817Z" fill="#EB996E"/>
<path d="M352.031 359.323C336.107 348.192 332.493 327.548 333.128 308.983C333.23 305.881 332.892 302.614 334.367 299.9C335.841 297.187 339.282 295.323 342.057 296.634C344.361 297.719 345.364 300.392 346.644 302.604C348.355 305.553 350.904 307.99 353.915 309.547C355.891 310.571 358.328 311.195 360.274 310.12C362.947 308.645 363.264 304.949 363.244 301.867C363.203 296.122 363.172 290.377 363.131 284.633C363.11 281.55 363.1 278.407 364.063 275.478C365.025 272.549 367.135 269.836 370.074 269.017C373.002 268.197 376.627 269.887 377.252 272.898C377.508 274.157 377.252 275.458 377.344 276.738C377.426 278.018 378.03 279.431 379.238 279.789C380.467 280.148 381.706 279.277 382.628 278.376C385.812 275.263 387.963 271.259 389.98 267.266C391.997 263.282 393.953 259.196 396.841 255.807C399.729 252.418 403.722 249.724 408.136 249.468C412.549 249.223 417.249 251.947 418.365 256.278C419.482 260.62 416.952 265.033 414.188 268.546C410.092 273.768 405.258 278.376 399.862 282.196C398.889 282.882 397.834 283.629 397.466 284.776C396.8 286.834 398.746 288.872 400.773 289.548C403.067 290.316 405.565 290.07 407.962 290.357C410.368 290.644 412.969 291.698 413.88 293.972C415.14 297.125 412.508 300.423 409.917 302.583C404.726 306.915 398.797 310.335 392.479 312.649C390.216 313.479 387.83 314.206 385.997 315.803C384.164 317.401 383.068 320.165 384.174 322.336C385.28 324.507 388.116 325.204 390.492 324.763C392.868 324.323 394.987 323.033 397.251 322.183C401.49 320.585 406.958 320.872 409.672 324.538C411.453 326.944 411.607 330.293 410.706 333.16C409.805 336.027 407.972 338.495 406.036 340.779C399.247 348.745 390.554 355.156 380.733 358.565C370.903 361.975 361.8 362.897 352.031 359.323Z" fill="#455A64"/>
<path d="M351.785 373.087C352.461 365.735 354.069 357.051 356.823 347.682C359.557 338.312 363.397 328.297 367.79 317.945C368.896 315.364 369.992 312.814 371.067 310.295C372.142 307.786 373.217 305.298 374.416 302.933C376.791 298.192 379.433 293.809 382.075 289.723C384.717 285.637 387.369 281.859 389.878 278.346C392.397 274.834 394.803 271.609 397.118 268.762C401.736 263.048 406.006 258.88 409.047 256.146C410.563 254.774 411.781 253.75 412.611 253.064C413.01 252.736 413.328 252.48 413.563 252.286C413.778 252.112 413.891 252.03 413.901 252.04C413.911 252.05 413.809 252.142 413.604 252.337C413.379 252.542 413.072 252.808 412.693 253.156C411.884 253.873 410.696 254.917 409.201 256.32C406.211 259.106 402.002 263.294 397.425 269.028C395.131 271.885 392.745 275.121 390.257 278.633C387.768 282.156 385.127 285.945 382.505 290.02C379.884 294.096 377.262 298.468 374.897 303.189C373.709 305.544 372.654 308.012 371.569 310.521C370.494 313.029 369.408 315.579 368.302 318.16C363.92 328.492 360.069 338.486 357.315 347.815C354.55 357.143 352.901 365.776 352.174 373.107" fill="#263238"/>
<path d="M374.569 302.92C374.528 302.931 374.425 302.46 374.272 301.61C374.108 300.76 373.913 299.521 373.698 297.985C373.258 294.913 372.807 290.653 372.316 285.963C371.835 281.263 371.312 277.023 370.831 273.972C370.596 272.446 370.391 271.207 370.237 270.357C370.094 269.507 370.022 269.026 370.063 269.016C370.104 269.006 370.237 269.466 370.452 270.306C370.667 271.146 370.934 272.375 371.22 273.9C371.804 276.952 372.388 281.201 372.869 285.902C373.34 290.54 373.76 294.728 374.088 297.934C374.241 299.377 374.374 300.596 374.477 301.579C374.579 302.439 374.61 302.92 374.569 302.92Z" fill="#263238"/>
<path d="M414.198 295.516C414.198 295.557 413.635 295.618 412.621 295.7C411.607 295.793 410.133 295.915 408.32 296.12C404.695 296.509 399.698 297.226 394.22 298.26C388.741 299.305 383.826 300.452 380.303 301.394C378.532 301.855 377.109 302.254 376.125 302.53C375.142 302.807 374.589 302.95 374.579 302.909C374.569 302.868 375.091 302.664 376.064 302.315C377.027 301.977 378.44 301.506 380.201 300.994C383.713 299.95 388.629 298.731 394.127 297.687C399.616 296.653 404.644 295.997 408.289 295.711C410.112 295.547 411.597 295.485 412.621 295.465C413.624 295.465 414.198 295.475 414.198 295.516Z" fill="#263238"/>
<path d="M357.315 346.954C357.294 346.964 357.202 346.801 357.038 346.473C356.854 346.084 356.629 345.613 356.362 345.039C355.779 343.79 354.98 341.967 354.028 339.694C352.113 335.158 349.676 328.799 347.075 321.754C344.474 314.708 342.088 308.339 340.275 303.762C339.384 301.54 338.657 299.707 338.115 298.355C337.879 297.761 337.695 297.28 337.531 296.881C337.408 296.543 337.347 296.358 337.367 296.348C337.388 296.338 337.48 296.512 337.644 296.829C337.828 297.218 338.053 297.69 338.32 298.263C338.903 299.512 339.702 301.335 340.654 303.608C342.569 308.145 345.006 314.504 347.607 321.549C350.208 328.594 352.594 334.963 354.407 339.54C355.297 341.762 356.024 343.595 356.567 344.947C356.803 345.541 356.987 346.022 357.151 346.422C357.274 346.77 357.325 346.954 357.315 346.954Z" fill="#263238"/>
<path d="M409.969 329.986C409.969 330.006 409.794 330.078 409.446 330.201C409.037 330.334 408.525 330.508 407.921 330.713C406.507 331.174 404.603 331.788 402.278 332.535C397.517 334.082 390.963 336.283 383.734 338.741C376.494 341.188 369.92 343.339 365.128 344.783C362.731 345.51 360.786 346.073 359.434 346.431C358.81 346.595 358.297 346.728 357.878 346.841C357.519 346.933 357.325 346.964 357.325 346.943C357.325 346.923 357.499 346.851 357.847 346.728C358.257 346.595 358.758 346.421 359.373 346.216C360.786 345.755 362.69 345.141 365.015 344.393C369.777 342.847 376.33 340.646 383.57 338.188C390.809 335.741 397.384 333.59 402.176 332.146C404.572 331.419 406.518 330.856 407.869 330.498C408.494 330.334 409.006 330.201 409.426 330.088C409.774 330.006 409.958 329.965 409.969 329.986Z" fill="#263238"/>
<path d="M333.2 405.277L222.73 404.765C209.439 404.704 198.718 393.89 198.779 380.599L199.946 103.638C199.998 90.3461 210.832 79.6146 224.123 79.676L334.602 80.188C347.894 80.2495 358.615 91.0629 358.554 104.354L357.376 381.305C357.325 394.607 346.501 405.339 333.2 405.277Z" fill="#263238"/>
<path d="M334.439 89.1909L313.017 89.0885C310.149 89.0783 307.804 91.4949 307.794 94.5055L307.774 98.3864C307.763 101.387 305.418 103.814 302.551 103.803L260.803 103.609C257.936 103.599 255.611 101.151 255.621 98.1509L255.642 94.2699C255.652 91.2696 253.338 88.8223 250.46 88.812L242.924 88.7813L224.174 88.6994C214.866 88.6584 207.278 96.1746 207.248 105.483L206.101 375.819C206.06 385.127 213.576 392.705 222.874 392.745L333.128 393.257C342.436 393.298 350.024 385.782 350.055 376.474L351.202 106.138C351.253 96.8095 343.747 89.2421 334.439 89.1909Z" fill="#FAFAFA"/>
<path d="M340.429 330.984H216.894C213.627 330.984 210.975 328.332 210.975 325.065V149.173C210.975 145.906 213.627 143.254 216.894 143.254H340.429C343.696 143.254 346.348 145.906 346.348 149.173V325.065C346.358 328.332 343.706 330.984 340.429 330.984Z" fill="#EBEBEB"/>
<path d="M264.643 185.7L237.108 248.778C233.462 257.124 240.159 266.309 249.222 265.387C268.35 263.442 297.022 260.493 316.888 258.434C326.749 257.421 331.654 245.972 325.602 238.118L283.403 183.385C278.303 176.77 267.981 178.04 264.643 185.7Z" fill="#FD3257"/>
<g opacity="0.5">
<path d="M266.056 189.928C266.036 189.918 266.108 189.713 266.282 189.314C266.374 189.119 266.476 188.863 266.63 188.576C266.804 188.3 267.019 187.983 267.244 187.634C267.49 187.286 267.828 186.948 268.176 186.539C268.586 186.201 268.985 185.771 269.528 185.443C270.552 184.706 271.914 184.102 273.542 183.815C275.16 183.538 277.064 183.62 278.959 184.337C279.88 184.736 280.833 185.228 281.672 185.945C281.877 186.119 282.092 186.303 282.307 186.487C282.502 186.682 282.686 186.907 282.881 187.112C283.28 187.532 283.608 187.972 283.966 188.423C286.772 191.997 289.957 196.072 293.479 200.567C300.504 209.599 308.86 220.341 318.137 232.271C319.294 233.766 320.462 235.281 321.649 236.817C322.909 238.445 323.738 240.442 324.025 242.531C324.609 246.719 322.827 251.276 319.264 253.908C317.502 255.239 315.342 256.048 313.14 256.273C311.061 256.488 308.962 256.703 306.853 256.928C302.624 257.359 298.343 257.809 294.001 258.249C285.318 259.13 276.849 260 268.668 260.83C264.572 261.239 260.558 261.649 256.615 262.048C255.632 262.151 254.649 262.243 253.676 262.345L252.222 262.489L250.666 262.54C248.597 262.479 246.56 261.833 244.88 260.717C241.47 258.516 239.494 254.553 239.648 250.723C239.699 250.252 239.699 249.771 239.781 249.3C239.883 248.839 239.965 248.368 240.088 247.917L240.569 246.596C240.733 246.176 240.917 245.787 241.091 245.388C241.788 243.801 242.484 242.234 243.16 240.698C245.884 234.554 248.413 228.83 250.727 223.597C255.366 213.152 259.144 204.704 261.797 198.888C263.128 196 264.162 193.748 264.879 192.201C265.606 190.696 266.005 189.908 266.056 189.928C266.108 189.949 265.8 190.778 265.176 192.345C264.531 193.922 263.578 196.205 262.37 199.154C259.902 205.053 256.277 213.562 251.772 224.068C249.509 229.321 247.041 235.076 244.378 241.241C243.713 242.787 243.037 244.354 242.351 245.951C242.187 246.351 241.992 246.75 241.839 247.149L241.429 248.317C241.327 248.716 241.255 249.126 241.173 249.525C241.091 249.935 241.102 250.354 241.061 250.764C240.938 254.102 242.699 257.563 245.679 259.468C247.153 260.431 248.915 260.973 250.717 261.024L252.069 260.973L253.523 260.82C254.496 260.717 255.479 260.615 256.462 260.512C260.394 260.103 264.418 259.683 268.504 259.253C276.686 258.403 285.154 257.533 293.838 256.631C298.179 256.191 302.46 255.751 306.689 255.321C308.798 255.106 310.897 254.891 312.976 254.676C314.932 254.471 316.785 253.775 318.321 252.628C321.424 250.354 323.011 246.351 322.51 242.705C322.274 240.882 321.557 239.142 320.451 237.698C319.274 236.162 318.117 234.646 316.97 233.151C307.795 221.14 299.531 210.326 292.588 201.243C289.137 196.697 286.004 192.57 283.26 188.955C282.922 188.505 282.584 188.044 282.236 187.665C282.062 187.471 281.898 187.266 281.724 187.081C281.529 186.907 281.335 186.743 281.15 186.58C280.392 185.904 279.532 185.443 278.682 185.044C276.942 184.337 275.17 184.214 273.644 184.429C272.108 184.644 270.798 185.177 269.794 185.832C269.262 186.119 268.872 186.518 268.463 186.825C268.115 187.194 267.767 187.511 267.511 187.829C267.265 188.157 267.039 188.443 266.845 188.699C266.671 188.966 266.548 189.201 266.435 189.385C266.21 189.754 266.087 189.949 266.056 189.928Z" fill="white"/>
</g>
<path opacity="0.5" d="M270.47 204.347L274.576 229.486C274.914 231.545 276.726 233.019 278.805 232.937C280.997 232.855 282.748 231.063 282.768 228.862L283.055 203.159C283.075 201.214 281.386 199.688 279.45 199.903L273.286 200.599C271.463 200.825 270.173 202.524 270.47 204.347Z" fill="white"/>
<path opacity="0.5" d="M286.403 245.534C285.645 248.872 282.328 250.971 278.989 250.224C275.651 249.466 273.552 246.148 274.3 242.81C275.057 239.472 278.375 237.372 281.713 238.12C285.062 238.867 287.161 242.195 286.403 245.534Z" fill="white"/>
<path d="M235.346 170.779L214.846 189.529C212.132 192.007 213.095 196.492 216.587 197.639C223.959 200.065 235.029 203.67 242.688 206.179C246.498 207.418 250.184 204.008 249.232 200.117L242.637 173.001C241.849 169.724 237.835 168.496 235.346 170.779Z" fill="#FD3257"/>
<g opacity="0.5">
<path d="M235.172 172.57C235.152 172.55 235.346 172.222 235.94 171.833C236.524 171.464 237.61 171.055 238.982 171.362C239.658 171.515 240.385 171.864 241.009 172.468C241.634 173.051 242.084 173.983 242.279 174.884C242.75 176.666 243.282 178.683 243.866 180.905C245.003 185.391 246.365 190.715 247.86 196.624C248.044 197.371 248.228 198.119 248.423 198.877C248.638 199.747 248.628 200.71 248.362 201.611C247.85 203.413 246.324 204.918 244.409 205.359C243.457 205.584 242.433 205.522 241.511 205.215C240.712 204.959 239.903 204.693 239.084 204.427C237.456 203.894 235.797 203.352 234.128 202.809C230.779 201.713 227.513 200.638 224.359 199.593C222.782 199.071 221.236 198.559 219.72 198.057C219.341 197.935 218.962 197.801 218.594 197.679L218.031 197.494L217.396 197.238C216.566 196.839 215.86 196.204 215.389 195.456C214.416 193.951 214.334 192.006 215.092 190.49C215.276 190.111 215.512 189.763 215.778 189.446L216.208 189.005L216.607 188.647C217.13 188.176 217.642 187.715 218.154 187.264C220.181 185.462 222.065 183.783 223.786 182.237C227.236 179.175 230.052 176.717 232.029 175.048C233.974 173.369 235.101 172.488 235.172 172.57C235.244 172.652 234.261 173.696 232.428 175.509C230.585 177.321 227.892 179.902 224.533 183.076C222.843 184.664 221 186.384 219.024 188.248C218.532 188.708 218.02 189.179 217.508 189.661L217.13 190.019L216.822 190.347C216.638 190.582 216.474 190.828 216.341 191.104C215.819 192.19 215.901 193.593 216.607 194.658C216.955 195.19 217.447 195.62 218.041 195.897L218.491 196.081L219.055 196.265C219.434 196.388 219.812 196.511 220.191 196.634C221.707 197.126 223.263 197.627 224.84 198.139C227.994 199.163 231.271 200.228 234.619 201.324C236.289 201.877 237.947 202.409 239.576 202.952C240.395 203.218 241.194 203.485 242.002 203.751C242.689 203.976 243.385 204.017 244.061 203.864C245.412 203.577 246.529 202.481 246.897 201.211C247.092 200.576 247.112 199.901 246.959 199.256C246.785 198.498 246.6 197.75 246.426 197.003C245.054 191.064 243.805 185.718 242.76 181.202C242.258 178.96 241.808 176.922 241.409 175.12C241.245 174.229 240.948 173.563 240.456 173.021C239.975 172.498 239.381 172.171 238.818 171.986C237.661 171.628 236.678 171.884 236.094 172.14C235.5 172.386 235.224 172.632 235.172 172.57Z" fill="white"/>
</g>
<path opacity="0.5" d="M234.435 178.612L231.824 188.555C231.609 189.364 232.039 190.214 232.817 190.521C233.636 190.848 234.578 190.47 234.947 189.671L239.268 180.24C239.596 179.523 239.227 178.683 238.47 178.448L236.084 177.69C235.377 177.475 234.63 177.885 234.435 178.612Z" fill="white"/>
<path opacity="0.5" d="M233.554 196.421C232.725 197.527 231.158 197.762 230.052 196.933C228.946 196.103 228.711 194.536 229.54 193.431C230.37 192.325 231.936 192.089 233.042 192.919C234.158 193.738 234.384 195.304 233.554 196.421Z" fill="white"/>
<path d="M314.031 176.595L309.382 197.802C308.767 200.608 311.399 203.035 314.143 202.195C319.939 200.424 328.633 197.751 334.654 195.898C337.644 194.976 338.463 191.136 336.108 189.078L319.693 174.731C317.707 172.991 314.594 174.015 314.031 176.595Z" fill="#FD3257"/>
<g opacity="0.5">
<path d="M314.727 177.813C314.686 177.803 314.655 177.506 314.86 176.984C315.054 176.472 315.566 175.704 316.601 175.264C317.113 175.048 317.748 174.936 318.434 175.038C319.11 175.12 319.847 175.54 320.39 176.021C321.495 176.943 322.755 177.987 324.127 179.134C326.892 181.479 330.158 184.264 333.773 187.336C334.224 187.726 334.685 188.125 335.145 188.524C335.698 189.006 336.139 189.651 336.384 190.368C336.886 191.801 336.579 193.521 335.514 194.709C334.992 195.303 334.275 195.744 333.527 195.979C332.893 196.174 332.258 196.368 331.623 196.573C330.343 196.972 329.042 197.372 327.732 197.771C325.1 198.57 322.53 199.358 320.052 200.116C318.813 200.495 317.594 200.853 316.396 201.222L315.505 201.488L315.065 201.621L314.522 201.744C313.785 201.867 313.017 201.775 312.351 201.498C310.999 200.956 310.037 199.696 309.832 198.334C309.781 197.996 309.781 197.658 309.801 197.32L309.883 196.829L309.975 196.419C310.098 195.887 310.221 195.365 310.344 194.842C310.836 192.784 311.286 190.859 311.706 189.108C312.546 185.606 313.262 182.769 313.785 180.824C314.276 178.858 314.624 177.793 314.727 177.813C314.839 177.834 314.696 178.95 314.358 180.936C314.02 182.923 313.478 185.79 312.781 189.333C312.423 191.105 312.034 193.04 311.614 195.119C311.511 195.641 311.399 196.163 311.286 196.706L311.204 197.105L311.163 197.433C311.153 197.658 311.163 197.873 311.204 198.099C311.358 198.969 312.003 199.788 312.884 200.116C313.314 200.29 313.795 200.331 314.266 200.249L314.614 200.167L315.054 200.034L315.945 199.758C317.133 199.389 318.352 199 319.591 198.621C322.069 197.853 324.639 197.064 327.261 196.245C328.571 195.846 329.872 195.447 331.152 195.057C331.797 194.863 332.432 194.668 333.056 194.474C333.568 194.32 334.009 194.044 334.347 193.675C335.033 192.928 335.248 191.801 334.941 190.869C334.787 190.408 334.521 189.989 334.152 189.661C333.702 189.262 333.251 188.862 332.811 188.463C329.268 185.288 326.083 182.421 323.39 179.994C322.069 178.776 320.871 177.68 319.806 176.707C318.884 175.714 317.707 175.581 316.826 175.868C315.945 176.144 315.423 176.728 315.157 177.148C314.87 177.557 314.798 177.834 314.727 177.813Z" fill="white"/>
</g>
<path opacity="0.5" d="M316.979 182L319.795 189.527C320.021 190.141 320.676 190.489 321.321 190.335C321.997 190.172 322.427 189.516 322.294 188.83L320.809 180.863C320.697 180.259 320.082 179.891 319.498 180.075L317.635 180.669C317.072 180.853 316.775 181.457 316.979 182Z" fill="white"/>
<path opacity="0.5" d="M324.434 193.766C324.404 194.841 323.513 195.701 322.427 195.67C321.352 195.64 320.492 194.749 320.523 193.663C320.553 192.578 321.444 191.728 322.53 191.759C323.605 191.789 324.455 192.69 324.434 193.766Z" fill="white"/>
<path d="M227.031 270.476C227.001 270.496 226.755 270.261 226.315 269.81C226.089 269.585 225.823 269.308 225.557 268.95C225.28 268.602 224.942 268.213 224.635 267.742C223.97 266.82 223.304 265.653 222.669 264.291C222.065 262.919 221.522 261.362 221.143 259.673C220.785 257.983 220.642 256.334 220.631 254.829C220.652 253.334 220.775 251.982 221 250.876C221.082 250.313 221.235 249.822 221.338 249.392C221.44 248.951 221.563 248.593 221.676 248.296C221.891 247.702 222.024 247.385 222.065 247.395C222.157 247.425 221.696 248.736 221.369 250.938C221.195 252.033 221.102 253.354 221.113 254.829C221.154 256.293 221.307 257.901 221.655 259.56C222.024 261.209 222.546 262.745 223.109 264.096C223.703 265.438 224.328 266.605 224.942 267.537C226.14 269.401 227.103 270.404 227.031 270.476Z" fill="#263238"/>
<path d="M235.95 271.765C235.93 271.795 235.623 271.601 235.07 271.212C234.793 271.027 234.466 270.782 234.117 270.454C233.759 270.136 233.339 269.798 232.93 269.358C232.069 268.518 231.168 267.413 230.277 266.102C229.417 264.771 228.588 263.224 227.943 261.514C227.308 259.794 226.919 258.084 226.693 256.517C226.499 254.94 226.458 253.507 226.56 252.319C226.57 251.715 226.673 251.182 226.734 250.711C226.786 250.24 226.878 249.841 226.96 249.513C227.113 248.868 227.226 248.51 227.257 248.52C227.359 248.54 227.011 249.974 226.929 252.329C226.878 253.507 226.96 254.91 227.175 256.446C227.42 257.982 227.82 259.64 228.434 261.33C229.069 263.009 229.868 264.525 230.687 265.836C231.537 267.136 232.397 268.242 233.206 269.102C234.803 270.822 236.012 271.683 235.95 271.765Z" fill="#263238"/>
<path d="M331.193 260.859C331.101 260.808 331.899 259.384 332.8 256.927C333.261 255.698 333.702 254.203 334.08 252.513C334.429 250.824 334.715 248.94 334.818 246.943C334.9 244.946 334.808 243.052 334.613 241.331C334.398 239.621 334.101 238.085 333.763 236.815C333.097 234.286 332.442 232.781 332.534 232.75C332.565 232.74 332.749 233.098 333.056 233.774C333.374 234.44 333.743 235.454 334.121 236.723C334.511 237.993 334.848 239.539 335.094 241.27C335.309 243.011 335.422 244.946 335.34 246.974C335.238 249.001 334.941 250.906 334.552 252.626C334.142 254.336 333.65 255.841 333.149 257.06C332.647 258.289 332.176 259.251 331.797 259.886C331.439 260.531 331.224 260.879 331.193 260.859Z" fill="#263238"/>
<path d="M339.416 258.751C339.324 258.7 339.969 257.543 340.655 255.526C341.003 254.522 341.32 253.294 341.576 251.921C341.812 250.539 341.965 249.003 341.965 247.385C341.945 245.767 341.771 244.231 341.515 242.859C341.238 241.487 340.901 240.268 340.542 239.265C339.825 237.268 339.17 236.101 339.262 236.06C339.293 236.039 339.477 236.316 339.784 236.838C340.102 237.35 340.491 238.138 340.89 239.132C341.31 240.125 341.689 241.364 341.996 242.757C342.283 244.16 342.477 245.726 342.498 247.375C342.498 249.023 342.324 250.6 342.068 252.003C341.781 253.406 341.412 254.645 341.013 255.649C340.624 256.652 340.245 257.441 339.938 257.963C339.631 258.495 339.446 258.772 339.416 258.751Z" fill="#263238"/>
<path d="M334.142 317.088H227.677C225.291 317.088 223.355 315.153 223.355 312.767V291.591C223.355 289.205 225.291 287.27 227.677 287.27H334.152C336.538 287.27 338.474 289.205 338.474 291.591V312.767C338.474 315.153 336.538 317.088 334.142 317.088Z" stroke="#FD3257" stroke-miterlimit="10"/>
<path d="M262.281 305.496H261.174L264.378 296.769H265.469L268.674 305.496H267.566L264.958 298.15H264.889L262.281 305.496ZM262.691 302.087H267.156V303.025H262.691V302.087ZM270.033 305.496V296.769H271.09V304.559H275.147V305.496H270.033ZM276.783 305.496V296.769H282.05V297.706H277.84V300.655H281.777V301.593H277.84V304.559H282.118V305.496H276.783ZM283.955 305.496V296.769H286.904C287.585 296.769 288.145 296.885 288.583 297.118C289.02 297.348 289.344 297.665 289.554 298.069C289.764 298.472 289.87 298.931 289.87 299.445C289.87 299.959 289.764 300.415 289.554 300.813C289.344 301.211 289.022 301.523 288.587 301.75C288.152 301.975 287.597 302.087 286.921 302.087H284.534V301.132H286.887C287.352 301.132 287.727 301.064 288.012 300.928C288.299 300.792 288.506 300.598 288.634 300.348C288.764 300.096 288.83 299.794 288.83 299.445C288.83 299.096 288.764 298.79 288.634 298.529C288.503 298.267 288.294 298.066 288.007 297.924C287.72 297.779 287.341 297.706 286.87 297.706H285.012V305.496H283.955ZM288.063 301.576L290.21 305.496H288.983L286.87 301.576H288.063ZM291.153 297.706V296.769H297.699V297.706H294.954V305.496H293.898V297.706H291.153Z" fill="#FD3257"/>
<path d="M346.358 135.176H210.975V153.772H346.358V135.176Z" fill="#E0E0E0"/>
<path d="M219.311 147.197C220.719 147.197 221.86 146.056 221.86 144.647C221.86 143.239 220.719 142.098 219.311 142.098C217.902 142.098 216.761 143.239 216.761 144.647C216.761 146.056 217.902 147.197 219.311 147.197Z" fill="#F5F5F5"/>
<path d="M229.766 147.197C231.174 147.197 232.315 146.056 232.315 144.647C232.315 143.239 231.174 142.098 229.766 142.098C228.357 142.098 227.216 143.239 227.216 144.647C227.216 146.056 228.357 147.197 229.766 147.197Z" fill="#F5F5F5"/>
<path d="M242.77 144.647C242.77 146.05 241.634 147.197 240.221 147.197C238.818 147.197 237.671 146.061 237.671 144.647C237.671 143.234 238.808 142.098 240.221 142.098C241.624 142.098 242.77 143.245 242.77 144.647Z" fill="#F5F5F5"/>
<path d="M132.28 168.746C131.215 168.49 126.106 167.231 116.224 164.804L116.347 164.784C112.814 167.036 108.032 168.849 102.492 168.941C99.7376 168.931 96.8192 168.603 93.9008 167.692C90.9926 166.78 88.1356 165.285 85.5347 163.258C80.3328 159.234 76.288 152.782 75.4073 145.369C74.9568 141.682 75.264 137.801 76.4108 134.094C77.5782 130.398 79.5955 126.885 82.3091 123.936C83.6812 122.38 85.3094 121.079 86.958 119.881C87.8284 119.349 88.6784 118.786 89.5795 118.314L90.9414 117.659L91.6172 117.331L92.3238 117.075C96.0614 115.621 100.045 115.068 103.864 115.314C107.694 115.56 111.35 116.635 114.555 118.314C117.77 119.994 120.515 122.277 122.675 124.878C124.846 127.469 126.413 130.377 127.416 133.306C128.42 136.234 128.87 139.184 128.901 141.979C128.932 147.58 127.181 152.383 125.051 155.885V155.742C129.526 163.77 131.779 167.845 132.28 168.746C131.768 167.856 129.434 163.831 124.815 155.865L124.774 155.793L124.815 155.721C126.894 152.229 128.584 147.478 128.522 141.959C128.481 139.214 128.02 136.306 127.017 133.429C126.024 130.551 124.457 127.705 122.327 125.165C120.197 122.626 117.483 120.383 114.33 118.745C111.176 117.096 107.581 116.051 103.834 115.816C100.086 115.57 96.1843 116.123 92.5184 117.557L91.822 117.813L91.1564 118.13L89.815 118.775C88.9344 119.236 88.1049 119.789 87.2448 120.311C85.6268 121.489 84.0396 122.759 82.688 124.284C80.0256 127.182 78.0492 130.613 76.9024 134.238C75.776 137.873 75.479 141.672 75.9091 145.297C76.759 152.578 80.7116 158.916 85.8112 162.879C88.3609 164.876 91.1667 166.371 94.0236 167.272C96.8806 168.183 99.758 168.521 102.472 168.542C107.94 168.48 112.66 166.729 116.173 164.528L116.224 164.497L116.285 164.517C126.136 167.118 131.226 168.46 132.28 168.746Z" fill="#263238"/>
<path d="M99.8501 130.174L100.7 143.588C100.772 144.684 101.642 145.554 102.738 145.626C103.895 145.698 104.898 144.848 105.032 143.691L106.516 130.215C106.629 129.191 105.82 128.31 104.796 128.32L101.529 128.361C100.557 128.372 99.7887 129.201 99.8501 130.174Z" fill="#FD3257"/>
<path d="M106.291 153.162C105.718 154.882 103.864 155.804 102.154 155.24C100.434 154.667 99.5122 152.813 100.075 151.103C100.649 149.383 102.502 148.461 104.212 149.025C105.933 149.598 106.865 151.452 106.291 153.162Z" fill="#FD3257"/>
</svg>
