<svg width="24" height="24" viewBox="0 0 24 24" fill="none" xmlns="http://www.w3.org/2000/svg">
<path fill-rule="evenodd" clip-rule="evenodd" d="M3 6.7C3 5.98392 3.28446 5.29716 3.79081 4.79081C4.29716 4.28446 4.98392 4 5.7 4H18.3C19.0161 4 19.7028 4.28446 20.2092 4.79081C20.7155 5.29716 21 5.98392 21 6.7V17.5C21 18.2161 20.7155 18.9028 20.2092 19.4092C19.7028 19.9155 19.0161 20.2 18.3 20.2H5.7C4.98392 20.2 4.29716 19.9155 3.79081 19.4092C3.28446 18.9028 3 18.2161 3 17.5V6.7ZM7.5 7.6C7.2613 7.6 7.03239 7.69482 6.8636 7.8636C6.69482 8.03239 6.6 8.26131 6.6 8.5C6.6 8.7387 6.69482 8.96761 6.8636 9.1364C7.03239 9.30518 7.2613 9.4 7.5 9.4H12C12.2387 9.4 12.4676 9.30518 12.6364 9.1364C12.8052 8.96761 12.9 8.7387 12.9 8.5C12.9 8.26131 12.8052 8.03239 12.6364 7.8636C12.4676 7.69482 12.2387 7.6 12 7.6H7.5ZM14.7 7.6C14.4613 7.6 14.2324 7.69482 14.0636 7.8636C13.8948 8.03239 13.8 8.26131 13.8 8.5C13.8 8.7387 13.8948 8.96761 14.0636 9.1364C14.2324 9.30518 14.4613 9.4 14.7 9.4H16.5C16.7387 9.4 16.9676 9.30518 17.1364 9.1364C17.3052 8.96761 17.4 8.7387 17.4 8.5C17.4 8.26131 17.3052 8.03239 17.1364 7.8636C16.9676 7.69482 16.7387 7.6 16.5 7.6H14.7ZM7.5 11.2C7.2613 11.2 7.03239 11.2948 6.8636 11.4636C6.69482 11.6324 6.6 11.8613 6.6 12.1C6.6 12.3387 6.69482 12.5676 6.8636 12.7364C7.03239 12.9052 7.2613 13 7.5 13H8.4C8.63869 13 8.86761 12.9052 9.0364 12.7364C9.20518 12.5676 9.3 12.3387 9.3 12.1C9.3 11.8613 9.20518 11.6324 9.0364 11.4636C8.86761 11.2948 8.63869 11.2 8.4 11.2H7.5ZM11.1 11.2C10.8613 11.2 10.6324 11.2948 10.4636 11.4636C10.2948 11.6324 10.2 11.8613 10.2 12.1C10.2 12.3387 10.2948 12.5676 10.4636 12.7364C10.6324 12.9052 10.8613 13 11.1 13H16.5C16.7387 13 16.9676 12.9052 17.1364 12.7364C17.3052 12.5676 17.4 12.3387 17.4 12.1C17.4 11.8613 17.3052 11.6324 17.1364 11.4636C16.9676 11.2948 16.7387 11.2 16.5 11.2H11.1ZM7.5 14.8C7.2613 14.8 7.03239 14.8948 6.8636 15.0636C6.69482 15.2324 6.6 15.4613 6.6 15.7C6.6 15.9387 6.69482 16.1676 6.8636 16.3364C7.03239 16.5052 7.2613 16.6 7.5 16.6H12C12.2387 16.6 12.4676 16.5052 12.6364 16.3364C12.8052 16.1676 12.9 15.9387 12.9 15.7C12.9 15.4613 12.8052 15.2324 12.6364 15.0636C12.4676 14.8948 12.2387 14.8 12 14.8H7.5ZM14.7 14.8C14.4613 14.8 14.2324 14.8948 14.0636 15.0636C13.8948 15.2324 13.8 15.4613 13.8 15.7C13.8 15.9387 13.8948 16.1676 14.0636 16.3364C14.2324 16.5052 14.4613 16.6 14.7 16.6H16.5C16.7387 16.6 16.9676 16.5052 17.1364 16.3364C17.3052 16.1676 17.4 15.9387 17.4 15.7C17.4 15.4613 17.3052 15.2324 17.1364 15.0636C16.9676 14.8948 16.7387 14.8 16.5 14.8H14.7Z" fill="currentColor"/>
</svg>
