<svg width="24" height="24" viewBox="0 0 24 24" fill="none" xmlns="http://www.w3.org/2000/svg">
<path d="M12.0002 1.19922C20.4002 1.19922 22.8002 4.69122 22.8002 8.99922C22.8002 13.3072 20.4002 16.7992 12.0002 16.7992C3.6002 16.7992 1.2002 13.3072 1.2002 8.99922C1.2002 4.69122 3.6002 1.19922 12.0002 1.19922ZM6.6002 10.7992C7.5962 10.7992 8.4002 9.99522 8.4002 8.99922C8.4002 8.00322 7.5962 7.19922 6.6002 7.19922C5.6042 7.19922 4.8002 8.00322 4.8002 8.99922C4.8002 9.99522 5.6042 10.7992 6.6002 10.7992ZM12.0002 10.7992C12.9962 10.7992 13.8002 9.99522 13.8002 8.99922C13.8002 8.00322 12.9962 7.19922 12.0002 7.19922C11.0042 7.19922 10.2002 8.00322 10.2002 8.99922C10.2002 9.99522 11.0042 10.7992 12.0002 10.7992ZM17.4002 10.7992C18.3962 10.7992 19.2002 9.99522 19.2002 8.99922C19.2002 8.00322 18.3962 7.19922 17.4002 7.19922C16.4042 7.19922 15.6002 8.00322 15.6002 8.99922C15.6002 9.99522 16.4042 10.7992 17.4002 10.7992ZM7.2002 17.3992C8.1962 17.3992 9.0002 18.2032 9.0002 19.1992C9.0002 20.1952 8.1962 20.9992 7.2002 20.9992C6.2042 20.9992 5.4002 20.1952 5.4002 19.1992C5.4002 18.2032 6.2042 17.3992 7.2002 17.3992ZM3.6002 19.7992C4.2602 19.7992 4.8002 20.3392 4.8002 20.9992C4.8002 21.6592 4.2602 22.1992 3.6002 22.1992C2.9402 22.1992 2.4002 21.6592 2.4002 20.9992C2.4002 20.3392 2.9402 19.7992 3.6002 19.7992Z" fill="currentColor"/>
</svg>
