<svg width="24" height="24" viewBox="0 0 24 24" fill="none" xmlns="http://www.w3.org/2000/svg">
<g clip-path="url(#clip0_2223_18834)">
<path d="M17.3332 10.0009V7.14755C17.3618 5.70214 16.8167 4.30424 15.8172 3.25974C14.8177 2.21524 13.4451 1.6092 11.9998 1.57422C10.5546 1.6092 9.182 2.21524 8.18248 3.25974C7.18296 4.30424 6.63787 5.70214 6.6665 7.14755V10.0009H4.6665V21.3342C4.6665 21.6878 4.80698 22.027 5.05703 22.277C5.30708 22.5271 5.64622 22.6676 5.99984 22.6676H17.9998C18.3535 22.6676 18.6926 22.5271 18.9426 22.277C19.1927 22.027 19.3332 21.6878 19.3332 21.3342V10.0009H17.3332ZM12.6665 16.8209V18.6676H11.3332V16.7609C11.0086 16.5939 10.7509 16.3209 10.6028 15.9873C10.4547 15.6537 10.4252 15.2794 10.519 14.9267C10.6129 14.574 10.8245 14.2639 11.1189 14.048C11.4132 13.8321 11.7725 13.7234 12.1371 13.7398C12.5018 13.7562 12.8499 13.8968 13.1236 14.1382C13.3973 14.3797 13.5803 14.7075 13.6421 15.0672C13.7039 15.427 13.6409 15.797 13.4634 16.116C13.2859 16.435 13.0048 16.6837 12.6665 16.8209ZM15.9998 10.0009H7.99984V7.14755C7.97109 6.05571 8.37568 4.99688 9.12518 4.2024C9.87468 3.40793 10.9082 2.94241 11.9998 2.90755C13.0915 2.94241 14.125 3.40793 14.8745 4.2024C15.624 4.99688 16.0286 6.05571 15.9998 7.14755V10.0009Z" fill="currentColor"/>
</g>
<defs>
<clipPath id="clip0_2223_18834">
<rect width="24" height="24" fill="white"/>
</clipPath>
</defs>
</svg>
