<svg width="24" height="24" viewBox="0 0 24 24" fill="none" xmlns="http://www.w3.org/2000/svg">
<path d="M17.0365 19.121C16.9556 19.202 16.8595 19.2664 16.7537 19.3102C16.6479 19.3541 16.5345 19.3767 16.42 19.3767C16.3054 19.3767 16.192 19.3541 16.0862 19.3102C15.9804 19.2664 15.8843 19.202 15.8034 19.121L13.9494 17.2669C13.8684 17.186 13.8042 17.0898 13.7603 16.984C13.7165 16.8783 13.694 16.7649 13.694 16.6504C13.694 16.5359 13.7165 16.4225 13.7603 16.3167C13.8042 16.2109 13.8684 16.1148 13.9494 16.0338C14.1129 15.8703 14.3347 15.7784 14.5659 15.7784C14.6804 15.7784 14.7938 15.801 14.8996 15.8448C15.0054 15.8886 15.1015 15.9528 15.1825 16.0338L16.4156 17.2669L19.5115 14.171C19.5925 14.09 19.6886 14.0258 19.7944 13.982C19.9002 13.9382 20.0135 13.9156 20.1281 13.9156C20.2426 13.9156 20.3559 13.9382 20.4617 13.982C20.5675 14.0258 20.6636 14.09 20.7446 14.171C20.8256 14.252 20.8898 14.3481 20.9336 14.4539C20.9774 14.5597 21 14.6731 21 14.7876C21 14.9021 20.9774 15.0155 20.9336 15.1212C20.8898 15.227 20.8256 15.3232 20.7446 15.4041L17.0365 19.121ZM11.8155 17.9928H4.7491C3.78709 17.9928 3 17.2057 3 16.2437V5.7491C3 4.78709 3.78709 4 4.7491 4H18.7419C19.7039 4 20.491 4.78709 20.491 5.7491V11.5911C19.5583 11.1474 18.5285 10.9471 17.4974 11.0088C16.4664 11.0705 15.4678 11.3922 14.5947 11.944C13.7216 12.4958 13.0024 13.2597 12.5042 14.1645C12.006 15.0692 11.745 16.0854 11.7455 17.1182C11.7455 17.4156 11.7717 17.7042 11.8155 17.9928ZM11.282 11.5823C11.5618 11.7573 11.9292 11.7573 12.209 11.5823L18.3921 7.71684C18.4798 7.66761 18.5566 7.6011 18.6178 7.52133C18.6791 7.44157 18.7235 7.35021 18.7484 7.25277C18.7733 7.15534 18.7782 7.05387 18.7627 6.9545C18.7473 6.85512 18.7119 6.75992 18.6586 6.67464C18.6053 6.58936 18.5352 6.51578 18.4527 6.45835C18.3701 6.40093 18.2767 6.36086 18.1783 6.34056C18.0798 6.32026 17.9782 6.32015 17.8796 6.34025C17.7811 6.36035 17.6877 6.40023 17.605 6.45748L11.7455 10.1218L5.88601 6.45748C5.80334 6.40023 5.7099 6.36035 5.61137 6.34025C5.51283 6.32015 5.41124 6.32026 5.31274 6.34056C5.21425 6.36086 5.1209 6.40093 5.03834 6.45835C4.95578 6.51578 4.88573 6.58936 4.83243 6.67464C4.77913 6.75992 4.74369 6.85512 4.72825 6.9545C4.71281 7.05387 4.71769 7.15534 4.74261 7.25277C4.76752 7.35021 4.81194 7.44157 4.87319 7.52133C4.93443 7.6011 5.01123 7.66761 5.09892 7.71684L11.282 11.5823Z" fill="currentColor"/>
</svg>
