<svg width="31" height="30" fill="none" xmlns="http://www.w3.org/currentColor/svg"><g clip-path="url(#a)"><path d="M15.5 0c-3.562 0-7.007 1.3-9.72 3.666-2.713 2.367-4.516 5.646-5.086 9.25-.57 3.605.128 7.3 1.972 10.425 1.843 3.124 4.711 5.475 8.09 6.63.75.134 1.031-.327 1.031-.731 0-.365-.018-1.576-.018-2.864-3.769.71-4.744-.942-5.044-1.807a5.588 5.588 0 0 0-1.537-2.173c-.525-.288-1.275-1-.02-1.019.48.054.94.225 1.342.5.401.274.732.643.965 1.077.205.378.481.71.812.979.33.268.71.467 1.116.585a3.132 3.132 0 0 0 2.44-.296 3.269 3.269 0 0 1 .957-2.056c-3.338-.385-6.825-1.711-6.825-7.594a6.072 6.072 0 0 1 1.537-4.133 5.656 5.656 0 0 1 .15-4.076S8.92 5.96 11.787 7.94a13.805 13.805 0 0 1 7.5 0c2.87-2 4.125-1.577 4.125-1.577a5.656 5.656 0 0 1 .15 4.076 6.036 6.036 0 0 1 1.538 4.133c0 5.902-3.506 7.21-6.844 7.594.358.372.634.818.808 1.31.175.49.245 1.014.205 1.535 0 2.057-.02 3.71-.02 4.23 0 .403.282.883 1.032.73 3.373-1.165 6.233-3.52 8.069-6.647a15.714 15.714 0 0 0 1.953-10.42c-.574-3.602-2.378-6.876-5.09-9.24A14.79 14.79 0 0 0 15.5 0Z" fill="currentColor"/></g><defs><clipPath id="a"><path fill="#fff" d="M.5 0h30v30H.5z"/></clipPath></defs></svg>