<svg width="100" height="100" fill="none" xmlns="http://www.w3.org/2000/svg"><g clip-path="url(#a)"><path d="M97.844 54.063c-6.563-.235-11.422-3.344-14.344-5.907a2.237 2.237 0 0 0-2.953 0A25.26 25.26 0 0 1 76 51.328V13.281c0-1.234-1-2.234-2.234-2.234H2.296c-1.233 0-2.233 1-2.233 2.234L0 74.641c0 1.234 1 2.234 2.234 2.234l64.094.016a17.334 17.334 0 0 0 1.906 2.718c3.188 3.688 7.516 6.782 12.86 9.172.297.125.61.203.922.203.312 0 .625-.062.921-.203 5.344-2.39 9.657-5.484 12.86-9.172 2.719-3.14 4.219-7.203 4.219-11.468V56.28a2.252 2.252 0 0 0-2.172-2.218ZM62.797 15.516h8.719v8.843h-8.72v-8.843Zm8.719 13.328v6.953h-20v-6.953h20Zm0 11.422v7.39H63.53v-7.39h7.985Zm-12.47 0v7.39H40.235v-7.39h18.813ZM40.235 15.5h18.078v8.844H40.234V15.5Zm6.813 13.328v6.953H28.969v-6.953h18.078ZM35.75 40.266v7.39H17.516v-7.39H35.75ZM17.531 15.5h18.235v8.844H17.53V15.5Zm-13.047 0h8.563v8.844H4.484V15.5Zm0 13.328h20v6.953h-20v-6.953Zm0 11.422h8.563v7.39H4.484v-7.39Zm8.563 32.156H4.484v-8.265h8.563v8.265Zm2.234-12.75H4.47v-7.531h20v7.531H15.28Zm20.469 12.75H17.516v-8.265H35.75v8.265Zm2.234-12.75h-9.047v-7.531h18.079v7.531h-9.032c.016 0 .016 0 0 0Zm16.985 12.75h-14.75v-8.265h14.75v8.265Zm4.484 0v-8.265h4.578v4c0 1.453.188 2.89.531 4.28l-5.109-.015Zm6.734-18.36a2.239 2.239 0 0 0-2.156 2.235v3.375H51.516v-7.531h20v1.031c-1.641.485-3.407.828-5.329.89Zm29.329 14.095c0 3.187-1.11 6.218-3.125 8.53-2.579 2.985-6.079 5.532-10.391 7.595-4.313-2.063-7.797-4.61-10.39-7.594a12.944 12.944 0 0 1-1.844-2.828c-.016-.063-.047-.11-.079-.172a13.303 13.303 0 0 1-1.203-5.547v-9.781c5.813-.688 10.344-3.203 13.516-5.64 3.156 2.437 7.703 4.952 13.516 5.64v9.797Z" fill="url(#b)"/><path d="M78.39 66.297a2.245 2.245 0 0 0-3.124 3.219l3.859 3.75c.422.406.984.64 1.563.64h.03a2.254 2.254 0 0 0 1.579-.687l6.828-7.094a2.245 2.245 0 0 0-3.234-3.11l-5.266 5.47-2.234-2.188Z" fill="url(#c)"/></g><defs><linearGradient id="b" x1="0" y1="50.016" x2="84.278" y2="86.434" gradientUnits="userSpaceOnUse"><stop stop-color="#D52274"/><stop offset=".563" stop-color="#F44D29"/><stop offset="1" stop-color="#FD7E14"/></linearGradient><linearGradient id="c" x1="74.654" y1="68.15" x2="87.252" y2="73.689" gradientUnits="userSpaceOnUse"><stop stop-color="#D52274"/><stop offset=".563" stop-color="#F44D29"/><stop offset="1" stop-color="#FD7E14"/></linearGradient><clipPath id="a"><path fill="#fff" d="M0 0h100v100H0z"/></clipPath></defs></svg>