<svg width="100" height="100" fill="none" xmlns="http://www.w3.org/2000/svg"><path d="M44.439 5.556a2.777 2.777 0 0 0-2.778 2.777v9.85a33.114 33.114 0 0 0-8.255 3.445l-6.978-6.978a2.778 2.778 0 0 0-3.928 0l-7.856 7.855a2.778 2.778 0 0 0 0 3.928l6.956 6.956a33.109 33.109 0 0 0-3.422 8.278h-9.85a2.777 2.777 0 0 0-2.778 2.777v11.111a2.777 2.777 0 0 0 2.778 2.778h9.839A33.073 33.073 0 0 0 21.61 66.6l-6.967 6.966a2.778 2.778 0 0 0 0 3.928L22.5 85.35a2.778 2.778 0 0 0 3.928 0l6.945-6.945a33.106 33.106 0 0 0 8.288 3.417v9.845a2.777 2.777 0 0 0 2.778 2.777H55.55a2.777 2.777 0 0 0 2.778-2.777v-9.845c.811-.217 2.833-.984 2.833-.984v-5.41s-4 1.488-6.105 1.883a2.779 2.779 0 0 0-2.267 2.722v8.856h-5.555v-8.867a2.776 2.776 0 0 0-2.278-2.722 27.778 27.778 0 0 1-10.689-4.417 2.778 2.778 0 0 0-3.534.328l-6.25 6.25-3.927-3.928 6.266-6.272a2.778 2.778 0 0 0 .334-3.539 27.795 27.795 0 0 1-4.445-10.678 2.777 2.777 0 0 0-2.733-2.266h-8.85v-5.556h8.861a2.778 2.778 0 0 0 2.74-2.267 27.74 27.74 0 0 1 4.405-10.7 2.777 2.777 0 0 0-.334-3.539l-6.244-6.25 3.927-3.928 6.267 6.278a2.777 2.777 0 0 0 3.539.323 27.785 27.785 0 0 1 10.678-4.44 2.778 2.778 0 0 0 2.267-2.732v-8.85h5.555v8.86a2.779 2.779 0 0 0 2.278 2.734 27.883 27.883 0 0 1 10.689 4.416 2.777 2.777 0 0 0 3.539-.333l6.25-6.25 3.927 3.928-6.272 6.277a2.778 2.778 0 0 0-.327 3.545 27.751 27.751 0 0 1 4.438 10.667 2.779 2.779 0 0 0 2.734 2.267H88.9v5.555h-8.867a2.777 2.777 0 0 0-2.733 2.278c-.166.9-.905 3.166-.905 3.166l5 1.506s.317-.917.444-1.389h9.834a2.777 2.777 0 0 0 2.778-2.778v-11.11a2.777 2.777 0 0 0-2.778-2.779h-9.834a33.093 33.093 0 0 0-3.444-8.272l6.966-6.967a2.778 2.778 0 0 0 0-3.927l-7.85-7.856a2.778 2.778 0 0 0-3.928 0l-6.955 6.955a33.144 33.144 0 0 0-8.278-3.421v-9.85a2.78 2.78 0 0 0-2.778-2.778L44.44 5.556Z" fill="url(#a)"/><path d="M49.995 69.444c10.738 0 19.444-8.705 19.444-19.444 0-10.739-8.706-19.445-19.444-19.445-10.74 0-19.445 8.706-19.445 19.445s8.706 19.444 19.445 19.444Z" stroke="url(#b)" stroke-width="5" stroke-linecap="round" stroke-linejoin="round"/><path fill-rule="evenodd" clip-rule="evenodd" d="M74.995 63.889v8.333H66.66v5.556h8.334v8.333h5.555v-8.333h8.334v-5.556H80.55V63.89h-5.555Z" fill="url(#c)"/><defs><linearGradient id="a" x1="5.55" y1="50" x2="85.395" y2="76.89" gradientUnits="userSpaceOnUse"><stop stop-color="#D52274"/><stop offset=".563" stop-color="#F44D29"/><stop offset="1" stop-color="#FD7E14"/></linearGradient><linearGradient id="b" x1="30.55" y1="50" x2="65.478" y2="61.762" gradientUnits="userSpaceOnUse"><stop stop-color="#D52274"/><stop offset=".563" stop-color="#F44D29"/><stop offset="1" stop-color="#FD7E14"/></linearGradient><linearGradient id="c" x1="66.661" y1="75" x2="86.62" y2="81.721" gradientUnits="userSpaceOnUse"><stop stop-color="#D52274"/><stop offset=".563" stop-color="#F44D29"/><stop offset="1" stop-color="#FD7E14"/></linearGradient></defs></svg>