<svg width="100" height="100" fill="none" xmlns="http://www.w3.org/2000/svg"><path d="M77.919 80.573a20.135 20.135 0 0 0-2.614-2.761c-2.727-2.364-6.721-4.377-11.833-3.154 1.463-3.667 3.377-9.91 3.846-18.264l4.636 3.204 5.965 20.975Zm-55.838 0 5.965-20.975 4.636-3.205c.469 8.356 2.383 14.598 3.846 18.265-5.112-1.223-9.106.79-11.833 3.154a20.137 20.137 0 0 0-2.614 2.76Z" fill="url(#a)" stroke="url(#b)"/><path d="M49.952 54.157c.018.003.035.008.048.012.013-.004.03-.009.048-.012" stroke="url(#c)" stroke-width="10" stroke-miterlimit="10" stroke-linecap="round" stroke-linejoin="round"/><path d="M31.64 99.688a1.25 1.25 0 0 1-1.25-1.25V96.68a1.25 1.25 0 0 1 2.5 0v1.757a1.25 1.25 0 0 1-1.25 1.25Zm19.337 0a1.25 1.25 0 0 1-1.25-1.25V96.68a1.25 1.25 0 1 1 2.5 0v1.757a1.25 1.25 0 0 1-1.25 1.25Zm7.03-12.305a1.25 1.25 0 0 1-1.25-1.25v-3.516a1.25 1.25 0 1 1 2.5 0v3.516a1.25 1.25 0 0 1-1.25 1.25Z" fill="url(#d)"/><path d="M31.64 77.852a1.25 1.25 0 0 0-1.25 1.25v14.062a1.25 1.25 0 0 0 2.5 0V79.101a1.25 1.25 0 0 0-1.25-1.25Zm5.274 8.789a1.25 1.25 0 0 0-1.25 1.25v8.789a1.25 1.25 0 1 0 2.5 0v-8.79a1.25 1.25 0 0 0-1.25-1.25Zm14.063-3.516a1.25 1.25 0 0 0-1.25 1.25v8.789a1.25 1.25 0 1 0 2.5 0v-8.789a1.25 1.25 0 0 0-1.25-1.25Zm15.82 0a1.25 1.25 0 0 0-1.25 1.25V96.68a1.25 1.25 0 1 0 2.5 0V84.375a1.25 1.25 0 0 0-1.25-1.25Zm3.516-3.516a1.25 1.25 0 0 0-1.25 1.25v5.274a1.25 1.25 0 1 0 2.5 0V80.86a1.25 1.25 0 0 0-1.25-1.25Zm-8.928-59.093c-.084-.204-.172-.407-.258-.611-.075-.178-.149-.357-.225-.535-.098-.228-.199-.456-.298-.684l-.224-.513c-.11-.249-.224-.498-.337-.747l-.204-.451c-.153-.333-.308-.666-.464-.997l-.094-.202c-.191-.403-.384-.805-.58-1.206l-.078-.156c-.171-.351-.345-.7-.52-1.05l-.144-.283a109.77 109.77 0 0 0-.472-.923l-.17-.325a108.72 108.72 0 0 0-.464-.882c-.061-.116-.124-.231-.186-.347l-.465-.861-.198-.357c-.156-.283-.313-.567-.472-.85l-.211-.372c-.158-.278-.316-.557-.476-.835-.073-.128-.15-.256-.224-.384-.158-.274-.318-.547-.479-.82L53.9 5.72c-.158-.266-.318-.531-.478-.797l-.264-.432c-.156-.255-.312-.51-.47-.765-.098-.158-.198-.315-.297-.473-.15-.24-.3-.48-.453-.72-.11-.174-.223-.348-.335-.522-.111-.174-.221-.348-.334-.522a1.25 1.25 0 0 0-2.248-.442c-.031.044-.058.086-.086.13l.003-.004.006-.01v.001l-.04.058c-4.198 6.44-7.674 12.966-10.331 19.395-4.941 11.947-7.189 23.742-6.68 35.059.443 9.818 2.908 16.888 4.338 20.228.42.98.774 1.703.996 2.136.25.489.406.748.423.776a1.25 1.25 0 0 0 2.035.149c1.09-1.325 3.273-2.294 6.203-2.775.9 3.397 2.067 5.252 3.638 5.79.071.027.145.049.222.064.166.034.338.034.504 0 .076-.016.151-.037.223-.064 1.571-.539 2.738-2.394 3.636-5.79 2.931.481 5.113 1.45 6.203 2.775a1.25 1.25 0 0 0 2.039-.154c.025-.042.618-1.043 1.415-2.907 1.43-3.34 3.895-10.41 4.338-20.229.508-11.29-1.728-23.056-6.644-34.972a1.308 1.308 0 0 0-.077-.187Zm-19.709-.804c.248-.567.501-1.133.76-1.695l.135-.294c.267-.578.538-1.153.815-1.725l.106-.216a112.451 112.451 0 0 1 1.853-3.638l.117-.22c.31-.58.625-1.156.944-1.73l.164-.294c.32-.57.643-1.138.972-1.704l.172-.294c.338-.578.68-1.153 1.028-1.726l.134-.22c.37-.607.744-1.212 1.124-1.814.38.601.754 1.205 1.123 1.812l.137.224c.346.57.687 1.144 1.023 1.72a120.006 120.006 0 0 1 1.145 2l.17.303c.318.572.631 1.146.94 1.722l.12.226a114.1 114.1 0 0 1 1.851 3.634l.105.215a106.335 106.335 0 0 1 1.768 3.846H41.618l.057-.132Zm8.319 59.666c-.444-.433-1.21-1.62-1.943-4.856v-.004c-.771-3.398-1.197-7.697-1.42-11.285-.165-2.672-.22-4.952-.22-6.166 0-.688.167-1.055.317-1.255a1.03 1.03 0 0 1 .091-.105l.046-.044c.019-.017.038-.033.058-.048.267-.212.64-.319 1.035-.362a3.742 3.742 0 0 1 .458-.023h.041l.216.007.092.005.179.015.075.008c.075.008.147.017.218.028l.067.01c.07.012.14.024.203.037h.004c.153.056.314.082.477.077.11.002.22-.011.327-.04l.015-.003h.003l.153-.034.069-.012c.267-.05.537-.081.809-.093h.002c.069-.004.14-.005.21-.005h.013c.091 0 .178.003.262.008.013 0 .027 0 .04.002.06.003.114.01.17.015.388.045.752.152 1.015.36l.058.048.046.044a.986.986 0 0 1 .09.105c.15.199.317.566.317 1.255 0 1.6-.093 5.046-.413 8.81-.236 2.763-.595 5.697-1.129 8.2-.032.148-.063.296-.096.441-.734 3.239-1.517 4.428-1.955 4.86Zm15.614-23.815c-.425 9.423-2.775 16.172-4.14 19.358-.173.407-.355.81-.544 1.21-1.785-1.33-4.153-2.025-6.262-2.385l.04-.212.06-.329.04-.226c.023-.126.045-.252.066-.38l.017-.103a63.88 63.88 0 0 0 .254-1.668l.004-.028.068-.505.016-.12.06-.474.019-.154.053-.453.021-.18.05-.44.02-.19.045-.434.02-.195.043-.429.019-.2.038-.42.018-.204.036-.414.017-.204.033-.409.016-.204.03-.398.016-.215.027-.383.015-.22.024-.363.035-.566.01-.177.023-.398.01-.176.02-.389.007-.158.019-.388.023-.536.005-.118.016-.398.004-.096.014-.401.002-.072.014-.413v-.034l.012-.427v-.002c.018-.715.026-1.32.026-1.776l-.001-.02a6.13 6.13 0 0 0-.072-.907l-.017-.093a4.57 4.57 0 0 0-.198-.742c-.021-.06-.046-.118-.07-.176a3.955 3.955 0 0 0-.217-.441c-.008-.015-.015-.029-.024-.042a3.562 3.562 0 0 0-.725-.877l-.026-.022a3.736 3.736 0 0 0-.68-.461 3.956 3.956 0 0 0-.317-.152l-.076-.032c-.09-.036-.181-.07-.273-.101V53a4.988 4.988 0 0 0-.563-.147l-.127-.025a6.61 6.61 0 0 0-1.02-.095c-.034 0-.065-.004-.1-.004-.337 0-.653.025-.93.057l-.063.008a8.078 8.078 0 0 0-.151.02l-.085.013-.118.019-.073.012a8.28 8.28 0 0 0-.162.03l-.163-.03-.074-.012a7.12 7.12 0 0 0-.419-.06 8.411 8.411 0 0 0-.518-.044h-.004a7.625 7.625 0 0 0-.405-.012c-.032 0-.063.003-.094.003a7.062 7.062 0 0 0-.788.058c-.078.01-.156.023-.232.036l-.144.029a4.905 4.905 0 0 0-.524.136l-.03.009c-.09.03-.178.064-.265.099l-.085.035a4.113 4.113 0 0 0-.261.122l-.056.03a3.712 3.712 0 0 0-.676.46l-.026.022a3.561 3.561 0 0 0-.914 1.24 3.55 3.55 0 0 0-.052.119c-.025.058-.049.117-.071.177a4.476 4.476 0 0 0-.198.741l-.017.095a6.404 6.404 0 0 0-.072.906v.02a79.631 79.631 0 0 0 .05 2.656l.003.063.014.416.004.079.02.517.018.418.005.114.027.55.023.426.007.14.027.471.006.104.035.572.021.313.018.275.026.353c.014.206.03.411.045.617l.018.23.032.396c.023.277.047.555.072.832l.038.418.019.198.043.434.019.184.046.45.018.166.052.465.018.149c.018.16.037.322.057.482l.015.12c.021.17.042.341.065.511l.007.057c.123.95.268 1.895.434 2.838l.019.109c.025.14.05.278.077.416l.026.141c-2.109.36-4.478 1.055-6.262 2.385-.19-.4-.371-.804-.545-1.211-1.363-3.185-3.714-9.934-4.139-19.357-.481-10.706 1.598-21.878 6.178-33.22H59.43c4.58 11.341 6.66 22.513 6.179 33.219Z" fill="url(#e)"/><path d="M58.934 39.697a8.84 8.84 0 0 1-8.841 8.841h-.045v-.001h-.096v.001h-.044a8.841 8.841 0 0 1-8.842-8.841 8.841 8.841 0 0 1 8.841-8.841h.045v.001h.096v-.001h.045a8.841 8.841 0 0 1 8.841 8.841Z" fill="url(#f)"/><defs><linearGradient id="a" x1="20.729" y1="69.507" x2="59.859" y2="97.069" gradientUnits="userSpaceOnUse"><stop stop-color="#D52274"/><stop offset=".563" stop-color="#F44D29"/><stop offset="1" stop-color="#FD7E14"/></linearGradient><linearGradient id="b" x1="20.729" y1="69.507" x2="59.859" y2="97.069" gradientUnits="userSpaceOnUse"><stop stop-color="#D52274"/><stop offset=".563" stop-color="#F44D29"/><stop offset="1" stop-color="#FD7E14"/></linearGradient><linearGradient id="c" x1="49.952" y1="54.163" x2="49.963" y2="54.194" gradientUnits="userSpaceOnUse"><stop stop-color="#D52274"/><stop offset=".563" stop-color="#F44D29"/><stop offset="1" stop-color="#FD7E14"/></linearGradient><linearGradient id="d" x1="30.391" y1="90.527" x2="52.916" y2="102.479" gradientUnits="userSpaceOnUse"><stop stop-color="#D52274"/><stop offset=".563" stop-color="#F44D29"/><stop offset="1" stop-color="#FD7E14"/></linearGradient><linearGradient id="e" x1="30.391" y1="49.219" x2="70.745" y2="54.961" gradientUnits="userSpaceOnUse"><stop stop-color="#D52274"/><stop offset=".563" stop-color="#F44D29"/><stop offset="1" stop-color="#FD7E14"/></linearGradient><linearGradient id="f" x1="41.066" y1="39.697" x2="57.08" y2="45.146" gradientUnits="userSpaceOnUse"><stop stop-color="#D52274"/><stop offset=".563" stop-color="#F44D29"/><stop offset="1" stop-color="#FD7E14"/></linearGradient></defs></svg>