<svg width="24" height="24" viewBox="0 0 24 24" fill="none" xmlns="http://www.w3.org/2000/svg">
<path d="M10.125 9.5C9.95924 9.5 9.80027 9.56585 9.68306 9.68306C9.56585 9.80027 9.5 9.95924 9.5 10.125V13.875C9.5 14.0408 9.56585 14.1997 9.68306 14.3169C9.80027 14.4342 9.95924 14.5 10.125 14.5H13.875C14.0408 14.5 14.1997 14.4342 14.3169 14.3169C14.4342 14.1997 14.5 14.0408 14.5 13.875V10.125C14.5 9.95924 14.4342 9.80027 14.3169 9.68306C14.1997 9.56585 14.0408 9.5 13.875 9.5H10.125Z" fill="currentColor"/>
<path d="M8.875 2.625C8.875 2.45924 8.80915 2.30027 8.69194 2.18306C8.57473 2.06585 8.41576 2 8.25 2C8.08424 2 7.92527 2.06585 7.80806 2.18306C7.69085 2.30027 7.625 2.45924 7.625 2.625V4.5C6.7962 4.5 6.00134 4.82924 5.41529 5.41529C4.82924 6.00134 4.5 6.7962 4.5 7.625H2.625C2.45924 7.625 2.30027 7.69085 2.18306 7.80806C2.06585 7.92527 2 8.08424 2 8.25C2 8.41576 2.06585 8.57473 2.18306 8.69194C2.30027 8.80915 2.45924 8.875 2.625 8.875H4.5V10.125H2.625C2.45924 10.125 2.30027 10.1908 2.18306 10.3081C2.06585 10.4253 2 10.5842 2 10.75C2 10.9158 2.06585 11.0747 2.18306 11.1919C2.30027 11.3092 2.45924 11.375 2.625 11.375H4.5V12.625H2.625C2.45924 12.625 2.30027 12.6908 2.18306 12.8081C2.06585 12.9253 2 13.0842 2 13.25C2 13.4158 2.06585 13.5747 2.18306 13.6919C2.30027 13.8092 2.45924 13.875 2.625 13.875H4.5V15.125H2.625C2.45924 15.125 2.30027 15.1908 2.18306 15.3081C2.06585 15.4253 2 15.5842 2 15.75C2 15.9158 2.06585 16.0747 2.18306 16.1919C2.30027 16.3092 2.45924 16.375 2.625 16.375H4.5C4.5 17.2038 4.82924 17.9987 5.41529 18.5847C6.00134 19.1708 6.7962 19.5 7.625 19.5V21.375C7.625 21.5408 7.69085 21.6997 7.80806 21.8169C7.92527 21.9342 8.08424 22 8.25 22C8.41576 22 8.57473 21.9342 8.69194 21.8169C8.80915 21.6997 8.875 21.5408 8.875 21.375V19.5H10.125V21.375C10.125 21.5408 10.1908 21.6997 10.3081 21.8169C10.4253 21.9342 10.5842 22 10.75 22C10.9158 22 11.0747 21.9342 11.1919 21.8169C11.3092 21.6997 11.375 21.5408 11.375 21.375V19.5H12.625V21.375C12.625 21.5408 12.6908 21.6997 12.8081 21.8169C12.9253 21.9342 13.0842 22 13.25 22C13.4158 22 13.5747 21.9342 13.6919 21.8169C13.8092 21.6997 13.875 21.5408 13.875 21.375V19.5H15.125V21.375C15.125 21.5408 15.1908 21.6997 15.3081 21.8169C15.4253 21.9342 15.5842 22 15.75 22C15.9158 22 16.0747 21.9342 16.1919 21.8169C16.3092 21.6997 16.375 21.5408 16.375 21.375V19.5C17.2038 19.5 17.9987 19.1708 18.5847 18.5847C19.1708 17.9987 19.5 17.2038 19.5 16.375H21.375C21.5408 16.375 21.6997 16.3092 21.8169 16.1919C21.9342 16.0747 22 15.9158 22 15.75C22 15.5842 21.9342 15.4253 21.8169 15.3081C21.6997 15.1908 21.5408 15.125 21.375 15.125H19.5V13.875H21.375C21.5408 13.875 21.6997 13.8092 21.8169 13.6919C21.9342 13.5747 22 13.4158 22 13.25C22 13.0842 21.9342 12.9253 21.8169 12.8081C21.6997 12.6908 21.5408 12.625 21.375 12.625H19.5V11.375H21.375C21.5408 11.375 21.6997 11.3092 21.8169 11.1919C21.9342 11.0747 22 10.9158 22 10.75C22 10.5842 21.9342 10.4253 21.8169 10.3081C21.6997 10.1908 21.5408 10.125 21.375 10.125H19.5V8.875H21.375C21.5408 8.875 21.6997 8.80915 21.8169 8.69194C21.9342 8.57473 22 8.41576 22 8.25C22 8.08424 21.9342 7.92527 21.8169 7.80806C21.6997 7.69085 21.5408 7.625 21.375 7.625H19.5C19.5 6.7962 19.1708 6.00134 18.5847 5.41529C17.9987 4.82924 17.2038 4.5 16.375 4.5V2.625C16.375 2.45924 16.3092 2.30027 16.1919 2.18306C16.0747 2.06585 15.9158 2 15.75 2C15.5842 2 15.4253 2.06585 15.3081 2.18306C15.1908 2.30027 15.125 2.45924 15.125 2.625V4.5H13.875V2.625C13.875 2.45924 13.8092 2.30027 13.6919 2.18306C13.5747 2.06585 13.4158 2 13.25 2C13.0842 2 12.9253 2.06585 12.8081 2.18306C12.6908 2.30027 12.625 2.45924 12.625 2.625V4.5H11.375V2.625C11.375 2.45924 11.3092 2.30027 11.1919 2.18306C11.0747 2.06585 10.9158 2 10.75 2C10.5842 2 10.4253 2.06585 10.3081 2.18306C10.1908 2.30027 10.125 2.45924 10.125 2.625V4.5H8.875V2.625ZM10.125 8.25H13.875C14.3723 8.25 14.8492 8.44754 15.2008 8.79917C15.5525 9.15081 15.75 9.62772 15.75 10.125V13.875C15.75 14.3723 15.5525 14.8492 15.2008 15.2008C14.8492 15.5525 14.3723 15.75 13.875 15.75H10.125C9.62772 15.75 9.15081 15.5525 8.79917 15.2008C8.44754 14.8492 8.25 14.3723 8.25 13.875V10.125C8.25 9.62772 8.44754 9.15081 8.79917 8.79917C9.15081 8.44754 9.62772 8.25 10.125 8.25Z" fill="currentColor"/>
</svg>
