<svg width="24" height="24" viewBox="0 0 24 24" fill="none" xmlns="http://www.w3.org/2000/svg">
<path d="M20.759 5.07191C20.6788 4.98032 20.5805 4.90627 20.4704 4.8544C20.3603 4.80252 20.2406 4.77393 20.1189 4.77042C18.2284 4.72099 15.8362 2.6995 14.2546 1.90623C13.2776 1.41774 12.6335 1.09565 12.1483 1.01081C12.0502 0.996126 11.9505 0.996404 11.8525 1.01163C11.3674 1.09648 10.7224 1.41857 9.74704 1.90705C8.16461 2.6995 5.77243 4.72182 3.88109 4.77042C3.63808 4.77701 3.40578 4.88574 3.24103 5.07191C3.0742 5.26066 2.98812 5.50736 3.00132 5.75892C3.40826 14.0154 6.36882 19.1251 11.5651 22.0948C11.7002 22.1714 11.8501 22.2109 12 22.2109C12.1499 22.2109 12.2998 22.1714 12.4349 22.0948C17.6312 19.1251 20.5917 14.0154 20.9987 5.75892C21.0119 5.50736 20.9258 5.26066 20.759 5.07191ZM15.342 14.1793L14.5396 14.9808C14.4686 15.0515 14.3725 15.0912 14.2723 15.0912C14.1721 15.0912 14.076 15.0515 14.005 14.9808L12 12.9758L9.99499 14.9808C9.95982 15.0159 9.91808 15.0437 9.87215 15.0626C9.82622 15.0815 9.77701 15.0912 9.72734 15.091C9.67766 15.0909 9.62851 15.0809 9.5827 15.0617C9.53688 15.0425 9.49531 15.0145 9.46037 14.9792L8.65721 14.1793C8.58668 14.1081 8.54712 14.0119 8.54712 13.9116C8.54712 13.8113 8.58668 13.7151 8.65721 13.6439L10.6622 11.6397L8.65721 9.63468C8.58679 9.5637 8.54727 9.46777 8.54727 9.36778C8.54727 9.2678 8.58679 9.17186 8.65721 9.10089L9.45955 8.29855C9.49449 8.26316 9.53611 8.23506 9.58199 8.21588C9.62788 8.1967 9.67712 8.18682 9.72685 8.18682C9.77659 8.18682 9.82583 8.1967 9.87171 8.21588C9.9176 8.23506 9.95922 8.26316 9.99416 8.29855L12 10.3036L14.005 8.29855C14.0399 8.26318 14.0814 8.2351 14.1273 8.21593C14.1731 8.19676 14.2222 8.18689 14.2719 8.18689C14.3216 8.18689 14.3707 8.19676 14.4166 8.21593C14.4624 8.2351 14.5039 8.26318 14.5388 8.29855L15.342 9.09924C15.4125 9.1705 15.4521 9.2667 15.4521 9.36696C15.4521 9.46722 15.4125 9.56342 15.342 9.63468L13.337 11.6397L15.342 13.6439C15.4121 13.7153 15.4514 13.8115 15.4514 13.9116C15.4514 14.0117 15.4121 14.1079 15.342 14.1793Z" fill="currentColor"/>
</svg>
