<svg width="32" height="32" viewBox="0 0 32 32" fill="none" xmlns="http://www.w3.org/2000/svg">
<path d="M28.8334 10.0003H3.16671C2.15419 10.0003 1.33337 9.17951 1.33337 8.16699V4.50033C1.33337 3.48781 2.15419 2.66699 3.16671 2.66699H28.8334C29.8459 2.66699 30.6667 3.48781 30.6667 4.50033V8.16699C30.6667 9.17951 29.8459 10.0003 28.8334 10.0003ZM26.0834 4.95866C25.324 4.95866 24.7084 5.57426 24.7084 6.33366C24.7084 7.09306 25.324 7.70866 26.0834 7.70866C26.8428 7.70866 27.4584 7.09306 27.4584 6.33366C27.4584 5.57426 26.8428 4.95866 26.0834 4.95866ZM22.4167 4.95866C21.6573 4.95866 21.0417 5.57426 21.0417 6.33366C21.0417 7.09306 21.6573 7.70866 22.4167 7.70866C23.1761 7.70866 23.7917 7.09306 23.7917 6.33366C23.7917 5.57426 23.1761 4.95866 22.4167 4.95866ZM28.8334 19.167H3.16671C2.15419 19.167 1.33337 18.3462 1.33337 17.3337V13.667C1.33337 12.6545 2.15419 11.8337 3.16671 11.8337H28.8334C29.8459 11.8337 30.6667 12.6545 30.6667 13.667V17.3337C30.6667 18.3462 29.8459 19.167 28.8334 19.167ZM26.0834 14.1253C25.324 14.1253 24.7084 14.7409 24.7084 15.5003C24.7084 16.2597 25.324 16.8753 26.0834 16.8753C26.8428 16.8753 27.4584 16.2597 27.4584 15.5003C27.4584 14.7409 26.8428 14.1253 26.0834 14.1253ZM22.4167 14.1253C21.6573 14.1253 21.0417 14.7409 21.0417 15.5003C21.0417 16.2597 21.6573 16.8753 22.4167 16.8753C23.1761 16.8753 23.7917 16.2597 23.7917 15.5003C23.7917 14.7409 23.1761 14.1253 22.4167 14.1253ZM28.8334 28.3337H3.16671C2.15419 28.3337 1.33337 27.5128 1.33337 26.5003V22.8337C1.33337 21.8211 2.15419 21.0003 3.16671 21.0003H28.8334C29.8459 21.0003 30.6667 21.8211 30.6667 22.8337V26.5003C30.6667 27.5128 29.8459 28.3337 28.8334 28.3337ZM26.0834 23.292C25.324 23.292 24.7084 23.9076 24.7084 24.667C24.7084 25.4264 25.324 26.042 26.0834 26.042C26.8428 26.042 27.4584 25.4264 27.4584 24.667C27.4584 23.9076 26.8428 23.292 26.0834 23.292ZM22.4167 23.292C21.6573 23.292 21.0417 23.9076 21.0417 24.667C21.0417 25.4264 21.6573 26.042 22.4167 26.042C23.1761 26.042 23.7917 25.4264 23.7917 24.667C23.7917 23.9076 23.1761 23.292 22.4167 23.292Z" fill="url(#paint0_linear_2209_11487)"/>
<defs>
<linearGradient id="paint0_linear_2209_11487" x1="1.33337" y1="15.5003" x2="26.8828" y2="25.3328" gradientUnits="userSpaceOnUse">
<stop stop-color="#D52274"/>
<stop offset="0.5625" stop-color="#F44D29"/>
<stop offset="1" stop-color="#FD7E14"/>
</linearGradient>
</defs>
</svg>
