<svg width="40" height="40" viewBox="0 0 40 40" fill="none" xmlns="http://www.w3.org/2000/svg">
<g clip-path="url(#clip0_2209_10749)">
<path d="M19.9883 9.65787C20.0733 9.65787 20.205 9.62953 20.2166 9.54787C20.2333 9.43453 20.07 9.32287 19.9633 9.32287C19.8283 9.2712 19.65 9.24453 19.525 9.3162C19.4983 9.32953 19.4666 9.36787 19.4766 9.39953V9.4362C19.505 9.5312 19.6633 9.51453 19.7516 9.54453C19.8333 9.5862 19.895 9.65787 19.9883 9.65787Z" fill="url(#paint0_linear_2209_10749)"/>
<path d="M3.51928 36.66C3.81262 37.2167 4.42095 37.4417 5.10262 37.6617C6.46928 37.995 8.32262 37.8867 9.78095 38.66C11.3426 39.4383 12.9276 39.7783 14.1909 39.4433C15.0776 39.2517 15.8259 38.6717 16.2276 37.8683C17.2176 37.8633 18.3009 37.42 20.0376 37.3117C21.2159 37.215 22.6909 37.7567 24.3843 37.6433C24.4259 37.8683 24.4909 37.975 24.5759 38.2L24.5809 38.205C25.2409 39.5017 26.4576 40.0917 27.7576 39.99C29.0576 39.89 30.441 39.0967 31.5626 37.8133C32.6259 36.5383 34.3993 36.0067 35.5709 35.3083C36.1576 34.9767 36.631 34.5267 36.666 33.8867C36.7043 33.22 36.331 32.5333 35.4626 31.5917V31.43L35.4576 31.425C35.1709 31.0917 35.0359 30.5333 34.8876 29.8817C34.7443 29.2133 34.5809 28.5717 34.0576 28.1383H34.0526C33.9526 28.0483 33.8459 28.0267 33.7359 27.9133C33.6409 27.85 33.5326 27.81 33.4159 27.8067C34.1426 25.6767 33.861 23.5567 33.1243 21.65C32.226 19.3 30.6543 17.2533 29.4576 15.845C28.1159 14.17 26.8009 12.5833 26.8259 10.23C26.8709 6.64333 27.2259 0.00833333 20.8509 0C20.5893 0 20.3193 0.0133333 20.0426 0.035C12.9159 0.59 14.8059 8.04667 14.6976 10.5317C14.5693 12.3517 14.1926 13.7867 12.9259 15.565C11.4343 17.3167 9.33928 20.1483 8.34762 23.1C7.87928 24.4867 7.65595 25.9067 7.86428 27.2483C7.79928 27.305 7.73595 27.3617 7.67762 27.4733C7.23928 27.92 6.92095 28.475 6.56095 28.8717C6.22595 29.2033 5.74428 29.3167 5.21762 29.5383C4.68928 29.765 4.10762 29.9867 3.76095 30.6733C3.60928 30.9867 3.53095 31.3283 3.53762 31.675C3.53762 32.0067 3.58262 32.3433 3.63095 32.5683C3.72928 33.2333 3.82595 33.7833 3.69762 34.185C3.27762 35.3167 3.22595 36.0933 3.51928 36.66ZM33.7543 28.5667L33.7593 28.5717C34.1093 28.9033 34.2726 29.4567 34.4176 30.0317C34.5609 30.7 34.6776 31.3317 35.1076 31.8083C35.9276 32.6867 36.1943 33.3183 36.1793 33.7083L36.1843 33.6983V33.7283L36.1793 33.7083C36.1543 34.145 35.8676 34.3683 35.3393 34.7C34.2776 35.3683 32.396 35.8867 31.1976 37.3167C30.156 38.545 28.8859 39.215 27.7659 39.3017C26.6443 39.3883 25.6809 38.9683 25.1126 37.805L25.1043 37.8C24.7509 37.1317 24.9026 36.0917 25.1993 34.9833C25.4959 33.87 25.9209 32.7417 25.9793 31.82C26.0409 30.63 26.1076 29.595 26.3076 28.7967C26.5093 28.0217 26.8259 27.4683 27.3876 27.1567L27.4643 27.12V27.1167C27.5259 28.1183 28.0426 29.1917 28.9509 29.4117C29.9426 29.635 31.3693 28.8567 31.9709 28.1367L32.326 28.1217C32.8559 28.1083 33.2976 28.1383 33.7543 28.5667ZM19.7626 8.17667C19.7493 7.73667 19.8343 7.3 20.0159 6.895C20.1543 6.53 20.4076 6.21833 20.7409 6.00667C21.0293 5.79167 21.3793 5.675 21.7426 5.675H21.7643C22.1226 5.675 22.4326 5.77833 22.7493 6.005C23.0709 6.23 23.3059 6.55833 23.4893 6.89333C23.6659 7.325 23.7559 7.65833 23.7693 8.1C23.7693 8.06667 23.7793 8.03333 23.7793 8.00167V8.175C23.7759 8.16333 23.7726 8.15 23.7726 8.14L23.7643 8.1C23.7609 8.505 23.6743 8.905 23.5109 9.27667C23.4309 9.485 23.3109 9.67667 23.1526 9.835C23.1043 9.80833 23.0559 9.785 23.0043 9.765C22.8276 9.69 22.6693 9.65833 22.5243 9.54333C22.4043 9.49667 22.2793 9.45833 22.1543 9.43333C22.2376 9.335 22.3993 9.21167 22.4609 9.10333C22.5509 8.89 22.5993 8.66333 22.6093 8.43333V8.40167C22.6126 8.17667 22.5793 7.95 22.5059 7.735C22.4309 7.51 22.3359 7.4 22.1976 7.17833C22.0559 7.06833 21.9159 6.95833 21.7476 6.95833H21.7209C21.5643 6.95833 21.4243 7.00833 21.2793 7.17833C21.1193 7.335 20.9993 7.52333 20.9343 7.735C20.8443 7.94667 20.7926 8.175 20.7826 8.40167V8.43333C20.7859 8.58167 20.7959 8.73167 20.8159 8.87833C20.4909 8.76667 20.0776 8.65333 19.7926 8.54167C19.7759 8.43333 19.7659 8.32167 19.7626 8.21V8.17667ZM15.5659 6.99833C15.6593 6.67 15.8226 6.36667 16.0443 6.10667C16.2609 5.885 16.4826 5.77333 16.7493 5.77333H16.8109C17.0509 5.77333 17.2659 5.85333 17.4843 5.99833C17.7309 6.21333 17.9293 6.47833 18.0643 6.77333C18.2159 7.105 18.3026 7.44167 18.3226 7.885V7.89167C18.3343 8.115 18.3326 8.22667 18.3193 8.335V8.46833C18.2693 8.48 18.2243 8.49833 18.1793 8.50833C17.9226 8.6 17.7176 8.73333 17.5159 8.84167C17.5359 8.69333 17.5376 8.54333 17.5209 8.39667V8.37167C17.5009 8.15 17.4559 8.04 17.3826 7.81667C17.3309 7.64667 17.2343 7.495 17.1026 7.37167C17.0193 7.29667 16.9093 7.25833 16.7943 7.265H16.7593C16.6376 7.275 16.5376 7.33333 16.4426 7.485C16.3343 7.61333 16.2659 7.77 16.2409 7.935C16.1959 8.115 16.1826 8.3 16.2026 8.48667V8.51C16.2226 8.735 16.2643 8.845 16.3393 9.06667C16.4143 9.29 16.5026 9.4 16.6176 9.51334C16.6359 9.52833 16.6526 9.54333 16.6743 9.55333C16.5559 9.64833 16.4776 9.67 16.3776 9.78C16.3159 9.82667 16.2426 9.88 16.1576 9.89333C15.9826 9.685 15.8276 9.46 15.6943 9.22333C15.5326 8.87333 15.4476 8.49333 15.4326 8.11167C15.4026 7.735 15.4509 7.35833 15.5659 6.99833ZM15.7459 10.5083C16.1226 10.2833 16.3859 10.0567 16.5593 9.95C16.7343 9.82667 16.8009 9.78 16.8559 9.73167H16.8593V9.72667C17.1443 9.39 17.5943 8.945 18.2743 8.725C18.5093 8.665 18.7693 8.61667 19.0593 8.61667C19.6176 8.61667 20.2926 8.725 21.1076 9.28167C21.6009 9.615 21.9893 9.73 22.8826 10.0617H22.8876C23.3176 10.2883 23.5709 10.505 23.6943 10.7267V10.5067C23.8176 10.7517 23.8259 11.0367 23.7209 11.29C23.5143 11.8083 22.8509 12.3633 21.9276 12.695V12.6983C21.4759 12.9233 21.0826 13.2533 20.6209 13.4733C20.1559 13.6983 19.6293 13.96 18.9143 13.9183C18.6576 13.9317 18.3993 13.8933 18.1593 13.8067C17.9743 13.7067 17.7909 13.5967 17.6159 13.4767C17.2876 13.2517 17.0043 12.9233 16.5843 12.7017V12.6933H16.5759C15.9026 12.2833 15.5376 11.84 15.4193 11.51C15.3043 11.0617 15.4109 10.7283 15.7459 10.5083ZM10.4959 22.9183C10.9093 21.135 11.9676 19.4017 12.6443 18.3133C12.8243 18.205 12.7059 18.5383 11.9559 19.9367C11.2876 21.1883 10.0326 24.0983 11.7509 26.36C11.8143 24.7117 12.1859 23.085 12.8409 21.5667C13.7909 19.4367 15.7793 15.7267 15.9359 12.7867C16.0176 12.8467 16.3009 13.0117 16.4226 13.1233C16.7909 13.345 17.0626 13.6783 17.4176 13.8983C17.7726 14.2333 18.2209 14.4567 18.8943 14.4567C18.9593 14.4617 19.0209 14.4667 19.0809 14.4667C19.7743 14.4667 20.3093 14.2433 20.7609 14.02C21.2493 13.7967 21.6393 13.4633 22.0093 13.3533H22.0176C22.8043 13.1283 23.4276 12.6833 23.7793 12.1867C24.3843 14.5483 25.7976 17.9783 26.7059 19.6417C27.1876 20.5317 28.1476 22.4067 28.5643 24.6817C28.8276 24.6733 29.1193 24.7117 29.4293 24.7883C30.5176 22.0033 28.5093 19.01 27.5943 18.1783C27.2209 17.8433 27.2026 17.62 27.3876 17.62C28.3809 18.51 29.6893 20.24 30.1626 22.215C30.3809 23.1067 30.431 24.055 30.1976 24.9983C30.3109 25.045 30.426 25.1 30.5426 25.11C32.2826 26 32.9243 26.6733 32.6159 27.6717V27.6C32.5126 27.595 32.4143 27.6 32.3109 27.6H32.2859C32.5409 26.8217 31.9793 26.225 30.4909 25.56C28.9476 24.8933 27.7159 25 27.5059 26.335C27.4943 26.4067 27.4859 26.445 27.4776 26.56C27.3626 26.5983 27.2426 26.6483 27.1259 26.6667C26.4009 27.1133 26.0093 27.7817 25.7893 28.645C25.5693 29.5333 25.5026 30.5717 25.4443 31.76V31.765C25.4093 32.3217 25.1559 33.1617 24.9059 34.0167C22.3776 35.8033 18.8709 36.58 15.8876 34.5733C15.7009 34.2517 15.4726 33.95 15.2093 33.685C15.0843 33.4767 14.9259 33.29 14.7459 33.1283C15.0526 33.1283 15.3159 33.08 15.5293 33.0167C15.7743 32.905 15.9626 32.7033 16.0593 32.46C16.2409 32.015 16.0593 31.2983 15.4776 30.5217C14.8959 29.7433 13.9076 28.8633 12.4626 27.9867C11.4009 27.3217 10.8009 26.5367 10.5243 25.66C10.2426 24.77 10.2793 23.8517 10.4959 22.9183ZM4.24762 34.2717V34.2667L4.25095 34.2617C4.44762 33.705 4.30095 33.0067 4.20595 32.3967C4.11262 31.7283 4.06595 31.215 4.27762 30.83C4.54762 30.2733 4.94595 30.165 5.43928 29.9417C5.93762 29.7167 6.51928 29.605 6.98428 29.16H6.98762V29.155C7.41928 28.7083 7.73762 28.1533 8.11428 27.7583C8.43428 27.4233 8.75428 27.1983 9.23262 27.1983H9.24928C9.33928 27.1983 9.42595 27.2067 9.51428 27.2217C10.1476 27.3133 10.7043 27.7767 11.2393 28.475L12.7743 31.2483L12.7793 31.2533C13.1893 32.1417 14.0509 33.0267 14.7843 33.9833C15.5159 34.98 16.0826 35.8683 16.0126 36.6V36.61C15.9159 37.85 15.2043 38.5233 14.1159 38.7667C13.0293 38.9917 11.5526 38.77 10.0776 37.9933C8.44595 37.1 6.50762 37.2117 5.26095 36.99C4.63928 36.88 4.23095 36.655 4.04262 36.3217C3.85262 35.9883 3.84928 35.3183 4.24762 34.2717Z" fill="url(#paint1_linear_2209_10749)"/>
<path d="M18.0323 9.65846C18.1223 9.65846 18.1873 9.58679 18.2673 9.54512C18.3573 9.51679 18.514 9.53179 18.5473 9.43512H18.5423V9.40012C18.5523 9.36679 18.524 9.33179 18.4923 9.31679C18.3656 9.24679 18.1923 9.27346 18.0556 9.32512C17.9506 9.32512 17.7873 9.43679 17.8023 9.54679C17.8123 9.62846 17.9473 9.65846 18.0323 9.65846ZM16.6356 12.1901C17.1573 12.5218 17.879 12.9668 18.7923 12.9668C19.7073 12.9668 20.5656 12.4118 21.299 12.0751V12.0768C21.6856 11.8551 22.1573 11.5218 22.4623 11.2968C22.7673 10.9651 22.9273 10.7685 22.7106 10.7418C22.4906 10.7418 22.504 10.9601 22.2406 11.1885C21.899 11.4101 21.4773 11.7418 21.149 11.9668C20.5673 12.2985 19.609 12.7435 18.7923 12.7435C17.9723 12.7435 17.3173 12.2985 16.8273 11.9651C16.5773 11.7418 16.3773 11.5201 16.2156 11.4101C16.0973 11.3018 16.064 11.1035 15.8806 11.0768C15.7623 11.0768 15.729 11.4101 16.0056 11.6335C16.1623 11.7435 16.374 11.9668 16.6356 12.1901Z" fill="url(#paint2_linear_2209_10749)"/>
</g>
<defs>
<linearGradient id="paint0_linear_2209_10749" x1="19.4747" y1="9.46516" x2="19.9975" y2="9.80454" gradientUnits="userSpaceOnUse">
<stop stop-color="#D52274"/>
<stop offset="0.5625" stop-color="#F44D29"/>
<stop offset="1" stop-color="#FD7E14"/>
</linearGradient>
<linearGradient id="paint1_linear_2209_10749" x1="3.33398" y1="20.0006" x2="34.2353" y2="28.672" gradientUnits="userSpaceOnUse">
<stop stop-color="#D52274"/>
<stop offset="0.5625" stop-color="#F44D29"/>
<stop offset="1" stop-color="#FD7E14"/>
</linearGradient>
<linearGradient id="paint2_linear_2209_10749" x1="15.793" y1="11.1206" x2="20.7715" y2="14.3067" gradientUnits="userSpaceOnUse">
<stop stop-color="#D52274"/>
<stop offset="0.5625" stop-color="#F44D29"/>
<stop offset="1" stop-color="#FD7E14"/>
</linearGradient>
<clipPath id="clip0_2209_10749">
<rect width="40" height="40" fill="white"/>
</clipPath>
</defs>
</svg>
