<svg width="32" height="32" viewBox="0 0 32 32" fill="none" xmlns="http://www.w3.org/2000/svg">
<path d="M19.1998 5.6002C19.1998 4.96368 19.4527 4.35323 19.9027 3.90314C20.3528 3.45305 20.9633 3.2002 21.5998 3.2002H24.7998C25.4363 3.2002 26.0468 3.45305 26.4969 3.90314C26.9469 4.35323 27.1998 4.96368 27.1998 5.6002V15.3602C25.9617 14.7269 24.5905 14.3979 23.1998 14.4002C21.7598 14.4002 20.3998 14.7458 19.1998 15.3602V5.6002ZM4.7998 5.6002C4.7998 4.96368 5.05266 4.35323 5.50275 3.90314C5.95284 3.45305 6.56329 3.2002 7.1998 3.2002H10.3998C11.0363 3.2002 11.6468 3.45305 12.0969 3.90314C12.5469 4.35323 12.7998 4.96368 12.7998 5.6002V26.4002C12.7998 27.0367 12.5469 27.6472 12.0969 28.0972C11.6468 28.5473 11.0363 28.8002 10.3998 28.8002H7.1998C6.56329 28.8002 5.95284 28.5473 5.50275 28.0972C5.05266 27.6472 4.7998 27.0367 4.7998 26.4002V5.6002ZM19.3038 18.3074C19.419 18.718 19.451 19.1475 19.3979 19.5707C19.3448 19.9938 19.2076 20.4021 18.9944 20.7714C18.7813 21.1408 18.4964 21.4639 18.1566 21.7216C17.8168 21.9793 17.429 22.1665 17.0158 22.2722L16.2782 22.461C16.2252 23.0019 16.2306 23.5469 16.2942 24.0866L16.8542 24.2194C17.2783 24.3199 17.6773 24.5059 18.0269 24.7662C18.3765 25.0264 18.6693 25.3552 18.8873 25.7326C19.1052 26.11 19.2438 26.5279 19.2946 26.9608C19.3453 27.3936 19.307 27.8323 19.1822 28.2498L18.9806 28.9266C19.3918 29.2514 19.8398 29.5298 20.3166 29.7538L20.8366 29.2034C21.1359 28.8867 21.4968 28.6344 21.8971 28.4621C22.2974 28.2898 22.7287 28.2011 23.1645 28.2014C23.6003 28.2017 24.0314 28.291 24.4315 28.4639C24.8316 28.6367 25.1921 28.8895 25.491 29.2066L26.0302 29.7794C26.499 29.5634 26.939 29.2962 27.3454 28.9826L27.0958 28.093C26.9806 27.6824 26.9486 27.2529 27.0017 26.8297C27.0548 26.4066 27.192 25.9983 27.4052 25.629C27.6183 25.2596 27.9032 24.9365 28.243 24.6788C28.5828 24.4211 28.9706 24.2339 29.3838 24.1282L30.1214 23.9394C30.1746 23.398 30.1692 22.8524 30.1054 22.3122L29.547 22.181C29.1226 22.0807 28.7232 21.8947 28.3733 21.6345C28.0234 21.3743 27.7304 21.0452 27.5122 20.6677C27.294 20.2901 27.1554 19.8719 27.1047 19.4388C27.054 19.0057 27.0923 18.5668 27.2174 18.149L27.419 17.4754C27.0067 17.1486 26.5585 16.87 26.083 16.645L25.5646 17.1954C25.2654 17.5125 24.9045 17.7651 24.5041 17.9377C24.1037 18.1103 23.6723 18.1992 23.2363 18.1991C22.8003 18.1989 22.3689 18.1097 21.9686 17.9368C21.5684 17.7639 21.2076 17.5111 20.9086 17.1938L20.3694 16.621C19.9028 16.8363 19.4617 17.103 19.0542 17.4162L19.3038 18.3074ZM23.1998 24.8002C22.7755 24.8002 22.3685 24.6316 22.0684 24.3316C21.7684 24.0315 21.5998 23.6245 21.5998 23.2002C21.5998 22.7758 21.7684 22.3689 22.0684 22.0688C22.3685 21.7688 22.7755 21.6002 23.1998 21.6002C23.6242 21.6002 24.0311 21.7688 24.3312 22.0688C24.6312 22.3689 24.7998 22.7758 24.7998 23.2002C24.7998 23.6245 24.6312 24.0315 24.3312 24.3316C24.0311 24.6316 23.6242 24.8002 23.1998 24.8002Z" fill="currentColor"/>
</svg>
