<svg width="24" height="24" viewBox="0 0 24 24" fill="none" xmlns="http://www.w3.org/2000/svg">
<path d="M15 3H9V1H15V3ZM14.2 13.5V14.74C13.5 15.34 13 16.24 13 17.2V20.7C13 21.12 13.09 21.53 13.24 21.91C12.83 21.96 12.42 22 12 22C9.61305 22 7.32387 21.0518 5.63604 19.364C3.94821 17.6761 3 15.3869 3 13C3 10.6131 3.94821 8.32387 5.63604 6.63604C7.32387 4.94821 9.61305 4 12 4C14.12 4 16.07 4.74 17.62 6L19.04 4.56C19.55 5 20 5.46 20.45 5.97L19.03 7.39C19.46 7.93 19.82 8.5 20.12 9.14C19.76 9.06 19.39 9 19 9C16.4 9 14.2 11.06 14.2 13.5ZM13 7H11V14H13V7ZM21.8 16H17.5V13.5C17.5 12.7 18.2 12.2 19 12.2C19.8 12.2 20.5 12.7 20.5 13.5V14H21.8V13.5C21.8 12.1 20.4 11 19 11C17.6 11 16.2 12.1 16.2 13.5V16C15.6 16 15 16.6 15 17.2V20.7C15 21.4 15.6 22 16.2 22H21.7C22.4 22 23 21.4 23 20.8V17.3C23 16.6 22.4 16 21.8 16Z" fill="currentColor"/>
</svg>
