<svg width="18" height="18" viewBox="0 0 18 18" fill="none" xmlns="http://www.w3.org/2000/svg">
<path d="M9 0C4.02975 0 0 4.02975 0 9C0 13.9703 4.02975 18 9 18C13.9703 18 18 13.9703 18 9C18 4.02975 13.9703 0 9 0ZM13.1693 6.51038L8.85825 13.0995C8.85713 13.1006 8.85488 13.1018 8.85488 13.1029C8.83238 13.1366 8.82 13.1749 8.79188 13.2064C8.7525 13.2491 8.70188 13.2716 8.65688 13.3043C8.64563 13.3121 8.63438 13.3211 8.622 13.329C8.55225 13.3729 8.48025 13.4021 8.4015 13.4213C8.37563 13.428 8.352 13.4348 8.325 13.4393C8.26234 13.4479 8.19885 13.4486 8.136 13.4415C8.09161 13.4387 8.04756 13.4319 8.00438 13.4213C7.95982 13.4078 7.91653 13.3905 7.875 13.3695C7.839 13.3526 7.80075 13.3481 7.767 13.3267C7.74225 13.311 7.72875 13.2863 7.70738 13.2671C7.69838 13.2593 7.68713 13.257 7.67813 13.2491L5.16825 10.9282C5.01948 10.7854 4.93269 10.5899 4.92653 10.3837C4.92037 10.1776 4.99534 9.97722 5.13532 9.82574C5.27531 9.67427 5.46913 9.58376 5.67513 9.57366C5.88113 9.56356 6.08288 9.63469 6.237 9.77175L8.05388 11.4525L11.8508 5.64862C11.965 5.47378 12.1441 5.35149 12.3485 5.30867C12.553 5.26584 12.766 5.30597 12.9409 5.42025C13.1157 5.53452 13.238 5.71358 13.2808 5.91801C13.3237 6.12245 13.2835 6.33553 13.1693 6.51038Z" fill="currentColor"/>
</svg>
