<svg width="36" height="36" viewBox="0 0 36 36" fill="none" xmlns="http://www.w3.org/2000/svg">
<g clip-path="url(#clip0_2172_6424)">
<path d="M17.9895 8.69257C18.066 8.69257 18.1845 8.66707 18.195 8.59357C18.21 8.49157 18.063 8.39107 17.967 8.39107C17.8455 8.34457 17.685 8.32057 17.5725 8.38507C17.5485 8.39707 17.52 8.43157 17.529 8.46007V8.49307C17.5545 8.57857 17.697 8.56357 17.7765 8.59057C17.85 8.62807 17.9055 8.69257 17.9895 8.69257Z" fill="currentColor"/>
<path d="M3.16649 32.994C3.43049 33.495 3.97799 33.6975 4.59149 33.8955C5.82149 34.1955 7.48949 34.098 8.80199 34.794C10.2075 35.4945 11.634 35.8005 12.771 35.499C13.569 35.3265 14.2425 34.8045 14.604 34.0815C15.495 34.077 16.47 33.678 18.033 33.5805C19.0935 33.4935 20.421 33.981 21.945 33.879C21.9825 34.0815 22.041 34.1775 22.1175 34.38L22.122 34.3845C22.716 35.5515 23.811 36.0825 24.981 35.991C26.151 35.901 27.396 35.187 28.4055 34.032C29.3625 32.8845 30.9585 32.406 32.013 31.7775C32.541 31.479 32.967 31.074 32.9985 30.498C33.033 29.898 32.697 29.28 31.9155 28.4325V28.287L31.911 28.2825C31.653 27.9825 31.5315 27.48 31.398 26.8935C31.269 26.292 31.122 25.7145 30.651 25.3245H30.6465C30.5565 25.2435 30.4605 25.224 30.3615 25.122C30.276 25.065 30.1785 25.029 30.0735 25.026C30.7275 23.109 30.474 21.201 29.811 19.485C29.0025 17.37 27.588 15.528 26.511 14.2605C25.3035 12.753 24.12 11.325 24.1425 9.207C24.183 5.979 24.5025 0.0075 18.765 0C18.5295 0 18.2865 0.012 18.0375 0.0315C11.6235 0.531 13.3245 7.242 13.227 9.4785C13.1115 11.1165 12.7725 12.408 11.6325 14.0085C10.29 15.585 8.40449 18.1335 7.51199 20.79C7.09049 22.038 6.88949 23.316 7.07699 24.5235C7.01849 24.5745 6.96149 24.6255 6.90899 24.726C6.51449 25.128 6.22799 25.6275 5.90399 25.9845C5.60249 26.283 5.16899 26.385 4.69499 26.5845C4.21949 26.7885 3.69599 26.988 3.38399 27.606C3.24749 27.888 3.17699 28.1955 3.18299 28.5075C3.18299 28.806 3.22349 29.109 3.26699 29.3115C3.35549 29.91 3.44249 30.405 3.32699 30.7665C2.94899 31.785 2.90249 32.484 3.16649 32.994ZM30.378 25.71L30.3825 25.7145C30.6975 26.013 30.8445 26.511 30.975 27.0285C31.104 27.63 31.209 28.1985 31.596 28.6275C32.334 29.418 32.574 29.9865 32.5605 30.3375L32.565 30.3285V30.3555L32.5605 30.3375C32.538 30.7305 32.28 30.9315 31.8045 31.23C30.849 31.8315 29.1555 32.298 28.077 33.585C27.1395 34.6905 25.9965 35.2935 24.9885 35.3715C23.979 35.4495 23.112 35.0715 22.6005 34.0245L22.593 34.02C22.275 33.4185 22.4115 32.4825 22.6785 31.485C22.9455 30.483 23.328 29.4675 23.3805 28.638C23.436 27.567 23.496 26.6355 23.676 25.917C23.8575 25.2195 24.1425 24.7215 24.648 24.441L24.717 24.408V24.405C24.7725 25.3065 25.2375 26.2725 26.055 26.4705C26.9475 26.6715 28.2315 25.971 28.773 25.323L29.0925 25.3095C29.5695 25.2975 29.967 25.3245 30.378 25.71ZM17.7855 7.359C17.7735 6.963 17.85 6.57 18.0135 6.2055C18.138 5.877 18.366 5.5965 18.666 5.406C18.9255 5.2125 19.2405 5.1075 19.5675 5.1075H19.587C19.9095 5.1075 20.1885 5.2005 20.4735 5.4045C20.763 5.607 20.9745 5.9025 21.1395 6.204C21.2985 6.5925 21.3795 6.8925 21.3915 7.29C21.3915 7.26 21.4005 7.23 21.4005 7.2015V7.3575C21.3975 7.347 21.3945 7.335 21.3945 7.326L21.387 7.29C21.384 7.6545 21.306 8.0145 21.159 8.349C21.087 8.5365 20.979 8.709 20.8365 8.8515C20.793 8.8275 20.7495 8.8065 20.703 8.7885C20.544 8.721 20.4015 8.6925 20.271 8.589C20.163 8.547 20.0505 8.5125 19.938 8.49C20.013 8.4015 20.1585 8.2905 20.214 8.193C20.295 8.001 20.3385 7.797 20.3475 7.59V7.5615C20.3505 7.359 20.3205 7.155 20.2545 6.9615C20.187 6.759 20.1015 6.66 19.977 6.4605C19.8495 6.3615 19.7235 6.2625 19.572 6.2625H19.548C19.407 6.2625 19.281 6.3075 19.1505 6.4605C19.0065 6.6015 18.8985 6.771 18.84 6.9615C18.759 7.152 18.7125 7.3575 18.7035 7.5615V7.59C18.7065 7.7235 18.7155 7.8585 18.7335 7.9905C18.441 7.89 18.069 7.788 17.8125 7.6875C17.7975 7.59 17.7885 7.4895 17.7855 7.389V7.359ZM14.0085 6.2985C14.0925 6.003 14.2395 5.73 14.439 5.496C14.634 5.2965 14.8335 5.196 15.0735 5.196H15.129C15.345 5.196 15.5385 5.268 15.735 5.3985C15.957 5.592 16.1355 5.8305 16.257 6.096C16.3935 6.3945 16.4715 6.6975 16.4895 7.0965V7.1025C16.5 7.3035 16.4985 7.404 16.4865 7.5015V7.6215C16.4415 7.632 16.401 7.6485 16.3605 7.6575C16.1295 7.74 15.945 7.86 15.7635 7.9575C15.7815 7.824 15.783 7.689 15.768 7.557V7.5345C15.75 7.335 15.7095 7.236 15.6435 7.035C15.597 6.882 15.51 6.7455 15.3915 6.6345C15.3165 6.567 15.2175 6.5325 15.114 6.5385H15.0825C14.973 6.5475 14.883 6.6 14.7975 6.7365C14.7 6.852 14.6385 6.993 14.616 7.1415C14.5755 7.3035 14.5635 7.47 14.5815 7.638V7.659C14.5995 7.8615 14.637 7.9605 14.7045 8.16C14.772 8.361 14.8515 8.46 14.955 8.562C14.9715 8.5755 14.9865 8.589 15.006 8.598C14.8995 8.6835 14.829 8.703 14.739 8.802C14.6835 8.844 14.6175 8.892 14.541 8.904C14.3835 8.7165 14.244 8.514 14.124 8.301C13.9785 7.986 13.902 7.644 13.8885 7.3005C13.8615 6.9615 13.905 6.6225 14.0085 6.2985ZM14.1705 9.4575C14.5095 9.255 14.7465 9.051 14.9025 8.955C15.06 8.844 15.12 8.802 15.1695 8.7585H15.1725V8.754C15.429 8.451 15.834 8.0505 16.446 7.8525C16.6575 7.7985 16.8915 7.755 17.1525 7.755C17.655 7.755 18.2625 7.8525 18.996 8.3535C19.44 8.6535 19.7895 8.757 20.5935 9.0555H20.598C20.985 9.2595 21.213 9.4545 21.324 9.654V9.456C21.435 9.6765 21.4425 9.933 21.348 10.161C21.162 10.6275 20.565 11.127 19.734 11.4255V11.4285C19.3275 11.631 18.9735 11.928 18.558 12.126C18.1395 12.3285 17.6655 12.564 17.022 12.5265C16.791 12.5385 16.5585 12.504 16.3425 12.426C16.176 12.336 16.011 12.237 15.8535 12.129C15.558 11.9265 15.303 11.631 14.925 11.4315V11.424H14.9175C14.3115 11.055 13.983 10.656 13.8765 10.359C13.773 9.9555 13.869 9.6555 14.1705 9.4575ZM9.44549 20.6265C9.81749 19.0215 10.77 17.4615 11.379 16.482C11.541 16.3845 11.4345 16.6845 10.7595 17.943C10.158 19.0695 9.02849 21.6885 10.575 23.724C10.632 22.2405 10.9665 20.7765 11.556 19.41C12.411 17.493 14.2005 14.154 14.3415 11.508C14.415 11.562 14.67 11.7105 14.7795 11.811C15.111 12.0105 15.3555 12.3105 15.675 12.5085C15.9945 12.81 16.398 13.011 17.004 13.011C17.0625 13.0155 17.118 13.02 17.172 13.02C17.796 13.02 18.2775 12.819 18.684 12.618C19.1235 12.417 19.4745 12.117 19.8075 12.018H19.815C20.523 11.8155 21.084 11.415 21.4005 10.968C21.945 13.0935 23.217 16.1805 24.0345 17.6775C24.468 18.4785 25.332 20.166 25.707 22.2135C25.944 22.206 26.2065 22.2405 26.4855 22.3095C27.465 19.803 25.6575 17.109 24.834 16.3605C24.498 16.059 24.4815 15.858 24.648 15.858C25.542 16.659 26.7195 18.216 27.1455 19.9935C27.342 20.796 27.387 21.6495 27.177 22.4985C27.279 22.5405 27.3825 22.59 27.4875 22.599C29.0535 23.4 29.631 24.006 29.3535 24.9045V24.84C29.2605 24.8355 29.172 24.84 29.079 24.84H29.0565C29.286 24.1395 28.7805 23.6025 27.441 23.004C26.052 22.404 24.9435 22.5 24.7545 23.7015C24.744 23.766 24.7365 23.8005 24.729 23.904C24.6255 23.9385 24.5175 23.9835 24.4125 24C23.76 24.402 23.4075 25.0035 23.2095 25.7805C23.0115 26.58 22.9515 27.5145 22.899 28.584V28.5885C22.8675 29.0895 22.6395 29.8455 22.4145 30.615C20.139 32.223 16.983 32.922 14.298 31.116C14.13 30.8265 13.9245 30.555 13.6875 30.3165C13.575 30.129 13.4325 29.961 13.2705 29.8155C13.5465 29.8155 13.7835 29.772 13.9755 29.715C14.196 29.6145 14.3655 29.433 14.4525 29.214C14.616 28.8135 14.4525 28.1685 13.929 27.4695C13.4055 26.769 12.516 25.977 11.2155 25.188C10.26 24.5895 9.71999 23.883 9.47099 23.094C9.21749 22.293 9.25049 21.4665 9.44549 20.6265ZM3.82199 30.8445V30.84L3.82499 30.8355C4.00199 30.3345 3.86999 29.706 3.78449 29.157C3.70049 28.5555 3.65849 28.0935 3.84899 27.747C4.09199 27.246 4.45049 27.1485 4.89449 26.9475C5.34299 26.745 5.86649 26.6445 6.28499 26.244H6.28799V26.2395C6.67649 25.8375 6.96299 25.338 7.30199 24.9825C7.58999 24.681 7.87799 24.4785 8.30849 24.4785H8.32349C8.40449 24.4785 8.48249 24.486 8.56199 24.4995C9.13199 24.582 9.63299 24.999 10.1145 25.6275L11.496 28.1235L11.5005 28.128C11.8695 28.9275 12.645 29.724 13.305 30.585C13.9635 31.482 14.4735 32.2815 14.4105 32.94V32.949C14.3235 34.065 13.683 34.671 12.7035 34.89C11.7255 35.0925 10.3965 34.893 9.06899 34.194C7.60049 33.39 5.85599 33.4905 4.73399 33.291C4.17449 33.192 3.80699 32.9895 3.63749 32.6895C3.46649 32.3895 3.46349 31.7865 3.82199 30.8445Z" fill="currentColor"/>
<path d="M16.2285 8.69232C16.3095 8.69232 16.368 8.62782 16.44 8.59032C16.521 8.56482 16.662 8.57832 16.692 8.49132H16.6875V8.45982C16.6965 8.42982 16.671 8.39832 16.6425 8.38482C16.5285 8.32182 16.3725 8.34582 16.2495 8.39232C16.155 8.39232 16.008 8.49282 16.0215 8.59182C16.0305 8.66532 16.152 8.69232 16.2285 8.69232ZM14.9715 10.9708C15.441 11.2693 16.0905 11.6698 16.9125 11.6698C17.736 11.6698 18.5085 11.1703 19.1685 10.8673V10.8688C19.5165 10.6693 19.941 10.3693 20.2155 10.1668C20.49 9.86832 20.634 9.69132 20.439 9.66732C20.241 9.66732 20.253 9.86382 20.016 10.0693C19.7085 10.2688 19.329 10.5673 19.0335 10.7698C18.51 11.0683 17.6475 11.4688 16.9125 11.4688C16.1745 11.4688 15.585 11.0683 15.144 10.7683C14.919 10.5673 14.739 10.3678 14.5935 10.2688C14.487 10.1713 14.457 9.99282 14.292 9.96882C14.1855 9.96882 14.1555 10.2688 14.4045 10.4698C14.5455 10.5688 14.736 10.7698 14.9715 10.9708Z" fill="currentColor"/>
</g>
<defs>
<clipPath id="clip0_2172_6424">
<rect width="36" height="36" fill="white"/>
</clipPath>
</defs>
</svg>
