<svg width="28" height="24" viewBox="0 0 28 24" fill="none" xmlns="http://www.w3.org/2000/svg">
<path fill-rule="evenodd" clip-rule="evenodd" d="M27.8772 3.74837C23.7018 5.83081 21.6142 8.27764 21.6142 11.0889C23.3938 11.2972 24.8655 12.0347 26.0291 13.3015C27.1927 14.5683 27.7745 16.0347 27.7745 17.7007C27.7745 19.4707 27.2098 20.9631 26.0804 22.1779C24.951 23.3926 23.5307 24 21.8195 24C19.9029 24 18.2431 23.2104 16.8399 21.6312C15.4367 20.0521 14.7351 18.1345 14.7351 15.8785C14.7351 9.1106 18.4655 3.81781 25.9264 0L27.8772 3.74837ZM13.1421 3.74837C8.93251 5.83081 6.82774 8.27764 6.82774 11.0889C8.64163 11.2972 10.1304 12.0347 11.294 13.3015C12.4576 14.5683 13.0394 16.0347 13.0394 17.7007C13.0394 19.4707 12.4662 20.9631 11.3197 22.1779C10.1732 23.3926 8.7443 24 7.03308 24C5.11652 24 3.46521 23.2104 2.07912 21.6312C0.693034 20.0521 0 18.1345 0 15.8785C0 9.1106 3.71329 3.81781 11.14 0L13.1421 3.74837Z" fill="currentColor"/>
</svg>
