<svg width="120" height="120" viewBox="0 0 120 120" fill="none" xmlns="http://www.w3.org/2000/svg">
<path d="M97.5 26.25H22.5C19.5163 26.25 16.6548 27.4353 14.545 29.545C12.4353 31.6548 11.25 34.5163 11.25 37.5V82.5C11.25 85.4837 12.4353 88.3452 14.545 90.455C16.6548 92.5647 19.5163 93.75 22.5 93.75H32.775L65.6625 112.013C66.223 112.33 66.8558 112.498 67.5 112.5C68.1731 112.5 68.8337 112.318 69.4125 111.975C69.9723 111.643 70.4361 111.171 70.7582 110.606C71.0804 110.04 71.2499 109.401 71.25 108.75V93.75H97.5C100.484 93.75 103.345 92.5647 105.455 90.455C107.565 88.3452 108.75 85.4837 108.75 82.5V37.5C108.75 34.5163 107.565 31.6548 105.455 29.545C103.345 27.4353 100.484 26.25 97.5 26.25Z" fill="url(#paint0_linear_2744_13724)"/>
<path d="M44.2975 68.24C42.2975 68.24 40.6895 67.984 39.4735 67.472V65.168C40.1615 65.424 40.8975 65.632 41.6815 65.792C42.4815 65.952 43.2735 66.032 44.0575 66.032C45.2895 66.032 46.2095 65.888 46.8175 65.6C47.4415 65.312 47.7535 64.736 47.7535 63.872C47.7535 63.344 47.6255 62.92 47.3695 62.6C47.1135 62.28 46.6895 62.008 46.0975 61.784C45.5055 61.544 44.6895 61.296 43.6495 61.04C41.9855 60.608 40.8175 60.064 40.1455 59.408C39.4735 58.736 39.1375 57.816 39.1375 56.648C39.1375 55.288 39.6335 54.224 40.6255 53.456C41.6175 52.688 43.0975 52.304 45.0655 52.304C45.9615 52.304 46.8015 52.368 47.5855 52.496C48.3855 52.624 49.0095 52.768 49.4575 52.928V55.232C48.2415 54.768 46.8975 54.536 45.4255 54.536C44.2735 54.536 43.3775 54.688 42.7375 54.992C42.0975 55.296 41.7775 55.848 41.7775 56.648C41.7775 57.112 41.8895 57.488 42.1135 57.776C42.3375 58.064 42.7215 58.312 43.2655 58.52C43.8255 58.728 44.5935 58.96 45.5695 59.216C46.8335 59.536 47.8095 59.92 48.4975 60.368C49.2015 60.8 49.6895 61.312 49.9615 61.904C50.2495 62.48 50.3935 63.136 50.3935 63.872C50.3935 65.232 49.8895 66.304 48.8815 67.088C47.8735 67.856 46.3455 68.24 44.2975 68.24ZM52.93 68V52.544H55.618L60.514 62.552L65.386 52.544H68.074V68H65.482V56.792L61.306 65.336H59.722L55.522 56.792V68H52.93ZM75.774 68.24C73.774 68.24 72.166 67.984 70.95 67.472V65.168C71.638 65.424 72.374 65.632 73.158 65.792C73.958 65.952 74.75 66.032 75.534 66.032C76.766 66.032 77.686 65.888 78.294 65.6C78.918 65.312 79.23 64.736 79.23 63.872C79.23 63.344 79.102 62.92 78.846 62.6C78.59 62.28 78.166 62.008 77.574 61.784C76.982 61.544 76.166 61.296 75.126 61.04C73.462 60.608 72.294 60.064 71.622 59.408C70.95 58.736 70.614 57.816 70.614 56.648C70.614 55.288 71.11 54.224 72.102 53.456C73.094 52.688 74.574 52.304 76.542 52.304C77.438 52.304 78.278 52.368 79.062 52.496C79.862 52.624 80.486 52.768 80.934 52.928V55.232C79.718 54.768 78.374 54.536 76.902 54.536C75.75 54.536 74.854 54.688 74.214 54.992C73.574 55.296 73.254 55.848 73.254 56.648C73.254 57.112 73.366 57.488 73.59 57.776C73.814 58.064 74.198 58.312 74.742 58.52C75.302 58.728 76.07 58.96 77.046 59.216C78.31 59.536 79.286 59.92 79.974 60.368C80.678 60.8 81.166 61.312 81.438 61.904C81.726 62.48 81.87 63.136 81.87 63.872C81.87 65.232 81.366 66.304 80.358 67.088C79.35 67.856 77.822 68.24 75.774 68.24Z" fill="white"/>
<defs>
<linearGradient id="paint0_linear_2744_13724" x1="11.25" y1="69.375" x2="96.4103" y2="101.792" gradientUnits="userSpaceOnUse">
<stop stop-color="#D52274"/>
<stop offset="0.5625" stop-color="#F44D29"/>
<stop offset="1" stop-color="#FD7E14"/>
</linearGradient>
</defs>
</svg>
