<svg width="30" height="30" viewBox="0 0 30 30" fill="none" xmlns="http://www.w3.org/2000/svg">
<g clip-path="url(#clip0_2504_13316)">
<circle cx="15" cy="15" r="12" fill="white"/>
<path d="M28.1375 17.2C27.6739 16.5601 27.4244 15.7902 27.4244 15C27.4244 14.2099 27.6739 13.4399 28.1375 12.8L29.0875 11.4875C29.2037 11.3272 29.2801 11.1417 29.3105 10.9461C29.3409 10.7505 29.3245 10.5505 29.2625 10.3625C29.1999 10.1765 29.0951 10.0075 28.9563 9.86872C28.8175 9.72994 28.6485 9.62514 28.4625 9.56252L26.925 9.06252C26.1718 8.81957 25.5153 8.34358 25.0502 7.70326C24.5852 7.06294 24.3356 6.29141 24.3375 5.50002V3.87502C24.3374 3.67772 24.2905 3.48327 24.2008 3.30755C24.1111 3.13183 23.9811 2.97984 23.8213 2.86402C23.6616 2.74819 23.4768 2.67182 23.2819 2.64114C23.087 2.61046 22.8876 2.62636 22.7 2.68752L21.15 3.18752C20.3975 3.43102 19.5873 3.43037 18.8352 3.18565C18.0831 2.94094 17.4276 2.4647 16.9625 1.82502L16.0125 0.512518C15.8912 0.360404 15.7372 0.237575 15.5619 0.153157C15.3866 0.0687396 15.1946 0.0249023 15 0.0249023C14.8054 0.0249023 14.6134 0.0687396 14.4381 0.153157C14.2628 0.237575 14.1088 0.360404 13.9875 0.512518L13.0375 1.82502C12.5724 2.4647 11.9169 2.94094 11.1648 3.18565C10.4127 3.43037 9.60249 3.43102 8.85 3.18752L7.3 2.68752C7.11242 2.62636 6.91304 2.61046 6.71814 2.64114C6.52325 2.67182 6.33838 2.74819 6.17866 2.86402C6.01895 2.97984 5.88891 3.13183 5.7992 3.30755C5.70949 3.48327 5.66265 3.67772 5.6625 3.87502V5.50002C5.66442 6.29141 5.41483 7.06294 4.94975 7.70326C4.48468 8.34358 3.82818 8.81957 3.075 9.06252L1.5375 9.56252C1.35149 9.62514 1.18248 9.72994 1.0437 9.86872C0.904919 10.0075 0.80012 10.1765 0.7375 10.3625C0.675514 10.5505 0.659057 10.7505 0.689481 10.9461C0.719905 11.1417 0.796342 11.3272 0.9125 11.4875L1.8625 12.8C2.32606 13.4399 2.57564 14.2099 2.57564 15C2.57564 15.7902 2.32606 16.5601 1.8625 17.2L0.9125 18.5125C0.796342 18.6728 0.719905 18.8584 0.689481 19.0539C0.659057 19.2495 0.675514 19.4495 0.7375 19.6375C0.80012 19.8235 0.904919 19.9925 1.0437 20.1313C1.18248 20.2701 1.35149 20.3749 1.5375 20.4375L3.075 20.9375C3.82818 21.1805 4.48468 21.6565 4.94975 22.2968C5.41483 22.9371 5.66442 23.7086 5.6625 24.5V26.125C5.66265 26.3223 5.70949 26.5168 5.7992 26.6925C5.88891 26.8682 6.01895 27.0202 6.17866 27.136C6.33838 27.2518 6.52325 27.3282 6.71814 27.3589C6.91304 27.3896 7.11242 27.3737 7.3 27.3125L8.8375 26.8125C9.59159 26.5649 10.4049 26.5635 11.1598 26.8084C11.9148 27.0533 12.5724 27.5319 13.0375 28.175L13.9875 29.4875C14.1042 29.6464 14.2567 29.7756 14.4326 29.8647C14.6085 29.9537 14.8028 30.0001 15 30.0001C15.1972 30.0001 15.3915 29.9537 15.5674 29.8647C15.7433 29.7756 15.8958 29.6464 16.0125 29.4875L16.9625 28.175C17.4284 27.5328 18.086 27.0549 18.8407 26.8101C19.5954 26.5653 20.4083 26.5661 21.1625 26.8125L22.7 27.3125C22.8876 27.3737 23.087 27.3896 23.2819 27.3589C23.4768 27.3282 23.6616 27.2518 23.8213 27.136C23.9811 27.0202 24.1111 26.8682 24.2008 26.6925C24.2905 26.5168 24.3374 26.3223 24.3375 26.125V24.5C24.3356 23.7086 24.5852 22.9371 25.0502 22.2968C25.5153 21.6565 26.1718 21.1805 26.925 20.9375L28.4625 20.4375C28.6485 20.3749 28.8175 20.2701 28.9563 20.1313C29.0951 19.9925 29.1999 19.8235 29.2625 19.6375C29.3245 19.4495 29.3409 19.2495 29.3105 19.0539C29.2801 18.8584 29.2037 18.6728 29.0875 18.5125L28.1375 17.2ZM20.8875 13.3838L14.6375 19.6338C14.4031 19.8681 14.0852 19.9998 13.7537 19.9998C13.4223 19.9998 13.1044 19.8681 12.87 19.6338L9.12 15.8838C9.00061 15.7685 8.90538 15.6305 8.83987 15.478C8.77436 15.3255 8.73988 15.1615 8.73844 14.9955C8.73699 14.8295 8.76862 14.6649 8.83147 14.5113C8.89432 14.3577 8.98714 14.2181 9.10451 14.1008C9.22187 13.9834 9.36144 13.8906 9.51506 13.8277C9.66868 13.7649 9.83328 13.7333 9.99925 13.7347C10.1652 13.7361 10.3293 13.7706 10.4818 13.8361C10.6343 13.9017 10.7722 13.9969 10.8875 14.1163L13.75 16.9825L19.1163 11.6163C19.352 11.3886 19.6678 11.2626 19.9955 11.2654C20.3232 11.2683 20.6368 11.3997 20.8685 11.6315C21.1003 11.8633 21.2317 12.1768 21.2346 12.5045C21.2374 12.8323 21.1114 13.148 20.8837 13.3838H20.8875Z" fill="#00B76A"/>
</g>
<defs>
<clipPath id="clip0_2504_13316">
<rect width="30" height="30" fill="white"/>
</clipPath>
</defs>
</svg>
