<svg width="24" height="24" viewBox="0 0 24 24" fill="none" xmlns="http://www.w3.org/2000/svg">
<path d="M16.7 17.9484C15.9 17.9484 15.25 18.5984 15.25 19.4484C15.25 20.2984 15.9 20.9484 16.7 20.9484H20.75V17.9484H16.7ZM16.75 19.9484C16.5 19.9484 16.25 19.7484 16.25 19.4484C16.25 19.1484 16.45 18.9484 16.75 18.9484C17 18.9484 17.25 19.1484 17.25 19.4484C17.2 19.6984 17 19.9484 16.75 19.9484ZM16 5.89844L13.05 4.89844C12.65 5.49844 11.95 5.84844 11.25 5.79844L9.5 10.9484H15.8L16.85 7.74844C16.3 7.29844 15.95 6.59844 16 5.89844ZM14.85 7.59844C14.7 8.09844 14.1 8.39844 13.6 8.24844C13.1 8.09844 12.75 7.49844 12.95 6.99844C13.15 6.49844 13.7 6.19844 14.2 6.34844C14.7 6.49844 15 7.09844 14.85 7.59844Z" fill="currentColor"/>
<path d="M10.85 2.10072L19.4 4.95072C19.55 5.00072 19.65 5.10072 19.7 5.20072C19.75 5.30072 19.75 5.45072 19.75 5.60072L17.95 11.0007H16.9L18 7.70073C18.05 7.55072 18.05 7.45073 17.95 7.30073C17.9 7.20073 17.8 7.10073 17.65 7.05073C17.15 6.90073 16.85 6.30072 17 5.80073C17.1 5.55073 16.95 5.25073 16.7 5.15073L12.9 3.90073C12.75 3.85073 12.65 3.85073 12.5 3.95073C12.4 4.00073 12.3 4.10072 12.25 4.25073C12.1 4.75073 11.5 5.05073 11 4.90073C10.75 4.80073 10.45 4.95072 10.35 5.20072L8.4 11.0507H7.35L10.2 2.50073C10.3 2.15073 10.6 2.00072 10.85 2.10072ZM5.75 10.9507V6.40073C6.45 6.20073 7 5.65072 7.2 4.95072H8.35L6.35 10.9507H5.75Z" fill="currentColor"/>
<path d="M3.9 3.09922C4 2.99922 4.1 2.94922 4.25 2.94922H9L8.65 3.94922H6.75C6.6 3.94922 6.5 3.99922 6.4 4.09922C6.3 4.19922 6.25 4.29922 6.25 4.44922C6.25 4.99922 5.8 5.44922 5.25 5.44922C4.95 5.44922 4.75 5.64922 4.75 5.94922V10.9992C4.4 11.0492 4.05 11.2492 3.75 11.4492V3.44922C3.75 3.29922 3.8 3.19922 3.9 3.09922ZM20.75 22.4492C20.75 23.2992 20.1 23.9492 19.25 23.9492H5.25C4.4 23.9492 3.75 23.2992 3.75 22.4492V13.4492C3.75 12.5992 4.4 11.9492 5.25 11.9492H19.2C20.05 11.9492 20.7 12.5992 20.7 13.4492V16.9492H16.65C15.3 16.9492 14.2 18.0492 14.2 19.4492C14.2 20.8492 15.3 21.9492 16.65 21.9492H20.7V22.4492H20.75Z" fill="currentColor"/>
</svg>
