<svg width="24" height="24" viewBox="0 0 24 24" fill="none" xmlns="http://www.w3.org/2000/svg">
<g clip-path="url(#clip0_2225_12035)">
<path d="M16.5029 7.19152C16.9591 7.19152 17.4035 7.22889 17.8363 7.29117C17.0409 3.59169 13.3918 0.789062 9.00585 0.789062C4.03509 0.789062 0 4.37643 0 8.79836C0 11.3519 1.34503 13.6064 3.4386 15.0763L2.25731 17.6048L5.48538 16.1226C6.17544 16.3841 6.90059 16.5959 7.67252 16.708C7.56726 16.2222 7.50878 15.724 7.50878 15.2008C7.49708 10.7913 11.5322 7.19152 16.5029 7.19152ZM12 4.38889C12.1475 4.38889 12.2935 4.41982 12.4297 4.47991C12.5659 4.54 12.6897 4.62808 12.794 4.73912C12.8982 4.85016 12.9809 4.98199 13.0373 5.12707C13.0938 5.27215 13.1228 5.42764 13.1228 5.58467C13.1228 5.74171 13.0938 5.8972 13.0373 6.04228C12.9809 6.18736 12.8982 6.31919 12.794 6.43023C12.6897 6.54126 12.5659 6.62935 12.4297 6.68944C12.2935 6.74953 12.1475 6.78046 12 6.78046C11.7022 6.78046 11.4166 6.65448 11.2061 6.43023C10.9955 6.20597 10.8772 5.90182 10.8772 5.58467C10.8772 5.26753 10.9955 4.96338 11.2061 4.73912C11.4166 4.51487 11.7022 4.38889 12 4.38889ZM6 6.79292C5.70222 6.79292 5.41663 6.66694 5.20606 6.44268C4.99549 6.21843 4.8772 5.91427 4.8772 5.59713C4.8772 5.27999 4.99549 4.97583 5.20606 4.75158C5.41663 4.52733 5.70222 4.40134 6 4.40134C6.29779 4.40134 6.58338 4.52733 6.79395 4.75158C7.00452 4.97583 7.12281 5.27999 7.12281 5.59713C7.12281 5.91427 7.00452 6.21843 6.79395 6.44268C6.58338 6.66694 6.29779 6.79292 6 6.79292Z" fill="currentColor"/>
<path d="M24 15.1993C24 11.6618 20.6433 8.79688 16.5029 8.79688C12.3626 8.79688 9.00586 11.6618 9.00586 15.1993C9.00586 18.7369 12.3626 21.6018 16.5029 21.6018C17.1813 21.6018 17.8363 21.5021 18.4562 21.3527L22.5029 23.2086L21.0994 20.2191C22.8538 19.0483 24 17.2546 24 15.1993ZM14.2456 14.8007C14.0236 14.8007 13.8065 14.7306 13.6218 14.5992C13.4372 14.4678 13.2933 14.2811 13.2083 14.0626C13.1233 13.844 13.1011 13.6036 13.1444 13.3717C13.1877 13.1397 13.2947 12.9266 13.4517 12.7594C13.6087 12.5922 13.8088 12.4783 14.0266 12.4321C14.2444 12.386 14.4701 12.4097 14.6753 12.5002C14.8805 12.5907 15.0558 12.744 15.1792 12.9406C15.3026 13.1372 15.3684 13.3684 15.3684 13.6049C15.3801 14.2651 14.8655 14.8007 14.2456 14.8007ZM18.7486 14.8007C18.4508 14.8007 18.1652 14.6747 17.9546 14.4505C17.744 14.2262 17.6257 13.9221 17.6257 13.6049C17.6257 13.2878 17.744 12.9836 17.9546 12.7594C18.1652 12.5351 18.4508 12.4092 18.7486 12.4092C19.0463 12.4092 19.3319 12.5351 19.5425 12.7594C19.7531 12.9836 19.8714 13.2878 19.8714 13.6049C19.8714 13.9221 19.7531 14.2262 19.5425 14.4505C19.3319 14.6747 19.0463 14.8007 18.7486 14.8007Z" fill="currentColor"/>
</g>
<defs>
<clipPath id="clip0_2225_12035">
<rect width="24" height="24" fill="currentColor"/>
</clipPath>
</defs>
</svg>
