<svg width="32" height="32" viewBox="0 0 32 32" fill="none" xmlns="http://www.w3.org/2000/svg">
<path d="M16 28C22.6274 28 28 22.6274 28 16C28 9.37258 22.6274 4 16 4C9.37258 4 4 9.37258 4 16C4 22.6274 9.37258 28 16 28Z" stroke="currentColor" stroke-width="1.5" stroke-linecap="round" stroke-linejoin="round"/>
<path d="M25.5566 8.43021C25.457 8.48055 25.3575 8.48055 25.2579 8.48055C24.7104 8.63158 24.1629 8.53089 23.6652 8.27918C23.5158 8.17849 23.3665 8.0778 23.2172 8.12815C23.1176 8.17849 23.0679 8.22883 23.0181 8.32952C22.4208 9.08467 21.4253 9.28604 20.5792 8.83295C20.4299 8.73227 20.2308 8.63158 20.0814 8.68192C19.9321 8.73227 19.8326 8.8833 19.733 9.03433C19.3846 9.5881 19.1357 10.1922 19.0362 10.7963C18.9367 11.4508 19.1357 12.1053 19.5837 12.5584C19.733 12.659 19.8326 12.7597 19.9321 12.8604C20.0317 13.0114 20.1312 13.1625 20.181 13.3135C20.629 14.1693 21.6742 14.4714 22.5204 14.0183C22.6199 13.968 22.7195 13.8673 22.819 13.8169C22.9186 13.6659 23.1176 13.5149 23.267 13.4645C23.6154 13.3638 23.8643 13.6659 24.1131 13.968C24.4118 14.27 24.6109 14.6728 24.6109 15.1259C24.5611 15.5286 24.3122 15.9314 24.5113 16.2334C24.6109 16.3341 24.7104 16.4348 24.8597 16.5355C25.4072 16.9382 25.3077 17.7941 25.3077 18.4485C25.3077 18.9519 25.4072 19.4554 25.5566 19.9588C25.7557 20.6133 26.2036 21.167 26.8009 21.4691C26.8507 21.5195 26.9005 21.5195 27 21.5195M17.0452 4C17.095 4.40275 16.9457 4.80549 16.5973 5.00687C16.2489 5.25858 15.8009 5.35927 15.4027 5.35927C15.0543 5.30892 14.7059 5.30892 14.3575 5.40961C13.81 5.66133 13.7602 6.56751 13.1629 6.86957C13.0136 6.91991 12.8145 6.91991 12.6652 7.0206C12.1176 7.27231 12.1674 8.0778 11.7195 8.53089C11.3213 8.8833 10.8235 8.98398 10.3258 8.8833C9.82805 8.78261 9.33032 8.73227 8.83258 8.83295C8.33484 8.98398 7.93665 9.53776 8.13575 9.99085C8.33484 10.4439 8.93213 10.4943 9.38009 10.4439C9.82805 10.3936 10.3756 10.3432 10.724 10.6453C11.0724 10.9474 11.0226 11.8032 11.4706 12.1556C11.8688 12.4073 12.3167 12.4073 12.7149 12.1556C13.1131 11.9039 13.5113 11.8032 13.9593 11.7529C15.1041 11.8032 15.552 13.3638 16.6471 13.7162C17.095 13.8673 17.5928 13.7666 17.991 13.9176C18.7873 14.2197 19.086 15.3272 18.7376 16.1327C18.5882 16.4348 18.4389 16.7368 18.3394 17.0389C18.2398 17.4416 18.3891 17.8444 18.2896 18.2471C18.0905 19.0023 17.0452 19.3547 17.0452 20.1602C17.095 20.3616 17.095 20.6133 17.0452 20.8146C16.9457 20.9657 16.7964 21.1167 16.6471 21.2174C15.8009 21.7712 15.1538 22.5767 14.7557 23.5332C14.7059 23.6842 14.6561 23.7849 14.6561 23.9359C14.7059 24.1373 14.7557 24.2883 14.905 24.4394C15.1041 24.6911 15.2534 24.9931 15.2534 25.3455C15.2534 25.6979 15.0045 26 14.6561 26C14.457 25.9497 14.2579 25.7986 14.1584 25.6476C13.9095 25.3959 13.6606 25.0938 13.5113 24.7414C13.4118 24.3387 13.4615 23.8352 13.2624 23.4828C13.0633 23.2815 12.914 23.0297 12.7149 22.8284C12.0679 21.9725 12.8643 20.6636 12.4661 19.7071C12.1176 18.9016 11.0724 18.4989 10.9231 17.643C10.9231 17.2906 10.9231 16.9886 11.0226 16.6865C11.0226 15.7803 10.8235 14.8741 10.3756 14.119C10.276 13.8673 10.1267 13.6659 9.97738 13.5149C9.67873 13.3135 9.23077 13.3638 8.93213 13.1625C8.68326 12.9611 8.48416 12.7094 8.33484 12.4073C8.13575 12.0046 7.8371 11.7025 7.43891 11.5011C7.04072 11.2998 6.59276 11.3501 6.24434 11.5515C6.04525 11.7025 5.9457 11.9039 5.74661 12.0046C5.54751 12.1556 5.24887 12.2059 5 12.2059" stroke="currentColor" stroke-width="1.5" stroke-linecap="round" stroke-linejoin="round"/>
</svg>
