<svg width="56" height="56" viewBox="0 0 56 56" fill="none" xmlns="http://www.w3.org/2000/svg">
<path d="M54.303 24.6576C54.303 29.986 49.9927 34.2879 44.6727 34.2879H11.3273C11.1067 34.2879 10.8945 34.2794 10.6909 34.2709C10.4109 34.2539 10.1394 34.22 9.85938 34.1775C9.75757 34.1691 9.64726 34.1521 9.54544 34.1182C5.08241 33.2951 1.69696 29.3751 1.69696 24.6576C1.69696 19.3376 6.01575 15.0357 11.3273 15.0357C12.4048 15.0357 13.44 15.2139 14.4157 15.5448C14.4073 15.3751 14.4073 15.2054 14.4073 15.0272C14.4073 9.69876 18.726 5.39695 24.0376 5.39695C26.337 5.39695 28.4412 6.19452 30.0957 7.5521C31.8012 3.87816 35.5345 1.32422 39.8533 1.32422C45.7927 1.32422 50.6121 6.14361 50.6121 12.083C50.6121 13.6442 50.2812 15.1206 49.6788 16.4527C52.4533 18.1327 54.303 21.1788 54.303 24.6576V24.6576Z" fill="url(#paint0_linear_4624_14129)"/>
<path d="M42.8994 21.1629C42.8994 23.335 36.2388 26 28 26C19.7697 26 13.0921 23.335 13.0921 21.1629C13.0921 18.9908 19.7612 17.2344 27.9915 17.2344C36.2303 17.2259 42.8994 18.9823 42.8994 21.1629ZM13.1006 43.3508C13.1006 45.5229 19.7697 47.2793 28 47.2793C36.2388 47.2793 42.9079 45.5229 42.9079 43.3508V50.7496C42.9079 52.9217 36.2388 54.678 28 54.678C19.7697 54.678 13.1006 52.9217 13.1006 50.7496V43.3508Z" fill="url(#paint1_linear_4624_14129)"/>
<path d="M13.1006 35.9492C13.1006 38.1213 19.7697 39.8777 28 39.8777C36.2388 39.8777 42.9079 38.1213 42.9079 35.9492V43.348C42.9079 45.5201 36.2388 47.2765 28 47.2765C19.7697 47.2765 13.1006 45.5201 13.1006 43.348V35.9492V35.9492Z" fill="url(#paint2_linear_4624_14129)"/>
<path d="M13 28C13 30.3011 19.7122 32.1618 27.9957 32.1618C36.2878 32.1618 43 30.3011 43 28V35.8382C43 38.1393 36.2878 40 27.9957 40C19.7122 40 13 38.1393 13 35.8382V28V28Z" fill="url(#paint3_linear_4624_14129)"/>
<path d="M13.1006 21.1523C13.1006 23.3245 19.7697 25.0808 28 25.0808C36.2388 25.0808 42.9079 23.3245 42.9079 21.1523V28.5511C42.9079 30.7233 36.2388 32.4796 28 32.4796C19.7697 32.4796 13.1006 30.7233 13.1006 28.5511V21.1523V21.1523Z" fill="url(#paint4_linear_4624_14129)"/>
<path d="M17.0376 28.3998C16.9612 28.3998 16.8764 28.3913 16.7915 28.3659L16.5624 28.298C16.35 28.2297 16.1729 28.0808 16.0692 27.8832C15.9655 27.6856 15.9436 27.4552 16.0081 27.2417C16.0726 27.0281 16.2184 26.8484 16.4142 26.7412C16.6099 26.6341 16.8399 26.6081 17.0546 26.6689L17.2836 26.7368C17.7333 26.8725 17.9879 27.3477 17.8521 27.7974C17.7418 28.1622 17.4024 28.3998 17.0376 28.3998Z" fill="#8ABA55"/>
<path d="M20.1515 28.9154C20.0751 28.9154 19.9903 28.9069 19.9054 28.8815L19.6764 28.8136C19.4639 28.7454 19.2868 28.5964 19.1831 28.3988C19.0794 28.2013 19.0575 27.9709 19.122 27.7573C19.1865 27.5437 19.3324 27.364 19.5281 27.2569C19.7238 27.1497 19.9538 27.1237 20.1685 27.1845L20.3976 27.2524C20.8473 27.3882 21.1018 27.8633 20.9661 28.313C20.8557 28.6778 20.5164 28.9154 20.1515 28.9154Z" fill="#EF4A51"/>
<path d="M23.2739 29.435C23.1976 29.435 23.1127 29.4265 23.0279 29.401L22.7988 29.3331C22.5864 29.2649 22.4092 29.1159 22.3056 28.9184C22.2019 28.7208 22.1799 28.4904 22.2445 28.2768C22.309 28.0632 22.4548 27.8835 22.6505 27.7764C22.8463 27.6693 23.0762 27.6433 23.2909 27.704L23.52 27.7719C23.9697 27.9077 24.2242 28.3828 24.0885 28.8325C23.9697 29.1974 23.6388 29.435 23.2739 29.435Z" fill="#FFAB03"/>
<path d="M17.0376 35.7631C16.9612 35.7631 16.8764 35.7546 16.7915 35.7291L16.5624 35.6613C16.35 35.593 16.1729 35.4441 16.0692 35.2465C15.9655 35.0489 15.9436 34.8185 16.0081 34.6049C16.0726 34.3913 16.2184 34.2116 16.4142 34.1045C16.6099 33.9974 16.8399 33.9714 17.0546 34.0322L17.2836 34.1001C17.7333 34.2358 17.9879 34.711 17.8521 35.1607C17.7333 35.5255 17.4024 35.7631 17.0376 35.7631Z" fill="#8ABA55"/>
<path d="M20.1515 36.2826C20.0751 36.2826 19.9903 36.2741 19.9054 36.2487L19.6764 36.1808C19.4639 36.1125 19.2868 35.9636 19.1831 35.766C19.0794 35.5684 19.0575 35.3381 19.122 35.1245C19.1865 34.9109 19.3324 34.7312 19.5281 34.624C19.7238 34.5169 19.9538 34.4909 20.1685 34.5517L20.3976 34.6196C20.8473 34.7553 21.1018 35.2305 20.9661 35.6802C20.8557 36.045 20.5164 36.2826 20.1515 36.2826Z" fill="#EF4A51"/>
<path d="M23.2739 36.7982C23.1976 36.7982 23.1127 36.7898 23.0279 36.7643L22.7988 36.6964C22.5864 36.6282 22.4092 36.4792 22.3056 36.2816C22.2019 36.0841 22.1799 35.8537 22.2445 35.6401C22.309 35.4265 22.4548 35.2468 22.6505 35.1397C22.8463 35.0325 23.0762 35.0066 23.2909 35.0673L23.52 35.1352C23.7145 35.1948 23.8811 35.3222 23.9897 35.4941C24.0983 35.6661 24.1416 35.8713 24.1119 36.0725C24.0821 36.2737 23.9812 36.4576 23.8275 36.5907C23.6737 36.7239 23.4773 36.7975 23.2739 36.7982V36.7982Z" fill="#FFAB03"/>
<path d="M17.0376 43.1303C16.9612 43.1303 16.8764 43.1218 16.7915 43.0963L16.5624 43.0285C16.35 42.9602 16.1729 42.8112 16.0692 42.6137C15.9655 42.4161 15.9436 42.1857 16.0081 41.9721C16.0726 41.7585 16.2184 41.5788 16.4142 41.4717C16.6099 41.3646 16.8399 41.3386 17.0546 41.3994L17.2836 41.4672C17.7333 41.603 17.9879 42.0781 17.8521 42.5278C17.7418 42.8927 17.4024 43.1303 17.0376 43.1303Z" fill="#8ABA55"/>
<path d="M20.1515 43.6459C20.0751 43.6459 19.9903 43.6374 19.9054 43.612L19.6764 43.5441C19.4639 43.4758 19.2868 43.3269 19.1831 43.1293C19.0794 42.9317 19.0575 42.7013 19.122 42.4877C19.1865 42.2742 19.3324 42.0944 19.5281 41.9873C19.7238 41.8802 19.9538 41.8542 20.1685 41.915L20.3976 41.9829C20.8473 42.1186 21.1018 42.5938 20.9661 43.0435C20.8557 43.4083 20.5164 43.6459 20.1515 43.6459Z" fill="#EF4A51"/>
<path d="M23.2739 44.1654C23.1976 44.1654 23.1127 44.1569 23.0279 44.1315L22.7988 44.0636C22.5864 43.9954 22.4092 43.8464 22.3056 43.6488C22.2019 43.4513 22.1799 43.2209 22.2445 43.0073C22.309 42.7937 22.4548 42.614 22.6505 42.5069C22.8463 42.3997 23.0762 42.3737 23.2909 42.4345L23.52 42.5024C23.9697 42.6382 24.2242 43.1133 24.0885 43.563C23.9697 43.9279 23.6388 44.1654 23.2739 44.1654Z" fill="#FFAB03"/>
<path d="M17.0376 50.4935C16.9612 50.4935 16.8764 50.4851 16.7915 50.4596L16.5624 50.3917C16.35 50.3235 16.1729 50.1745 16.0692 49.977C15.9655 49.7794 15.9436 49.549 16.0081 49.3354C16.0726 49.1218 16.2184 48.9421 16.4142 48.835C16.6099 48.7278 16.8399 48.7019 17.0546 48.7626L17.2836 48.8305C17.7333 48.9663 17.9879 49.4414 17.8521 49.8911C17.7418 50.256 17.4024 50.4935 17.0376 50.4935Z" fill="#8ABA55"/>
<path d="M20.1515 51.0092C20.0751 51.0092 19.9903 51.0007 19.9054 50.9752L19.6764 50.9074C19.4639 50.8391 19.2868 50.6902 19.1831 50.4926C19.0794 50.295 19.0575 50.0646 19.122 49.851C19.1865 49.6374 19.3324 49.4577 19.5281 49.3506C19.7238 49.2435 19.9538 49.2175 20.1685 49.2783L20.3976 49.3461C20.8473 49.4819 21.1018 49.9571 20.9661 50.4068C20.8557 50.7716 20.5164 51.0092 20.1515 51.0092Z" fill="#EF4A51"/>
<path d="M23.2739 51.5287C23.1976 51.5287 23.1127 51.5202 23.0279 51.4948L22.7988 51.4269C22.5864 51.3586 22.4092 51.2097 22.3056 51.0121C22.2019 50.8145 22.1799 50.5842 22.2445 50.3706C22.309 50.157 22.4548 49.9773 22.6505 49.8701C22.8463 49.763 23.0762 49.737 23.2909 49.7978L23.52 49.8657C23.7145 49.9253 23.8811 50.0526 23.9897 50.2246C24.0983 50.3966 24.1416 50.6018 24.1119 50.803C24.0821 51.0042 23.9812 51.188 23.8275 51.3212C23.6737 51.4543 23.4773 51.528 23.2739 51.5287V51.5287Z" fill="#FFAB03"/>
<defs>
<linearGradient id="paint0_linear_4624_14129" x1="1.69696" y1="17.806" x2="42.5152" y2="39.7413" gradientUnits="userSpaceOnUse">
<stop stop-color="#D52274"/>
<stop offset="0.5625" stop-color="#F44D29"/>
<stop offset="1" stop-color="#FD7E14"/>
</linearGradient>
<linearGradient id="paint1_linear_4624_14129" x1="2.89201" y1="54.678" x2="14.1506" y2="20.7054" gradientUnits="userSpaceOnUse">
<stop stop-color="#D3E6F5"/>
<stop offset="1" stop-color="#F0F7FC"/>
</linearGradient>
<linearGradient id="paint2_linear_4624_14129" x1="2.90339" y1="47.2765" x2="4.03582" y2="35.9841" gradientUnits="userSpaceOnUse">
<stop stop-color="#D3E6F5"/>
<stop offset="1" stop-color="#F0F7FC"/>
</linearGradient>
<linearGradient id="paint3_linear_4624_14129" x1="2.73684" y1="40" x2="3.99825" y2="28.0498" gradientUnits="userSpaceOnUse">
<stop stop-color="#D3E6F5"/>
<stop offset="1" stop-color="#F0F7FC"/>
</linearGradient>
<linearGradient id="paint4_linear_4624_14129" x1="2.90339" y1="32.4796" x2="4.03582" y2="21.1872" gradientUnits="userSpaceOnUse">
<stop stop-color="#D3E6F5"/>
<stop offset="1" stop-color="#F0F7FC"/>
</linearGradient>
</defs>
</svg>
