<svg width="56" height="56" viewBox="0 0 56 56" fill="none" xmlns="http://www.w3.org/2000/svg">
<path d="M49.2917 35.6992H6.35837C4.13543 35.6992 2.33337 37.5013 2.33337 39.7242V47.7742C2.33337 49.9972 4.13543 51.7992 6.35837 51.7992H49.2917C51.5146 51.7992 53.3167 49.9972 53.3167 47.7742V39.7242C53.3167 37.5013 51.5146 35.6992 49.2917 35.6992Z" fill="url(#paint0_linear_2248_14555)"/>
<path d="M49.2917 19.6016H6.35837C4.13543 19.6016 2.33337 21.4036 2.33337 23.6266V31.6766C2.33337 33.8995 4.13543 35.7016 6.35837 35.7016H49.2917C51.5146 35.7016 53.3167 33.8995 53.3167 31.6766V23.6266C53.3167 21.4036 51.5146 19.6016 49.2917 19.6016Z" fill="url(#paint1_linear_2248_14555)"/>
<path d="M49.2917 3.5H6.35837C4.13543 3.5 2.33337 5.30205 2.33337 7.525V15.575C2.33337 17.7979 4.13543 19.6 6.35837 19.6H49.2917C51.5146 19.6 53.3167 17.7979 53.3167 15.575V7.525C53.3167 5.30205 51.5146 3.5 49.2917 3.5Z" fill="url(#paint2_linear_2248_14555)"/>
<path d="M10.3832 46.4331C11.8652 46.4331 13.0666 45.2317 13.0666 43.7497C13.0666 42.2678 11.8652 41.0664 10.3832 41.0664C8.90126 41.0664 7.69989 42.2678 7.69989 43.7497C7.69989 45.2317 8.90126 46.4331 10.3832 46.4331Z" fill="url(#paint3_linear_2248_14555)"/>
<path d="M18.4333 46.4331C19.9153 46.4331 21.1167 45.2317 21.1167 43.7497C21.1167 42.2678 19.9153 41.0664 18.4333 41.0664C16.9514 41.0664 15.75 42.2678 15.75 43.7497C15.75 45.2317 16.9514 46.4331 18.4333 46.4331Z" fill="url(#paint4_linear_2248_14555)"/>
<path d="M10.3832 14.2339C9.85251 14.2339 9.33372 14.0765 8.89244 13.7816C8.45117 13.4868 8.10724 13.0677 7.90415 12.5774C7.70105 12.0871 7.64791 11.5475 7.75145 11.027C7.85499 10.5065 8.11055 10.0284 8.48582 9.65312C8.86109 9.27785 9.33922 9.02229 9.85973 8.91875C10.3802 8.81521 10.9198 8.86835 11.4101 9.07145C11.9004 9.27454 12.3195 9.61847 12.6143 10.0597C12.9092 10.501 13.0666 11.0198 13.0666 11.5505C13.0666 12.2622 12.7839 12.9447 12.2806 13.4479C11.7774 13.9511 11.0949 14.2339 10.3832 14.2339Z" fill="url(#paint5_linear_2248_14555)"/>
<path d="M18.4333 14.2339C17.9026 14.2339 17.3838 14.0765 16.9426 13.7816C16.5013 13.4868 16.1574 13.0677 15.9543 12.5774C15.7512 12.0871 15.698 11.5475 15.8016 11.027C15.9051 10.5065 16.1607 10.0284 16.5359 9.65312C16.9112 9.27785 17.3893 9.02229 17.9098 8.91875C18.4304 8.81521 18.9699 8.86835 19.4602 9.07145C19.9505 9.27454 20.3696 9.61847 20.6644 10.0597C20.9593 10.501 21.1167 11.0198 21.1167 11.5505C21.1167 12.2622 20.834 12.9447 20.3307 13.4479C19.8275 13.9511 19.145 14.2339 18.4333 14.2339Z" fill="url(#paint6_linear_2248_14555)"/>
<path d="M10.3832 30.3315C11.8652 30.3315 13.0666 29.1301 13.0666 27.6482C13.0666 26.1662 11.8652 24.9648 10.3832 24.9648C8.90126 24.9648 7.69989 26.1662 7.69989 27.6482C7.69989 29.1301 8.90126 30.3315 10.3832 30.3315Z" fill="url(#paint7_linear_2248_14555)"/>
<path d="M18.4333 30.3315C19.9153 30.3315 21.1167 29.1301 21.1167 27.6482C21.1167 26.1662 19.9153 24.9648 18.4333 24.9648C16.9514 24.9648 15.75 26.1662 15.75 27.6482C15.75 29.1301 16.9514 30.3315 18.4333 30.3315Z" fill="url(#paint8_linear_2248_14555)"/>
<defs>
<linearGradient id="paint0_linear_2248_14555" x1="27.825" y1="51.7992" x2="27.825" y2="35.6992" gradientUnits="userSpaceOnUse">
<stop stop-color="#D3E6F5"/>
<stop offset="1" stop-color="#F0F7FC"/>
</linearGradient>
<linearGradient id="paint1_linear_2248_14555" x1="-15.1083" y1="35.7016" x2="-13.7666" y2="19.6016" gradientUnits="userSpaceOnUse">
<stop stop-color="#D3E6F5"/>
<stop offset="1" stop-color="#F0F7FC"/>
</linearGradient>
<linearGradient id="paint2_linear_2248_14555" x1="-15.1083" y1="19.6" x2="-13.7666" y2="3.5" gradientUnits="userSpaceOnUse">
<stop stop-color="#D3E6F5"/>
<stop offset="1" stop-color="#F0F7FC"/>
</linearGradient>
<linearGradient id="paint3_linear_2248_14555" x1="7.69989" y1="43.7497" x2="13.0666" y2="43.7497" gradientUnits="userSpaceOnUse">
<stop stop-color="#FE9661"/>
<stop offset="1" stop-color="#FFB369"/>
</linearGradient>
<linearGradient id="paint4_linear_2248_14555" x1="15.75" y1="43.7497" x2="21.1167" y2="43.7497" gradientUnits="userSpaceOnUse">
<stop stop-color="#54A5FF"/>
<stop offset="1" stop-color="#8AD3FE"/>
</linearGradient>
<linearGradient id="paint5_linear_2248_14555" x1="-15.1084" y1="11.5505" x2="-13.7668" y2="11.5505" gradientUnits="userSpaceOnUse">
<stop stop-color="#FE9661"/>
<stop offset="1" stop-color="#FFB369"/>
</linearGradient>
<linearGradient id="paint6_linear_2248_14555" x1="15.75" y1="11.5505" x2="21.1167" y2="11.5505" gradientUnits="userSpaceOnUse">
<stop stop-color="#54A5FF"/>
<stop offset="1" stop-color="#8AD3FE"/>
</linearGradient>
<linearGradient id="paint7_linear_2248_14555" x1="-15.1084" y1="27.6482" x2="-13.7668" y2="27.6482" gradientUnits="userSpaceOnUse">
<stop stop-color="#FE9661"/>
<stop offset="1" stop-color="#FFB369"/>
</linearGradient>
<linearGradient id="paint8_linear_2248_14555" x1="15.75" y1="27.6482" x2="21.1167" y2="27.6482" gradientUnits="userSpaceOnUse">
<stop stop-color="#54A5FF"/>
<stop offset="1" stop-color="#8AD3FE"/>
</linearGradient>
</defs>
</svg>
