<svg width="56" height="56" viewBox="0 0 56 56" fill="none" xmlns="http://www.w3.org/2000/svg">
<path d="M36.75 7.00175C34.9533 7.00306 33.1825 7.43041 31.583 8.24872C29.9835 9.06704 28.6008 10.253 27.5485 11.7092C26.3907 10.9237 25.0241 10.5031 23.625 10.5017C21.7685 10.5017 19.988 11.2392 18.6752 12.552C17.3625 13.8648 16.625 15.6452 16.625 17.5017C16.6285 17.8167 16.6512 18.1282 16.695 18.438C16.1084 17.9792 15.4145 17.6776 14.6788 17.562C13.9432 17.4463 13.1902 17.5204 12.4911 17.7771C11.7921 18.0338 11.1701 18.4648 10.6842 19.0291C10.1983 19.5934 9.8644 20.2724 9.71424 21.0017H9.62674C8.70684 20.9992 7.7955 21.1785 6.94509 21.5292C6.09468 21.88 5.32196 22.3953 4.67133 23.0456C4.0207 23.6959 3.50498 24.4684 3.1538 25.3186C2.80262 26.1689 2.62291 27.0801 2.62499 28C2.62499 31.878 5.74874 35 9.62499 35H44.625C48.503 35 51.625 31.878 51.625 28C51.626 26.6782 51.2508 25.3835 50.5433 24.267C49.8359 23.1505 48.8253 22.2583 47.6297 21.6947C48.1486 19.9944 48.2616 18.196 47.9599 16.444C47.6581 14.6921 46.9498 13.0352 45.892 11.6064C44.8341 10.1776 43.4561 9.01664 41.8685 8.21668C40.2808 7.41671 38.5278 7.00001 36.75 7V7.00175Z" fill="url(#paint0_linear_2248_14571)"/>
<path d="M15.6398 41.5621H38.6085H15.6398ZM15.6398 28.4371H38.6085H15.6398ZM27.125 21.8711V48.1246V21.8711ZM14 34.9996H40.25H14ZM40.25 34.9996C40.25 36.7232 39.9105 38.4299 39.2509 40.0223C38.5913 41.6147 37.6245 43.0616 36.4058 44.2804C35.187 45.4991 33.7401 46.4659 32.1477 47.1255C30.5553 47.7851 28.8486 48.1246 27.125 48.1246C25.4014 48.1246 23.6947 47.7851 22.1023 47.1255C20.5099 46.4659 19.063 45.4991 17.8442 44.2804C16.6255 43.0616 15.6587 41.6147 14.9991 40.0223C14.3395 38.4299 14 36.7232 14 34.9996C14 33.276 14.3395 31.5693 14.9991 29.9769C15.6587 28.3845 16.6255 26.9376 17.8442 25.7188C19.063 24.5 20.5099 23.5333 22.1023 22.8737C23.6947 22.2141 25.4014 21.8746 27.125 21.8746C28.8486 21.8746 30.5553 22.2141 32.1477 22.8737C33.7401 23.5333 35.187 24.5 36.4058 25.7188C37.6245 26.9376 38.5913 28.3845 39.2509 29.9769C39.9105 31.5693 40.25 33.276 40.25 34.9996Z" fill="url(#paint1_linear_2248_14571)"/>
<path d="M27.125 21C19.404 21 13.125 27.279 13.125 35C13.125 42.7227 19.404 49 27.125 49C34.846 49 41.125 42.7227 41.125 35C41.125 27.279 34.846 21 27.125 21ZM26.25 22.9286V27.5625H17.6295C19.6945 24.9288 22.7045 23.1911 26.25 22.9286ZM28 22.9286C31.5438 23.1911 34.5573 24.9288 36.6205 27.5625H28V22.9286ZM16.4535 29.3125H26.25V34.125H15.0535C15.1753 32.44 15.6524 30.7999 16.4535 29.3125ZM28 29.3125H37.7965C38.5805 30.779 39.067 32.3767 39.1965 34.125H28V29.3125ZM15.05 35.875H26.25V40.6875H16.45C15.6492 39.2 15.1721 37.5599 15.05 35.875ZM28 35.875H39.2C39.0779 37.5599 38.6008 39.2 37.8 40.6875H28V35.875ZM17.6295 42.4375H26.25V47.0733C22.7063 46.8108 19.6928 45.073 17.6295 42.4375ZM28 42.4375H36.6205C34.5555 45.073 31.5455 46.8091 28 47.0733V42.4375Z" fill="white"/>
<path fill-rule="evenodd" clip-rule="evenodd" d="M21.7997 22.4492C18.4082 30.8037 17.8447 38.7785 21.5442 47.4497L23.1542 46.7619C19.6297 38.5001 20.1442 31.1729 23.4202 23.1089L21.7997 22.4492ZM32.3522 22.4492L30.7317 23.1089C34.0042 31.1729 34.5222 38.4984 30.9977 46.7619L32.6077 47.4497C36.3055 38.7785 35.7437 30.8037 32.3505 22.4492H32.3522Z" fill="white"/>
<defs>
<linearGradient id="paint0_linear_2248_14571" x1="2.62497" y1="21" x2="38.9952" y2="42.4324" gradientUnits="userSpaceOnUse">
<stop stop-color="#D52274"/>
<stop offset="0.5625" stop-color="#F44D29"/>
<stop offset="1" stop-color="#FD7E14"/>
</linearGradient>
<linearGradient id="paint1_linear_2248_14571" x1="14" y1="34.9978" x2="37.5773" y2="42.9361" gradientUnits="userSpaceOnUse">
<stop stop-color="#D52274"/>
<stop offset="0.5625" stop-color="#F44D29"/>
<stop offset="1" stop-color="#FD7E14"/>
</linearGradient>
</defs>
</svg>
