<svg width="56" height="56" viewBox="0 0 56 56" fill="none" xmlns="http://www.w3.org/2000/svg">
<path d="M36.925 7.00175C35.1283 7.00306 33.3576 7.43041 31.758 8.24872C30.1585 9.06704 28.7759 10.253 27.7235 11.7092C26.5658 10.9237 25.1991 10.5031 23.8 10.5017C21.9435 10.5017 20.163 11.2392 18.8503 12.552C17.5375 13.8648 16.8 15.6452 16.8 17.5017C16.8035 17.8167 16.8263 18.1282 16.87 18.438C16.2835 17.9792 15.5895 17.6776 14.8539 17.562C14.1182 17.4463 13.3652 17.5204 12.6661 17.7771C11.9671 18.0338 11.3452 18.4648 10.8592 19.0291C10.3733 19.5934 10.0394 20.2724 9.88927 21.0017H9.80177C8.88187 20.9992 7.97054 21.1785 7.12013 21.5292C6.26972 21.88 5.497 22.3953 4.84636 23.0456C4.19573 23.6959 3.68001 24.4684 3.32883 25.3186C2.97766 26.1689 2.79794 27.0801 2.80002 28C2.80002 31.878 5.92377 35 9.80002 35H44.8C48.678 35 51.8 31.878 51.8 28C51.801 26.6782 51.4258 25.3835 50.7184 24.267C50.0109 23.1505 49.0004 22.2583 47.8048 21.6947C48.3236 19.9944 48.4367 18.196 48.1349 16.444C47.8331 14.6921 47.1249 13.0352 46.067 11.6064C45.0091 10.1776 43.6311 9.01664 42.0435 8.21668C40.4558 7.41671 38.7028 7.00001 36.925 7V7.00175Z" fill="url(#paint0_linear_4611_14119)"/>
<g clip-path="url(#clip0_4611_14119)">
<rect x="17.8108" y="25.8125" width="20.3784" height="9.83784" fill="white"/>
<path d="M21.5939 24H34.4059C36.351 24 37.0565 24.2025 37.7676 24.5828C38.4787 24.9632 39.0367 25.5213 39.417 26.2323C39.7975 26.9435 40 27.6489 40 29.5941V42.406C40 44.3511 39.7975 45.0565 39.4171 45.7677C39.0368 46.4787 38.4788 47.0368 37.7677 47.4172C37.0566 47.7974 36.3511 48 34.406 48H21.594C19.6489 48 18.9435 47.7975 18.2323 47.4172C17.5213 47.0368 16.9632 46.4787 16.5829 45.7677C16.2025 45.0566 16 44.3512 16 42.406V29.5941C16 27.6488 16.2025 26.9435 16.5828 26.2322C16.9631 25.5212 17.5212 24.9631 18.2322 24.5828C18.9434 24.2026 19.6487 24 21.5939 24ZM22.8771 30.192V42.6546H25.6174V38.6401L27.1884 37.0516L30.9411 42.6546H34.3795L29.0385 35.1143L33.9084 30.192H30.4871L25.6173 35.3586V30.192H22.8771Z" fill="url(#paint1_linear_4611_14119)" stroke="white"/>
</g>
<defs>
<linearGradient id="paint0_linear_4611_14119" x1="2.8" y1="21" x2="39.1702" y2="42.4324" gradientUnits="userSpaceOnUse">
<stop stop-color="#D52274"/>
<stop offset="0.5625" stop-color="#F44D29"/>
<stop offset="1" stop-color="#FD7E14"/>
</linearGradient>
<linearGradient id="paint1_linear_4611_14119" x1="16" y1="36" x2="37.5557" y2="43.2586" gradientUnits="userSpaceOnUse">
<stop stop-color="#D52274"/>
<stop offset="0.5625" stop-color="#F44D29"/>
<stop offset="1" stop-color="#FD7E14"/>
</linearGradient>
<clipPath id="clip0_4611_14119">
<rect width="26" height="26" fill="white" transform="translate(15 23)"/>
</clipPath>
</defs>
</svg>
