<svg width="56" height="56" viewBox="0 0 56 56" fill="none" xmlns="http://www.w3.org/2000/svg">
<path d="M52.3513 21.1236C51.8616 20.3827 51.2167 19.7571 50.4613 19.2902C49.7058 18.8234 48.8579 18.5264 47.9763 18.4198C47.8645 17.6972 47.6707 16.9898 47.3988 16.3111C46.6384 14.338 45.2968 12.6424 43.5515 11.4486C41.8062 10.2549 39.7395 9.61932 37.625 9.62606C36.492 9.62898 35.3667 9.8121 34.2913 10.1686C32.8919 7.49667 30.667 5.34817 27.9479 4.04291C25.2287 2.73765 22.1608 2.34543 19.2008 2.92465C16.2407 3.50388 13.5469 5.02356 11.5203 7.25746C9.49377 9.49136 8.24283 12.32 7.95376 15.3223C7.4421 15.4889 6.94939 15.7089 6.48376 15.9786L6.37876 16.0398C5.30916 16.6958 4.40971 17.5952 3.75376 18.6648C3.72823 18.6997 3.70762 18.738 3.69251 18.7786C2.99312 19.9757 2.62218 21.3362 2.61718 22.7227C2.61218 24.1091 2.9733 25.4723 3.66404 26.6744C4.35478 27.8766 5.35065 28.875 6.55098 29.5689C7.75131 30.2628 9.11356 30.6274 10.5 30.6261H47.25C48.1026 30.6239 48.9453 30.4438 49.7243 30.0973C50.5033 29.7507 51.2013 29.2454 51.7738 28.6136C52.8066 27.4934 53.3785 26.0247 53.375 24.5011C53.3815 23.2978 53.0247 22.1207 52.3513 21.1236Z" fill="url(#paint0_linear_2248_14531)"/>
<path d="M42 42H14C12.5503 42 11.375 43.1753 11.375 44.625V49.875C11.375 51.3247 12.5503 52.5 14 52.5H42C43.4498 52.5 44.625 51.3247 44.625 49.875V44.625C44.625 43.1753 43.4498 42 42 42Z" fill="url(#paint1_linear_2248_14531)"/>
<path d="M42 31.5H14C12.5503 31.5 11.375 32.6753 11.375 34.125V39.375C11.375 40.8247 12.5503 42 14 42H42C43.4498 42 44.625 40.8247 44.625 39.375V34.125C44.625 32.6753 43.4498 31.5 42 31.5Z" fill="url(#paint2_linear_2248_14531)"/>
<path d="M42 21H14C12.5503 21 11.375 22.1753 11.375 23.625V28.875C11.375 30.3247 12.5503 31.5 14 31.5H42C43.4498 31.5 44.625 30.3247 44.625 28.875V23.625C44.625 22.1753 43.4498 21 42 21Z" fill="url(#paint3_linear_2248_14531)"/>
<path d="M16.625 49C17.5915 49 18.375 48.2165 18.375 47.25C18.375 46.2835 17.5915 45.5 16.625 45.5C15.6585 45.5 14.875 46.2835 14.875 47.25C14.875 48.2165 15.6585 49 16.625 49Z" fill="url(#paint4_linear_2248_14531)"/>
<path d="M21.875 49C22.8415 49 23.625 48.2165 23.625 47.25C23.625 46.2835 22.8415 45.5 21.875 45.5C20.9085 45.5 20.125 46.2835 20.125 47.25C20.125 48.2165 20.9085 49 21.875 49Z" fill="url(#paint5_linear_2248_14531)"/>
<path d="M16.625 28C16.2789 28 15.9405 27.8974 15.6528 27.7051C15.365 27.5128 15.1407 27.2395 15.0082 26.9197C14.8758 26.5999 14.8411 26.2481 14.9086 25.9086C14.9762 25.5691 15.1428 25.2573 15.3876 25.0126C15.6323 24.7678 15.9441 24.6012 16.2836 24.5336C16.6231 24.4661 16.9749 24.5008 17.2947 24.6332C17.6145 24.7657 17.8878 24.99 18.0801 25.2778C18.2724 25.5655 18.375 25.9039 18.375 26.25C18.375 26.7141 18.1906 27.1592 17.8624 27.4874C17.5343 27.8156 17.0891 28 16.625 28Z" fill="url(#paint6_linear_2248_14531)"/>
<path d="M21.875 28C21.5289 28 21.1905 27.8974 20.9028 27.7051C20.615 27.5128 20.3907 27.2395 20.2582 26.9197C20.1258 26.5999 20.0911 26.2481 20.1586 25.9086C20.2262 25.5691 20.3928 25.2573 20.6376 25.0126C20.8823 24.7678 21.1941 24.6012 21.5336 24.5336C21.8731 24.4661 22.2249 24.5008 22.5447 24.6332C22.8645 24.7657 23.1378 24.99 23.3301 25.2778C23.5224 25.5655 23.625 25.9039 23.625 26.25C23.625 26.7141 23.4406 27.1592 23.1124 27.4874C22.7842 27.8156 22.3391 28 21.875 28Z" fill="url(#paint7_linear_2248_14531)"/>
<path d="M16.625 38.5C17.5915 38.5 18.375 37.7165 18.375 36.75C18.375 35.7835 17.5915 35 16.625 35C15.6585 35 14.875 35.7835 14.875 36.75C14.875 37.7165 15.6585 38.5 16.625 38.5Z" fill="url(#paint8_linear_2248_14531)"/>
<path d="M21.875 38.5C22.8415 38.5 23.625 37.7165 23.625 36.75C23.625 35.7835 22.8415 35 21.875 35C20.9085 35 20.125 35.7835 20.125 36.75C20.125 37.7165 20.9085 38.5 21.875 38.5Z" fill="url(#paint9_linear_2248_14531)"/>
<defs>
<linearGradient id="paint0_linear_2248_14531" x1="2.61713" y1="16.6451" x2="39.5687" y2="39.232" gradientUnits="userSpaceOnUse">
<stop stop-color="#D52274"/>
<stop offset="0.5625" stop-color="#F44D29"/>
<stop offset="1" stop-color="#FD7E14"/>
</linearGradient>
<linearGradient id="paint1_linear_2248_14531" x1="28" y1="52.5" x2="28" y2="42" gradientUnits="userSpaceOnUse">
<stop stop-color="#D3E6F5"/>
<stop offset="1" stop-color="#F0F7FC"/>
</linearGradient>
<linearGradient id="paint2_linear_2248_14531" x1="7.06599e-06" y1="42" x2="0.875007" y2="31.5" gradientUnits="userSpaceOnUse">
<stop stop-color="#D3E6F5"/>
<stop offset="1" stop-color="#F0F7FC"/>
</linearGradient>
<linearGradient id="paint3_linear_2248_14531" x1="7.06599e-06" y1="31.5" x2="0.875007" y2="21" gradientUnits="userSpaceOnUse">
<stop stop-color="#D3E6F5"/>
<stop offset="1" stop-color="#F0F7FC"/>
</linearGradient>
<linearGradient id="paint4_linear_2248_14531" x1="14.875" y1="47.25" x2="18.375" y2="47.25" gradientUnits="userSpaceOnUse">
<stop stop-color="#FE9661"/>
<stop offset="1" stop-color="#FFB369"/>
</linearGradient>
<linearGradient id="paint5_linear_2248_14531" x1="20.125" y1="47.25" x2="23.625" y2="47.25" gradientUnits="userSpaceOnUse">
<stop stop-color="#54A5FF"/>
<stop offset="1" stop-color="#8AD3FE"/>
</linearGradient>
<linearGradient id="paint6_linear_2248_14531" x1="8.13603e-06" y1="26.25" x2="0.875008" y2="26.25" gradientUnits="userSpaceOnUse">
<stop stop-color="#FE9661"/>
<stop offset="1" stop-color="#FFB369"/>
</linearGradient>
<linearGradient id="paint7_linear_2248_14531" x1="20.125" y1="26.25" x2="23.625" y2="26.25" gradientUnits="userSpaceOnUse">
<stop stop-color="#54A5FF"/>
<stop offset="1" stop-color="#8AD3FE"/>
</linearGradient>
<linearGradient id="paint8_linear_2248_14531" x1="7.62939e-06" y1="36.75" x2="0.875008" y2="36.75" gradientUnits="userSpaceOnUse">
<stop stop-color="#FE9661"/>
<stop offset="1" stop-color="#FFB369"/>
</linearGradient>
<linearGradient id="paint9_linear_2248_14531" x1="20.125" y1="36.75" x2="23.625" y2="36.75" gradientUnits="userSpaceOnUse">
<stop stop-color="#54A5FF"/>
<stop offset="1" stop-color="#8AD3FE"/>
</linearGradient>
</defs>
</svg>
