<svg width="24" height="24" viewBox="0 0 24 24" fill="none" xmlns="http://www.w3.org/2000/svg">
<path d="M2 2V10.7604H21.2729V2H2ZM12.5125 7.25624H4.62812V5.50416H12.5125V7.25624ZM15.1406 7.25624C14.9673 7.25624 14.798 7.20486 14.6539 7.1086C14.5098 7.01234 14.3976 6.87552 14.3312 6.71545C14.2649 6.55537 14.2476 6.37923 14.2814 6.20929C14.3152 6.03936 14.3986 5.88326 14.5212 5.76075C14.6437 5.63823 14.7998 5.5548 14.9697 5.52099C15.1396 5.48719 15.3158 5.50454 15.4759 5.57085C15.6359 5.63715 15.7727 5.74944 15.869 5.8935C15.9653 6.03756 16.0166 6.20694 16.0166 6.3802C16.0166 6.61254 15.9243 6.83537 15.7601 6.99966C15.5958 7.16395 15.3729 7.25624 15.1406 7.25624ZM17.7687 7.25624C17.5955 7.25624 17.4261 7.20486 17.282 7.1086C17.138 7.01234 17.0257 6.87552 16.9594 6.71545C16.8931 6.55537 16.8757 6.37923 16.9095 6.20929C16.9433 6.03936 17.0268 5.88326 17.1493 5.76075C17.2718 5.63823 17.4279 5.5548 17.5978 5.52099C17.7678 5.48719 17.9439 5.50454 18.104 5.57085C18.264 5.63715 18.4009 5.74944 18.4971 5.8935C18.5934 6.03756 18.6448 6.20694 18.6448 6.3802C18.6448 6.61254 18.5525 6.83537 18.3882 6.99966C18.2239 7.16395 18.0011 7.25624 17.7687 7.25624ZM21.0013 17.2168L22 16.3408L21.124 14.8252L19.8537 15.2545C19.5724 15.0174 19.2524 14.8307 18.9076 14.7026L18.6448 13.3885H16.8927L16.6299 14.6938C16.2851 14.8219 15.965 15.0087 15.6838 15.2457L14.4135 14.8165L13.5375 16.332L14.5361 17.2081C14.466 17.5727 14.466 17.9473 14.5361 18.3119L13.5375 19.1879L14.4135 20.7035L15.6838 20.2742C15.965 20.5113 16.2851 20.698 16.6299 20.8261L16.8927 22.1489H18.6448L18.9076 20.8436C19.2524 20.7155 19.5725 20.5288 19.8537 20.2917L21.124 20.721L22 19.2054L21.0013 18.3294C21.0714 17.9618 21.0714 17.5844 21.0013 17.2168ZM17.7687 19.5208C17.4222 19.5208 17.0834 19.418 16.7953 19.2255C16.5072 19.033 16.2826 18.7594 16.15 18.4392C16.0174 18.1191 15.9827 17.7668 16.0503 17.4269C16.1179 17.087 16.2848 16.7749 16.5298 16.5298C16.7748 16.2848 17.087 16.1179 17.4269 16.0503C17.7668 15.9827 18.1191 16.0174 18.4392 16.15C18.7594 16.2826 19.033 16.5072 19.2255 16.7953C19.418 17.0834 19.5208 17.4222 19.5208 17.7687C19.5194 18.233 19.3344 18.6778 19.0061 19.0061C18.6778 19.3344 18.233 19.5194 17.7687 19.5208Z" fill="currentColor"/>
<path d="M11.6364 17.7689H4.62812V16.0169H11.894C12.3342 14.5493 13.3073 13.2994 14.622 12.5127H2V21.2731H12.7403C12.0209 20.2463 11.6355 19.0227 11.6364 17.7689Z" fill="currentColor"/>
</svg>
