<svg width="120" height="120" viewBox="0 0 120 120" fill="none" xmlns="http://www.w3.org/2000/svg">
<circle cx="60" cy="60" r="60" fill="url(#paint0_linear_2209_11058)"/>
<path d="M60 42C61.1046 42 62 41.1046 62 40C62 38.8954 61.1046 38 60 38C58.8954 38 58 38.8954 58 40C58 41.1046 58.8954 42 60 42Z" fill="white"/>
<path d="M80 32H40C38.9391 32 37.9217 32.4214 37.1716 33.1716C36.4214 33.9217 36 34.9391 36 36V44C36 45.0609 36.4214 46.0783 37.1716 46.8284C37.9217 47.5786 38.9391 48 40 48H58V56H62V48H80C81.0609 48 82.0783 47.5786 82.8284 46.8284C83.5786 46.0783 84 45.0609 84 44V36C84 34.9391 83.5786 33.9217 82.8284 33.1716C82.0783 32.4214 81.0609 32 80 32ZM80 44H40V36H80V44ZM62 84V80H58V84H36V88H84V84H62Z" fill="white"/>
<path d="M60 70C61.1046 70 62 69.1046 62 68C62 66.8954 61.1046 66 60 66C58.8954 66 58 66.8954 58 68C58 69.1046 58.8954 70 60 70Z" fill="white"/>
<path d="M40 76H80C81.0609 76 82.0783 75.5786 82.8284 74.8284C83.5786 74.0783 84 73.0609 84 72V64C84 62.9391 83.5786 61.9217 82.8284 61.1716C82.0783 60.4214 81.0609 60 80 60H40C38.9391 60 37.9217 60.4214 37.1716 61.1716C36.4214 61.9217 36 62.9391 36 64V72C36 73.0609 36.4214 74.0783 37.1716 74.8284C37.9217 75.5786 38.9391 76 40 76ZM40 64H80V72H40V64Z" fill="white"/>
<defs>
<linearGradient id="paint0_linear_2209_11058" x1="1.81565e-06" y1="60" x2="107.779" y2="96.2929" gradientUnits="userSpaceOnUse">
<stop stop-color="#D52274"/>
<stop offset="0.5625" stop-color="#F44D29"/>
<stop offset="1" stop-color="#FD7E14"/>
</linearGradient>
</defs>
</svg>
