<svg width="24" height="24" viewBox="0 0 24 24" fill="none" xmlns="http://www.w3.org/2000/svg">
<path d="M14.48 18.7099C13.7472 19.0033 12.944 19.073 12.1716 18.9103C11.3992 18.7477 10.6923 18.36 10.1401 17.796C9.58779 17.2321 9.2149 16.5172 9.06843 15.7416C8.92195 14.966 9.00846 14.1644 9.31703 13.4379L11.936 16.0569L14.056 13.9359L11.438 11.3169C12.1765 11.0019 12.9929 10.9171 13.7803 11.0737C14.5678 11.2302 15.2897 11.6208 15.8515 12.1943C16.4134 12.7678 16.789 13.4976 16.9294 14.2881C17.0697 15.0786 16.9682 15.8931 16.638 16.6249L18.571 18.5579C19.5028 17.2207 20.0016 15.6297 20 13.9999C19.9857 11.4328 19.394 8.90178 18.2688 6.59432C17.1437 4.28687 15.5138 2.26208 13.5 0.669922C13.9273 2.23683 14.1755 3.8471 14.24 5.46992C14.2756 5.94198 14.2141 6.41632 14.0595 6.86375C13.9048 7.31118 13.6603 7.72223 13.3409 8.07163C13.0215 8.42102 12.6339 8.70136 12.2021 8.8954C11.7703 9.08944 11.3034 9.19307 10.83 9.19992C10.3452 9.19874 9.86548 9.10071 9.41905 8.91158C8.97261 8.72246 8.56846 8.44605 8.23032 8.0986C7.89218 7.75114 7.62685 7.33963 7.44993 6.88822C7.273 6.43682 7.18804 5.95461 7.20003 5.46992L7.23003 5.10992C5.13731 7.59883 3.99307 10.7481 4.00003 13.9999C4.0003 15.447 4.39307 16.8669 5.13652 18.1085C5.87997 19.35 6.94625 20.3666 8.22179 21.05C9.49733 21.7335 10.9344 22.0581 12.3798 21.9894C13.8253 21.9207 15.2251 21.4613 16.43 20.6599L14.48 18.7099Z" fill="currentColor"/>
</svg>
