<svg width="24" height="24" viewBox="0 0 24 24" fill="none" xmlns="http://www.w3.org/2000/svg">
<path d="M11.9999 3C14.4849 3 16.7351 4.00753 18.3638 5.63621C19.9925 7.26479 21 9.51513 21 11.9999C21 14.4852 19.9926 16.7351 18.3638 18.3638C16.7351 19.9925 14.4849 21 11.9999 21C9.51483 21 7.26479 19.9926 5.63621 18.3638C4.00733 16.7351 3 14.4852 3 11.9999C3 9.51513 4.00753 7.26479 5.63621 5.63621C7.26479 4.00733 9.51483 3 11.9999 3ZM17.3019 6.69808C15.9452 5.34142 14.0706 4.50218 11.9999 4.50218C9.92923 4.50218 8.05464 5.34142 6.69808 6.69808C5.34142 8.05474 4.50218 9.92944 4.50218 11.9999C4.50218 14.0708 5.34142 15.9454 6.69808 17.3019C8.05464 18.6586 9.92923 19.4977 11.9999 19.4977C14.0706 19.4977 15.9452 18.6586 17.3019 17.3019C18.6586 15.9454 19.4977 14.0708 19.4977 11.9999C19.4977 9.92944 18.6586 8.05474 17.3019 6.69808Z" fill="#CBCBCB"/>
</svg>
