<svg width="24" height="24" viewBox="0 0 24 24" fill="none" xmlns="http://www.w3.org/2000/svg">
<path d="M12 3C7.02975 3 3 7.02975 3 12C3 16.9703 7.02975 21 12 21C16.9703 21 21 16.9703 21 12C21 7.02975 16.9703 3 12 3ZM16.1693 9.51038L11.8583 16.0995C11.8571 16.1006 11.8549 16.1018 11.8549 16.1029C11.8324 16.1366 11.82 16.1749 11.7919 16.2064C11.7525 16.2491 11.7019 16.2716 11.6569 16.3043C11.6456 16.3121 11.6344 16.3211 11.622 16.329C11.5523 16.3729 11.4803 16.4021 11.4015 16.4213C11.3756 16.428 11.352 16.4348 11.325 16.4393C11.2623 16.4479 11.1988 16.4486 11.136 16.4415C11.0916 16.4387 11.0476 16.4319 11.0044 16.4213C10.9598 16.4078 10.9165 16.3905 10.875 16.3695C10.839 16.3526 10.8008 16.3481 10.767 16.3267C10.7423 16.311 10.7288 16.2863 10.7074 16.2671C10.6984 16.2593 10.6871 16.257 10.6781 16.2491L8.16825 13.9282C8.01948 13.7854 7.93269 13.5899 7.92653 13.3837C7.92037 13.1776 7.99534 12.9772 8.13532 12.8257C8.27531 12.6743 8.46913 12.5838 8.67513 12.5737C8.88113 12.5636 9.08288 12.6347 9.237 12.7717L11.0539 14.4525L14.8508 8.64862C14.965 8.47378 15.1441 8.35149 15.3485 8.30867C15.553 8.26584 15.766 8.30597 15.9409 8.42025C16.1157 8.53452 16.238 8.71358 16.2808 8.91801C16.3237 9.12245 16.2835 9.33553 16.1693 9.51038Z" fill="#F44D29"/>
</svg>
