<svg width="32" height="32" viewBox="0 0 32 32" fill="none" xmlns="http://www.w3.org/2000/svg">
<path d="M4 6.13434C4 3.48308 9.37273 1.33398 16 1.33398C22.6273 1.33398 28 3.48308 28 6.13434V8.53362C28 11.1849 22.6273 13.334 16 13.334C9.37273 13.334 4 11.1849 4 8.53362V6.13434Z" fill="url(#paint0_linear_2223_15266)"/>
<path d="M4 12.7344V18.1341C4 20.7818 9.37273 22.9327 16 22.9327C22.6273 22.9327 28 20.7836 28 18.1323V12.7344C27.1894 13.3183 26.3075 13.7961 25.3757 14.1563C22.8577 15.1643 19.5404 15.733 16 15.733C12.4614 15.733 9.14414 15.1625 6.62607 14.1563C5.69426 13.7962 4.81234 13.3183 4.0018 12.7344H4Z" fill="url(#paint1_linear_2223_15266)"/>
<path d="M28 22.3358C27.1893 22.9191 26.3074 23.3963 25.3757 23.7559C22.8559 24.7639 19.5404 25.3326 15.9982 25.3326C12.4596 25.3326 9.14234 24.7639 6.62427 23.7559C5.69247 23.3957 4.81057 22.9179 4 22.334V25.3326C4 27.9839 9.37273 30.133 16 30.133C22.6273 30.133 28 27.9839 28 25.3326V22.3358Z" fill="url(#paint2_linear_2223_15266)"/>
<defs>
<linearGradient id="paint0_linear_2223_15266" x1="4" y1="7.33398" x2="20.5112" y2="18.4538" gradientUnits="userSpaceOnUse">
<stop stop-color="#D52274"/>
<stop offset="0.5625" stop-color="#F44D29"/>
<stop offset="1" stop-color="#FD7E14"/>
</linearGradient>
<linearGradient id="paint1_linear_2223_15266" x1="4" y1="17.8335" x2="18.7422" y2="29.516" gradientUnits="userSpaceOnUse">
<stop stop-color="#D52274"/>
<stop offset="0.5625" stop-color="#F44D29"/>
<stop offset="1" stop-color="#FD7E14"/>
</linearGradient>
<linearGradient id="paint2_linear_2223_15266" x1="4" y1="26.2335" x2="15.573" y2="38.2259" gradientUnits="userSpaceOnUse">
<stop stop-color="#D52274"/>
<stop offset="0.5625" stop-color="#F44D29"/>
<stop offset="1" stop-color="#FD7E14"/>
</linearGradient>
</defs>
</svg>
