<svg width="32" height="32" viewBox="0 0 32 32" fill="none" xmlns="http://www.w3.org/2000/svg">
<path d="M17.3333 25.3333H18.6667C19.0203 25.3333 19.3594 25.4738 19.6095 25.7239C19.8595 25.9739 20 26.313 20 26.6667H29.3333V29.3333H20C20 29.687 19.8595 30.0261 19.6095 30.2761C19.3594 30.5262 19.0203 30.6667 18.6667 30.6667H13.3333C12.9797 30.6667 12.6406 30.5262 12.3905 30.2761C12.1405 30.0261 12 29.687 12 29.3333H2.66666V26.6667H12C12 26.313 12.1405 25.9739 12.3905 25.7239C12.6406 25.4738 12.9797 25.3333 13.3333 25.3333H14.6667V22.6667H5.33332C4.9797 22.6667 4.64056 22.5262 4.39051 22.2761C4.14047 22.0261 3.99999 21.687 3.99999 21.3333V16C3.99999 15.6464 4.14047 15.3072 4.39051 15.0572C4.64056 14.8071 4.9797 14.6667 5.33332 14.6667H26.6667C27.0203 14.6667 27.3594 14.8071 27.6095 15.0572C27.8595 15.3072 28 15.6464 28 16V21.3333C28 21.687 27.8595 22.0261 27.6095 22.2761C27.3594 22.5262 27.0203 22.6667 26.6667 22.6667H17.3333V25.3333ZM5.33332 4H26.6667C27.0203 4 27.3594 4.14048 27.6095 4.39052C27.8595 4.64057 28 4.97971 28 5.33333V10.6667C28 11.0203 27.8595 11.3594 27.6095 11.6095C27.3594 11.8595 27.0203 12 26.6667 12H5.33332C4.9797 12 4.64056 11.8595 4.39051 11.6095C4.14047 11.3594 3.99999 11.0203 3.99999 10.6667V5.33333C3.99999 4.97971 4.14047 4.64057 4.39051 4.39052C4.64056 4.14048 4.9797 4 5.33332 4ZM12 9.33333H13.3333V6.66667H12V9.33333ZM12 20H13.3333V17.3333H12V20ZM6.66666 6.66667V9.33333H9.33332V6.66667H6.66666ZM6.66666 17.3333V20H9.33332V17.3333H6.66666Z" fill="url(#paint0_linear_2244_11613)"/>
<defs>
<linearGradient id="paint0_linear_2244_11613" x1="2.66666" y1="17.3333" x2="26.6175" y2="25.3984" gradientUnits="userSpaceOnUse">
<stop stop-color="#D52274"/>
<stop offset="0.5625" stop-color="#F44D29"/>
<stop offset="1" stop-color="#FD7E14"/>
</linearGradient>
</defs>
</svg>
